<?xml version="1.0" standalone="no"?>
<!DOCTYPE svg PUBLIC "-//W3C//DTD SVG 1.1//EN" "http://www.w3.org/Graphics/SVG/1.1/DTD/svg11.dtd" >
<svg xmlns="http://www.w3.org/2000/svg" xmlns:xlink="http://www.w3.org/1999/xlink" version="1.1">
<metadata>
Created by FontForge 20160407 at Sat May 14 18:41:28 2016
 By Jimmy Wärting
Copyright \(c\) 2009 by Vedran Erakovic. All rights reserved. Published by Parachute? Worldwide for the Parachute? Font Library.
</metadata>
<defs>
<font id="PFAdamantPro-ExtraBold" horiz-adv-x="416" >
  <font-face 
    font-family="PF Adamant Pro"
    font-weight="800"
    font-stretch="normal"
    units-per-em="1000"
    panose-1="2 0 9 5 0 0 0 2 0 4"
    ascent="800"
    descent="-200"
    x-height="530"
    cap-height="720"
    bbox="-135 -230 1271 962"
    underline-thickness="50"
    underline-position="-100"
    unicode-range="U+0020-FB04"
  />
<missing-glyph horiz-adv-x="500" 
d="M500 750v-750h-500v750h500zM409 690h-321l161 -262zM440 626l-156 -255l156 -255v510zM404 60l-155 254l-156 -254h311zM60 119l154 252l-154 252v-504z" />
    <glyph glyph-name="f_b" unicode="fb" horiz-adv-x="1020" 
d="M682 60c108 0 136 125 136 215c0 35 -3 66 -14 105c-11 40 -35 66 -70 66c-31 0 -60 -17 -87 -51v-330c12 -3 24 -5 35 -5zM396 459h-109v-397l70 -20c3 -13 3 -27 0 -42h-310c-3 14 -3 28 0 42l70 20v397h-70c-3 13 -3 26 0 39l70 24v43c0 144 133 195 270 195
c95 0 197 -27 260 -64v-228h4c31 44 88 72 140 72c67 0 117 -24 150 -72c33 -47 49 -105 49 -173c0 -93 -25 -167 -75 -222s-120 -83 -210 -83c-35 0 -67 6 -94 19c-15 -13 -43 -19 -84 -19h-50v692c-18 5 -39 7 -62 7c-72 0 -128 -34 -128 -110v-57h109c2 -11 3 -22 3 -32
c0 -11 -1 -21 -3 -31z" />
    <glyph glyph-name="f_h" unicode="fh" horiz-adv-x="1072" 
d="M396 459h-109v-397l65 -20c3 -13 3 -27 0 -42h-305c-3 13 -3 27 0 42l70 20v397h-70c-3 13 -3 26 0 39l70 24v43c0 144 133 195 270 195c95 0 197 -27 260 -64v-230h4c43 45 114 74 182 74c113 0 151 -75 151 -215v-263l70 -20c3 -14 3 -28 0 -42h-295c-3 13 -3 27 0 42
l56 20v233c0 32 1 47 -6 76c-7 42 -25 64 -69 68c-32 0 -63 -14 -93 -43v-334l55 -20c3 -13 3 -27 0 -42h-290c-3 13 -3 27 0 42l65 20v620c-18 5 -39 7 -62 7c-72 0 -128 -34 -128 -110v-57h109c2 -11 3 -22 3 -32c0 -11 -1 -21 -3 -31z" />
    <glyph glyph-name="f_j" unicode="fj" horiz-adv-x="735" 
d="M287 564v-47h288c53 0 72 -12 72 -67v-440c0 -124 -90 -201 -237 -213c-12 13 -19 29 -21 48c38 19 62 40 72 65c11 24 16 62 16 114v430h-190v-392l70 -20c3 -13 3 -27 0 -42h-310c-3 13 -3 27 0 42l70 20v392h-70c-3 14 -3 27 0 39l70 24v35c0 80 33 138 86 167
c55 29 113 41 188 41s144 -12 206 -36v-124c-36 -5 -81 -5 -114 0l-27 81c-18 4 -35 6 -52 6c-71 0 -117 -38 -117 -123z" />
    <glyph glyph-name="f_k" unicode="fk" horiz-adv-x="1073" 
d="M396 459h-109v-397l65 -20c3 -13 3 -27 0 -42h-305c-3 13 -3 27 0 42l70 20v397h-70c-3 13 -3 26 0 39l70 24v43c0 144 133 195 270 195c95 0 196 -28 260 -64v-634l70 -20c3 -13 3 -27 0 -42h-305c-3 13 -3 27 0 42l65 20v620c-18 5 -39 7 -62 7
c-72 0 -128 -34 -128 -110v-57h109c2 -11 3 -22 3 -32c0 -11 -1 -21 -3 -31zM1078 0h-228l-195 270v4l196 195l-68 19c-3 15 -3 29 0 42h271c3 -13 3 -27 0 -42l-108 -24l-128 -131l192 -269l68 -22c3 -14 3 -28 0 -42z" />
    <glyph glyph-name="f_t" unicode="ft" horiz-adv-x="779" 
d="M287 581v-59h190v158c-19 6 -40 9 -63 9c-72 0 -127 -35 -127 -108zM477 190v269h-190v-397l70 -20c3 -13 3 -27 0 -42h-310c-3 14 -3 28 0 42l70 20v397h-70c-3 13 -3 26 0 39l70 24v45c0 67 25 115 76 146s116 47 193 47c95 0 198 -27 261 -64v-174h130
c2 -11 3 -22 3 -32c0 -11 -1 -21 -3 -31h-130v-242c0 -45 1 -66 10 -98c13 -43 46 -58 119 -56c4 -20 4 -42 0 -63c-27 -7 -59 -10 -97 -10c-140 0 -202 56 -202 200z" />
    <glyph glyph-name="f_f.alt" unicode="&#xe1b6;&#xe1b6;" horiz-adv-x="765" 
d="M287 581v-59h190v48c0 39 8 74 25 104c-28 11 -57 16 -88 16c-73 0 -127 -33 -127 -109zM756 459h-109v-397l70 -20c3 -13 3 -27 0 -42h-305c-3 13 -3 27 0 42l65 20v397h-190v-397l65 -20c3 -13 3 -27 0 -42h-305c-3 13 -3 27 0 42l70 20v397h-70c-3 13 -3 26 0 39
l70 24v45c0 65 26 114 77 145c52 32 116 48 192 48c59 0 117 -10 173 -29c38 19 81 29 129 29c41 0 84 -7 129 -21c-2 -22 -8 -42 -17 -60c-20 3 -37 4 -52 4c-67 0 -101 -31 -101 -93v-68h109c2 -11 3 -22 3 -32c0 -11 -1 -21 -3 -31z" />
    <glyph glyph-name="f_f" unicode="ff" horiz-adv-x="765" 
d="M287 581v-59h190v48c0 39 8 74 25 104c-28 11 -57 16 -88 16c-73 0 -127 -33 -127 -109zM756 459h-109v-397l70 -20c3 -13 3 -27 0 -42h-305c-3 13 -3 27 0 42l65 20v397h-190v-397l65 -20c3 -13 3 -27 0 -42h-305c-3 13 -3 27 0 42l70 20v397h-70c-3 13 -3 26 0 39
l70 24v45c0 65 26 114 77 145c52 32 116 48 192 48c59 0 117 -10 173 -29c38 19 81 29 129 29c41 0 84 -7 129 -21v-127c-10 -2 -20 -3 -30 -3c-11 0 -21 1 -31 3l-25 83c-63 -1 -84 -35 -84 -111v-62h109c2 -11 3 -22 3 -32c0 -11 -1 -21 -3 -31z" />
    <glyph glyph-name="f_i" unicode="fi" horiz-adv-x="742" 
d="M287 564v-47h288c53 0 72 -12 72 -67v-388l70 -20c3 -14 3 -28 0 -42h-305c-3 13 -3 27 0 42l65 20v392h-190v-392l65 -20c3 -13 3 -27 0 -42h-305c-3 14 -3 28 0 42l70 20v392h-70c-3 13 -3 26 0 39l70 24v35c0 80 33 138 86 167c55 29 113 41 188 41s144 -12 206 -36
v-124c-36 -5 -81 -5 -114 0l-27 81c-17 5 -35 7 -54 7c-69 0 -115 -40 -115 -124z" />
    <glyph glyph-name="f_l" unicode="fl" horiz-adv-x="742" 
d="M396 459h-109v-397l65 -20c3 -13 3 -27 0 -42h-305c-3 13 -3 27 0 42l70 20v397h-70c-3 13 -3 26 0 39l70 24v43c0 144 133 195 270 195c95 0 197 -27 260 -64v-634l70 -20c3 -13 3 -27 0 -42h-305c-3 13 -3 27 0 42l65 20v620c-18 5 -38 7 -60 7
c-73 0 -130 -33 -130 -110v-57h109c2 -11 3 -22 3 -32c0 -11 -1 -21 -3 -31z" />
    <glyph glyph-name="f_f_i" unicode="ffi" horiz-adv-x="1102" 
d="M287 581v-64h190v35c0 46 11 86 34 119c-29 13 -60 19 -95 19c-73 0 -129 -33 -129 -109zM772 42l66 20v392h-191v-392l65 -20c3 -13 3 -27 0 -42h-300c-3 13 -3 27 0 42l65 20v392h-190v-392l65 -20c3 -13 3 -27 0 -42h-305c-3 13 -3 27 0 42l70 20v392h-70
c-3 13 -3 26 0 39l70 24v50c0 65 26 114 77 145c52 32 116 48 192 48c69 0 132 -11 190 -34c45 23 103 34 174 34c79 0 148 -12 207 -36v-124c-36 -5 -81 -5 -113 0l-28 81c-17 5 -35 7 -54 7c-69 0 -115 -40 -115 -124v-47h288c53 0 72 -12 72 -67v-388l70 -20
c3 -13 3 -27 0 -42h-305c-3 13 -3 27 0 42z" />
    <glyph glyph-name="f_f_l" unicode="ffl" horiz-adv-x="1102" 
d="M287 581v-59h190v43c0 41 11 76 33 106c-29 13 -60 19 -95 19c-73 0 -128 -33 -128 -109zM1007 696v-634l70 -20c3 -13 3 -27 0 -42h-305c-3 13 -3 27 0 42l66 20v620c-18 5 -38 7 -61 7c-73 0 -130 -33 -130 -110v-57h109c2 -11 3 -22 3 -32c0 -11 -1 -21 -3 -31h-109
v-397l65 -20c3 -13 3 -27 0 -42h-298c-3 14 -3 28 0 42l63 20v397h-190v-397l65 -20c3 -13 3 -27 0 -42h-305c-3 13 -3 27 0 42l70 20v397h-70c-3 13 -3 26 0 39l70 24v45c0 141 136 193 271 193c71 0 133 -11 187 -34c43 23 99 34 167 34c99 0 202 -25 265 -64z" />
    <glyph glyph-name=".notdef" horiz-adv-x="500" 
d="M500 750v-750h-500v750h500zM409 690h-321l161 -262zM440 626l-156 -255l156 -255v510zM404 60l-155 254l-156 -254h311zM60 119l154 252l-154 252v-504z" />
    <glyph glyph-name="NULL" horiz-adv-x="0" 
 />
    <glyph glyph-name="CR" horiz-adv-x="333" 
 />
    <glyph glyph-name="space" unicode=" " horiz-adv-x="262" 
 />
    <glyph glyph-name="exclam" unicode="!" horiz-adv-x="371" 
d="M115 0c-4 23 -6 46 -6 71c0 23 2 47 6 71c23 4 47 6 71 6c23 0 47 -2 71 -6c4 -24 6 -48 6 -71c0 -25 -2 -48 -6 -71c-24 -4 -48 -6 -71 -6c-24 0 -48 2 -71 6zM282 700l-60 -461c-13 -2 -25 -3 -37 -3c-13 0 -25 1 -38 3l-59 461c35 3 67 5 97 5c29 0 62 -2 97 -5z" />
    <glyph glyph-name="quotedbl" unicode="&#x22;" 
d="M370 756l-29 -291c-13 -2 -26 -3 -37 -3c-13 0 -25 1 -37 3l-30 291c27 3 49 4 66 4c18 0 40 -1 67 -4zM178 756l-29 -291c-13 -2 -26 -3 -37 -3c-13 0 -25 1 -37 3l-29 291c25 3 47 4 66 4c17 0 39 -1 66 -4z" />
    <glyph glyph-name="numbersign" unicode="#" horiz-adv-x="629" 
d="M104 0l46 197h-129c-2 13 -3 26 -3 39c0 12 1 25 3 38h148l38 158h-132c-2 12 -3 25 -3 39c0 11 1 24 3 38h149l46 191c12 2 24 3 36 3c11 0 23 -1 36 -3l-46 -191h113l46 191c23 4 47 4 72 0l-46 -191h126c2 -14 3 -27 3 -39c0 -13 -1 -26 -3 -38h-144l-37 -158h127
c2 -13 3 -25 3 -38s-1 -26 -3 -39h-146l-46 -197c-12 -2 -24 -3 -37 -3c-12 0 -24 1 -35 3l46 197h-113l-46 -197c-12 -2 -24 -3 -36 -3c-13 0 -25 1 -36 3zM391 432h-112l-38 -158h113z" />
    <glyph glyph-name="dollar" unicode="$" horiz-adv-x="629" 
d="M57 71v151c10 2 20 3 30 3c11 0 21 -1 31 -3l48 -125c27 -8 59 -12 94 -12c81 -1 158 23 161 95c-1 59 -90 75 -182 106c-31 12 -60 25 -87 38c-53 27 -94 82 -94 154c0 119 92 186 224 199v90c11 2 23 3 37 3c13 0 25 -1 37 -3v-90c75 -3 143 -20 202 -49v-144
c-11 -2 -22 -3 -31 -3c-11 0 -21 1 -30 3l-43 106c-25 11 -58 16 -98 16c-80 0 -144 -26 -144 -89c0 -49 58 -80 130 -101c105 -27 242 -67 240 -190c0 -58 -21 -105 -64 -141c-43 -35 -97 -58 -162 -69v-87c-12 -2 -24 -3 -37 -3c-14 0 -26 1 -37 3v82
c-79 0 -168 24 -225 60z" />
    <glyph glyph-name="percent" unicode="%" horiz-adv-x="898" 
d="M202 -4l426 730c24 -9 45 -21 62 -37l-425 -731c-25 9 -46 22 -63 38zM210 656c-31 0 -47 -50 -47 -151s16 -151 47 -151s46 50 46 151s-15 151 -46 151zM386 505c0 -129 -64 -205 -176 -205s-177 76 -177 205c0 131 64 205 177 205c112 0 176 -74 176 -205zM689 346
c-31 0 -47 -50 -47 -151s16 -151 47 -151s46 50 46 151s-15 151 -46 151zM865 195c0 -129 -64 -205 -176 -205s-177 76 -177 205c0 131 64 205 177 205c112 0 176 -74 176 -205z" />
    <glyph glyph-name="ampersand" unicode="&#x26;" horiz-adv-x="796" 
d="M345 658c-43 0 -71 -39 -71 -91c0 -17 4 -34 13 -53c9 -18 17 -32 25 -43s20 -26 36 -45c43 25 70 81 70 132c0 52 -22 100 -73 100zM432 89l-205 231c-23 -30 -35 -65 -35 -105c0 -88 61 -148 146 -148c31 0 62 7 94 22zM763 0h-252l-35 39c-53 -33 -117 -49 -192 -49
c-67 0 -124 16 -171 47s-70 79 -70 142c0 81 55 152 135 196c-41 50 -62 103 -62 159c0 61 23 109 70 144s102 52 164 52c53 0 101 -14 142 -41c42 -27 63 -66 63 -116c0 -89 -71 -155 -163 -194l151 -170c22 41 32 85 31 134l-49 21c-3 13 -3 27 0 41h238
c3 -14 3 -28 0 -41l-78 -20c-10 -73 -38 -139 -85 -198l76 -85l87 -18c3 -15 3 -29 0 -43z" />
    <glyph glyph-name="quotesingle" unicode="'" horiz-adv-x="224" 
d="M178 756l-29 -291c-13 -2 -26 -3 -37 -3c-13 0 -25 1 -37 3l-29 291c25 3 47 4 66 4c17 0 39 -1 66 -4z" />
    <glyph glyph-name="parenleft" unicode="(" horiz-adv-x="380" 
d="M343 712c-61 -37 -102 -93 -125 -167c-22 -73 -33 -161 -33 -264s11 -191 32 -262c22 -71 64 -129 126 -172c-6 -20 -16 -36 -30 -48c-93 43 -157 107 -192 192s-47 173 -47 289s14 205 47 289c35 85 99 151 192 192c15 -15 25 -31 30 -49z" />
    <glyph glyph-name="parenright" unicode=")" horiz-adv-x="380" 
d="M37 712c7 19 17 36 30 49c93 -41 158 -106 191 -191c35 -85 48 -174 48 -290c0 -121 -17 -220 -52 -299s-97 -140 -187 -182c-14 12 -24 28 -30 48c62 43 104 101 125 172c22 71 33 159 33 262s-11 191 -34 264c-22 74 -63 130 -124 167z" />
    <glyph glyph-name="asterisk" unicode="*" horiz-adv-x="514" 
d="M76 676l148 -96c-6 -21 -15 -37 -27 -49l-158 82c10 25 22 46 37 63zM39 446l159 81c11 -15 20 -31 27 -49l-149 -96c-16 19 -28 41 -37 64zM220 296l8 179c20 4 39 4 57 0l8 -179c-13 -2 -25 -3 -36 -3c-13 0 -25 1 -37 3zM437 382l-149 95c9 22 18 38 29 49l157 -81
c-8 -25 -20 -46 -37 -63zM473 613l-156 -82c-13 13 -22 30 -27 50l147 95c15 -18 27 -39 36 -63zM293 762l-8 -179c-19 -4 -38 -4 -57 0l-8 179c11 2 23 3 36 3s25 -1 37 -3z" />
    <glyph glyph-name="plus" unicode="+" horiz-adv-x="646" 
d="M593 232h-228v-232c-28 -4 -56 -4 -84 0v232h-228c-2 14 -3 28 -3 41c0 14 1 27 3 40h228v226c28 4 56 4 84 0v-226h228c4 -28 4 -54 0 -81z" />
    <glyph glyph-name="comma" unicode="," horiz-adv-x="287" 
d="M46 -135c40 52 64 144 64 235c0 17 -1 34 -3 51c21 3 45 4 70 4c24 0 45 -1 64 -4c1 -9 1 -21 1 -37c0 -129 -51 -225 -152 -287c-18 10 -33 23 -44 38z" />
    <glyph glyph-name="hyphen" unicode="-" horiz-adv-x="406" 
d="M348 258h-290c-2 14 -3 27 -3 40c0 15 1 29 3 43h290c2 -14 3 -28 3 -41c0 -14 -1 -28 -3 -42z" />
    <glyph glyph-name="period" unicode="." horiz-adv-x="287" 
d="M77 153c32 3 57 4 76 4c20 0 45 -1 76 -4c7 -56 7 -96 0 -153c-25 -3 -51 -5 -76 -5c-26 0 -51 2 -76 5c-3 29 -5 55 -5 79c0 21 2 46 5 74z" />
    <glyph glyph-name="slash" unicode="/" horiz-adv-x="412" 
d="M303 750h88l2 -3l-285 -802h-88l-2 3z" />
    <glyph glyph-name="zero" unicode="0" horiz-adv-x="629" 
d="M43 350c0 239 99 360 272 360c172 0 272 -121 272 -360c0 -235 -101 -360 -272 -360c-172 0 -272 125 -272 360zM315 637c-75 0 -99 -100 -99 -287s24 -287 99 -287c73 0 100 102 100 287s-27 287 -100 287z" />
    <glyph glyph-name="one" unicode="1" horiz-adv-x="629" 
d="M123 44l115 25v544h-118c-3 17 -3 35 0 52l171 38c23 5 41 7 52 7c43 0 65 -25 65 -75v-566l115 -25c3 -13 3 -28 0 -44h-400c-3 15 -3 29 0 44z" />
    <glyph glyph-name="two" unicode="2" horiz-adv-x="629" 
d="M242 159v-4h309c3 -28 5 -55 5 -80c0 -23 -2 -48 -5 -75h-517v64l196 182c83 76 132 149 132 248c0 83 -50 137 -131 137c-23 0 -47 -4 -72 -11l-44 -142c-10 -2 -20 -3 -31 -3c-10 0 -20 1 -30 3v152c52 51 141 80 230 80c71 0 131 -17 180 -51c50 -33 75 -82 75 -147
c0 -52 -18 -101 -38 -133c-9 -15 -25 -33 -46 -54c-21 -20 -39 -35 -52 -46l-64 -48z" />
    <glyph glyph-name="three" unicode="3" horiz-adv-x="629" 
d="M77 512v152c60 31 133 46 218 46c67 0 123 -11 172 -38c51 -25 81 -75 81 -142c0 -81 -57 -141 -142 -157v-4c100 -11 163 -67 163 -160c0 -159 -153 -219 -291 -219c-87 0 -161 18 -221 55v155c10 2 20 3 30 3c11 0 21 -1 31 -3l36 -110c35 -14 69 -21 104 -21
c84 0 140 50 140 131c0 92 -51 123 -150 123h-73c-2 12 -3 24 -3 36c0 13 1 25 3 37h68c85 0 133 46 133 127c0 76 -49 113 -117 113c-30 0 -60 -6 -91 -19l-30 -105c-11 -2 -22 -3 -31 -3c-11 0 -21 1 -30 3z" />
    <glyph glyph-name="four" unicode="4" horiz-adv-x="629" 
d="M331 69v122h-326v61l354 458h142v-446h95c2 -12 3 -24 3 -37s-1 -25 -3 -36h-95v-122l98 -25c3 -14 3 -29 0 -44h-366c-3 15 -3 29 0 44zM114 268v-4h217v277h-4z" />
    <glyph glyph-name="five" unicode="5" horiz-adv-x="629" 
d="M79 43v157c10 2 20 3 30 3c11 0 21 -1 31 -3l40 -120c28 -8 54 -12 79 -12c93 0 155 55 155 155c0 87 -53 130 -159 130c-36 0 -84 -5 -144 -14l-9 8v344l8 9h441c3 -29 5 -55 5 -80c0 -23 -2 -48 -5 -75h-373v-125c52 7 95 10 129 10c154 3 274 -56 277 -208
c0 -52 -15 -96 -44 -132c-59 -72 -150 -100 -262 -100c-72 0 -138 18 -199 53z" />
    <glyph glyph-name="six" unicode="6" horiz-adv-x="629" 
d="M328 63c58 0 87 55 87 164c0 107 -29 161 -87 161c-61 0 -92 -54 -92 -163c0 -108 31 -162 92 -162zM244 440l4 -1c32 16 68 24 107 24c69 0 125 -21 168 -63c43 -41 64 -96 64 -164c0 -73 -24 -133 -72 -178c-47 -45 -110 -68 -187 -68c-87 0 -153 26 -198 78
c-45 53 -68 122 -68 209c0 77 14 148 41 212c27 65 70 118 127 159c58 41 127 62 206 62c34 0 70 -6 107 -17c-1 -23 -6 -47 -15 -71c-22 7 -45 11 -69 11c-51 0 -97 -18 -137 -55c-39 -36 -65 -82 -78 -138z" />
    <glyph glyph-name="seven" unicode="7" horiz-adv-x="629" 
d="M68 492v208h512v-60l-335 -651c-35 15 -68 33 -97 54l303 502h-305l-17 -53c-11 -2 -22 -3 -31 -3c-10 0 -20 1 -30 3z" />
    <glyph glyph-name="eight" unicode="8" horiz-adv-x="629" 
d="M47 180c0 72 45 126 109 158v4c-63 45 -94 103 -94 174c0 60 26 107 77 142s111 52 178 52c69 0 128 -15 177 -46c49 -30 74 -75 74 -134c0 -65 -46 -120 -115 -148v-4c84 -43 130 -93 130 -180c0 -64 -27 -115 -80 -152s-116 -56 -189 -56c-75 0 -138 16 -190 48
c-51 32 -77 79 -77 142zM315 64c55 0 96 39 96 92c0 31 -16 55 -45 74c-14 9 -28 17 -41 24c-25 13 -69 30 -86 39c-21 -29 -31 -63 -31 -102c0 -71 38 -127 107 -127zM230 550c0 -27 12 -50 23 -65c6 -7 16 -15 31 -24l36 -21c9 -5 26 -12 49 -23c23 31 35 70 35 116
c0 60 -28 105 -88 105c-48 0 -86 -39 -86 -88z" />
    <glyph glyph-name="nine" unicode="9" horiz-adv-x="629" 
d="M310 637c-23 0 -42 -8 -56 -25c-27 -32 -32 -73 -32 -137c0 -105 29 -158 88 -158c61 0 92 53 92 160s-31 160 -92 160zM310 710c199 0 265 -136 265 -289c0 -127 -34 -230 -103 -311c-68 -80 -161 -120 -278 -120c-37 0 -75 5 -113 15c0 25 5 49 15 72
c21 -8 45 -12 71 -12c55 0 104 19 147 58s68 88 77 147l-5 1c-29 -19 -66 -29 -110 -29c-65 0 -119 21 -162 62c-42 41 -63 95 -63 161c0 73 24 132 71 177s110 68 188 68z" />
    <glyph glyph-name="colon" unicode=":" horiz-adv-x="287" 
d="M77 153c32 3 57 4 76 4c20 0 45 -1 76 -4c7 -56 7 -96 0 -153c-25 -3 -51 -5 -76 -5c-26 0 -51 2 -76 5c-3 29 -5 55 -5 79c0 21 2 46 5 74zM77 533c32 3 57 4 76 4c20 0 45 -1 76 -4c7 -56 7 -96 0 -153c-25 -3 -51 -5 -76 -5c-26 0 -51 2 -76 5c-3 29 -5 55 -5 79
c0 21 2 46 5 74z" />
    <glyph glyph-name="semicolon" unicode=";" horiz-adv-x="287" 
d="M87 533c32 3 57 4 76 4c20 0 45 -1 76 -4c7 -56 7 -96 0 -153c-25 -3 -51 -5 -76 -5c-26 0 -51 2 -76 5c-3 29 -5 55 -5 79c0 21 2 46 5 74zM42 -135c40 52 64 144 64 235c0 17 -1 34 -3 51c21 3 45 4 70 4c24 0 45 -1 64 -4c1 -9 1 -21 1 -37c0 -129 -51 -225 -152 -287
c-18 10 -33 23 -44 38z" />
    <glyph glyph-name="less" unicode="&#x3c;" horiz-adv-x="646" 
d="M563 -10l-511 230c-3 13 -4 29 -4 46s1 32 4 46l513 228c15 -25 26 -51 33 -79l-444 -194v-4l444 -194c-7 -30 -19 -56 -35 -79z" />
    <glyph glyph-name="equal" unicode="=" horiz-adv-x="646" 
d="M594 321h-543c-2 14 -3 27 -3 40c0 14 1 27 3 40h543c2 -13 3 -26 3 -40c0 -13 -1 -26 -3 -40zM594 144h-543c-2 13 -3 26 -3 39s1 27 3 41h543c2 -13 3 -27 3 -41c0 -12 -1 -25 -3 -39z" />
    <glyph glyph-name="greater" unicode="&#x3e;" horiz-adv-x="646" 
d="M594 220l-511 -230c-16 23 -28 49 -35 79l444 194v4l-444 194c7 28 18 54 33 79l513 -228c3 -14 4 -29 4 -46s-1 -33 -4 -46z" />
    <glyph glyph-name="question" unicode="?" horiz-adv-x="508" 
d="M31 491v145c68 49 144 74 229 74c145 0 228 -67 228 -160c0 -72 -36 -122 -84 -150c-69 -40 -161 -73 -180 -161c-13 -2 -26 -3 -38 -3c-13 0 -25 1 -37 3c-20 183 163 155 163 297c0 68 -40 98 -97 98c-29 0 -58 -6 -85 -19l-39 -124c-20 -4 -40 -4 -60 0zM125 0
c-4 23 -6 46 -6 71c0 23 2 47 6 71c23 4 47 6 71 6c23 0 47 -2 71 -6c4 -24 6 -48 6 -71c0 -25 -2 -48 -6 -71c-24 -4 -48 -6 -71 -6c-24 0 -48 2 -71 6z" />
    <glyph glyph-name="at" unicode="@" horiz-adv-x="877" 
d="M502 380l7 31c-12 4 -25 6 -38 6c-27 0 -51 -14 -71 -41c-40 -55 -54 -126 -54 -187c0 -33 7 -49 21 -49c24 0 49 23 74 69s46 103 61 171zM472 180h-4c-28 -65 -83 -117 -144 -117c-69 0 -100 56 -100 125c0 71 22 134 65 191c44 57 98 86 162 86c30 0 59 -6 87 -19
c7 13 29 19 64 19h37l-37 -203c-7 -37 -10 -63 -10 -78c0 -39 13 -59 40 -59c29 0 53 11 73 34c40 47 52 106 52 165c0 169 -108 266 -283 266c-102 0 -185 -33 -249 -98s-96 -154 -96 -265c0 -88 26 -159 77 -212c52 -53 119 -79 202 -79c69 0 123 12 164 35
c9 -16 14 -33 15 -50c-53 -29 -116 -44 -190 -44c-104 0 -190 32 -257 97s-101 147 -101 246c0 127 42 229 127 308s190 118 317 118c62 0 120 -12 173 -35s97 -59 132 -106s52 -102 52 -165c0 -75 -25 -140 -74 -195c-49 -54 -116 -81 -200 -81c-69 0 -101 39 -94 116z" />
    <glyph glyph-name="A" unicode="A" horiz-adv-x="826" 
d="M468 44l87 25l-57 151h-262l-58 -151l87 -25c3 -15 3 -29 0 -44h-250c-3 15 -3 29 0 44l79 26l249 650h151l246 -650l78 -26c3 -15 3 -29 0 -44h-350c-3 15 -3 29 0 44zM371 556h-5l-99 -256h200z" />
    <glyph glyph-name="B" unicode="B" horiz-adv-x="721" 
d="M462 527c0 75 -42 113 -125 113h-32v-222h29c85 0 128 36 128 109zM350 338h-45v-258h49c99 0 151 33 151 130s-55 128 -155 128zM44 44l87 25v582l-87 25c-3 15 -3 29 0 44h294c63 0 104 -1 163 -16c83 -18 137 -65 141 -162c0 -77 -53 -139 -133 -152v-4
c104 -8 176 -73 176 -170c0 -81 -39 -141 -104 -172c-64 -31 -136 -44 -224 -44h-313c-3 15 -3 29 0 44z" />
    <glyph glyph-name="C" unicode="C" horiz-adv-x="715" 
d="M554 88l49 137c23 4 41 4 64 0v-167c-75 -45 -161 -68 -259 -68c-108 0 -196 32 -263 95s-100 155 -100 274c0 79 18 148 54 205c73 115 193 166 340 166c85 0 159 -19 223 -58v-159c-21 -4 -43 -4 -64 0l-46 119c-29 13 -59 20 -90 20c-83 0 -144 -27 -182 -80
s-57 -123 -57 -212c0 -181 78 -288 229 -288c32 0 66 5 102 16z" />
    <glyph glyph-name="D" unicode="D" horiz-adv-x="795" 
d="M371 640h-66v-560h66c149 0 206 97 206 280s-57 280 -206 280zM44 44l87 25v582l-87 25c-3 15 -3 29 0 44h326c265 0 384 -115 384 -360c0 -243 -119 -360 -384 -360h-326c-3 15 -3 29 0 44z" />
    <glyph glyph-name="E" unicode="E" horiz-adv-x="711" 
d="M44 44l87 25v582l-87 25c-3 15 -3 29 0 44h606v-170c-11 -2 -22 -3 -33 -3c-10 0 -21 1 -32 3l-35 90h-245v-229h177l25 62c18 4 36 4 53 0v-221c-19 -4 -37 -4 -53 0l-25 79h-177v-251h264l35 95c21 4 43 4 64 0v-175h-624c-3 15 -3 29 0 44z" />
    <glyph glyph-name="F" unicode="F" horiz-adv-x="651" 
d="M44 720h584v-170c-11 -2 -22 -3 -32 -3c-11 0 -21 1 -32 3l-36 90h-223v-246h152l25 59c18 4 36 4 53 0v-221c-19 -4 -37 -4 -53 0l-25 82h-152v-245l88 -25c3 -14 3 -29 0 -44h-349c-3 15 -3 29 0 44l87 25v582l-87 25c-3 15 -3 29 0 44z" />
    <glyph glyph-name="G" unicode="G" horiz-adv-x="777" 
d="M729 314l-49 -18v-306h-50c-35 0 -60 13 -74 39c-45 -26 -101 -39 -166 -39c-103 0 -186 32 -250 97c-63 65 -95 156 -95 274c0 253 187 369 403 369c91 0 168 -19 232 -57v-159c-11 -2 -22 -3 -32 -3c-11 0 -21 1 -32 3l-46 119c-35 12 -73 18 -112 18
c-153 0 -235 -102 -235 -290c0 -81 16 -149 49 -204s83 -82 150 -82c29 0 59 6 89 17v197l-118 25c-3 15 -3 29 0 44h336c3 -15 3 -29 0 -44z" />
    <glyph glyph-name="H" unicode="H" horiz-adv-x="870" 
d="M573 338h-268v-269l81 -25c3 -13 3 -28 0 -44h-342c-3 15 -3 29 0 44l87 25v582l-87 25c-3 15 -3 29 0 44h342c3 -15 3 -29 0 -44l-81 -25v-233h268v233l-81 25c-3 15 -3 29 0 44h342c3 -15 3 -29 0 -44l-87 -25v-582l87 -25c3 -13 3 -28 0 -44h-342c-3 15 -3 29 0 44
l81 25v269z" />
    <glyph glyph-name="I" unicode="I" horiz-adv-x="429" 
d="M131 69v582l-87 25c-3 15 -3 29 0 44h349c3 -15 3 -29 0 -44l-88 -25v-582l88 -25c3 -15 3 -29 0 -44h-349c-3 15 -3 29 0 44z" />
    <glyph glyph-name="J" unicode="J" horiz-adv-x="429" 
d="M127 80v571l-87 25c-3 15 -3 29 0 44h349c3 -15 3 -29 0 -44l-88 -25v-609c0 -63 -25 -113 -76 -148c-51 -36 -118 -54 -202 -54c-7 15 -11 31 -13 48c95 20 117 77 117 192z" />
    <glyph glyph-name="K" unicode="K" horiz-adv-x="815" 
d="M815 0h-233l-268 361l255 298l-62 17c-3 14 -3 29 0 44h265c3 -15 3 -29 0 -44l-107 -26l-192 -223l266 -358l76 -25c3 -14 3 -29 0 -44zM393 676l-88 -25v-582l88 -25c3 -14 3 -29 0 -44h-349c-3 15 -3 29 0 44l87 25v582l-87 25c-3 15 -3 29 0 44h349
c3 -15 3 -29 0 -44z" />
    <glyph glyph-name="L" unicode="L" horiz-adv-x="640" 
d="M635 200v-200h-591c-3 15 -3 29 0 44l87 25v582l-87 25c-3 15 -3 29 0 44h349c3 -15 3 -29 0 -44l-88 -25v-571h220l46 120c10 2 21 3 32 3c10 0 21 -1 32 -3z" />
    <glyph glyph-name="M" unicode="M" horiz-adv-x="1073" 
d="M534 227h4l205 493h268c3 -15 3 -29 0 -44l-88 -25l24 -582l88 -25c3 -14 3 -29 0 -44h-348c-3 15 -3 29 0 44l88 25l-21 459h-4l-218 -528h-99l-194 529h-4l-43 -460l89 -25c3 -15 3 -29 0 -44h-249c-3 15 -3 29 0 44l80 26l53 581l-87 25c-3 15 -3 29 0 44h275z" />
    <glyph glyph-name="N" unicode="N" horiz-adv-x="774" 
d="M523 0l-320 540h-4v-471l88 -25c3 -14 3 -29 0 -44h-245c-3 15 -3 29 0 44l78 26v580l-78 26c-3 15 -3 29 0 44h256l280 -476h4v407l-87 25c-3 15 -3 29 0 44h244c3 -15 3 -29 0 -44l-78 -26v-650h-138z" />
    <glyph glyph-name="O" unicode="O" horiz-adv-x="794" 
d="M45 360c0 243 121 370 352 370c228 0 351 -127 351 -370c0 -239 -123 -370 -351 -370c-231 0 -352 130 -352 370zM397 650c-116 0 -174 -97 -174 -290s58 -290 174 -290c119 0 173 110 173 290s-54 290 -173 290z" />
    <glyph glyph-name="P" unicode="P" horiz-adv-x="684" 
d="M479 485c0 103 -55 155 -164 155h-10v-305h14c107 0 160 57 160 150zM312 255h-7v-186l88 -25c3 -14 3 -29 0 -44h-349c-3 15 -3 29 0 44l87 25v582l-87 25c-3 15 -3 29 0 44h272c224 0 336 -74 336 -221c0 -148 -120 -244 -340 -244z" />
    <glyph glyph-name="Q" unicode="Q" horiz-adv-x="794" 
d="M397 650c-116 0 -174 -97 -174 -290s58 -290 174 -290c119 0 173 110 173 290s-54 290 -173 290zM45 360c0 243 121 370 352 370c228 0 351 -127 351 -370c0 -205 -91 -331 -260 -362c12 -60 44 -95 113 -110c0 -17 -5 -33 -14 -48c-145 0 -250 57 -274 156
c-176 29 -268 155 -268 364z" />
    <glyph glyph-name="R" unicode="R" horiz-adv-x="755" 
d="M479 499c0 94 -55 141 -164 141h-10v-278h14c105 0 160 48 160 137zM527 0l-209 285h-13v-216l75 -25c3 -14 3 -29 0 -44h-336c-3 15 -3 29 0 44l87 25v582l-87 25c-3 15 -3 29 0 44h272c227 0 336 -63 336 -206c0 -93 -49 -159 -147 -198l183 -247l69 -25
c3 -14 3 -29 0 -44h-230z" />
    <glyph glyph-name="S" unicode="S" horiz-adv-x="651" 
d="M52 57v165c10 2 21 3 32 3c10 0 21 -1 32 -3l49 -136c33 -9 67 -14 104 -14c47 0 87 9 119 26s48 45 48 83c0 72 -96 85 -193 114c-33 11 -63 24 -92 37c-57 28 -100 90 -100 175c0 50 14 92 41 127c56 69 141 96 245 96c93 0 174 -19 245 -57v-159c-11 -2 -21 -3 -32 -3
s-22 1 -32 3l-47 118c-29 11 -62 17 -99 17c-85 0 -154 -32 -154 -103c0 -25 10 -45 29 -62c39 -32 98 -41 166 -64c34 -11 65 -23 94 -36c57 -24 101 -81 101 -158c0 -76 -31 -134 -94 -175c-62 -41 -136 -61 -221 -61c-99 0 -179 22 -241 67z" />
    <glyph glyph-name="T" unicode="T" horiz-adv-x="677" 
d="M603 525l-45 115h-132v-571l87 -25c3 -14 3 -29 0 -44h-349c-3 15 -3 29 0 44l88 25v571h-133l-44 -115c-11 -2 -22 -3 -33 -3s-21 1 -32 3v195h657v-195c-11 -2 -22 -3 -32 -3c-11 0 -22 1 -32 3z" />
    <glyph glyph-name="U" unicode="U" horiz-adv-x="794" 
d="M120 298v353l-78 25c-3 15 -3 29 0 44h336c3 -15 3 -29 0 -44l-84 -25v-364c0 -144 41 -210 156 -210c103 0 156 79 156 211v363l-88 25c-3 15 -3 29 0 44h244c3 -15 3 -29 0 -44l-78 -26v-352c0 -192 -87 -308 -282 -308c-103 0 -175 26 -218 77c-43 52 -64 129 -64 231
z" />
    <glyph glyph-name="V" unicode="V" horiz-adv-x="817" 
d="M16 720h351c3 -15 3 -29 0 -44l-87 -25l181 -487h5l184 487l-86 25c-3 15 -3 29 0 44h249c3 -15 3 -29 0 -44l-79 -26l-245 -650h-152l-243 650l-78 26c-3 16 -3 31 0 44z" />
    <glyph glyph-name="W" unicode="W" horiz-adv-x="1095" 
d="M18 720h344c3 -15 3 -29 0 -44l-86 -25l121 -446h6l150 505h99l143 -505h5l130 446l-88 25c-3 15 -3 29 0 44h246c3 -15 3 -29 0 -44l-76 -25l-190 -651h-151l-117 420h-4l-125 -420h-151l-178 651l-78 25c-3 15 -3 30 0 44z" />
    <glyph glyph-name="X" unicode="X" horiz-adv-x="770" 
d="M478 69l-133 212l-152 -211l90 -26c3 -14 3 -29 0 -44h-268c-3 15 -3 29 0 44l81 26l203 284l-184 296l-80 26c-3 16 -3 31 0 44h362c3 -15 3 -29 0 -44l-78 -25l117 -187l136 187l-76 25c-3 15 -3 29 0 44h252c3 -15 3 -29 0 -44l-80 -27l-186 -258l201 -321l80 -26
c3 -15 3 -29 0 -44h-374c-3 15 -3 29 0 44z" />
    <glyph glyph-name="Y" unicode="Y" horiz-adv-x="756" 
d="M673 650l-201 -371v-210l87 -25c3 -15 3 -29 0 -44h-349c-3 15 -3 29 0 44l88 25v208l-207 373l-80 26c-3 16 -3 31 0 44h360c3 -15 3 -29 0 -44l-80 -25l146 -264h4l143 264l-81 25c-3 15 -3 29 0 44h252c3 -15 3 -29 0 -44z" />
    <glyph glyph-name="Z" unicode="Z" horiz-adv-x="682" 
d="M55 525v195h585v-68l-389 -572h293l46 120c21 4 43 4 64 0v-200h-627v68l389 572h-253l-44 -115c-23 -4 -41 -4 -64 0z" />
    <glyph glyph-name="bracketleft" unicode="[" horiz-adv-x="380" 
d="M339 677h-129v-794h129c2 -12 3 -24 3 -37s-1 -25 -3 -36h-230l-5 5v930l5 5h230c2 -12 3 -24 3 -37s-1 -25 -3 -36z" />
    <glyph glyph-name="backslash" unicode="\" horiz-adv-x="412" 
d="M391 -55h-88l-285 802l2 3h88l285 -802z" />
    <glyph glyph-name="bracketright" unicode="]" horiz-adv-x="380" 
d="M40 -117h129v794h-129c-2 11 -3 23 -3 36s1 25 3 37h230l5 -5v-930l-5 -5h-230c-2 11 -3 23 -3 36s1 25 3 37z" />
    <glyph glyph-name="asciicircum" unicode="^" horiz-adv-x="646" 
d="M66 270l223 430c12 1 23 2 33 2c11 0 22 -1 33 -2l224 -430c-20 -15 -45 -28 -75 -38l-179 350h-4l-181 -350c-27 9 -52 22 -74 38z" />
    <glyph glyph-name="underscore" unicode="_" horiz-adv-x="500" 
d="M0 -75h500v-50h-500v50z" />
    <glyph glyph-name="grave" unicode="`" horiz-adv-x="400" 
d="M181 792l114 -168c-14 -17 -30 -31 -49 -41l-142 146c21 24 46 45 77 63z" />
    <glyph glyph-name="a" unicode="a" horiz-adv-x="634" 
d="M541 359v-293h70c3 -17 3 -34 0 -51l-163 -25c-48 -7 -76 20 -76 73h-4c-39 -49 -92 -73 -159 -73c-97 0 -164 53 -164 156c-3 80 50 127 107 149c19 9 43 15 70 19c56 8 90 11 149 12v45c0 62 -38 93 -115 93c-24 0 -52 -3 -85 -9l-31 -94c-11 -2 -22 -3 -31 -3
c-10 0 -20 1 -30 3v134c85 30 162 45 231 45s125 -14 167 -43c43 -28 64 -74 64 -138zM371 133v130h-18c-76 0 -137 -33 -137 -109c0 -49 24 -71 56 -71c33 0 78 22 99 50z" />
    <glyph glyph-name="b" unicode="b" horiz-adv-x="647" 
d="M273 395v-330c11 -3 23 -5 35 -5c108 0 136 125 136 215c0 35 -3 66 -14 105c-11 40 -35 66 -70 66c-31 0 -60 -17 -87 -51zM153 -10h-50v689h-69c-3 17 -3 34 0 51l160 25c55 8 79 -11 79 -68v-219h4c32 44 89 72 142 72c64 0 113 -24 146 -72c34 -48 51 -106 51 -173
c0 -93 -25 -168 -75 -223s-120 -82 -210 -82c-35 0 -67 6 -94 19c-15 -13 -43 -19 -84 -19z" />
    <glyph glyph-name="c" unicode="c" horiz-adv-x="551" 
d="M512 180v-135c-53 -37 -118 -55 -197 -55c-176 0 -279 97 -279 274c0 88 26 156 78 204s121 72 206 72c69 0 132 -16 187 -47v-130c-10 -2 -20 -3 -31 -3c-10 0 -20 1 -30 3l-32 98c-18 3 -35 5 -50 5c-104 0 -156 -66 -156 -198c0 -135 52 -202 156 -202c19 0 37 2 56 6
l31 108c17 4 40 4 61 0z" />
    <glyph glyph-name="d" unicode="d" horiz-adv-x="646" 
d="M380 537v142h-70c-3 17 -3 34 0 51l161 25c56 9 79 -11 79 -68v-621h69c3 -17 3 -34 0 -51l-162 -27c-47 -8 -77 19 -77 71v4h-4c-38 -49 -86 -73 -143 -73c-65 0 -115 25 -148 74s-49 109 -49 180c0 93 27 166 82 218s125 78 212 78c17 0 34 -1 50 -3zM380 134v339
c-138 14 -172 -117 -172 -227c0 -109 30 -163 90 -163c35 0 62 17 82 51z" />
    <glyph glyph-name="e" unicode="e" horiz-adv-x="598" 
d="M548 262h-340c0 -132 50 -198 159 -198c28 0 55 3 82 10l31 101c19 4 39 4 60 0v-130c-63 -37 -137 -55 -220 -55c-172 0 -284 92 -284 275c0 172 103 275 276 275c77 0 137 -21 178 -63s62 -96 62 -162c0 -15 -1 -32 -4 -53zM309 468c-57 0 -89 -57 -97 -142l170 10
c0 85 -28 132 -73 132z" />
    <glyph glyph-name="f" unicode="f" horiz-adv-x="405" 
d="M396 459h-109v-397l70 -20c3 -13 3 -27 0 -42h-310c-3 13 -3 27 0 42l70 20v397h-70c-3 13 -3 26 0 39l70 24v48c0 129 82 190 206 190c45 0 89 -7 134 -21v-127c-10 -2 -20 -3 -31 -3c-10 0 -20 1 -30 3l-25 83c-63 0 -84 -35 -84 -111v-62h109c2 -11 3 -22 3 -32
c0 -11 -1 -21 -3 -31z" />
    <glyph glyph-name="g" unicode="g" horiz-adv-x="587" 
d="M525 358c0 -122 -80 -183 -239 -183c-43 0 -78 5 -105 15c-18 -15 -27 -29 -27 -43c0 -20 10 -33 34 -38c25 -4 37 -5 73 -5h130c115 0 173 -44 173 -131c0 -61 -29 -109 -69 -136c-19 -13 -43 -24 -70 -33c-53 -17 -99 -21 -151 -21c-81 0 -155 12 -222 37v131
c19 3 38 3 55 0l31 -78c21 -11 68 -17 140 -17c49 0 90 5 123 15c34 10 51 26 51 49c0 12 -1 29 -50 29h-144c-135 0 -200 35 -200 139c0 51 23 92 70 123v4c-45 29 -68 76 -68 143c0 121 78 182 233 182c51 0 93 -7 128 -20h151c2 -11 3 -22 3 -32c0 -11 -1 -21 -3 -31h-71
v-4c16 -28 24 -60 24 -95zM229 358c0 -87 17 -112 64 -112s63 27 63 112s-16 111 -63 111s-64 -26 -64 -111z" />
    <glyph glyph-name="h" unicode="h" horiz-adv-x="705" 
d="M40 42l70 20v617h-70c-3 17 -3 34 0 51l160 25c51 8 79 -7 79 -68v-220h4c47 43 116 73 183 73c115 0 151 -75 151 -215v-263l70 -20c3 -14 3 -28 0 -42h-295c-3 13 -3 27 0 42l55 20v233c0 41 0 54 -5 83c-8 42 -25 56 -70 61c-32 0 -63 -14 -93 -43v-334l56 -20
c3 -13 3 -27 0 -42h-295c-3 13 -3 27 0 42z" />
    <glyph glyph-name="i" unicode="i" horiz-adv-x="381" 
d="M47 42l69 20v397h-69c-3 17 -3 34 0 51l159 25c56 9 80 -8 80 -68v-405l70 -20c3 -13 3 -27 0 -42h-309c-3 15 -3 29 0 42zM118 774c32 3 56 4 73 4s41 -1 73 -4c4 -25 6 -49 6 -73c0 -25 -2 -49 -6 -73c-28 -3 -52 -5 -73 -5c-24 0 -48 2 -73 5c-4 24 -6 48 -6 73
c0 23 2 48 6 73z" />
    <glyph glyph-name="j" unicode="j" horiz-adv-x="372" 
d="M109 24v435h-69c-3 17 -3 34 0 51l160 25c56 8 79 -8 79 -68v-457c0 -124 -90 -201 -237 -213c-11 15 -18 31 -21 48c38 19 62 40 72 65c11 24 16 62 16 114zM112 774c32 3 56 4 73 4s41 -1 73 -4c4 -25 6 -49 6 -73c0 -25 -2 -49 -6 -73c-28 -3 -52 -5 -73 -5
c-24 0 -48 2 -73 5c-4 24 -6 48 -6 73c0 23 2 48 6 73z" />
    <glyph glyph-name="k" unicode="k" horiz-adv-x="700" 
d="M705 0h-228l-194 270v4l195 195l-68 19c-3 15 -3 29 0 42h271c3 -13 3 -27 0 -42l-108 -24l-128 -131l192 -269l68 -22c3 -13 3 -27 0 -42zM35 42l69 20v617h-69c-3 17 -3 34 0 51l159 25c56 9 80 -11 80 -68v-625l55 -20c3 -13 3 -27 0 -42h-294c-3 14 -3 28 0 42z" />
    <glyph glyph-name="l" unicode="l" horiz-adv-x="369" 
d="M34 42l69 20v617h-69c-3 17 -3 34 0 51l159 25c56 9 80 -11 80 -68v-625l70 -20c3 -13 3 -27 0 -42h-309c-3 14 -3 28 0 42z" />
    <glyph glyph-name="m" unicode="m" horiz-adv-x="1045" 
d="M46 42l69 20v397h-69c-3 17 -3 34 0 51l159 25c57 9 80 -11 80 -68h4c58 49 115 73 172 73c64 0 102 -14 133 -73h4c59 49 123 73 192 73c71 0 116 -23 137 -68c21 -44 26 -83 26 -147v-263l70 -20c3 -14 3 -28 0 -42h-295c-3 13 -3 27 0 42l55 20v233c0 32 1 44 -6 75
c-7 40 -29 69 -81 69c-24 0 -52 -9 -83 -28c4 -21 6 -50 6 -86v-263l57 -20c3 -14 3 -28 0 -42h-283c-3 15 -3 29 0 42l56 20v233c0 41 -1 57 -9 92s-30 52 -65 52c-26 0 -56 -14 -90 -43v-334l55 -20c3 -14 3 -28 0 -42h-294c-3 14 -3 28 0 42z" />
    <glyph glyph-name="n" unicode="n" horiz-adv-x="714" 
d="M46 42l69 20v397h-69c-3 17 -3 34 0 51l159 25c59 9 80 -11 80 -68h4c57 49 118 73 184 73c52 0 90 -19 110 -44c11 -12 19 -28 25 -48c13 -40 15 -74 15 -123v-263l69 -20c3 -13 3 -27 0 -42h-294c-3 14 -3 28 0 42l55 20v233c0 14 0 25 -1 32c0 16 -2 48 -9 63
c-9 27 -27 49 -64 49c-33 0 -64 -14 -94 -43v-334l55 -20c3 -14 3 -28 0 -42h-294c-3 14 -3 28 0 42z" />
    <glyph glyph-name="o" unicode="o" horiz-adv-x="621" 
d="M311 63c69 0 103 67 103 202s-34 202 -103 202s-103 -67 -103 -202s34 -202 103 -202zM311 -10c-179 0 -275 99 -275 275c0 175 96 275 275 275c177 0 275 -100 275 -275s-98 -275 -275 -275z" />
    <glyph glyph-name="p" unicode="p" horiz-adv-x="657" 
d="M284 397v-339c8 -1 17 -2 28 -2c55 0 95 30 115 77s28 93 28 144c0 33 -3 64 -14 103c-9 40 -35 66 -70 66c-31 0 -60 -16 -87 -49zM45 -158l69 20v597h-69c-3 17 -3 34 0 51l159 25c60 9 80 -10 80 -67h4c33 45 90 72 146 72c133 -1 196 -121 193 -246
c0 -84 -26 -156 -78 -215c-51 -59 -121 -89 -209 -89c-15 0 -33 1 -56 2v-130l70 -20c3 -13 3 -27 0 -42h-309c-3 15 -3 29 0 42z" />
    <glyph glyph-name="q" unicode="q" horiz-adv-x="646" 
d="M377 134v332c-137 18 -169 -115 -169 -218c0 -110 29 -165 86 -165c31 0 66 20 83 51zM308 -158l69 20v200h-4c-34 -48 -81 -72 -140 -72c-145 0 -197 133 -197 252c0 83 24 153 73 211s115 87 199 87c32 0 67 -6 105 -19c16 17 31 19 83 19h51v-678l70 -20
c3 -13 3 -27 0 -42h-309c-3 13 -3 27 0 42z" />
    <glyph glyph-name="r" unicode="r" horiz-adv-x="507" 
d="M116 62v397h-69c-3 17 -3 34 0 51l159 25c59 9 80 -11 80 -68h4c46 49 107 74 183 74c16 0 28 -1 36 -2v-165c-11 -2 -22 -3 -32 -3c-11 0 -20 1 -29 3l-20 62c-10 3 -21 4 -34 4c-45 0 -91 -22 -108 -43v-335l70 -20c3 -13 3 -27 0 -42h-309c-3 13 -3 27 0 42z" />
    <glyph glyph-name="s" unicode="s" horiz-adv-x="539" 
d="M114 173l32 -100c23 -6 49 -9 79 -9c69 0 123 20 123 68c0 33 -47 52 -104 65c-57 15 -120 30 -161 81c-20 25 -30 58 -30 97s13 72 38 98c52 52 119 67 194 67c67 0 131 -14 190 -43v-124c-10 -2 -20 -3 -31 -3c-10 0 -20 1 -30 3l-29 87c-21 4 -45 6 -71 6
c-73 0 -109 -20 -109 -59c0 -98 297 -39 297 -233c0 -60 -25 -106 -76 -137s-111 -47 -181 -47c-77 0 -141 16 -192 48v135c11 2 21 3 32 3c9 0 19 -1 29 -3z" />
    <glyph glyph-name="t" unicode="t" horiz-adv-x="407" 
d="M98 190v269h-70c-3 13 -3 26 0 39l70 24v142l160 30l10 -9v-163h130c2 -11 3 -22 3 -32c0 -11 -1 -21 -3 -31h-130v-242c0 -45 1 -66 10 -98c13 -43 46 -58 119 -56c2 -10 3 -20 3 -31s-1 -22 -3 -32c-27 -7 -60 -10 -97 -10c-139 0 -202 56 -202 200z" />
    <glyph glyph-name="u" unicode="u" horiz-adv-x="700" 
d="M435 135v324h-70c-3 17 -3 34 0 51l160 25c59 9 79 -11 79 -68v-401h70c3 -17 3 -34 0 -51l-162 -27c-48 -8 -77 18 -77 73v4h-4c-43 -45 -115 -75 -184 -75c-130 0 -150 103 -150 225v244h-70c-3 17 -3 34 0 51l159 25c59 9 81 -12 81 -68v-240c0 -40 2 -59 10 -90
c9 -29 31 -44 64 -44c31 0 74 22 94 42z" />
    <glyph glyph-name="v" unicode="v" horiz-adv-x="648" 
d="M403 0h-154l-181 467l-61 21c-3 15 -3 29 0 42h312c3 -13 3 -27 0 -42l-71 -20l126 -325h4l124 325l-78 20c-3 15 -3 29 0 42h231c3 -13 3 -27 0 -42l-70 -21z" />
    <glyph glyph-name="w" unicode="w" horiz-adv-x="897" 
d="M329 165h4l120 355h96l97 -355h4l103 303l-76 20c-3 15 -3 29 0 42h224c3 -13 3 -27 0 -42l-69 -21l-159 -467h-154l-72 258h-4l-88 -258h-153l-132 467l-61 21c-3 15 -3 29 0 42h306c3 -13 3 -27 0 -42l-70 -20z" />
    <glyph glyph-name="x" unicode="x" horiz-adv-x="618" 
d="M90 62l139 183l-156 227l-48 16c-4 15 -4 29 0 42h306c3 -13 3 -27 0 -42l-53 -16l78 -114l88 115l-54 15c-3 15 -3 29 0 42h212c3 -13 3 -27 0 -42l-65 -17l-137 -178l159 -230l61 -21c3 -13 3 -27 0 -42h-325c-3 13 -3 27 0 42l60 18l-82 120l-90 -117l54 -21
c3 -15 3 -29 0 -42h-230c-3 13 -3 27 0 42z" />
    <glyph glyph-name="y" unicode="y" horiz-adv-x="637" 
d="M56 -190v146c10 2 20 3 31 3c10 0 20 -1 30 -3l20 -63c64 -9 117 22 158 93l-229 482l-58 20c-4 15 -4 29 0 42h303c3 -13 3 -27 0 -42l-59 -20l127 -269h4l110 269l-79 20c-3 15 -3 29 0 42h231c3 -13 3 -27 0 -42l-71 -21l-152 -376c-11 -29 -20 -51 -27 -66l-28 -58
c-12 -25 -23 -43 -33 -56c-19 -27 -52 -65 -84 -81c-32 -17 -76 -31 -127 -31c-23 0 -45 4 -67 11z" />
    <glyph glyph-name="z" unicode="z" horiz-adv-x="564" 
d="M29 60l275 390v4h-165l-22 -74c-11 -2 -22 -3 -31 -3c-10 0 -20 1 -30 3v150h469v-60l-274 -390v-4h201l22 79c19 4 38 4 61 0v-155h-506v60z" />
    <glyph glyph-name="braceleft" unicode="{" horiz-adv-x="380" 
d="M350 -190h-41c-118 0 -177 60 -177 179v79c0 116 -25 177 -105 177c-2 11 -3 22 -3 33s1 22 3 34c80 0 105 61 105 177v82c0 119 59 179 177 179h41c2 -11 3 -22 3 -33s-1 -22 -3 -32h-35c-55 0 -77 -34 -77 -121v-95c0 -101 -23 -161 -115 -188v-4
c95 -35 116 -99 115 -188v-92c0 -87 22 -122 77 -122h35c2 -11 3 -22 3 -33s-1 -22 -3 -32z" />
    <glyph glyph-name="bar" unicode="|" horiz-adv-x="284" 
d="M182 770l5 -5v-990l-5 -5h-80l-5 5v990l5 5h80z" />
    <glyph glyph-name="braceright" unicode="}" horiz-adv-x="380" 
d="M69 -190h-41c-2 10 -3 21 -3 32s1 22 3 33h35c55 0 77 35 77 122v92c-1 89 20 153 115 188v4c-92 27 -115 87 -115 188v95c0 87 -22 121 -77 121h-35c-2 10 -3 21 -3 32s1 22 3 33h41c118 0 177 -60 177 -179v-82c0 -116 25 -177 105 -177c2 -12 3 -23 3 -34
s-1 -22 -3 -33c-80 0 -105 -61 -105 -177v-79c0 -119 -59 -179 -177 -179z" />
    <glyph glyph-name="asciitilde" unicode="~" horiz-adv-x="646" 
d="M119 205c-12 -2 -24 -3 -36 -3c-13 0 -24 1 -35 3c0 116 54 199 149 199c51 0 104 -27 136 -55c33 -28 80 -55 120 -55c49 0 73 48 74 105c23 4 47 4 70 0c0 -124 -50 -199 -145 -199c-52 0 -110 27 -146 55s-81 55 -112 55c-48 0 -72 -45 -75 -105z" />
    <glyph glyph-name="uni00A0" unicode="&#xa0;" horiz-adv-x="262" 
 />
    <glyph glyph-name="exclamdown" unicode="&#xa1;" horiz-adv-x="371" 
d="M255 530c4 -23 6 -47 6 -71c0 -23 -2 -47 -6 -71c-23 -4 -47 -6 -71 -6c-23 0 -47 2 -71 6c-4 24 -6 48 -6 71c0 25 2 48 6 71c24 4 48 6 71 6c25 0 48 -2 71 -6zM88 -170l60 461c13 2 26 3 37 3c12 0 25 -1 38 -3l59 -461c-35 -3 -67 -5 -97 -5c-29 0 -62 2 -97 5z" />
    <glyph glyph-name="cent" unicode="&#xa2;" horiz-adv-x="629" 
d="M547 262v-136c-43 -31 -99 -48 -168 -53v-94c-12 -2 -24 -3 -37 -3s-25 1 -36 3v95c-149 15 -235 111 -235 272c0 157 91 253 235 272v102c12 2 24 3 37 3c12 0 24 -1 36 -3v-99c59 -3 113 -19 163 -46v-130c-21 -4 -41 -4 -60 0l-32 97c-20 3 -37 5 -51 5
c-104 0 -156 -67 -156 -200s52 -200 155 -200c19 0 39 2 58 7l31 108c20 4 40 4 60 0z" />
    <glyph glyph-name="sterling" unicode="&#xa3;" horiz-adv-x="629" 
d="M561 670v-150c-10 -2 -20 -3 -30 -3c-11 0 -21 1 -30 3l-33 107c-18 5 -36 8 -53 8c-64 0 -96 -43 -96 -128c0 -27 4 -67 11 -120h145c2 -11 3 -22 3 -34c0 -11 -1 -22 -3 -34h-138c4 -45 -2 -81 -19 -108c-16 -27 -47 -51 -94 -73l2 -4h261l35 94c10 2 21 3 32 3
s21 -1 32 -3v-228h-532v65c91 30 116 98 114 183c0 15 -1 39 -4 71h-96c-2 12 -3 23 -3 34s1 23 3 34h89c-6 43 -9 79 -9 107c0 137 99 216 255 216c65 0 117 -13 158 -40z" />
    <glyph glyph-name="currency" unicode="&#xa4;" horiz-adv-x="629" 
d="M116 361c0 41 12 78 35 112l-113 104c15 24 35 44 59 60l105 -114c32 24 70 36 113 36c42 0 80 -12 114 -37l100 115c29 -19 49 -40 61 -61l-111 -104c23 -35 34 -72 34 -111c0 -42 -12 -80 -36 -113l113 -104c-15 -25 -35 -45 -60 -60l-102 113c-69 -45 -157 -45 -226 0
l-104 -113c-23 15 -43 36 -60 61l113 103c-23 34 -35 72 -35 113zM235 441c-43 -45 -43 -115 0 -160c22 -23 49 -34 80 -34s58 11 79 33c21 23 32 50 32 81s-11 58 -32 80c-21 23 -48 34 -79 34s-58 -11 -80 -34z" />
    <glyph glyph-name="yen" unicode="&#xa5;" horiz-adv-x="629" 
d="M565 630l-125 -245h133c2 -10 3 -20 3 -29c0 -11 -1 -20 -3 -29h-165v-72h165c2 -10 3 -20 3 -29c0 -10 -1 -20 -3 -29h-165v-128l88 -25c3 -14 3 -29 0 -44h-345c-3 15 -3 29 0 44l87 25v128h-164c-2 9 -3 18 -3 29c0 9 1 19 3 29h164v72h-164c-2 9 -3 18 -3 29
c0 9 1 19 3 29h132l-129 245l-58 26c-3 16 -3 31 0 44h306c3 -15 3 -29 0 -44l-56 -25l107 -201h4l103 201l-58 25c-3 15 -3 29 0 44h199c3 -15 3 -29 0 -44z" />
    <glyph glyph-name="brokenbar" unicode="&#xa6;" horiz-adv-x="284" 
d="M187 330l-5 -5h-80l-5 5v385l5 5h80l5 -5v-385zM97 210l5 5h80l5 -5v-385l-5 -5h-80l-5 5v385z" />
    <glyph glyph-name="section" unicode="&#xa7;" horiz-adv-x="549" 
d="M459 693v-130c-21 -4 -40 -4 -58 0l-26 86c-21 7 -47 10 -77 10c-71 0 -107 -22 -107 -66c0 -100 315 -63 315 -274c0 -56 -25 -109 -70 -138c27 -23 41 -55 41 -96c0 -51 -22 -91 -67 -119c-45 -29 -95 -43 -152 -43c-73 0 -133 16 -182 47v130c21 4 40 4 58 0l26 -89
c23 -9 52 -13 89 -13c79 0 119 23 119 69c0 44 -51 73 -115 93c-90 29 -212 68 -210 186c0 58 27 104 82 139c-26 20 -39 50 -39 90c0 49 21 87 63 114s92 41 149 41c66 0 120 -12 161 -37zM177 444c-24 -14 -36 -36 -36 -65c0 -43 46 -80 91 -97c23 -9 50 -18 80 -29
s51 -19 63 -26c21 13 31 36 31 67c0 47 -42 81 -86 94l-77 26c-29 10 -51 20 -66 30z" />
    <glyph glyph-name="dieresis" unicode="&#xa8;" horiz-adv-x="400" 
d="M142 623c-23 -3 -45 -5 -65 -5c-21 0 -42 2 -64 5c-4 21 -6 42 -6 65c0 21 2 43 6 65c22 3 43 5 64 5c20 0 42 -2 65 -5c3 -25 5 -46 5 -65c0 -20 -2 -42 -5 -65zM384 623c-23 -3 -45 -5 -65 -5c-21 0 -42 2 -64 5c-4 21 -6 42 -6 65c0 21 2 43 6 65c22 3 43 5 64 5
c20 0 42 -2 65 -5c3 -25 5 -46 5 -65c0 -20 -2 -42 -5 -65z" />
    <glyph glyph-name="copyright" unicode="&#xa9;" horiz-adv-x="735" 
d="M39 360c0 101 30 180 89 239s138 89 237 89c101 0 182 -29 241 -88c59 -58 89 -138 89 -240s-30 -182 -89 -241c-59 -58 -140 -87 -241 -87s-180 30 -239 89c-58 60 -87 140 -87 239zM115 360c0 -163 93 -260 250 -260c163 0 255 96 255 260c0 167 -94 260 -255 260
c-157 0 -250 -99 -250 -260zM479 434l-19 57c-16 4 -31 6 -46 6c-69 0 -104 -46 -104 -139c0 -77 32 -135 104 -135c13 0 29 3 47 8l22 63c11 3 23 3 34 0v-97c-45 -20 -91 -30 -138 -30c-116 0 -193 67 -193 188c0 131 85 194 212 194c44 0 83 -7 118 -22v-93
c-12 -3 -24 -3 -37 0z" />
    <glyph glyph-name="ordfeminine" unicode="&#xaa;" horiz-adv-x="438" 
d="M375 547v-192h48v-41l-98 -13c-37 -5 -65 6 -65 39v4h-4c-26 -30 -62 -45 -108 -45c-71 0 -115 35 -115 103c0 41 22 73 49 89c14 9 32 15 53 20c44 11 72 13 117 14v27c0 43 -25 65 -74 65c-13 0 -32 -2 -55 -7l-17 -59h-49v86c57 21 109 31 155 31
c96 0 163 -36 163 -121zM252 400v80h-7c-39 0 -85 -6 -85 -64c0 -37 11 -56 32 -56s41 13 60 40z" />
    <glyph glyph-name="guillemotleft" unicode="&#xab;" horiz-adv-x="606" 
d="M48 268v4l235 228c20 -11 37 -26 50 -44l-148 -186l148 -187c-12 -20 -29 -35 -50 -44zM272 268v4l235 228c18 -10 35 -25 50 -44l-148 -186l148 -187c-13 -20 -30 -35 -50 -44z" />
    <glyph glyph-name="logicalnot" unicode="&#xac;" horiz-adv-x="646" 
d="M517 140v203h-466c-2 13 -3 26 -3 40c0 15 1 28 3 41h541l5 -5v-279c-13 -2 -26 -3 -39 -3s-27 1 -41 3z" />
    <glyph glyph-name="uni00AD" unicode="&#xad;" horiz-adv-x="406" 
d="M348 258h-290c-2 14 -3 27 -3 40c0 15 1 29 3 43h290c2 -14 3 -28 3 -41c0 -14 -1 -28 -3 -42z" />
    <glyph glyph-name="registered" unicode="&#xae;" horiz-adv-x="493" 
d="M87 371c-39 39 -59 92 -59 159s20 120 59 159s92 59 159 59s120 -20 159 -59s59 -92 59 -159s-20 -120 -59 -159s-92 -58 -159 -58s-120 19 -159 58zM127 656c-27 -30 -40 -72 -40 -126s13 -96 40 -126c27 -29 67 -44 119 -44s92 15 119 44c27 30 41 72 41 126
s-14 96 -41 126s-67 45 -119 45s-92 -15 -119 -45zM232 512h-15v-62l17 -5v-16h-85v16l17 5v165l-17 6v19h87c68 0 99 -14 99 -62c0 -28 -16 -52 -47 -60l55 -68l16 -5v-16h-65zM281 578c0 28 -16 35 -51 35h-13v-75h15c36 0 49 9 49 40z" />
    <glyph glyph-name="overscore" unicode="&#xaf;" horiz-adv-x="400" 
d="M353 620h-307c-2 14 -3 28 -3 42c0 13 1 27 3 41h307c2 -14 3 -28 3 -41c0 -14 -1 -28 -3 -42z" />
    <glyph glyph-name="degree" unicode="&#xb0;" horiz-adv-x="425" 
d="M213 730c53 0 97 -17 132 -52s52 -79 52 -132s-17 -97 -52 -132s-79 -52 -132 -52c-54 0 -98 17 -133 52s-52 79 -52 132s17 97 52 132s79 52 133 52zM114 546c0 -67 39 -110 99 -110c59 0 97 43 97 110c0 65 -38 108 -97 108c-60 0 -99 -43 -99 -108z" />
    <glyph glyph-name="plusminus" unicode="&#xb1;" horiz-adv-x="646" 
d="M593 353h-228v-211c-25 -5 -59 -5 -84 0v211h-228c-2 13 -3 26 -3 39s1 27 3 41h228v209c27 5 57 5 84 0v-209h228c2 -14 3 -28 3 -41s-1 -26 -3 -39zM593 0h-540c-2 13 -3 27 -3 40s1 26 3 40h540c2 -14 3 -27 3 -40s-1 -27 -3 -40z" />
    <glyph glyph-name="two.superior" unicode="&#xb2;" 
d="M181 582l2 -3h183v-109h-327v48l118 108c16 15 28 26 36 35c16 17 37 54 37 90c0 43 -27 67 -64 67c-15 0 -30 -3 -45 -10l-25 -81h-42v105c35 27 83 41 146 41c91 0 161 -38 161 -114c0 -59 -42 -93 -119 -140z" />
    <glyph glyph-name="three.superior" unicode="&#xb3;" 
d="M93 734h-42v105c41 23 89 34 145 34c89 0 160 -34 160 -102c0 -53 -43 -88 -100 -92v-4c76 -7 114 -38 114 -93c0 -41 -18 -72 -55 -91s-82 -28 -137 -28c-47 0 -92 11 -134 34v110h45l26 -85c16 -5 32 -8 48 -8c44 0 76 22 76 67c0 43 -25 64 -75 64h-37v50h34
c45 0 64 20 64 65c0 41 -20 61 -59 61c-16 0 -32 -3 -47 -9z" />
    <glyph glyph-name="acute" unicode="&#xb4;" horiz-adv-x="400" 
d="M104 624l114 168c31 -18 56 -39 77 -63l-142 -146c-18 9 -34 22 -49 41z" />
    <glyph glyph-name="mu" unicode="&#xb5;" horiz-adv-x="702" 
d="M95 510l162 30l7 -6v-295c0 -36 0 -48 5 -80c6 -42 25 -62 69 -66c32 0 73 19 94 42v375l163 30l7 -6v-467h72c3 -18 3 -36 0 -53l-162 -24c-49 -7 -80 17 -80 73h-4c-45 -49 -88 -73 -131 -73c-23 0 -44 6 -63 18h-4c0 -62 6 -121 17 -176c-27 -17 -56 -28 -87 -32
c-43 78 -65 193 -65 346v364z" />
    <glyph glyph-name="paragraph" unicode="&#xb6;" horiz-adv-x="601" 
d="M567 676l-93 -25v-766c-13 -2 -26 -3 -40 -3c-15 0 -28 1 -41 3v757h-68v-757c-13 -2 -26 -3 -41 -3c-13 0 -27 1 -40 3v410c-64 0 -115 20 -154 59c-38 39 -57 91 -57 155c0 141 93 211 256 211h278c3 -15 3 -30 0 -44z" />
    <glyph glyph-name="middot" unicode="&#xb7;" horiz-adv-x="262" 
d="M53 377c32 3 57 4 76 4c20 0 45 -1 76 -4c7 -56 7 -96 0 -153c-25 -3 -51 -5 -76 -5c-26 0 -51 2 -76 5c-3 29 -5 55 -5 79c0 21 2 46 5 74z" />
    <glyph glyph-name="cedilla" unicode="&#xb8;" horiz-adv-x="400" 
d="M211 9h69c16 -33 24 -67 24 -100c0 -75 -42 -115 -119 -115c-37 0 -66 9 -89 28c2 17 8 34 19 52c15 -7 29 -11 44 -11c43 0 62 36 62 84c0 23 -3 43 -10 62z" />
    <glyph glyph-name="one.superior" unicode="&#xb9;" 
d="M81 505l73 14v279h-93v39l147 32c52 12 74 -4 74 -67v-283l73 -14v-35h-274v35z" />
    <glyph glyph-name="ordmasculine" unicode="&#xba;" horiz-adv-x="446" 
d="M415 485c0 -123 -64 -184 -192 -184c-129 0 -193 61 -193 184c0 120 69 183 193 183c123 0 192 -63 192 -183zM289 485c0 86 -22 129 -66 129s-66 -43 -66 -129c0 -87 22 -130 66 -130s66 43 66 130z" />
    <glyph glyph-name="guillemotright" unicode="&#xbb;" horiz-adv-x="606" 
d="M323 500l234 -228v-4l-234 -229c-21 9 -38 23 -51 44l149 187l-149 186c15 19 32 33 51 44zM99 500l234 -228v-4l-234 -229c-21 9 -38 23 -51 44l149 187l-149 186c15 19 32 33 51 44z" />
    <glyph glyph-name="onequarter" unicode="&#xbc;" horiz-adv-x="944" 
d="M672 48v56h-179v41l218 258h89v-249h54v-50h-54v-56l54 -12v-36h-237v36zM570 157l1 -3h101v118h-4zM84 342l73 14v279h-93v39l147 32c52 12 74 -4 74 -67v-283l73 -14v-35h-274v35zM221 0l433 730c23 -9 44 -22 63 -37l-433 -729c-22 8 -43 20 -63 36z" />
    <glyph glyph-name="onehalf" unicode="&#xbd;" horiz-adv-x="944" 
d="M703 112l2 -3h183v-109h-327v48l118 108c16 15 28 26 36 35c16 17 37 54 37 90c0 43 -27 67 -64 67c-15 0 -30 -3 -45 -10l-25 -81h-42v105c35 27 83 41 146 41c91 0 161 -38 161 -114c0 -59 -42 -93 -119 -140zM66 342l73 14v279h-93v39l147 32c52 12 74 -4 74 -67v-283
l73 -14v-35h-274v35zM202 0l433 730c23 -9 44 -22 63 -37l-433 -729c-22 8 -43 20 -63 36z" />
    <glyph glyph-name="threequarters" unicode="&#xbe;" horiz-adv-x="944" 
d="M110 571h-42v105c41 23 89 34 145 34c89 0 160 -34 160 -102c0 -53 -43 -88 -100 -92v-4c76 -7 114 -38 114 -93c0 -41 -18 -72 -55 -91s-82 -28 -137 -28c-47 0 -92 11 -134 34v110h45l26 -85c16 -5 32 -8 48 -8c44 0 76 22 76 67c0 43 -25 64 -75 64h-37v50h34
c45 0 64 20 64 65c0 41 -20 61 -59 61c-17 0 -32 -3 -47 -9zM247 0l433 730c23 -9 44 -22 63 -37l-433 -729c-22 8 -43 20 -63 36zM698 48v56h-179v41l218 258h89v-249h54v-50h-54v-56l54 -12v-36h-237v36zM596 157l1 -3h101v118h-4z" />
    <glyph glyph-name="questiondown" unicode="&#xbf;" horiz-adv-x="508" 
d="M477 39v-145c-68 -49 -144 -74 -229 -74c-145 0 -228 67 -228 160c0 72 36 122 84 150c69 40 161 73 180 161c25 4 51 4 75 0c20 -183 -163 -155 -163 -297c0 -68 40 -98 97 -98c29 0 58 6 85 19l39 124c20 4 40 4 60 0zM383 530c4 -23 6 -47 6 -71c0 -23 -2 -47 -6 -71
c-23 -4 -47 -6 -71 -6c-23 0 -47 2 -71 6c-4 24 -6 48 -6 71c0 25 2 48 6 71c24 4 48 6 71 6c24 0 48 -2 71 -6z" />
    <glyph glyph-name="Agrave" unicode="&#xc0;" horiz-adv-x="826" 
d="M468 44l87 25l-57 151h-262l-58 -151l87 -25c3 -15 3 -29 0 -44h-250c-3 15 -3 29 0 44l79 26l249 650h151l246 -650l78 -26c3 -15 3 -29 0 -44h-350c-3 15 -3 29 0 44zM371 556h-5l-99 -256h200zM351 952l189 -124c-5 -21 -15 -41 -30 -58l-209 92c13 33 29 63 50 90z
" />
    <glyph glyph-name="Aacute" unicode="&#xc1;" horiz-adv-x="826" 
d="M468 44l87 25l-57 151h-262l-58 -151l87 -25c3 -15 3 -29 0 -44h-250c-3 15 -3 29 0 44l79 26l249 650h151l246 -650l78 -26c3 -15 3 -29 0 -44h-350c-3 15 -3 29 0 44zM371 556h-5l-99 -256h200zM319 828l190 124c20 -27 36 -58 49 -91l-209 -91c-13 16 -23 35 -30 58z
" />
    <glyph glyph-name="Acircumflex" unicode="&#xc2;" horiz-adv-x="826" 
d="M468 44l87 25l-57 151h-262l-58 -151l87 -25c3 -15 3 -29 0 -44h-250c-3 15 -3 29 0 44l79 26l249 650h151l246 -650l78 -26c3 -15 3 -29 0 -44h-350c-3 15 -3 29 0 44zM371 556h-5l-99 -256h200zM252 818l161 134h10l160 -134c-9 -20 -21 -36 -35 -48l-130 87l-131 -87
c-14 12 -26 28 -35 48z" />
    <glyph glyph-name="Atilde" unicode="&#xc3;" horiz-adv-x="826" 
d="M468 44l87 25l-57 151h-262l-58 -151l87 -25c3 -15 3 -29 0 -44h-250c-3 15 -3 29 0 44l79 26l249 650h151l246 -650l78 -26c3 -15 3 -29 0 -44h-350c-3 15 -3 29 0 44zM371 556h-5l-99 -256h200zM314 775c-10 -2 -20 -3 -29 -3c-10 0 -20 1 -29 3c0 77 36 138 97 138
c19 0 44 -9 73 -28c29 -18 50 -27 61 -27c23 0 35 25 36 56c21 4 40 4 58 0c0 -77 -32 -137 -92 -137c-25 0 -51 9 -79 27c-28 19 -47 28 -57 28c-21 0 -35 -29 -39 -57z" />
    <glyph glyph-name="Adieresis" unicode="&#xc4;" horiz-adv-x="826" 
d="M468 44l87 25l-57 151h-262l-58 -151l87 -25c3 -15 3 -29 0 -44h-250c-3 15 -3 29 0 44l79 26l249 650h151l246 -650l78 -26c3 -15 3 -29 0 -44h-350c-3 15 -3 29 0 44zM371 556h-5l-99 -256h200zM357 787c-23 -3 -45 -5 -65 -5c-21 0 -42 2 -64 5c-4 21 -6 43 -6 65
c0 21 2 43 6 65c22 3 43 5 64 5c20 0 42 -2 65 -5c3 -25 5 -46 5 -65c0 -20 -2 -42 -5 -65zM606 787c-23 -3 -45 -5 -65 -5c-21 0 -42 2 -64 5c-4 21 -6 43 -6 65c0 21 2 43 6 65c22 3 43 5 64 5c20 0 42 -2 65 -5c3 -25 5 -46 5 -65c0 -20 -2 -42 -5 -65z" />
    <glyph glyph-name="Aring" unicode="&#xc5;" horiz-adv-x="826" 
d="M468 44l87 25l-57 151h-262l-58 -151l87 -25c3 -15 3 -29 0 -44h-250c-3 15 -3 29 0 44l79 26l249 650h151l246 -650l78 -26c3 -15 3 -29 0 -44h-350c-3 15 -3 29 0 44zM371 556h-5l-99 -256h200zM335 779c-21 19 -31 45 -31 77s10 58 31 77s47 29 80 29s59 -10 80 -29
s32 -45 32 -77s-11 -58 -32 -77s-47 -28 -80 -28s-59 9 -80 28zM381 896c-17 -21 -17 -59 0 -80c17 -20 51 -20 68 0c19 21 19 59 0 80c-17 21 -51 21 -68 0z" />
    <glyph glyph-name="AE" unicode="&#xc6;" horiz-adv-x="1103" 
d="M235 720h806v-170c-11 -2 -21 -3 -32 -3c-10 0 -21 1 -32 3l-35 90h-246v-238h178l25 62c17 5 35 5 52 0v-221c-19 -4 -36 -4 -52 0l-25 79h-178v-242h265l35 95c10 2 21 3 32 3s21 -1 32 -3v-175h-625c-3 15 -3 29 0 44l87 25v253h-228l-120 -253l86 -25
c3 -15 3 -29 0 -44h-255c-3 15 -3 29 0 44l79 26l276 573l-125 33c-3 15 -3 29 0 44zM333 402h189v238h-75z" />
    <glyph glyph-name="Ccedilla" unicode="&#xc7;" horiz-adv-x="715" 
d="M554 88l49 137c23 4 41 4 64 0v-167c-57 -35 -122 -56 -197 -64c11 -31 17 -59 17 -85c0 -75 -42 -115 -119 -115c-37 0 -66 9 -89 28c2 17 8 34 19 52c15 -7 29 -11 44 -11c43 0 62 36 62 84c0 14 -2 28 -5 43c-106 2 -192 34 -257 97s-97 154 -97 272
c0 79 18 148 54 205c73 115 193 166 340 166c85 0 159 -19 223 -58v-159c-21 -4 -43 -4 -64 0l-46 119c-29 13 -59 20 -90 20c-83 0 -144 -27 -182 -80s-57 -123 -57 -212c0 -181 78 -288 229 -288c32 0 66 5 102 16z" />
    <glyph glyph-name="Egrave" unicode="&#xc8;" horiz-adv-x="711" 
d="M44 44l87 25v582l-87 25c-3 15 -3 29 0 44h606v-170c-11 -2 -22 -3 -33 -3c-10 0 -21 1 -32 3l-35 90h-245v-229h177l25 62c18 4 36 4 53 0v-221c-19 -4 -37 -4 -53 0l-25 79h-177v-251h264l35 95c21 4 43 4 64 0v-175h-624c-3 15 -3 29 0 44zM268 952l189 -124
c-5 -21 -15 -41 -30 -58l-209 92c13 33 29 63 50 90z" />
    <glyph glyph-name="Eacute" unicode="&#xc9;" horiz-adv-x="711" 
d="M44 44l87 25v582l-87 25c-3 15 -3 29 0 44h606v-170c-11 -2 -22 -3 -33 -3c-10 0 -21 1 -32 3l-35 90h-245v-229h177l25 62c18 4 36 4 53 0v-221c-19 -4 -37 -4 -53 0l-25 79h-177v-251h264l35 95c21 4 43 4 64 0v-175h-624c-3 15 -3 29 0 44zM297 828l190 124
c20 -27 36 -58 49 -91l-209 -91c-13 16 -23 35 -30 58z" />
    <glyph glyph-name="Ecircumflex" unicode="&#xca;" horiz-adv-x="711" 
d="M44 44l87 25v582l-87 25c-3 15 -3 29 0 44h606v-170c-11 -2 -22 -3 -33 -3c-10 0 -21 1 -32 3l-35 90h-245v-229h177l25 62c18 4 36 4 53 0v-221c-19 -4 -37 -4 -53 0l-25 79h-177v-251h264l35 95c21 4 43 4 64 0v-175h-624c-3 15 -3 29 0 44zM211 818l161 134h10
l160 -134c-9 -20 -21 -36 -35 -48l-130 87l-131 -87c-14 12 -26 28 -35 48z" />
    <glyph glyph-name="Edieresis" unicode="&#xcb;" horiz-adv-x="711" 
d="M44 44l87 25v582l-87 25c-3 15 -3 29 0 44h606v-170c-11 -2 -22 -3 -33 -3c-10 0 -21 1 -32 3l-35 90h-245v-229h177l25 62c18 4 36 4 53 0v-221c-19 -4 -37 -4 -53 0l-25 79h-177v-251h264l35 95c21 4 43 4 64 0v-175h-624c-3 15 -3 29 0 44zM316 787
c-23 -3 -45 -5 -65 -5c-21 0 -42 2 -64 5c-4 21 -6 43 -6 65c0 21 2 43 6 65c22 3 43 5 64 5c20 0 42 -2 65 -5c3 -25 5 -46 5 -65c0 -20 -2 -42 -5 -65zM565 787c-23 -3 -45 -5 -65 -5c-21 0 -42 2 -64 5c-4 21 -6 43 -6 65c0 21 2 43 6 65c22 3 43 5 64 5
c20 0 42 -2 65 -5c3 -25 5 -46 5 -65c0 -20 -2 -42 -5 -65z" />
    <glyph glyph-name="Igrave" unicode="&#xcc;" horiz-adv-x="429" 
d="M131 69v582l-87 25c-3 15 -3 29 0 44h349c3 -15 3 -29 0 -44l-88 -25v-582l88 -25c3 -15 3 -29 0 -44h-349c-3 15 -3 29 0 44zM106 952l189 -124c-5 -21 -15 -41 -30 -58l-209 92c13 33 29 63 50 90z" />
    <glyph glyph-name="Iacute" unicode="&#xcd;" horiz-adv-x="429" 
d="M131 69v582l-87 25c-3 15 -3 29 0 44h349c3 -15 3 -29 0 -44l-88 -25v-582l88 -25c3 -15 3 -29 0 -44h-349c-3 15 -3 29 0 44zM144 828l190 124c20 -27 36 -58 49 -91l-209 -91c-13 16 -23 35 -30 58z" />
    <glyph glyph-name="Icircumflex" unicode="&#xce;" horiz-adv-x="429" 
d="M131 69v582l-87 25c-3 15 -3 29 0 44h349c3 -15 3 -29 0 -44l-88 -25v-582l88 -25c3 -15 3 -29 0 -44h-349c-3 15 -3 29 0 44zM54 818l161 134h10l160 -134c-9 -20 -21 -36 -35 -48l-130 87l-131 -87c-14 12 -26 28 -35 48z" />
    <glyph glyph-name="Idieresis" unicode="&#xcf;" horiz-adv-x="429" 
d="M127 69v582l-87 25c-3 15 -3 29 0 44h349c3 -15 3 -29 0 -44l-88 -25v-582l88 -25c3 -15 3 -29 0 -44h-349c-3 15 -3 29 0 44zM154 787c-23 -3 -45 -5 -65 -5c-21 0 -42 2 -64 5c-4 21 -6 42 -6 65c0 21 2 43 6 65c22 3 43 5 64 5c20 0 42 -2 65 -5c3 -25 5 -46 5 -65
c0 -20 -2 -42 -5 -65zM403 787c-23 -3 -45 -5 -65 -5c-21 0 -42 2 -64 5c-4 21 -6 43 -6 65c0 21 2 43 6 65c22 3 43 5 64 5c20 0 42 -2 65 -5c3 -25 5 -46 5 -65c0 -20 -2 -42 -5 -65z" />
    <glyph glyph-name="Eth" unicode="&#xd0;" horiz-adv-x="797" 
d="M438 344h-134v-264h66c148 0 205 97 205 280s-56 280 -205 280h-66v-227h134c2 -12 3 -24 3 -35s-1 -22 -3 -34zM42 413h88v238l-88 25c-3 15 -3 29 0 44h326c267 0 384 -115 384 -360c0 -243 -119 -360 -384 -360h-326c-3 15 -3 29 0 44l88 25v275h-88
c-2 12 -3 23 -3 34s1 23 3 35z" />
    <glyph glyph-name="Ntilde" unicode="&#xd1;" horiz-adv-x="774" 
d="M523 0l-320 540h-4v-471l88 -25c3 -14 3 -29 0 -44h-245c-3 15 -3 29 0 44l78 26v580l-78 26c-3 15 -3 29 0 44h256l280 -476h4v407l-87 25c-3 15 -3 29 0 44h244c3 -15 3 -29 0 -44l-78 -26v-650h-138zM298 784c-10 -2 -20 -3 -29 -3c-10 0 -20 1 -29 3
c0 77 36 138 97 138c19 0 44 -9 73 -28c29 -18 50 -27 61 -27c23 0 35 25 36 56c21 4 40 4 58 0c0 -77 -32 -137 -92 -137c-25 0 -51 9 -79 27c-28 19 -47 28 -57 28c-21 0 -35 -29 -39 -57z" />
    <glyph glyph-name="Ograve" unicode="&#xd2;" horiz-adv-x="794" 
d="M45 360c0 243 121 370 352 370c228 0 351 -127 351 -370c0 -239 -123 -370 -351 -370c-231 0 -352 130 -352 370zM397 650c-116 0 -174 -97 -174 -290s58 -290 174 -290c119 0 173 110 173 290s-54 290 -173 290zM310 952l189 -124c-5 -21 -15 -41 -30 -58l-209 92
c13 33 29 63 50 90z" />
    <glyph glyph-name="Oacute" unicode="&#xd3;" horiz-adv-x="794" 
d="M45 360c0 243 121 370 352 370c228 0 351 -127 351 -370c0 -239 -123 -370 -351 -370c-231 0 -352 130 -352 370zM397 650c-116 0 -174 -97 -174 -290s58 -290 174 -290c119 0 173 110 173 290s-54 290 -173 290zM316 828l190 124c20 -27 36 -58 49 -91l-209 -91
c-13 16 -23 35 -30 58z" />
    <glyph glyph-name="Ocircumflex" unicode="&#xd4;" horiz-adv-x="794" 
d="M45 360c0 243 121 370 352 370c228 0 351 -127 351 -370c0 -239 -123 -370 -351 -370c-231 0 -352 130 -352 370zM397 650c-116 0 -174 -97 -174 -290s58 -290 174 -290c119 0 173 110 173 290s-54 290 -173 290zM232 818l161 134h10l160 -134c-9 -20 -21 -36 -35 -48
l-130 87l-131 -87c-14 12 -26 28 -35 48z" />
    <glyph glyph-name="Otilde" unicode="&#xd5;" horiz-adv-x="794" 
d="M293 784c-10 -2 -20 -3 -29 -3c-11 0 -20 1 -29 3c0 77 36 138 97 138c19 0 44 -9 73 -28c29 -18 50 -27 61 -27c23 0 35 25 36 56c21 4 40 4 58 0c0 -77 -32 -137 -92 -137c-25 0 -51 9 -79 27c-28 19 -47 28 -57 28c-21 0 -35 -29 -39 -57zM45 360
c0 243 121 370 352 370c228 0 351 -127 351 -370c0 -239 -123 -370 -351 -370c-231 0 -352 130 -352 370zM397 650c-116 0 -174 -97 -174 -290s58 -290 174 -290c119 0 173 110 173 290s-54 290 -173 290z" />
    <glyph glyph-name="Odieresis" unicode="&#xd6;" horiz-adv-x="794" 
d="M45 360c0 243 121 370 352 370c228 0 351 -127 351 -370c0 -239 -123 -370 -351 -370c-231 0 -352 130 -352 370zM397 650c-116 0 -174 -97 -174 -290s58 -290 174 -290c119 0 173 110 173 290s-54 290 -173 290zM338 787c-23 -3 -45 -5 -65 -5c-21 0 -42 2 -64 5
c-4 21 -6 43 -6 65c0 21 2 43 6 65c22 3 43 5 64 5c20 0 42 -2 65 -5c3 -25 5 -46 5 -65c0 -20 -2 -42 -5 -65zM587 787c-23 -3 -45 -5 -65 -5c-21 0 -42 2 -64 5c-4 21 -6 43 -6 65c0 21 2 43 6 65c22 3 43 5 64 5c20 0 42 -2 65 -5c3 -25 5 -46 5 -65c0 -20 -2 -42 -5 -65
z" />
    <glyph glyph-name="multiply" unicode="&#xd7;" horiz-adv-x="646" 
d="M600 484l-219 -219l219 -218c-12 -19 -39 -46 -58 -58l-219 219l-218 -219c-21 13 -41 32 -59 58l220 218l-220 219c17 25 36 44 59 58l218 -219l219 219c19 -12 46 -39 58 -58z" />
    <glyph glyph-name="Oslash" unicode="&#xd8;" horiz-adv-x="794" 
d="M570 360c0 60 -6 113 -18 160h-4l-263 -403c27 -31 65 -47 112 -47c119 0 173 110 173 290zM397 650c-138 0 -174 -145 -174 -288c0 -67 7 -125 21 -175h4l266 409c-29 36 -68 54 -117 54zM45 360c0 243 121 370 352 370c70 0 130 -12 179 -36l53 80
c24 -11 44 -24 59 -39l-52 -79c75 -63 112 -161 112 -296c0 -239 -123 -370 -351 -370c-67 0 -125 11 -173 33l-58 -91c-23 9 -42 22 -59 39l56 86c-79 63 -118 164 -118 303z" />
    <glyph glyph-name="Ugrave" unicode="&#xd9;" horiz-adv-x="794" 
d="M120 298v353l-78 25c-3 15 -3 29 0 44h336c3 -15 3 -29 0 -44l-84 -25v-364c0 -144 41 -210 156 -210c103 0 156 79 156 211v363l-88 25c-3 15 -3 29 0 44h244c3 -15 3 -29 0 -44l-78 -26v-352c0 -192 -87 -308 -282 -308c-103 0 -175 26 -218 77c-43 52 -64 129 -64 231
zM322 952l189 -124c-5 -21 -15 -41 -30 -58l-209 92c13 33 29 63 50 90z" />
    <glyph glyph-name="Uacute" unicode="&#xda;" horiz-adv-x="794" 
d="M120 298v353l-78 25c-3 15 -3 29 0 44h336c3 -15 3 -29 0 -44l-84 -25v-364c0 -144 41 -210 156 -210c103 0 156 79 156 211v363l-88 25c-3 15 -3 29 0 44h244c3 -15 3 -29 0 -44l-78 -26v-352c0 -192 -87 -308 -282 -308c-103 0 -175 26 -218 77c-43 52 -64 129 -64 231
zM360 828l190 124c20 -27 36 -58 49 -91l-209 -91c-13 16 -23 35 -30 58z" />
    <glyph glyph-name="Ucircumflex" unicode="&#xdb;" horiz-adv-x="794" 
d="M120 298v353l-78 25c-3 15 -3 29 0 44h336c3 -15 3 -29 0 -44l-84 -25v-364c0 -144 41 -210 156 -210c103 0 156 79 156 211v363l-88 25c-3 15 -3 29 0 44h244c3 -15 3 -29 0 -44l-78 -26v-352c0 -192 -87 -308 -282 -308c-103 0 -175 26 -218 77c-43 52 -64 129 -64 231
zM261 818l161 134h10l160 -134c-9 -20 -21 -36 -35 -48l-130 87l-131 -87c-14 12 -26 28 -35 48z" />
    <glyph glyph-name="Udieresis" unicode="&#xdc;" horiz-adv-x="794" 
d="M120 298v353l-78 25c-3 15 -3 29 0 44h336c3 -15 3 -29 0 -44l-84 -25v-364c0 -144 41 -210 156 -210c103 0 156 79 156 211v363l-88 25c-3 15 -3 29 0 44h244c3 -15 3 -29 0 -44l-78 -26v-352c0 -192 -87 -308 -282 -308c-103 0 -175 26 -218 77c-43 52 -64 129 -64 231
zM366 787c-23 -3 -45 -5 -65 -5c-21 0 -42 2 -64 5c-4 21 -6 43 -6 65c0 21 2 43 6 65c22 3 43 5 64 5c20 0 42 -2 65 -5c3 -25 5 -46 5 -65c0 -20 -2 -42 -5 -65zM615 787c-23 -3 -45 -5 -65 -5c-21 0 -42 2 -64 5c-4 21 -6 43 -6 65c0 21 2 43 6 65c22 3 43 5 64 5
c20 0 42 -2 65 -5c3 -25 5 -46 5 -65c0 -20 -2 -42 -5 -65z" />
    <glyph glyph-name="Yacute" unicode="&#xdd;" horiz-adv-x="756" 
d="M673 650l-201 -371v-210l87 -25c3 -15 3 -29 0 -44h-349c-3 15 -3 29 0 44l88 25v208l-207 373l-80 26c-3 16 -3 31 0 44h360c3 -15 3 -29 0 -44l-80 -25l146 -264h4l143 264l-81 25c-3 15 -3 29 0 44h252c3 -15 3 -29 0 -44zM355 828l190 124c20 -27 36 -58 49 -91
l-209 -91c-13 16 -23 35 -30 58z" />
    <glyph glyph-name="Thorn" unicode="&#xde;" horiz-adv-x="681" 
d="M132 69v582l-87 25c-3 15 -3 29 0 44h349c3 -15 3 -29 0 -44l-88 -25v-76h12c34 0 62 -1 85 -2s48 -4 76 -8s51 -11 68 -20c56 -25 103 -78 99 -173c0 -76 -26 -132 -65 -164c-19 -16 -43 -29 -72 -38c-57 -19 -109 -23 -184 -23h-19v-78l88 -25c3 -14 3 -29 0 -44h-349
c-3 15 -3 30 0 44zM465 361c0 100 -46 134 -151 134h-8v-267h9c104 0 150 34 150 133z" />
    <glyph glyph-name="germandbls" unicode="&#xdf;" horiz-adv-x="714" 
d="M339 71c24 -4 45 -6 62 -6c71 0 106 25 106 74c0 29 -24 56 -53 79c-42 34 -97 78 -97 159c0 65 37 125 101 144v58c0 72 -30 108 -89 108c-57 0 -82 -31 -82 -102v-580l-5 -5h-235c-3 13 -3 27 0 42l70 20v399h-70c-3 13 -3 25 0 37l70 24v50c0 67 27 117 59 142
c17 13 37 23 62 30c51 15 81 16 129 16c49 0 84 -2 133 -18c70 -21 119 -74 122 -182v-55c-63 0 -109 -26 -109 -81c0 -113 163 -127 163 -256c0 -131 -140 -178 -248 -178c-35 0 -71 4 -107 13c2 23 8 46 18 68z" />
    <glyph glyph-name="agrave" unicode="&#xe0;" horiz-adv-x="634" 
d="M541 359v-293h70c3 -17 3 -34 0 -51l-163 -25c-48 -7 -76 20 -76 73h-4c-39 -49 -92 -73 -159 -73c-97 0 -164 53 -164 156c-3 80 50 127 107 149c19 9 43 15 70 19c56 8 90 11 149 12v45c0 62 -38 93 -115 93c-24 0 -52 -3 -85 -9l-31 -94c-11 -2 -22 -3 -31 -3
c-10 0 -20 1 -30 3v134c85 30 162 45 231 45s125 -14 167 -43c43 -28 64 -74 64 -138zM371 133v130h-18c-76 0 -137 -33 -137 -109c0 -49 24 -71 56 -71c33 0 78 22 99 50zM263 792l114 -168c-14 -17 -30 -31 -49 -41l-142 146c21 24 46 45 77 63z" />
    <glyph glyph-name="aacute" unicode="&#xe1;" horiz-adv-x="634" 
d="M541 359v-293h70c3 -17 3 -34 0 -51l-163 -25c-48 -7 -76 20 -76 73h-4c-39 -49 -92 -73 -159 -73c-97 0 -164 53 -164 156c-3 80 50 127 107 149c19 9 43 15 70 19c56 8 90 11 149 12v45c0 62 -38 93 -115 93c-24 0 -52 -3 -85 -9l-31 -94c-11 -2 -22 -3 -31 -3
c-10 0 -20 1 -30 3v134c85 30 162 45 231 45s125 -14 167 -43c43 -28 64 -74 64 -138zM371 133v130h-18c-76 0 -137 -33 -137 -109c0 -49 24 -71 56 -71c33 0 78 22 99 50zM265 624l114 168c31 -18 56 -39 77 -63l-142 -146c-18 9 -34 22 -49 41z" />
    <glyph glyph-name="acircumflex" unicode="&#xe2;" horiz-adv-x="634" 
d="M541 359v-293h70c3 -17 3 -34 0 -51l-163 -25c-48 -7 -76 20 -76 73h-4c-39 -49 -92 -73 -159 -73c-97 0 -164 53 -164 156c-3 80 50 127 107 149c19 9 43 15 70 19c56 8 90 11 149 12v45c0 62 -38 93 -115 93c-24 0 -52 -3 -85 -9l-31 -94c-11 -2 -22 -3 -31 -3
c-10 0 -20 1 -30 3v134c85 30 162 45 231 45s125 -14 167 -43c43 -28 64 -74 64 -138zM371 133v130h-18c-76 0 -137 -33 -137 -109c0 -49 24 -71 56 -71c33 0 78 22 99 50zM168 624l145 170h10l143 -170c-13 -17 -28 -31 -47 -41l-101 101l-102 -101c-19 9 -35 23 -48 41z
" />
    <glyph glyph-name="atilde" unicode="&#xe3;" horiz-adv-x="634" 
d="M541 359v-293h70c3 -17 3 -34 0 -51l-163 -25c-48 -7 -76 20 -76 73h-4c-39 -49 -92 -73 -159 -73c-97 0 -164 53 -164 156c-3 80 50 127 107 149c19 9 43 15 70 19c56 8 90 11 149 12v45c0 62 -38 93 -115 93c-24 0 -52 -3 -85 -9l-31 -94c-11 -2 -22 -3 -31 -3
c-10 0 -20 1 -30 3v134c85 30 162 45 231 45s125 -14 167 -43c43 -28 64 -74 64 -138zM371 133v130h-18c-76 0 -137 -33 -137 -109c0 -49 24 -71 56 -71c33 0 78 22 99 50zM214 597c-10 -2 -20 -3 -29 -3c-10 0 -20 1 -29 3c0 77 36 138 97 138c19 0 44 -9 73 -28
c29 -18 50 -27 61 -27c23 0 35 25 36 56c21 4 40 4 58 0c0 -77 -32 -137 -92 -137c-25 0 -51 9 -79 27c-28 19 -47 28 -57 28c-21 0 -35 -29 -39 -57z" />
    <glyph glyph-name="adieresis" unicode="&#xe4;" horiz-adv-x="634" 
d="M541 359v-293h70c3 -17 3 -34 0 -51l-163 -25c-48 -7 -76 20 -76 73h-4c-39 -49 -92 -73 -159 -73c-97 0 -164 53 -164 156c-3 80 50 127 107 149c19 9 43 15 70 19c56 8 90 11 149 12v45c0 62 -38 93 -115 93c-24 0 -52 -3 -85 -9l-31 -94c-11 -2 -22 -3 -31 -3
c-10 0 -20 1 -30 3v134c85 30 162 45 231 45s125 -14 167 -43c43 -28 64 -74 64 -138zM371 133v130h-18c-76 0 -137 -33 -137 -109c0 -49 24 -71 56 -71c33 0 78 22 99 50zM249 623c-23 -3 -45 -5 -65 -5c-21 0 -42 2 -64 5c-4 21 -6 42 -6 65c0 21 2 43 6 65
c22 3 43 5 64 5c20 0 42 -2 65 -5c3 -25 5 -46 5 -65c0 -20 -2 -42 -5 -65zM491 623c-23 -3 -45 -5 -65 -5c-21 0 -42 2 -64 5c-4 21 -6 42 -6 65c0 21 2 43 6 65c22 3 43 5 64 5c20 0 42 -2 65 -5c3 -25 5 -46 5 -65c0 -20 -2 -42 -5 -65z" />
    <glyph glyph-name="aring" unicode="&#xe5;" horiz-adv-x="634" 
d="M541 359v-293h70c3 -17 3 -34 0 -51l-163 -25c-48 -7 -76 20 -76 73h-4c-39 -49 -92 -73 -159 -73c-97 0 -164 53 -164 156c-3 80 50 127 107 149c19 9 43 15 70 19c56 8 90 11 149 12v45c0 62 -38 93 -115 93c-24 0 -52 -3 -85 -9l-31 -94c-11 -2 -22 -3 -31 -3
c-10 0 -20 1 -30 3v134c85 30 162 45 231 45s125 -14 167 -43c43 -28 64 -74 64 -138zM371 133v130h-18c-76 0 -137 -33 -137 -109c0 -49 24 -71 56 -71c33 0 78 22 99 50zM226 611c-21 19 -31 45 -31 77s10 58 31 77s47 29 80 29s59 -10 80 -29s32 -45 32 -77
s-11 -58 -32 -77s-47 -28 -80 -28s-59 9 -80 28zM272 728c-17 -21 -17 -59 0 -80c17 -20 51 -20 68 0c19 21 19 59 0 80c-17 21 -51 21 -68 0z" />
    <glyph glyph-name="ae" unicode="&#xe6;" horiz-adv-x="927" 
d="M79 361v134c90 30 166 45 227 45c80 0 137 -17 171 -52h4c39 35 94 52 166 52c68 0 124 -21 168 -63c44 -41 66 -96 66 -163c0 -15 -1 -33 -4 -52h-341c0 -133 48 -197 160 -197c23 0 51 3 82 9l31 100c9 2 18 3 29 3c9 0 20 -1 31 -3v-129c-65 -37 -136 -55 -213 -55
c-103 0 -180 31 -231 92c-59 -61 -131 -92 -216 -92c-97 0 -164 57 -164 154c-4 82 49 128 107 151c19 9 42 15 69 19c56 8 90 11 149 12v45c0 62 -38 93 -113 93c-25 0 -53 -3 -86 -9l-31 -94c-11 -2 -22 -3 -31 -3c-10 0 -20 1 -30 3zM216 153c0 -47 21 -68 50 -68
c39 0 80 19 125 58c-13 38 -20 78 -20 120c-40 -1 -67 -6 -102 -19c-33 -13 -53 -46 -53 -91zM540 326l172 11c0 84 -29 131 -74 131c-55 0 -87 -47 -98 -142z" />
    <glyph glyph-name="ccedilla" unicode="&#xe7;" horiz-adv-x="551" 
d="M512 180v-135c-39 -27 -88 -45 -147 -52c11 -29 17 -57 17 -84c0 -75 -42 -115 -119 -115c-37 0 -66 9 -89 28c2 17 8 34 19 52c15 -7 29 -11 44 -11c43 0 62 36 62 84c0 14 -2 29 -5 44c-164 7 -258 102 -258 273c0 88 26 156 78 204s121 72 206 72
c69 0 132 -16 187 -47v-130c-10 -2 -20 -3 -31 -3c-10 0 -20 1 -30 3l-32 98c-18 3 -35 5 -50 5c-104 0 -156 -66 -156 -198c0 -135 52 -202 156 -202c19 0 37 2 56 6l31 108c17 4 40 4 61 0z" />
    <glyph glyph-name="egrave" unicode="&#xe8;" horiz-adv-x="598" 
d="M548 262h-340c0 -132 50 -198 159 -198c28 0 55 3 82 10l31 101c19 4 39 4 60 0v-130c-63 -37 -137 -55 -220 -55c-172 0 -284 92 -284 275c0 172 103 275 276 275c77 0 137 -21 178 -63s62 -96 62 -162c0 -15 -1 -32 -4 -53zM309 468c-57 0 -89 -57 -97 -142l170 10
c0 85 -28 132 -73 132zM264 792l114 -168c-14 -17 -30 -31 -49 -41l-142 146c21 24 46 45 77 63z" />
    <glyph glyph-name="eacute" unicode="&#xe9;" horiz-adv-x="598" 
d="M548 262h-340c0 -132 50 -198 159 -198c28 0 55 3 82 10l31 101c19 4 39 4 60 0v-130c-63 -37 -137 -55 -220 -55c-172 0 -284 92 -284 275c0 172 103 275 276 275c77 0 137 -21 178 -63s62 -96 62 -162c0 -15 -1 -32 -4 -53zM309 468c-57 0 -89 -57 -97 -142l170 10
c0 85 -28 132 -73 132zM261 624l114 168c31 -18 56 -39 77 -63l-142 -146c-18 9 -34 22 -49 41z" />
    <glyph glyph-name="ecircumflex" unicode="&#xea;" horiz-adv-x="598" 
d="M548 262h-340c0 -132 50 -198 159 -198c28 0 55 3 82 10l31 101c19 4 39 4 60 0v-130c-63 -37 -137 -55 -220 -55c-172 0 -284 92 -284 275c0 172 103 275 276 275c77 0 137 -21 178 -63s62 -96 62 -162c0 -15 -1 -32 -4 -53zM309 468c-57 0 -89 -57 -97 -142l170 10
c0 85 -28 132 -73 132zM152 624l145 170h10l143 -170c-13 -17 -28 -31 -47 -41l-101 101l-102 -101c-19 9 -35 23 -48 41z" />
    <glyph glyph-name="edieresis" unicode="&#xeb;" horiz-adv-x="598" 
d="M548 262h-340c0 -132 50 -198 159 -198c28 0 55 3 82 10l31 101c19 4 39 4 60 0v-130c-63 -37 -137 -55 -220 -55c-172 0 -284 92 -284 275c0 172 103 275 276 275c77 0 137 -21 178 -63s62 -96 62 -162c0 -15 -1 -32 -4 -53zM309 468c-57 0 -89 -57 -97 -142l170 10
c0 85 -28 132 -73 132zM241 623c-23 -3 -45 -5 -65 -5c-21 0 -42 2 -64 5c-4 21 -6 42 -6 65c0 21 2 43 6 65c22 3 43 5 64 5c20 0 42 -2 65 -5c3 -25 5 -46 5 -65c0 -20 -2 -42 -5 -65zM483 623c-23 -3 -45 -5 -65 -5c-21 0 -42 2 -64 5c-4 21 -6 42 -6 65c0 21 2 43 6 65
c22 3 43 5 64 5c20 0 42 -2 65 -5c3 -25 5 -46 5 -65c0 -20 -2 -42 -5 -65z" />
    <glyph glyph-name="igrave" unicode="&#xec;" horiz-adv-x="381" 
d="M47 42l69 20v397h-69c-3 17 -3 34 0 51l159 25c56 9 80 -8 80 -68v-405l70 -20c3 -13 3 -27 0 -42h-309c-3 15 -3 29 0 42zM144 792l114 -168c-14 -17 -30 -31 -49 -41l-142 146c21 24 46 45 77 63z" />
    <glyph glyph-name="iacute" unicode="&#xed;" horiz-adv-x="381" 
d="M47 42l69 20v397h-69c-3 17 -3 34 0 51l159 25c56 9 80 -8 80 -68v-405l70 -20c3 -13 3 -27 0 -42h-309c-3 15 -3 29 0 42zM108 624l114 168c31 -18 56 -39 77 -63l-142 -146c-18 9 -34 22 -49 41z" />
    <glyph glyph-name="icircumflex" unicode="&#xee;" horiz-adv-x="381" 
d="M42 42l69 20v397h-69c-3 17 -3 34 0 51l159 25c56 9 80 -8 80 -68v-405l70 -20c3 -13 3 -27 0 -42h-309c-3 15 -3 29 0 42zM34 624l145 170h10l143 -170c-13 -17 -28 -31 -47 -41l-101 101l-102 -101c-19 9 -35 23 -48 41z" />
    <glyph glyph-name="idieresis" unicode="&#xef;" horiz-adv-x="381" 
d="M42 42l69 20v397h-69c-3 17 -3 34 0 51l159 25c56 9 80 -8 80 -68v-405l70 -20c3 -13 3 -27 0 -42h-309c-3 15 -3 29 0 42zM123 623c-23 -3 -45 -5 -65 -5c-21 0 -42 2 -64 5c-4 21 -6 42 -6 65c0 21 2 43 6 65c22 3 43 5 64 5c20 0 42 -2 65 -5c3 -25 5 -46 5 -65
c0 -20 -2 -42 -5 -65zM365 623c-23 -3 -45 -5 -65 -5c-21 0 -42 2 -64 5c-4 21 -6 42 -6 65c0 21 2 43 6 65c22 3 43 5 64 5c20 0 42 -2 65 -5c3 -25 5 -46 5 -65c0 -20 -2 -42 -5 -65z" />
    <glyph glyph-name="eth" unicode="&#xf0;" horiz-adv-x="631" 
d="M416 249c0 116 -28 178 -103 178c-70 0 -105 -59 -105 -178c0 -123 39 -186 104 -186c69 0 104 62 104 186zM196 597l89 45v4c-49 31 -107 45 -174 40c-5 25 -7 49 -4 73c9 1 22 1 39 1c103 0 187 -21 250 -63l115 60c11 -13 19 -30 26 -51l-89 -46
c96 -95 148 -225 148 -365c0 -191 -104 -305 -293 -305c-168 0 -267 90 -267 259c0 80 25 142 74 186s112 66 189 66c33 0 63 -3 89 -10l3 3c-9 43 -27 79 -54 110l-115 -59c-11 15 -20 33 -26 52z" />
    <glyph glyph-name="ntilde" unicode="&#xf1;" horiz-adv-x="714" 
d="M46 42l69 20v397h-69c-3 17 -3 34 0 51l159 25c59 9 80 -11 80 -68h4c57 49 118 73 184 73c52 0 90 -19 110 -44c11 -12 19 -28 25 -48c13 -40 15 -74 15 -123v-263l69 -20c3 -13 3 -27 0 -42h-294c-3 14 -3 28 0 42l55 20v233c0 14 0 25 -1 32c0 16 -2 48 -9 63
c-9 27 -27 49 -64 49c-33 0 -64 -14 -94 -43v-334l55 -20c3 -14 3 -28 0 -42h-294c-3 14 -3 28 0 42zM271 597c-10 -2 -20 -3 -29 -3c-11 0 -20 1 -29 3c0 77 36 138 97 138c19 0 44 -9 73 -28c29 -18 50 -27 61 -27c23 0 35 25 36 56c21 4 40 4 58 0
c0 -77 -32 -137 -92 -137c-25 0 -51 9 -79 27c-28 19 -47 28 -57 28c-21 0 -35 -29 -39 -57z" />
    <glyph glyph-name="ograve" unicode="&#xf2;" horiz-adv-x="621" 
d="M311 63c69 0 103 67 103 202s-34 202 -103 202s-103 -67 -103 -202s34 -202 103 -202zM311 -10c-179 0 -275 99 -275 275c0 175 96 275 275 275c177 0 275 -100 275 -275s-98 -275 -275 -275zM258 792l114 -168c-14 -17 -30 -31 -49 -41l-142 146c21 24 46 45 77 63z" />
    <glyph glyph-name="oacute" unicode="&#xf3;" horiz-adv-x="621" 
d="M311 63c69 0 103 67 103 202s-34 202 -103 202s-103 -67 -103 -202s34 -202 103 -202zM311 -10c-179 0 -275 99 -275 275c0 175 96 275 275 275c177 0 275 -100 275 -275s-98 -275 -275 -275zM254 624l114 168c31 -18 56 -39 77 -63l-142 -146c-18 9 -34 22 -49 41z" />
    <glyph glyph-name="ocircumflex" unicode="&#xf4;" horiz-adv-x="621" 
d="M311 63c69 0 103 67 103 202s-34 202 -103 202s-103 -67 -103 -202s34 -202 103 -202zM311 -10c-179 0 -275 99 -275 275c0 175 96 275 275 275c177 0 275 -100 275 -275s-98 -275 -275 -275zM161 624l145 170h10l143 -170c-13 -17 -28 -31 -47 -41l-101 101l-102 -101
c-19 9 -35 23 -48 41z" />
    <glyph glyph-name="otilde" unicode="&#xf5;" horiz-adv-x="621" 
d="M311 63c69 0 103 67 103 202s-34 202 -103 202s-103 -67 -103 -202s34 -202 103 -202zM311 -10c-179 0 -275 99 -275 275c0 175 96 275 275 275c177 0 275 -100 275 -275s-98 -275 -275 -275zM206 597c-10 -2 -20 -3 -29 -3c-10 0 -20 1 -29 3c0 77 36 138 97 138
c19 0 44 -9 73 -28c29 -18 50 -27 61 -27c23 0 35 25 36 56c21 4 40 4 58 0c0 -77 -32 -137 -92 -137c-25 0 -51 9 -79 27c-28 19 -47 28 -57 28c-21 0 -35 -29 -39 -57z" />
    <glyph glyph-name="odieresis" unicode="&#xf6;" horiz-adv-x="621" 
d="M254 623c-23 -3 -45 -5 -65 -5c-21 0 -42 2 -64 5c-4 21 -6 42 -6 65c0 21 2 43 6 65c22 3 43 5 64 5c20 0 42 -2 65 -5c3 -25 5 -46 5 -65c0 -20 -2 -42 -5 -65zM496 623c-23 -3 -45 -5 -65 -5c-21 0 -42 2 -64 5c-4 21 -6 42 -6 65c0 21 2 43 6 65c22 3 43 5 64 5
c20 0 42 -2 65 -5c3 -25 5 -46 5 -65c0 -20 -2 -42 -5 -65zM311 63c69 0 103 67 103 202s-34 202 -103 202s-103 -67 -103 -202s34 -202 103 -202zM311 -10c-179 0 -275 99 -275 275c0 175 96 275 275 275c177 0 275 -100 275 -275s-98 -275 -275 -275z" />
    <glyph glyph-name="divide" unicode="&#xf7;" horiz-adv-x="646" 
d="M594 232h-543c-2 13 -3 27 -3 40c0 12 1 26 3 41h543c2 -15 3 -28 3 -41s-1 -27 -3 -40zM254 153c29 3 52 4 69 4c18 0 41 -1 69 -4c3 -25 5 -48 5 -69s-2 -45 -5 -70c-23 -3 -46 -5 -69 -5c-24 0 -47 2 -69 5c-3 25 -5 49 -5 72c0 19 2 42 5 67zM254 530c29 3 52 4 69 4
c18 0 41 -1 69 -4c3 -25 5 -48 5 -69s-2 -45 -5 -70c-23 -3 -46 -5 -69 -5c-24 0 -47 2 -69 5c-3 25 -5 49 -5 72c0 19 2 42 5 67z" />
    <glyph glyph-name="oslash" unicode="&#xf8;" horiz-adv-x="621" 
d="M311 63c35 0 62 19 79 57c18 39 27 86 27 143c0 34 -3 67 -9 98h-4l-167 -256c17 -28 42 -42 74 -42zM311 467c-27 0 -48 -11 -65 -33c-33 -43 -41 -98 -41 -169c0 -28 2 -57 6 -88h4l164 253c-18 25 -41 37 -68 37zM586 265c0 -175 -98 -275 -275 -275
c-49 0 -94 8 -133 23l-46 -69c-17 7 -33 17 -48 31l43 68c-61 47 -91 121 -91 222c0 175 96 275 275 275c47 0 89 -7 127 -21l39 61c17 -8 33 -18 48 -31l-38 -58c66 -49 99 -124 99 -226z" />
    <glyph glyph-name="ugrave" unicode="&#xf9;" horiz-adv-x="700" 
d="M435 135v324h-70c-3 17 -3 34 0 51l160 25c59 9 79 -11 79 -68v-401h70c3 -17 3 -34 0 -51l-162 -27c-48 -8 -77 18 -77 73v4h-4c-43 -45 -115 -75 -184 -75c-130 0 -150 103 -150 225v244h-70c-3 17 -3 34 0 51l159 25c59 9 81 -12 81 -68v-240c0 -40 2 -59 10 -90
c9 -29 31 -44 64 -44c31 0 74 22 94 42zM275 792l114 -168c-14 -17 -30 -31 -49 -41l-142 146c21 24 46 45 77 63z" />
    <glyph glyph-name="uacute" unicode="&#xfa;" horiz-adv-x="700" 
d="M435 135v324h-70c-3 17 -3 34 0 51l160 25c59 9 79 -11 79 -68v-401h70c3 -17 3 -34 0 -51l-162 -27c-48 -8 -77 18 -77 73v4h-4c-43 -45 -115 -75 -184 -75c-130 0 -150 103 -150 225v244h-70c-3 17 -3 34 0 51l159 25c59 9 81 -12 81 -68v-240c0 -40 2 -59 10 -90
c9 -29 31 -44 64 -44c31 0 74 22 94 42zM299 624l114 168c31 -18 56 -39 77 -63l-142 -146c-18 9 -34 22 -49 41z" />
    <glyph glyph-name="ucircumflex" unicode="&#xfb;" horiz-adv-x="700" 
d="M435 135v324h-70c-3 17 -3 34 0 51l160 25c59 9 79 -11 79 -68v-401h70c3 -17 3 -34 0 -51l-162 -27c-48 -8 -77 18 -77 73v4h-4c-43 -45 -115 -75 -184 -75c-130 0 -150 103 -150 225v244h-70c-3 17 -3 34 0 51l159 25c59 9 81 -12 81 -68v-240c0 -40 2 -59 10 -90
c9 -29 31 -44 64 -44c31 0 74 22 94 42zM203 624l145 170h10l143 -170c-13 -17 -28 -31 -47 -41l-101 101l-102 -101c-19 9 -35 23 -48 41z" />
    <glyph glyph-name="udieresis" unicode="&#xfc;" horiz-adv-x="700" 
d="M435 135v324h-70c-3 17 -3 34 0 51l160 25c59 9 79 -11 79 -68v-401h70c3 -17 3 -34 0 -51l-162 -27c-48 -8 -77 18 -77 73v4h-4c-43 -45 -115 -75 -184 -75c-130 0 -150 103 -150 225v244h-70c-3 17 -3 34 0 51l159 25c59 9 81 -12 81 -68v-240c0 -40 2 -59 10 -90
c9 -29 31 -44 64 -44c31 0 74 22 94 42zM278 623c-23 -3 -45 -5 -65 -5c-21 0 -42 2 -64 5c-4 21 -6 42 -6 65c0 21 2 43 6 65c22 3 43 5 64 5c20 0 42 -2 65 -5c3 -25 5 -46 5 -65c0 -20 -2 -42 -5 -65zM520 623c-23 -3 -45 -5 -65 -5c-21 0 -42 2 -64 5c-4 21 -6 42 -6 65
c0 21 2 43 6 65c22 3 43 5 64 5c20 0 42 -2 65 -5c3 -25 5 -46 5 -65c0 -20 -2 -42 -5 -65z" />
    <glyph glyph-name="yacute" unicode="&#xfd;" horiz-adv-x="637" 
d="M56 -190v146c10 2 20 3 31 3c10 0 20 -1 30 -3l20 -63c64 -9 117 22 158 93l-229 482l-58 20c-4 15 -4 29 0 42h303c3 -13 3 -27 0 -42l-59 -20l127 -269h4l110 269l-79 20c-3 15 -3 29 0 42h231c3 -13 3 -27 0 -42l-71 -21l-152 -376c-11 -29 -20 -51 -27 -66l-28 -58
c-12 -25 -23 -43 -33 -56c-19 -27 -52 -65 -84 -81c-32 -17 -76 -31 -127 -31c-23 0 -45 4 -67 11zM302 624l114 168c31 -18 56 -39 77 -63l-142 -146c-18 9 -34 22 -49 41z" />
    <glyph glyph-name="thorn" unicode="&#xfe;" horiz-adv-x="647" 
d="M274 397v-339c8 -1 17 -2 28 -2c55 0 95 30 115 77s28 93 28 144c0 33 -3 64 -14 103c-9 40 -35 66 -70 66c-31 0 -60 -16 -87 -49zM274 -8v-130l70 -20c3 -13 3 -27 0 -42h-309c-3 15 -3 29 0 42l69 20v817h-69c-3 17 -3 34 0 51l171 27c44 7 68 -17 68 -70v-219h4
c31 45 89 72 142 72c65 0 114 -24 147 -71s50 -106 50 -175c0 -84 -26 -156 -78 -215c-51 -59 -121 -89 -209 -89c-15 0 -33 1 -56 2z" />
    <glyph glyph-name="ydieresis" unicode="&#xff;" horiz-adv-x="637" 
d="M56 -190v146c10 2 20 3 31 3c10 0 20 -1 30 -3l20 -63c64 -9 117 22 158 93l-229 482l-58 20c-4 15 -4 29 0 42h303c3 -13 3 -27 0 -42l-59 -20l127 -269h4l110 269l-79 20c-3 15 -3 29 0 42h231c3 -13 3 -27 0 -42l-71 -21l-152 -376c-11 -29 -20 -51 -27 -66l-28 -58
c-12 -25 -23 -43 -33 -56c-19 -27 -52 -65 -84 -81c-32 -17 -76 -31 -127 -31c-23 0 -45 4 -67 11zM282 623c-23 -3 -45 -5 -65 -5c-21 0 -42 2 -64 5c-4 21 -6 42 -6 65c0 21 2 43 6 65c22 3 43 5 64 5c20 0 42 -2 65 -5c3 -25 5 -46 5 -65c0 -20 -2 -42 -5 -65zM524 623
c-23 -3 -45 -5 -65 -5c-21 0 -42 2 -64 5c-4 21 -6 42 -6 65c0 21 2 43 6 65c22 3 43 5 64 5c20 0 42 -2 65 -5c3 -25 5 -46 5 -65c0 -20 -2 -42 -5 -65z" />
    <glyph glyph-name="Amacron" unicode="&#x100;" horiz-adv-x="826" 
d="M468 44l87 25l-57 151h-262l-58 -151l87 -25c3 -15 3 -29 0 -44h-250c-3 15 -3 29 0 44l79 26l249 650h151l246 -650l78 -26c3 -15 3 -29 0 -44h-350c-3 15 -3 29 0 44zM371 556h-5l-99 -256h200zM566 790h-307c-2 14 -3 28 -3 42c0 13 1 27 3 41h307c2 -14 3 -28 3 -41
c0 -14 -1 -28 -3 -42z" />
    <glyph glyph-name="amacron" unicode="&#x101;" horiz-adv-x="634" 
d="M541 359v-293h70c3 -17 3 -34 0 -51l-163 -25c-48 -7 -76 20 -76 73h-4c-39 -49 -92 -73 -159 -73c-97 0 -164 53 -164 156c-3 80 50 127 107 149c19 9 43 15 70 19c56 8 90 11 149 12v45c0 62 -38 93 -115 93c-24 0 -52 -3 -85 -9l-31 -94c-11 -2 -22 -3 -31 -3
c-10 0 -20 1 -30 3v134c85 30 162 45 231 45s125 -14 167 -43c43 -28 64 -74 64 -138zM371 133v130h-18c-76 0 -137 -33 -137 -109c0 -49 24 -71 56 -71c33 0 78 22 99 50zM461 620h-307c-2 14 -3 28 -3 42c0 13 1 27 3 41h307c2 -14 3 -28 3 -41c0 -14 -1 -28 -3 -42z" />
    <glyph glyph-name="Abreve" unicode="&#x102;" horiz-adv-x="826" 
d="M468 44l87 25l-57 151h-262l-58 -151l87 -25c3 -15 3 -29 0 -44h-250c-3 15 -3 29 0 44l79 26l249 650h151l246 -650l78 -26c3 -15 3 -29 0 -44h-350c-3 15 -3 29 0 44zM371 556h-5l-99 -256h200zM251 939c10 2 21 3 34 3c12 0 23 -1 33 -3c7 -45 34 -87 93 -87
c52 0 84 29 96 87c10 2 21 3 33 3c13 0 24 -1 34 -3c-3 -97 -66 -163 -162 -163s-158 64 -161 163z" />
    <glyph glyph-name="abreve" unicode="&#x103;" horiz-adv-x="634" 
d="M541 359v-293h70c3 -17 3 -34 0 -51l-163 -25c-48 -7 -76 20 -76 73h-4c-39 -49 -92 -73 -159 -73c-97 0 -164 53 -164 156c-3 80 50 127 107 149c19 9 43 15 70 19c56 8 90 11 149 12v45c0 62 -38 93 -115 93c-24 0 -52 -3 -85 -9l-31 -94c-11 -2 -22 -3 -31 -3
c-10 0 -20 1 -30 3v134c85 30 162 45 231 45s125 -14 167 -43c43 -28 64 -74 64 -138zM371 133v130h-18c-76 0 -137 -33 -137 -109c0 -49 24 -71 56 -71c33 0 78 22 99 50zM165 751c12 2 23 3 33 3c11 0 23 -1 34 -3c7 -49 29 -79 81 -79s74 30 81 79c11 2 22 3 33 3
s22 -1 34 -3c0 -95 -56 -156 -148 -156s-148 61 -148 156z" />
    <glyph glyph-name="Aogonek" unicode="&#x104;" horiz-adv-x="826" 
d="M494 720l246 -650l78 -26c3 -14 3 -29 0 -44h-221c-5 -17 -7 -34 -7 -51c0 -49 18 -86 62 -86c15 0 29 4 44 11c11 -15 17 -33 19 -52c-23 -19 -52 -28 -89 -28c-76 0 -119 39 -119 112c0 49 16 102 48 160l-57 154h-262l-58 -151l87 -25c3 -14 3 -29 0 -44h-250
c-3 15 -3 29 0 44l79 26l249 650h151zM371 556h-5l-99 -256h200z" />
    <glyph glyph-name="aogonek" unicode="&#x105;" horiz-adv-x="634" 
d="M541 359v-293h70c3 -17 3 -34 0 -51l-115 -17c-4 -15 -6 -32 -6 -51c0 -48 19 -84 62 -84c15 0 29 4 44 11c11 -15 17 -33 19 -52c-23 -19 -52 -28 -89 -28c-77 0 -119 40 -119 115c0 26 5 53 15 81c-33 4 -50 28 -50 73h-4c-39 -49 -92 -73 -159 -73
c-97 0 -164 53 -164 156c-3 80 50 127 107 149c19 9 43 15 70 19c56 8 90 11 149 12v45c0 62 -38 93 -115 93c-24 0 -52 -3 -85 -9l-31 -94c-11 -2 -22 -3 -31 -3c-10 0 -20 1 -30 3v134c85 30 162 45 231 45s125 -14 167 -43c43 -28 64 -74 64 -138zM371 133v130h-18
c-76 0 -137 -33 -137 -109c0 -49 24 -71 56 -71c33 0 78 22 99 50z" />
    <glyph glyph-name="Cacute" unicode="&#x106;" horiz-adv-x="715" 
d="M554 88l49 137c23 4 41 4 64 0v-167c-75 -45 -161 -68 -259 -68c-108 0 -196 32 -263 95s-100 155 -100 274c0 79 18 148 54 205c73 115 193 166 340 166c85 0 159 -19 223 -58v-159c-21 -4 -43 -4 -64 0l-46 119c-29 13 -59 20 -90 20c-83 0 -144 -27 -182 -80
s-57 -123 -57 -212c0 -181 78 -288 229 -288c32 0 66 5 102 16zM332 828l190 124c20 -27 36 -58 49 -91l-209 -91c-13 16 -23 35 -30 58z" />
    <glyph glyph-name="cacute" unicode="&#x107;" horiz-adv-x="551" 
d="M512 180v-135c-53 -37 -118 -55 -197 -55c-176 0 -279 97 -279 274c0 88 26 156 78 204s121 72 206 72c69 0 132 -16 187 -47v-130c-10 -2 -20 -3 -31 -3c-10 0 -20 1 -30 3l-32 98c-18 3 -35 5 -50 5c-104 0 -156 -66 -156 -198c0 -135 52 -202 156 -202c19 0 37 2 56 6
l31 108c17 4 40 4 61 0zM244 624l114 168c31 -18 56 -39 77 -63l-142 -146c-18 9 -34 22 -49 41z" />
    <glyph glyph-name="Ccaron" unicode="&#x10c;" horiz-adv-x="715" 
d="M554 88l49 137c23 4 41 4 64 0v-167c-75 -45 -161 -68 -259 -68c-108 0 -196 32 -263 95s-100 155 -100 274c0 79 18 148 54 205c73 115 193 166 340 166c85 0 159 -19 223 -58v-159c-21 -4 -43 -4 -64 0l-46 119c-29 13 -59 20 -90 20c-83 0 -144 -27 -182 -80
s-57 -123 -57 -212c0 -181 78 -288 229 -288c32 0 66 5 102 16zM578 904l-160 -134h-10l-161 134c8 17 19 33 34 48l132 -87l131 87c15 -15 26 -31 34 -48z" />
    <glyph glyph-name="ccaron" unicode="&#x10d;" horiz-adv-x="551" 
d="M512 180v-135c-53 -37 -118 -55 -197 -55c-176 0 -279 97 -279 274c0 88 26 156 78 204s121 72 206 72c69 0 132 -16 187 -47v-130c-10 -2 -20 -3 -31 -3c-10 0 -20 1 -30 3l-32 98c-18 3 -35 5 -50 5c-104 0 -156 -66 -156 -198c0 -135 52 -202 156 -202c19 0 37 2 56 6
l31 108c17 4 40 4 61 0zM458 752l-143 -169h-10l-145 169c13 17 29 31 48 42l102 -101l101 101c19 -11 34 -25 47 -42z" />
    <glyph glyph-name="Dcaron" unicode="&#x10e;" horiz-adv-x="795" 
d="M371 640h-66v-560h66c149 0 206 97 206 280s-57 280 -206 280zM44 44l87 25v582l-87 25c-3 15 -3 29 0 44h326c265 0 384 -115 384 -360c0 -243 -119 -360 -384 -360h-326c-3 15 -3 29 0 44zM561 904l-160 -134h-10l-161 134c8 17 19 33 34 48l132 -87l131 87
c15 -15 26 -31 34 -48z" />
    <glyph glyph-name="dcaron" unicode="&#x10f;" horiz-adv-x="646" 
d="M380 537v142h-70c-3 17 -3 34 0 51l161 25c56 9 79 -11 79 -68v-621h69c3 -17 3 -34 0 -51l-162 -27c-47 -8 -77 19 -77 71v4h-4c-38 -49 -86 -73 -143 -73c-65 0 -115 25 -148 74s-49 109 -49 180c0 93 27 166 82 218s125 78 212 78c17 0 34 -1 50 -3zM380 134v339
c-138 14 -172 -117 -172 -227c0 -109 30 -163 90 -163c35 0 62 17 82 51zM615 590c25 31 37 73 37 124c0 9 -1 23 -2 42c17 2 34 3 51 3c18 0 35 -1 52 -3c3 -95 -29 -158 -97 -189c-15 3 -29 11 -41 23z" />
    <glyph glyph-name="Dcroat" unicode="&#x110;" horiz-adv-x="797" 
d="M438 344h-134v-264h66c148 0 205 97 205 280s-56 280 -205 280h-66v-227h134c2 -12 3 -24 3 -35s-1 -22 -3 -34zM42 413h88v238l-88 25c-3 15 -3 29 0 44h326c267 0 384 -115 384 -360c0 -243 -119 -360 -384 -360h-326c-3 15 -3 29 0 44l88 25v275h-88
c-2 12 -3 23 -3 34s1 23 3 35z" />
    <glyph glyph-name="dslash" unicode="&#x111;" horiz-adv-x="646" 
d="M381 134v308c-6 1 -14 1 -24 1c-99 0 -149 -70 -149 -210c0 -100 29 -150 88 -150c33 0 69 19 85 51zM619 568h-69v-502h69c3 -17 3 -34 0 -51l-166 -26c-43 -7 -73 20 -73 75h-4c-40 -49 -88 -74 -144 -74c-129 0 -196 96 -196 236c0 91 26 160 79 208
c53 49 122 73 208 73c19 0 38 -1 57 -3v64h-129c-4 17 -4 36 0 56h129v57h-70c-4 17 -4 33 0 49l171 27c43 7 69 -15 69 -70v-63h69c4 -20 4 -39 0 -56z" />
    <glyph glyph-name="Emacron" unicode="&#x112;" horiz-adv-x="711" 
d="M44 44l87 25v582l-87 25c-3 15 -3 29 0 44h606v-170c-11 -2 -22 -3 -33 -3c-10 0 -21 1 -32 3l-35 90h-245v-229h177l25 62c18 4 36 4 53 0v-221c-19 -4 -37 -4 -53 0l-25 79h-177v-251h264l35 95c21 4 43 4 64 0v-175h-624c-3 15 -3 29 0 44zM528 790h-307
c-2 14 -3 28 -3 42c0 13 1 27 3 41h307c2 -14 3 -28 3 -41c0 -14 -1 -28 -3 -42z" />
    <glyph glyph-name="emacron" unicode="&#x113;" horiz-adv-x="598" 
d="M548 262h-340c0 -132 50 -198 159 -198c28 0 55 3 82 10l31 101c19 4 39 4 60 0v-130c-63 -37 -137 -55 -220 -55c-172 0 -284 92 -284 275c0 172 103 275 276 275c77 0 137 -21 178 -63s62 -96 62 -162c0 -15 -1 -32 -4 -53zM309 468c-57 0 -89 -57 -97 -142l170 10
c0 85 -28 132 -73 132zM462 620h-307c-2 14 -3 28 -3 42c0 13 1 27 3 41h307c2 -14 3 -28 3 -41c0 -14 -1 -28 -3 -42z" />
    <glyph glyph-name="Edotaccent" unicode="&#x116;" horiz-adv-x="711" 
d="M44 44l87 25v582l-87 25c-3 15 -3 29 0 44h606v-170c-11 -2 -22 -3 -33 -3c-10 0 -21 1 -32 3l-35 90h-245v-229h177l25 62c18 4 36 4 53 0v-221c-19 -4 -37 -4 -53 0l-25 79h-177v-251h264l35 95c21 4 43 4 64 0v-175h-624c-3 15 -3 29 0 44zM308 933c32 3 56 4 73 4
s41 -1 73 -4c4 -25 6 -50 6 -73c0 -25 -2 -49 -6 -73c-28 -3 -52 -5 -73 -5c-24 0 -48 2 -73 5c-4 24 -6 48 -6 73c0 24 2 48 6 73z" />
    <glyph glyph-name="edotaccent" unicode="&#x117;" horiz-adv-x="598" 
d="M548 262h-340c0 -132 50 -198 159 -198c28 0 55 3 82 10l31 101c19 4 39 4 60 0v-130c-63 -37 -137 -55 -220 -55c-172 0 -284 92 -284 275c0 172 103 275 276 275c77 0 137 -21 178 -63s62 -96 62 -162c0 -15 -1 -32 -4 -53zM309 468c-57 0 -89 -57 -97 -142l170 10
c0 85 -28 132 -73 132zM229 774c32 3 56 4 73 4s41 -1 73 -4c4 -25 6 -49 6 -73c0 -25 -2 -49 -6 -73c-28 -3 -52 -5 -73 -5c-24 0 -48 2 -73 5c-4 24 -6 48 -6 73c0 23 2 48 6 73z" />
    <glyph glyph-name="Eogonek" unicode="&#x118;" horiz-adv-x="711" 
d="M44 44l87 25v582l-87 25c-3 15 -3 29 0 44h606v-170c-11 -2 -22 -3 -33 -3c-10 0 -21 1 -32 3l-35 90h-245v-229h177l25 62c18 4 36 4 53 0v-221c-19 -4 -37 -4 -53 0l-25 79h-177v-251h264l35 95c21 4 43 4 64 0v-175h-108c-5 -17 -7 -34 -7 -51c0 -49 18 -86 62 -86
c15 0 29 4 44 11c11 -15 17 -33 19 -52c-23 -19 -52 -28 -89 -28c-77 0 -119 40 -119 115c0 31 7 61 20 91h-446c-3 15 -3 29 0 44z" />
    <glyph glyph-name="eogonek" unicode="&#x119;" horiz-adv-x="598" 
d="M548 262h-340c0 -132 50 -198 159 -198c28 0 55 3 82 10l31 101c19 4 39 4 60 0v-130c-34 -20 -72 -35 -114 -44c-5 -17 -7 -35 -7 -54c0 -48 19 -84 62 -84c15 0 29 4 44 11c11 -15 17 -33 19 -52c-23 -19 -52 -28 -89 -28c-77 0 -119 40 -119 115c0 28 5 55 16 82
c-9 -1 -19 -1 -32 -1c-172 0 -284 92 -284 275c0 172 103 275 276 275c77 0 137 -21 178 -63s62 -96 62 -162c0 -15 -1 -32 -4 -53zM309 468c-57 0 -89 -57 -97 -142l170 10c0 85 -28 132 -73 132z" />
    <glyph glyph-name="Ecaron" unicode="&#x11a;" horiz-adv-x="711" 
d="M44 44l87 25v582l-87 25c-3 15 -3 29 0 44h606v-170c-11 -2 -22 -3 -33 -3c-10 0 -21 1 -32 3l-35 90h-245v-229h177l25 62c18 4 36 4 53 0v-221c-19 -4 -37 -4 -53 0l-25 79h-177v-251h264l35 95c21 4 43 4 64 0v-175h-624c-3 15 -3 29 0 44zM546 904l-160 -134h-10
l-161 134c8 17 19 33 34 48l132 -87l131 87c15 -15 26 -31 34 -48z" />
    <glyph glyph-name="ecaron" unicode="&#x11b;" horiz-adv-x="598" 
d="M548 262h-340c0 -132 50 -198 159 -198c28 0 55 3 82 10l31 101c19 4 39 4 60 0v-130c-63 -37 -137 -55 -220 -55c-172 0 -284 92 -284 275c0 172 103 275 276 275c77 0 137 -21 178 -63s62 -96 62 -162c0 -15 -1 -32 -4 -53zM309 468c-57 0 -89 -57 -97 -142l170 10
c0 85 -28 132 -73 132zM458 752l-143 -169h-10l-145 169c13 17 29 31 48 42l102 -101l101 101c19 -11 34 -25 47 -42z" />
    <glyph glyph-name="Gbreve" unicode="&#x11e;" horiz-adv-x="777" 
d="M729 314l-49 -18v-306h-50c-35 0 -60 13 -74 39c-45 -26 -101 -39 -166 -39c-103 0 -186 32 -250 97c-63 65 -95 156 -95 274c0 253 187 369 403 369c91 0 168 -19 232 -57v-159c-11 -2 -22 -3 -32 -3c-11 0 -21 1 -32 3l-46 119c-35 12 -73 18 -112 18
c-153 0 -235 -102 -235 -290c0 -81 16 -149 49 -204s83 -82 150 -82c29 0 59 6 89 17v197l-118 25c-3 15 -3 29 0 44h336c3 -15 3 -29 0 -44zM246 939c10 2 21 3 34 3c12 0 23 -1 33 -3c7 -45 34 -87 93 -87c52 0 84 29 96 87c10 2 21 3 33 3c13 0 24 -1 34 -3
c-3 -97 -66 -163 -162 -163s-158 64 -161 163z" />
    <glyph glyph-name="gbreve" unicode="&#x11f;" horiz-adv-x="587" 
d="M525 358c0 -122 -80 -183 -239 -183c-43 0 -78 5 -105 15c-18 -15 -27 -29 -27 -43c0 -20 10 -33 34 -38c25 -4 37 -5 73 -5h130c115 0 173 -44 173 -131c0 -61 -29 -109 -69 -136c-19 -13 -43 -24 -70 -33c-53 -17 -99 -21 -151 -21c-81 0 -155 12 -222 37v131
c19 3 38 3 55 0l31 -78c21 -11 68 -17 140 -17c49 0 90 5 123 15c34 10 51 26 51 49c0 12 -1 29 -50 29h-144c-135 0 -200 35 -200 139c0 51 23 92 70 123v4c-45 29 -68 76 -68 143c0 121 78 182 233 182c51 0 93 -7 128 -20h151c2 -11 3 -22 3 -32c0 -11 -1 -21 -3 -31h-71
v-4c16 -28 24 -60 24 -95zM229 358c0 -87 17 -112 64 -112s63 27 63 112s-16 111 -63 111s-64 -26 -64 -111zM147 751c12 2 23 3 33 3c12 0 23 -1 34 -3c7 -49 29 -79 81 -79s74 30 81 79c23 4 43 4 67 0c0 -95 -56 -156 -148 -156s-148 61 -148 156z" />
    <glyph glyph-name="Gcommaaccent" unicode="&#x122;" horiz-adv-x="777" 
d="M729 314l-49 -18v-306h-50c-35 0 -60 13 -74 39c-45 -26 -101 -39 -166 -39c-103 0 -186 32 -250 97c-63 65 -95 156 -95 274c0 253 187 369 403 369c91 0 168 -19 232 -57v-159c-11 -2 -22 -3 -32 -3c-11 0 -21 1 -32 3l-46 119c-35 12 -73 18 -112 18
c-153 0 -235 -102 -235 -290c0 -81 16 -149 49 -204s83 -82 150 -82c29 0 59 6 89 17v197l-118 25c-3 15 -3 29 0 44h336c3 -15 3 -29 0 -44zM326 -207c25 31 37 73 37 124c0 9 -1 23 -2 42c17 2 34 3 51 3s35 -1 52 -3c3 -95 -29 -158 -97 -189c-15 3 -29 11 -41 23z" />
    <glyph glyph-name="gcommaaccent" unicode="&#x123;" horiz-adv-x="587" 
d="M525 358c0 -122 -80 -183 -239 -183c-43 0 -78 5 -105 15c-18 -15 -27 -29 -27 -43c0 -20 10 -33 34 -38c25 -4 37 -5 73 -5h130c115 0 173 -44 173 -131c0 -61 -29 -109 -69 -136c-19 -13 -43 -24 -70 -33c-53 -17 -99 -21 -151 -21c-81 0 -155 12 -222 37v131
c19 3 38 3 55 0l31 -78c21 -11 68 -17 140 -17c49 0 90 5 123 15c34 10 51 26 51 49c0 12 -1 29 -50 29h-144c-135 0 -200 35 -200 139c0 51 23 92 70 123v4c-45 29 -68 76 -68 143c0 121 78 182 233 182c51 0 93 -7 128 -20h151c2 -11 3 -22 3 -32c0 -11 -1 -21 -3 -31h-71
v-4c16 -28 24 -60 24 -95zM229 358c0 -87 17 -112 64 -112s63 27 63 112s-16 111 -63 111s-64 -26 -64 -111zM363 762c-25 -31 -37 -73 -37 -124c0 -9 1 -23 2 -42c-17 -2 -34 -3 -51 -3c-18 0 -35 1 -52 3c-3 95 29 158 97 189c15 -3 29 -11 41 -23z" />
    <glyph glyph-name="Imacron" unicode="&#x12a;" horiz-adv-x="429" 
d="M131 69v582l-87 25c-3 15 -3 29 0 44h349c3 -15 3 -29 0 -44l-88 -25v-582l88 -25c3 -15 3 -29 0 -44h-349c-3 15 -3 29 0 44zM372 790h-307c-2 14 -3 28 -3 42c0 13 1 27 3 41h307c2 -14 3 -28 3 -41c0 -14 -1 -28 -3 -42z" />
    <glyph glyph-name="imacron" unicode="&#x12b;" horiz-adv-x="381" 
d="M42 42l69 20v397h-69c-3 17 -3 34 0 51l159 25c56 9 80 -8 80 -68v-405l70 -20c3 -13 3 -27 0 -42h-309c-3 15 -3 29 0 42zM330 620h-307c-2 14 -3 28 -3 42c0 13 1 27 3 41h307c2 -14 3 -28 3 -41c0 -14 -1 -28 -3 -42z" />
    <glyph glyph-name="Iogonek" unicode="&#x12e;" horiz-adv-x="429" 
d="M131 69v582l-87 25c-3 15 -3 29 0 44h349c3 -15 3 -29 0 -44l-88 -25v-582l88 -25c3 -15 3 -29 0 -44h-139c-5 -17 -7 -34 -7 -51c0 -49 18 -86 62 -86c15 0 29 4 44 11c11 -15 17 -33 19 -52c-23 -19 -52 -28 -89 -28c-77 0 -119 40 -119 115c0 31 7 61 20 91h-140
c-3 15 -3 29 0 44z" />
    <glyph glyph-name="iogonek" unicode="&#x12f;" horiz-adv-x="381" 
d="M47 42l69 20v397h-69c-3 17 -3 34 0 51l159 25c56 9 80 -8 80 -68v-405l70 -20c3 -13 3 -27 0 -42h-119c-5 -17 -7 -34 -7 -51c0 -49 18 -86 62 -86c15 0 29 4 44 11c11 -15 17 -33 19 -52c-23 -19 -52 -28 -89 -28c-77 0 -119 40 -119 115c0 31 7 61 20 91h-120
c-3 15 -3 29 0 42zM118 774c32 3 56 4 73 4s41 -1 73 -4c4 -25 6 -49 6 -73c0 -25 -2 -49 -6 -73c-28 -3 -52 -5 -73 -5c-24 0 -48 2 -73 5c-4 24 -6 48 -6 73c0 23 2 48 6 73z" />
    <glyph glyph-name="Idot" unicode="&#x130;" horiz-adv-x="429" 
d="M131 69v582l-87 25c-3 15 -3 29 0 44h349c3 -15 3 -29 0 -44l-88 -25v-582l88 -25c3 -15 3 -29 0 -44h-349c-3 15 -3 29 0 44zM145 934c32 3 56 4 73 4s41 -1 73 -4c4 -25 6 -50 6 -73c0 -25 -2 -49 -6 -73c-28 -3 -52 -5 -73 -5c-24 0 -48 2 -73 5c-4 24 -6 48 -6 73
c0 23 2 48 6 73z" />
    <glyph glyph-name="dotlessi" unicode="&#x131;" horiz-adv-x="381" 
d="M47 42l69 20v397h-69c-3 17 -3 34 0 51l159 25c56 9 80 -8 80 -68v-405l70 -20c3 -13 3 -27 0 -42h-309c-3 15 -3 29 0 42z" />
    <glyph glyph-name="Kcommaaccent" unicode="&#x136;" horiz-adv-x="815" 
d="M815 0h-233l-268 361l255 298l-62 17c-3 14 -3 29 0 44h265c3 -15 3 -29 0 -44l-107 -26l-192 -223l266 -358l76 -25c3 -14 3 -29 0 -44zM393 676l-88 -25v-582l88 -25c3 -14 3 -29 0 -44h-349c-3 15 -3 29 0 44l87 25v582l-87 25c-3 15 -3 29 0 44h349
c3 -15 3 -29 0 -44zM366 -207c25 31 37 73 37 124c0 9 -1 23 -2 42c17 2 34 3 51 3s35 -1 52 -3c3 -95 -29 -158 -97 -189c-15 3 -29 11 -41 23z" />
    <glyph glyph-name="kcommaaccent" unicode="&#x137;" horiz-adv-x="700" 
d="M705 0h-228l-194 270v4l195 195l-68 19c-3 15 -3 29 0 42h271c3 -13 3 -27 0 -42l-108 -24l-128 -131l192 -269l68 -22c3 -13 3 -27 0 -42zM35 42l69 20v617h-69c-3 17 -3 34 0 51l159 25c56 9 80 -11 80 -68v-625l55 -20c3 -13 3 -27 0 -42h-294c-3 14 -3 28 0 42z
M299 -207c25 31 37 73 37 124c0 9 -1 23 -2 42c17 2 34 3 51 3s35 -1 52 -3c3 -95 -29 -158 -97 -189c-15 3 -29 11 -41 23z" />
    <glyph glyph-name="Lacute" unicode="&#x139;" horiz-adv-x="640" 
d="M635 200v-200h-591c-3 15 -3 29 0 44l87 25v582l-87 25c-3 15 -3 29 0 44h349c3 -15 3 -29 0 -44l-88 -25v-571h220l46 120c10 2 21 3 32 3c10 0 21 -1 32 -3zM156 828l190 124c20 -27 36 -58 49 -91l-209 -91c-13 16 -23 35 -30 58z" />
    <glyph glyph-name="lacute" unicode="&#x13a;" horiz-adv-x="369" 
d="M34 42l69 20v617h-69c-3 17 -3 34 0 51l159 25c56 9 80 -11 80 -68v-625l70 -20c3 -13 3 -27 0 -42h-309c-3 14 -3 28 0 42zM89 838l190 124c20 -27 36 -58 49 -91l-209 -91c-13 16 -23 35 -30 58z" />
    <glyph glyph-name="Lcommaaccent" unicode="&#x13b;" horiz-adv-x="640" 
d="M635 200v-200h-591c-3 15 -3 29 0 44l87 25v582l-87 25c-3 15 -3 29 0 44h349c3 -15 3 -29 0 -44l-88 -25v-571h220l46 120c10 2 21 3 32 3c10 0 21 -1 32 -3zM292 -207c25 31 37 73 37 124c0 9 -1 23 -2 42c17 2 34 3 51 3s35 -1 52 -3c3 -95 -29 -158 -97 -189
c-15 3 -29 11 -41 23z" />
    <glyph glyph-name="lcommaaccent" unicode="&#x13c;" horiz-adv-x="369" 
d="M34 42l69 20v617h-69c-3 17 -3 34 0 51l159 25c56 9 80 -11 80 -68v-625l70 -20c3 -13 3 -27 0 -42h-309c-3 14 -3 28 0 42zM103 -207c25 31 37 73 37 124c0 9 -1 23 -2 42c17 2 34 3 51 3c18 0 35 -1 52 -3c3 -95 -29 -158 -97 -189c-15 3 -29 11 -41 23z" />
    <glyph glyph-name="Lcaron" unicode="&#x13d;" horiz-adv-x="640" 
d="M635 200v-200h-591c-3 15 -3 29 0 44l87 25v582l-87 25c-3 15 -3 29 0 44h349c3 -15 3 -29 0 -44l-88 -25v-571h220l46 120c10 2 21 3 32 3c10 0 21 -1 32 -3zM441 551c25 31 37 73 37 124c0 9 -1 23 -2 42c17 2 34 3 51 3c18 0 35 -1 52 -3c3 -95 -29 -158 -97 -189
c-15 3 -29 11 -41 23z" />
    <glyph glyph-name="lcaron" unicode="&#x13e;" horiz-adv-x="369" 
d="M34 42l69 20v617h-69c-3 17 -3 34 0 51l159 25c56 9 80 -11 80 -68v-625l70 -20c3 -13 3 -27 0 -42h-309c-3 14 -3 28 0 42zM339 591c25 31 37 73 37 124c0 9 -1 23 -2 42c17 2 34 3 51 3c18 0 35 -1 52 -3c3 -95 -29 -158 -97 -189c-15 3 -29 11 -41 23z" />
    <glyph glyph-name="Lslash" unicode="&#x141;" horiz-adv-x="640" 
d="M636 200v-200h-591c-3 15 -3 29 0 44l87 25v180l-83 -63l-4 1v68l87 66v330l-87 25c-3 14 -3 29 0 44h349c3 -15 3 -29 0 -44l-88 -25v-199l126 96l4 -1v-68l-130 -99v-300h220l46 120c10 2 21 3 32 3c10 0 21 -1 32 -3z" />
    <glyph glyph-name="lslash" unicode="&#x142;" horiz-adv-x="398" 
d="M52 278v68l70 52v281h-70c-3 17 -3 34 0 51l159 25c56 9 81 -11 81 -68v-161l79 61l4 -1v-68l-83 -64v-392l69 -20c3 -14 3 -28 0 -42h-309c-3 14 -3 28 0 42l70 20v264l-66 -49z" />
    <glyph glyph-name="Nacute" unicode="&#x143;" horiz-adv-x="774" 
d="M523 0l-320 540h-4v-471l88 -25c3 -14 3 -29 0 -44h-245c-3 15 -3 29 0 44l78 26v580l-78 26c-3 15 -3 29 0 44h256l280 -476h4v407l-87 25c-3 15 -3 29 0 44h244c3 -15 3 -29 0 -44l-78 -26v-650h-138zM320 828l190 124c20 -27 36 -58 49 -91l-209 -91
c-13 16 -23 35 -30 58z" />
    <glyph glyph-name="nacute" unicode="&#x144;" horiz-adv-x="714" 
d="M46 42l69 20v397h-69c-3 17 -3 34 0 51l159 25c59 9 80 -11 80 -68h4c57 49 118 73 184 73c52 0 90 -19 110 -44c11 -12 19 -28 25 -48c13 -40 15 -74 15 -123v-263l69 -20c3 -13 3 -27 0 -42h-294c-3 14 -3 28 0 42l55 20v233c0 14 0 25 -1 32c0 16 -2 48 -9 63
c-9 27 -27 49 -64 49c-33 0 -64 -14 -94 -43v-334l55 -20c3 -14 3 -28 0 -42h-294c-3 14 -3 28 0 42zM302 624l114 168c31 -18 56 -39 77 -63l-142 -146c-18 9 -34 22 -49 41z" />
    <glyph glyph-name="Ncommaaccent" unicode="&#x145;" horiz-adv-x="774" 
d="M523 0l-320 540h-4v-471l88 -25c3 -14 3 -29 0 -44h-245c-3 15 -3 29 0 44l78 26v580l-78 26c-3 15 -3 29 0 44h256l280 -476h4v407l-87 25c-3 15 -3 29 0 44h244c3 -15 3 -29 0 -44l-78 -26v-650h-138zM303 -207c25 31 37 73 37 124c0 9 -1 23 -2 42c17 2 34 3 51 3
c18 0 35 -1 52 -3c3 -95 -29 -158 -97 -189c-15 3 -29 11 -41 23z" />
    <glyph glyph-name="ncommaaccent" unicode="&#x146;" horiz-adv-x="714" 
d="M46 42l69 20v397h-69c-3 17 -3 34 0 51l159 25c59 9 80 -11 80 -68h4c57 49 118 73 184 73c52 0 90 -19 110 -44c11 -12 19 -28 25 -48c13 -40 15 -74 15 -123v-263l69 -20c3 -13 3 -27 0 -42h-294c-3 14 -3 28 0 42l55 20v233c0 14 0 25 -1 32c0 16 -2 48 -9 63
c-9 27 -27 49 -64 49c-33 0 -64 -14 -94 -43v-334l55 -20c3 -14 3 -28 0 -42h-294c-3 14 -3 28 0 42zM287 -207c25 31 37 73 37 124c0 9 -1 23 -2 42c17 2 34 3 51 3c18 0 35 -1 52 -3c3 -95 -29 -158 -97 -189c-15 3 -29 11 -41 23z" />
    <glyph glyph-name="Ncaron" unicode="&#x147;" horiz-adv-x="774" 
d="M523 0l-320 540h-4v-471l88 -25c3 -14 3 -29 0 -44h-245c-3 15 -3 29 0 44l78 26v580l-78 26c-3 15 -3 29 0 44h256l280 -476h4v407l-87 25c-3 15 -3 29 0 44h244c3 -15 3 -29 0 -44l-78 -26v-650h-138zM570 904l-160 -134h-10l-161 134c8 17 19 33 34 48l132 -87l131 87
c15 -15 26 -31 34 -48z" />
    <glyph glyph-name="ncaron" unicode="&#x148;" horiz-adv-x="714" 
d="M46 42l69 20v397h-69c-3 17 -3 34 0 51l159 25c59 9 80 -11 80 -68h4c57 49 118 73 184 73c52 0 90 -19 110 -44c11 -12 19 -28 25 -48c13 -40 15 -74 15 -123v-263l69 -20c3 -13 3 -27 0 -42h-294c-3 14 -3 28 0 42l55 20v233c0 14 0 25 -1 32c0 16 -2 48 -9 63
c-9 27 -27 49 -64 49c-33 0 -64 -14 -94 -43v-334l55 -20c3 -14 3 -28 0 -42h-294c-3 14 -3 28 0 42zM502 752l-143 -169h-10l-145 169c13 17 29 31 48 42l102 -101l101 101c19 -11 34 -25 47 -42z" />
    <glyph glyph-name="Omacron" unicode="&#x14c;" horiz-adv-x="794" 
d="M45 360c0 243 121 370 352 370c228 0 351 -127 351 -370c0 -239 -123 -370 -351 -370c-231 0 -352 130 -352 370zM397 650c-116 0 -174 -97 -174 -290s58 -290 174 -290c119 0 173 110 173 290s-54 290 -173 290zM551 790h-307c-2 14 -3 28 -3 42c0 13 1 27 3 41h307
c2 -14 3 -28 3 -41c0 -14 -1 -28 -3 -42z" />
    <glyph glyph-name="omacron" unicode="&#x14d;" horiz-adv-x="621" 
d="M311 63c69 0 103 67 103 202s-34 202 -103 202s-103 -67 -103 -202s34 -202 103 -202zM311 -10c-179 0 -275 99 -275 275c0 175 96 275 275 275c177 0 275 -100 275 -275s-98 -275 -275 -275zM464 620h-307c-2 14 -3 28 -3 42c0 13 1 27 3 41h307c2 -14 3 -28 3 -41
c0 -14 -1 -28 -3 -42z" />
    <glyph glyph-name="Ohungarumlaut" unicode="&#x150;" horiz-adv-x="794" 
d="M45 360c0 243 121 370 352 370c228 0 351 -127 351 -370c0 -239 -123 -370 -351 -370c-231 0 -352 130 -352 370zM397 650c-116 0 -174 -97 -174 -290s58 -290 174 -290c119 0 173 110 173 290s-54 290 -173 290zM444 817l108 135c30 -25 54 -50 71 -75l-135 -107
c-17 13 -32 28 -44 47zM234 817l108 135c30 -25 54 -50 71 -75l-135 -107c-17 13 -32 28 -44 47z" />
    <glyph glyph-name="ohungarumlaut" unicode="&#x151;" horiz-adv-x="621" 
d="M311 63c69 0 103 67 103 202s-34 202 -103 202s-103 -67 -103 -202s34 -202 103 -202zM311 -10c-179 0 -275 99 -275 275c0 175 96 275 275 275c177 0 275 -100 275 -275s-98 -275 -275 -275zM153 620l104 174c29 -17 56 -36 81 -59l-133 -152c-19 9 -36 21 -52 37z
M334 620l105 174c30 -17 57 -37 80 -59l-133 -152c-21 11 -39 24 -52 37z" />
    <glyph glyph-name="OE" unicode="&#x152;" horiz-adv-x="1118" 
d="M952 640h-244v-229h176l25 62c18 4 36 4 53 0v-221c-19 -4 -36 -4 -53 0l-25 79h-176v-251h263l35 95c10 2 21 3 32 3s21 -1 32 -3v-175h-573c-35 -7 -69 -10 -101 -10c-107 0 -192 31 -256 94c-63 63 -95 152 -95 269c0 119 32 211 97 277c65 67 149 100 254 100
c34 0 69 -3 104 -10h552v-170c-11 -2 -22 -3 -33 -3s-21 1 -31 3zM534 99v526c-41 17 -80 26 -116 26c-131 0 -195 -111 -195 -291c0 -145 50 -291 189 -291c41 0 82 10 122 30z" />
    <glyph glyph-name="oe" unicode="&#x153;" horiz-adv-x="976" 
d="M925 262h-336c0 -131 44 -198 167 -198c22 0 45 3 70 10l31 100c10 2 20 3 30 3c11 0 21 -1 31 -3v-129c-67 -37 -140 -55 -217 -55c-85 0 -150 27 -194 81h-4c-51 -54 -119 -81 -204 -81c-164 0 -263 103 -263 276s104 274 276 274c87 0 151 -27 191 -81h4
c45 54 106 81 185 81c69 0 125 -21 170 -62s68 -95 68 -164c0 -15 -2 -33 -5 -52zM310 467c-68 0 -102 -67 -102 -201c0 -135 34 -203 102 -203c71 0 107 68 107 203c0 134 -36 201 -107 201zM593 326l169 11c0 84 -28 131 -75 131c-52 0 -83 -47 -94 -142z" />
    <glyph glyph-name="Racute" unicode="&#x154;" horiz-adv-x="755" 
d="M479 499c0 94 -55 141 -164 141h-10v-278h14c105 0 160 48 160 137zM527 0l-209 285h-13v-216l75 -25c3 -14 3 -29 0 -44h-336c-3 15 -3 29 0 44l87 25v582l-87 25c-3 15 -3 29 0 44h272c227 0 336 -63 336 -206c0 -93 -49 -159 -147 -198l183 -247l69 -25
c3 -14 3 -29 0 -44h-230zM275 828l190 124c20 -27 36 -58 49 -91l-209 -91c-13 16 -23 35 -30 58z" />
    <glyph glyph-name="racute" unicode="&#x155;" horiz-adv-x="507" 
d="M116 62v397h-69c-3 17 -3 34 0 51l159 25c59 9 80 -11 80 -68h4c46 49 107 74 183 74c16 0 28 -1 36 -2v-165c-11 -2 -22 -3 -32 -3c-11 0 -20 1 -29 3l-20 62c-10 3 -21 4 -34 4c-45 0 -91 -22 -108 -43v-335l70 -20c3 -13 3 -27 0 -42h-309c-3 13 -3 27 0 42zM249 624
l114 168c31 -18 56 -39 77 -63l-142 -146c-18 9 -34 22 -49 41z" />
    <glyph glyph-name="Rcommaaccent" unicode="&#x156;" horiz-adv-x="755" 
d="M479 499c0 94 -55 141 -164 141h-10v-278h14c105 0 160 48 160 137zM527 0l-209 285h-13v-216l75 -25c3 -14 3 -29 0 -44h-336c-3 15 -3 29 0 44l87 25v582l-87 25c-3 15 -3 29 0 44h272c227 0 336 -63 336 -206c0 -93 -49 -159 -147 -198l183 -247l69 -25
c3 -14 3 -29 0 -44h-230zM340 -207c25 31 37 73 37 124c0 9 -1 23 -2 42c17 2 34 3 51 3s35 -1 52 -3c3 -95 -29 -158 -97 -189c-15 3 -29 11 -41 23z" />
    <glyph glyph-name="rcommaaccent" unicode="&#x157;" horiz-adv-x="507" 
d="M116 62v397h-69c-3 17 -3 34 0 51l159 25c59 9 80 -11 80 -68h4c46 49 107 74 183 74c16 0 28 -1 36 -2v-165c-11 -2 -22 -3 -32 -3c-11 0 -20 1 -29 3l-20 62c-10 3 -21 4 -34 4c-45 0 -91 -22 -108 -43v-335l70 -20c3 -13 3 -27 0 -42h-309c-3 13 -3 27 0 42zM110 -207
c25 31 37 73 37 124c0 9 -1 23 -2 42c17 2 34 3 51 3s35 -1 52 -3c3 -95 -29 -158 -97 -189c-15 3 -29 11 -41 23z" />
    <glyph glyph-name="Rcaron" unicode="&#x158;" horiz-adv-x="755" 
d="M479 499c0 94 -55 141 -164 141h-10v-278h14c105 0 160 48 160 137zM527 0l-209 285h-13v-216l75 -25c3 -14 3 -29 0 -44h-336c-3 15 -3 29 0 44l87 25v582l-87 25c-3 15 -3 29 0 44h272c227 0 336 -63 336 -206c0 -93 -49 -159 -147 -198l183 -247l69 -25
c3 -14 3 -29 0 -44h-230zM518 904l-160 -134h-10l-161 134c8 17 19 33 34 48l132 -87l131 87c15 -15 26 -31 34 -48z" />
    <glyph glyph-name="rcaron" unicode="&#x159;" horiz-adv-x="507" 
d="M116 62v397h-69c-3 17 -3 34 0 51l159 25c59 9 80 -11 80 -68h4c46 49 107 74 183 74c16 0 28 -1 36 -2v-165c-11 -2 -22 -3 -32 -3c-11 0 -20 1 -29 3l-20 62c-10 3 -21 4 -34 4c-45 0 -91 -22 -108 -43v-335l70 -20c3 -13 3 -27 0 -42h-309c-3 13 -3 27 0 42zM451 752
l-143 -169h-10l-145 169c13 17 29 31 48 42l102 -101l101 101c19 -11 34 -25 47 -42z" />
    <glyph glyph-name="Sacute" unicode="&#x15a;" horiz-adv-x="651" 
d="M52 57v165c10 2 21 3 32 3c10 0 21 -1 32 -3l49 -136c33 -9 67 -14 104 -14c47 0 87 9 119 26s48 45 48 83c0 72 -96 85 -193 114c-33 11 -63 24 -92 37c-57 28 -100 90 -100 175c0 50 14 92 41 127c56 69 141 96 245 96c93 0 174 -19 245 -57v-159c-11 -2 -21 -3 -32 -3
s-22 1 -32 3l-47 118c-29 11 -62 17 -99 17c-85 0 -154 -32 -154 -103c0 -25 10 -45 29 -62c39 -32 98 -41 166 -64c34 -11 65 -23 94 -36c57 -24 101 -81 101 -158c0 -76 -31 -134 -94 -175c-62 -41 -136 -61 -221 -61c-99 0 -179 22 -241 67zM252 828l190 124
c20 -27 36 -58 49 -91l-209 -91c-13 16 -23 35 -30 58z" />
    <glyph glyph-name="sacute" unicode="&#x15b;" horiz-adv-x="539" 
d="M114 173l32 -100c23 -6 49 -9 79 -9c69 0 123 20 123 68c0 33 -47 52 -104 65c-57 15 -120 30 -161 81c-20 25 -30 58 -30 97s13 72 38 98c52 52 119 67 194 67c67 0 131 -14 190 -43v-124c-10 -2 -20 -3 -31 -3c-10 0 -20 1 -30 3l-29 87c-21 4 -45 6 -71 6
c-73 0 -109 -20 -109 -59c0 -98 297 -39 297 -233c0 -60 -25 -106 -76 -137s-111 -47 -181 -47c-77 0 -141 16 -192 48v135c11 2 21 3 32 3c9 0 19 -1 29 -3zM221 624l114 168c31 -18 56 -39 77 -63l-142 -146c-18 9 -34 22 -49 41z" />
    <glyph glyph-name="Scedilla" unicode="&#x15e;" horiz-adv-x="651" 
d="M52 57v165c10 2 21 3 32 3c10 0 21 -1 32 -3l49 -136c33 -9 67 -14 104 -14c47 0 87 9 119 26s48 45 48 83c0 72 -96 85 -193 114c-33 11 -63 24 -92 37c-57 28 -100 90 -100 175c0 50 14 92 41 127c56 69 141 96 245 96c93 0 174 -19 245 -57v-159c-11 -2 -21 -3 -32 -3
s-22 1 -32 3l-47 118c-29 11 -62 17 -99 17c-85 0 -154 -32 -154 -103c0 -25 10 -45 29 -62c39 -32 98 -41 166 -64c34 -11 65 -23 94 -36c57 -24 101 -81 101 -158c0 -123 -91 -199 -220 -226c13 -34 20 -64 20 -91c0 -75 -42 -115 -119 -115c-37 0 -66 9 -89 28
c2 17 8 34 19 52c15 -7 29 -11 44 -11c43 0 62 36 62 84c0 14 -2 29 -5 44c-7 -1 -16 -1 -27 -1c-99 0 -179 22 -241 67z" />
    <glyph glyph-name="scedilla" unicode="&#x15f;" horiz-adv-x="539" 
d="M114 173l32 -100c23 -6 49 -9 79 -9c69 0 123 20 123 68c0 33 -47 52 -104 65c-57 15 -120 30 -161 81c-20 25 -30 58 -30 97s13 72 38 98c52 52 119 67 194 67c67 0 131 -14 190 -43v-124c-10 -2 -20 -3 -31 -3c-10 0 -20 1 -30 3l-29 87c-21 4 -45 6 -71 6
c-73 0 -109 -20 -109 -59c0 -98 297 -39 297 -233c0 -89 -64 -148 -159 -172c14 -33 21 -64 21 -93c0 -75 -42 -115 -119 -115c-37 0 -66 9 -89 28c2 17 8 34 19 52c15 -7 29 -11 44 -11c44 0 62 37 62 85c0 14 -2 28 -5 43c-7 -1 -18 -1 -31 -1c-77 0 -141 16 -192 48v135
c11 2 21 3 32 3c9 0 19 -1 29 -3z" />
    <glyph glyph-name="Scaron" unicode="&#x160;" horiz-adv-x="651" 
d="M52 57v165c10 2 21 3 32 3c10 0 21 -1 32 -3l49 -136c33 -9 67 -14 104 -14c47 0 87 9 119 26s48 45 48 83c0 72 -96 85 -193 114c-33 11 -63 24 -92 37c-57 28 -100 90 -100 175c0 50 14 92 41 127c56 69 141 96 245 96c93 0 174 -19 245 -57v-159c-11 -2 -21 -3 -32 -3
s-22 1 -32 3l-47 118c-29 11 -62 17 -99 17c-85 0 -154 -32 -154 -103c0 -25 10 -45 29 -62c39 -32 98 -41 166 -64c34 -11 65 -23 94 -36c57 -24 101 -81 101 -158c0 -76 -31 -134 -94 -175c-62 -41 -136 -61 -221 -61c-99 0 -179 22 -241 67zM500 904l-160 -134h-10
l-161 134c8 17 19 33 34 48l132 -87l131 87c15 -15 26 -31 34 -48z" />
    <glyph glyph-name="scaron" unicode="&#x161;" horiz-adv-x="539" 
d="M114 173l32 -100c23 -6 49 -9 79 -9c69 0 123 20 123 68c0 33 -47 52 -104 65c-57 15 -120 30 -161 81c-20 25 -30 58 -30 97s13 72 38 98c52 52 119 67 194 67c67 0 131 -14 190 -43v-124c-10 -2 -20 -3 -31 -3c-10 0 -20 1 -30 3l-29 87c-21 4 -45 6 -71 6
c-73 0 -109 -20 -109 -59c0 -98 297 -39 297 -233c0 -60 -25 -106 -76 -137s-111 -47 -181 -47c-77 0 -141 16 -192 48v135c11 2 21 3 32 3c9 0 19 -1 29 -3zM426 752l-143 -169h-10l-145 169c13 17 29 31 48 42l102 -101l101 101c19 -11 34 -25 47 -42z" />
    <glyph glyph-name="Tcommaaccent" unicode="&#x162;" horiz-adv-x="677" 
d="M603 525l-45 115h-132v-571l87 -25c3 -14 3 -29 0 -44h-349c-3 15 -3 29 0 44l88 25v571h-133l-44 -115c-11 -2 -22 -3 -33 -3s-21 1 -32 3v195h657v-195c-11 -2 -22 -3 -32 -3c-11 0 -22 1 -32 3zM252 -207c25 31 37 73 37 124c0 9 -1 23 -2 42c17 2 34 3 51 3
s35 -1 52 -3c3 -95 -29 -158 -97 -189c-15 3 -29 11 -41 23z" />
    <glyph glyph-name="tcommaaccent" unicode="&#x163;" horiz-adv-x="407" 
d="M98 190v269h-70c-3 13 -3 26 0 39l70 24v142l160 30l10 -9v-163h130c2 -11 3 -22 3 -32c0 -11 -1 -21 -3 -31h-130v-242c0 -45 1 -66 10 -98c13 -43 46 -58 119 -56c2 -10 3 -20 3 -31s-1 -22 -3 -32c-27 -7 -60 -10 -97 -10c-139 0 -202 56 -202 200zM95 -207
c25 31 37 73 37 124c0 9 -1 23 -2 42c17 2 34 3 51 3s35 -1 52 -3c3 -95 -29 -158 -97 -189c-15 3 -29 11 -41 23z" />
    <glyph glyph-name="Tcaron" unicode="&#x164;" horiz-adv-x="677" 
d="M603 525l-45 115h-132v-571l87 -25c3 -14 3 -29 0 -44h-349c-3 15 -3 29 0 44l88 25v571h-133l-44 -115c-11 -2 -22 -3 -33 -3s-21 1 -32 3v195h657v-195c-11 -2 -22 -3 -32 -3c-11 0 -22 1 -32 3zM504 904l-160 -134h-10l-161 134c8 17 19 33 34 48l132 -87l131 87
c15 -15 26 -31 34 -48z" />
    <glyph glyph-name="tcaron" unicode="&#x165;" horiz-adv-x="400" 
d="M98 190v269h-70c-3 13 -3 26 0 39l70 24v142l160 30l10 -9v-163h130c2 -11 3 -22 3 -32c0 -11 -1 -21 -3 -31h-130v-242c0 -45 1 -66 10 -98c13 -43 46 -58 119 -56c2 -10 3 -20 3 -31s-1 -22 -3 -32c-27 -7 -60 -10 -97 -10c-139 0 -202 56 -202 200zM338 617
c25 31 37 73 37 124c0 9 -1 23 -2 42c17 2 34 3 51 3c18 0 35 -1 52 -3c3 -95 -29 -158 -97 -189c-15 3 -29 11 -41 23z" />
    <glyph glyph-name="Umacron" unicode="&#x16a;" horiz-adv-x="794" 
d="M120 298v353l-78 25c-3 15 -3 29 0 44h336c3 -15 3 -29 0 -44l-84 -25v-364c0 -144 41 -210 156 -210c103 0 156 79 156 211v363l-88 25c-3 15 -3 29 0 44h244c3 -15 3 -29 0 -44l-78 -26v-352c0 -192 -87 -308 -282 -308c-103 0 -175 26 -218 77c-43 52 -64 129 -64 231
zM580 790h-307c-2 14 -3 28 -3 42c0 13 1 27 3 41h307c2 -14 3 -28 3 -41c0 -14 -1 -28 -3 -42z" />
    <glyph glyph-name="umacron" unicode="&#x16b;" horiz-adv-x="700" 
d="M435 135v324h-70c-3 17 -3 34 0 51l160 25c59 9 79 -11 79 -68v-401h70c3 -17 3 -34 0 -51l-162 -27c-48 -8 -77 18 -77 73v4h-4c-43 -45 -115 -75 -184 -75c-130 0 -150 103 -150 225v244h-70c-3 17 -3 34 0 51l159 25c59 9 81 -12 81 -68v-240c0 -40 2 -59 10 -90
c9 -29 31 -44 64 -44c31 0 74 22 94 42zM499 620h-307c-2 14 -3 28 -3 42c0 13 1 27 3 41h307c2 -14 3 -28 3 -41c0 -14 -1 -28 -3 -42z" />
    <glyph glyph-name="Uring" unicode="&#x16e;" horiz-adv-x="794" 
d="M120 298v353l-78 25c-3 15 -3 29 0 44h336c3 -15 3 -29 0 -44l-84 -25v-364c0 -144 41 -210 156 -210c103 0 156 79 156 211v363l-88 25c-3 15 -3 29 0 44h244c3 -15 3 -29 0 -44l-78 -26v-352c0 -192 -87 -308 -282 -308c-103 0 -175 26 -218 77c-43 52 -64 129 -64 231
zM346 779c-21 19 -31 45 -31 77s10 58 31 77s47 29 80 29s59 -10 80 -29s32 -45 32 -77s-11 -58 -32 -77s-47 -28 -80 -28s-59 9 -80 28zM392 896c-17 -21 -17 -59 0 -80c17 -20 51 -20 68 0c19 21 19 59 0 80c-17 21 -51 21 -68 0z" />
    <glyph glyph-name="uring" unicode="&#x16f;" horiz-adv-x="700" 
d="M435 135v324h-70c-3 17 -3 34 0 51l160 25c59 9 79 -11 79 -68v-401h70c3 -17 3 -34 0 -51l-162 -27c-48 -8 -77 18 -77 73v4h-4c-43 -45 -115 -75 -184 -75c-130 0 -150 103 -150 225v244h-70c-3 17 -3 34 0 51l159 25c59 9 81 -12 81 -68v-240c0 -40 2 -59 10 -90
c9 -29 31 -44 64 -44c31 0 74 22 94 42zM265 611c-21 19 -31 45 -31 77s10 58 31 77s47 29 80 29s59 -10 80 -29s32 -45 32 -77s-11 -58 -32 -77s-47 -28 -80 -28s-59 9 -80 28zM311 728c-17 -21 -17 -59 0 -80c17 -20 51 -20 68 0c19 21 19 59 0 80c-17 21 -51 21 -68 0z
" />
    <glyph glyph-name="Uhungarumlaut" unicode="&#x170;" horiz-adv-x="794" 
d="M120 298v353l-78 25c-3 15 -3 29 0 44h336c3 -15 3 -29 0 -44l-84 -25v-364c0 -144 41 -210 156 -210c103 0 156 79 156 211v363l-88 25c-3 15 -3 29 0 44h244c3 -15 3 -29 0 -44l-78 -26v-352c0 -192 -87 -308 -282 -308c-103 0 -175 26 -218 77c-43 52 -64 129 -64 231
zM469 817l108 135c30 -25 54 -50 71 -75l-135 -107c-17 13 -32 28 -44 47zM259 817l108 135c30 -25 54 -50 71 -75l-135 -107c-17 13 -32 28 -44 47z" />
    <glyph glyph-name="uhungarumlaut" unicode="&#x171;" horiz-adv-x="700" 
d="M435 135v324h-70c-3 17 -3 34 0 51l160 25c59 9 79 -11 79 -68v-401h70c3 -17 3 -34 0 -51l-162 -27c-48 -8 -77 18 -77 73v4h-4c-43 -45 -115 -75 -184 -75c-130 0 -150 103 -150 225v244h-70c-3 17 -3 34 0 51l159 25c59 9 81 -12 81 -68v-240c0 -40 2 -59 10 -90
c9 -29 31 -44 64 -44c31 0 74 22 94 42zM204 620l104 174c29 -17 56 -36 81 -59l-133 -152c-19 9 -36 21 -52 37zM385 620l105 174c30 -17 57 -37 80 -59l-133 -152c-21 11 -39 24 -52 37z" />
    <glyph glyph-name="Uogonek" unicode="&#x172;" horiz-adv-x="794" 
d="M120 298v353l-78 25c-3 15 -3 29 0 44h336c3 -15 3 -29 0 -44l-84 -25v-364c0 -144 41 -210 156 -210c103 0 156 79 156 211v363l-88 25c-3 15 -3 29 0 44h244c3 -15 3 -29 0 -44l-78 -26v-352c0 -154 -54 -250 -162 -289c-7 -19 -10 -39 -10 -62c0 -48 19 -84 62 -84
c15 0 29 4 44 11c11 -15 17 -33 19 -52c-23 -19 -52 -28 -89 -28c-77 0 -119 40 -119 115c0 29 5 56 16 83c-19 -1 -33 -2 -43 -2c-103 0 -175 26 -218 77c-43 52 -64 129 -64 231z" />
    <glyph glyph-name="uogonek" unicode="&#x173;" horiz-adv-x="700" 
d="M435 135v324h-70c-3 17 -3 34 0 51l160 25c59 9 79 -11 79 -68v-401h70c3 -17 3 -34 0 -51l-115 -19c-4 -14 -6 -30 -6 -48c0 -48 18 -85 62 -85c15 0 29 4 44 11c11 -15 17 -33 19 -52c-23 -19 -52 -28 -89 -28c-77 0 -119 40 -119 115c0 27 5 53 14 78
c-33 5 -49 30 -49 74v4h-4c-43 -45 -115 -75 -184 -75c-130 0 -150 103 -150 225v244h-70c-3 17 -3 34 0 51l159 25c59 9 81 -12 81 -68v-240c0 -40 2 -59 10 -90c9 -29 31 -44 64 -44c31 0 74 22 94 42z" />
    <glyph glyph-name="Ydieresis" unicode="&#x178;" horiz-adv-x="756" 
d="M673 650l-201 -371v-210l87 -25c3 -15 3 -29 0 -44h-349c-3 15 -3 29 0 44l88 25v208l-207 373l-80 26c-3 16 -3 31 0 44h360c3 -15 3 -29 0 -44l-80 -25l146 -264h4l143 264l-81 25c-3 15 -3 29 0 44h252c3 -15 3 -29 0 -44zM349 787c-23 -3 -45 -5 -65 -5
c-21 0 -42 2 -64 5c-4 21 -6 43 -6 65c0 21 2 43 6 65c22 3 43 5 64 5c20 0 42 -2 65 -5c3 -25 5 -46 5 -65c0 -20 -2 -42 -5 -65zM598 787c-23 -3 -45 -5 -65 -5c-21 0 -42 2 -64 5c-4 21 -6 43 -6 65c0 21 2 43 6 65c22 3 43 5 64 5c20 0 42 -2 65 -5c3 -25 5 -46 5 -65
c0 -20 -2 -42 -5 -65z" />
    <glyph glyph-name="Zacute" unicode="&#x179;" horiz-adv-x="682" 
d="M55 525v195h585v-68l-389 -572h293l46 120c21 4 43 4 64 0v-200h-627v68l389 572h-253l-44 -115c-23 -4 -41 -4 -64 0zM293 828l190 124c20 -27 36 -58 49 -91l-209 -91c-13 16 -23 35 -30 58z" />
    <glyph glyph-name="zacute" unicode="&#x17a;" horiz-adv-x="564" 
d="M29 60l275 390v4h-165l-22 -74c-11 -2 -22 -3 -31 -3c-10 0 -20 1 -30 3v150h469v-60l-274 -390v-4h201l22 79c19 4 38 4 61 0v-155h-506v60zM249 624l114 168c31 -18 56 -39 77 -63l-142 -146c-18 9 -34 22 -49 41z" />
    <glyph glyph-name="Zdotaccent" unicode="&#x17b;" horiz-adv-x="682" 
d="M55 525v195h585v-68l-389 -572h293l46 120c21 4 43 4 64 0v-200h-627v68l389 572h-253l-44 -115c-23 -4 -41 -4 -64 0zM276 934c32 3 56 4 73 4s41 -1 73 -4c4 -25 6 -49 6 -73c0 -25 -2 -49 -6 -73c-28 -3 -52 -5 -73 -5c-24 0 -48 2 -73 5c-4 24 -6 48 -6 73
c0 23 2 48 6 73z" />
    <glyph glyph-name="zdotaccent" unicode="&#x17c;" horiz-adv-x="564" 
d="M29 60l275 390v4h-165l-22 -74c-11 -2 -22 -3 -31 -3c-10 0 -20 1 -30 3v150h469v-60l-274 -390v-4h201l22 79c19 4 38 4 61 0v-155h-506v60zM220 774c32 3 56 4 73 4s41 -1 73 -4c4 -25 6 -49 6 -73c0 -25 -2 -49 -6 -73c-28 -3 -52 -5 -73 -5c-24 0 -48 2 -73 5
c-4 24 -6 48 -6 73c0 23 2 48 6 73z" />
    <glyph glyph-name="Zcaron" unicode="&#x17d;" horiz-adv-x="682" 
d="M55 525v195h585v-68l-389 -572h293l46 120c21 4 43 4 64 0v-200h-627v68l389 572h-253l-44 -115c-23 -4 -41 -4 -64 0zM519 904l-160 -134h-10l-161 134c8 17 19 33 34 48l132 -87l131 87c15 -15 26 -31 34 -48z" />
    <glyph glyph-name="zcaron" unicode="&#x17e;" horiz-adv-x="564" 
d="M29 60l275 390v4h-165l-22 -74c-11 -2 -22 -3 -31 -3c-10 0 -20 1 -30 3v150h469v-60l-274 -390v-4h201l22 79c19 4 38 4 61 0v-155h-506v60zM448 752l-143 -169h-10l-145 169c13 17 29 31 48 42l102 -101l101 101c19 -11 34 -25 47 -42z" />
    <glyph glyph-name="florin" unicode="&#x192;" horiz-adv-x="629" 
d="M518 363h-128l-24 -170c-9 -67 -27 -121 -52 -164s-60 -82 -105 -117c-39 -29 -97 -54 -145 -54c-55 0 -90 26 -106 78c15 23 39 44 72 64c33 -44 59 -66 78 -66s36 23 51 68c16 45 29 102 39 169l29 192h-89c-2 10 -3 20 -3 31s1 22 3 33h99l17 111
c20 128 103 192 230 192c47 0 90 -9 129 -26l-18 -128c-10 -2 -20 -3 -29 -3c-11 0 -20 1 -29 3l-10 89c-39 7 -69 -11 -86 -48c-17 -36 -25 -71 -32 -118l-10 -72h119c2 -11 3 -22 3 -32c0 -11 -1 -22 -3 -32z" />
    <glyph glyph-name="Scommaaccent" unicode="&#x218;" horiz-adv-x="651" 
d="M52 57v165c10 2 21 3 32 3c10 0 21 -1 32 -3l49 -136c33 -9 67 -14 104 -14c47 0 87 9 119 26s48 45 48 83c0 72 -96 85 -193 114c-33 11 -63 24 -92 37c-57 28 -100 90 -100 175c0 50 14 92 41 127c56 69 141 96 245 96c93 0 174 -19 245 -57v-159c-11 -2 -21 -3 -32 -3
s-22 1 -32 3l-47 118c-29 11 -62 17 -99 17c-85 0 -154 -32 -154 -103c0 -25 10 -45 29 -62c39 -32 98 -41 166 -64c34 -11 65 -23 94 -36c57 -24 101 -81 101 -158c0 -76 -31 -134 -94 -175c-62 -41 -136 -61 -221 -61c-99 0 -179 22 -241 67zM246 -207c25 31 37 73 37 124
c0 9 -1 23 -2 42c17 2 34 3 51 3s35 -1 52 -3c3 -95 -29 -158 -97 -189c-15 3 -29 11 -41 23z" />
    <glyph glyph-name="scommaaccent" unicode="&#x219;" horiz-adv-x="539" 
d="M114 173l32 -100c23 -6 49 -9 79 -9c69 0 123 20 123 68c0 33 -47 52 -104 65c-57 15 -120 30 -161 81c-20 25 -30 58 -30 97s13 72 38 98c52 52 119 67 194 67c67 0 131 -14 190 -43v-124c-10 -2 -20 -3 -31 -3c-10 0 -20 1 -30 3l-29 87c-21 4 -45 6 -71 6
c-73 0 -109 -20 -109 -59c0 -98 297 -39 297 -233c0 -60 -25 -106 -76 -137s-111 -47 -181 -47c-77 0 -141 16 -192 48v135c11 2 21 3 32 3c9 0 19 -1 29 -3zM190 -207c25 31 37 73 37 124c0 9 -1 23 -2 42c17 2 34 3 51 3s35 -1 52 -3c3 -95 -29 -158 -97 -189
c-15 3 -29 11 -41 23z" />
    <glyph glyph-name="circumflex" unicode="&#x2c6;" horiz-adv-x="400" 
d="M50 624l145 170h10l143 -170c-13 -17 -28 -31 -47 -41l-101 101l-102 -101c-19 9 -35 23 -48 41z" />
    <glyph glyph-name="caron" unicode="&#x2c7;" horiz-adv-x="400" 
d="M348 752l-143 -169h-10l-145 169c13 17 29 31 48 42l102 -101l101 101c19 -11 34 -25 47 -42z" />
    <glyph glyph-name="breve" unicode="&#x2d8;" horiz-adv-x="400" 
d="M52 751c12 2 23 3 33 3c11 0 23 -1 34 -3c7 -49 29 -79 81 -79s74 30 81 79c23 4 43 4 67 0c0 -95 -56 -156 -148 -156s-148 61 -148 156z" />
    <glyph glyph-name="dotaccent" unicode="&#x2d9;" horiz-adv-x="400" 
d="M126 774c32 3 56 4 73 4s41 -1 73 -4c4 -25 6 -49 6 -73c0 -25 -2 -49 -6 -73c-28 -3 -52 -5 -73 -5c-24 0 -48 2 -73 5c-4 24 -6 48 -6 73c0 23 2 48 6 73z" />
    <glyph glyph-name="ring" unicode="&#x2da;" horiz-adv-x="400" 
d="M119 611c-21 19 -31 45 -31 77s10 58 31 77s47 29 80 29s59 -10 80 -29s32 -45 32 -77s-11 -58 -32 -77s-47 -28 -80 -28s-59 9 -80 28zM165 728c-17 -21 -17 -59 0 -80c17 -20 51 -20 68 0c19 21 19 59 0 80c-17 21 -51 21 -68 0z" />
    <glyph glyph-name="ogonek" unicode="&#x2db;" horiz-adv-x="400" 
d="M120 9h69c-7 -19 -10 -39 -10 -62c0 -48 19 -84 62 -84c15 0 29 4 44 11c11 -15 17 -33 19 -52c-23 -19 -52 -28 -89 -28c-77 0 -119 40 -119 115c0 33 8 67 24 100z" />
    <glyph glyph-name="tilde" unicode="&#x2dc;" horiz-adv-x="400" 
d="M95 597c-10 -2 -20 -3 -29 -3c-11 0 -20 1 -29 3c0 77 36 138 97 138c19 0 44 -9 73 -28c29 -18 50 -27 61 -27c23 0 35 25 36 56c21 4 40 4 58 0c0 -77 -32 -137 -92 -137c-25 0 -51 9 -79 27c-28 19 -47 28 -57 28c-21 0 -35 -29 -39 -57z" />
    <glyph glyph-name="hungarumlaut" unicode="&#x2dd;" horiz-adv-x="400" 
d="M17 620l104 174c29 -17 56 -36 81 -59l-133 -152c-19 9 -37 21 -52 37zM198 620l105 174c30 -17 57 -37 80 -59l-133 -152c-21 11 -39 24 -52 37z" />
    <glyph glyph-name="afii10023" unicode="&#x401;" horiz-adv-x="711" 
d="M44 44l87 25v582l-87 25c-3 15 -3 29 0 44h606v-170c-11 -2 -22 -3 -33 -3c-10 0 -21 1 -32 3l-35 90h-245v-229h177l25 62c18 4 36 4 53 0v-221c-19 -4 -37 -4 -53 0l-25 79h-177v-251h264l35 95c21 4 43 4 64 0v-175h-624c-3 15 -3 29 0 44zM316 787
c-23 -3 -45 -5 -65 -5c-21 0 -42 2 -64 5c-4 21 -6 43 -6 65c0 21 2 43 6 65c22 3 43 5 64 5c20 0 42 -2 65 -5c3 -25 5 -46 5 -65c0 -20 -2 -42 -5 -65zM565 787c-23 -3 -45 -5 -65 -5c-21 0 -42 2 -64 5c-4 21 -6 43 -6 65c0 21 2 43 6 65c22 3 43 5 64 5
c20 0 42 -2 65 -5c3 -25 5 -46 5 -65c0 -20 -2 -42 -5 -65z" />
    <glyph glyph-name="afii10051" unicode="&#x402;" horiz-adv-x="805" 
d="M122 44l88 25v571h-95l-45 -115c-21 -4 -43 -4 -64 0v195h648v-195c-11 -2 -22 -3 -32 -3c-11 0 -22 1 -32 3l-44 115h-162v-229c43 9 85 14 126 14c171 0 257 -88 257 -265c0 -53 -8 -105 -39 -164c-41 -87 -132 -154 -292 -156c-9 14 -13 30 -13 48
c67 7 116 47 137 103s29 103 29 155c0 140 -35 201 -130 201c-23 0 -48 -3 -75 -9v-269l74 -25c3 -15 3 -29 0 -44h-336c-3 15 -3 29 0 44z" />
    <glyph glyph-name="afii10052" unicode="&#x403;" horiz-adv-x="638" 
d="M569 525l-44 115h-220v-571l88 -25c3 -14 3 -29 0 -44h-349c-3 15 -3 29 0 44l87 25v582l-87 25c-3 15 -3 29 0 44h589v-195c-11 -2 -22 -3 -32 -3c-11 0 -22 1 -32 3zM281 828l190 124c20 -27 36 -58 49 -91l-209 -91c-13 16 -23 35 -30 58z" />
    <glyph glyph-name="afii10053" unicode="&#x404;" horiz-adv-x="719" 
d="M557 87l49 137c11 2 21 3 32 3s22 -1 33 -3v-166c-78 -45 -166 -68 -265 -68c-107 0 -194 32 -261 96c-67 65 -100 156 -100 274c0 116 37 207 110 272c74 65 168 98 282 98c85 0 161 -19 229 -58v-159c-11 -2 -22 -3 -33 -3c-10 0 -21 1 -32 3l-46 119
c-27 13 -59 20 -94 20c-142 0 -221 -80 -236 -239l342 9c2 -15 3 -30 3 -43c0 -14 -1 -29 -3 -44l-344 8c5 -181 86 -271 241 -271c35 0 66 5 93 15z" />
    <glyph glyph-name="afii10054" unicode="&#x405;" horiz-adv-x="651" 
d="M52 57v165c10 2 21 3 32 3c10 0 21 -1 32 -3l49 -136c33 -9 67 -14 104 -14c47 0 87 9 119 26s48 45 48 83c0 72 -96 85 -193 114c-33 11 -63 24 -92 37c-57 28 -100 90 -100 175c0 50 14 92 41 127c56 69 141 96 245 96c93 0 174 -19 245 -57v-159c-11 -2 -21 -3 -32 -3
s-22 1 -32 3l-47 118c-29 11 -62 17 -99 17c-85 0 -154 -32 -154 -103c0 -25 10 -45 29 -62c39 -32 98 -41 166 -64c34 -11 65 -23 94 -36c57 -24 101 -81 101 -158c0 -76 -31 -134 -94 -175c-62 -41 -136 -61 -221 -61c-99 0 -179 22 -241 67z" />
    <glyph glyph-name="afii10055" unicode="&#x406;" horiz-adv-x="429" 
d="M131 69v582l-87 25c-3 15 -3 29 0 44h349c3 -15 3 -29 0 -44l-88 -25v-582l88 -25c3 -15 3 -29 0 -44h-349c-3 15 -3 29 0 44z" />
    <glyph glyph-name="afii10056" unicode="&#x407;" horiz-adv-x="429" 
d="M127 69v582l-87 25c-3 15 -3 29 0 44h349c3 -15 3 -29 0 -44l-88 -25v-582l88 -25c3 -15 3 -29 0 -44h-349c-3 15 -3 29 0 44zM154 787c-23 -3 -45 -5 -65 -5c-21 0 -42 2 -64 5c-4 21 -6 42 -6 65c0 21 2 43 6 65c22 3 43 5 64 5c20 0 42 -2 65 -5c3 -25 5 -46 5 -65
c0 -20 -2 -42 -5 -65zM403 787c-23 -3 -45 -5 -65 -5c-21 0 -42 2 -64 5c-4 21 -6 43 -6 65c0 21 2 43 6 65c22 3 43 5 64 5c20 0 42 -2 65 -5c3 -25 5 -46 5 -65c0 -20 -2 -42 -5 -65z" />
    <glyph glyph-name="afii10057" unicode="&#x408;" horiz-adv-x="429" 
d="M127 80v571l-87 25c-3 15 -3 29 0 44h349c3 -15 3 -29 0 -44l-88 -25v-609c0 -63 -25 -113 -76 -148c-51 -36 -118 -54 -202 -54c-7 15 -11 31 -13 48c95 20 117 77 117 192z" />
    <glyph glyph-name="afii10058" unicode="&#x409;" horiz-adv-x="1010" 
d="M12 -10l-5 5v210c11 2 22 3 32 3c11 0 21 -1 32 -3l30 -87c53 48 91 136 108 249c9 57 16 105 19 144s6 85 9 140l-88 25c-3 15 -3 29 0 44h589c3 -15 3 -29 0 -44l-88 -25v-223h4c34 0 62 -1 85 -2s48 -4 76 -8s51 -11 68 -20c56 -27 103 -78 99 -174
c0 -75 -26 -131 -65 -163c-19 -16 -43 -29 -72 -38c-57 -19 -107 -23 -178 -23h-278c-3 15 -3 29 0 44l88 25v571h-161c-15 -403 -105 -619 -304 -650zM650 348v-268c105 0 151 34 151 134s-46 134 -151 134z" />
    <glyph glyph-name="afii10059" unicode="&#x40a;" horiz-adv-x="1092" 
d="M563 348h-258v-279l78 -25c3 -15 3 -29 0 -44h-339c-3 15 -3 29 0 44l87 25v582l-87 25c-3 15 -3 29 0 44h339c3 -15 3 -29 0 -44l-78 -25v-223h258v223l-78 25c-3 15 -3 29 0 44h339c3 -15 3 -29 0 -44l-87 -25v-223h4c33 0 61 -1 84 -2s48 -4 76 -8s51 -11 68 -20
c56 -27 103 -78 99 -174c0 -75 -26 -131 -65 -163c-19 -15 -43 -28 -72 -38c-57 -19 -108 -23 -177 -23h-269c-3 15 -3 29 0 44l78 25v279zM737 348v-268c104 0 150 34 150 134s-46 134 -150 134z" />
    <glyph glyph-name="afii10060" unicode="&#x40b;" horiz-adv-x="852" 
d="M122 44l88 25v571h-95l-45 -115c-21 -4 -43 -4 -64 0v195h648v-195c-11 -2 -22 -3 -32 -3c-11 0 -22 1 -32 3l-44 115h-162v-230c42 10 85 15 130 15c159 0 239 -70 239 -210v-146l88 -25c3 -15 3 -29 0 -44h-262v177c0 62 -7 106 -22 131c-14 26 -44 39 -89 39
c-27 0 -55 -3 -84 -9v-269l74 -25c3 -15 3 -29 0 -44h-336c-3 15 -3 29 0 44z" />
    <glyph glyph-name="afii10061" unicode="&#x40c;" horiz-adv-x="815" 
d="M815 0h-233l-268 361l255 298l-62 17c-3 14 -3 29 0 44h265c3 -15 3 -29 0 -44l-107 -26l-192 -223l266 -358l76 -25c3 -14 3 -29 0 -44zM393 676l-88 -25v-582l88 -25c3 -14 3 -29 0 -44h-349c-3 15 -3 29 0 44l87 25v582l-87 25c-3 15 -3 29 0 44h349
c3 -15 3 -29 0 -44zM368 828l190 124c20 -27 36 -58 49 -91l-209 -91c-13 16 -23 35 -30 58z" />
    <glyph glyph-name="afii10062" unicode="&#x40e;" horiz-adv-x="734" 
d="M112 -7v173c23 4 41 4 64 0l33 -86c58 0 106 28 143 85l-256 485l-79 26c-3 15 -3 30 0 44h355c3 -15 3 -29 0 -44l-80 -25l151 -289h4l125 288l-78 26c-3 15 -3 29 0 44h244c3 -15 3 -29 0 -44l-80 -25l-166 -387c-44 -103 -91 -175 -140 -214s-116 -59 -199 -59
c-13 0 -26 1 -41 2zM252 937c13 3 28 4 45 4c15 0 30 -1 43 -4c9 -61 33 -92 74 -92c42 0 67 31 74 92c27 5 61 5 88 0c-5 -105 -71 -160 -162 -160c-96 0 -157 53 -162 160z" />
    <glyph glyph-name="afii10145" unicode="&#x40f;" horiz-adv-x="860" 
d="M395 -150l-26 150h-325c-3 15 -3 29 0 44l87 25v582l-87 25c-3 15 -3 29 0 44h342c3 -15 3 -29 0 -44l-81 -25v-571h258v571l-81 25c-3 15 -3 29 0 44h342c3 -15 3 -29 0 -44l-87 -25v-582l87 -25c3 -14 3 -29 0 -44h-326l-26 -150c-11 -3 -24 -4 -39 -4
c-14 0 -27 1 -38 4z" />
    <glyph glyph-name="afii10017" unicode="&#x410;" horiz-adv-x="826" 
d="M468 44l87 25l-57 151h-262l-58 -151l87 -25c3 -15 3 -29 0 -44h-250c-3 15 -3 29 0 44l79 26l249 650h151l246 -650l78 -26c3 -15 3 -29 0 -44h-350c-3 15 -3 29 0 44zM371 556h-5l-99 -256h200z" />
    <glyph glyph-name="afii10018" unicode="&#x411;" horiz-adv-x="724" 
d="M565 525l-44 115h-216v-205h20c252 0 358 -58 358 -209c0 -155 -111 -226 -358 -226h-281c-3 15 -3 29 0 44l87 25v582l-87 25c-3 15 -3 29 0 44h586v-195c-11 -2 -22 -3 -33 -3s-22 1 -32 3zM326 355h-21v-275h21c127 0 179 36 179 136s-54 139 -179 139z" />
    <glyph glyph-name="afii10019" unicode="&#x412;" horiz-adv-x="721" 
d="M462 527c0 75 -42 113 -125 113h-32v-222h29c85 0 128 36 128 109zM350 338h-45v-258h49c99 0 151 33 151 130s-55 128 -155 128zM44 44l87 25v582l-87 25c-3 15 -3 29 0 44h294c63 0 104 -1 163 -16c83 -18 137 -65 141 -162c0 -77 -53 -139 -133 -152v-4
c104 -8 176 -73 176 -170c0 -81 -39 -141 -104 -172c-64 -31 -136 -44 -224 -44h-313c-3 15 -3 29 0 44z" />
    <glyph glyph-name="afii10020" unicode="&#x413;" horiz-adv-x="638" 
d="M569 525l-44 115h-220v-571l88 -25c3 -14 3 -29 0 -44h-349c-3 15 -3 29 0 44l87 25v582l-87 25c-3 15 -3 29 0 44h589v-195c-11 -2 -22 -3 -32 -3c-11 0 -22 1 -32 3z" />
    <glyph glyph-name="afii10021" unicode="&#x414;" horiz-adv-x="781" 
d="M7 -150v228h66c89 59 140 219 154 480l4 93l-88 25c-3 15 -3 29 0 44h600c3 -15 3 -29 0 -44l-89 -25v-573h89v-228c-23 -5 -56 -5 -77 0l-49 150h-484l-49 -150c-23 -5 -56 -5 -77 0zM480 78v562h-170c-9 -288 -45 -473 -126 -558v-4h296z" />
    <glyph glyph-name="afii10022" unicode="&#x415;" horiz-adv-x="711" 
d="M44 44l87 25v582l-87 25c-3 15 -3 29 0 44h606v-170c-11 -2 -22 -3 -33 -3c-10 0 -21 1 -32 3l-35 90h-245v-229h177l25 62c18 4 36 4 53 0v-221c-19 -4 -37 -4 -53 0l-25 79h-177v-251h264l35 95c21 4 43 4 64 0v-175h-624c-3 15 -3 29 0 44z" />
    <glyph glyph-name="afii10024" unicode="&#x416;" horiz-adv-x="1181" 
d="M1181 0h-233l-258 361l246 298l-63 17c-3 14 -3 29 0 44h265c3 -15 3 -29 0 -44l-107 -26l-182 -223l256 -358l76 -25c3 -15 3 -29 0 -44zM756 676l-74 -25v-582l74 -25c3 -14 3 -29 0 -44h-323c-3 15 -3 29 0 44l75 25v582l-75 25c-3 15 -3 30 0 44h323
c3 -15 3 -29 0 -44zM499 361l-258 -361h-233c-3 15 -3 29 0 44l76 25l256 358l-182 223l-107 26c-3 15 -3 29 0 44h265c3 -15 3 -30 0 -44l-62 -17z" />
    <glyph glyph-name="afii10025" unicode="&#x417;" horiz-adv-x="659" 
d="M69 527v156c77 31 164 47 259 47c69 0 125 -11 177 -36s84 -75 84 -143c0 -93 -61 -155 -161 -166v-4c108 -7 179 -70 179 -170c0 -160 -154 -221 -309 -221c-101 0 -184 20 -248 59v165c11 2 22 3 32 3c11 0 21 -1 32 -3l46 -129c34 -11 68 -16 103 -16
c95 0 165 43 165 139c0 95 -56 126 -155 126h-72c-4 24 -4 49 0 77h64c96 0 145 55 145 128c0 77 -63 112 -146 112c-31 0 -61 -5 -91 -15l-40 -109c-11 -2 -21 -3 -32 -3c-10 0 -21 1 -32 3z" />
    <glyph glyph-name="afii10026" unicode="&#x418;" horiz-adv-x="875" 
d="M574 456l-269 -303v-84l81 -25c3 -15 3 -29 0 -44h-342c-3 15 -3 29 0 44l87 25v582l-87 25c-3 15 -3 29 0 44h342c3 -15 3 -29 0 -44l-81 -25v-378h4l269 302v76l-81 25c-3 15 -3 29 0 44h342c3 -15 3 -29 0 -44l-87 -25v-582l87 -25c3 -15 3 -29 0 -44h-342
c-3 15 -3 29 0 44l81 25v387h-4z" />
    <glyph glyph-name="afii10027" unicode="&#x419;" horiz-adv-x="875" 
d="M574 456l-269 -303v-84l81 -25c3 -15 3 -29 0 -44h-342c-3 15 -3 29 0 44l87 25v582l-87 25c-3 15 -3 29 0 44h342c3 -15 3 -29 0 -44l-81 -25v-378h4l269 302v76l-81 25c-3 15 -3 29 0 44h342c3 -15 3 -29 0 -44l-87 -25v-582l87 -25c3 -15 3 -29 0 -44h-342
c-3 15 -3 29 0 44l81 25v387h-4zM279 937c13 3 28 4 45 4c15 0 30 -1 43 -4c9 -61 33 -92 74 -92c42 0 67 31 74 92c27 5 61 5 88 0c-5 -105 -71 -160 -162 -160c-96 0 -157 53 -162 160z" />
    <glyph glyph-name="afii10028" unicode="&#x41a;" horiz-adv-x="815" 
d="M815 0h-233l-268 361l255 298l-62 17c-3 14 -3 29 0 44h265c3 -15 3 -29 0 -44l-107 -26l-192 -223l266 -358l76 -25c3 -14 3 -29 0 -44zM393 676l-88 -25v-582l88 -25c3 -14 3 -29 0 -44h-349c-3 15 -3 29 0 44l87 25v582l-87 25c-3 15 -3 29 0 44h349
c3 -15 3 -29 0 -44z" />
    <glyph glyph-name="afii10029" unicode="&#x41b;" horiz-adv-x="788" 
d="M12 -10l-5 5v210c11 2 22 3 32 3c11 0 21 -1 32 -3l30 -87c53 48 92 137 109 249c9 56 15 104 18 144c4 41 7 87 9 140l-88 25c-3 15 -3 29 0 44h600c3 -15 3 -29 0 -44l-88 -25v-582l88 -25c3 -14 3 -29 0 -44h-349c-3 15 -3 30 0 44l87 25v571h-171
c-15 -403 -105 -619 -304 -650z" />
    <glyph glyph-name="afii10030" unicode="&#x41c;" horiz-adv-x="1073" 
d="M534 227h4l205 493h268c3 -15 3 -29 0 -44l-88 -25l24 -582l88 -25c3 -14 3 -29 0 -44h-348c-3 15 -3 29 0 44l88 25l-21 459h-4l-218 -528h-99l-194 529h-4l-43 -460l89 -25c3 -15 3 -29 0 -44h-249c-3 15 -3 29 0 44l80 26l53 581l-87 25c-3 15 -3 29 0 44h275z" />
    <glyph glyph-name="afii10031" unicode="&#x41d;" horiz-adv-x="870" 
d="M573 338h-268v-269l81 -25c3 -13 3 -28 0 -44h-342c-3 15 -3 29 0 44l87 25v582l-87 25c-3 15 -3 29 0 44h342c3 -15 3 -29 0 -44l-81 -25v-233h268v233l-81 25c-3 15 -3 29 0 44h342c3 -15 3 -29 0 -44l-87 -25v-582l87 -25c3 -13 3 -28 0 -44h-342c-3 15 -3 29 0 44
l81 25v269z" />
    <glyph glyph-name="afii10032" unicode="&#x41e;" horiz-adv-x="794" 
d="M45 360c0 243 121 370 352 370c228 0 351 -127 351 -370c0 -239 -123 -370 -351 -370c-231 0 -352 130 -352 370zM397 650c-116 0 -174 -97 -174 -290s58 -290 174 -290c119 0 173 110 173 290s-54 290 -173 290z" />
    <glyph glyph-name="afii10033" unicode="&#x41f;" horiz-adv-x="860" 
d="M131 69v582l-87 25c-3 15 -3 29 0 44h780c3 -15 3 -29 0 -44l-87 -25v-582l87 -25c3 -14 3 -29 0 -44h-342c-3 15 -3 29 0 44l81 25v571h-258v-571l81 -25c3 -15 3 -29 0 -44h-342c-3 15 -3 29 0 44z" />
    <glyph glyph-name="afii10034" unicode="&#x420;" horiz-adv-x="684" 
d="M479 485c0 103 -55 155 -164 155h-10v-305h14c107 0 160 57 160 150zM312 255h-7v-186l88 -25c3 -14 3 -29 0 -44h-349c-3 15 -3 29 0 44l87 25v582l-87 25c-3 15 -3 29 0 44h272c224 0 336 -74 336 -221c0 -148 -120 -244 -340 -244z" />
    <glyph glyph-name="afii10035" unicode="&#x421;" horiz-adv-x="715" 
d="M554 88l49 137c23 4 41 4 64 0v-167c-75 -45 -161 -68 -259 -68c-108 0 -196 32 -263 95s-100 155 -100 274c0 79 18 148 54 205c73 115 193 166 340 166c85 0 159 -19 223 -58v-159c-21 -4 -43 -4 -64 0l-46 119c-29 13 -59 20 -90 20c-83 0 -144 -27 -182 -80
s-57 -123 -57 -212c0 -181 78 -288 229 -288c32 0 66 5 102 16z" />
    <glyph glyph-name="afii10036" unicode="&#x422;" horiz-adv-x="677" 
d="M603 525l-45 115h-132v-571l87 -25c3 -14 3 -29 0 -44h-349c-3 15 -3 29 0 44l88 25v571h-133l-44 -115c-11 -2 -22 -3 -33 -3s-21 1 -32 3v195h657v-195c-11 -2 -22 -3 -32 -3c-11 0 -22 1 -32 3z" />
    <glyph glyph-name="afii10037" unicode="&#x423;" horiz-adv-x="734" 
d="M112 -7v173c23 4 41 4 64 0l33 -86c58 0 106 28 143 85l-256 485l-79 26c-3 15 -3 30 0 44h355c3 -15 3 -29 0 -44l-80 -25l151 -289h4l125 288l-78 26c-3 15 -3 29 0 44h244c3 -15 3 -29 0 -44l-80 -25l-166 -387c-44 -103 -91 -175 -140 -214s-116 -59 -199 -59
c-13 0 -26 1 -41 2z" />
    <glyph glyph-name="afii10038" unicode="&#x424;" horiz-adv-x="877" 
d="M215 361c0 -113 37 -175 136 -190v380c-99 -15 -136 -78 -136 -190zM662 361c0 112 -40 175 -137 190v-381c97 15 137 78 137 191zM351 614v37l-87 25c-3 15 -3 29 0 44h349c3 -15 3 -29 0 -44l-88 -25v-37c216 -16 315 -98 315 -253c0 -153 -99 -237 -315 -254v-38
l88 -25c3 -14 3 -29 0 -44h-349c-3 15 -3 29 0 44l87 25v39c-209 17 -314 101 -314 253s105 236 314 253z" />
    <glyph glyph-name="afii10039" unicode="&#x425;" horiz-adv-x="770" 
d="M478 69l-133 212l-152 -211l90 -26c3 -14 3 -29 0 -44h-268c-3 15 -3 29 0 44l81 26l203 284l-184 296l-80 26c-3 16 -3 31 0 44h362c3 -15 3 -29 0 -44l-78 -25l117 -187l136 187l-76 25c-3 15 -3 29 0 44h252c3 -15 3 -29 0 -44l-80 -27l-186 -258l201 -321l80 -26
c3 -15 3 -29 0 -44h-374c-3 15 -3 29 0 44z" />
    <glyph glyph-name="afii10040" unicode="&#x426;" horiz-adv-x="860" 
d="M747 -150l-49 150h-654c-3 15 -3 29 0 44l87 25v582l-87 25c-3 15 -3 29 0 44h342c3 -15 3 -29 0 -44l-81 -25v-571h258v571l-81 25c-3 15 -3 29 0 44h342c3 -15 3 -29 0 -44l-87 -25v-573h87v-228c-11 -3 -24 -4 -39 -4c-14 0 -27 1 -38 4z" />
    <glyph glyph-name="afii10041" unicode="&#x427;" horiz-adv-x="799" 
d="M92 476v175l-88 25c-3 15 -3 29 0 44h339c3 -15 3 -29 0 -44l-78 -25v-138c0 -128 42 -174 154 -174c24 0 52 3 83 10v302l-78 25c-3 15 -3 29 0 44h339c3 -15 3 -29 0 -44l-88 -25v-582l88 -25c3 -14 3 -29 0 -44h-349c-3 15 -3 29 0 44l88 25v207
c-36 -9 -80 -14 -133 -14c-185 0 -277 71 -277 214z" />
    <glyph glyph-name="afii10042" unicode="&#x428;" horiz-adv-x="1151" 
d="M1116 0h-1071c-3 15 -3 30 0 44l87 25v582l-87 25c-3 15 -3 29 0 44h326c3 -15 3 -29 0 -44l-65 -25v-571h187v571l-65 25c-3 15 -3 29 0 44h303c3 -15 3 -29 0 -44l-64 -25v-571h187v571l-64 25c-3 15 -3 29 0 44h326c3 -15 3 -29 0 -44l-88 -25v-582l88 -25
c3 -14 3 -29 0 -44z" />
    <glyph glyph-name="afii10043" unicode="&#x429;" horiz-adv-x="1151" 
d="M1037 -150l-49 150h-944c-3 15 -3 29 0 44l87 25v582l-87 25c-3 15 -3 29 0 44h326c3 -15 3 -29 0 -44l-65 -25v-571h187v571l-65 25c-3 15 -3 29 0 44h303c3 -15 3 -29 0 -44l-64 -25v-571h187v571l-64 25c-3 15 -3 29 0 44h326c3 -15 3 -29 0 -44l-88 -25v-573h88v-228
c-11 -3 -24 -4 -39 -4s-28 1 -39 4z" />
    <glyph glyph-name="afii10044" unicode="&#x42a;" horiz-adv-x="752" 
d="M219 69v574h-104l-45 -118c-21 -4 -43 -4 -64 0v195h474c3 -15 3 -29 0 -44l-88 -25v-223h4c33 0 61 -1 84 -2c45 -3 109 -9 145 -28c56 -27 103 -78 99 -174c0 -75 -26 -131 -65 -163c-19 -15 -42 -28 -71 -38c-57 -19 -109 -23 -178 -23h-279c-3 15 -3 29 0 44z
M392 348v-268c105 0 151 34 151 134s-46 134 -151 134z" />
    <glyph glyph-name="afii10045" unicode="&#x42b;" horiz-adv-x="1018" 
d="M132 69v582l-87 25c-3 15 -3 29 0 44h349c3 -15 3 -29 0 -44l-88 -25v-223h4c33 0 61 -1 84 -2c45 -3 109 -9 145 -28c56 -27 103 -78 99 -174c0 -75 -26 -131 -65 -163c-19 -15 -42 -28 -71 -38c-57 -19 -109 -23 -178 -23h-279c-3 15 -3 30 0 44zM722 69v582l-88 25
c-3 15 -3 29 0 44h349c3 -15 3 -29 0 -44l-87 -25v-582l87 -25c3 -15 3 -29 0 -44h-349c-3 15 -3 30 0 44zM306 348v-268c105 0 151 34 151 134s-46 134 -151 134z" />
    <glyph glyph-name="afii10046" unicode="&#x42c;" horiz-adv-x="661" 
d="M131 69v582l-87 25c-3 15 -3 29 0 44h349c3 -15 3 -29 0 -44l-88 -25v-223h4c33 0 61 -1 84 -2c45 -3 109 -9 145 -28c56 -27 103 -78 99 -174c0 -75 -26 -131 -65 -163c-19 -16 -44 -29 -73 -38c-57 -19 -109 -23 -181 -23h-274c-3 15 -3 29 0 44zM305 348v-268
c105 0 151 34 151 134s-46 134 -151 134z" />
    <glyph glyph-name="afii10047" unicode="&#x42d;" horiz-adv-x="718" 
d="M112 218l49 -137c23 -7 49 -11 80 -11c164 0 253 98 254 273l-342 -8c-2 15 -3 29 -3 44c0 14 1 28 3 43l340 -9c-8 147 -84 238 -219 238c-40 0 -77 -8 -112 -25l-46 -122c-11 -2 -22 -3 -32 -3c-11 0 -21 1 -32 3v159c67 45 148 67 241 67c237 0 380 -129 380 -370
c0 -115 -35 -205 -106 -271c-70 -66 -159 -99 -267 -99c-96 0 -180 21 -252 62v166c21 4 43 4 64 0z" />
    <glyph glyph-name="afii10048" unicode="&#x42e;" horiz-adv-x="1154" 
d="M778 70c105 0 157 97 157 290s-52 290 -157 290s-157 -97 -157 -290s52 -290 157 -290zM44 44l87 25v582l-87 25c-3 15 -3 29 0 44h349c3 -15 3 -29 0 -44l-88 -25v-233h141c15 205 129 312 332 312c217 0 335 -129 335 -370c0 -239 -119 -370 -335 -370
c-213 0 -327 122 -335 350h-138v-271l88 -25c3 -15 3 -29 0 -44h-349c-3 15 -3 29 0 44z" />
    <glyph glyph-name="afii10049" unicode="&#x42f;" horiz-adv-x="770" 
d="M398 44l75 25v218c-17 0 -25 -8 -60 -55l-169 -232h-238c-3 15 -3 29 0 44l78 25l128 177c29 40 62 62 101 65v4c-136 8 -200 85 -200 186c0 146 116 219 348 219h273c3 -15 3 -29 0 -44l-88 -25v-582l88 -25c3 -15 3 -29 0 -44h-336c-3 15 -3 29 0 44zM453 362h20v278
h-16c-112 0 -166 -40 -166 -137s53 -141 162 -141z" />
    <glyph glyph-name="afii10065" unicode="&#x430;" horiz-adv-x="634" 
d="M541 359v-293h70c3 -17 3 -34 0 -51l-163 -25c-48 -7 -76 20 -76 73h-4c-39 -49 -92 -73 -159 -73c-97 0 -164 53 -164 156c-3 80 50 127 107 149c19 9 43 15 70 19c56 8 90 11 149 12v45c0 62 -38 93 -115 93c-24 0 -52 -3 -85 -9l-31 -94c-11 -2 -22 -3 -31 -3
c-10 0 -20 1 -30 3v134c85 30 162 45 231 45s125 -14 167 -43c43 -28 64 -74 64 -138zM371 133v130h-18c-76 0 -137 -33 -137 -109c0 -49 24 -71 56 -71c33 0 78 22 99 50z" />
    <glyph glyph-name="afii10066" unicode="&#x431;" horiz-adv-x="626" 
d="M420 246c0 125 -39 181 -98 181c-66 0 -99 -60 -99 -181c0 -122 33 -183 99 -183c65 0 98 61 98 183zM591 246c0 -161 -97 -256 -269 -256c-105 0 -179 34 -219 97c-39 63 -54 135 -54 235c0 101 15 186 44 253c27 60 65 98 124 117c30 10 58 17 83 20c26 4 60 7 102 10
l86 5l11 34c13 3 27 3 42 0v-160l-9 -8l-130 -2c-36 -1 -65 -2 -86 -4c-21 -1 -43 -5 -68 -12c-68 -19 -100 -62 -125 -164l4 -2c53 59 123 89 208 89c77 0 138 -22 185 -67c47 -44 71 -106 71 -185z" />
    <glyph glyph-name="afii10067" unicode="&#x432;" horiz-adv-x="626" 
d="M319 457h-33v-147h40c47 0 70 25 70 74c0 57 -28 73 -77 73zM328 241h-42v-168h50c59 0 88 28 88 84s-32 84 -96 84zM47 42l69 20v407l-69 19c-3 15 -3 29 0 42h289c154 0 231 -44 231 -132c0 -59 -41 -105 -112 -117v-4c95 -7 140 -56 140 -119
c0 -109 -103 -158 -263 -158h-285c-3 13 -3 27 0 42z" />
    <glyph glyph-name="afii10068" unicode="&#x433;" horiz-adv-x="528" 
d="M461 361l-30 93h-145v-392l70 -20c3 -14 3 -28 0 -42h-309c-3 16 -3 30 0 42l69 20v406l-69 20c-3 15 -3 29 0 42h475v-169c-10 -2 -20 -3 -30 -3c-11 0 -21 1 -31 3z" />
    <glyph glyph-name="afii10069" unicode="&#x434;" horiz-adv-x="653" 
d="M175 76h197v378h-120c-2 -43 -4 -76 -6 -99s-6 -55 -11 -96c-11 -81 -31 -142 -60 -183zM541 468v-392h70v-196c-11 -2 -23 -3 -36 -3c-11 0 -23 1 -34 3l-53 120h-358l-53 -120c-12 -2 -24 -3 -36 -3c-13 0 -24 1 -34 3v196h66c43 8 71 89 84 160c5 23 9 51 12 84
c3 34 6 60 7 77c1 18 3 42 4 71l-70 20c-3 14 -3 28 0 42h502c3 -13 3 -27 0 -42z" />
    <glyph glyph-name="afii10070" unicode="&#x435;" horiz-adv-x="598" 
d="M548 262h-340c0 -132 50 -198 159 -198c28 0 55 3 82 10l31 101c19 4 39 4 60 0v-130c-63 -37 -137 -55 -220 -55c-172 0 -284 92 -284 275c0 172 103 275 276 275c77 0 137 -21 178 -63s62 -96 62 -162c0 -15 -1 -32 -4 -53zM309 468c-57 0 -89 -57 -97 -142l170 10
c0 85 -28 132 -73 132z" />
    <glyph glyph-name="afii10072" unicode="&#x436;" horiz-adv-x="1037" 
d="M1042 0h-230l-195 271v3l196 196l-67 18c-3 15 -3 29 0 42h271c3 -13 3 -27 0 -42l-106 -24l-131 -131l194 -269l68 -22c3 -15 3 -29 0 -42zM430 271l-195 -271h-230c-3 13 -3 27 0 42l68 22l194 269l-130 131l-107 24c-3 15 -3 29 0 42h271c3 -13 3 -27 0 -42l-67 -18
l196 -196v-3zM383 42l56 20v406l-59 20c-3 13 -3 27 0 42h288c3 -13 3 -27 0 -42l-60 -20v-406l57 -20c3 -12 3 -26 0 -42h-282c-3 13 -3 27 0 42z" />
    <glyph glyph-name="afii10073" unicode="&#x437;" horiz-adv-x="543" 
d="M97 172l29 -95c35 -8 66 -12 93 -12c77 0 116 32 116 95c0 36 -15 61 -39 70c-23 9 -37 11 -53 11h-86c-4 21 -4 46 0 70h65c66 0 99 27 99 81c0 48 -32 72 -95 72c-33 0 -64 -5 -92 -14l-29 -85c-11 -2 -22 -3 -31 -3c-10 0 -20 1 -30 3v126c83 33 157 49 224 49
c53 0 99 -7 147 -27c48 -19 78 -58 78 -113c0 -63 -43 -106 -108 -118v-4c81 -16 122 -57 122 -123c0 -56 -24 -98 -72 -125s-108 -40 -181 -40c-42 0 -79 4 -111 11c-31 7 -67 20 -107 38v133c10 2 20 3 31 3c10 0 20 -1 30 -3z" />
    <glyph glyph-name="afii10074" unicode="&#x438;" horiz-adv-x="740" 
d="M286 233l4 1l174 180v54l-56 20c-3 13 -3 27 0 42h295c3 -13 3 -27 0 -42l-70 -20v-406l70 -20c3 -12 3 -26 0 -42h-295c-3 14 -3 28 0 42l56 20v239h-4l-174 -180v-59l55 -20c3 -14 3 -28 0 -42h-294c-3 16 -3 30 0 42l69 20v406l-69 20c-3 15 -3 29 0 42h294
c3 -15 3 -29 0 -42l-55 -20v-235z" />
    <glyph glyph-name="afii10075" unicode="&#x439;" horiz-adv-x="740" 
d="M286 233l4 1l174 180v54l-56 20c-3 13 -3 27 0 42h295c3 -13 3 -27 0 -42l-70 -20v-406l70 -20c3 -12 3 -26 0 -42h-295c-3 14 -3 28 0 42l56 20v239h-4l-174 -180v-59l55 -20c3 -14 3 -28 0 -42h-294c-3 16 -3 30 0 42l69 20v406l-69 20c-3 15 -3 29 0 42h294
c3 -15 3 -29 0 -42l-55 -20v-235zM225 751c13 2 26 3 40 3c13 0 26 -1 40 -3c5 -59 29 -88 70 -88s65 29 70 88c13 2 27 3 40 3s26 -1 40 -3c-1 -93 -65 -156 -150 -156s-149 63 -150 156z" />
    <glyph glyph-name="afii10076" unicode="&#x43a;" horiz-adv-x="712" 
d="M47 42l69 20v406l-69 20c-3 15 -3 29 0 42h294c3 -15 3 -29 0 -42l-55 -20v-406l55 -20c3 -15 3 -29 0 -42h-294c-3 16 -3 30 0 42zM717 0h-228l-194 270v4l195 195l-69 19c-3 15 -3 29 0 42h272c3 -13 3 -27 0 -42l-108 -24l-128 -131l192 -269l68 -22
c3 -15 3 -29 0 -42z" />
    <glyph glyph-name="afii10077" unicode="&#x43b;" horiz-adv-x="670" 
d="M197 468l-70 20c-3 13 -3 27 0 42h502c3 -13 3 -27 0 -42l-70 -20v-406l69 -20c3 -13 3 -27 0 -42h-309c-3 14 -3 28 0 42l70 20v392h-117c-7 -123 -15 -202 -39 -281c-34 -115 -97 -169 -218 -183l-9 6v151c10 2 20 3 31 3c10 0 20 -1 30 -3l17 -66c45 20 77 78 92 167
c7 45 12 81 14 110c3 29 5 66 7 110z" />
    <glyph glyph-name="afii10078" unicode="&#x43c;" horiz-adv-x="880" 
d="M843 488l-69 -20v-406l69 -20c3 -13 3 -27 0 -42h-309c-3 13 -3 27 0 42l70 20v332h-4l-173 -394h-90l-121 392h-4l-36 -329l76 -21c3 -15 3 -29 0 -42h-225c-3 13 -3 27 0 42l74 21l42 405l-70 20c-3 13 -3 27 0 42h277l92 -301h4l132 301h265c3 -13 3 -27 0 -42z" />
    <glyph glyph-name="afii10079" unicode="&#x43d;" horiz-adv-x="735" 
d="M459 62v181h-173v-181l55 -20c3 -14 3 -28 0 -42h-294c-3 16 -3 30 0 42l69 20v406l-69 20c-3 15 -3 29 0 42h294c3 -15 3 -29 0 -42l-55 -20v-149h173v149l-56 20c-3 13 -3 27 0 42h295c3 -13 3 -27 0 -42l-70 -20v-406l70 -20c3 -13 3 -27 0 -42h-295c-3 13 -3 27 0 42
z" />
    <glyph glyph-name="afii10080" unicode="&#x43e;" horiz-adv-x="621" 
d="M311 63c69 0 103 67 103 202s-34 202 -103 202s-103 -67 -103 -202s34 -202 103 -202zM311 -10c-179 0 -275 99 -275 275c0 175 96 275 275 275c177 0 275 -100 275 -275s-98 -275 -275 -275z" />
    <glyph glyph-name="afii10081" unicode="&#x43f;" horiz-adv-x="730" 
d="M454 62v392h-168v-392l55 -20c3 -14 3 -28 0 -42h-294c-3 14 -3 28 0 42l69 20v406l-69 20c-3 15 -3 29 0 42h646c3 -14 3 -28 0 -42l-70 -20v-406l70 -20c3 -14 3 -28 0 -42h-295c-3 13 -3 27 0 42z" />
    <glyph glyph-name="afii10082" unicode="&#x440;" horiz-adv-x="657" 
d="M284 397v-339c8 -1 17 -2 28 -2c55 0 95 30 115 77s28 93 28 144c0 33 -3 64 -14 103c-9 40 -35 66 -70 66c-31 0 -60 -16 -87 -49zM45 -158l69 20v597h-69c-3 17 -3 34 0 51l159 25c60 9 80 -10 80 -67h4c33 45 90 72 146 72c133 -1 196 -121 193 -246
c0 -84 -26 -156 -78 -215c-51 -59 -121 -89 -209 -89c-15 0 -33 1 -56 2v-130l70 -20c3 -13 3 -27 0 -42h-309c-3 15 -3 29 0 42z" />
    <glyph glyph-name="afii10083" unicode="&#x441;" horiz-adv-x="551" 
d="M512 180v-135c-53 -37 -118 -55 -197 -55c-176 0 -279 97 -279 274c0 88 26 156 78 204s121 72 206 72c69 0 132 -16 187 -47v-130c-10 -2 -20 -3 -31 -3c-10 0 -20 1 -30 3l-32 98c-18 3 -35 5 -50 5c-104 0 -156 -66 -156 -198c0 -135 52 -202 156 -202c19 0 37 2 56 6
l31 108c17 4 40 4 61 0z" />
    <glyph glyph-name="afii10084" unicode="&#x442;" horiz-adv-x="553" 
d="M481 361l-30 93h-89v-392l69 -20c3 -14 3 -28 0 -42h-309c-3 16 -3 30 0 42l70 20v392h-89l-31 -93c-10 -2 -20 -3 -31 -3c-10 0 -20 1 -30 3v169h531v-169c-10 -2 -20 -3 -30 -3c-11 0 -21 1 -31 3z" />
    <glyph glyph-name="afii10085" unicode="&#x443;" horiz-adv-x="637" 
d="M56 -190v146c10 2 20 3 31 3c10 0 20 -1 30 -3l20 -63c64 -9 117 22 158 93l-229 482l-58 20c-4 15 -4 29 0 42h303c3 -13 3 -27 0 -42l-59 -20l127 -269h4l110 269l-79 20c-3 15 -3 29 0 42h231c3 -13 3 -27 0 -42l-71 -21l-152 -376c-11 -29 -20 -51 -27 -66l-28 -58
c-12 -25 -23 -43 -33 -56c-19 -27 -52 -65 -84 -81c-32 -17 -76 -31 -127 -31c-23 0 -45 4 -67 11z" />
    <glyph glyph-name="afii10086" unicode="&#x444;" horiz-adv-x="872" 
d="M352 136v338c-98 -1 -147 -75 -147 -222c0 -112 24 -168 73 -168c27 0 59 23 74 52zM521 398v-340c4 -1 11 -2 20 -2c49 0 86 33 102 81c17 49 23 93 23 141c0 111 -24 167 -71 167c-23 0 -48 -16 -74 -47zM521 -8v-130l70 -20c3 -13 3 -27 0 -42h-309c-3 14 -3 28 0 42
l70 20v202l-4 -1c-27 -49 -71 -73 -132 -73c-41 0 -75 13 -104 40c-56 53 -76 128 -76 209c0 188 107 301 284 301c15 0 25 0 32 -1v140h-70c-3 17 -3 34 0 51l165 26c49 8 74 -15 74 -69v-219h4c35 48 78 72 129 72c63 0 110 -23 139 -70s44 -105 44 -176
c0 -88 -25 -161 -75 -219c-49 -57 -115 -86 -198 -86c-16 0 -30 1 -43 3z" />
    <glyph glyph-name="afii10087" unicode="&#x445;" horiz-adv-x="618" 
d="M90 62l139 183l-156 227l-48 16c-4 15 -4 29 0 42h306c3 -13 3 -27 0 -42l-53 -16l78 -114l88 115l-54 15c-3 15 -3 29 0 42h212c3 -13 3 -27 0 -42l-65 -17l-137 -178l159 -230l61 -21c3 -13 3 -27 0 -42h-325c-3 13 -3 27 0 42l60 18l-82 120l-90 -117l54 -21
c3 -15 3 -29 0 -42h-230c-3 13 -3 27 0 42z" />
    <glyph glyph-name="afii10088" unicode="&#x446;" horiz-adv-x="730" 
d="M286 468v-392h168v392l-56 20c-3 13 -3 27 0 42h295c3 -13 3 -27 0 -42l-70 -20v-392h70v-196c-11 -3 -22 -4 -35 -4s-25 1 -35 4l-53 120h-523c-3 13 -3 27 0 42l69 20v406l-69 20c-3 15 -3 29 0 42h294c3 -15 3 -29 0 -42z" />
    <glyph glyph-name="afii10089" unicode="&#x447;" horiz-adv-x="689" 
d="M413 256v212l-54 20c-3 13 -3 27 0 42h294c3 -13 3 -27 0 -42l-70 -20v-406l70 -20c3 -13 3 -27 0 -42h-310c-3 14 -3 28 0 42l70 20v129c-34 -14 -76 -21 -126 -21c-135 0 -206 52 -206 196v102l-70 20c-3 15 -3 29 0 42h291c3 -13 3 -27 0 -42l-51 -20v-60
c0 -41 0 -62 7 -94c9 -42 33 -69 83 -69c23 0 47 4 72 11z" />
    <glyph glyph-name="afii10090" unicode="&#x448;" horiz-adv-x="1022" 
d="M286 468v-392h145v392l-45 20c-3 13 -3 27 0 42h259c3 -13 3 -27 0 -42l-44 -20v-392h145v392l-45 20c-3 13 -3 27 0 42h284c3 -13 3 -27 0 -42l-70 -20v-406l70 -20c3 -12 3 -26 0 -42h-938c-3 14 -3 28 0 42l69 20v406l-69 20c-3 13 -3 27 0 42h284c3 -15 3 -29 0 -42z
" />
    <glyph glyph-name="afii10091" unicode="&#x449;" horiz-adv-x="1022" 
d="M286 468v-392h145v392l-45 20c-3 13 -3 27 0 42h259c3 -14 3 -28 0 -42l-44 -20v-392h145v392l-45 20c-3 13 -3 27 0 42h284c3 -13 3 -27 0 -42l-70 -20v-392h70v-196c-11 -2 -22 -3 -35 -3s-25 1 -35 3l-53 120h-815c-3 16 -3 30 0 42l69 20v406l-69 20
c-3 15 -3 29 0 42h284c3 -15 3 -29 0 -42z" />
    <glyph glyph-name="afii10092" unicode="&#x44a;" horiz-adv-x="698" 
d="M505 164c0 37 -10 61 -30 74s-58 20 -113 20v-187c55 0 93 6 113 19s30 38 30 74zM123 42l70 20v392h-90l-31 -93c-10 -2 -20 -3 -30 -3c-11 0 -21 1 -31 3v169h421c3 -14 3 -28 0 -42l-70 -20v-139h38c225 0 274 -66 274 -155c0 -116 -89 -174 -268 -174h-283
c-3 14 -3 28 0 42z" />
    <glyph glyph-name="afii10093" unicode="&#x44b;" horiz-adv-x="957" 
d="M429 164c0 37 -10 61 -30 74s-58 20 -113 20v-187c55 0 93 6 113 19s30 38 30 74zM47 42l69 20v406l-69 20c-3 13 -3 27 0 42h309c3 -13 3 -27 0 -42l-70 -20v-139h38c225 0 274 -68 274 -155c0 -108 -58 -174 -336 -174h-215c-3 14 -3 28 0 42zM610 42l70 20v406l-70 20
c-3 15 -3 29 0 42h310c3 -15 3 -29 0 -42l-70 -20v-406l70 -20c3 -14 3 -28 0 -42h-310c-3 14 -3 28 0 42z" />
    <glyph glyph-name="afii10094" unicode="&#x44c;" horiz-adv-x="617" 
d="M429 164c0 37 -10 61 -30 74s-58 20 -113 20v-187c55 0 93 6 113 19s30 38 30 74zM47 42l69 20v406l-69 20c-3 13 -3 27 0 42h309c3 -13 3 -27 0 -42l-70 -20v-139h38c225 0 274 -68 274 -155c0 -108 -58 -174 -336 -174h-215c-3 14 -3 28 0 42z" />
    <glyph glyph-name="afii10095" unicode="&#x44d;" horiz-adv-x="561" 
d="M39 32v130c10 2 20 3 31 3c10 0 20 -1 30 -3l28 -92c13 -3 28 -4 45 -4c111 0 173 61 180 174l-227 -8c-2 12 -3 25 -3 40c0 13 1 27 3 42l226 -8c-6 107 -61 160 -165 160c-18 0 -35 -1 -51 -4l-32 -91c-20 -4 -40 -4 -60 0v124c64 30 132 45 203 45
c85 0 153 -23 203 -70s75 -111 75 -194c0 -88 -28 -158 -83 -209s-127 -77 -216 -77c-69 0 -131 14 -187 42z" />
    <glyph glyph-name="afii10096" unicode="&#x44e;" horiz-adv-x="954" 
d="M752 265c0 139 -37 202 -94 202c-56 0 -93 -63 -93 -202s37 -202 93 -202c63 0 94 67 94 202zM393 237h-107v-175l70 -20c3 -14 3 -28 0 -42h-309c-3 16 -3 30 0 42l69 20v406l-69 20c-3 15 -3 29 0 42h309c3 -15 3 -29 0 -42l-70 -20v-157h109c15 147 108 229 263 229
c171 0 265 -100 265 -275s-94 -275 -265 -275c-161 0 -254 88 -265 247z" />
    <glyph glyph-name="afii10097" unicode="&#x44f;" horiz-adv-x="670" 
d="M362 174l-143 -174h-204c-3 14 -3 28 0 42l58 22l92 111c20 24 47 40 81 49v4c-107 10 -161 56 -161 138c0 77 43 115 102 138c19 8 43 14 70 17c56 7 97 9 162 9h214c3 -14 3 -28 0 -42l-70 -20v-406l70 -20c3 -13 3 -27 0 -42h-295c-3 14 -3 28 0 42l56 20v146
c-5 0 -11 -6 -32 -34zM394 273v184h-10c-84 0 -127 -24 -127 -91c0 -64 33 -93 110 -93h27z" />
    <glyph glyph-name="afii10071" unicode="&#x451;" horiz-adv-x="598" 
d="M548 262h-340c0 -132 50 -198 159 -198c28 0 55 3 82 10l31 101c19 4 39 4 60 0v-130c-63 -37 -137 -55 -220 -55c-172 0 -284 92 -284 275c0 172 103 275 276 275c77 0 137 -21 178 -63s62 -96 62 -162c0 -15 -1 -32 -4 -53zM309 468c-57 0 -89 -57 -97 -142l170 10
c0 85 -28 132 -73 132zM241 623c-23 -3 -45 -5 -65 -5c-21 0 -42 2 -64 5c-4 21 -6 42 -6 65c0 21 2 43 6 65c22 3 43 5 64 5c20 0 42 -2 65 -5c3 -25 5 -46 5 -65c0 -20 -2 -42 -5 -65zM483 623c-23 -3 -45 -5 -65 -5c-21 0 -42 2 -64 5c-4 21 -6 42 -6 65c0 21 2 43 6 65
c22 3 43 5 64 5c20 0 42 -2 65 -5c3 -25 5 -46 5 -65c0 -20 -2 -42 -5 -65z" />
    <glyph glyph-name="afii10099" unicode="&#x452;" horiz-adv-x="665" 
d="M278 369v-307l56 -20c3 -13 3 -27 0 -42h-295c-3 13 -3 27 0 42l70 20v513h-70c-3 12 -3 24 0 35l70 24v45h-70c-3 17 -3 34 0 51l165 26c49 7 74 -16 74 -69v-53h128c1 -9 2 -19 2 -30c0 -10 -1 -20 -2 -29h-128v-137h4c32 47 83 74 138 74c77 0 134 -38 162 -101
c28 -61 39 -126 39 -202c1 -187 -76 -398 -339 -414c-7 14 -12 30 -14 49c121 26 181 139 181 340c0 157 -29 235 -87 235c-28 0 -56 -17 -84 -50z" />
    <glyph glyph-name="afii10100" unicode="&#x453;" horiz-adv-x="528" 
d="M461 361l-30 93h-145v-392l70 -20c3 -14 3 -28 0 -42h-309c-3 16 -3 30 0 42l69 20v406l-69 20c-3 15 -3 29 0 42h475v-169c-10 -2 -20 -3 -30 -3c-11 0 -21 1 -31 3zM240 624l114 168c31 -18 56 -39 77 -63l-142 -146c-18 9 -34 22 -49 41z" />
    <glyph glyph-name="afii10101" unicode="&#x454;" horiz-adv-x="561" 
d="M522 174v-129c-64 -37 -131 -55 -202 -55c-181 0 -284 93 -284 274c0 177 111 276 288 276c65 0 129 -16 193 -47v-123c-10 -2 -20 -3 -31 -3c-10 0 -20 1 -30 3l-31 91c-13 3 -29 4 -46 4c-107 0 -164 -53 -170 -159l226 8c4 -28 4 -54 0 -82l-227 8
c3 -117 56 -172 172 -172c20 0 37 2 50 5l31 101c17 4 40 4 61 0z" />
    <glyph glyph-name="afii10102" unicode="&#x455;" horiz-adv-x="539" 
d="M114 173l32 -100c23 -6 49 -9 79 -9c69 0 123 20 123 68c0 33 -47 52 -104 65c-57 15 -120 30 -161 81c-20 25 -30 58 -30 97s13 72 38 98c52 52 119 67 194 67c67 0 131 -14 190 -43v-124c-10 -2 -20 -3 -31 -3c-10 0 -20 1 -30 3l-29 87c-21 4 -45 6 -71 6
c-73 0 -109 -20 -109 -59c0 -98 297 -39 297 -233c0 -60 -25 -106 -76 -137s-111 -47 -181 -47c-77 0 -141 16 -192 48v135c11 2 21 3 32 3c9 0 19 -1 29 -3z" />
    <glyph glyph-name="afii10103" unicode="&#x456;" horiz-adv-x="381" 
d="M47 42l69 20v397h-69c-3 17 -3 34 0 51l159 25c56 9 80 -8 80 -68v-405l70 -20c3 -13 3 -27 0 -42h-309c-3 15 -3 29 0 42zM118 774c32 3 56 4 73 4s41 -1 73 -4c4 -25 6 -49 6 -73c0 -25 -2 -49 -6 -73c-28 -3 -52 -5 -73 -5c-24 0 -48 2 -73 5c-4 24 -6 48 -6 73
c0 23 2 48 6 73z" />
    <glyph glyph-name="afii10104" unicode="&#x457;" horiz-adv-x="381" 
d="M42 42l69 20v397h-69c-3 17 -3 34 0 51l159 25c56 9 80 -8 80 -68v-405l70 -20c3 -13 3 -27 0 -42h-309c-3 15 -3 29 0 42zM123 623c-23 -3 -45 -5 -65 -5c-21 0 -42 2 -64 5c-4 21 -6 42 -6 65c0 21 2 43 6 65c22 3 43 5 64 5c20 0 42 -2 65 -5c3 -25 5 -46 5 -65
c0 -20 -2 -42 -5 -65zM365 623c-23 -3 -45 -5 -65 -5c-21 0 -42 2 -64 5c-4 21 -6 42 -6 65c0 21 2 43 6 65c22 3 43 5 64 5c20 0 42 -2 65 -5c3 -25 5 -46 5 -65c0 -20 -2 -42 -5 -65z" />
    <glyph glyph-name="afii10105" unicode="&#x458;" horiz-adv-x="372" 
d="M109 24v435h-69c-3 17 -3 34 0 51l160 25c56 8 79 -8 79 -68v-457c0 -124 -90 -201 -237 -213c-11 15 -18 31 -21 48c38 19 62 40 72 65c11 24 16 62 16 114zM112 774c32 3 56 4 73 4s41 -1 73 -4c4 -25 6 -49 6 -73c0 -25 -2 -49 -6 -73c-28 -3 -52 -5 -73 -5
c-24 0 -48 2 -73 5c-4 24 -6 48 -6 73c0 23 2 48 6 73z" />
    <glyph glyph-name="afii10106" unicode="&#x459;" horiz-adv-x="890" 
d="M697 166c0 36 -10 60 -30 73s-58 19 -113 19v-187c109 0 143 22 143 95zM625 488l-71 -20v-139h38c225 0 274 -67 274 -153c0 -117 -89 -176 -268 -176h-283c-3 14 -3 28 0 42l70 20v392h-113c-7 -123 -15 -202 -39 -281c-34 -115 -97 -169 -218 -183l-9 6v151
c10 2 20 3 31 3c10 0 20 -1 30 -3l17 -66c45 20 77 78 92 167c7 45 12 81 14 110c3 29 5 66 7 110l-70 20c-3 13 -3 27 0 42h498c3 -13 3 -27 0 -42z" />
    <glyph glyph-name="afii10107" unicode="&#x45a;" horiz-adv-x="954" 
d="M766 165c0 36 -10 60 -30 73s-58 20 -113 20v-187c55 0 93 6 113 19s30 38 30 75zM402 42l52 20v197h-168v-197l52 -20c3 -14 3 -28 0 -42h-291c-3 16 -3 30 0 42l69 20v406l-69 20c-3 15 -3 29 0 42h291c3 -15 3 -29 0 -42l-52 -20v-139h168v139l-52 20
c-3 13 -3 27 0 42h291c3 -13 3 -27 0 -42l-70 -20v-139h38c225 0 274 -67 274 -154c0 -117 -89 -175 -268 -175h-265c-3 15 -3 29 0 42z" />
    <glyph glyph-name="afii10108" unicode="&#x45b;" horiz-adv-x="705" 
d="M40 42l70 20v513h-70c-3 11 -3 23 0 35l70 24v45h-70c-3 17 -3 34 0 51l165 26c52 8 74 -14 74 -69v-53h128c1 -9 2 -19 2 -30c0 -10 -1 -20 -2 -29h-128v-135h4c50 49 109 73 178 73c116 0 156 -73 156 -201v-250l70 -20c3 -14 3 -28 0 -42h-295c-3 14 -3 28 0 42l55 20
v207c0 32 0 44 -5 75c-6 42 -26 64 -70 68c-31 0 -62 -14 -93 -42v-308l56 -20c3 -13 3 -27 0 -42h-295c-3 14 -3 28 0 42z" />
    <glyph glyph-name="afii10109" unicode="&#x45c;" horiz-adv-x="712" 
d="M47 42l69 20v406l-69 20c-3 15 -3 29 0 42h294c3 -15 3 -29 0 -42l-55 -20v-406l55 -20c3 -15 3 -29 0 -42h-294c-3 16 -3 30 0 42zM717 0h-228l-194 270v4l195 195l-69 19c-3 15 -3 29 0 42h272c3 -13 3 -27 0 -42l-108 -24l-128 -131l192 -269l68 -22
c3 -15 3 -29 0 -42zM337 624l114 168c31 -18 56 -39 77 -63l-142 -146c-18 9 -34 22 -49 41z" />
    <glyph glyph-name="afii10110" unicode="&#x45e;" horiz-adv-x="637" 
d="M56 -190v146c10 2 20 3 31 3c10 0 20 -1 30 -3l20 -63c64 -9 117 22 158 93l-229 482l-58 20c-4 15 -4 29 0 42h303c3 -13 3 -27 0 -42l-59 -20l127 -269h4l110 269l-79 20c-3 15 -3 29 0 42h231c3 -13 3 -27 0 -42l-71 -21l-152 -376c-11 -29 -20 -51 -27 -66l-28 -58
c-12 -25 -23 -43 -33 -56c-19 -27 -52 -65 -84 -81c-32 -17 -76 -31 -127 -31c-23 0 -45 4 -67 11zM194 751c13 2 26 3 40 3c13 0 26 -1 40 -3c5 -59 29 -88 70 -88s65 29 70 88c13 2 26 3 40 3c13 0 26 -1 40 -3c-1 -93 -65 -156 -150 -156s-149 63 -150 156z" />
    <glyph glyph-name="afii10193" unicode="&#x45f;" horiz-adv-x="730" 
d="M286 468v-392h168v392l-56 20c-3 13 -3 27 0 42h295c3 -13 3 -27 0 -42l-70 -20v-406l70 -20c3 -14 3 -28 0 -42h-264l-24 -120c-12 -2 -24 -3 -36 -3c-13 0 -24 1 -34 3l-25 120h-263c-3 16 -3 30 0 42l69 20v406l-69 20c-3 15 -3 29 0 42h294c3 -15 3 -29 0 -42z" />
    <glyph glyph-name="afii10050" unicode="&#x490;" horiz-adv-x="640" 
d="M635 649l-9 -9h-321v-571l88 -25c3 -14 3 -29 0 -44h-349c-3 15 -3 29 0 44l87 25v582l-87 25c-3 15 -3 29 0 44h482l44 115c11 2 21 3 32 3s22 -1 33 -3v-186z" />
    <glyph glyph-name="afii10098" unicode="&#x491;" horiz-adv-x="529" 
d="M47 530h387l28 92c10 2 20 3 31 3c10 0 20 -1 30 -3v-160l-7 -8h-230v-392l70 -20c3 -13 3 -27 0 -42h-309c-3 14 -3 28 0 42l69 20v406l-69 20c-3 15 -3 29 0 42z" />
    <glyph glyph-name="endash" unicode="&#x2013;" horiz-adv-x="555" 
d="M497 258h-439c-2 13 -3 26 -3 39s1 25 3 38h439c2 -13 3 -25 3 -38s-1 -26 -3 -39z" />
    <glyph glyph-name="emdash" unicode="&#x2014;" horiz-adv-x="1000" 
d="M942 258h-884c-2 13 -3 26 -3 37c0 14 1 27 3 40h884c2 -13 3 -26 3 -40c0 -11 -1 -24 -3 -37z" />
    <glyph glyph-name="quoteleft" unicode="&#x2018;" horiz-adv-x="287" 
d="M240 725c-40 -52 -64 -144 -64 -235c0 -17 1 -34 3 -51c-21 -3 -45 -4 -70 -4c-24 0 -45 1 -64 4c-1 9 -1 21 -1 37c0 129 51 225 152 287c18 -10 33 -23 44 -38z" />
    <glyph glyph-name="quoteright" unicode="&#x2019;" horiz-adv-x="287" 
d="M46 469c40 52 64 144 64 235c0 17 -1 34 -3 51c21 3 45 4 70 4c24 0 45 -1 64 -4c1 -9 1 -21 1 -37c0 -129 -51 -225 -152 -287c-18 10 -33 23 -44 38z" />
    <glyph glyph-name="quotesinglbase" unicode="&#x201a;" horiz-adv-x="287" 
d="M46 -135c40 52 64 144 64 235c0 17 -1 34 -3 51c21 3 45 4 70 4c24 0 45 -1 64 -4c1 -9 1 -21 1 -37c0 -129 -51 -225 -152 -287c-18 10 -33 23 -44 38z" />
    <glyph glyph-name="quotedblleft" unicode="&#x201c;" horiz-adv-x="502" 
d="M240 725c-40 -52 -64 -144 -64 -235c0 -17 1 -34 3 -51c-21 -3 -45 -4 -70 -4c-24 0 -45 1 -64 4c-1 9 -1 21 -1 37c0 129 51 225 152 287c18 -10 33 -23 44 -38zM455 725c-40 -52 -64 -144 -64 -235c0 -17 1 -34 3 -51c-21 -3 -45 -4 -70 -4c-24 0 -45 1 -64 4
c-1 9 -1 21 -1 37c0 129 51 225 152 287c18 -10 33 -23 44 -38z" />
    <glyph glyph-name="quotedblright" unicode="&#x201d;" horiz-adv-x="502" 
d="M46 469c40 52 64 144 64 235c0 17 -1 34 -3 51c21 3 45 4 70 4c24 0 45 -1 64 -4c1 -9 1 -21 1 -37c0 -129 -51 -225 -152 -287c-18 10 -33 23 -44 38zM261 469c40 52 64 144 64 235c0 17 -1 34 -3 51c21 3 45 4 70 4c24 0 45 -1 64 -4c1 -9 1 -21 1 -37
c0 -129 -51 -225 -152 -287c-18 10 -33 23 -44 38z" />
    <glyph glyph-name="quotedblbase" unicode="&#x201e;" horiz-adv-x="502" 
d="M46 -135c40 52 64 144 64 235c0 17 -1 34 -3 51c21 3 45 4 70 4c24 0 45 -1 64 -4c1 -9 1 -21 1 -37c0 -129 -51 -225 -152 -287c-18 10 -33 23 -44 38zM261 -135c40 52 64 144 64 235c0 17 -1 34 -3 51c21 3 45 4 70 4c24 0 45 -1 64 -4c1 -9 1 -21 1 -37
c0 -129 -51 -225 -152 -287c-18 10 -33 23 -44 38z" />
    <glyph glyph-name="dagger" unicode="&#x2020;" horiz-adv-x="538" 
d="M221 -70l14 520l-186 -13c-2 15 -3 31 -3 47c0 15 1 31 3 47l186 -13l-14 202c15 2 31 3 46 3c17 0 33 -1 50 -3l-14 -202l186 13c2 -16 3 -32 3 -47c0 -16 -1 -32 -3 -47l-186 13l14 -520c-32 -4 -64 -4 -96 0z" />
    <glyph glyph-name="daggerdbl" unicode="&#x2021;" horiz-adv-x="564" 
d="M244 201v248l-195 -13c-2 15 -3 30 -3 47c0 15 1 31 3 47l199 -13l-14 203c16 2 32 3 49 3c15 0 31 -1 47 -3l-14 -203l199 13c2 -16 3 -32 3 -47c0 -17 -1 -32 -3 -47l-195 13v-248l195 13c4 -32 4 -65 0 -94l-199 13l14 -203c-32 -4 -64 -4 -96 0l14 203l-199 -13
c-2 15 -3 30 -3 47c0 15 1 31 3 47z" />
    <glyph glyph-name="bullet" unicode="&#x2022;" horiz-adv-x="431" 
d="M216 447c97 0 157 -61 157 -158s-60 -158 -157 -158c-99 0 -158 61 -158 158s59 158 158 158z" />
    <glyph glyph-name="ellipsis" unicode="&#x2026;" horiz-adv-x="1000" 
d="M70 153c32 3 57 4 76 4c20 0 45 -1 76 -4c7 -56 7 -96 0 -153c-25 -3 -51 -5 -76 -5c-26 0 -51 2 -76 5c-3 29 -5 55 -5 79c0 21 2 46 5 74zM439 153c32 3 57 4 76 4c20 0 45 -1 76 -4c7 -56 7 -96 0 -153c-25 -3 -51 -5 -76 -5c-26 0 -51 2 -76 5c-3 29 -5 55 -5 79
c0 21 2 46 5 74zM808 153c32 3 57 4 76 4c20 0 45 -1 76 -4c7 -56 7 -96 0 -153c-25 -3 -51 -5 -76 -5c-26 0 -51 2 -76 5c-3 29 -5 55 -5 79c0 21 2 46 5 74z" />
    <glyph glyph-name="perthousand" unicode="&#x2030;" horiz-adv-x="1289" 
d="M202 -4l426 730c24 -9 45 -21 62 -37l-425 -731c-25 9 -46 22 -63 38zM210 656c-31 0 -47 -50 -47 -151s16 -151 47 -151s46 50 46 151s-15 151 -46 151zM386 505c0 -129 -64 -205 -176 -205s-177 76 -177 205c0 131 64 205 177 205c112 0 176 -74 176 -205zM689 346
c-31 0 -47 -50 -47 -151s16 -151 47 -151s46 50 46 151s-15 151 -46 151zM865 195c0 -129 -64 -205 -176 -205s-177 76 -177 205c0 131 64 205 177 205c112 0 176 -74 176 -205zM1095 346c-31 0 -47 -50 -47 -151s16 -151 47 -151s46 50 46 151s-15 151 -46 151zM1271 195
c0 -129 -64 -205 -176 -205s-177 76 -177 205c0 131 64 205 177 205c112 0 176 -74 176 -205z" />
    <glyph glyph-name="guilsinglleft" unicode="&#x2039;" horiz-adv-x="382" 
d="M48 268v4l235 228c20 -11 37 -26 50 -44l-148 -186l148 -187c-12 -20 -29 -35 -50 -44z" />
    <glyph glyph-name="guilsinglright" unicode="&#x203a;" horiz-adv-x="382" 
d="M99 500l234 -228v-4l-234 -229c-21 8 -38 23 -51 44l149 187l-149 186c15 19 32 33 51 44z" />
    <glyph glyph-name="fraction" unicode="&#x2044;" horiz-adv-x="225" 
d="M-135 0l433 730c23 -9 44 -22 63 -37l-433 -729c-22 8 -43 20 -63 36z" />
    <glyph glyph-name="zero.superior" unicode="&#x2070;" 
d="M207 873c109 0 179 -71 179 -204c0 -135 -64 -206 -179 -206c-121 0 -178 82 -178 206c0 59 15 108 46 146c31 39 75 58 132 58zM255 669c0 100 -16 150 -48 150c-31 0 -47 -50 -47 -150c0 -101 16 -152 47 -152c32 0 48 51 48 152z" />
    <glyph glyph-name="four.superior" unicode="&#x2074;" 
d="M198 518v56h-179v41l218 258h89v-249h54v-50h-54v-56l54 -12v-36h-237v36zM96 627l1 -3h101v118h-4z" />
    <glyph glyph-name="five.superior" unicode="&#x2075;" 
d="M52 496v101h44l24 -76c10 -3 22 -5 36 -5c45 0 79 28 79 77c0 52 -27 64 -88 64c-23 0 -49 -3 -78 -8l-6 7v210h287v-103h-237v-58c31 3 57 4 78 4c117 0 175 -38 175 -115c0 -31 -10 -56 -31 -77c-41 -40 -97 -54 -161 -54c-45 0 -86 11 -122 33z" />
    <glyph glyph-name="six.superior" unicode="&#x2076;" 
d="M210 513c28 0 42 30 42 90c0 55 -14 83 -42 83c-27 0 -40 -28 -40 -85c0 -59 13 -88 40 -88zM233 734c85 0 147 -50 147 -131c0 -88 -71 -140 -166 -140c-108 0 -171 65 -171 172c0 68 21 125 64 170s99 68 168 68c31 0 60 -5 85 -16l-7 -36c-17 3 -32 5 -46 5
c-71 0 -117 -34 -138 -103l3 -1c21 8 41 12 61 12z" />
    <glyph glyph-name="seven.superior" unicode="&#x2077;" 
d="M54 717v149h324v-43l-205 -371l-70 40l183 261l-2 3h-174l-13 -39h-43z" />
    <glyph glyph-name="eight.superior" unicode="&#x2078;" 
d="M34 572c0 35 22 62 66 80v4c-37 20 -55 51 -55 92s17 72 50 93s72 32 117 32c39 0 74 -8 107 -23s50 -39 50 -73c0 -39 -33 -75 -72 -87v-4c68 -35 84 -62 84 -103c0 -38 -19 -68 -56 -89s-78 -31 -123 -31c-26 0 -51 3 -75 9c-48 13 -93 49 -93 100zM212 513
c25 0 43 21 43 45c0 11 -5 21 -14 28s-23 14 -43 21s-31 12 -33 13c-6 -13 -9 -27 -9 -40c0 -36 21 -67 56 -67zM171 778c0 -10 3 -19 8 -27c11 -15 11 -15 38 -27l20 -9c8 13 12 30 12 53c0 39 -13 58 -39 58c-25 0 -39 -21 -39 -48z" />
    <glyph glyph-name="nine.superior" unicode="&#x2079;" 
d="M208 658c27 0 41 28 41 83c0 54 -14 81 -42 81s-42 -27 -42 -82s14 -82 43 -82zM39 733c0 41 16 74 47 100c32 27 73 40 123 40c105 0 167 -67 167 -168c0 -70 -24 -128 -72 -174c-47 -45 -107 -68 -179 -68c-23 0 -45 3 -68 8l5 41c80 -7 155 32 182 103l-1 3
c-17 -7 -38 -11 -63 -11c-83 0 -141 43 -141 126z" />
    <glyph glyph-name="n.superior" unicode="&#x207f;" horiz-adv-x="492" 
d="M24 341l49 9v259h-49v39l109 19c42 7 63 -8 63 -45v-12h4c25 35 70 58 110 58c79 0 119 -47 119 -140v-178l49 -9v-35h-212v35l40 9v150c0 28 -1 37 -6 56c-4 20 -19 28 -40 28c-24 0 -45 -11 -64 -34v-200l40 -9v-35h-212v35z" />
    <glyph glyph-name="zero.inferior" unicode="&#x2080;" 
d="M207 266c109 0 179 -71 179 -204c0 -135 -64 -206 -179 -206c-121 0 -178 82 -178 206c0 59 15 108 46 146c31 39 75 58 132 58zM255 62c0 100 -16 150 -48 150c-31 0 -47 -50 -47 -150c0 -101 16 -152 47 -152c32 0 48 51 48 152z" />
    <glyph glyph-name="one.inferior" unicode="&#x2081;" 
d="M81 -103l73 14v279h-93v39l147 32c52 12 74 -4 74 -67v-283l73 -14v-35h-274v35z" />
    <glyph glyph-name="two.inferior" unicode="&#x2082;" 
d="M181 -26l2 -3h183v-109h-327v48l118 108c16 15 28 26 36 35c16 17 37 54 37 90c0 43 -27 67 -64 67c-15 0 -30 -3 -45 -10l-25 -81h-42v105c35 27 83 41 146 41c91 0 161 -38 161 -114c0 -59 -42 -93 -119 -140z" />
    <glyph glyph-name="three.inferior" unicode="&#x2083;" 
d="M93 127h-42v105c41 23 89 34 145 34c89 0 160 -34 160 -102c0 -53 -43 -88 -100 -92v-4c76 -7 114 -38 114 -93c0 -41 -18 -71 -55 -90s-82 -29 -137 -29c-47 0 -92 11 -134 34v110h45l26 -85c16 -5 32 -8 48 -8c44 0 76 22 76 67c0 43 -25 64 -75 64h-37v50h34
c45 0 64 20 64 65c0 41 -20 61 -59 61c-16 0 -32 -3 -47 -9z" />
    <glyph glyph-name="four.inferior" unicode="&#x2084;" 
d="M198 -89v56h-179v41l218 258h89v-249h54v-50h-54v-56l54 -12v-36h-237v36zM96 20l1 -3h101v118h-4z" />
    <glyph glyph-name="five.inferior" unicode="&#x2085;" 
d="M52 -111v101h44l24 -76c10 -3 22 -5 36 -5c45 0 79 28 79 77c0 52 -27 64 -88 64c-23 0 -49 -3 -78 -8l-6 7v210h287v-103h-237v-58c31 3 57 4 78 4c117 0 175 -38 175 -115c0 -31 -10 -56 -31 -76c-41 -41 -97 -55 -161 -55c-45 0 -86 11 -122 33z" />
    <glyph glyph-name="six.inferior" unicode="&#x2086;" 
d="M210 -94c28 0 42 30 42 90c0 55 -14 83 -42 83c-27 0 -40 -28 -40 -85c0 -59 13 -88 40 -88zM233 127c85 0 147 -50 147 -131c0 -88 -71 -140 -166 -140c-108 0 -171 65 -171 172c0 68 21 125 64 170s99 68 168 68c31 0 60 -5 85 -16l-7 -36c-17 3 -32 5 -46 5
c-71 0 -117 -34 -138 -103l3 -1c21 8 41 12 61 12z" />
    <glyph glyph-name="seven.inferior" unicode="&#x2087;" 
d="M54 110v149h324v-43l-205 -371l-70 40l183 261l-2 3h-174l-13 -39h-43z" />
    <glyph glyph-name="eight.inferior" unicode="&#x2088;" 
d="M34 -35c0 35 22 62 66 80v4c-37 20 -55 51 -55 92s17 72 50 93s72 32 117 32c39 0 74 -8 107 -23s50 -39 50 -73c0 -39 -33 -75 -72 -87v-4c68 -35 84 -62 84 -103c0 -38 -19 -67 -56 -88s-78 -32 -123 -32c-26 0 -51 3 -75 10c-48 12 -93 48 -93 99zM212 -94
c25 0 43 21 43 45c0 11 -5 21 -14 28s-23 14 -43 21s-31 12 -33 13c-6 -13 -9 -26 -9 -40c0 -36 21 -67 56 -67zM171 171c0 -10 3 -19 8 -27c11 -15 11 -15 38 -27l20 -9c8 13 12 30 12 53c0 39 -13 58 -39 58c-25 0 -39 -21 -39 -48z" />
    <glyph glyph-name="nine.inferior" unicode="&#x2089;" 
d="M208 51c27 0 41 28 41 83c0 54 -14 81 -42 81s-42 -27 -42 -82s14 -82 43 -82zM39 126c0 41 16 74 47 100c32 27 73 40 123 40c105 0 167 -67 167 -168c0 -70 -24 -128 -72 -173c-47 -46 -107 -69 -179 -69c-23 0 -45 3 -68 8l5 41c80 -7 155 32 182 103l-1 3
c-17 -7 -38 -11 -63 -11c-83 0 -141 43 -141 126z" />
    <glyph glyph-name="Euro" unicode="&#x20ac;" horiz-adv-x="629" 
d="M506 80l42 125c21 4 43 4 64 0v-147c-63 -45 -137 -68 -224 -68c-83 0 -155 23 -214 68s-95 113 -106 204h-61c-2 10 -3 20 -3 31c0 10 1 21 3 32h56v15c0 17 1 34 2 51h-58c-4 20 -4 42 0 63h68c20 83 62 146 125 190c64 44 136 66 217 66c71 0 135 -19 190 -58v-139
c-23 -4 -41 -4 -64 0l-39 108c-23 9 -47 13 -70 13c-47 0 -88 -17 -124 -50c-35 -33 -57 -76 -66 -130h244c2 -11 3 -22 3 -32c0 -11 -1 -21 -3 -31h-252c-1 -23 -2 -39 -2 -49v-17h254c4 -21 4 -43 0 -63h-249c9 -121 90 -193 195 -193c26 0 50 4 72 11z" />
    <glyph glyph-name="afii61352" unicode="&#x2116;" horiz-adv-x="1132" 
d="M1062 114h-321c-2 10 -3 22 -3 36c0 15 1 27 3 37h321c2 -10 3 -22 3 -37c0 -14 -1 -26 -3 -36zM965 433c0 100 -19 138 -64 138s-63 -39 -63 -138c0 -95 18 -134 63 -134c43 0 64 45 64 134zM1097 433c0 -130 -65 -195 -196 -195s-196 65 -196 195c0 133 65 199 196 199
s196 -66 196 -199zM487 0l-283 540h-4v-535l-5 -5h-153c-3 15 -3 29 0 44l78 26v580l-78 26c-3 15 -3 29 0 44h262l237 -463h4v458l5 5h153c3 -15 3 -29 0 -44l-78 -26v-650h-138z" />
    <glyph glyph-name="trademark" unicode="&#x2122;" horiz-adv-x="850" 
d="M587 509l79 211h143v-30l-41 -10l12 -234l41 -10v-25h-162v25l40 10l-11 209h-4l-94 -244h-60l-82 245h-4l-21 -210l42 -10v-25h-118v25l36 10l22 234l-41 10v30h147l72 -211h4zM288 637l-15 46h-61v-237l38 -10v-25h-156v25l38 10v237h-60l-15 -46h-29v83h288v-83h-28z
" />
    <glyph glyph-name="onethird" unicode="&#x2153;" horiz-adv-x="944" 
d="M615 261h-42v105c41 23 89 34 145 34c89 0 160 -34 160 -102c0 -53 -43 -88 -100 -92v-4c76 -7 114 -38 114 -93c0 -41 -18 -72 -55 -91s-82 -28 -137 -28c-47 0 -92 11 -134 34v110h45l26 -85c16 -5 32 -8 48 -8c44 0 76 22 76 67c0 43 -25 64 -75 64h-37v50h34
c45 0 64 20 64 65c0 41 -20 61 -59 61c-16 0 -32 -3 -47 -9zM62 342l73 14v279h-93v39l147 32c52 12 74 -4 74 -67v-283l73 -14v-35h-274v35zM198 0l433 730c23 -9 44 -22 63 -37l-433 -729c-22 8 -43 20 -63 36z" />
    <glyph glyph-name="twothirds" unicode="&#x2154;" horiz-adv-x="944" 
d="M168 419l2 -3h183v-109h-327v48l118 108c16 15 28 26 36 35c16 17 37 54 37 90c0 43 -27 67 -64 67c-15 0 -30 -3 -45 -10l-25 -81h-42v105c35 27 83 41 146 41c91 0 161 -38 161 -114c0 -59 -42 -93 -119 -140zM221 0l433 730c23 -9 44 -22 63 -37l-433 -729
c-22 8 -43 20 -63 36zM638 261h-42v105c41 23 89 34 145 34c89 0 160 -34 160 -102c0 -53 -43 -88 -100 -92v-4c76 -7 114 -38 114 -93c0 -41 -18 -72 -55 -91s-82 -28 -137 -28c-47 0 -92 11 -134 34v110h45l26 -85c16 -5 32 -8 48 -8c44 0 76 22 76 67c0 43 -25 64 -75 64
h-37v50h34c45 0 64 20 64 65c0 41 -20 61 -59 61c-17 0 -32 -3 -47 -9z" />
    <glyph glyph-name="oneeighth" unicode="&#x215b;" horiz-adv-x="944" 
d="M63 343l73 14v279h-93v39l147 32c52 12 74 -4 74 -67v-283l73 -14v-35h-274v35zM201 0l433 730c23 -9 44 -22 63 -37l-433 -729c-22 8 -43 20 -63 36zM545 99c0 35 22 62 66 80v4c-37 20 -55 51 -55 92s17 72 50 93s72 32 117 32c39 0 74 -8 107 -23s50 -39 50 -73
c0 -39 -35 -75 -72 -87v-4c68 -35 84 -62 84 -103c0 -38 -19 -68 -56 -89s-78 -31 -123 -31c-26 0 -51 3 -75 10c-48 12 -93 48 -93 99zM723 40c25 0 43 21 43 45c0 11 -5 21 -14 28s-23 14 -43 21s-31 12 -33 13c-6 -13 -9 -27 -9 -40c0 -36 21 -67 56 -67zM682 305
c0 -10 3 -19 8 -27c11 -15 11 -15 38 -27l20 -9c8 13 12 30 12 53c0 39 -13 58 -39 58c-25 0 -39 -21 -39 -48z" />
    <glyph glyph-name="threeeighths" unicode="&#x215c;" horiz-adv-x="944" 
d="M92 571h-42v105c41 23 89 34 145 34c89 0 160 -34 160 -102c0 -53 -43 -88 -100 -92v-4c76 -7 114 -38 114 -93c0 -41 -18 -72 -55 -91s-82 -28 -137 -28c-47 0 -92 11 -134 34v110h45l26 -85c16 -5 32 -8 48 -8c44 0 76 22 76 67c0 43 -25 64 -75 64h-37v50h34
c45 0 64 20 64 65c0 41 -20 61 -59 61c-17 0 -32 -3 -47 -9zM222 0l433 730c23 -9 44 -22 63 -37l-433 -729c-22 8 -43 20 -63 36zM556 99c0 35 22 62 66 80v4c-37 20 -55 51 -55 92s17 72 50 93s72 32 117 32c39 0 74 -8 107 -23s50 -39 50 -73c0 -39 -33 -75 -72 -87v-4
c68 -35 84 -62 84 -103c0 -38 -19 -68 -56 -89s-78 -31 -123 -31c-26 0 -51 3 -75 10c-48 12 -93 48 -93 99zM734 40c25 0 43 21 43 45c0 11 -5 21 -14 28s-23 14 -43 21s-31 12 -33 13c-6 -13 -9 -27 -9 -40c0 -36 21 -67 56 -67zM693 305c0 -10 3 -19 8 -27
c11 -15 11 -15 38 -27l20 -9c8 13 12 30 12 53c0 39 -13 58 -39 58c-25 0 -39 -21 -39 -48z" />
    <glyph glyph-name="fiveeighths" unicode="&#x215d;" horiz-adv-x="944" 
d="M565 99c0 35 22 62 66 80v4c-37 20 -55 51 -55 92s17 72 50 93s72 32 117 32c39 0 74 -8 107 -23s50 -39 50 -73c0 -39 -33 -75 -72 -87v-4c68 -35 84 -62 84 -103c0 -38 -19 -68 -56 -89s-78 -31 -123 -31c-26 0 -51 3 -75 10c-48 12 -93 48 -93 99zM743 40
c25 0 43 21 43 45c0 11 -5 21 -14 28s-23 14 -43 21s-31 12 -33 13c-6 -13 -9 -27 -9 -40c0 -36 21 -67 56 -67zM702 305c0 -10 3 -19 8 -27c11 -15 11 -15 38 -27l20 -9c8 13 12 30 12 53c0 39 -13 58 -39 58c-25 0 -39 -21 -39 -48zM58 330v101h44l24 -76
c10 -3 22 -5 36 -5c45 0 79 28 79 77c0 52 -27 64 -88 64c-23 0 -49 -3 -78 -8l-6 7v210h287v-103h-237v-58c31 3 57 4 78 4c117 0 175 -38 175 -115c0 -31 -10 -56 -31 -77c-41 -40 -97 -54 -161 -54c-45 0 -86 11 -122 33zM228 0l433 730c23 -9 44 -22 63 -37l-433 -729
c-22 8 -43 20 -63 36z" />
    <glyph glyph-name="seveneighths" unicode="&#x215e;" horiz-adv-x="944" 
d="M87 550v149h324v-43l-205 -371l-70 40l183 261l-2 3h-174l-13 -39h-43zM173 0l433 730c23 -9 44 -22 63 -37l-433 -729c-22 8 -43 20 -63 36zM519 99c0 35 22 62 66 80v4c-37 20 -55 51 -55 92s17 72 50 93s72 32 117 32c39 0 74 -8 107 -23s50 -39 50 -73
c0 -39 -35 -75 -72 -87v-4c68 -35 84 -62 84 -103c0 -38 -19 -68 -56 -89s-78 -31 -123 -31c-26 0 -51 3 -75 10c-48 12 -93 48 -93 99zM697 40c25 0 43 21 43 45c0 11 -5 21 -14 28s-23 14 -43 21s-31 12 -33 13c-6 -13 -9 -27 -9 -40c0 -36 21 -67 56 -67zM656 305
c0 -10 3 -19 8 -27c11 -15 11 -15 38 -27l20 -9c8 13 12 30 12 53c0 39 -13 58 -39 58c-25 0 -39 -21 -39 -48z" />
    <glyph glyph-name="minus" unicode="&#x2212;" horiz-adv-x="646" 
d="M594 232h-543c-2 13 -3 27 -3 40c0 12 1 26 3 41h543c2 -15 3 -28 3 -41s-1 -27 -3 -40z" />
    <glyph glyph-name="Aogonek.sc" unicode="&#xa00c;" horiz-adv-x="709" 
d="M439 530l208 -467l59 -20c3 -14 3 -28 0 -43h-193c-5 -17 -7 -35 -7 -52c0 -57 21 -85 62 -85c14 0 28 4 43 11c10 -15 17 -32 20 -52c-23 -19 -53 -28 -90 -28c-75 0 -119 43 -119 114c0 48 14 97 43 146l-47 101h-214l-40 -90l78 -22c4 -14 4 -28 0 -43h-230
c-3 15 -3 29 0 43l65 20l211 467h151zM314 389h-4l-73 -160h150z" />
    <glyph glyph-name="A.sc" unicode="&#xe000;" horiz-adv-x="709" 
d="M385 43l75 22l-42 90h-214l-40 -90l78 -22c3 -14 3 -28 0 -43h-230c-3 15 -3 29 0 43l65 20l211 467h151l208 -467l59 -20c3 -14 3 -28 0 -43h-321c-3 15 -3 29 0 43zM314 389h-4l-73 -160h150z" />
    <glyph glyph-name="AE.sc" unicode="&#xe001;" horiz-adv-x="955" 
d="M384 43l75 22v166h-206l-88 -166l78 -22c3 -14 3 -28 0 -43h-231c-3 15 -3 29 0 43l65 20l215 404l-107 20c-3 15 -3 29 0 43h703v-172c-11 -2 -21 -3 -31 -3c-11 0 -21 1 -31 3l-41 94h-155v-148h92l19 45c14 3 28 3 42 0v-178c-14 -3 -28 -3 -42 0l-19 60h-92v-153h175
l41 104c10 2 20 3 31 3c10 0 20 -1 30 -3v-182h-523c-3 14 -3 28 0 43zM459 452h-88l-79 -148h167v148z" />
    <glyph glyph-name="Aacute.sc" unicode="&#xe003;" horiz-adv-x="709" 
d="M385 43l75 22l-42 90h-214l-40 -90l78 -22c3 -14 3 -28 0 -43h-230c-3 15 -3 29 0 43l65 20l211 467h151l208 -467l59 -20c3 -14 3 -28 0 -43h-321c-3 15 -3 29 0 43zM314 389h-4l-73 -160h150zM276 631l134 153c28 -23 51 -47 68 -74l-158 -127c-18 12 -33 28 -44 48z
" />
    <glyph glyph-name="Abreve.sc" unicode="&#xe004;" horiz-adv-x="709" 
d="M385 43l75 22l-42 90h-214l-40 -90l78 -22c3 -14 3 -28 0 -43h-230c-3 15 -3 29 0 43l65 20l211 467h151l208 -467l59 -20c3 -14 3 -28 0 -43h-321c-3 15 -3 29 0 43zM314 389h-4l-73 -160h150zM208 745c12 2 23 3 33 3c12 0 23 -1 34 -3c9 -49 32 -73 81 -73
s72 24 81 73c11 2 22 3 33 3s22 -1 34 -3c-3 -95 -59 -150 -148 -150s-145 55 -148 150z" />
    <glyph glyph-name="Acircumflex.sc" unicode="&#xe005;" horiz-adv-x="709" 
d="M385 43l75 22l-42 90h-214l-40 -90l78 -22c3 -14 3 -28 0 -43h-230c-3 15 -3 29 0 43l65 20l211 467h151l208 -467l59 -20c3 -14 3 -28 0 -43h-321c-3 15 -3 29 0 43zM314 389h-4l-73 -160h150zM206 632l144 152h9l146 -154c-11 -18 -25 -34 -43 -47l-107 89l-107 -89
c-19 13 -33 29 -42 49z" />
    <glyph glyph-name="Adieresis.sc" unicode="&#xe006;" horiz-adv-x="709" 
d="M385 43l75 22l-42 90h-214l-40 -90l78 -22c3 -14 3 -28 0 -43h-230c-3 15 -3 29 0 43l65 20l211 467h151l208 -467l59 -20c3 -14 3 -28 0 -43h-321c-3 15 -3 29 0 43zM314 389h-4l-73 -160h150zM298 623c-23 -3 -45 -5 -65 -5c-21 0 -42 2 -64 5c-4 21 -6 42 -6 65
c0 21 2 43 6 65c22 3 43 5 64 5c20 0 42 -2 65 -5c3 -25 5 -46 5 -65c0 -20 -2 -42 -5 -65zM540 623c-23 -3 -45 -5 -65 -5c-21 0 -42 2 -64 5c-4 21 -6 42 -6 65c0 21 2 43 6 65c22 3 43 5 64 5c20 0 42 -2 65 -5c3 -25 5 -46 5 -65c0 -20 -2 -42 -5 -65z" />
    <glyph glyph-name="Agrave.sc" unicode="&#xe007;" horiz-adv-x="709" 
d="M385 43l75 22l-42 90h-214l-40 -90l78 -22c3 -14 3 -28 0 -43h-230c-3 15 -3 29 0 43l65 20l211 467h151l208 -467l59 -20c3 -14 3 -28 0 -43h-321c-3 15 -3 29 0 43zM314 389h-4l-73 -160h150zM323 784l134 -153c-10 -19 -25 -35 -44 -48l-158 127c17 27 40 51 68 74z
" />
    <glyph glyph-name="Amacron.sc" unicode="&#xe00b;" horiz-adv-x="709" 
d="M385 43l75 22l-42 90h-214l-40 -90l78 -22c3 -14 3 -28 0 -43h-230c-3 15 -3 29 0 43l65 20l211 467h151l208 -467l59 -20c3 -14 3 -28 0 -43h-321c-3 15 -3 29 0 43zM314 389h-4l-73 -160h150zM509 620h-307c-2 14 -3 28 -3 42c0 13 1 27 3 41h307c2 -14 3 -28 3 -41
c0 -14 -1 -28 -3 -42z" />
    <glyph glyph-name="Aring.sc" unicode="&#xe00d;" horiz-adv-x="709" 
d="M385 43l75 22l-42 90h-214l-40 -90l78 -22c3 -14 3 -28 0 -43h-230c-3 15 -3 29 0 43l65 20l211 467h151l208 -467l59 -20c3 -14 3 -28 0 -43h-321c-3 15 -3 29 0 43zM314 389h-4l-73 -160h150zM275 611c-21 19 -31 45 -31 77s10 58 31 77s47 29 80 29s59 -10 80 -29
s32 -45 32 -77s-11 -58 -32 -77s-47 -28 -80 -28s-59 9 -80 28zM321 728c-17 -21 -17 -59 0 -80c17 -20 51 -20 68 0c19 21 19 59 0 80c-17 21 -51 21 -68 0z" />
    <glyph glyph-name="Atilde.sc" unicode="&#xe00e;" horiz-adv-x="709" 
d="M385 43l75 22l-42 90h-214l-40 -90l78 -22c3 -14 3 -28 0 -43h-230c-3 15 -3 29 0 43l65 20l211 467h151l208 -467l59 -20c3 -14 3 -28 0 -43h-321c-3 15 -3 29 0 43zM314 389h-4l-73 -160h150zM251 597c-10 -2 -20 -3 -29 -3c-10 0 -20 1 -29 3c0 77 36 138 97 138
c19 0 44 -9 73 -28c29 -18 50 -27 61 -27c23 0 35 25 36 56c21 4 40 4 58 0c0 -77 -32 -137 -92 -137c-25 0 -51 9 -79 27c-28 19 -47 28 -57 28c-21 0 -35 -29 -39 -57z" />
    <glyph glyph-name="B.sc" unicode="&#xe00f;" horiz-adv-x="661" 
d="M299 452h-4v-138h11c75 0 112 12 112 71c0 57 -34 67 -119 67zM307 242h-12v-164h25c41 0 63 3 88 12c27 11 39 34 39 70c0 29 -12 51 -28 62c-7 6 -18 10 -31 13c-27 7 -45 7 -81 7zM48 43l75 22v400l-75 22c-3 14 -3 28 0 43h344c34 0 64 -3 91 -9c27 -5 52 -18 74 -38
c22 -19 33 -45 33 -77c0 -67 -54 -115 -123 -119v-4c88 -1 155 -48 155 -132c0 -112 -116 -151 -217 -151h-357c-3 14 -3 28 0 43z" />
    <glyph glyph-name="C.sc" unicode="&#xe011;" horiz-adv-x="593" 
d="M446 80l39 108c10 2 20 3 30 3c11 0 21 -1 31 -3v-151c-61 -31 -128 -47 -203 -47c-89 0 -162 24 -217 73s-83 116 -83 203c0 85 30 152 90 201s135 73 224 73c66 0 128 -12 185 -37v-145c-10 -2 -20 -3 -31 -3c-10 0 -20 1 -30 3l-40 97c-19 5 -38 8 -55 8
c-51 0 -92 -19 -123 -58c-31 -38 -46 -85 -46 -140c0 -56 15 -103 45 -140s70 -55 119 -55c19 0 40 3 65 10z" />
    <glyph glyph-name="Cacute.sc" unicode="&#xe012;" horiz-adv-x="593" 
d="M446 80l39 108c10 2 20 3 30 3c11 0 21 -1 31 -3v-151c-61 -31 -128 -47 -203 -47c-89 0 -162 24 -217 73s-83 116 -83 203c0 85 30 152 90 201s135 73 224 73c66 0 128 -12 185 -37v-145c-10 -2 -20 -3 -31 -3c-10 0 -20 1 -30 3l-40 97c-19 5 -38 8 -55 8
c-51 0 -92 -19 -123 -58c-31 -38 -46 -85 -46 -140c0 -56 15 -103 45 -140s70 -55 119 -55c19 0 40 3 65 10zM272 631l134 153c28 -23 51 -47 68 -74l-158 -127c-18 12 -33 28 -44 48z" />
    <glyph glyph-name="Ccaron.sc" unicode="&#xe013;" horiz-adv-x="593" 
d="M446 80l39 108c10 2 20 3 30 3c11 0 21 -1 31 -3v-151c-61 -31 -128 -47 -203 -47c-89 0 -162 24 -217 73s-83 116 -83 203c0 85 30 152 90 201s135 73 224 73c66 0 128 -12 185 -37v-145c-10 -2 -20 -3 -31 -3c-10 0 -20 1 -30 3l-40 97c-19 5 -38 8 -55 8
c-51 0 -92 -19 -123 -58c-31 -38 -46 -85 -46 -140c0 -56 15 -103 45 -140s70 -55 119 -55c19 0 40 3 65 10zM485 737l-146 -154h-9l-144 153c10 17 24 33 42 48l107 -89l107 89c19 -15 33 -30 43 -47z" />
    <glyph glyph-name="Ccedilla.sc" unicode="&#xe014;" horiz-adv-x="593" 
d="M446 80l39 108c10 2 20 3 30 3c11 0 21 -1 31 -3v-151c-43 -23 -90 -37 -141 -43c12 -29 18 -57 18 -85c0 -75 -42 -115 -119 -115c-37 0 -66 9 -89 28c2 17 8 34 19 52c15 -7 29 -11 44 -11c43 0 62 36 62 84c0 14 -2 28 -5 43c-87 1 -158 26 -212 75
c-53 49 -80 116 -80 201s30 152 90 201s135 73 224 73c66 0 128 -12 185 -37v-145c-10 -2 -20 -3 -31 -3c-10 0 -20 1 -30 3l-40 97c-19 5 -38 8 -55 8c-51 0 -92 -19 -123 -58c-31 -38 -46 -85 -46 -140c0 -56 15 -103 45 -140s70 -55 119 -55c19 0 40 3 65 10z" />
    <glyph glyph-name="D.sc" unicode="&#xe018;" horiz-adv-x="709" 
d="M307 452h-12v-374h12c140 0 189 55 189 187s-50 187 -189 187zM48 43l75 22v400l-75 22c-3 14 -3 28 0 43h326c195 0 296 -93 296 -265c0 -177 -99 -265 -296 -265h-326c-3 14 -3 28 0 43z" />
    <glyph glyph-name="Dcaron.sc" unicode="&#xe019;" horiz-adv-x="709" 
d="M307 452h-12v-374h12c140 0 189 55 189 187s-50 187 -189 187zM48 43l75 22v400l-75 22c-3 14 -3 28 0 43h326c195 0 296 -93 296 -265c0 -177 -99 -265 -296 -265h-326c-3 14 -3 28 0 43zM505 737l-146 -154h-9l-144 153c10 17 24 33 42 48l107 -89l107 89
c19 -15 33 -30 43 -47z" />
    <glyph glyph-name="Dcroat.sc" unicode="&#xe01a;" horiz-adv-x="719" 
d="M312 452h-13v-139h98c4 -23 4 -43 0 -66h-98v-169h13c140 0 189 55 189 187s-50 187 -189 187zM53 313h74v152l-74 22c-3 14 -3 28 0 43h326c195 0 296 -93 296 -265c0 -177 -99 -265 -296 -265h-326c-3 14 -3 28 0 43l74 22v182h-74c-4 23 -4 43 0 66z" />
    <glyph glyph-name="E.sc" unicode="&#xe01b;" horiz-adv-x="620" 
d="M48 43l75 22v400l-75 22c-3 15 -3 29 0 43h504v-172c-11 -2 -22 -3 -31 -3c-11 0 -21 1 -31 3l-41 94h-154v-145h91l19 45c14 3 28 3 43 0v-177c-15 -3 -29 -3 -43 0l-19 60h-91v-157h174l42 104c20 4 40 4 60 0v-182h-523c-3 14 -3 28 0 43z" />
    <glyph glyph-name="Eacute.sc" unicode="&#xe01c;" horiz-adv-x="620" 
d="M48 43l75 22v400l-75 22c-3 15 -3 29 0 43h504v-172c-11 -2 -22 -3 -31 -3c-11 0 -21 1 -31 3l-41 94h-154v-145h91l19 45c14 3 28 3 43 0v-177c-15 -3 -29 -3 -43 0l-19 60h-91v-157h174l42 104c20 4 40 4 60 0v-182h-523c-3 14 -3 28 0 43zM261 631l134 153
c28 -23 51 -47 68 -74l-158 -127c-18 12 -33 28 -44 48z" />
    <glyph glyph-name="Ecaron.sc" unicode="&#xe01e;" horiz-adv-x="620" 
d="M48 43l75 22v400l-75 22c-3 15 -3 29 0 43h504v-172c-11 -2 -22 -3 -31 -3c-11 0 -21 1 -31 3l-41 94h-154v-145h91l19 45c14 3 28 3 43 0v-177c-15 -3 -29 -3 -43 0l-19 60h-91v-157h174l42 104c20 4 40 4 60 0v-182h-523c-3 14 -3 28 0 43zM487 737l-146 -154h-9
l-144 153c10 17 24 33 42 48l107 -89l107 89c19 -15 33 -30 43 -47z" />
    <glyph glyph-name="Ecircumflex.sc" unicode="&#xe01f;" horiz-adv-x="620" 
d="M48 43l75 22v400l-75 22c-3 15 -3 29 0 43h504v-172c-11 -2 -22 -3 -31 -3c-11 0 -21 1 -31 3l-41 94h-154v-145h91l19 45c14 3 28 3 43 0v-177c-15 -3 -29 -3 -43 0l-19 60h-91v-157h174l42 104c20 4 40 4 60 0v-182h-523c-3 14 -3 28 0 43zM182 632l144 152h9l146 -154
c-11 -18 -25 -34 -43 -47l-107 89l-107 -89c-19 13 -33 29 -42 49z" />
    <glyph glyph-name="Edieresis.sc" unicode="&#xe020;" horiz-adv-x="620" 
d="M48 43l75 22v400l-75 22c-3 15 -3 29 0 43h504v-172c-11 -2 -22 -3 -31 -3c-11 0 -21 1 -31 3l-41 94h-154v-145h91l19 45c14 3 28 3 43 0v-177c-15 -3 -29 -3 -43 0l-19 60h-91v-157h174l42 104c20 4 40 4 60 0v-182h-523c-3 14 -3 28 0 43zM266 623
c-23 -3 -45 -5 -65 -5c-21 0 -42 2 -64 5c-4 21 -6 42 -6 65c0 21 2 43 6 65c22 3 43 5 64 5c20 0 42 -2 65 -5c3 -25 5 -46 5 -65c0 -20 -2 -42 -5 -65zM508 623c-23 -3 -45 -5 -65 -5c-21 0 -42 2 -64 5c-4 21 -6 42 -6 65c0 21 2 43 6 65c22 3 43 5 64 5
c20 0 42 -2 65 -5c3 -25 5 -46 5 -65c0 -20 -2 -42 -5 -65z" />
    <glyph glyph-name="Edotaccent.sc" unicode="&#xe021;" horiz-adv-x="620" 
d="M48 43l75 22v400l-75 22c-3 15 -3 29 0 43h504v-172c-11 -2 -22 -3 -31 -3c-11 0 -21 1 -31 3l-41 94h-154v-145h91l19 45c14 3 28 3 43 0v-177c-15 -3 -29 -3 -43 0l-19 60h-91v-157h174l42 104c20 4 40 4 60 0v-182h-523c-3 14 -3 28 0 43zM261 774c32 3 56 4 73 4
s41 -1 73 -4c4 -25 6 -49 6 -73c0 -25 -2 -49 -6 -73c-28 -3 -52 -5 -73 -5c-24 0 -48 2 -73 5c-4 24 -6 48 -6 73c0 23 2 48 6 73z" />
    <glyph glyph-name="Egrave.sc" unicode="&#xe022;" horiz-adv-x="620" 
d="M48 43l75 22v400l-75 22c-3 15 -3 29 0 43h504v-172c-11 -2 -22 -3 -31 -3c-11 0 -21 1 -31 3l-41 94h-154v-145h91l19 45c14 3 28 3 43 0v-177c-15 -3 -29 -3 -43 0l-19 60h-91v-157h174l42 104c20 4 40 4 60 0v-182h-523c-3 14 -3 28 0 43zM260 784l134 -153
c-10 -19 -25 -35 -44 -48l-158 127c17 27 40 51 68 74z" />
    <glyph glyph-name="Emacron.sc" unicode="&#xe023;" horiz-adv-x="620" 
d="M48 43l75 22v400l-75 22c-3 15 -3 29 0 43h504v-172c-11 -2 -22 -3 -31 -3c-11 0 -21 1 -31 3l-41 94h-154v-145h91l19 45c14 3 28 3 43 0v-177c-15 -3 -29 -3 -43 0l-19 60h-91v-157h174l42 104c20 4 40 4 60 0v-182h-523c-3 14 -3 28 0 43zM475 620h-307
c-2 14 -3 28 -3 42c0 13 1 27 3 41h307c2 -14 3 -28 3 -41c0 -14 -1 -28 -3 -42z" />
    <glyph glyph-name="Eogonek.sc" unicode="&#xe025;" horiz-adv-x="620" 
d="M48 43l75 22v400l-75 22c-3 15 -3 29 0 43h504v-172c-11 -2 -22 -3 -31 -3c-11 0 -21 1 -31 3l-41 94h-154v-145h91l19 45c14 3 28 3 43 0v-177c-15 -3 -29 -3 -43 0l-19 60h-91v-157h174l42 104c20 4 40 4 60 0v-182h-112c-5 -17 -7 -35 -7 -52c0 -57 21 -85 62 -85
c13 0 28 4 44 11c9 -15 16 -33 19 -52c-23 -19 -53 -28 -90 -28c-76 0 -119 40 -119 115c0 31 7 61 20 91h-340c-3 14 -3 28 0 43z" />
    <glyph glyph-name="Eth.sc" unicode="&#xe02c;" horiz-adv-x="719" 
d="M312 452h-13v-139h98c4 -23 4 -43 0 -66h-98v-169h13c140 0 189 55 189 187s-50 187 -189 187zM53 313h74v152l-74 22c-3 14 -3 28 0 43h326c195 0 296 -93 296 -265c0 -177 -99 -265 -296 -265h-326c-3 14 -3 28 0 43l74 22v182h-74c-4 23 -4 43 0 66z" />
    <glyph glyph-name="F.sc" unicode="&#xe02e;" horiz-adv-x="594" 
d="M48 43l75 22v400l-75 22c-3 14 -3 28 0 43h507v-172c-20 -4 -42 -4 -62 0l-41 94h-157v-170h104l19 45c15 3 29 3 43 0v-178c-14 -3 -28 -3 -43 0l-19 60h-104v-144l74 -22c3 -14 3 -28 0 -43h-321c-3 14 -3 28 0 43z" />
    <glyph glyph-name="G.sc" unicode="&#xe02f;" horiz-adv-x="657" 
d="M605 214l-39 -16v-208h-75c-23 0 -39 8 -50 25c-39 -17 -82 -25 -128 -25c-80 0 -145 24 -195 72c-50 49 -75 114 -75 195c0 90 30 160 90 209c61 49 138 74 232 74c71 0 138 -12 201 -37v-145c-21 -4 -43 -4 -62 0l-39 97c-22 6 -43 9 -64 9c-58 0 -103 -20 -136 -61
c-32 -40 -48 -90 -48 -149c0 -48 12 -91 36 -128c25 -37 60 -55 106 -55c19 0 36 2 50 7v114l-71 22c-3 15 -3 29 0 43h267c3 -14 3 -28 0 -43z" />
    <glyph glyph-name="Gbreve.sc" unicode="&#xe033;" horiz-adv-x="657" 
d="M605 214l-39 -16v-208h-75c-23 0 -39 8 -50 25c-39 -17 -82 -25 -128 -25c-80 0 -145 24 -195 72c-50 49 -75 114 -75 195c0 90 30 160 90 209c61 49 138 74 232 74c71 0 138 -12 201 -37v-145c-21 -4 -43 -4 -62 0l-39 97c-22 6 -43 9 -64 9c-58 0 -103 -20 -136 -61
c-32 -40 -48 -90 -48 -149c0 -48 12 -91 36 -128c25 -37 60 -55 106 -55c19 0 36 2 50 7v114l-71 22c-3 15 -3 29 0 43h267c3 -14 3 -28 0 -43zM192 745c12 2 23 3 33 3c11 0 23 -1 34 -3c9 -49 32 -73 81 -73s72 24 81 73c11 2 22 3 33 3s22 -1 34 -3
c-3 -95 -59 -150 -148 -150s-145 55 -148 150z" />
    <glyph glyph-name="Gcommaaccent.sc" unicode="&#xe035;" horiz-adv-x="657" 
d="M605 214l-39 -16v-208h-75c-23 0 -39 8 -50 25c-39 -17 -82 -25 -128 -25c-80 0 -145 24 -195 72c-50 49 -75 114 -75 195c0 90 30 160 90 209c61 49 138 74 232 74c71 0 138 -12 201 -37v-145c-21 -4 -43 -4 -62 0l-39 97c-22 6 -43 9 -64 9c-58 0 -103 -20 -136 -61
c-32 -40 -48 -90 -48 -149c0 -48 12 -91 36 -128c25 -37 60 -55 106 -55c19 0 36 2 50 7v114l-71 22c-3 15 -3 29 0 43h267c3 -14 3 -28 0 -43zM258 -207c25 31 37 73 37 124c0 9 -1 23 -2 42c17 2 34 3 51 3s35 -1 52 -3c3 -95 -29 -158 -97 -189c-15 3 -29 11 -41 23z" />
    <glyph glyph-name="H.sc" unicode="&#xe037;" horiz-adv-x="782" 
d="M495 65v176h-200v-176l65 -22c3 -14 3 -28 0 -43h-312c-3 14 -3 28 0 43l75 22v400l-75 22c-3 14 -3 28 0 43h312c3 -15 3 -29 0 -43l-65 -22v-146h200v146l-65 22c-3 14 -3 28 0 43h312c3 -15 3 -29 0 -43l-75 -22v-400l75 -22c3 -14 3 -28 0 -43h-312c-3 14 -3 28 0 43
z" />
    <glyph glyph-name="I.sc" unicode="&#xe03a;" horiz-adv-x="409" 
d="M369 487l-74 -22v-400l74 -22c3 -14 3 -28 0 -43h-321c-3 14 -3 28 0 43l75 22v400l-75 22c-3 14 -3 28 0 43h321c3 -15 3 -29 0 -43z" />
    <glyph glyph-name="Iacute.sc" unicode="&#xe03c;" horiz-adv-x="409" 
d="M369 487l-74 -22v-400l74 -22c3 -14 3 -28 0 -43h-321c-3 14 -3 28 0 43l75 22v400l-75 22c-3 14 -3 28 0 43h321c3 -15 3 -29 0 -43zM144 631l134 153c28 -23 51 -47 68 -74l-158 -127c-18 12 -33 28 -44 48z" />
    <glyph glyph-name="Icircumflex.sc" unicode="&#xe03e;" horiz-adv-x="409" 
d="M369 487l-74 -22v-400l74 -22c3 -14 3 -28 0 -43h-321c-3 14 -3 28 0 43l75 22v400l-75 22c-3 14 -3 28 0 43h321c3 -15 3 -29 0 -43zM59 632l144 152h9l146 -154c-11 -18 -25 -34 -43 -47l-107 89l-107 -89c-19 13 -33 29 -42 49z" />
    <glyph glyph-name="Idieresis.sc" unicode="&#xe03f;" horiz-adv-x="409" 
d="M365 487l-74 -22v-400l74 -22c3 -14 3 -28 0 -43h-321c-3 14 -3 28 0 43l75 22v400l-75 22c-3 14 -3 28 0 43h321c3 -15 3 -29 0 -43zM148 623c-23 -3 -45 -5 -65 -5c-21 0 -42 2 -64 5c-4 21 -6 42 -6 65c0 21 2 43 6 65c22 3 43 5 64 5c20 0 42 -2 65 -5
c3 -25 5 -46 5 -65c0 -20 -2 -42 -5 -65zM390 623c-23 -3 -45 -5 -65 -5c-21 0 -42 2 -64 5c-4 21 -6 42 -6 65c0 21 2 43 6 65c22 3 43 5 64 5c20 0 42 -2 65 -5c3 -25 5 -46 5 -65c0 -20 -2 -42 -5 -65z" />
    <glyph glyph-name="Idotaccent.sc" unicode="&#xe040;" horiz-adv-x="409" 
d="M369 487l-74 -22v-400l74 -22c3 -14 3 -28 0 -43h-321c-3 14 -3 28 0 43l75 22v400l-75 22c-3 14 -3 28 0 43h321c3 -15 3 -29 0 -43zM135 774c32 3 56 4 73 4s41 -1 73 -4c4 -25 6 -49 6 -73c0 -25 -2 -49 -6 -73c-28 -3 -52 -5 -73 -5c-24 0 -48 2 -73 5
c-4 24 -6 48 -6 73c0 23 2 48 6 73z" />
    <glyph glyph-name="Igrave.sc" unicode="&#xe041;" horiz-adv-x="409" 
d="M369 487l-74 -22v-400l74 -22c3 -14 3 -28 0 -43h-321c-3 14 -3 28 0 43l75 22v400l-75 22c-3 14 -3 28 0 43h321c3 -15 3 -29 0 -43zM147 784l134 -153c-10 -19 -25 -35 -44 -48l-158 127c17 27 40 51 68 74z" />
    <glyph glyph-name="Imacron.sc" unicode="&#xe042;" horiz-adv-x="409" 
d="M369 487l-74 -22v-400l74 -22c3 -14 3 -28 0 -43h-321c-3 14 -3 28 0 43l75 22v400l-75 22c-3 14 -3 28 0 43h321c3 -15 3 -29 0 -43zM362 620h-307c-2 14 -3 28 -3 42c0 13 1 27 3 41h307c2 -14 3 -28 3 -41c0 -14 -1 -28 -3 -42z" />
    <glyph glyph-name="Iogonek.sc" unicode="&#xe043;" horiz-adv-x="409" 
d="M369 487l-74 -22v-400l74 -22c3 -14 3 -28 0 -43h-124c-5 -17 -7 -34 -7 -51c0 -49 18 -86 62 -86c15 0 29 4 44 11c11 -15 17 -33 19 -52c-23 -19 -52 -28 -89 -28c-77 0 -119 40 -119 115c0 31 7 61 20 91h-127c-3 14 -3 28 0 43l75 22v400l-75 22c-3 14 -3 28 0 43
h321c3 -15 3 -29 0 -43z" />
    <glyph glyph-name="J.sc" unicode="&#xe049;" horiz-adv-x="398" 
d="M44 530h321c3 -15 3 -29 0 -43l-74 -22v-397c0 -121 -89 -188 -254 -188c-7 15 -11 31 -11 48c71 16 93 60 93 151v386l-75 22c-3 14 -3 28 0 43z" />
    <glyph glyph-name="K.sc" unicode="&#xe04b;" horiz-adv-x="750" 
d="M359 487l-64 -22v-400l61 -22c3 -14 3 -28 0 -43h-308c-3 14 -3 28 0 43l75 22v400l-75 22c-3 14 -3 28 0 43h311c3 -15 3 -29 0 -43zM740 0h-238l-192 264v4l208 205l-54 14c-3 13 -3 28 0 43h242c3 -15 3 -29 0 -43l-84 -22l-146 -139l194 -261l70 -22
c3 -14 3 -28 0 -43z" />
    <glyph glyph-name="Kcommaaccent.sc" unicode="&#xe04d;" horiz-adv-x="750" 
d="M359 487l-64 -22v-400l61 -22c3 -14 3 -28 0 -43h-308c-3 14 -3 28 0 43l75 22v400l-75 22c-3 14 -3 28 0 43h311c3 -15 3 -29 0 -43zM740 0h-238l-192 264v4l208 205l-54 14c-3 13 -3 28 0 43h242c3 -15 3 -29 0 -43l-84 -22l-146 -139l194 -261l70 -22
c3 -14 3 -28 0 -43zM318 -207c25 31 37 73 37 124c0 9 -1 23 -2 42c17 2 34 3 51 3s35 -1 52 -3c3 -95 -29 -158 -97 -189c-15 3 -29 11 -41 23z" />
    <glyph glyph-name="L.sc" unicode="&#xe04e;" horiz-adv-x="575" 
d="M369 487l-74 -22v-387h157l41 109c10 2 20 3 30 3c11 0 21 -1 31 -3v-187h-506c-3 14 -3 28 0 43l75 22v400l-75 22c-3 14 -3 28 0 43h321c3 -15 3 -29 0 -43z" />
    <glyph glyph-name="Lacute.sc" unicode="&#xe04f;" horiz-adv-x="575" 
d="M369 487l-74 -22v-387h157l41 109c10 2 20 3 30 3c11 0 21 -1 31 -3v-187h-506c-3 14 -3 28 0 43l75 22v400l-75 22c-3 14 -3 28 0 43h321c3 -15 3 -29 0 -43zM148 631l134 153c28 -23 51 -47 68 -74l-158 -127c-18 12 -33 28 -44 48z" />
    <glyph glyph-name="Lcaron.sc" unicode="&#xe051;" horiz-adv-x="575" 
d="M369 487l-74 -22v-387h157l41 109c10 2 20 3 30 3c11 0 21 -1 31 -3v-187h-506c-3 14 -3 28 0 43l75 22v400l-75 22c-3 14 -3 28 0 43h321c3 -15 3 -29 0 -43zM409 360c25 31 37 73 37 124c0 9 -1 23 -2 42c17 2 34 3 51 3c18 0 35 -1 52 -3c3 -95 -29 -158 -97 -189
c-15 3 -29 11 -41 23z" />
    <glyph glyph-name="Lcommaaccent.sc" unicode="&#xe052;" horiz-adv-x="575" 
d="M369 487l-74 -22v-387h157l41 109c10 2 20 3 30 3c11 0 21 -1 31 -3v-187h-506c-3 14 -3 28 0 43l75 22v400l-75 22c-3 14 -3 28 0 43h321c3 -15 3 -29 0 -43zM244 -207c25 31 37 73 37 124c0 9 -1 23 -2 42c17 2 34 3 51 3s35 -1 52 -3c3 -95 -29 -158 -97 -189
c-15 3 -29 11 -41 23z" />
    <glyph glyph-name="Lslash.sc" unicode="&#xe054;" horiz-adv-x="584" 
d="M378 487l-74 -22v-110l116 88l4 -1v-68l-120 -91v-205h157l41 109c10 2 20 3 30 3c11 0 21 -1 31 -3v-187h-506c-3 14 -3 28 0 43l75 22v87l-71 -53l-4 1v68l75 56v241l-75 22c-3 14 -3 28 0 43h321c3 -15 3 -29 0 -43z" />
    <glyph glyph-name="M.sc" unicode="&#xe055;" horiz-adv-x="979" 
d="M912 487l-75 -22l24 -400l75 -22c3 -14 3 -28 0 -43h-323c-3 14 -3 28 0 43l75 22l-18 300h-5l-178 -365h-98l-161 362h-5l-36 -297l77 -22c3 -14 3 -28 0 -43h-228c-3 15 -3 29 0 43l72 19l50 403l-75 22c-3 14 -3 28 0 43h261l147 -332h4l162 332h255
c3 -15 3 -29 0 -43z" />
    <glyph glyph-name="N.sc" unicode="&#xe059;" horiz-adv-x="718" 
d="M286 530l245 -319h4v254l-78 22c-3 14 -3 28 0 43h228c3 -15 3 -29 0 -43l-72 -19v-468h-138l-275 360h-4v-295l77 -22c3 -14 3 -28 0 -43h-227c-3 15 -3 29 0 43l72 19v403l-72 22c-3 14 -3 28 0 43h240z" />
    <glyph glyph-name="Nacute.sc" unicode="&#xe05c;" horiz-adv-x="718" 
d="M286 530l245 -319h4v254l-78 22c-3 14 -3 28 0 43h228c3 -15 3 -29 0 -43l-72 -19v-468h-138l-275 360h-4v-295l77 -22c3 -14 3 -28 0 -43h-227c-3 15 -3 29 0 43l72 19v403l-72 22c-3 14 -3 28 0 43h240zM313 631l134 153c28 -23 51 -47 68 -74l-158 -127
c-18 12 -33 28 -44 48z" />
    <glyph glyph-name="Ncaron.sc" unicode="&#xe05d;" horiz-adv-x="718" 
d="M286 530l245 -319h4v254l-78 22c-3 14 -3 28 0 43h228c3 -15 3 -29 0 -43l-72 -19v-468h-138l-275 360h-4v-295l77 -22c3 -14 3 -28 0 -43h-227c-3 15 -3 29 0 43l72 19v403l-72 22c-3 14 -3 28 0 43h240zM527 737l-146 -154h-9l-144 153c10 17 24 33 42 48l107 -89
l107 89c19 -15 33 -30 43 -47z" />
    <glyph glyph-name="Ncommaaccent.sc" unicode="&#xe05e;" horiz-adv-x="718" 
d="M286 530l245 -319h4v254l-78 22c-3 14 -3 28 0 43h228c3 -15 3 -29 0 -43l-72 -19v-468h-138l-275 360h-4v-295l77 -22c3 -14 3 -28 0 -43h-227c-3 15 -3 29 0 43l72 19v403l-72 22c-3 14 -3 28 0 43h240zM272 -207c25 31 37 73 37 124c0 9 -1 23 -2 42c17 2 34 3 51 3
c18 0 35 -1 52 -3c3 -95 -29 -158 -97 -189c-15 3 -29 11 -41 23z" />
    <glyph glyph-name="Ntilde.sc" unicode="&#xe05f;" horiz-adv-x="718" 
d="M286 530l245 -319h4v254l-78 22c-3 14 -3 28 0 43h228c3 -15 3 -29 0 -43l-72 -19v-468h-138l-275 360h-4v-295l77 -22c3 -14 3 -28 0 -43h-227c-3 15 -3 29 0 43l72 19v403l-72 22c-3 14 -3 28 0 43h240zM275 597c-10 -2 -20 -3 -29 -3c-10 0 -20 1 -29 3
c0 77 36 138 97 138c19 0 44 -9 73 -28c29 -18 50 -27 61 -27c23 0 35 25 36 56c21 4 40 4 58 0c0 -77 -32 -137 -92 -137c-25 0 -51 9 -79 27c-28 19 -47 28 -57 28c-21 0 -35 -29 -39 -57z" />
    <glyph glyph-name="O.sc" unicode="&#xe061;" horiz-adv-x="683" 
d="M342 540c91 0 163 -23 217 -68s81 -114 81 -207c0 -187 -117 -275 -298 -275c-184 0 -299 88 -299 275s115 275 299 275zM342 464c-91 0 -125 -64 -125 -199c0 -136 32 -199 125 -199c91 0 124 64 124 199s-36 199 -124 199z" />
    <glyph glyph-name="OE.sc" unicode="&#xe062;" horiz-adv-x="933" 
d="M432 78v374c-20 10 -43 15 -68 15c-61 0 -102 -24 -122 -65s-26 -83 -26 -140c0 -59 6 -98 26 -138c20 -39 61 -60 122 -60c27 0 50 5 68 14zM695 235h-91v-157h174l42 104c10 2 20 3 30 3c11 0 21 -1 30 -3v-182h-436c-33 -7 -66 -10 -98 -10c-195 0 -303 91 -303 276
c0 175 107 274 303 274c31 0 64 -3 97 -10h418v-172c-20 -4 -42 -4 -62 0l-41 94h-154v-145h91l19 45c15 3 29 3 43 0v-177c-14 -3 -28 -3 -43 0z" />
    <glyph glyph-name="Oacute.sc" unicode="&#xe063;" horiz-adv-x="683" 
d="M342 540c91 0 163 -23 217 -68s81 -114 81 -207c0 -187 -117 -275 -298 -275c-184 0 -299 88 -299 275s115 275 299 275zM342 464c-91 0 -125 -64 -125 -199c0 -136 32 -199 125 -199c91 0 124 64 124 199s-36 199 -124 199zM292 631l134 153c28 -23 51 -47 68 -74
l-158 -127c-18 12 -33 28 -44 48z" />
    <glyph glyph-name="Ocircumflex.sc" unicode="&#xe065;" horiz-adv-x="683" 
d="M342 540c91 0 163 -23 217 -68s81 -114 81 -207c0 -187 -117 -275 -298 -275c-184 0 -299 88 -299 275s115 275 299 275zM342 464c-91 0 -125 -64 -125 -199c0 -136 32 -199 125 -199c91 0 124 64 124 199s-36 199 -124 199zM192 632l144 152h9l146 -154
c-11 -18 -25 -34 -43 -47l-107 89l-107 -89c-19 13 -33 29 -42 49z" />
    <glyph glyph-name="Odieresis.sc" unicode="&#xe066;" horiz-adv-x="683" 
d="M285 623c-23 -3 -45 -5 -65 -5c-21 0 -42 2 -64 5c-4 21 -6 42 -6 65c0 21 2 43 6 65c22 3 43 5 64 5c20 0 42 -2 65 -5c3 -25 5 -46 5 -65c0 -20 -2 -42 -5 -65zM527 623c-23 -3 -45 -5 -65 -5c-21 0 -42 2 -64 5c-4 21 -6 42 -6 65c0 21 2 43 6 65c22 3 43 5 64 5
c20 0 42 -2 65 -5c3 -25 5 -46 5 -65c0 -20 -2 -42 -5 -65zM342 540c91 0 163 -23 217 -68s81 -114 81 -207c0 -187 -117 -275 -298 -275c-184 0 -299 88 -299 275s115 275 299 275zM342 464c-91 0 -125 -64 -125 -199c0 -136 32 -199 125 -199c91 0 124 64 124 199
s-36 199 -124 199z" />
    <glyph glyph-name="Ograve.sc" unicode="&#xe067;" horiz-adv-x="683" 
d="M342 540c91 0 163 -23 217 -68s81 -114 81 -207c0 -187 -117 -275 -298 -275c-184 0 -299 88 -299 275s115 275 299 275zM342 464c-91 0 -125 -64 -125 -199c0 -136 32 -199 125 -199c91 0 124 64 124 199s-36 199 -124 199zM281 784l134 -153c-10 -19 -25 -35 -44 -48
l-158 127c17 27 40 51 68 74z" />
    <glyph glyph-name="Ohungarumlaut.sc" unicode="&#xe068;" horiz-adv-x="683" 
d="M342 540c91 0 163 -23 217 -68s81 -114 81 -207c0 -187 -117 -275 -298 -275c-184 0 -299 88 -299 275s115 275 299 275zM342 464c-91 0 -125 -64 -125 -199c0 -136 32 -199 125 -199c91 0 124 64 124 199s-36 199 -124 199zM180 628l126 158c27 -19 51 -43 72 -70
l-151 -133c-18 11 -34 26 -47 45zM369 628l126 158c27 -19 51 -43 72 -70l-151 -133c-18 11 -34 26 -47 45z" />
    <glyph glyph-name="Omacron.sc" unicode="&#xe069;" horiz-adv-x="683" 
d="M342 540c91 0 163 -23 217 -68s81 -114 81 -207c0 -187 -117 -275 -298 -275c-184 0 -299 88 -299 275s115 275 299 275zM342 464c-91 0 -125 -64 -125 -199c0 -136 32 -199 125 -199c91 0 124 64 124 199s-36 199 -124 199zM495 620h-307c-2 14 -3 28 -3 42
c0 13 1 27 3 41h307c2 -14 3 -28 3 -41c0 -14 -1 -28 -3 -42z" />
    <glyph glyph-name="Oslash.sc" unicode="&#xe06f;" horiz-adv-x="683" 
d="M43 265c0 187 115 275 299 275c49 0 93 -7 131 -20l39 60c17 -7 33 -17 49 -31l-35 -53c76 -47 114 -124 114 -231c0 -187 -117 -275 -298 -275c-50 0 -94 6 -133 19l-42 -65c-17 7 -33 18 -48 31l37 58c-75 45 -113 123 -113 232zM342 464c-55 0 -91 -23 -107 -70
c-16 -45 -19 -83 -19 -147c0 -40 4 -73 11 -98h4l187 288c-18 18 -43 27 -76 27zM454 379h-4l-187 -287c19 -17 46 -26 79 -26c44 0 77 19 93 43c9 13 15 29 20 48c11 40 11 68 11 116c0 45 -4 80 -12 106z" />
    <glyph glyph-name="Otilde.sc" unicode="&#xe071;" horiz-adv-x="683" 
d="M342 540c91 0 163 -23 217 -68s81 -114 81 -207c0 -187 -117 -275 -298 -275c-184 0 -299 88 -299 275s115 275 299 275zM342 464c-91 0 -125 -64 -125 -199c0 -136 32 -199 125 -199c91 0 124 64 124 199s-36 199 -124 199zM237 597c-10 -2 -20 -3 -29 -3
c-10 0 -20 1 -29 3c0 77 36 138 97 138c19 0 44 -9 73 -28c29 -18 50 -27 61 -27c23 0 35 25 36 56c21 4 40 4 58 0c0 -77 -32 -137 -92 -137c-25 0 -51 9 -79 27c-28 19 -47 28 -57 28c-21 0 -35 -29 -39 -57z" />
    <glyph glyph-name="P.sc" unicode="&#xe072;" horiz-adv-x="628" 
d="M311 452h-16v-203h16c81 0 106 21 106 101c0 79 -25 102 -106 102zM326 171h-31v-106l74 -22c3 -14 3 -28 0 -43h-321c-3 14 -3 28 0 43l75 22v400l-75 22c-3 14 -3 28 0 43h280c73 0 128 -9 180 -33c53 -24 84 -74 84 -146c-1 -139 -139 -180 -266 -180z" />
    <glyph glyph-name="Q.sc" unicode="&#xe077;" horiz-adv-x="683" 
d="M342 464c-81 0 -125 -55 -125 -199c0 -145 42 -199 125 -199c81 0 124 55 124 199s-44 199 -124 199zM43 265c0 176 102 275 299 275c196 0 298 -99 298 -275c0 -151 -73 -245 -220 -270c10 -39 38 -61 85 -67c0 -17 -4 -33 -11 -48c-125 0 -201 39 -230 116
c-147 23 -221 112 -221 269z" />
    <glyph glyph-name="R.sc" unicode="&#xe079;" horiz-adv-x="702" 
d="M311 452h-16v-183h16c42 0 70 5 84 16c15 11 22 36 22 75s-7 64 -22 75c-14 11 -42 17 -84 17zM455 0l-135 196h-25v-131l58 -22c3 -14 3 -28 0 -43h-305c-3 14 -3 28 0 43l75 22v400l-75 22c-3 14 -3 28 0 43h280c60 0 103 -3 151 -18c67 -19 113 -62 113 -148
c0 -64 -32 -114 -88 -138l112 -161l71 -22c3 -14 3 -28 0 -43h-232z" />
    <glyph glyph-name="Racute.sc" unicode="&#xe07b;" horiz-adv-x="702" 
d="M311 452h-16v-183h16c42 0 70 5 84 16c15 11 22 36 22 75s-7 64 -22 75c-14 11 -42 17 -84 17zM455 0l-135 196h-25v-131l58 -22c3 -14 3 -28 0 -43h-305c-3 14 -3 28 0 43l75 22v400l-75 22c-3 14 -3 28 0 43h280c60 0 103 -3 151 -18c67 -19 113 -62 113 -148
c0 -64 -32 -114 -88 -138l112 -161l71 -22c3 -14 3 -28 0 -43h-232zM281 631l134 153c28 -23 51 -47 68 -74l-158 -127c-18 12 -33 28 -44 48z" />
    <glyph glyph-name="Rcaron.sc" unicode="&#xe07c;" horiz-adv-x="702" 
d="M311 452h-16v-183h16c42 0 70 5 84 16c15 11 22 36 22 75s-7 64 -22 75c-14 11 -42 17 -84 17zM455 0l-135 196h-25v-131l58 -22c3 -14 3 -28 0 -43h-305c-3 14 -3 28 0 43l75 22v400l-75 22c-3 14 -3 28 0 43h280c60 0 103 -3 151 -18c67 -19 113 -62 113 -148
c0 -64 -32 -114 -88 -138l112 -161l71 -22c3 -14 3 -28 0 -43h-232zM481 737l-146 -154h-9l-144 153c10 17 24 33 42 48l107 -89l107 89c19 -15 33 -30 43 -47z" />
    <glyph glyph-name="Rcommaaccent.sc" unicode="&#xe07d;" horiz-adv-x="702" 
d="M311 452h-16v-183h16c42 0 70 5 84 16c15 11 22 36 22 75s-7 64 -22 75c-14 11 -42 17 -84 17zM455 0l-135 196h-25v-131l58 -22c3 -14 3 -28 0 -43h-305c-3 14 -3 28 0 43l75 22v400l-75 22c-3 14 -3 28 0 43h280c60 0 103 -3 151 -18c67 -19 113 -62 113 -148
c0 -64 -32 -114 -88 -138l112 -161l71 -22c3 -14 3 -28 0 -43h-232zM306 -207c25 31 37 73 37 124c0 9 -1 23 -2 42c17 2 34 3 51 3s35 -1 52 -3c3 -95 -29 -158 -97 -189c-15 3 -29 11 -41 23z" />
    <glyph glyph-name="S.sc" unicode="&#xe082;" horiz-adv-x="565" 
d="M70 31v144c11 2 21 3 32 3c10 0 20 -1 30 -3l39 -101c24 -7 53 -10 87 -10c75 0 112 18 112 55c0 36 -46 54 -105 67s-122 27 -163 79c-20 27 -30 61 -30 102s13 75 38 102c52 55 123 71 208 71c70 0 127 -11 171 -34v-139c-9 -2 -20 -3 -32 -3c-11 0 -21 1 -30 3l-39 92
c-21 5 -45 8 -72 8c-73 0 -109 -18 -109 -54c0 -39 48 -58 108 -73c86 -17 198 -49 197 -164c0 -142 -129 -186 -252 -186c-80 0 -143 14 -190 41z" />
    <glyph glyph-name="Sacute.sc" unicode="&#xe083;" horiz-adv-x="565" 
d="M70 31v144c11 2 21 3 32 3c10 0 20 -1 30 -3l39 -101c24 -7 53 -10 87 -10c75 0 112 18 112 55c0 36 -46 54 -105 67s-122 27 -163 79c-20 27 -30 61 -30 102s13 75 38 102c52 55 123 71 208 71c70 0 127 -11 171 -34v-139c-9 -2 -20 -3 -32 -3c-11 0 -21 1 -30 3l-39 92
c-21 5 -45 8 -72 8c-73 0 -109 -18 -109 -54c0 -39 48 -58 108 -73c86 -17 198 -49 197 -164c0 -142 -129 -186 -252 -186c-80 0 -143 14 -190 41zM240 631l134 153c28 -23 51 -47 68 -74l-158 -127c-18 12 -33 28 -44 48z" />
    <glyph glyph-name="Scaron.sc" unicode="&#xe084;" horiz-adv-x="565" 
d="M70 31v144c11 2 21 3 32 3c10 0 20 -1 30 -3l39 -101c24 -7 53 -10 87 -10c75 0 112 18 112 55c0 36 -46 54 -105 67s-122 27 -163 79c-20 27 -30 61 -30 102s13 75 38 102c52 55 123 71 208 71c70 0 127 -11 171 -34v-139c-9 -2 -20 -3 -32 -3c-11 0 -21 1 -30 3l-39 92
c-21 5 -45 8 -72 8c-73 0 -109 -18 -109 -54c0 -39 48 -58 108 -73c86 -17 198 -49 197 -164c0 -142 -129 -186 -252 -186c-80 0 -143 14 -190 41zM451 737l-146 -154h-9l-144 153c10 17 24 33 42 48l107 -89l107 89c19 -15 33 -30 43 -47z" />
    <glyph glyph-name="Scedilla.sc" unicode="&#xe085;" horiz-adv-x="565" 
d="M70 31v144c11 2 21 3 32 3c10 0 20 -1 30 -3l39 -101c24 -7 53 -10 87 -10c75 0 112 18 112 55c0 36 -46 54 -105 67s-122 27 -163 79c-20 27 -30 61 -30 102s13 75 38 102c52 55 123 71 208 71c70 0 127 -11 171 -34v-139c-9 -2 -20 -3 -32 -3c-11 0 -21 1 -30 3l-39 92
c-21 5 -45 8 -72 8c-73 0 -109 -18 -109 -54c0 -39 48 -58 108 -73c86 -17 198 -49 197 -164c0 -97 -60 -154 -152 -175c14 -33 21 -63 21 -92c0 -75 -42 -115 -119 -115c-37 0 -66 9 -89 28c2 17 8 34 19 52c15 -7 29 -11 44 -11c44 0 62 37 62 85c0 14 -2 28 -5 43
c-7 -1 -18 -1 -33 -1c-80 0 -143 14 -190 41z" />
    </font>
</defs>
</svg>
