<?xml version="1.0" encoding="UTF-8"?>
<svg width="15px" height="11px" viewBox="0 0 15 11" version="1.1" xmlns="http://www.w3.org/2000/svg" xmlns:xlink="http://www.w3.org/1999/xlink">
    <!-- Generator: Sketch 53.2 (72643) - https://sketchapp.com -->
    <title>Path</title>
    <desc>Created with Sketch.</desc>
    <g id="Page-1" stroke="none" stroke-width="1" fill="none" fill-rule="evenodd">
        <g id="Desktop-HD-Copy-13" transform="translate(-313.000000, -2229.000000)" fill="#FFFFFF" fill-rule="nonzero">
            <g id="Group-7" transform="translate(268.000000, 2088.000000)">
                <g id="Group-4" transform="translate(40.000000, 130.000000)">
                    <g id="Group-3">
                        <g id="accept-circular-button-outline" transform="translate(0.000000, 4.000000)">
                            <g id="Group">
                                <path d="M10.380017,17.3285289 C10.1310799,17.3285289 9.89702381,17.2315901 9.7210034,17.0555697 L6.16011905,13.4946854 C5.79676871,13.1312925 5.79676871,12.540051 6.16011905,12.1766582 C6.33613946,12.0005952 6.57019558,11.9036565 6.81913265,11.9036565 C7.06806973,11.9036565 7.30208333,12.0005952 7.47814626,12.1766582 L10.3800595,15.0785714 L17.5180272,7.94056122 C17.6940476,7.7644983 17.9281037,7.66760204 18.1770408,7.66760204 C18.4259354,7.66760204 18.6599915,7.76454082 18.8360544,7.94056122 C19.0121173,8.11658163 19.1090561,8.35063776 19.1090561,8.59957483 C19.1090561,8.8485119 19.0121173,9.08252551 18.8360544,9.25858844 L11.0390306,17.0555697 C10.8630527,17.2315901 10.6289966,17.3285289 10.380017,17.3285289 Z" id="Path"></path>
                            </g>
                        </g>
                    </g>
                </g>
            </g>
        </g>
    </g>
</svg>