<?xml version="1.0" encoding="UTF-8"?>
<svg width="262px" height="128px" viewBox="0 0 262 128" version="1.1" xmlns="http://www.w3.org/2000/svg" xmlns:xlink="http://www.w3.org/1999/xlink">
    <!-- Generator: Sketch 53.2 (72643) - https://sketchapp.com -->
    <title>dumbbell-3</title>
    <desc>Created with Sketch.</desc>
    <g id="Page-1" stroke="none" stroke-width="1" fill="none" fill-rule="evenodd">
        <g id="Desktop-HD-Copy-13" transform="translate(-906.000000, -1017.000000)">
            <g id="dumbbell-3" transform="translate(906.000000, 1017.000000)">
                <path d="M41,34.7527476 L41,91.2512571 C41,101.606714 32.4951414,110 21.9959421,110 C11.5048586,110 3,101.606714 3,91.2512571 L3,34.7527476 C3,24.3972904 11.5048586,16 21.9959421,16 C27.2465566,16 31.9940201,18.0983216 35.4328884,21.492076 C38.8737854,24.887833 41,29.5730166 41,34.7527476 Z" id="Path" fill="#DFD31C"></path>
                <path d="M41,35.4397871 L41,67.7733088 C41,78.1050631 33.0711685,86.8027343 23.0295469,86.9959265 C22.9297762,86.9979388 22.8319616,86.9999511 22.7341475,86.9999511 C16.796816,87.0180627 12,82.0071419 12,75.9014656 L12,35.4397871 C12,26.3778683 18.215124,18.8111763 26.4960877,17 C30.0271858,17.768744 33.1748516,19.5859576 35.6319482,22.1135548 C38.9498111,25.5246031 41,30.2336614 41,35.4397871 Z" id="Path" fill="#FCEE21"></path>
                <polygon id="Path" fill="#35AAF5" points="66 46 198 46 198 80 66 80"></polygon>
                <polygon id="Path" fill="#246795" points="66 68 198 68 198 81 66 81"></polygon>
                <path d="M79,21.7267515 L79,104.269248 C79,114.612559 70.4919926,123 60.0000003,123 C49.5080079,123 41,114.612559 41,104.269248 L41,21.7267515 C41,11.3834411 49.5080079,3 60.0000003,3 C65.2480246,3 69.9949822,5.09586028 73.4355118,8.48763416 C76.8740124,11.8734083 79,16.5570958 79,21.7267515 Z" id="Path" fill="#DFD31C"></path>
                <path d="M78,23.2680856 L78,73.8496893 C78,84.2118302 70.0111126,92.9017523 59.9608277,93 C59.8674814,93 59.7741351,93 59.6788442,93 C54.3133766,92.9699245 50,88.420447 50,82.8864863 L50,23.2680856 C50,14.3936976 55.9722185,6.95894175 64.0019448,5 C67.339075,5.81806375 70.3183777,7.57449475 72.6656483,9.99460015 C75.9619391,13.3891636 78,18.0850097 78,23.2680856 Z" id="Path" fill="#FCEE21"></path>
                <path d="M202,3 C191.508007,3 183,11.3853011 183,21.7304389 L183,104.269561 C183,114.614698 191.508007,123 202,123 C212.491992,123 221,114.614698 221,104.269561 L221,21.7304389 C221,11.3853011 212.491992,3 202,3 Z" id="Path" fill="#DFD31C"></path>
                <path d="M211,23.2696741 L211,73.8501252 C211,84.21203 203.011113,92.901754 192.962773,93 C192.867481,93 192.774135,93 192.680789,93 C187.313377,92.9679198 183,88.4205509 183,82.8867163 L183,23.2696741 C183,14.3954884 188.972218,6.96090251 197.003889,5 C200.34102,5.82004999 203.318378,7.57644097 205.665648,9.99649121 C208.961939,13.3889724 211,18.0867169 211,23.2696741 L211,23.2696741 Z" id="Path" fill="#FCEE21"></path>
                <path d="M239.998986,16 C229.506433,16 221,24.3951095 221,34.7523481 L221,91.2476514 C221,101.60489 229.506433,110 239.998986,110 C250.493567,110 259,101.60489 259,91.2476514 L259,34.7523481 C259,24.3951095 250.493567,16 239.998986,16 Z" id="Path" fill="#DFD31C"></path>
                <path d="M250,35.4403142 L250,67.7747601 C250,78.1068102 242.071168,86.8027172 232.029546,86.9979272 C231.931732,86.9999396 231.831962,86.9999396 231.734147,86.9999396 C225.796816,87.0200646 221,82.0090001 221,75.9011369 L221,35.4403142 C221,26.3781369 227.215124,18.8112286 235.496087,17 C239.027186,17.7687659 242.174852,19.5860316 244.631948,22.1116886 C247.949811,25.5248472 250,30.2340397 250,35.4403142 L250,35.4403142 Z" id="Path" fill="#FCEE21"></path>
                <path d="M239.378606,13.0754088 C233.563846,13.0754088 228.252806,15.288694 224.241041,18.9160786 C222.452038,8.19816904 213.13523,0 201.93747,0 C189.466419,0 179.318075,10.1670918 179.318075,22.6656443 L179.318075,42.9076914 L82.6779274,42.9076914 L82.6779274,22.6656443 C82.6779274,10.1670918 72.5335807,0 60.0605313,0 C48.862771,0 39.545963,8.19816904 37.7569598,18.9160786 C33.7451952,15.288694 28.4341549,13.0754088 22.6193953,13.0754088 C10.1463459,13.0754088 0,23.2425006 0,35.7410532 L0,92.2589468 C0,104.757499 10.1463459,114.924591 22.6193953,114.924591 C28.4361537,114.924591 33.7451952,112.711306 37.7569598,109.083921 C39.545963,119.803834 48.862771,128 60.0605313,128 C72.5335807,128 82.6799266,117.832908 82.6799266,105.334356 L82.6799266,85.0923091 L162.253584,85.0923091 C164.406384,85.0923091 166.151412,83.3437132 166.151412,81.1865112 C166.151412,79.0293092 164.406384,77.2807138 162.253584,77.2807138 L157.888017,77.2807138 L157.888017,50.7192862 L179.320074,50.7192862 L179.320074,77.2807138 L177.846894,77.2807138 C175.694094,77.2807138 173.949067,79.0293092 173.949067,81.1865112 C173.949067,83.3437132 175.694094,85.0923091 177.846894,85.0923091 L179.320074,85.0923091 L179.320074,105.334356 C179.320074,117.832908 189.466419,128 201.939469,128 C213.13523,128 222.452038,119.803834 224.24304,109.083921 C228.254805,112.711306 233.563846,114.924591 239.380605,114.924591 C251.851655,114.924591 262,104.757499 262,92.2589468 L262,35.7410532 C261.998001,23.2425006 251.851655,13.0754088 239.378606,13.0754088 Z M127.233099,50.7192862 L134.764902,50.7192862 L134.764902,77.2807138 L127.233099,77.2807138 L127.233099,50.7192862 Z M119.437443,77.2807138 L111.90564,77.2807138 L111.90564,50.7192862 L119.437443,50.7192862 L119.437443,77.2807138 Z M74.882272,105.334356 C74.882272,113.524513 68.2339765,120.186402 60.0605313,120.186402 C51.8870861,120.186402 45.2367919,113.524513 45.2367919,105.334356 L45.2367919,52.2014869 C45.2367919,50.0442844 43.4917644,48.295689 41.3389637,48.295689 C39.1861635,48.295689 37.441136,50.0442844 37.441136,52.2014869 L37.441136,92.2589468 C37.441136,100.449104 30.7908418,107.112996 22.6173966,107.112996 C14.4459501,107.112996 7.79565586,100.449104 7.79565586,92.2589468 L7.79565586,35.7410532 C7.79565586,27.550896 14.4459501,20.8870042 22.6193953,20.8870042 C30.7928405,20.8870042 37.441136,27.550896 37.441136,35.7410532 L37.441136,36.5762928 C37.441136,38.7334948 39.1861635,40.4820908 41.3409624,40.4820908 C43.4937632,40.4820908 45.2387906,38.7334948 45.2387906,36.5762928 L45.2387906,22.6656443 C45.2387906,14.4754872 51.8870861,7.81359819 60.0605313,7.81359819 C68.2339765,7.81359819 74.8842708,14.4754872 74.8842708,22.6656443 L74.8842708,105.334356 L74.882272,105.334356 Z M82.6779274,50.7192862 L104.109985,50.7192862 L104.109985,77.2807138 L82.6779274,77.2807138 L82.6779274,50.7192862 Z M150.092361,77.2807138 L142.560558,77.2807138 L142.560558,50.7192862 L150.092361,50.7192862 L150.092361,77.2807138 Z M216.759211,105.334356 C216.759211,113.524513 210.110915,120.186402 201.93747,120.186402 C193.764025,120.186402 187.11373,113.524513 187.11373,105.334356 L187.11373,22.6656443 C187.11373,14.4754872 193.764025,7.81359819 201.93747,7.81359819 C210.110915,7.81359819 216.759211,14.4754872 216.759211,22.6656443 L216.759211,105.334356 Z M254.202345,92.2589468 C254.202345,100.449104 247.552051,107.112996 239.378606,107.112996 C231.205161,107.112996 224.556865,100.449104 224.556865,92.2589468 L224.556865,35.7410532 C224.556865,27.550896 231.205161,20.8870042 239.378606,20.8870042 C247.552051,20.8870042 254.202345,27.550896 254.202345,35.7410532 L254.202345,92.2589468 Z" id="Shape" fill="#000000" fill-rule="nonzero"></path>
            </g>
        </g>
    </g>
</svg>