<?xml version="1.0" encoding="UTF-8"?>
<svg width="169px" height="80px" viewBox="0 0 169 80" version="1.1" xmlns="http://www.w3.org/2000/svg" xmlns:xlink="http://www.w3.org/1999/xlink">
    <!-- Generator: Sketch 53.2 (72643) - https://sketchapp.com -->
    <title>Group 24</title>
    <desc>Created with Sketch.</desc>
    <g id="Page-1" stroke="none" stroke-width="1" fill="none" fill-rule="evenodd">
        <g id="Desktop-HD-Copy-13" transform="translate(-130.000000, -6938.000000)" fill="#FFFFFF">
            <g id="Group-23" transform="translate(0.000000, 6828.000000)">
                <g id="Group-27" transform="translate(130.000000, 110.000000)">
                    <g id="Group-24">
                        <path d="M31,53.8643335 C31,62.6334957 24.4980275,69 15.5208657,69 C6.79554081,69 0,61.9592136 0,52.9788832 C0,44.1671961 7.13142002,37 15.9404973,37 C20.0095915,37 23.8688698,38.5597324 26.8471534,41.3424931 C27.8539217,42.3121194 27.8959428,43.9563191 26.9309059,44.9681791 C25.9661587,45.9803304 24.3719641,46.0645064 23.3651958,45.0948801 C21.3519491,43.1553361 18.7089651,42.1012424 15.9404973,42.1012424 C9.94161915,42.1012424 5.11759372,46.9918991 5.11759372,52.9788832 C5.11759372,59.0919856 9.69007198,63.8984663 15.5208657,63.8984663 C20.9323175,63.8984663 24.9173694,60.6097756 25.7563429,55.7613526 L20.2611386,55.7613526 C18.8347387,55.7613526 17.7021969,54.6230829 17.7021969,53.1897602 C17.7021969,51.7983798 18.8347387,50.6598189 20.2611386,50.6598189 L28.3990371,50.6598189 C29.825437,50.6598189 30.9579789,51.7983798 30.9579789,53.1897602 L30.9579789,53.4003459 C31,53.5270468 31,53.6956902 31,53.8643335" id="Fill-1"></path>
                        <path d="M53,50.5600118 L53,69.2055047 C53,75.136125 48.4152887,80 42.8389878,80 C39.8653601,80 37.0977547,78.6346604 35.1565217,76.2456108 C34.2890591,75.1788655 34.4131862,73.5576721 35.4042052,72.6188537 C36.3957948,71.6800354 37.9238417,71.8079623 38.7913043,72.9174481 C39.8239844,74.1548608 41.3109409,74.8802712 42.8389878,74.8802712 C45.7718105,74.8802712 48.16732,72.3199646 48.16732,69.2055047 L48.16732,67.4560896 C46.8042052,68.2666863 45.1934069,68.7786887 43.458767,68.7786887 C38.2542765,68.7786887 34,64.0854811 34,58.2827877 L34,50.6451981 C34,49.2798585 35.0740557,48.0851863 36.3957948,48.0851863 C37.7172486,48.0851863 38.7913043,49.2798585 38.7913043,50.6451981 L38.7913043,58.2827877 C38.7913043,61.226875 40.8977547,63.6586651 43.458767,63.6586651 C46.0608696,63.6586651 48.16732,61.226875 48.16732,58.2827877 L48.16732,50.5600118 C48.16732,49.1522264 49.2827514,48 50.5628295,48 C51.9259443,48 53,49.1522264 53,50.5600118" id="Fill-3"></path>
                        <path d="M86,56.1156265 L86,56.282956 L86,66.4062478 C86,67.8284043 84.8744716,68.9161907 83.4460312,68.9161907 C82.0178899,68.9161907 80.8059434,67.8284043 80.8059434,66.4062478 L80.8059434,56.282956 L80.8059434,56.1156265 L80.8059434,55.9899126 C80.8059434,54.358522 79.2907859,53.103406 77.5163742,53.103406 C75.6118867,53.103406 74.0970283,54.358522 74.0970283,55.9899126 L74.0970283,56.1156265 L74.0970283,56.282956 L74.0970283,66.4062478 C74.0970283,67.8284043 72.9281413,68.9161907 71.5430595,68.9161907 C70.0715597,68.9161907 68.9460312,67.8284043 68.9460312,66.4062478 L68.9460312,56.282956 L68.9460312,56.1156265 L68.9460312,55.9899126 C68.9460312,54.358522 67.4311728,53.103406 65.5700439,53.103406 C63.7089151,53.103406 62.1937576,54.358522 62.1937576,55.9899126 L62.1937576,66.5316727 C62.1937576,67.870309 61.0685282,69 59.5970283,69 C58.2119465,69 57,67.870309 57,66.5316727 L57,50.5518475 C57,49.1713067 58.2119465,48 59.5970283,48 C60.4193459,48 61.1983048,48.4181793 61.5879338,49.0042662 C62.7998804,48.4181793 64.1416036,48.0838093 65.5700439,48.0838093 C67.8641604,48.0838093 69.941783,48.9204569 71.5430595,50.3426134 C73.058217,48.9204569 75.1355406,48.0838093 77.5163742,48.0838093 C82.1476666,48.0838093 86,51.6396339 86,55.9899126 L86,56.1156265 Z" id="Fill-5"></path>
                        <path d="M105.830977,58.3332362 C105.830977,55.2557138 103.267861,52.7682975 100.192418,52.7682975 C97.0738873,52.7682975 94.5532691,55.2557138 94.5532691,58.3332362 C94.5532691,61.4110499 97.0738873,63.8984663 100.192418,63.8984663 C103.267861,63.8984663 105.830977,61.4110499 105.830977,58.3332362 M111,58.3332362 C111,64.235753 106.130228,69 100.192418,69 C97.9282591,69 95.792182,68.3254267 94.0834384,67.1449233 C93.7416897,68.1570746 92.7592359,68.9155327 91.6059078,68.9155327 C90.1533281,68.9155327 89,67.777263 89,66.3858827 L89,39.5718837 C89,38.1805033 90.1533281,37 91.6059078,37 C93.0153999,37 94.168728,38.1805033 94.168728,39.5718837 L94.168728,49.4373731 C95.920264,48.3410458 97.9707563,47.6667638 100.192418,47.6667638 C106.130228,47.6667638 111,52.4307195 111,58.3332362" id="Fill-7"></path>
                        <path d="M128.231258,58.3943286 C128.231258,55.4790242 125.865557,53.1125104 123.043403,53.1125104 C120.179676,53.1125104 117.814262,55.4790242 117.814262,58.3943286 C117.814262,61.3099249 120.179676,63.6338198 123.043403,63.6338198 C125.865557,63.6338198 128.231258,61.3099249 128.231258,58.3943286 M134,50.4085488 L134,66.5917431 C134,67.901543 132.962372,69 131.593012,69 C130.223366,69 129.393321,67.901543 129.393321,66.5917431 L129.393321,66.0846956 C127.608509,67.6478732 125.533539,68.5776063 123.043403,68.5776063 C117.482244,68.5776063 113,64.0141785 113,58.3943286 C113,52.7744787 117.482244,48.1690158 123.043403,48.1690158 C125.533539,48.1690158 127.608509,49.140784 129.393321,50.6195997 L129.393321,50.4085488 C129.393321,49.098457 130.223366,48 131.593012,48 C132.962372,48 134,49.098457 134,50.4085488" id="Fill-9"></path>
                        <path d="M146,66.4284076 C146,67.8617303 144.909295,69 143.535866,69 C141.838965,69 140.182534,68.1148409 139.132297,66.7234606 C137.920186,65.0789696 138.001123,63.223893 138.001123,61.2424066 L138.001123,48.6363901 L138.001123,39.52965 C138.001123,38.1382697 139.091829,37 140.425068,37 C141.798497,37 142.889202,38.1382697 142.889202,39.52965 L142.889202,62.4229099 C142.889202,62.5496109 142.849012,62.6760206 142.849012,62.8024303 C142.849012,62.9288399 142.889202,63.0555409 142.889202,63.1819506 C142.889202,63.5611796 143.172205,63.8984663 143.535866,63.8984663 C144.909295,63.8984663 146,65.0370273 146,66.4284076" id="Fill-11"></path>
                        <path d="M163.231258,58.3943286 C163.231258,55.4790242 160.865844,53.1125104 158.043403,53.1125104 C155.179963,53.1125104 152.814262,55.4790242 152.814262,58.3943286 C152.814262,61.3099249 155.179963,63.6338198 158.043403,63.6338198 C160.865844,63.6338198 163.231258,61.3099249 163.231258,58.3943286 M169,50.4085488 L169,66.5917431 C169,67.901543 167.962659,69 166.593012,69 C165.223366,69 164.393608,67.901543 164.393608,66.5917431 L164.393608,66.0846956 C162.608795,67.6478732 160.533826,68.5776063 158.043403,68.5776063 C152.482244,68.5776063 148,64.0141785 148,58.3943286 C148,52.7744787 152.482244,48.1690158 158.043403,48.1690158 C160.533826,48.1690158 162.608795,49.140784 164.393608,50.6195997 L164.393608,50.4085488 C164.393608,49.098457 165.223366,48 166.593012,48 C167.962659,48 169,49.098457 169,50.4085488" id="Fill-13"></path>
                        <path d="M101.539862,20.9997984 C100.472882,21.0168919 99.7096106,19.9438367 100.106654,18.9344399 C100.745775,17.3170473 101.41986,15.7123274 102.083278,14.1043656 C103.039738,11.7802478 101.816903,14.6719855 102.776622,12.3502255 C103.865825,9.717247 104.95562,7.08485797 106.046008,4.45276365 C106.359198,3.69888421 106.686018,2.94942549 106.978171,2.18699934 C107.364251,1.18408623 108.210487,0.757339776 109.116872,1.13752135 C109.949181,1.48705263 110.214371,2.3888787 109.821772,3.32282864 C108.718939,5.95079695 107.643663,8.5876067 106.553275,11.2194063 C105.470591,13.8317548 106.562757,11.22589 105.483629,13.8391226 C104.667023,15.8134144 103.858121,17.790948 103.056627,19.7729024 C102.752029,20.5309078 102.206539,20.9903676 101.539862,20.9997984" id="Fill-233" opacity="0.5"></path>
                        <path d="M94.0004418,17.2031448 C94.159713,16.3464569 94.3503346,15.2800558 94.5569113,14.2153808 C94.7685264,13.1334454 94.9960967,12.0535238 95.2166691,10.9733145 C95.6418587,8.89143034 96.0922407,6.81386131 96.4832808,4.72478539 C96.7119707,3.50016459 96.8804791,2.26058484 97.2323313,1.06386826 C97.4610212,0.28485179 98.2431014,-0.161327879 98.9042588,0.0541386411 C99.7515591,0.329153318 100.150717,1.13521098 99.9480589,1.98125508 C99.7031339,2.99328608 99.5427431,4.02487879 99.3333673,5.04496461 C98.9132161,7.10958839 98.4745905,9.16644502 98.0656358,11.2319318 C97.7479332,12.835417 97.4660596,14.4483953 97.161233,16.0550449 C97.0478678,16.6577182 96.9437397,17.2629807 96.7869878,17.8555855 C96.5927273,18.5986429 95.8876234,19.083083 95.210511,18.9881512 C94.4785353,18.8863152 93.9830872,18.2482581 94.0004418,17.2031448" id="Fill-235" opacity="0.5"></path>
                        <path d="M77.9998959,19.4116965 C78.0081329,20.1449567 77.5266933,20.8006169 76.8580745,20.9646077 C76.1976927,21.1285985 75.4671542,20.7093761 75.1862434,19.9830878 C74.2176834,17.4765442 73.2559403,14.9681819 72.292493,12.4586071 C71.2444032,9.7304789 70.2022781,7.00144132 69.1479395,4.275435 C68.7877829,3.34393079 69.0922686,2.5227642 69.9844231,2.11142309 C70.6754807,1.79314147 71.485265,2.17538254 71.8110533,3.02019291 C73.0636485,6.26181546 74.3011898,9.51101614 75.5475362,12.7559731 C76.305626,14.7259847 77.0657042,16.6969058 77.8382799,18.6602487 C77.935704,18.9079022 77.9805815,19.1525243 77.9998959,19.4116965" id="Fill-237" opacity="0.5"></path>
                        <path d="M112.001938,24.4851441 C111.977424,24.0263189 112.188005,23.6669696 112.491619,23.3653045 C115.449197,20.4089866 118.407367,17.4523745 121.379713,14.5116549 C122.067275,13.8318049 122.94681,13.8412227 123.570873,14.4698633 C124.151815,15.0570066 124.148567,15.9973187 123.526571,16.6194846 C120.553339,19.5822772 117.574791,22.5400665 114.590041,25.4919698 C114.167698,25.908709 113.678017,26.1476867 113.055726,25.8989969 C112.403901,25.6388292 112.048307,25.1800039 112.001938,24.4851441" id="Fill-239" opacity="0.5"></path>
                        <path d="M50.4690349,20.0039223 C50.754703,19.9779022 51.0414827,20.0831015 51.3174247,20.2672003 C54.2641415,22.2581529 57.2147486,24.2409918 60.1617433,26.2313849 C60.8486806,26.6944296 61.1085053,27.2567982 60.9592798,27.8793206 C60.8197804,28.465471 60.3637673,28.8918639 59.7685328,28.9827941 C59.4220073,29.0370725 59.1154977,28.9629294 58.8148236,28.7603648 C56.3566327,27.1023567 53.890661,25.4555401 51.4288575,23.8028479 C50.8047227,23.3837295 50.1741964,22.9716056 49.5720147,22.5228299 C49.0823773,22.1568706 48.8911909,21.5284727 49.0604242,21.0391281 C49.2974621,20.3556125 49.7504183,20.0106371 50.4690349,20.0039223" id="Fill-241" opacity="0.5"></path>
                        <path d="M121.005671,31.5860687 C120.948523,30.997753 121.328299,30.5736059 121.919129,30.356688 C124.891421,29.2567583 127.877017,28.1832033 130.864125,27.1131469 C131.72225,26.8055326 132.533809,27.1419437 132.898769,27.9183805 C133.193579,28.5430286 132.826201,29.3181197 132.034295,29.6230427 C130.578386,30.1841764 129.107358,30.7165133 127.641774,31.2561167 C126.174072,31.7951818 124.699719,32.3245583 123.235041,32.8673913 C122.109319,33.2856175 121.005671,32.6755024 121.005671,31.5860687" id="Fill-243" opacity="0.5"></path>
                        <path d="M107.00096,21.4143964 C106.989428,21.0932263 107.082277,20.8108448 107.254077,20.5427375 C108.888692,17.9770999 110.506157,15.3990499 112.1526,12.8433422 C112.740447,11.9307224 113.543561,11.7659482 114.330412,12.3142648 C115.083849,12.8386876 115.220461,13.7205867 114.64326,14.6353786 C113.056252,17.1544698 111.457416,19.6670446 109.849709,22.1706203 C109.379254,22.9032606 108.71837,23.1487153 108.056895,22.9141215 C107.452194,22.700939 107.009239,22.0713213 107.00096,21.4143964" id="Fill-245" opacity="0.5"></path>
                        <path d="M71.9935725,21.4447912 C71.98681,22.1558961 71.6116255,22.7143278 71.0408689,22.9268959 C70.5109579,23.1247838 69.8809617,22.918675 69.5128101,22.3358743 C68.5909436,20.8716794 67.6993731,19.3851707 66.7972531,17.9074701 C66.2768096,17.0557297 65.7487922,16.2066317 65.2429558,15.3443216 C64.8234091,14.6279319 64.9608235,13.7929268 65.5502446,13.3319711 C66.2178405,12.8102397 67.0036452,12.8945036 67.4797265,13.6484744 C68.7702856,15.69547 70.0254091,17.7706514 71.281344,19.8440712 C71.5913379,20.3552329 72.0603862,20.7979852 71.9935725,21.4447912" id="Fill-247" opacity="0.5"></path>
                        <path d="M89.9890978,13.5197478 C89.9890978,14.4991836 90.0183707,15.4808607 89.9809826,16.4594561 C89.9351894,17.6355635 89.1625013,18.2068077 88.0640438,17.9319717 C87.4855422,17.7882502 87.0163066,17.2354965 87.0113795,16.6051388 C86.9977575,14.5454099 86.9936999,12.4851207 87.0142778,10.4253918 C87.0226829,9.6784879 87.6840761,9.05345319 88.4274912,9.00302457 C89.1720657,8.95483723 89.884469,9.48685915 89.9351894,10.2827908 C90.0070673,11.3586014 89.952869,12.4405754 89.952869,13.5197478 L89.9890978,13.5197478 Z" id="Fill-249" opacity="0.5"></path>
                        <path d="M125.987238,23.5493017 C126.025499,24.192518 125.822939,24.6227882 125.3714,24.9517447 C123.672147,26.1956507 121.98893,27.4667612 120.293616,28.7159831 C119.59816,29.2269289 118.751628,29.0296175 118.286022,28.2757066 C117.802129,27.4914643 117.934074,26.6334255 118.667791,26.0824546 C120.381392,24.7938331 122.101745,23.5136543 123.835601,22.2566151 C124.300083,21.9195285 124.842212,21.9217173 125.328074,22.2209677 C125.796775,22.5086483 126.062917,22.972377 125.987238,23.5493017" id="Fill-251" opacity="0.5"></path>
                        <path d="M56.9999642,32.4813671 C56.9936871,33.4914883 55.9708208,34.2749683 54.9951821,33.9080819 C53.2722712,33.2595213 51.5750664,32.5384712 49.8829431,31.8073612 C49.164665,31.4955077 48.8358652,30.6667586 49.0797749,30.01376 C49.3520809,29.2761407 50.0619895,28.8562925 50.8606741,29.0450614 C52.1456835,29.3533644 53.3012654,30.01376 54.5435308,30.4439639 C55.0232796,30.6072875 55.4794146,30.835408 55.9516906,31.0259523 C56.5877688,31.286915 57.0044478,31.8582519 56.9999642,32.4813671" id="Fill-253" opacity="0.5"></path>
                        <path d="M80.000486,13.6301826 C79.9812028,12.743781 80.5372539,12.104462 81.404681,12.0092505 C82.1952914,11.9225087 82.9855857,12.4540576 83.1692502,13.2566381 C83.4591301,14.5142478 83.7332042,15.7771146 83.9677636,17.0440702 C84.1511118,18.0318166 83.5349984,18.8408224 82.5610396,18.9850999 C81.7694808,19.1022159 81.028817,18.5183883 80.8056378,17.6048251 C80.7117509,17.2210585 80.5701301,16.8422568 80.5192352,16.4529411 C80.3946848,15.5040386 80.0106017,14.5969007 80.000486,13.6301826" id="Fill-255" opacity="0.5"></path>
                        <path d="M61.6727139,20.0109624 C62.1352793,19.940775 62.4978647,20.2183631 62.8199519,20.5367359 C63.7061665,21.4156595 64.5813073,22.3081781 65.4485382,23.207336 C66.1626354,23.9493626 66.1794042,24.7954057 65.5209921,25.4716711 C64.8385341,26.1725969 63.9308049,26.1931473 63.2097471,25.4308865 C62.3073966,24.4773491 61.3079137,23.6230859 60.4473269,22.6230731 C59.9803321,22.0792785 59.8806685,21.5468658 60.1404265,20.9613382 C60.4122074,20.3486209 60.9029317,19.9657516 61.6727139,20.0109624" id="Fill-257" opacity="0.5"></path>
                    </g>
                </g>
            </g>
        </g>
    </g>
</svg>