<?xml version="1.0" encoding="UTF-8"?>
<svg width="27px" height="27px" viewBox="0 0 27 27" version="1.1" xmlns="http://www.w3.org/2000/svg" xmlns:xlink="http://www.w3.org/1999/xlink">
    <!-- Generator: Sketch 53.2 (72643) - https://sketchapp.com -->
    <title>add-3</title>
    <desc>Created with Sketch.</desc>
    <g id="Page-1" stroke="none" stroke-width="1" fill="none" fill-rule="evenodd">
        <g id="Desktop-HD-Copy-13" transform="translate(-1098.000000, -3919.000000)" fill="#2DACF5">
            <g id="Group-22" transform="translate(0.000000, 3384.000000)">
                <g id="Group-21" transform="translate(227.000000, 256.000000)">
                    <g id="Group-2-Copy-2" transform="translate(0.000000, 238.000000)">
                        <g id="add-3" transform="translate(861.000000, 31.000000)">
                            <path d="M37.0535714,20.5535714 L27.0357143,20.5535714 C26.7102835,20.5535714 26.4464286,20.2897165 26.4464286,19.9642857 L26.4464286,9.94642857 C26.4464286,8.31927488 25.1271537,7 23.5,7 C21.8728463,7 20.5535714,8.31927488 20.5535714,9.94642857 L20.5535714,19.9642857 C20.5535714,20.2897165 20.2897165,20.5535714 19.9642857,20.5535714 L9.94642857,20.5535714 C8.31927488,20.5535714 7,21.8728463 7,23.5 C7,25.1271537 8.31927488,26.4464286 9.94642857,26.4464286 L19.9642857,26.4464286 C20.2897165,26.4464286 20.5535714,26.7102835 20.5535714,27.0357143 L20.5535714,37.0535714 C20.5535714,38.6807251 21.8728463,40 23.5,40 C25.1271537,40 26.4464286,38.6807251 26.4464286,37.0535714 L26.4464286,27.0357143 C26.4464286,26.7102835 26.7102835,26.4464286 27.0357143,26.4464286 L37.0535714,26.4464286 C38.6807251,26.4464286 40,25.1271537 40,23.5 C40,21.8728463 38.6807251,20.5535714 37.0535714,20.5535714 Z" id="Path" transform="translate(23.500000, 23.500000) rotate(45.000000) translate(-23.500000, -23.500000) "></path>
                        </g>
                    </g>
                </g>
            </g>
        </g>
    </g>
</svg>