<?xml version="1.0" encoding="UTF-8"?>
<svg width="262px" height="257px" viewBox="0 0 262 257" version="1.1" xmlns="http://www.w3.org/2000/svg" xmlns:xlink="http://www.w3.org/1999/xlink">
    <!-- Generator: Sketch 53.2 (72643) - https://sketchapp.com -->
    <title>podium</title>
    <desc>Created with Sketch.</desc>
    <g id="Page-1" stroke="none" stroke-width="1" fill="none" fill-rule="evenodd">
        <g id="Desktop-HD-Copy-13" transform="translate(-324.000000, -1451.000000)">
            <g id="podium" transform="translate(324.000000, 1451.000000)">
                <path d="M174.334665,172.114354 L174.334665,110.085965 C174.334665,105.067013 170.22842,101 165.165516,101 L98.8344837,101 C93.7715801,101 89.6653353,105.067013 89.6653353,110.085965 L89.6653353,141.927416 C89.6653353,146.944389 85.5610876,151.011402 80.4981835,151.011402 L14.1671513,151.011402 C9.10424721,151.011402 5,155.078416 5,160.095389 L5,242.916014 C5,247.932987 9.10424721,252 14.1671513,252 L249.832849,252 C254.895753,252 259,247.932987 259,242.916014 L259,190.282327 C259,185.265354 254.895753,181.198341 249.832849,181.198341 L183.501817,181.198341 C178.438912,181.198341 174.334665,177.131327 174.334665,172.114354 Z" id="Path" fill="#FCEE21"></path>
                <path d="M137.991664,7.05322887 L145.207029,21.7372946 C146.26308,23.8843999 148.300452,25.3717689 150.660342,25.715464 L166.792158,28.0699712 C172.731215,28.9371095 175.102905,36.2672905 170.805938,40.4745898 L159.132348,51.9054059 C157.425361,53.5764742 156.646597,55.9823379 157.049745,58.342771 L159.804916,74.4826021 C160.819669,80.4222022 154.611191,84.9534432 149.299472,82.1485772 L134.868743,74.5280331 C132.760575,73.4139878 130.239425,73.4139878 128.131257,74.5280331 L113.700528,82.1485772 C108.388809,84.9534432 102.180331,80.4222022 103.195084,74.4826021 L105.950255,58.342771 C106.353403,55.9823379 105.574639,53.5764742 103.867652,51.9054059 L92.194062,40.4745898 C87.8970954,36.2672905 90.2687848,28.9371095 96.2078423,28.0699712 L112.339658,25.715464 C114.697582,25.3717689 116.73692,23.8843999 117.792971,21.7372946 L125.008336,7.05322887 C127.663212,1.64892371 135.336788,1.64892371 137.991664,7.05322887 L137.991664,7.05322887 Z" id="Path" fill="#36B0FF"></path>
                <path d="M248.966046,178.548951 L182.745507,178.548951 C179.838438,178.548951 177.473704,176.203468 177.473704,173.322045 L177.473704,139.850468 C177.473704,137.724503 175.73704,136 173.593625,136 C171.448217,136 169.711553,137.724503 169.711553,139.850468 L169.711553,173.322045 C169.711553,180.449464 175.557591,186.249885 182.745507,186.249885 L248.966046,186.249885 C251.873114,186.249885 254.237849,188.59339 254.237849,191.476791 L254.237849,244.07216 C254.237849,246.95556 251.873114,249.301043 248.966046,249.301043 L58.8820721,249.301043 C56.7366638,249.301043 55,251.025546 55,253.15151 C55,255.277474 56.7366638,257 58.8820721,257 L248.966046,257 C256.153962,257 262,251.201556 262,244.07216 L262,191.476791 C262,184.349372 256.153962,178.548951 248.966046,178.548951 L248.966046,178.548951 Z" id="Path" fill="#000000"></path>
                <path d="M42.7410693,249.281092 L13.0474627,249.281092 C10.1373817,249.281092 7.77019608,246.929531 7.77019608,244.038658 L7.77019608,161.06386 C7.77019608,158.17497 10.1373817,155.823409 13.0474627,155.823409 L79.3366372,155.823409 C86.5320025,155.823409 92.3841004,150.009939 92.3841004,142.862067 L92.3841004,110.961342 C92.3841004,108.070469 94.7512855,105.718909 97.6613665,105.718909 L163.952537,105.718909 C166.860622,105.718909 169.227808,108.070469 169.227808,110.961342 L169.227808,124.107082 C169.227808,126.238556 170.968268,127.967528 173.113904,127.967528 C175.25954,127.967528 177,126.238556 177,124.107082 L177,110.961342 C177,103.81347 171.145907,98 163.952537,98 L97.6613665,98 C90.4660012,98 84.6139038,103.81347 84.6139038,110.961342 L84.6139038,142.862067 C84.6139038,145.75294 82.2467187,148.104501 79.3366372,148.104501 L13.0474627,148.104501 C5.85209743,148.104501 0,153.917971 0,161.06386 L0,244.038658 C0,251.18653 5.85209743,257 13.0474627,257 L42.7410693,257 C44.8867049,257 46.6251691,255.273011 46.6251691,253.141537 C46.6251691,251.010064 44.8867049,249.281092 42.7410693,249.281092 Z" id="Path" fill="#000000"></path>
                <path d="M140.177972,121.818 C142.289319,121.818 144,120.066832 144,117.907996 C144,115.749159 142.289319,114 140.177972,114 L121.822028,114 C119.710681,114 118,115.749159 118,117.907996 C118,120.066832 119.710681,121.818 121.822028,121.818 L127.176008,121.818 L127.176008,149.179992 L121.822028,149.179992 C119.710681,149.179992 118,150.93116 118,153.089996 C118,155.248832 119.710681,157 121.822028,157 L140.177972,157 C142.289319,157 144,155.248832 144,153.089996 C144,150.93116 142.289319,149.179992 140.177972,149.179992 L134.823992,149.179992 L134.823992,121.818 L140.177972,121.818 Z" id="Path" fill="#000000"></path>
                <path d="M63,208.092004 C63,205.933168 61.2692352,204.182 59.1355515,204.182 L55.2730882,204.182 L55.2730882,176.820007 L59.1355515,176.820007 C61.2692352,176.820007 63,175.06884 63,172.910004 C63,170.751168 61.2692352,169 59.1355515,169 L32.864448,169 C30.7307648,169 29,170.751168 29,172.910004 C29,175.06884 30.7307648,176.820007 32.864448,176.820007 L36.7269118,176.820007 L36.7269118,204.182 L32.864448,204.182 C30.7307648,204.182 29,205.933168 29,208.092004 C29,210.250841 30.7307648,212 32.864448,212 L59.1355515,212 C61.2692352,212 63,210.250841 63,208.092004 Z M44.4558083,176.820007 L47.5461764,176.820007 L47.5461764,204.182 L44.4558083,204.182 L44.4558083,176.820007 Z" id="Shape" fill="#000000" fill-rule="nonzero"></path>
                <path d="M195.959512,230.182001 C193.773341,230.182001 192,231.933168 192,234.092005 C192,236.250841 193.773341,238 195.959512,238 L232.042522,238 C234.228693,238 236,236.250841 236,234.092005 C236,231.933168 234.228693,230.182001 232.042522,230.182001 L229.042891,230.182001 L229.042891,202.817999 L232.042522,202.817999 C234.228693,202.817999 236,201.06884 236,198.910004 C236,196.751168 234.228693,195 232.042522,195 L195.959512,195 C193.773341,195 192,196.751168 192,198.910004 C192,201.06884 193.773341,202.817999 195.959512,202.817999 L198.959142,202.817999 L198.959142,230.182001 L195.959512,230.182001 Z M221.125901,230.182001 L217.959512,230.182001 L217.959512,202.817999 L221.125901,202.817999 L221.125901,230.182001 Z M206.876132,202.817999 L210.042522,202.817999 L210.042522,230.182001 L206.876132,230.182001 L206.876132,202.817999 Z" id="Shape" fill="#000000" fill-rule="nonzero"></path>
                <path d="M100.248441,55.7037304 C101.062682,56.4927011 101.435875,57.6325463 101.244289,58.7466211 L98.4463346,74.9443145 C97.7179086,79.1607496 99.4302088,83.3434854 102.916676,85.8570915 C104.884424,87.2784285 107.187449,88 109.508434,88 C111.292579,88 113.086703,87.5718147 114.74512,86.7075149 L129.38948,79.0596501 C130.397302,78.5323482 131.602698,78.5323482 132.61052,79.0596501 L147.25488,86.7075149 C151.066645,88.6958012 155.598853,88.3726798 159.085319,85.8570915 C162.569791,83.3434854 164.282091,79.1607496 163.553665,74.9443145 L160.757706,58.7486034 C160.564125,57.6325463 160.937318,56.4946839 161.753554,55.7037304 L173.599959,44.2319336 C176.683298,41.246531 177.772943,36.863579 176.441819,32.7958191 C175.110696,28.7280591 171.636202,25.816003 167.375408,25.2014776 L151.000787,22.8385293 C149.873223,22.6739956 148.899327,21.9722473 148.394418,20.9572896 L141.072238,6.21859782 C139.166356,2.38277142 135.306695,0 131,0 C126.693305,0 122.833644,2.38277142 120.927762,6.22058003 L113.605582,20.9572896 C113.100673,21.9722473 112.126777,22.6759778 110.999213,22.8385293 L94.6245917,25.2014776 C90.3637978,25.816003 86.8893043,28.7280591 85.5581807,32.7958191 C84.2270566,36.8655612 85.3167021,41.246531 88.4000407,44.2339158 L100.248441,55.7037304 Z M92.9482136,35.1805732 C93.1477824,34.5680305 93.8203292,33.1169578 95.742177,32.8394308 L112.114803,30.4744998 C115.772899,29.9471978 118.936065,27.6655253 120.572529,24.3728601 L127.894709,9.63416832 C128.754851,7.90556857 130.351401,7.71724622 130.998004,7.71724622 C131.646603,7.71724622 133.245149,7.90358636 134.105291,9.63416832 L141.427471,24.3708779 C143.061939,27.6655253 146.225105,29.9471978 149.885197,30.4744998 L166.255827,32.8394308 C168.179671,33.1169578 168.852218,34.5680305 169.051786,35.1785905 C169.251355,35.7911337 169.566674,37.3591641 168.175679,38.705172 L156.329274,50.1769688 C153.680996,52.7401332 152.473605,56.431249 153.098255,60.0529828 L155.894214,76.2506757 C156.223503,78.1517391 155.042055,79.2360787 154.517189,79.6147051 C153.994319,79.9913498 152.59135,80.7743739 150.871067,79.8763744 L136.226707,72.2285096 C134.590243,71.3741213 132.796119,70.9479188 131,70.9479188 C129.203881,70.9479188 127.409757,71.3741213 125.773293,72.2285096 L111.128933,79.8763744 C109.410646,80.7743739 108.005681,79.9913498 107.482811,79.6147051 C106.957945,79.2360787 105.776497,78.1517391 106.10379,76.2506757 L108.901745,60.0529828 C109.526395,56.4332312 108.319004,52.7401332 105.670726,50.1769688 L93.8243208,38.705172 C92.4333263,37.3591641 92.7466492,35.7911337 92.9482136,35.1805732 Z" id="Shape" fill="#000000" fill-rule="nonzero"></path>
            </g>
        </g>
    </g>
</svg>