<?xml version="1.0" standalone="no"?>
<!DOCTYPE svg PUBLIC "-//W3C//DTD SVG 1.1//EN" "http://www.w3.org/Graphics/SVG/1.1/DTD/svg11.dtd" >
<svg xmlns="http://www.w3.org/2000/svg" xmlns:xlink="http://www.w3.org/1999/xlink" version="1.1">
<metadata>
Created by FontForge 20160407 at Tue May 24 04:14:34 2016
 By Jimmy Wärting
Copyright \(c\) 2009 by Vedran Erakovic. All rights reserved. Published by Parachute? Worldwide for the Parachute? Font Library.
</metadata>
<defs>
<font id="PFAdamantPro-ExtraBoldItalic" horiz-adv-x="380" >
  <font-face 
    font-family="PF Adamant Pro"
    font-weight="800"
    font-style="italic"
    font-stretch="normal"
    units-per-em="1000"
    panose-1="2 0 9 5 0 0 0 9 0 4"
    ascent="800"
    descent="-200"
    x-height="530"
    cap-height="720"
    bbox="-190 -231.188 1296.08 962"
    underline-thickness="50"
    underline-position="-100"
    slope="-12"
    unicode-range="U+0020-FB04"
  />
<missing-glyph horiz-adv-x="500" 
d="M500 750v-750h-500v750h500zM409 690h-321l161 -262zM440 626l-156 -255l156 -255v510zM404 60l-155 254l-156 -254h311zM60 119l154 252l-154 252v-504z" />
    <glyph glyph-name="f_b" unicode="fb" horiz-adv-x="1014" 
d="M611 108l-8 -42c11 -6 24 -9 38 -9c126 0 176 182 176 295c0 51 -10 77 -29 77c-31 0 -64 -32 -99 -95s-61 -138 -78 -226zM482 -10h-57l126 685c-33 7 -62 11 -89 11c-74 0 -116 -34 -127 -101l-10 -63h113c0 -23 -4 -44 -11 -63h-113l-57 -353
c-17 -102 -67 -186 -151 -252c-47 -36 -96 -54 -145 -54c-55 0 -90 26 -106 78c18 25 42 47 72 65c29 -44 55 -66 78 -66c41 0 65 91 89 240l56 342h-78c1 15 4 27 8 38l78 25l9 49c24 132 131 189 271 189c49 0 99 -7 150 -21c51 -13 94 -30 130 -51l-55 -299h4
c49 97 103 152 183 152c33 0 59 -11 80 -32c43 -41 53 -95 53 -159c5 -180 -134 -363 -324 -360c-37 0 -68 8 -92 23c-17 -20 -37 -23 -85 -23z" />
    <glyph glyph-name="f_h" unicode="fh" horiz-adv-x="1060" 
d="M437 -10l-11 10l125 675c-34 7 -64 11 -89 11c-74 0 -116 -34 -127 -101l-10 -63h113c0 -23 -4 -44 -11 -63h-113l-57 -353c-17 -102 -67 -186 -151 -252c-47 -36 -96 -54 -145 -54c-55 0 -90 26 -106 78c18 25 42 47 72 65c97 -136 131 -53 167 174l56 342h-78
c1 15 4 28 8 38l78 25l9 49c24 132 131 189 271 189c49 0 99 -7 150 -21c51 -13 94 -30 130 -51l-59 -325h4c48 107 107 177 200 177c87 0 125 -60 125 -141c0 -15 -2 -32 -5 -51l-52 -277l79 10c5 -17 7 -33 6 -49l-167 -39c-13 -3 -23 -4 -29 -4c-43 0 -65 27 -56 76
l48 258c5 32 8 53 8 62c0 28 -9 42 -26 42c-29 0 -64 -42 -107 -125c-42 -83 -69 -159 -82 -230l-11 -60z" />
    <glyph glyph-name="f_j" unicode="fj" horiz-adv-x="728" 
d="M431 24l78 428h-196l-56 -346c-16 -102 -66 -186 -151 -252c-47 -36 -96 -54 -145 -54c-55 0 -90 26 -106 78c18 25 42 47 72 65c31 -44 57 -66 78 -66c35 0 64 80 89 240l53 335h-75c0 13 3 26 8 38l78 26l10 51c27 139 117 192 254 192c78 0 155 -16 230 -48l-14 -114
c-27 -7 -75 -7 -103 0l-11 78c-25 7 -47 11 -68 11c-68 0 -108 -34 -120 -103l-11 -67h264c68 0 92 -25 81 -86l-83 -447c-21 -119 -115 -172 -268 -185c-8 15 -12 30 -13 44c77 24 106 78 125 182z" />
    <glyph glyph-name="f_k" unicode="fk" horiz-adv-x="1024" 
d="M437 -10l-11 10l125 675c-29 7 -59 11 -89 11c-74 0 -116 -34 -127 -101l-10 -63h113c0 -23 -4 -44 -11 -63h-113l-57 -353c-17 -102 -67 -186 -151 -252c-47 -36 -96 -54 -145 -54c-55 0 -90 26 -106 78c18 25 42 47 72 65c97 -136 131 -53 167 174l56 342h-78
c1 15 4 28 8 38l78 25l9 49c24 132 131 189 271 189c49 0 99 -7 150 -21c51 -13 94 -30 130 -51l-124 -676zM757 37l-111 228l173 220c33 43 49 55 78 55c35 0 75 -22 120 -66c-6 -15 -15 -28 -28 -37c-25 12 -46 18 -61 18c-19 0 -35 -7 -50 -22l-94 -93l122 -245l61 23
c11 -12 18 -26 23 -43l-96 -59c-28 -17 -52 -26 -73 -26c-27 0 -49 16 -64 47z" />
    <glyph glyph-name="f_t" unicode="ft" horiz-adv-x="792" 
d="M335 585l-10 -63h197l28 154c-31 7 -61 10 -88 10c-74 0 -116 -34 -127 -101zM456 152l54 307h-196l-57 -353c-17 -102 -67 -186 -151 -252c-47 -36 -96 -54 -145 -54c-55 0 -90 26 -106 78c18 25 42 47 72 65c97 -136 131 -53 167 174l56 342h-78c1 15 4 27 8 38l78 25
l9 49c24 132 131 189 271 189c101 0 194 -23 280 -70l-30 -168h127c0 -23 -4 -44 -12 -63h-127l-51 -288c-4 -21 -6 -39 -6 -52c0 -29 10 -43 30 -43c21 0 47 10 80 29c13 -15 22 -32 27 -51c-63 -43 -124 -64 -185 -64c-79 0 -119 39 -119 116c0 14 1 29 4 46z" />
    <glyph glyph-name="f_f.alt" unicode="&#xe1b6;&#xe1b6;" horiz-adv-x="742" 
d="M782 459h-113l-56 -353c-17 -105 -67 -189 -150 -252c-47 -36 -96 -54 -146 -54c-55 0 -90 26 -105 78c18 26 42 48 71 65c31 -44 57 -66 78 -66c35 0 65 80 90 240l52 342h-189l-57 -353c-17 -102 -67 -186 -151 -252c-47 -36 -96 -54 -145 -54c-55 0 -90 26 -106 78
c18 25 42 47 72 65c30 -44 56 -66 78 -66c41 0 65 91 89 240l56 342h-78c1 15 4 27 8 38l78 25l9 49c13 75 56 130 111 155s102 34 157 34c63 0 124 -11 184 -33c36 22 81 33 134 33c46 0 89 -9 129 -26c-3 -19 -9 -39 -19 -58c-25 7 -47 11 -67 11c-57 0 -92 -35 -105 -104
l-11 -61h114c0 -22 -4 -43 -12 -63zM325 522h190l8 46c7 40 19 74 37 102c-37 11 -70 16 -99 16c-73 0 -115 -34 -126 -101z" />
    <glyph glyph-name="f_f" unicode="ff" horiz-adv-x="742" 
d="M782 459h-113l-56 -353c-17 -105 -67 -189 -150 -252c-47 -36 -96 -54 -146 -54c-55 0 -90 26 -105 78c18 26 42 48 71 65c31 -44 57 -66 78 -66c35 0 65 80 90 240l52 342h-189l-57 -353c-17 -102 -67 -186 -151 -252c-47 -36 -96 -54 -145 -54c-55 0 -90 26 -106 78
c18 25 42 47 72 65c30 -44 56 -66 78 -66c41 0 65 91 89 240l56 342h-78c1 15 4 27 8 38l78 25l9 49c13 75 56 130 111 155s102 34 157 34c63 0 124 -11 184 -33c36 22 81 33 134 33c46 0 89 -9 129 -26l-18 -128c-10 -2 -20 -3 -30 -3c-9 0 -19 1 -29 3l-9 89
c-60 13 -92 -39 -105 -112l-11 -61h114c0 -22 -4 -43 -12 -63zM325 522h190l8 46c7 40 19 74 37 102c-37 11 -70 16 -99 16c-73 0 -115 -34 -126 -101z" />
    <glyph glyph-name="f_i" unicode="fi" horiz-adv-x="739" 
d="M670 430l-66 -359l78 10c5 -18 8 -34 7 -49l-168 -39c-56 -13 -96 12 -84 72l72 387h-196l-56 -346c-16 -102 -66 -186 -151 -252c-47 -36 -96 -54 -145 -54c-55 0 -90 26 -106 78c18 25 42 47 72 65c30 -44 56 -66 78 -66c35 0 64 80 89 240l53 335h-75c1 16 4 29 8 38
l78 26l11 58c23 123 105 185 246 185c43 0 87 -5 131 -16c45 -10 80 -21 106 -32l-14 -114c-36 -8 -71 -8 -103 0l-11 78c-23 7 -46 10 -67 10c-69 0 -109 -33 -120 -98l-12 -71h264c68 0 92 -25 81 -86z" />
    <glyph glyph-name="f_l" unicode="fl" horiz-adv-x="739" 
d="M718 688l-113 -617l89 10c5 -16 7 -32 6 -48l-177 -40c-10 -2 -20 -3 -29 -3c-46 0 -64 25 -55 75l112 610c-36 8 -65 12 -88 12c-74 0 -117 -34 -128 -102l-10 -63h113c0 -23 -4 -44 -11 -63h-113l-57 -353c-17 -104 -74 -196 -151 -252c-49 -36 -98 -54 -145 -54
c-55 0 -90 26 -106 78c18 25 42 47 72 65c30 -44 56 -66 78 -66c41 0 65 91 89 240l56 342h-78c1 15 4 28 8 38l78 25l9 51c12 65 48 116 87 140c19 13 42 23 67 30c51 16 81 17 117 17c53 0 105 -7 155 -22c51 -15 92 -31 125 -50z" />
    <glyph glyph-name="f_f_i" unicode="ffi" horiz-adv-x="1095" 
d="M1025 430l-66 -359l79 10c5 -17 7 -33 6 -49l-167 -39c-56 -13 -95 11 -84 72l72 387h-197l-56 -346c-17 -105 -67 -189 -150 -252c-48 -36 -97 -54 -146 -54c-55 0 -90 26 -105 78c18 26 42 48 71 65c33 -44 59 -66 78 -66c35 0 65 80 90 240l52 335h-189l-56 -346
c-17 -104 -67 -188 -151 -252c-48 -36 -96 -54 -145 -54c-55 0 -91 26 -106 78c18 25 42 47 72 65c97 -136 131 -53 167 174l54 335h-74c1 15 4 28 7 38l77 24l9 57c11 64 46 114 83 139c19 13 41 24 66 32c49 16 82 18 119 18c61 0 124 -12 189 -36c39 23 91 35 157 35
c73 0 149 -16 226 -48l-14 -114c-33 -8 -69 -8 -102 0l-11 78c-22 7 -44 11 -67 11c-61 0 -108 -30 -120 -99l-13 -71h264c68 0 92 -25 81 -86zM335 585l-12 -69h191l9 50c8 42 22 76 41 103c-40 11 -74 17 -103 17c-72 0 -114 -34 -126 -101z" />
    <glyph glyph-name="f_f_l" unicode="ffl" horiz-adv-x="1095" 
d="M335 585l-10 -63h189l8 49c7 39 21 71 42 98c-39 11 -73 17 -102 17c-74 0 -116 -34 -127 -101zM1074 688l-113 -617l88 10c5 -16 7 -32 6 -48l-177 -40c-13 -3 -23 -4 -30 -4c-45 0 -63 25 -54 76l112 610c-31 7 -59 11 -86 11c-76 0 -119 -34 -130 -101l-10 -63h114
c0 -23 -4 -44 -12 -63h-112l-58 -353c-17 -105 -67 -189 -150 -252c-47 -36 -96 -54 -146 -54c-55 0 -90 26 -105 78c18 26 42 48 71 65c33 -44 59 -66 78 -66c41 0 66 93 90 240l55 342h-191l-57 -353c-17 -102 -67 -186 -151 -252c-47 -36 -96 -54 -145 -54
c-55 0 -90 26 -106 78c18 25 42 47 72 65c97 -136 131 -53 167 174l56 342h-78c1 15 4 28 8 38l78 25l9 49c12 63 46 111 82 138c19 13 40 24 64 32c48 16 82 19 122 19c64 0 128 -12 192 -36c43 24 99 36 166 36c53 0 105 -7 156 -22s92 -31 125 -50z" />
    <glyph glyph-name=".notdef" horiz-adv-x="500" 
d="M500 750v-750h-500v750h500zM409 690h-321l161 -262zM440 626l-156 -255l156 -255v510zM404 60l-155 254l-156 -254h311zM60 119l154 252l-154 252v-504z" />
    <glyph glyph-name="NULL" horiz-adv-x="0" 
 />
    <glyph glyph-name="CR" horiz-adv-x="333" 
 />
    <glyph glyph-name="space" unicode=" " horiz-adv-x="262" 
 />
    <glyph glyph-name="exclam" unicode="!" horiz-adv-x="363" 
d="M231 140c-3 -53 -12 -99 -27 -137c-21 -4 -44 -6 -69 -6c-22 0 -41 1 -56 3c0 41 7 86 21 135c25 5 52 7 81 7c12 0 29 -1 50 -2zM356 700l-145 -463c-11 -2 -23 -3 -36 -3c-11 0 -23 1 -34 3l29 463c32 3 62 5 90 5c34 0 66 -2 96 -5z" />
    <glyph glyph-name="quotedbl" unicode="&#x22;" horiz-adv-x="500" 
d="M324 756l-87 -294c-12 -2 -24 -3 -35 -3c-12 0 -24 1 -36 3l31 294c21 3 42 4 63 4s43 -1 64 -4zM510 756l-87 -294c-12 -2 -24 -3 -35 -3c-12 0 -24 1 -36 3l31 294c21 3 42 4 63 4s43 -1 64 -4z" />
    <glyph glyph-name="numbersign" unicode="#" horiz-adv-x="609" 
d="M97 0l65 197h-122c-4 25 -2 51 7 77h140l51 158h-125c-3 27 -1 53 8 77h142l61 191c12 2 24 3 36 3c13 0 25 -1 37 -3l-62 -191h114l61 191c12 2 24 3 36 3c13 0 25 -1 37 -3l-62 -191h115c4 -26 2 -52 -7 -77h-133l-51 -158h118c3 -26 1 -52 -8 -77h-135l-64 -197
c-12 -2 -24 -3 -37 -3s-25 1 -36 3l65 197h-114l-64 -197c-13 -2 -26 -3 -37 -3c-12 0 -24 1 -36 3zM424 432h-114l-51 -158h114z" />
    <glyph glyph-name="dollar" unicode="$" horiz-adv-x="609" 
d="M224 -72l17 91c-75 7 -137 31 -185 73l20 145c10 2 21 3 32 3c9 0 20 -1 31 -3l15 -123c33 -15 71 -23 114 -23c72 0 133 31 133 96c0 45 -44 77 -100 100c-78 33 -182 78 -181 191c0 65 23 115 70 150c47 36 107 55 181 57l15 82c11 1 22 2 34 2c13 0 24 -1 35 -2
l-17 -84c59 -7 112 -25 160 -54l-19 -139c-10 -2 -20 -3 -30 -3c-11 0 -21 1 -30 3l-18 104c-33 13 -68 20 -104 20c-67 0 -117 -31 -117 -91c0 -43 44 -73 100 -97c80 -33 184 -82 183 -199c0 -140 -131 -200 -253 -207l-17 -92c-11 -2 -22 -3 -35 -3c-12 0 -23 1 -34 3z
" />
    <glyph glyph-name="percent" unicode="%" horiz-adv-x="897" 
d="M186 0l528 730c23 -12 41 -25 56 -40l-526 -731c-21 9 -40 22 -58 41zM293 710c95 0 144 -60 144 -151c3 -127 -74 -259 -217 -259c-88 0 -142 68 -142 159c0 67 18 126 55 176s91 75 160 75zM280 661c-28 0 -50 -37 -61 -88c-9 -51 -13 -95 -13 -131
c0 -61 10 -91 31 -91c28 0 50 38 59 89c11 52 15 99 15 136c0 57 -10 85 -31 85zM743 400c95 0 144 -60 144 -151c3 -127 -74 -259 -217 -259c-88 0 -142 68 -142 159c0 67 18 126 55 176s91 75 160 75zM730 351c-28 0 -50 -37 -61 -88c-9 -51 -13 -95 -13 -131
c0 -61 10 -91 31 -91c28 0 50 38 59 89c11 52 15 99 15 136c0 57 -10 85 -31 85z" />
    <glyph glyph-name="ampersand" unicode="&#x26;" horiz-adv-x="751" 
d="M357 462l21 -31c40 27 65 84 65 141c0 53 -21 92 -62 92c-39 0 -65 -34 -65 -85c0 -37 14 -76 41 -117zM418 100l-160 223c-34 -28 -51 -68 -51 -119c0 -37 10 -70 30 -98c20 -27 47 -41 82 -41s68 12 99 35zM722 0h-232l-38 51c-55 -41 -120 -61 -195 -61
c-61 0 -112 15 -152 46s-60 75 -60 131c0 48 16 91 49 129c33 39 75 67 124 85c-38 55 -57 108 -57 159c0 59 24 105 72 139c49 34 104 51 167 51c47 0 92 -13 133 -39s62 -61 62 -105c0 -43 -19 -85 -56 -124s-78 -67 -123 -84l104 -144c25 53 38 110 38 171h200
c2 -15 1 -29 -3 -44l-112 -33c-13 -63 -37 -118 -72 -164l69 -95l88 -27c1 -14 -1 -28 -6 -42z" />
    <glyph glyph-name="quotesingle" unicode="'" horiz-adv-x="314" 
d="M324 756l-87 -294c-12 -2 -24 -3 -35 -3c-12 0 -24 1 -36 3l31 294c21 3 42 4 63 4s43 -1 64 -4z" />
    <glyph glyph-name="parenleft" unicode="(" horiz-adv-x="377" 
d="M432 709c-93 -40 -162 -129 -198 -237c-35 -108 -49 -213 -49 -325c0 -135 18 -228 94 -307c-9 -15 -22 -29 -38 -41c-111 88 -160 195 -160 342c0 344 109 551 326 620c11 -15 20 -33 25 -52z" />
    <glyph glyph-name="parenright" unicode=")" horiz-adv-x="377" 
d="M-32 -149c93 40 163 129 198 237c36 108 50 212 50 325c0 135 -19 228 -94 307c9 16 21 30 38 41c111 -88 160 -195 160 -342c0 -344 -109 -551 -326 -620c-13 17 -21 34 -26 52z" />
    <glyph glyph-name="asterisk" unicode="*" horiz-adv-x="516" 
d="M169 708l126 -125c-9 -16 -21 -30 -37 -42l-137 112c12 20 28 38 48 55zM87 489l171 48c9 -17 15 -34 17 -53l-164 -64c-13 22 -21 45 -24 69zM235 306l43 174c20 -1 38 -5 55 -12l-28 -176c-27 1 -51 6 -70 14zM464 346l-127 123c9 18 22 32 39 43l136 -111
c-10 -19 -26 -37 -48 -55zM546 566l-170 -49c-9 15 -15 33 -18 54l165 64c11 -21 19 -44 23 -69zM398 748l-44 -174c-21 1 -39 5 -55 12l29 177c25 -1 49 -6 70 -15z" />
    <glyph glyph-name="plus" unicode="+" horiz-adv-x="646" 
d="M593 232h-228v-232c-28 -4 -56 -4 -84 0v232h-228c-2 14 -3 28 -3 41c0 14 1 27 3 40h228v226c28 4 56 4 84 0v-226h228c4 -28 4 -54 0 -81z" />
    <glyph glyph-name="comma" unicode="," horiz-adv-x="301" 
d="M-20 -138c66 69 101 166 105 289c22 3 44 5 65 5c23 0 44 -2 64 -5c-8 -161 -70 -261 -195 -324c-15 7 -28 19 -39 35z" />
    <glyph glyph-name="hyphen" unicode="-" horiz-adv-x="406" 
d="M354 258h-291c0 29 4 56 11 83h291c1 -28 -2 -56 -11 -83z" />
    <glyph glyph-name="period" unicode="." horiz-adv-x="301" 
d="M196 3c-26 -4 -53 -6 -81 -6c-22 0 -42 1 -60 3c1 50 9 101 24 154c28 5 59 7 92 7c15 0 33 -1 56 -2c-3 -58 -14 -110 -31 -156z" />
    <glyph glyph-name="slash" unicode="/" horiz-adv-x="446" 
d="M405 750h83l2 -4l-405 -801h-83l-2 4z" />
    <glyph glyph-name="zero" unicode="0" horiz-adv-x="609" 
d="M377 639c-60 0 -106 -66 -127 -154s-30 -165 -30 -225c0 -133 23 -199 69 -199c48 0 89 49 110 112c11 32 20 68 27 109c15 81 18 146 18 203c0 27 -2 54 -10 91s-29 63 -57 63zM388 710c77 0 134 -24 169 -73c36 -49 54 -112 54 -190c0 -108 -24 -213 -75 -305
c-51 -91 -143 -152 -260 -152c-73 0 -128 25 -167 75c-38 50 -57 112 -57 187c0 105 27 211 79 303s145 155 257 155z" />
    <glyph glyph-name="one" unicode="1" horiz-adv-x="609" 
d="M208 67l102 556h-107c-5 16 -7 32 -6 49l201 36c68 12 91 -21 80 -74l-106 -567l121 -25c2 -14 1 -28 -4 -42h-406c-1 14 0 28 4 42z" />
    <glyph glyph-name="two" unicode="2" horiz-adv-x="609" 
d="M214 149l1 -5h320c3 -51 -2 -99 -15 -144h-509l14 85l208 164c103 80 167 162 167 269c0 71 -48 112 -113 112c-26 0 -53 -7 -82 -20l-32 -116c-10 -2 -20 -3 -30 -3c-9 0 -19 1 -29 3v139c59 51 135 77 228 77c67 0 122 -15 167 -45c45 -29 67 -74 67 -135
c0 -117 -73 -194 -197 -274z" />
    <glyph glyph-name="three" unicode="3" horiz-adv-x="609" 
d="M122 518v139c63 35 136 53 220 53c42 0 80 -5 115 -14c69 -19 128 -72 128 -152c0 -89 -70 -154 -166 -173v-4c84 -13 140 -74 140 -149c0 -49 -16 -91 -47 -127c-63 -71 -157 -101 -254 -101c-78 0 -156 21 -235 64l22 146c9 2 18 3 29 3c9 0 19 -1 29 -3l18 -106
c38 -18 77 -27 116 -27c87 0 153 48 153 148c0 77 -58 114 -127 114h-72c0 22 4 46 13 72h57c43 0 80 11 110 32c31 22 46 56 46 103c0 68 -35 102 -106 102c-33 0 -66 -6 -99 -19l-31 -101c-10 -2 -20 -3 -30 -3c-9 0 -19 1 -29 3z" />
    <glyph glyph-name="four" unicode="4" horiz-adv-x="609" 
d="M360 522l-235 -252v-5h191l48 257h-4zM2 243l437 467h126l-83 -445h91c0 -22 -4 -45 -13 -69h-92l-23 -129l86 -25c1 -15 0 -29 -4 -42h-352c-1 14 0 28 4 42l101 25l24 129h-310z" />
    <glyph glyph-name="five" unicode="5" horiz-adv-x="609" 
d="M50 58l23 143c9 2 19 3 30 3c10 0 20 -1 29 -3l18 -114c31 -15 62 -22 92 -22c47 0 85 15 116 46s47 72 47 123c0 88 -53 132 -158 132c-30 0 -70 -4 -119 -13l-7 8l67 334l9 5h406c1 -8 1 -20 1 -35c0 -40 -5 -76 -15 -109h-356l-25 -123c27 4 55 6 83 6
c127 0 284 -49 284 -197c0 -77 -31 -139 -94 -184c-62 -45 -134 -68 -216 -68c-77 0 -148 23 -215 68z" />
    <glyph glyph-name="six" unicode="6" horiz-adv-x="609" 
d="M336 391c-31 0 -56 -19 -73 -58s-25 -83 -25 -134c0 -76 22 -138 67 -138c34 0 59 19 75 57c16 39 24 84 24 135c0 79 -23 138 -68 138zM369 463c61 0 110 -19 147 -56s56 -86 56 -147c0 -78 -24 -143 -72 -194s-114 -76 -197 -76c-151 0 -232 97 -232 245
c0 133 42 245 126 337c85 92 193 138 324 138c33 0 63 -3 92 -9c0 -22 -6 -44 -18 -65c-15 3 -34 5 -55 5c-123 0 -215 -77 -266 -197l4 -1c25 13 55 20 91 20z" />
    <glyph glyph-name="seven" unicode="7" horiz-adv-x="609" 
d="M122 489l34 211h478l-10 -67l-429 -643c-30 10 -58 28 -83 55l377 508l-1 3h-279l-29 -67c-19 -4 -39 -4 -58 0z" />
    <glyph glyph-name="eight" unicode="8" horiz-adv-x="609" 
d="M54 176c0 75 55 140 131 180v4c-47 37 -70 86 -70 146c0 65 25 115 76 150c51 36 111 54 180 54c63 0 117 -16 162 -47s68 -73 68 -128c0 -70 -40 -125 -119 -165v-4c55 -36 87 -94 87 -155c0 -47 -14 -87 -43 -122c-56 -69 -142 -99 -234 -99c-64 0 -120 16 -167 49
s-71 79 -71 137zM295 289l-35 20c-28 -28 -46 -80 -46 -129c0 -67 31 -119 90 -119c28 0 51 11 70 33s29 47 29 76c-4 35 -14 57 -45 79c-11 9 -21 15 -28 19c-7 5 -19 12 -35 21zM281 548c0 -63 36 -93 116 -134c31 30 47 70 47 121c0 60 -29 104 -85 104
c-43 0 -78 -42 -78 -91z" />
    <glyph glyph-name="nine" unicode="9" horiz-adv-x="609" 
d="M264 447c0 -72 22 -133 65 -133c33 0 58 18 75 55s26 79 26 126c0 77 -22 139 -67 139c-23 0 -42 -10 -58 -31c-31 -40 -41 -96 -41 -156zM400 265l-4 1c-27 -16 -59 -24 -97 -24c-59 0 -108 18 -146 54c-38 37 -57 85 -57 144c0 76 24 139 72 189c49 51 114 76 197 76
c77 0 135 -23 175 -70s60 -108 60 -183c0 -83 -18 -159 -55 -229s-89 -126 -158 -169s-146 -64 -232 -64c-31 0 -61 3 -90 9c3 27 9 49 19 66c18 -4 36 -6 53 -6c60 0 114 20 161 59c48 39 82 88 102 147z" />
    <glyph glyph-name="colon" unicode=":" horiz-adv-x="301" 
d="M193 3c-26 -4 -53 -6 -81 -6c-22 0 -42 1 -60 3c1 50 9 101 24 154c28 5 59 7 92 7c15 0 33 -1 56 -2c-3 -58 -14 -110 -31 -156zM255 379c-26 -4 -53 -6 -81 -6c-22 0 -42 1 -60 3c1 50 9 101 24 154c28 5 59 7 92 7c15 0 33 -1 56 -2c-3 -58 -14 -110 -31 -156z" />
    <glyph glyph-name="semicolon" unicode=";" horiz-adv-x="301" 
d="M255 379c-26 -4 -53 -6 -81 -6c-22 0 -42 1 -60 3c1 50 9 101 24 154c28 5 59 7 92 7c15 0 33 -1 56 -2c-3 -58 -14 -110 -31 -156zM-13 -138c66 69 101 166 105 289c22 3 44 5 65 5c23 0 44 -2 64 -5c-8 -161 -70 -261 -195 -324c-15 7 -28 19 -39 35z" />
    <glyph glyph-name="less" unicode="&#x3c;" horiz-adv-x="646" 
d="M563 -10l-511 230c-3 13 -4 29 -4 46s1 32 4 46l513 228c15 -25 26 -51 33 -79l-444 -194v-4l444 -194c-7 -30 -19 -56 -35 -79z" />
    <glyph glyph-name="equal" unicode="=" horiz-adv-x="646" 
d="M594 321h-543c-2 14 -3 27 -3 40c0 14 1 27 3 40h543c2 -13 3 -26 3 -40c0 -13 -1 -26 -3 -40zM594 144h-543c-2 13 -3 26 -3 39s1 27 3 41h543c2 -13 3 -27 3 -41c0 -12 -1 -25 -3 -39z" />
    <glyph glyph-name="greater" unicode="&#x3e;" horiz-adv-x="646" 
d="M594 220l-511 -230c-16 23 -28 49 -35 79l444 194v4l-444 194c7 28 18 54 33 79l513 -228c3 -14 4 -29 4 -46s-1 -33 -4 -46z" />
    <glyph glyph-name="question" unicode="?" horiz-adv-x="528" 
d="M105 494v140c67 51 144 76 231 76c56 0 104 -14 145 -42c41 -27 61 -67 61 -119c0 -88 -51 -137 -135 -181l-51 -25c-27 -13 -46 -23 -57 -30c-21 -12 -58 -43 -73 -76c-24 -4 -48 -4 -71 0c7 60 44 105 84 133c60 41 130 78 130 167c0 53 -32 95 -92 95
c-27 0 -53 -6 -78 -18l-33 -120c-10 -2 -20 -3 -30 -3c-11 0 -21 1 -31 3zM248 140c-3 -53 -12 -99 -27 -137c-21 -4 -44 -6 -69 -6c-23 0 -41 1 -56 3c0 41 7 86 21 135c25 5 52 7 81 7c12 0 29 -1 50 -2z" />
    <glyph glyph-name="at" unicode="@" horiz-adv-x="859" 
d="M505 380l7 31c-12 4 -25 6 -38 6c-27 0 -51 -14 -71 -41c-40 -55 -54 -126 -54 -187c0 -33 7 -49 21 -49c24 0 49 23 74 69s46 103 61 171zM475 180h-4c-28 -65 -83 -117 -144 -117c-69 0 -100 56 -100 125c0 71 22 134 65 191c44 57 98 86 162 86c30 0 59 -6 87 -19
c7 13 29 19 64 19h37l-37 -203c-7 -37 -10 -63 -10 -78c0 -39 13 -59 40 -59c29 0 53 11 73 34c40 47 52 106 52 165c0 169 -108 266 -283 266c-102 0 -185 -33 -249 -98s-96 -154 -96 -265c0 -88 26 -159 77 -212c52 -53 119 -79 202 -79c69 0 123 12 164 35
c9 -16 14 -33 15 -50c-53 -29 -116 -44 -190 -44c-104 0 -190 32 -257 97s-101 147 -101 246c0 127 42 229 127 308s190 118 317 118c62 0 120 -12 173 -35s97 -59 132 -106s52 -102 52 -165c0 -75 -25 -140 -74 -195c-49 -54 -116 -81 -200 -81c-69 0 -101 39 -94 116z" />
    <glyph glyph-name="A" unicode="A" horiz-adv-x="800" 
d="M430 42l82 25l-23 154h-245l-88 -154l84 -25c2 -15 1 -29 -4 -42h-252c-2 14 -1 28 3 42l81 26l359 623l138 39l19 -10l98 -652l74 -26c2 -13 1 -27 -4 -42h-326c-2 15 -1 29 4 42zM478 297l-37 256h-4l-149 -256h190z" />
    <glyph glyph-name="B" unicode="B" horiz-adv-x="711" 
d="M381 647h-8l-42 -231h39c80 0 126 49 126 130c0 67 -38 101 -115 101zM353 342h-36l-48 -269h6c64 0 114 11 150 32c37 21 55 62 55 121c0 77 -42 116 -127 116zM16 42l82 25l106 586l-82 25c-2 14 -1 28 4 42h237c63 0 104 -1 164 -14c87 -16 140 -57 145 -144
c0 -47 -17 -87 -50 -119s-75 -51 -126 -57v-4c95 -9 160 -72 160 -160c0 -76 -37 -133 -86 -164c-24 -15 -55 -28 -92 -37c-73 -17 -132 -21 -213 -21h-254c-1 15 0 29 5 42z" />
    <glyph glyph-name="C" unicode="C" horiz-adv-x="709" 
d="M550 102l59 118c10 2 20 3 31 3c10 0 20 -1 30 -3l-30 -153c-69 -51 -155 -77 -256 -77c-99 0 -176 28 -231 84s-83 130 -83 222c0 123 42 226 125 309s189 125 316 125c81 0 149 -19 202 -56l-23 -153c-20 -4 -40 -4 -60 0l-19 118c-29 12 -61 18 -96 18
c-189 0 -269 -196 -269 -360c0 -108 39 -225 171 -225c40 0 84 10 133 30z" />
    <glyph glyph-name="D" unicode="D" horiz-adv-x="786" 
d="M394 647h-20l-102 -574h16c103 0 180 32 231 96s77 146 77 246c0 155 -67 232 -202 232zM18 42l83 25l104 586l-82 25c-2 14 -1 28 4 42h261c116 0 203 -19 274 -63s109 -123 109 -234c0 -141 -44 -246 -132 -317c-87 -71 -210 -106 -367 -106h-258c-2 15 -1 29 4 42z
" />
    <glyph glyph-name="E" unicode="E" horiz-adv-x="693" 
d="M16 42l82 25l106 586l-82 25c-2 13 -1 27 4 42h575l-23 -170c-10 -2 -20 -3 -31 -3c-10 0 -20 1 -30 3l-14 94h-231l-41 -227h160l29 63c17 3 34 3 51 0l-30 -222c-17 -3 -34 -3 -51 0l-13 83h-160l-48 -265h272l45 99c10 2 20 3 30 3c9 0 20 -1 31 -3l-24 -175h-612
c-1 15 0 29 5 42z" />
    <glyph glyph-name="F" unicode="F" horiz-adv-x="648" 
d="M16 42l84 25l106 586l-82 25c-1 16 0 30 4 42h568l-23 -170c-10 -2 -20 -3 -31 -3c-10 0 -20 1 -30 3l-13 94h-225l-46 -257h165l29 63c17 3 34 3 51 0l-30 -221c-17 -3 -34 -3 -51 0l-13 82h-165l-44 -244l84 -25c2 -14 0 -28 -5 -42h-337c-2 13 -1 27 4 42z" />
    <glyph glyph-name="G" unicode="G" horiz-adv-x="760" 
d="M489 94l39 196l-109 26c-2 14 -1 28 4 42h329c3 -15 2 -29 -3 -42l-53 -17l-59 -309h-47c-32 0 -56 12 -71 35c-47 -23 -97 -35 -152 -35c-85 0 -156 28 -213 85c-56 57 -84 130 -84 221c0 125 42 229 126 311c85 82 190 123 315 123c87 0 161 -19 221 -56l-22 -153
c-21 -4 -41 -4 -61 0l-19 118c-32 11 -66 17 -102 17c-196 0 -282 -183 -282 -359c0 -61 13 -114 39 -158c27 -44 67 -66 121 -66c29 0 57 7 83 21z" />
    <glyph glyph-name="H" unicode="H" horiz-adv-x="860" 
d="M605 418l43 235l-84 25c-2 14 -1 28 4 42h338c2 -14 1 -28 -4 -42l-84 -25l-106 -586l83 -25c2 -14 1 -28 -4 -42h-337c-2 14 -1 28 4 42l84 25l49 275h-272l-49 -275l84 -25c2 -14 0 -28 -5 -42h-337c-2 14 -1 28 4 42l84 25l106 586l-84 25c-2 14 -1 28 4 42h338
c2 -14 1 -28 -4 -42l-84 -25l-43 -235h272z" />
    <glyph glyph-name="I" unicode="I" horiz-adv-x="418" 
d="M100 67l106 586l-84 25c-2 14 -1 28 4 42h338c2 -13 1 -27 -4 -42l-84 -25l-106 -586l84 -25c2 -13 0 -27 -5 -42h-337c-2 14 -1 28 4 42z" />
    <glyph glyph-name="J" unicode="J" horiz-adv-x="420" 
d="M109 81l105 572l-84 25c-2 14 -1 28 4 42h337c2 -13 1 -27 -4 -42l-83 -25l-113 -613c-25 -133 -126 -200 -305 -200c-6 16 -8 32 -6 47c49 10 83 29 102 56s35 73 47 138z" />
    <glyph glyph-name="K" unicode="K" horiz-adv-x="818" 
d="M783 0h-234l-216 353l1 6l305 302l-62 17c-1 15 0 29 5 42h267c2 -14 1 -28 -4 -42l-105 -24l-247 -244l212 -343l82 -25c2 -13 1 -27 -4 -42zM100 67l106 586l-84 25c-2 14 -1 28 4 42h338c2 -13 1 -27 -4 -42l-84 -25l-106 -586l84 -25c2 -13 0 -27 -5 -42h-337
c-2 14 -1 28 4 42z" />
    <glyph glyph-name="L" unicode="L" horiz-adv-x="648" 
d="M23 42l77 23l107 588l-83 25c-2 14 -1 28 4 42h337c2 -13 1 -27 -4 -42l-84 -25l-105 -577h228l45 109c11 2 21 3 31 3c11 0 22 -1 32 -3l-25 -185h-564c-2 14 -1 28 4 42z" />
    <glyph glyph-name="M" unicode="M" horiz-adv-x="1050" 
d="M517 217h4l252 503h265c2 -15 1 -29 -4 -42l-83 -25l-49 -586l83 -25c2 -14 0 -28 -5 -42h-332c-2 14 -1 28 4 42l83 25l40 482h-4l-267 -534l-102 -25l-21 10l-83 549h-4l-126 -482l85 -25c2 -14 1 -28 -4 -42h-249c-3 13 -2 27 3 42l86 26l155 585l-89 25
c-2 14 -1 28 4 42h284z" />
    <glyph glyph-name="N" unicode="N" horiz-adv-x="771" 
d="M467 2l-207 560h-4l-91 -495l85 -25c2 -14 0 -28 -5 -42h-249c-1 15 0 29 5 42l86 26l109 587l-90 23c-2 14 -1 28 4 42h269l193 -523h4l86 456l-85 25c-2 14 -1 28 4 42h242c2 -15 1 -29 -4 -42l-80 -26l-116 -626l-137 -36z" />
    <glyph glyph-name="O" unicode="O" horiz-adv-x="788" 
d="M468 657c-67 0 -123 -42 -155 -98c-15 -28 -28 -60 -39 -96c-21 -71 -28 -133 -28 -189c1 -93 27 -211 136 -211c77 0 138 59 169 140c32 81 47 165 47 238c0 48 -7 91 -24 138s-55 78 -106 78zM480 730c91 0 163 -26 215 -79c52 -52 78 -123 78 -212
c0 -81 -16 -155 -47 -222s-79 -122 -142 -164s-136 -63 -219 -63c-95 0 -168 27 -219 81c-51 55 -76 127 -76 218c0 78 16 150 49 217s82 121 145 162s135 62 216 62z" />
    <glyph glyph-name="P" unicode="P" horiz-adv-x="673" 
d="M16 42l84 25l106 586l-84 25c-2 14 -1 28 4 42h210c79 0 134 -4 197 -21c92 -22 146 -76 150 -181c0 -96 -43 -167 -115 -207c-71 -39 -154 -56 -253 -56h-12l-33 -188l84 -25c2 -13 0 -27 -5 -42h-337c-2 14 -1 28 4 42zM379 647h-4l-58 -319h-4c119 0 194 68 194 189
c0 81 -53 130 -128 130z" />
    <glyph glyph-name="Q" unicode="Q" horiz-adv-x="788" 
d="M468 657c-67 0 -123 -42 -155 -98c-15 -28 -28 -60 -39 -96c-21 -71 -28 -133 -28 -189c1 -93 27 -211 136 -211c80 0 143 61 172 146c31 85 44 167 44 242c0 33 -3 64 -10 93s-20 55 -41 78s-47 35 -79 35zM480 730c91 0 162 -26 214 -78c53 -52 79 -122 79 -209
c0 -106 -27 -199 -80 -280s-127 -134 -222 -161c23 -71 57 -100 137 -115c2 -15 1 -31 -3 -47c-161 -3 -261 48 -302 155c-147 23 -233 129 -233 288c-5 240 169 450 410 447z" />
    <glyph glyph-name="R" unicode="R" horiz-adv-x="729" 
d="M483 0l-146 283h-28l-39 -216l84 -25c2 -13 0 -27 -5 -42h-337c-2 15 -1 29 4 42l84 25l106 586l-84 25c-2 14 -1 28 4 42h233c72 0 118 -2 181 -17c89 -20 144 -68 148 -169c0 -111 -71 -193 -183 -225l126 -242l73 -25c2 -14 1 -28 -4 -42h-217zM391 647h-16l-54 -293
c55 0 100 15 137 46s55 74 55 129c0 72 -46 118 -122 118z" />
    <glyph glyph-name="S" unicode="S" horiz-adv-x="651" 
d="M40 72l24 159c10 2 20 3 30 3c11 0 21 -1 31 -3l21 -139c39 -16 81 -24 126 -24c43 0 80 9 110 27c31 18 46 46 46 84c-1 69 -78 98 -157 134c-27 14 -53 28 -76 42c-45 29 -81 83 -81 152c0 71 28 126 84 165s127 58 212 58c88 0 166 -21 235 -64l-23 -151
c-10 -2 -20 -3 -30 -3c-11 0 -21 1 -30 3l-20 118c-37 14 -76 21 -117 21c-37 0 -70 -9 -98 -26c-27 -17 -41 -42 -41 -75c0 -55 51 -93 112 -120c90 -37 208 -84 207 -214c1 -165 -169 -229 -311 -229c-108 0 -193 27 -254 82z" />
    <glyph glyph-name="T" unicode="T" horiz-adv-x="685" 
d="M147 42l84 25l104 577h-143l-43 -103c-21 -4 -41 -4 -61 0l23 179h641l-29 -179c-10 -2 -20 -3 -31 -3c-10 0 -20 1 -30 3l-15 103h-142l-104 -577l84 -25c2 -14 1 -28 -4 -42h-338c-2 14 -1 28 4 42z" />
    <glyph glyph-name="U" unicode="U" horiz-adv-x="758" 
d="M136 346l55 307l-83 25c-2 14 -1 28 4 42h337c2 -14 1 -28 -4 -42l-84 -25l-58 -314c-7 -38 -10 -72 -10 -103c0 -99 39 -149 118 -149c57 0 100 17 127 52s47 87 60 154l68 360l-85 25c-2 14 0 28 5 42h241c2 -14 0 -28 -5 -42l-79 -26l-67 -355
c-20 -105 -53 -182 -98 -232c-45 -49 -116 -74 -211 -74c-162 0 -243 81 -243 243c0 33 4 70 12 112z" />
    <glyph glyph-name="V" unicode="V" horiz-adv-x="746" 
d="M96 720h323c2 -14 1 -28 -4 -42l-81 -25l76 -483h4l262 483l-84 25c-2 15 -1 29 4 42h251c2 -14 1 -28 -4 -42l-80 -26l-341 -623l-134 -39l-21 10l-102 652l-73 26c-2 15 -1 29 4 42z" />
    <glyph glyph-name="W" unicode="W" horiz-adv-x="1021" 
d="M94 720h321c2 -13 1 -27 -4 -42l-81 -25l27 -443h4l217 481l114 29l20 -11l26 -499h4l212 443l-84 25c-2 15 -1 29 4 42h249c2 -13 1 -27 -4 -42l-81 -25l-299 -624l-134 -39l-21 10l-26 458h-4l-195 -429l-134 -39l-21 10l-42 653l-72 25c-2 15 -1 29 4 42z" />
    <glyph glyph-name="X" unicode="X" horiz-adv-x="728" 
d="M347 653l88 -192l159 192l-82 25c-2 15 -1 29 4 42h261c2 -14 1 -28 -4 -42l-82 -27l-222 -268l145 -315l81 -26c2 -14 0 -28 -5 -42h-338c-2 15 -1 29 4 42l75 25l-91 198l-163 -197l81 -26c2 -15 1 -29 -4 -42h-267c-2 14 -1 28 4 42l87 26l228 274l-141 310l-71 26
c-2 15 -1 29 4 42h332c2 -13 1 -27 -4 -42z" />
    <glyph glyph-name="Y" unicode="Y" horiz-adv-x="692" 
d="M158 42l83 25l40 218l-139 367l-73 26c-2 15 -1 29 4 42h332c2 -13 1 -27 -4 -42l-81 -25l103 -272h4l188 272l-86 25c-2 15 -1 29 4 42h255c2 -14 0 -28 -5 -42l-75 -24l-258 -375l-39 -212l84 -25c2 -14 1 -28 -4 -42h-338c-2 15 0 29 5 42z" />
    <glyph glyph-name="Z" unicode="Z" horiz-adv-x="699" 
d="M657 185l-26 -185h-634l12 63l467 577l-1 4h-247l-44 -103c-10 -2 -20 -3 -31 -3c-10 0 -20 1 -30 3l23 179h573l-12 -63l-469 -577l1 -4h309l46 109c11 2 21 3 31 3c11 0 22 -1 32 -3z" />
    <glyph glyph-name="bracketleft" unicode="[" horiz-adv-x="374" 
d="M400 677h-122l-155 -794h127c0 -25 -4 -49 -13 -73h-224l-4 5l180 930l6 5h219c0 -24 -5 -48 -14 -73z" />
    <glyph glyph-name="backslash" unicode="\" horiz-adv-x="465" 
d="M425 -55h-83l-247 801l2 4h83l248 -801z" />
    <glyph glyph-name="bracketright" unicode="]" horiz-adv-x="377" 
d="M-13 -117h122l155 794h-127c0 25 4 49 13 73h224l4 -5l-180 -930l-6 -5h-219c0 24 5 48 14 73z" />
    <glyph glyph-name="asciicircum" unicode="^" horiz-adv-x="646" 
d="M66 270l223 430c12 1 23 2 33 2c11 0 22 -1 33 -2l224 -430c-20 -15 -45 -28 -75 -38l-179 350h-4l-181 -350c-27 9 -52 22 -74 38z" />
    <glyph glyph-name="underscore" unicode="_" horiz-adv-x="500" 
d="M0 -75h500v-50h-500v50z" />
    <glyph glyph-name="grave" unicode="`" horiz-adv-x="400" 
d="M250 792l111 -176c-13 -15 -29 -26 -47 -33l-139 153c21 27 46 45 75 56z" />
    <glyph glyph-name="a" unicode="a" horiz-adv-x="652" 
d="M418 427l6 34c-16 7 -32 10 -47 10c-34 0 -64 -18 -91 -53c-52 -71 -75 -167 -75 -244c0 -49 10 -73 29 -73c34 0 68 31 102 94c35 63 60 141 76 232zM552 540h53l-87 -469l79 8c5 -14 7 -30 6 -48l-167 -38c-11 -3 -21 -4 -30 -4c-42 0 -59 25 -51 76l13 76h-7
c-46 -101 -106 -151 -181 -151c-47 0 -82 17 -104 51c-21 34 -32 75 -32 124c0 61 13 119 39 176s63 105 112 142c49 38 102 57 161 57c43 0 78 -9 107 -28c5 9 13 15 24 19c21 9 33 9 65 9z" />
    <glyph glyph-name="b" unicode="b" horiz-adv-x="653" 
d="M249 108l-8 -42c11 -6 24 -9 39 -9c63 0 113 46 138 109c25 64 38 128 38 180c0 55 -10 83 -30 83c-31 0 -65 -32 -100 -95s-60 -138 -77 -226zM121 -10h-57l127 692h-68c-5 16 -8 32 -7 48l156 28c12 2 23 3 32 3c45 0 62 -24 53 -73l-55 -299h4c51 95 102 152 183 152
c107 0 133 -105 133 -190c0 -96 -30 -180 -91 -253c-61 -72 -138 -108 -233 -108c-37 0 -68 8 -92 23c-17 -20 -37 -23 -85 -23z" />
    <glyph glyph-name="c" unicode="c" horiz-adv-x="555" 
d="M503 98c-66 -72 -146 -108 -241 -108c-135 0 -218 74 -218 202c0 94 32 175 95 244s142 104 235 104c58 0 112 -15 163 -45l-19 -132c-10 -2 -20 -3 -30 -3c-11 0 -20 1 -29 3l-12 97c-18 6 -36 9 -53 9c-135 0 -182 -150 -182 -263c0 -83 32 -125 96 -125
c28 0 57 6 87 19c31 13 54 28 71 45c17 -13 29 -29 37 -47z" />
    <glyph glyph-name="d" unicode="d" horiz-adv-x="657" 
d="M420 432l7 36c-13 3 -26 5 -37 5c-63 0 -113 -43 -138 -104s-38 -126 -38 -189c0 -53 10 -79 29 -79c29 0 62 33 98 99c37 66 63 143 79 232zM633 688l-113 -617l89 10c5 -15 7 -31 6 -48l-177 -40c-13 -3 -23 -4 -30 -4c-43 0 -61 25 -52 76l14 76h-7
c-51 -101 -112 -151 -184 -151c-92 0 -131 73 -131 173c0 103 30 191 90 265c60 75 139 112 236 112c21 0 43 -2 65 -6l28 148h-69c-5 15 -7 31 -6 48l156 28c12 2 23 3 32 3c45 0 62 -24 53 -73z" />
    <glyph glyph-name="e" unicode="e" horiz-adv-x="576" 
d="M221 299l1 -4l119 42c37 13 52 33 52 72s-16 58 -48 58c-65 0 -106 -56 -124 -168zM532 312l-320 -85v-21c0 -73 30 -127 102 -127c29 0 58 7 89 20c31 14 55 29 70 46c17 -13 29 -29 37 -47c-64 -72 -147 -108 -248 -108c-133 0 -218 79 -218 210c0 92 30 172 91 239
s137 101 230 101c51 0 94 -13 128 -40c35 -27 52 -66 52 -118c0 -27 -4 -51 -13 -70z" />
    <glyph glyph-name="f" unicode="f" horiz-adv-x="385" 
d="M425 459h-112l-56 -353c-14 -89 -51 -162 -111 -219c-60 -58 -122 -87 -185 -87c-55 0 -90 26 -106 78c18 25 42 47 72 65c25 -45 49 -68 72 -68c47 0 71 91 95 242l53 342h-76c0 15 2 28 7 38l80 25l8 46c23 128 103 192 230 192c47 0 90 -9 129 -26l-17 -128
c-10 -2 -20 -3 -30 -3c-11 0 -20 1 -29 3l-10 89c-3 1 -8 2 -16 2c-31 0 -55 -16 -68 -47s-18 -51 -25 -88l-7 -40h114c0 -22 -4 -43 -12 -63z" />
    <glyph glyph-name="g" unicode="g" horiz-adv-x="655" 
d="M427 434l5 27c-15 7 -30 10 -44 10c-37 0 -69 -16 -96 -48c-52 -64 -70 -149 -70 -230c0 -51 10 -76 29 -76c35 0 68 31 101 92s58 136 75 225zM363 73l13 74h-5c-45 -93 -106 -140 -183 -140c-91 0 -132 73 -132 173c0 62 12 120 37 174c51 109 151 186 271 186
c42 0 78 -9 108 -28c5 9 13 15 24 19c21 9 34 9 63 9h54l-83 -455c-33 -181 -153 -285 -324 -285c-71 0 -136 16 -194 47l16 122c18 3 36 3 55 0l16 -87c26 -9 54 -14 83 -14c63 0 107 21 132 64c27 43 38 80 49 141z" />
    <glyph glyph-name="h" unicode="h" horiz-adv-x="699" 
d="M622 348l-52 -277l79 10c5 -16 7 -32 6 -49l-167 -39c-13 -3 -23 -4 -29 -4c-41 0 -64 25 -55 76l48 258c4 20 6 39 6 57c0 31 -8 47 -25 47c-29 0 -64 -42 -107 -125c-42 -83 -69 -159 -82 -230l-11 -60l-157 -22l-11 10l126 682h-68c-5 15 -7 31 -7 48l156 28
c12 2 23 3 32 3c45 0 62 -24 53 -73l-60 -325h5c48 107 107 177 200 177c85 0 125 -60 125 -140c0 -13 -2 -31 -5 -52z" />
    <glyph glyph-name="i" unicode="i" horiz-adv-x="377" 
d="M318 629c-24 -4 -49 -6 -74 -6c-19 0 -37 1 -56 3c0 45 7 92 21 141c27 5 56 7 85 7c12 0 29 -1 52 -2c-2 -51 -11 -99 -28 -143zM320 468l-73 -397l78 10c5 -17 8 -33 7 -49l-168 -39c-13 -3 -23 -4 -29 -4c-41 0 -64 27 -55 76l74 397h-69c-5 15 -7 31 -6 48l156 28
c11 2 20 3 29 3c46 0 65 -24 56 -73z" />
    <glyph glyph-name="j" unicode="j" horiz-adv-x="366" 
d="M68 24l81 438h-68c-5 16 -8 32 -7 48l156 28c12 2 23 3 32 3c45 0 62 -24 53 -73l-91 -485c-21 -119 -115 -172 -268 -185c-7 14 -12 29 -13 44c77 24 106 78 125 182zM313 629c-24 -4 -49 -6 -74 -6c-18 0 -37 1 -56 3c0 45 7 92 21 141c27 5 56 7 85 7
c12 0 29 -1 52 -2c-2 -51 -11 -99 -28 -143z" />
    <glyph glyph-name="k" unicode="k" horiz-adv-x="663" 
d="M399 33l-114 232l188 237c21 26 42 39 65 39c31 0 70 -22 118 -67c-8 -16 -17 -28 -28 -37c-25 12 -45 18 -59 18c-13 0 -25 -5 -35 -10c-4 -3 -17 -13 -21 -17l-25 -25l-65 -63l122 -245l62 23c10 -13 17 -27 22 -43l-100 -61c-27 -16 -50 -24 -69 -24
c-27 0 -47 14 -61 43zM357 688l-124 -676l-157 -22l-10 10l125 682h-68c-5 15 -7 31 -7 48l156 28c12 2 23 3 32 3c45 0 62 -24 53 -73z" />
    <glyph glyph-name="l" unicode="l" horiz-adv-x="378" 
d="M362 688l-113 -617l89 10c5 -15 7 -31 6 -48l-177 -40c-13 -3 -23 -4 -30 -4c-40 0 -63 24 -54 76l113 617h-68c-5 15 -8 31 -7 48l156 28c12 2 23 3 32 3c45 0 62 -24 53 -73z" />
    <glyph glyph-name="m" unicode="m" horiz-adv-x="1016" 
d="M939 348l-52 -277l79 10c5 -17 7 -33 6 -49l-167 -39c-13 -3 -23 -4 -30 -4c-45 0 -63 25 -54 76l46 250c5 22 7 43 7 63c0 33 -8 49 -24 49c-27 0 -62 -41 -105 -123c-42 -82 -69 -160 -82 -234l-10 -58l-157 -22l-10 10l60 323c3 19 5 37 5 54c0 33 -8 50 -24 50
c-27 0 -61 -41 -103 -123s-70 -159 -83 -232l-11 -60l-156 -22l-11 10l86 462h-68c-5 15 -8 31 -7 48l156 28c12 2 23 3 32 3c43 0 60 -24 51 -73l-19 -105h6c49 108 107 177 202 177c81 0 117 -58 117 -138c0 -14 -1 -27 -3 -39h6c24 51 45 85 77 121c33 36 76 56 125 56
c83 0 120 -59 120 -140c0 -16 -2 -33 -5 -52z" />
    <glyph glyph-name="n" unicode="n" horiz-adv-x="697" 
d="M620 348l-52 -277l79 10c5 -16 7 -32 6 -49l-167 -39c-13 -3 -23 -4 -29 -4c-43 0 -65 27 -56 76l48 258c5 23 7 43 7 60c0 29 -8 44 -25 44c-29 0 -64 -42 -107 -125c-42 -83 -69 -159 -82 -230l-11 -60l-157 -22l-11 10l86 462h-68c-5 15 -8 31 -7 48l156 28
c12 2 22 3 31 3c44 0 61 -24 52 -73l-19 -105h6c48 107 107 177 200 177c87 0 125 -59 125 -139c0 -17 -2 -34 -5 -53z" />
    <glyph glyph-name="o" unicode="o" horiz-adv-x="623" 
d="M342 469c-51 0 -87 -39 -106 -95c-17 -56 -24 -106 -24 -153c0 -107 28 -160 84 -160c49 0 86 40 103 96s25 107 25 152c0 33 -3 64 -14 100s-35 60 -68 60zM279 -10c-72 0 -129 22 -172 67c-42 45 -63 103 -63 174c0 89 29 162 87 221c59 59 134 88 226 88
c73 0 131 -22 172 -67c42 -45 63 -102 63 -172c0 -91 -29 -165 -87 -224c-58 -58 -133 -87 -226 -87z" />
    <glyph glyph-name="p" unicode="p" horiz-adv-x="651" 
d="M254 108l-7 -38c9 -3 19 -4 32 -4c67 0 119 47 144 111s36 126 36 182c0 47 -9 70 -26 70c-33 0 -67 -33 -103 -99s-61 -140 -76 -222zM235 3l-22 -122l78 10c5 -16 8 -32 7 -49l-168 -39c-9 -3 -19 -4 -30 -4c-43 0 -63 27 -54 76l109 587h-68c-5 16 -8 32 -7 48l156 28
c12 2 22 3 31 3c44 0 61 -24 52 -73l-14 -79h6c49 95 98 152 178 152c49 0 84 -18 105 -54s32 -82 32 -137c0 -99 -32 -183 -96 -250c-63 -67 -144 -101 -241 -101c-21 0 -39 1 -54 4z" />
    <glyph glyph-name="q" unicode="q" horiz-adv-x="645" 
d="M419 427l7 34c-16 7 -31 10 -45 10c-117 0 -166 -183 -166 -298c0 -48 9 -72 28 -72c31 0 64 33 98 98c34 66 60 142 78 228zM553 540h53l-121 -659l79 8c5 -15 7 -31 6 -48l-167 -38c-15 -3 -25 -4 -31 -4c-43 0 -63 28 -54 76l49 266h-4c-49 -101 -110 -151 -182 -151
c-92 0 -133 73 -133 173c0 63 13 123 38 180c26 57 63 104 111 141s102 56 161 56c43 0 79 -9 107 -28c5 9 13 15 24 19c21 9 33 9 64 9z" />
    <glyph glyph-name="r" unicode="r" horiz-adv-x="544" 
d="M554 529l-24 -175c-18 -4 -38 -4 -59 0l-9 73c-44 0 -87 -32 -130 -97c-42 -65 -71 -146 -88 -243l-13 -75l-157 -22l-11 10l86 462h-68c-5 15 -8 31 -7 48l156 28c12 2 22 3 31 3c43 0 60 -24 52 -73l-15 -88h6c45 92 114 160 199 160c20 0 37 -4 51 -11z" />
    <glyph glyph-name="s" unicode="s" horiz-adv-x="557" 
d="M118 190l13 -105c26 -16 60 -24 102 -24c59 0 103 21 103 68c0 31 -37 53 -84 70c-65 25 -153 67 -152 176c0 126 120 165 222 165c76 0 143 -17 202 -51l-17 -126c-9 -2 -18 -3 -29 -3s-21 1 -30 3l-13 83c-27 15 -62 23 -105 23c-54 0 -81 -18 -81 -55
c0 -35 38 -60 85 -80c69 -27 157 -64 157 -166c0 -41 -13 -75 -40 -103c-53 -56 -126 -75 -205 -75c-83 0 -152 21 -209 62l19 138c10 2 20 3 31 3c10 0 20 -1 31 -3z" />
    <glyph glyph-name="t" unicode="t" horiz-adv-x="426" 
d="M437 459h-127l-51 -288c-4 -24 -6 -41 -6 -51c0 -29 11 -44 32 -44c19 0 45 10 78 29c13 -15 22 -32 27 -51c-60 -43 -122 -64 -185 -64c-81 0 -119 44 -119 116c0 17 1 32 4 46l54 307h-61c0 14 2 27 7 38l66 25l26 140l160 30l9 -10l-29 -160h127c0 -23 -4 -44 -12 -63
z" />
    <glyph glyph-name="u" unicode="u" horiz-adv-x="697" 
d="M645 530l-85 -459l79 10c5 -15 7 -32 6 -49l-167 -39c-13 -3 -24 -4 -32 -4c-42 0 -59 22 -51 66l21 112h-7c-48 -109 -106 -178 -203 -178c-77 0 -123 56 -123 137c0 15 2 33 5 53l53 283h-68c-5 14 -7 30 -7 48l156 28c11 2 22 3 33 3c43 0 61 -22 54 -65l-51 -271
c-4 -20 -6 -38 -6 -53c0 -33 9 -49 27 -49c29 0 64 40 105 119c41 80 67 153 79 219l14 77l158 22z" />
    <glyph glyph-name="v" unicode="v" horiz-adv-x="587" 
d="M191 -10l-13 10l-71 456h-69c-5 16 -7 32 -6 49l142 31c11 3 22 4 33 4c39 0 55 -21 63 -68l53 -342h4c91 101 136 203 136 304c0 34 -7 62 -21 85c14 16 32 28 53 35c45 -33 83 -80 83 -105c0 -53 -31 -126 -93 -217c-61 -91 -122 -159 -181 -205z" />
    <glyph glyph-name="w" unicode="w" horiz-adv-x="892" 
d="M191 -10l-13 10l-73 456h-68c-5 16 -8 32 -7 49l147 33c15 3 24 4 29 4c35 0 53 -22 61 -70l47 -287h4c57 107 103 215 138 323l115 22l10 -9l53 -390h4c43 53 75 102 96 147c22 45 33 95 33 150c0 35 -7 65 -21 91c14 16 32 28 53 35c44 -33 83 -80 83 -105
c0 -55 -30 -128 -90 -219s-119 -158 -177 -203l-112 -37l-13 10l-43 300h-4c-33 -80 -79 -171 -140 -273z" />
    <glyph glyph-name="x" unicode="x" horiz-adv-x="614" 
d="M246 235l-93 185l-60 -33c-13 9 -23 23 -30 40l98 84c22 19 45 29 68 29c41 0 53 -17 80 -69l49 -98c83 111 136 167 160 167c13 0 31 -7 54 -20s42 -27 56 -40c-7 -15 -17 -27 -28 -37c-11 7 -22 11 -34 11c-25 0 -54 -15 -87 -44s-63 -62 -90 -99l106 -211l67 40
c13 -12 23 -26 28 -41l-107 -88c-17 -14 -38 -21 -64 -21c-33 0 -58 18 -76 53l-67 130c-87 -122 -148 -183 -184 -183c-28 0 -78 28 -107 65c5 14 14 27 26 39c15 -12 29 -18 43 -18c27 0 60 18 98 54c39 37 70 72 94 105z" />
    <glyph glyph-name="y" unicode="y" horiz-adv-x="579" 
d="M246 -25l-141 431l-61 -30c-12 11 -21 24 -28 41l111 91c25 21 47 32 66 32c31 0 46 -18 62 -69l105 -321h4c27 51 49 107 66 167s26 103 26 130c0 21 -7 45 -22 73c17 15 37 26 60 34c16 -11 31 -27 46 -48c15 -20 23 -37 23 -52c0 -24 -10 -62 -29 -113
s-45 -107 -79 -168s-71 -120 -112 -176s-86 -103 -136 -140c-49 -38 -96 -57 -140 -57c-60 0 -85 28 -104 80c15 19 36 37 62 54c19 -30 39 -45 61 -45c49 0 103 29 160 86z" />
    <glyph glyph-name="z" unicode="z" horiz-adv-x="574" 
d="M358 0h-351l13 78l345 302l-1 4h-193l-28 -63c-9 -2 -19 -3 -30 -3c-9 0 -19 1 -29 3l27 209h454l-12 -78l-348 -302l1 -4h148c45 0 76 5 93 14s32 28 46 57c17 -1 33 -5 50 -13l-8 -35c-1 -6 -4 -16 -8 -31c-3 -15 -6 -25 -9 -30c-4 -11 -15 -41 -24 -50
s-23 -30 -39 -37c-22 -10 -55 -24 -97 -21z" />
    <glyph glyph-name="braceleft" unicode="{" horiz-adv-x="377" 
d="M261 -190h-49c-88 0 -132 42 -132 127c0 18 2 37 6 56l13 69c7 39 11 70 11 92c0 60 -22 91 -77 91c0 26 4 49 11 68c75 0 110 54 129 162l17 97c21 119 84 178 189 178h49c0 -23 -4 -45 -11 -65h-17c-67 0 -91 -30 -107 -125l-15 -88c-17 -103 -55 -168 -146 -191l-1 -4
c56 -19 84 -64 84 -134c0 -24 -3 -52 -10 -84l-16 -80c-3 -13 -4 -26 -4 -39c0 -43 24 -65 71 -65h16c0 -24 -4 -46 -11 -65z" />
    <glyph glyph-name="bar" unicode="|" horiz-adv-x="324" 
d="M227 770l5 -5v-990l-5 -5h-80l-5 5v990l5 5h80z" />
    <glyph glyph-name="braceright" unicode="}" horiz-adv-x="377" 
d="M140 750h49c88 0 132 -42 132 -127c0 -18 -2 -37 -6 -56l-13 -69c-7 -39 -11 -70 -11 -92c0 -60 22 -91 77 -91c0 -26 -4 -49 -11 -68c-75 0 -110 -54 -129 -162l-17 -97c-21 -119 -84 -178 -189 -178h-49c0 23 4 45 11 65h17c67 0 91 30 107 125l15 88
c17 103 55 168 146 191l1 4c-56 19 -84 64 -84 134c0 24 3 52 10 84l16 80c3 13 4 26 4 39c0 43 -24 65 -71 65h-16c0 24 4 46 11 65z" />
    <glyph glyph-name="asciitilde" unicode="~" horiz-adv-x="646" 
d="M114 207c-26 2 -48 8 -66 19c28 116 90 193 179 193c102 0 148 -120 207 -120c56 0 79 45 94 118c28 -3 50 -9 65 -17c-21 -120 -82 -195 -171 -195c-47 0 -91 29 -118 60c-25 31 -61 60 -90 60c-49 0 -83 -39 -100 -118z" />
    <glyph glyph-name="uni00A0" unicode="&#xa0;" horiz-adv-x="262" 
 />
    <glyph glyph-name="exclamdown" unicode="&#xa1;" horiz-adv-x="359" 
d="M144 393c3 53 12 99 27 137c21 4 44 6 69 6c23 0 41 -1 56 -3c0 -41 -7 -86 -21 -135c-25 -5 -52 -7 -81 -7c-12 0 -29 1 -50 2zM19 -167l145 463c11 2 23 3 36 3c12 0 23 -1 34 -3l-29 -463c-32 -3 -62 -5 -90 -5c-34 0 -66 2 -96 5z" />
    <glyph glyph-name="cent" unicode="&#xa2;" horiz-adv-x="609" 
d="M556 177c-57 -62 -122 -97 -195 -106l-18 -92c-13 -2 -25 -3 -37 -3c-13 0 -25 1 -36 3l18 90c-119 11 -191 83 -191 202c0 88 28 166 84 233s127 105 213 114l20 102c11 2 23 3 36 3c12 0 24 -1 37 -3l-20 -104c40 -3 81 -17 123 -42l-19 -132c-20 -4 -40 -4 -59 0
l-13 97c-17 6 -34 9 -53 9c-42 0 -77 -15 -106 -44c-56 -57 -75 -136 -75 -219s32 -125 96 -125c28 0 57 6 87 19c31 13 54 28 71 45c17 -15 30 -31 37 -47z" />
    <glyph glyph-name="sterling" unicode="&#xa3;" horiz-adv-x="609" 
d="M611 670l-22 -146c-11 -2 -21 -3 -30 -3c-10 0 -20 1 -30 3l-19 112c-11 3 -22 4 -35 4c-58 -5 -89 -21 -108 -67c-6 -17 -11 -30 -14 -41s-5 -27 -7 -49c-1 -22 -2 -38 -2 -47v-48h143c0 -25 -4 -48 -12 -69h-131c-3 -88 -31 -139 -123 -180v-4h255l44 94c9 2 19 3 30 3
c10 0 20 -1 30 -3l-37 -229h-527l9 48c107 47 142 132 150 271h-91c0 25 4 48 12 69h81v23c0 91 24 164 72 218c49 54 120 81 215 81c56 0 105 -13 147 -40z" />
    <glyph glyph-name="currency" unicode="&#xa4;" horiz-adv-x="609" 
d="M129 361c0 41 12 78 35 112l-113 104c15 24 35 44 59 60l105 -114c32 24 70 36 113 36c42 0 80 -12 114 -37l100 115c29 -19 49 -40 61 -61l-111 -104c23 -35 34 -72 34 -111c0 -42 -12 -80 -36 -113l113 -104c-15 -25 -35 -45 -60 -60l-102 113c-69 -45 -157 -45 -226 0
l-104 -113c-23 15 -43 36 -60 61l113 103c-23 34 -35 72 -35 113zM248 441c-43 -45 -43 -115 0 -160c22 -23 49 -34 80 -34s58 11 79 33c21 23 32 50 32 81s-11 58 -32 80c-21 23 -48 34 -79 34s-58 -11 -80 -34z" />
    <glyph glyph-name="yen" unicode="&#xa5;" horiz-adv-x="609" 
d="M632 634l-172 -249h110c1 -21 -2 -41 -10 -58h-138l-13 -72h136c1 -22 -2 -41 -11 -58h-135l-23 -130l83 -25c2 -14 0 -28 -5 -42h-336c-2 15 -1 29 4 42l83 25l23 130h-137c-1 22 2 41 10 58h137l12 72h-134c-1 21 2 40 10 58h108l-92 247l-65 26c-2 15 -1 29 4 42h311
c2 -14 1 -28 -4 -42l-70 -25l76 -203h4l141 203l-69 25c-2 14 -1 28 4 42h221c3 -14 1 -28 -4 -42z" />
    <glyph glyph-name="brokenbar" unicode="&#xa6;" horiz-adv-x="324" 
d="M232 330l-5 -5h-80l-5 5v385l5 5h80l5 -5v-385zM142 210l5 5h80l5 -5v-385l-5 -5h-80l-5 5v385z" />
    <glyph glyph-name="section" unicode="&#xa7;" horiz-adv-x="514" 
d="M516 690l-19 -128c-17 -3 -36 -3 -55 0l-12 94c-17 7 -39 11 -67 11c-59 0 -113 -24 -113 -73c0 -37 38 -65 85 -85c67 -27 157 -69 156 -174c0 -65 -32 -119 -95 -162c15 -22 22 -46 22 -72c0 -53 -22 -94 -65 -124c-43 -31 -93 -46 -149 -46c-67 0 -127 19 -180 56
l22 126c18 3 37 3 56 0l8 -93c17 -15 45 -22 85 -22c65 0 119 28 119 81c0 33 -39 58 -87 78c-69 29 -160 74 -159 185c0 62 33 113 99 154c-11 19 -16 42 -16 67c0 54 20 95 60 124c41 29 91 43 150 43c62 0 114 -13 155 -40zM205 454c-28 -24 -42 -54 -42 -89
c0 -37 29 -68 60 -84c15 -8 36 -19 63 -32s49 -24 65 -34c27 24 41 54 41 90c0 37 -32 69 -64 86c-16 9 -37 19 -64 31c-26 13 -46 23 -59 32z" />
    <glyph glyph-name="dieresis" unicode="&#xa8;" horiz-adv-x="400" 
d="M204 625c-21 -4 -42 -6 -62 -6c-16 0 -35 1 -56 4c-1 41 5 83 18 127c24 5 50 7 78 7c11 0 26 -1 46 -2c-1 -49 -9 -93 -24 -130zM442 625c-21 -4 -41 -6 -62 -6c-16 0 -35 1 -56 4c-1 41 5 83 18 127c24 5 50 7 78 7c11 0 26 -1 46 -2c-1 -49 -9 -93 -24 -130z" />
    <glyph glyph-name="copyright" unicode="&#xa9;" horiz-adv-x="771" 
d="M80 360c0 101 30 180 89 239s138 89 237 89c101 0 182 -29 241 -88c59 -58 89 -138 89 -240s-30 -182 -89 -241c-59 -58 -140 -87 -241 -87s-180 30 -239 89c-58 60 -87 140 -87 239zM156 360c0 -163 93 -260 250 -260c163 0 255 96 255 260c0 167 -94 260 -255 260
c-157 0 -250 -99 -250 -260zM520 434l-19 57c-16 4 -31 6 -46 6c-69 0 -104 -46 -104 -139c0 -77 32 -135 104 -135c13 0 29 3 47 8l22 63c11 3 23 3 34 0v-97c-45 -20 -91 -30 -138 -30c-116 0 -193 67 -193 188c0 131 85 194 212 194c44 0 83 -7 118 -22v-93
c-13 -3 -25 -3 -37 0z" />
    <glyph glyph-name="ordfeminine" unicode="&#xaa;" horiz-adv-x="450" 
d="M307 595l3 20c-7 3 -16 5 -26 5c-23 0 -43 -12 -61 -37c-35 -48 -48 -112 -48 -161c0 -32 5 -48 16 -48c19 0 41 24 66 71c25 48 42 98 50 150zM400 668h40l-56 -304l50 3l4 -39l-114 -25c-47 -11 -67 5 -60 45l9 51h-6c-31 -65 -72 -98 -122 -98c-63 0 -90 53 -90 118
c0 63 20 120 61 171c41 52 92 78 153 78c26 0 50 -6 71 -18c9 12 29 18 60 18z" />
    <glyph glyph-name="guillemotleft" unicode="&#xab;" horiz-adv-x="617" 
d="M63 272v4l238 215c19 -12 35 -26 49 -42l-153 -176l115 -190c-15 -15 -32 -28 -51 -38zM294 272v4l238 215c19 -12 35 -26 49 -42l-153 -176l115 -190c-15 -15 -32 -28 -51 -38z" />
    <glyph glyph-name="logicalnot" unicode="&#xac;" horiz-adv-x="646" 
d="M517 140v203h-466c-2 13 -3 26 -3 40c0 15 1 28 3 41h541l5 -5v-279c-13 -2 -26 -3 -39 -3s-27 1 -41 3z" />
    <glyph glyph-name="uni00AD" unicode="&#xad;" horiz-adv-x="406" 
d="M354 258h-291c0 29 4 56 11 83h291c1 -28 -2 -56 -11 -83z" />
    <glyph glyph-name="registered" unicode="&#xae;" horiz-adv-x="516" 
d="M159 371c-39 39 -59 92 -59 159s20 120 59 159s92 59 159 59s120 -20 159 -59s59 -92 59 -159s-20 -120 -59 -159s-92 -58 -159 -58s-120 19 -159 58zM199 656c-27 -30 -40 -72 -40 -126s13 -96 40 -126c27 -29 67 -44 119 -44s92 15 119 44c27 30 41 72 41 126
s-14 96 -41 126s-67 45 -119 45s-92 -15 -119 -45zM304 512h-15v-62l17 -5v-16h-85v16l17 5v165l-17 6v19h87c68 0 99 -14 99 -62c0 -28 -16 -52 -47 -60l55 -68l16 -5v-16h-65zM353 578c0 28 -16 35 -51 35h-13v-75h15c36 0 49 9 49 40z" />
    <glyph glyph-name="overscore" unicode="&#xaf;" horiz-adv-x="400" 
d="M420 620h-303c0 25 4 51 13 78h302c0 -27 -4 -53 -12 -78z" />
    <glyph glyph-name="degree" unicode="&#xb0;" horiz-adv-x="484" 
d="M313 730c52 0 94 -16 126 -49s48 -74 48 -124c0 -55 -18 -101 -55 -139c-36 -37 -82 -56 -137 -56c-53 0 -95 16 -127 49s-48 74 -48 124c0 55 18 102 54 139c37 37 83 56 139 56zM310 655c-68 0 -106 -51 -106 -120c0 -59 35 -99 94 -99c65 0 105 51 105 119
c0 59 -34 100 -93 100z" />
    <glyph glyph-name="plusminus" unicode="&#xb1;" horiz-adv-x="646" 
d="M593 353h-228v-211c-25 -5 -59 -5 -84 0v211h-228c-2 13 -3 26 -3 39s1 27 3 41h228v209c27 5 57 5 84 0v-209h228c2 -14 3 -28 3 -41s-1 -26 -3 -39zM593 0h-540c-2 13 -3 27 -3 40s1 26 3 40h540c2 -14 3 -27 3 -40s-1 -27 -3 -40z" />
    <glyph glyph-name="two.superior" unicode="&#xb2;" 
d="M206 578v-4h173l-14 -104h-313l6 45l133 112c52 44 77 75 77 130c0 49 -34 76 -81 60l-32 -95h-41v108c41 29 86 43 135 43c80 0 144 -42 144 -115c0 -35 -9 -59 -37 -83c-13 -12 -25 -21 -35 -28l-47 -29z" />
    <glyph glyph-name="three.superior" unicode="&#xb3;" 
d="M164 747h-41v91c39 23 86 35 139 35c37 0 70 -8 99 -23s43 -40 43 -73c0 -53 -43 -88 -104 -96v-4c51 -4 93 -36 93 -84c0 -43 -19 -76 -57 -98c-38 -21 -81 -32 -129 -32c-55 0 -102 15 -141 45l12 100h41l15 -80c19 -9 38 -14 58 -14c45 0 72 31 72 78
c0 39 -20 59 -61 59h-40l5 47h35c48 0 75 27 75 72c0 36 -23 53 -55 53c-13 0 -25 -3 -38 -8z" />
    <glyph glyph-name="acute" unicode="&#xb4;" horiz-adv-x="400" 
d="M171 626l146 166c27 -19 49 -42 66 -68l-170 -141c-16 11 -30 25 -42 43z" />
    <glyph glyph-name="mu" unicode="&#xb5;" horiz-adv-x="697" 
d="M90 179l63 339l159 22l10 -10l-62 -325c-4 -20 -6 -38 -6 -53c0 -33 9 -49 27 -49c25 0 58 38 99 114s70 156 87 239l12 62l158 22l10 -10l-85 -459l79 10c5 -16 7 -32 6 -49l-167 -39c-10 -3 -20 -4 -31 -4c-43 0 -60 28 -51 76l20 102h-7c-53 -118 -114 -177 -183 -177
c-19 0 -35 6 -50 18l-4 -1c-17 -65 -25 -127 -25 -185c-22 -11 -49 -19 -82 -22c-12 28 -18 62 -18 101c0 29 2 59 9 103c3 23 6 40 8 51l12 64c7 31 11 51 12 60z" />
    <glyph glyph-name="paragraph" unicode="&#xb6;" horiz-adv-x="570" 
d="M620 677l-93 -25l-149 -767c-13 -2 -26 -3 -38 -3c-13 0 -26 1 -39 3l148 759h-64l-147 -759c-28 -4 -50 -4 -78 0l80 407c-52 0 -92 18 -121 55c-28 37 -42 81 -42 133c0 80 26 140 79 180s122 60 208 60h261c1 -15 0 -30 -5 -43z" />
    <glyph glyph-name="middot" unicode="&#xb7;" horiz-adv-x="262" 
d="M202 227c-26 -4 -53 -6 -81 -6c-22 0 -42 1 -60 3c1 50 9 101 24 154c28 5 59 7 92 7c15 0 33 -1 56 -2c-3 -58 -14 -110 -31 -156z" />
    <glyph glyph-name="cedilla" unicode="&#xb8;" horiz-adv-x="400" 
d="M177 13h71c3 -17 4 -35 4 -56c0 -96 -43 -163 -144 -163c-29 0 -55 8 -78 24c5 19 14 39 27 58c17 -7 33 -11 48 -11c51 0 75 49 75 112c0 12 -1 24 -3 36z" />
    <glyph glyph-name="one.superior" unicode="&#xb9;" 
d="M346 822l-57 -303l74 -13l-4 -36h-271l4 36l73 13l52 280h-84l-3 35l154 37c45 11 70 -8 62 -49z" />
    <glyph glyph-name="ordmasculine" unicode="&#xba;" horiz-adv-x="427" 
d="M214 301c-97 0 -159 62 -159 153c0 61 20 112 59 153c40 41 94 61 162 61c93 0 152 -63 152 -152c0 -63 -20 -114 -60 -155c-39 -40 -91 -60 -154 -60zM262 620c-28 0 -49 -18 -64 -54c-15 -35 -22 -76 -22 -123c0 -63 16 -94 48 -94c26 0 46 18 61 53s23 76 23 123
c0 52 -15 95 -46 95z" />
    <glyph glyph-name="guillemotright" unicode="&#xbb;" horiz-adv-x="617" 
d="M561 264v-4l-238 -215c-19 12 -35 26 -49 42l153 176l-115 190c15 15 32 28 51 38zM330 264v-4l-238 -215c-19 12 -35 26 -49 42l153 176l-115 190c15 15 32 28 51 38z" />
    <glyph glyph-name="onequarter" unicode="&#xbc;" horiz-adv-x="924" 
d="M577 36l74 13l9 52h-176l3 24l257 278h97l-47 -253h55l-9 -49h-56l-9 -52l52 -13l-4 -36h-250zM580 153l1 -3h89l22 119h-5zM336 658l-57 -303l74 -13l-4 -36h-271l4 36l73 13l52 280h-84l-3 35l154 37c45 11 70 -8 62 -49zM177 0l541 730c22 -11 41 -25 56 -43
l-541 -730c-23 9 -41 24 -56 43z" />
    <glyph glyph-name="onehalf" unicode="&#xbd;" horiz-adv-x="924" 
d="M330 658l-57 -303l74 -13l-4 -36h-271l4 36l73 13l52 280h-84l-3 35l154 37c45 11 70 -8 62 -49zM683 108v-4h173l-14 -104h-313l6 45l133 112c52 44 77 75 77 130c0 49 -34 76 -81 60l-32 -95h-41v108c41 29 86 43 135 43c80 0 144 -42 144 -115c0 -35 -9 -59 -37 -83
c-13 -12 -25 -21 -35 -28l-47 -29zM171 0l541 730c22 -11 41 -25 56 -43l-541 -730c-23 9 -41 24 -56 43z" />
    <glyph glyph-name="threequarters" unicode="&#xbe;" horiz-adv-x="924" 
d="M160 584h-41v91c39 23 86 35 139 35c37 0 70 -8 99 -23s43 -40 43 -73c0 -53 -43 -88 -104 -96v-4c51 -4 93 -36 93 -84c0 -43 -19 -76 -57 -98c-38 -21 -81 -32 -129 -32c-55 0 -102 15 -141 45l12 100h41l15 -80c19 -9 38 -14 58 -14c45 0 72 31 72 78
c0 39 -20 59 -61 59h-40l5 47h35c48 0 75 27 75 72c0 36 -23 53 -55 53c-13 0 -25 -3 -38 -8zM595 36l74 13l9 52h-176l3 24l257 278h97l-47 -253h55l-9 -49h-56l-9 -52l52 -13l-4 -36h-250zM598 153l1 -3h89l22 119h-5zM189 0l541 730c22 -11 41 -25 56 -43l-541 -730
c-23 9 -41 24 -56 43z" />
    <glyph glyph-name="questiondown" unicode="&#xbf;" horiz-adv-x="526" 
d="M455 39v-140c-67 -51 -144 -76 -231 -76c-56 0 -104 14 -145 42c-41 27 -61 67 -61 119c0 88 51 137 135 181l51 25c27 13 46 23 57 29c21 13 58 44 73 77c24 4 48 4 71 0c-7 -60 -44 -105 -85 -133c-59 -41 -129 -78 -129 -167c0 -53 32 -95 92 -95c27 0 53 6 78 18
l33 120c10 2 20 3 30 3c11 0 21 -1 31 -3zM312 393c3 53 12 99 27 137c21 4 44 6 69 6c23 0 41 -1 56 -3c0 -41 -7 -86 -21 -135c-25 -5 -52 -7 -81 -7c-12 0 -29 1 -50 2z" />
    <glyph glyph-name="Agrave" unicode="&#xc0;" horiz-adv-x="800" 
d="M430 42l82 25l-23 154h-245l-88 -154l84 -25c2 -15 1 -29 -4 -42h-252c-2 14 -1 28 3 42l81 26l359 623l138 39l19 -10l98 -652l74 -26c2 -13 1 -27 -4 -42h-326c-2 15 -1 29 4 42zM478 297l-37 256h-4l-149 -256h190zM404 952l212 -126c-5 -21 -15 -40 -28 -56l-227 94
c8 31 22 60 43 88z" />
    <glyph glyph-name="Aacute" unicode="&#xc1;" horiz-adv-x="800" 
d="M430 42l82 25l-23 154h-245l-88 -154l84 -25c2 -15 1 -29 -4 -42h-252c-2 14 -1 28 3 42l81 26l359 623l138 39l19 -10l98 -652l74 -26c2 -13 1 -27 -4 -42h-326c-2 15 -1 29 4 42zM478 297l-37 256h-4l-149 -256h190zM422 826l212 126c21 -27 36 -57 43 -88l-228 -94
c-12 17 -21 35 -27 56z" />
    <glyph glyph-name="Acircumflex" unicode="&#xc2;" horiz-adv-x="800" 
d="M430 42l82 25l-23 154h-245l-88 -154l84 -25c2 -15 1 -29 -4 -42h-252c-2 14 -1 28 3 42l81 26l359 623l138 39l19 -10l98 -652l74 -26c2 -13 1 -27 -4 -42h-326c-2 15 -1 29 4 42zM478 297l-37 256h-4l-149 -256h190zM327 819l188 133h10l147 -134
c-9 -20 -21 -36 -37 -48l-125 86l-153 -86c-14 13 -24 29 -30 49z" />
    <glyph glyph-name="Atilde" unicode="&#xc3;" horiz-adv-x="800" 
d="M430 42l82 25l-23 154h-245l-88 -154l84 -25c2 -15 1 -29 -4 -42h-252c-2 14 -1 28 3 42l81 26l359 623l138 39l19 -10l98 -652l74 -26c2 -13 1 -27 -4 -42h-326c-2 15 -1 29 4 42zM478 297l-37 256h-4l-149 -256h190zM417 773c-23 -1 -42 2 -58 9c9 35 17 56 32 84
c16 28 40 43 69 43c21 0 44 -9 71 -28c27 -18 46 -27 56 -27c25 0 40 29 44 58c21 1 40 -2 58 -9c-3 -33 -14 -62 -32 -87c-17 -25 -41 -38 -71 -38c-22 0 -47 9 -75 27c-27 19 -44 28 -50 28c-17 0 -31 -20 -44 -60z" />
    <glyph glyph-name="Adieresis" unicode="&#xc4;" horiz-adv-x="800" 
d="M430 42l82 25l-23 154h-245l-88 -154l84 -25c2 -15 1 -29 -4 -42h-252c-2 14 -1 28 3 42l81 26l359 623l138 39l19 -10l98 -652l74 -26c2 -13 1 -27 -4 -42h-326c-2 15 -1 29 4 42zM478 297l-37 256h-4l-149 -256h190zM443 792c-22 -4 -44 -6 -65 -6c-17 0 -34 1 -53 4
c-2 42 4 84 19 127c27 5 52 8 76 8c16 0 32 -1 48 -3c1 -47 -7 -90 -25 -130zM697 792c-22 -4 -44 -6 -65 -6c-17 0 -34 1 -53 4c-2 42 4 84 19 127c27 5 52 8 76 8c16 0 32 -1 48 -3c1 -47 -7 -90 -25 -130z" />
    <glyph glyph-name="Aring" unicode="&#xc5;" horiz-adv-x="800" 
d="M430 42l82 25l-23 154h-245l-88 -154l84 -25c2 -15 1 -29 -4 -42h-252c-2 14 -1 28 3 42l81 26l359 623l138 39l19 -10l98 -652l74 -26c2 -13 1 -27 -4 -42h-326c-2 15 -1 29 4 42zM478 297l-37 256h-4l-149 -256h190zM524 962c57 0 101 -40 101 -95
c0 -68 -54 -116 -123 -116c-59 0 -101 40 -101 96c0 65 54 115 123 115zM520 914c-35 0 -57 -29 -57 -64c0 -28 18 -52 46 -52c32 0 53 32 53 65c0 27 -15 51 -42 51z" />
    <glyph glyph-name="AE" unicode="&#xc6;" horiz-adv-x="1091" 
d="M321 720h780l-23 -170c-10 -2 -20 -3 -30 -3c-11 0 -21 1 -31 3l-12 94h-234l-43 -240h165l29 63c17 3 34 3 51 0l-29 -222c-17 -3 -34 -3 -51 0l-14 83h-164l-44 -252h272l44 99c10 2 20 3 31 3c10 0 20 -1 30 -3l-23 -175h-610c-2 13 -1 27 4 42l81 25l46 261h-218
l-172 -261l84 -25c2 -13 1 -27 -4 -42h-257c-2 14 -1 28 4 42l80 26l385 587l-131 23c-2 14 -1 28 4 42zM377 404h183l44 250h-63z" />
    <glyph glyph-name="Ccedilla" unicode="&#xc7;" horiz-adv-x="709" 
d="M550 102l59 118c10 2 20 3 31 3c10 0 20 -1 30 -3l-30 -153c-51 -37 -113 -61 -187 -72c1 -16 2 -29 2 -38c0 -96 -43 -163 -144 -163c-29 0 -55 8 -78 24c5 19 14 39 27 58c17 -7 33 -11 48 -11c51 0 75 49 75 112v13c-99 1 -176 29 -231 84c-55 56 -82 130 -82 222
c0 123 42 226 125 309s189 125 316 125c81 0 149 -19 202 -56l-23 -153c-20 -4 -40 -4 -60 0l-19 118c-29 12 -61 18 -96 18c-189 0 -269 -196 -269 -360c0 -108 39 -225 171 -225c40 0 84 10 133 30z" />
    <glyph glyph-name="Egrave" unicode="&#xc8;" horiz-adv-x="693" 
d="M16 42l82 25l106 586l-82 25c-2 13 -1 27 4 42h575l-23 -170c-10 -2 -20 -3 -31 -3c-10 0 -20 1 -30 3l-14 94h-231l-41 -227h160l29 63c17 3 34 3 51 0l-30 -222c-17 -3 -34 -3 -51 0l-13 83h-160l-48 -265h272l45 99c10 2 20 3 30 3c9 0 20 -1 31 -3l-24 -175h-612
c-1 15 0 29 5 42zM337 952l212 -126c-5 -21 -15 -40 -28 -56l-227 94c8 31 22 60 43 88z" />
    <glyph glyph-name="Eacute" unicode="&#xc9;" horiz-adv-x="693" 
d="M16 42l82 25l106 586l-82 25c-2 13 -1 27 4 42h575l-23 -170c-10 -2 -20 -3 -31 -3c-10 0 -20 1 -30 3l-14 94h-231l-41 -227h160l29 63c17 3 34 3 51 0l-30 -222c-17 -3 -34 -3 -51 0l-13 83h-160l-48 -265h272l45 99c10 2 20 3 30 3c9 0 20 -1 31 -3l-24 -175h-612
c-1 15 0 29 5 42zM354 826l212 126c21 -27 36 -57 43 -88l-228 -94c-12 17 -21 35 -27 56z" />
    <glyph glyph-name="Ecircumflex" unicode="&#xca;" horiz-adv-x="693" 
d="M16 42l82 25l106 586l-82 25c-2 13 -1 27 4 42h575l-23 -170c-10 -2 -20 -3 -31 -3c-10 0 -20 1 -30 3l-14 94h-231l-41 -227h160l29 63c17 3 34 3 51 0l-30 -222c-17 -3 -34 -3 -51 0l-13 83h-160l-48 -265h272l45 99c10 2 20 3 30 3c9 0 20 -1 31 -3l-24 -175h-612
c-1 15 0 29 5 42zM281 819l188 133h10l147 -134c-9 -20 -21 -36 -37 -48l-125 86l-153 -86c-14 13 -24 29 -30 49z" />
    <glyph glyph-name="Edieresis" unicode="&#xcb;" horiz-adv-x="693" 
d="M16 42l82 25l106 586l-82 25c-2 13 -1 27 4 42h575l-23 -170c-10 -2 -20 -3 -31 -3c-10 0 -20 1 -30 3l-14 94h-231l-41 -227h160l29 63c17 3 34 3 51 0l-30 -222c-17 -3 -34 -3 -51 0l-13 83h-160l-48 -265h272l45 99c10 2 20 3 30 3c9 0 20 -1 31 -3l-24 -175h-612
c-1 15 0 29 5 42zM367 792c-22 -4 -44 -6 -65 -6c-17 0 -34 1 -53 4c-2 42 4 84 19 127c27 5 52 8 76 8c16 0 32 -1 48 -3c1 -47 -7 -90 -25 -130zM621 792c-22 -4 -44 -6 -65 -6c-17 0 -34 1 -53 4c-2 42 4 84 19 127c27 5 52 8 76 8c16 0 32 -1 48 -3
c1 -47 -7 -90 -25 -130z" />
    <glyph glyph-name="Igrave" unicode="&#xcc;" horiz-adv-x="418" 
d="M100 67l106 586l-84 25c-2 14 -1 28 4 42h338c2 -13 1 -27 -4 -42l-84 -25l-106 -586l84 -25c2 -13 0 -27 -5 -42h-337c-2 14 -1 28 4 42zM203 952l212 -126c-5 -21 -15 -40 -28 -56l-227 94c8 31 22 60 43 88z" />
    <glyph glyph-name="Iacute" unicode="&#xcd;" horiz-adv-x="418" 
d="M100 67l106 586l-84 25c-2 14 -1 28 4 42h338c2 -13 1 -27 -4 -42l-84 -25l-106 -586l84 -25c2 -13 0 -27 -5 -42h-337c-2 14 -1 28 4 42zM221 826l212 126c21 -27 36 -57 43 -88l-228 -94c-12 17 -21 35 -27 56z" />
    <glyph glyph-name="Icircumflex" unicode="&#xce;" horiz-adv-x="418" 
d="M100 67l106 586l-84 25c-2 14 -1 28 4 42h338c2 -13 1 -27 -4 -42l-84 -25l-106 -586l84 -25c2 -13 0 -27 -5 -42h-337c-2 14 -1 28 4 42zM131 819l188 133h10l147 -134c-9 -20 -21 -36 -37 -48l-125 86l-153 -86c-14 13 -24 29 -30 49z" />
    <glyph glyph-name="Idieresis" unicode="&#xcf;" horiz-adv-x="418" 
d="M100 67l106 586l-84 25c-2 14 -1 28 4 42h338c2 -13 1 -27 -4 -42l-84 -25l-106 -586l84 -25c2 -13 0 -27 -5 -42h-337c-2 14 -1 28 4 42zM243 792c-22 -4 -44 -6 -65 -6c-17 0 -34 1 -53 4c-2 42 4 84 19 127c27 5 52 8 76 8c16 0 32 -1 48 -3c1 -47 -7 -90 -25 -130z
M497 792c-22 -4 -44 -6 -65 -6c-17 0 -34 1 -53 4c-2 42 4 84 19 127c27 5 52 8 76 8c16 0 32 -1 48 -3c1 -47 -7 -90 -25 -130z" />
    <glyph glyph-name="Eth" unicode="&#xd0;" horiz-adv-x="783" 
d="M452 344h-135l-48 -271h15c103 0 180 32 231 96s77 146 77 246c0 148 -58 232 -202 232h-20l-41 -234h133c1 -22 -3 -45 -10 -69zM73 413h86l43 240l-83 25c-2 14 -1 28 4 42h262c116 0 204 -19 273 -63c71 -44 109 -123 109 -234c0 -141 -44 -246 -132 -317
c-87 -71 -210 -106 -367 -106h-257c-2 13 -1 27 4 42l82 25l50 277h-84c0 21 3 44 10 69z" />
    <glyph glyph-name="Ntilde" unicode="&#xd1;" horiz-adv-x="771" 
d="M467 2l-207 560h-4l-91 -495l85 -25c2 -14 0 -28 -5 -42h-249c-1 15 0 29 5 42l86 26l109 587l-90 23c-2 14 -1 28 4 42h269l193 -523h4l86 456l-85 25c-2 14 -1 28 4 42h242c2 -15 1 -29 -4 -42l-80 -26l-116 -626l-137 -36zM391 772c-23 -1 -42 2 -58 9
c9 35 17 56 32 84c16 28 40 43 69 43c21 0 44 -9 71 -28c27 -18 46 -27 56 -27c25 0 40 29 44 58c21 1 40 -2 58 -9c-3 -33 -14 -62 -32 -87c-17 -25 -41 -38 -71 -38c-50 0 -107 55 -125 55c-17 0 -31 -20 -44 -60z" />
    <glyph glyph-name="Ograve" unicode="&#xd2;" horiz-adv-x="788" 
d="M468 657c-67 0 -123 -42 -155 -98c-15 -28 -28 -60 -39 -96c-21 -71 -28 -133 -28 -189c1 -93 27 -211 136 -211c77 0 138 59 169 140c32 81 47 165 47 238c0 48 -7 91 -24 138s-55 78 -106 78zM480 730c91 0 163 -26 215 -79c52 -52 78 -123 78 -212
c0 -81 -16 -155 -47 -222s-79 -122 -142 -164s-136 -63 -219 -63c-95 0 -168 27 -219 81c-51 55 -76 127 -76 218c0 78 16 150 49 217s82 121 145 162s135 62 216 62zM386 952l212 -126c-5 -21 -15 -40 -28 -56l-227 94c8 31 22 60 43 88z" />
    <glyph glyph-name="Oacute" unicode="&#xd3;" horiz-adv-x="788" 
d="M468 657c-67 0 -123 -42 -155 -98c-15 -28 -28 -60 -39 -96c-21 -71 -28 -133 -28 -189c1 -93 27 -211 136 -211c77 0 138 59 169 140c32 81 47 165 47 238c0 48 -7 91 -24 138s-55 78 -106 78zM480 730c91 0 163 -26 215 -79c52 -52 78 -123 78 -212
c0 -81 -16 -155 -47 -222s-79 -122 -142 -164s-136 -63 -219 -63c-95 0 -168 27 -219 81c-51 55 -76 127 -76 218c0 78 16 150 49 217s82 121 145 162s135 62 216 62zM400 826l212 126c21 -27 36 -57 43 -88l-228 -94c-12 17 -21 35 -27 56z" />
    <glyph glyph-name="Ocircumflex" unicode="&#xd4;" horiz-adv-x="788" 
d="M468 657c-67 0 -123 -42 -155 -98c-15 -28 -28 -60 -39 -96c-21 -71 -28 -133 -28 -189c1 -93 27 -211 136 -211c77 0 138 59 169 140c32 81 47 165 47 238c0 48 -7 91 -24 138s-55 78 -106 78zM480 730c91 0 163 -26 215 -79c52 -52 78 -123 78 -212
c0 -81 -16 -155 -47 -222s-79 -122 -142 -164s-136 -63 -219 -63c-95 0 -168 27 -219 81c-51 55 -76 127 -76 218c0 78 16 150 49 217s82 121 145 162s135 62 216 62zM325 819l188 133h10l147 -134c-9 -20 -21 -36 -37 -48l-125 86l-153 -86c-14 13 -24 29 -30 49z" />
    <glyph glyph-name="Otilde" unicode="&#xd5;" horiz-adv-x="788" 
d="M468 657c-67 0 -123 -42 -155 -98c-15 -28 -28 -60 -39 -96c-21 -71 -28 -133 -28 -189c1 -93 27 -211 136 -211c77 0 138 59 169 140c32 81 47 165 47 238c0 48 -7 91 -24 138s-55 78 -106 78zM480 730c91 0 163 -26 215 -79c52 -52 78 -123 78 -212
c0 -81 -16 -155 -47 -222s-79 -122 -142 -164s-136 -63 -219 -63c-95 0 -168 27 -219 81c-51 55 -76 127 -76 218c0 78 16 150 49 217s82 121 145 162s135 62 216 62zM383 772c-23 -1 -42 2 -58 9c9 35 17 56 32 84c16 28 40 43 69 43c21 0 44 -9 71 -28
c27 -18 46 -27 56 -27c25 0 40 29 44 58c21 1 40 -2 58 -9c-3 -33 -14 -62 -32 -87c-17 -25 -41 -38 -71 -38c-50 0 -107 55 -125 55c-17 0 -31 -20 -44 -60z" />
    <glyph glyph-name="Odieresis" unicode="&#xd6;" horiz-adv-x="788" 
d="M468 657c-67 0 -123 -42 -155 -98c-15 -28 -28 -60 -39 -96c-21 -71 -28 -133 -28 -189c1 -93 27 -211 136 -211c77 0 138 59 169 140c32 81 47 165 47 238c0 48 -7 91 -24 138s-55 78 -106 78zM480 730c91 0 163 -26 215 -79c52 -52 78 -123 78 -212
c0 -81 -16 -155 -47 -222s-79 -122 -142 -164s-136 -63 -219 -63c-95 0 -168 27 -219 81c-51 55 -76 127 -76 218c0 78 16 150 49 217s82 121 145 162s135 62 216 62zM417 792c-22 -4 -44 -6 -65 -6c-17 0 -34 1 -53 4c-2 42 4 84 19 127c27 5 52 8 76 8c16 0 32 -1 48 -3
c1 -47 -7 -90 -25 -130zM671 792c-22 -4 -44 -6 -65 -6c-17 0 -34 1 -53 4c-2 42 4 84 19 127c27 5 52 8 76 8c16 0 32 -1 48 -3c1 -47 -7 -90 -25 -130z" />
    <glyph glyph-name="multiply" unicode="&#xd7;" horiz-adv-x="646" 
d="M600 484l-219 -219l219 -218c-12 -19 -39 -46 -58 -58l-219 219l-218 -219c-21 13 -41 32 -59 58l220 218l-220 219c17 25 36 44 59 58l218 -219l219 219c19 -12 46 -39 58 -58z" />
    <glyph glyph-name="Oslash" unicode="&#xd8;" horiz-adv-x="788" 
d="M468 657c-67 0 -123 -42 -155 -98c-15 -28 -28 -60 -39 -96c-21 -71 -28 -133 -28 -189c0 -38 3 -69 8 -92h4l300 427c-23 32 -53 48 -90 48zM382 63c80 0 143 61 172 146c31 85 44 167 44 242c0 29 -2 58 -7 86h-4l-300 -426c22 -32 54 -48 95 -48zM480 730
c50 0 98 -10 143 -29l52 74c21 -8 38 -20 53 -37l-50 -71c63 -50 95 -126 95 -227c0 -79 -16 -153 -47 -220s-78 -123 -141 -166s-137 -64 -220 -64c-55 0 -103 9 -144 27l-57 -81c-23 11 -40 23 -53 38l55 78c-64 51 -96 129 -96 232c0 79 16 152 49 219s81 122 144 164
s136 63 217 63z" />
    <glyph glyph-name="Ugrave" unicode="&#xd9;" horiz-adv-x="758" 
d="M136 346l55 307l-83 25c-2 14 -1 28 4 42h337c2 -14 1 -28 -4 -42l-84 -25l-58 -314c-7 -38 -10 -72 -10 -103c0 -99 39 -149 118 -149c57 0 100 17 127 52s47 87 60 154l68 360l-85 25c-2 14 0 28 5 42h241c2 -14 0 -28 -5 -42l-79 -26l-67 -355
c-20 -105 -53 -182 -98 -232c-45 -49 -116 -74 -211 -74c-162 0 -243 81 -243 243c0 33 4 70 12 112zM393 952l212 -126c-5 -21 -15 -40 -28 -56l-227 94c8 31 22 60 43 88z" />
    <glyph glyph-name="Uacute" unicode="&#xda;" horiz-adv-x="758" 
d="M136 346l55 307l-83 25c-2 14 -1 28 4 42h337c2 -14 1 -28 -4 -42l-84 -25l-58 -314c-7 -38 -10 -72 -10 -103c0 -99 39 -149 118 -149c57 0 100 17 127 52s47 87 60 154l68 360l-85 25c-2 14 0 28 5 42h241c2 -14 0 -28 -5 -42l-79 -26l-67 -355
c-20 -105 -53 -182 -98 -232c-45 -49 -116 -74 -211 -74c-162 0 -243 81 -243 243c0 33 4 70 12 112zM406 826l212 126c21 -27 36 -57 43 -88l-228 -94c-12 17 -21 35 -27 56z" />
    <glyph glyph-name="Ucircumflex" unicode="&#xdb;" horiz-adv-x="758" 
d="M136 346l55 307l-83 25c-2 14 -1 28 4 42h337c2 -14 1 -28 -4 -42l-84 -25l-58 -314c-7 -38 -10 -72 -10 -103c0 -99 39 -149 118 -149c57 0 100 17 127 52s47 87 60 154l68 360l-85 25c-2 14 0 28 5 42h241c2 -14 0 -28 -5 -42l-79 -26l-67 -355
c-20 -105 -53 -182 -98 -232c-45 -49 -116 -74 -211 -74c-162 0 -243 81 -243 243c0 33 4 70 12 112zM346 819l188 133h10l147 -134c-9 -20 -21 -36 -37 -48l-125 86l-153 -86c-14 13 -24 29 -30 49z" />
    <glyph glyph-name="Udieresis" unicode="&#xdc;" horiz-adv-x="758" 
d="M136 346l55 307l-83 25c-2 14 -1 28 4 42h337c2 -14 1 -28 -4 -42l-84 -25l-58 -314c-7 -38 -10 -72 -10 -103c0 -99 39 -149 118 -149c57 0 100 17 127 52s47 87 60 154l68 360l-85 25c-2 14 0 28 5 42h241c2 -14 0 -28 -5 -42l-79 -26l-67 -355
c-20 -105 -53 -182 -98 -232c-45 -49 -116 -74 -211 -74c-162 0 -243 81 -243 243c0 33 4 70 12 112zM440 792c-22 -4 -44 -6 -65 -6c-17 0 -34 1 -53 4c-2 42 4 84 19 127c27 5 52 8 76 8c16 0 32 -1 48 -3c1 -47 -7 -90 -25 -130zM694 792c-22 -4 -44 -6 -65 -6
c-17 0 -34 1 -53 4c-2 42 4 84 19 127c27 5 52 8 76 8c16 0 32 -1 48 -3c1 -47 -7 -90 -25 -130z" />
    <glyph glyph-name="Yacute" unicode="&#xdd;" horiz-adv-x="692" 
d="M158 42l83 25l40 218l-139 367l-73 26c-2 15 -1 29 4 42h332c2 -13 1 -27 -4 -42l-81 -25l103 -272h4l188 272l-86 25c-2 15 -1 29 4 42h255c2 -14 0 -28 -5 -42l-75 -24l-258 -375l-39 -212l84 -25c2 -14 1 -28 -4 -42h-338c-2 15 0 29 5 42zM367 826l212 126
c21 -27 36 -57 43 -88l-228 -94c-12 17 -21 35 -27 56z" />
    <glyph glyph-name="Thorn" unicode="&#xde;" horiz-adv-x="668" 
d="M16 42l84 25l106 586l-84 25c-2 14 -1 28 4 42h338c2 -13 1 -27 -4 -42l-84 -25l-15 -77h7c83 0 141 -8 198 -32c59 -23 91 -72 91 -144c0 -167 -124 -251 -373 -251l-14 -82l84 -25c2 -14 0 -28 -5 -42h-337c-2 15 -1 29 4 42zM481 394c0 71 -44 108 -133 109l-51 -281
c111 0 184 60 184 172z" />
    <glyph glyph-name="germandbls" unicode="&#xdf;" horiz-adv-x="728" 
d="M309 81c63 -43 193 -21 189 66c0 27 -29 66 -60 98c-29 33 -59 86 -59 134c0 40 15 75 44 106c30 31 66 49 107 54c4 12 6 26 6 43c0 60 -31 107 -91 107c-56 0 -95 -46 -108 -119l-86 -464c-19 -104 -70 -188 -151 -252c-47 -36 -96 -54 -145 -54c-55 0 -90 26 -106 78
c18 25 42 47 72 65c31 -44 57 -66 78 -66c22 -6 42 38 54 76c4 11 8 29 13 52l11 53l11 59l64 343h-75c0 15 2 27 7 37l79 25l6 34c8 47 28 87 59 118c64 64 146 86 239 86c64 0 118 -16 161 -48c44 -32 66 -77 66 -135c0 -27 -4 -54 -12 -81c-91 0 -137 -26 -137 -78
c0 -96 125 -137 125 -253c0 -54 -26 -97 -78 -128c-51 -31 -110 -47 -175 -47c-55 0 -100 11 -135 32c5 22 14 42 27 59z" />
    <glyph glyph-name="agrave" unicode="&#xe0;" horiz-adv-x="652" 
d="M418 427l6 34c-16 7 -32 10 -47 10c-34 0 -64 -18 -91 -53c-52 -71 -75 -167 -75 -244c0 -49 10 -73 29 -73c34 0 68 31 102 94c35 63 60 141 76 232zM552 540h53l-87 -469l79 8c5 -14 7 -30 6 -48l-167 -38c-11 -3 -21 -4 -30 -4c-42 0 -59 25 -51 76l13 76h-7
c-46 -101 -106 -151 -181 -151c-47 0 -82 17 -104 51c-21 34 -32 75 -32 124c0 61 13 119 39 176s63 105 112 142c49 38 102 57 161 57c43 0 78 -9 107 -28c5 9 13 15 24 19c21 9 33 9 65 9zM360 792l111 -176c-13 -15 -29 -26 -47 -33l-139 153c21 27 46 45 75 56z" />
    <glyph glyph-name="aacute" unicode="&#xe1;" horiz-adv-x="652" 
d="M418 427l6 34c-16 7 -32 10 -47 10c-34 0 -64 -18 -91 -53c-52 -71 -75 -167 -75 -244c0 -49 10 -73 29 -73c34 0 68 31 102 94c35 63 60 141 76 232zM552 540h53l-87 -469l79 8c5 -14 7 -30 6 -48l-167 -38c-11 -3 -21 -4 -30 -4c-42 0 -59 25 -51 76l13 76h-7
c-46 -101 -106 -151 -181 -151c-47 0 -82 17 -104 51c-21 34 -32 75 -32 124c0 61 13 119 39 176s63 105 112 142c49 38 102 57 161 57c43 0 78 -9 107 -28c5 9 13 15 24 19c21 9 33 9 65 9zM350 626l146 166c27 -19 49 -42 66 -68l-170 -141c-16 11 -30 25 -42 43z" />
    <glyph glyph-name="acircumflex" unicode="&#xe2;" horiz-adv-x="652" 
d="M418 427l6 34c-16 7 -32 10 -47 10c-34 0 -64 -18 -91 -53c-52 -71 -75 -167 -75 -244c0 -49 10 -73 29 -73c34 0 68 31 102 94c35 63 60 141 76 232zM552 540h53l-87 -469l79 8c5 -14 7 -30 6 -48l-167 -38c-11 -3 -21 -4 -30 -4c-42 0 -59 25 -51 76l13 76h-7
c-46 -101 -106 -151 -181 -151c-47 0 -82 17 -104 51c-21 34 -32 75 -32 124c0 61 13 119 39 176s63 105 112 142c49 38 102 57 161 57c43 0 78 -9 107 -28c5 9 13 15 24 19c21 9 33 9 65 9zM240 629l164 163h13l111 -169c-12 -17 -28 -30 -49 -40l-82 99l-116 -99
c-17 11 -30 26 -41 46z" />
    <glyph glyph-name="atilde" unicode="&#xe3;" horiz-adv-x="652" 
d="M418 427l6 34c-16 7 -32 10 -47 10c-34 0 -64 -18 -91 -53c-52 -71 -75 -167 -75 -244c0 -49 10 -73 29 -73c34 0 68 31 102 94c35 63 60 141 76 232zM552 540h53l-87 -469l79 8c5 -14 7 -30 6 -48l-167 -38c-11 -3 -21 -4 -30 -4c-42 0 -59 25 -51 76l13 76h-7
c-46 -101 -106 -151 -181 -151c-47 0 -82 17 -104 51c-21 34 -32 75 -32 124c0 61 13 119 39 176s63 105 112 142c49 38 102 57 161 57c43 0 78 -9 107 -28c5 9 13 15 24 19c21 9 33 9 65 9zM301 597c-23 -1 -42 2 -58 9c9 35 17 56 32 84c16 28 40 43 69 43
c21 0 44 -9 71 -28c27 -18 46 -27 56 -27c25 0 40 29 44 58c21 1 40 -2 58 -9c-3 -33 -14 -62 -32 -87c-17 -25 -41 -38 -71 -38c-23 0 -48 9 -75 27c-27 19 -43 28 -50 28c-17 0 -31 -20 -44 -60z" />
    <glyph glyph-name="adieresis" unicode="&#xe4;" horiz-adv-x="652" 
d="M418 427l6 34c-16 7 -32 10 -47 10c-34 0 -64 -18 -91 -53c-52 -71 -75 -167 -75 -244c0 -49 10 -73 29 -73c34 0 68 31 102 94c35 63 60 141 76 232zM552 540h53l-87 -469l79 8c5 -14 7 -30 6 -48l-167 -38c-11 -3 -21 -4 -30 -4c-42 0 -59 25 -51 76l13 76h-7
c-46 -101 -106 -151 -181 -151c-47 0 -82 17 -104 51c-21 34 -32 75 -32 124c0 61 13 119 39 176s63 105 112 142c49 38 102 57 161 57c43 0 78 -9 107 -28c5 9 13 15 24 19c21 9 33 9 65 9zM330 625c-21 -4 -41 -6 -62 -6c-16 0 -35 1 -56 4c-1 41 5 83 18 127
c24 5 50 7 78 7c11 0 26 -1 46 -2c-1 -49 -9 -93 -24 -130zM568 625c-21 -4 -42 -6 -62 -6c-16 0 -35 1 -56 4c-1 41 5 83 18 127c24 5 50 7 78 7c11 0 26 -1 46 -2c-1 -49 -9 -93 -24 -130z" />
    <glyph glyph-name="aring" unicode="&#xe5;" horiz-adv-x="652" 
d="M418 427l6 34c-16 7 -32 10 -47 10c-34 0 -64 -18 -91 -53c-52 -71 -75 -167 -75 -244c0 -49 10 -73 29 -73c34 0 68 31 102 94c35 63 60 141 76 232zM552 540h53l-87 -469l79 8c5 -14 7 -30 6 -48l-167 -38c-11 -3 -21 -4 -30 -4c-42 0 -59 25 -51 76l13 76h-7
c-46 -101 -106 -151 -181 -151c-47 0 -82 17 -104 51c-21 34 -32 75 -32 124c0 61 13 119 39 176s63 105 112 142c49 38 102 57 161 57c43 0 78 -9 107 -28c5 9 13 15 24 19c21 9 33 9 65 9zM432 794c57 0 101 -40 101 -95c0 -68 -54 -116 -123 -116c-59 0 -101 40 -101 96
c0 65 54 115 123 115zM428 746c-35 0 -57 -29 -57 -64c0 -28 18 -52 46 -52c32 0 53 32 53 65c0 27 -15 51 -42 51z" />
    <glyph glyph-name="ae" unicode="&#xe6;" horiz-adv-x="901" 
d="M539 295l3 -2l124 44c37 13 52 33 52 72s-16 58 -48 58c-68 0 -112 -57 -131 -172zM418 427l6 34c-15 7 -31 10 -47 10c-34 0 -64 -18 -91 -54c-52 -71 -75 -166 -75 -242c0 -49 10 -74 29 -74c35 0 70 32 103 97s58 141 75 229zM180 -10c-95 0 -136 76 -136 177
c0 61 13 119 39 176c27 57 64 104 113 141s102 56 160 56c43 0 79 -9 107 -28c5 9 13 15 24 19c21 9 33 9 65 9h12l-6 -37l4 -1c35 25 77 38 126 38s91 -13 127 -40c37 -26 55 -65 55 -118c0 -27 -4 -51 -13 -70l-325 -86v-20c0 -85 36 -127 107 -127c29 0 58 7 89 20
c31 14 55 29 70 46c17 -13 29 -29 37 -47c-64 -72 -147 -108 -248 -108c-109 0 -193 55 -213 151h-4c-43 -91 -111 -151 -190 -151z" />
    <glyph glyph-name="ccedilla" unicode="&#xe7;" horiz-adv-x="555" 
d="M503 98c-43 -47 -91 -79 -142 -94c2 -16 3 -32 3 -47c0 -96 -43 -163 -144 -163c-29 0 -55 8 -78 24c5 19 14 39 27 58c17 -7 33 -11 48 -11c51 0 75 49 75 112v14c-7 -1 -17 -1 -30 -1c-135 0 -218 74 -218 202c0 94 32 175 95 244s142 104 235 104
c58 0 112 -15 163 -45l-19 -132c-10 -2 -20 -3 -30 -3c-11 0 -20 1 -29 3l-12 97c-18 6 -36 9 -53 9c-135 0 -182 -150 -182 -263c0 -83 32 -125 96 -125c28 0 57 6 87 19c31 13 54 28 71 45c17 -13 29 -29 37 -47z" />
    <glyph glyph-name="egrave" unicode="&#xe8;" horiz-adv-x="576" 
d="M221 299l1 -4l119 42c37 13 52 33 52 72s-16 58 -48 58c-65 0 -106 -56 -124 -168zM532 312l-320 -85v-21c0 -73 30 -127 102 -127c29 0 58 7 89 20c31 14 55 29 70 46c17 -13 29 -29 37 -47c-64 -72 -147 -108 -248 -108c-133 0 -218 79 -218 210c0 92 30 172 91 239
s137 101 230 101c51 0 94 -13 128 -40c35 -27 52 -66 52 -118c0 -27 -4 -51 -13 -70zM305 792l111 -176c-13 -15 -29 -26 -47 -33l-139 153c21 27 46 45 75 56z" />
    <glyph glyph-name="eacute" unicode="&#xe9;" horiz-adv-x="576" 
d="M221 299l1 -4l119 42c37 13 52 33 52 72s-16 58 -48 58c-65 0 -106 -56 -124 -168zM532 312l-320 -85v-21c0 -73 30 -127 102 -127c29 0 58 7 89 20c31 14 55 29 70 46c17 -13 29 -29 37 -47c-64 -72 -147 -108 -248 -108c-133 0 -218 79 -218 210c0 92 30 172 91 239
s137 101 230 101c51 0 94 -13 128 -40c35 -27 52 -66 52 -118c0 -27 -4 -51 -13 -70zM283 626l146 166c27 -19 49 -42 66 -68l-170 -141c-16 11 -30 25 -42 43z" />
    <glyph glyph-name="ecircumflex" unicode="&#xea;" horiz-adv-x="576" 
d="M221 299l1 -4l119 42c37 13 52 33 52 72s-16 58 -48 58c-65 0 -106 -56 -124 -168zM532 312l-320 -85v-21c0 -73 30 -127 102 -127c29 0 58 7 89 20c31 14 55 29 70 46c17 -13 29 -29 37 -47c-64 -72 -147 -108 -248 -108c-133 0 -218 79 -218 210c0 92 30 172 91 239
s137 101 230 101c51 0 94 -13 128 -40c35 -27 52 -66 52 -118c0 -27 -4 -51 -13 -70zM206 629l164 163h13l111 -169c-12 -17 -28 -30 -49 -40l-82 99l-116 -99c-17 11 -30 26 -41 46z" />
    <glyph glyph-name="edieresis" unicode="&#xeb;" horiz-adv-x="579" 
d="M221 299l1 -4l119 42c37 13 52 33 52 72s-16 58 -48 58c-65 0 -106 -56 -124 -168zM532 312l-320 -85v-21c0 -73 30 -127 102 -127c29 0 58 7 89 20c31 14 55 29 70 46c17 -13 29 -29 37 -47c-64 -72 -147 -108 -248 -108c-133 0 -218 79 -218 210c0 92 30 172 91 239
s137 101 230 101c51 0 94 -13 128 -40c35 -27 52 -66 52 -118c0 -27 -4 -51 -13 -70zM286 625c-21 -4 -41 -6 -62 -6c-16 0 -35 1 -56 4c-1 41 5 83 18 127c24 5 50 7 78 7c11 0 26 -1 46 -2c-1 -49 -9 -93 -24 -130zM524 625c-21 -4 -41 -6 -62 -6c-16 0 -35 1 -56 4
c-1 41 5 83 18 127c24 5 50 7 78 7c11 0 26 -1 46 -2c-1 -49 -9 -93 -24 -130z" />
    <glyph glyph-name="igrave" unicode="&#xec;" horiz-adv-x="377" 
d="M320 468l-73 -397l78 10c5 -17 8 -33 7 -49l-168 -39c-13 -3 -23 -4 -29 -4c-41 0 -64 27 -55 76l74 397h-69c-5 15 -7 31 -6 48l156 28c11 2 20 3 29 3c46 0 65 -24 56 -73zM199 792l111 -176c-13 -15 -29 -26 -47 -33l-139 153c21 27 46 45 75 56z" />
    <glyph glyph-name="iacute" unicode="&#xed;" horiz-adv-x="377" 
d="M320 468l-73 -397l78 10c5 -17 8 -33 7 -49l-168 -39c-13 -3 -23 -4 -29 -4c-41 0 -64 27 -55 76l74 397h-69c-5 15 -7 31 -6 48l156 28c11 2 20 3 29 3c46 0 65 -24 56 -73zM150 626l146 166c27 -19 49 -42 66 -68l-170 -141c-16 11 -30 25 -42 43z" />
    <glyph glyph-name="icircumflex" unicode="&#xee;" horiz-adv-x="377" 
d="M320 468l-73 -397l78 10c5 -17 8 -33 7 -49l-168 -39c-13 -3 -23 -4 -29 -4c-41 0 -64 27 -55 76l74 397h-69c-5 15 -7 31 -6 48l156 28c11 2 20 3 29 3c46 0 65 -24 56 -73zM99 629l164 163h13l111 -169c-12 -17 -28 -30 -49 -40l-82 99l-116 -99c-17 11 -30 26 -41 46z
" />
    <glyph glyph-name="idieresis" unicode="&#xef;" horiz-adv-x="377" 
d="M313 468l-73 -397l78 10c5 -17 8 -33 7 -49l-168 -39c-13 -3 -23 -4 -29 -4c-41 0 -64 27 -55 76l74 397h-69c-5 15 -7 31 -6 48l156 28c11 2 20 3 29 3c46 0 65 -24 56 -73zM174 625c-21 -4 -41 -6 -62 -6c-16 0 -35 1 -56 4c-1 41 5 83 18 127c24 5 50 7 78 7
c11 0 26 -1 46 -2c-1 -49 -9 -93 -24 -130zM412 625c-21 -4 -42 -6 -62 -6c-16 0 -35 1 -56 4c-1 41 5 83 18 127c24 5 50 7 78 7c11 0 26 -1 46 -2c-1 -49 -9 -93 -24 -130z" />
    <glyph glyph-name="eth" unicode="&#xf0;" horiz-adv-x="613" 
d="M331 430c-48 0 -84 -35 -101 -86c-16 -51 -23 -98 -23 -143c0 -93 27 -140 80 -140c47 0 83 36 99 87c16 52 22 97 22 141c0 94 -26 141 -77 141zM212 588l102 46v4c-37 31 -82 49 -134 54c2 26 9 49 20 68c85 -9 157 -36 217 -79l136 61c10 -13 17 -28 21 -46l-116 -51
c80 -80 121 -201 121 -325c0 -97 -27 -177 -80 -238s-130 -92 -229 -92c-70 0 -126 20 -168 61c-41 41 -62 96 -62 164c0 77 27 143 82 200s121 86 200 86c34 0 67 -7 99 -22l4 1c-13 44 -34 84 -65 119l-128 -56c-11 12 -18 27 -20 45z" />
    <glyph glyph-name="ntilde" unicode="&#xf1;" horiz-adv-x="697" 
d="M620 348l-52 -277l79 10c5 -16 7 -32 6 -49l-167 -39c-13 -3 -23 -4 -29 -4c-43 0 -65 27 -56 76l48 258c5 23 7 43 7 60c0 29 -8 44 -25 44c-29 0 -64 -42 -107 -125c-42 -83 -69 -159 -82 -230l-11 -60l-157 -22l-11 10l86 462h-68c-5 15 -8 31 -7 48l156 28
c12 2 22 3 31 3c44 0 61 -24 52 -73l-19 -105h6c48 107 107 177 200 177c87 0 125 -59 125 -139c0 -17 -2 -34 -5 -53zM313 597c-23 -1 -42 2 -58 9c9 35 17 56 32 84c16 28 40 43 69 43c21 0 44 -9 71 -28c27 -18 46 -27 56 -27c25 0 40 29 44 58c21 1 40 -2 58 -9
c-3 -33 -14 -62 -32 -87c-17 -25 -41 -38 -71 -38c-50 0 -107 55 -125 55c-17 0 -31 -20 -44 -60z" />
    <glyph glyph-name="ograve" unicode="&#xf2;" horiz-adv-x="623" 
d="M342 469c-51 0 -87 -39 -106 -95c-17 -56 -24 -106 -24 -153c0 -107 28 -160 84 -160c49 0 86 40 103 96s25 107 25 152c0 33 -3 64 -14 100s-35 60 -68 60zM279 -10c-72 0 -129 22 -172 67c-42 45 -63 103 -63 174c0 89 29 162 87 221c59 59 134 88 226 88
c73 0 131 -22 172 -67c42 -45 63 -102 63 -172c0 -91 -29 -165 -87 -224c-58 -58 -133 -87 -226 -87zM313 792l111 -176c-13 -15 -29 -26 -47 -33l-139 153c21 27 46 45 75 56z" />
    <glyph glyph-name="oacute" unicode="&#xf3;" horiz-adv-x="623" 
d="M342 469c-51 0 -87 -39 -106 -95c-17 -56 -24 -106 -24 -153c0 -107 28 -160 84 -160c49 0 86 40 103 96s25 107 25 152c0 33 -3 64 -14 100s-35 60 -68 60zM279 -10c-72 0 -129 22 -172 67c-42 45 -63 103 -63 174c0 89 29 162 87 221c59 59 134 88 226 88
c73 0 131 -22 172 -67c42 -45 63 -102 63 -172c0 -91 -29 -165 -87 -224c-58 -58 -133 -87 -226 -87zM292 626l146 166c27 -19 49 -42 66 -68l-170 -141c-16 11 -30 25 -42 43z" />
    <glyph glyph-name="ocircumflex" unicode="&#xf4;" horiz-adv-x="623" 
d="M342 469c-51 0 -87 -39 -106 -95c-17 -56 -24 -106 -24 -153c0 -107 28 -160 84 -160c49 0 86 40 103 96s25 107 25 152c0 33 -3 64 -14 100s-35 60 -68 60zM279 -10c-72 0 -129 22 -172 67c-42 45 -63 103 -63 174c0 89 29 162 87 221c59 59 134 88 226 88
c73 0 131 -22 172 -67c42 -45 63 -102 63 -172c0 -91 -29 -165 -87 -224c-58 -58 -133 -87 -226 -87zM220 629l164 163h13l111 -169c-12 -17 -28 -30 -49 -40l-82 99l-116 -99c-17 11 -30 26 -41 46z" />
    <glyph glyph-name="otilde" unicode="&#xf5;" horiz-adv-x="623" 
d="M342 469c-51 0 -87 -39 -106 -95c-17 -56 -24 -106 -24 -153c0 -107 28 -160 84 -160c49 0 86 40 103 96s25 107 25 152c0 33 -3 64 -14 100s-35 60 -68 60zM279 -10c-72 0 -129 22 -172 67c-42 45 -63 103 -63 174c0 89 29 162 87 221c59 59 134 88 226 88
c73 0 131 -22 172 -67c42 -45 63 -102 63 -172c0 -91 -29 -165 -87 -224c-58 -58 -133 -87 -226 -87zM263 597c-23 -1 -42 2 -58 9c9 35 17 56 32 84c16 28 40 43 69 43c21 0 44 -9 71 -28c27 -18 46 -27 56 -27c25 0 40 29 44 58c21 1 40 -2 58 -9c-3 -33 -14 -62 -32 -87
c-17 -25 -41 -38 -71 -38c-50 0 -107 55 -125 55c-17 0 -31 -20 -44 -60z" />
    <glyph glyph-name="odieresis" unicode="&#xf6;" horiz-adv-x="623" 
d="M342 469c-51 0 -87 -39 -106 -95c-17 -56 -24 -106 -24 -153c0 -107 28 -160 84 -160c49 0 86 40 103 96s25 107 25 152c0 33 -3 64 -14 100s-35 60 -68 60zM279 -10c-72 0 -129 22 -172 67c-42 45 -63 103 -63 174c0 89 29 162 87 221c59 59 134 88 226 88
c73 0 131 -22 172 -67c42 -45 63 -102 63 -172c0 -91 -29 -165 -87 -224c-58 -58 -133 -87 -226 -87zM295 625c-21 -4 -42 -6 -62 -6c-16 0 -35 1 -56 4c-1 41 5 83 18 127c24 5 50 7 78 7c11 0 26 -1 46 -2c-1 -49 -9 -93 -24 -130zM533 625c-21 -4 -41 -6 -62 -6
c-16 0 -35 1 -56 4c-1 41 5 83 18 127c24 5 50 7 78 7c11 0 26 -1 46 -2c-1 -49 -9 -93 -24 -130z" />
    <glyph glyph-name="divide" unicode="&#xf7;" horiz-adv-x="646" 
d="M594 232h-543c-2 13 -3 27 -3 40c0 12 1 26 3 41h543c2 -15 3 -28 3 -41s-1 -27 -3 -40zM254 153c29 3 52 4 69 4c18 0 41 -1 69 -4c3 -25 5 -48 5 -69s-2 -45 -5 -70c-23 -3 -46 -5 -69 -5c-24 0 -47 2 -69 5c-3 25 -5 49 -5 72c0 19 2 42 5 67zM254 530c29 3 52 4 69 4
c18 0 41 -1 69 -4c3 -25 5 -48 5 -69s-2 -45 -5 -70c-23 -3 -46 -5 -69 -5c-24 0 -47 2 -69 5c-3 25 -5 49 -5 72c0 19 2 42 5 67z" />
    <glyph glyph-name="oslash" unicode="&#xf8;" horiz-adv-x="623" 
d="M296 61c49 0 87 38 104 93s24 104 24 152c0 20 0 35 -1 46h-4l-184 -256c15 -23 35 -35 61 -35zM342 469c-48 0 -85 -37 -104 -90c-19 -52 -26 -103 -26 -148c0 -29 1 -52 3 -68h4l186 260c-13 31 -34 46 -63 46zM279 -10c-40 0 -75 7 -105 21l-50 -69
c-18 7 -32 18 -43 32l47 64c-56 45 -84 109 -84 192c0 87 30 160 89 220s134 90 224 90c43 0 81 -8 115 -24l46 63c18 -9 32 -19 43 -32l-45 -61c51 -43 76 -106 76 -187c0 -89 -29 -163 -88 -222c-59 -58 -134 -87 -225 -87z" />
    <glyph glyph-name="ugrave" unicode="&#xf9;" horiz-adv-x="697" 
d="M645 530l-85 -459l79 10c5 -15 7 -32 6 -49l-167 -39c-13 -3 -24 -4 -32 -4c-42 0 -59 22 -51 66l21 112h-7c-48 -109 -106 -178 -203 -178c-77 0 -123 56 -123 137c0 15 2 33 5 53l53 283h-68c-5 14 -7 30 -7 48l156 28c11 2 22 3 33 3c43 0 61 -22 54 -65l-51 -271
c-4 -20 -6 -38 -6 -53c0 -33 9 -49 27 -49c29 0 64 40 105 119c41 80 67 153 79 219l14 77l158 22zM331 792l111 -176c-13 -15 -29 -26 -47 -33l-139 153c21 27 46 45 75 56z" />
    <glyph glyph-name="uacute" unicode="&#xfa;" horiz-adv-x="697" 
d="M645 530l-85 -459l79 10c5 -15 7 -32 6 -49l-167 -39c-13 -3 -24 -4 -32 -4c-42 0 -59 22 -51 66l21 112h-7c-48 -109 -106 -178 -203 -178c-77 0 -123 56 -123 137c0 15 2 33 5 53l53 283h-68c-5 14 -7 30 -7 48l156 28c11 2 22 3 33 3c43 0 61 -22 54 -65l-51 -271
c-4 -20 -6 -38 -6 -53c0 -33 9 -49 27 -49c29 0 64 40 105 119c41 80 67 153 79 219l14 77l158 22zM331 626l146 166c27 -19 49 -42 66 -68l-170 -141c-16 11 -30 25 -42 43z" />
    <glyph glyph-name="ucircumflex" unicode="&#xfb;" horiz-adv-x="697" 
d="M645 530l-85 -459l79 10c5 -15 7 -32 6 -49l-167 -39c-13 -3 -24 -4 -32 -4c-42 0 -59 22 -51 66l21 112h-7c-48 -109 -106 -178 -203 -178c-77 0 -123 56 -123 137c0 15 2 33 5 53l53 283h-68c-5 14 -7 30 -7 48l156 28c11 2 22 3 33 3c43 0 61 -22 54 -65l-51 -271
c-4 -20 -6 -38 -6 -53c0 -33 9 -49 27 -49c29 0 64 40 105 119c41 80 67 153 79 219l14 77l158 22zM265 629l164 163h13l111 -169c-12 -17 -28 -30 -49 -40l-82 99l-116 -99c-17 11 -30 26 -41 46z" />
    <glyph glyph-name="udieresis" unicode="&#xfc;" horiz-adv-x="697" 
d="M645 530l-85 -459l79 10c5 -15 7 -32 6 -49l-167 -39c-13 -3 -24 -4 -32 -4c-42 0 -59 22 -51 66l21 112h-7c-48 -109 -106 -178 -203 -178c-77 0 -123 56 -123 137c0 15 2 33 5 53l53 283h-68c-5 14 -7 30 -7 48l156 28c11 2 22 3 33 3c43 0 61 -22 54 -65l-51 -271
c-4 -20 -6 -38 -6 -53c0 -33 9 -49 27 -49c29 0 64 40 105 119c41 80 67 153 79 219l14 77l158 22zM343 625c-21 -4 -41 -6 -62 -6c-16 0 -35 1 -56 4c-1 41 5 83 18 127c24 5 50 7 78 7c11 0 26 -1 46 -2c-1 -49 -9 -93 -24 -130zM581 625c-21 -4 -42 -6 -62 -6
c-16 0 -35 1 -56 4c-1 41 5 83 18 127c24 5 50 7 78 7c11 0 26 -1 46 -2c-1 -49 -9 -93 -24 -130z" />
    <glyph glyph-name="yacute" unicode="&#xfd;" horiz-adv-x="579" 
d="M246 -25l-141 431l-61 -30c-12 11 -21 24 -28 41l111 91c25 21 47 32 66 32c31 0 46 -18 62 -69l105 -321h4c27 51 49 107 66 167s26 103 26 130c0 21 -7 45 -22 73c17 15 37 26 60 34c16 -11 31 -27 46 -48c15 -20 23 -37 23 -52c0 -24 -10 -62 -29 -113
s-45 -107 -79 -168s-71 -120 -112 -176s-86 -103 -136 -140c-49 -38 -96 -57 -140 -57c-60 0 -85 28 -104 80c15 19 36 37 62 54c19 -30 39 -45 61 -45c49 0 103 29 160 86zM305 626l146 166c27 -19 49 -42 66 -68l-170 -141c-16 11 -30 25 -42 43z" />
    <glyph glyph-name="thorn" unicode="&#xfe;" horiz-adv-x="657" 
d="M260 108l-7 -38c7 -3 17 -4 29 -4c29 0 54 7 74 20c37 23 65 62 82 116c18 54 27 106 27 157c0 47 -9 70 -27 70c-32 0 -66 -33 -102 -99c-35 -66 -61 -140 -76 -222zM241 3l-23 -122l79 10c5 -15 7 -32 6 -49l-167 -39c-11 -3 -21 -4 -30 -4c-41 0 -63 25 -54 76
l149 807h-68c-4 13 -6 29 -6 48l155 28c12 2 23 3 32 3c45 0 63 -24 54 -73l-55 -299h4c48 97 99 152 178 152c48 0 83 -19 104 -56c22 -37 33 -80 33 -131c0 -75 -20 -144 -59 -207c-39 -62 -92 -105 -161 -129c-38 -13 -77 -20 -117 -20c-17 0 -35 2 -54 5z" />
    <glyph glyph-name="ydieresis" unicode="&#xff;" horiz-adv-x="579" 
d="M246 -25l-141 431l-61 -30c-12 11 -21 24 -28 41l111 91c25 21 47 32 66 32c31 0 46 -18 62 -69l105 -321h4c27 51 49 107 66 167s26 103 26 130c0 21 -7 45 -22 73c17 15 37 26 60 34c16 -11 31 -27 46 -48c15 -20 23 -37 23 -52c0 -24 -10 -62 -29 -113
s-45 -107 -79 -168s-71 -120 -112 -176s-86 -103 -136 -140c-49 -38 -96 -57 -140 -57c-60 0 -85 28 -104 80c15 19 36 37 62 54c19 -30 39 -45 61 -45c49 0 103 29 160 86zM292 625c-21 -4 -42 -6 -62 -6c-16 0 -35 1 -56 4c-1 41 5 83 18 127c24 5 50 7 78 7
c11 0 26 -1 46 -2c-1 -49 -9 -93 -24 -130zM530 625c-21 -4 -41 -6 -62 -6c-16 0 -35 1 -56 4c-1 41 5 83 18 127c24 5 50 7 78 7c11 0 26 -1 46 -2c-1 -49 -9 -93 -24 -130z" />
    <glyph glyph-name="Amacron" unicode="&#x100;" horiz-adv-x="800" 
d="M430 42l82 25l-23 154h-245l-88 -154l84 -25c2 -15 1 -29 -4 -42h-252c-2 14 -1 28 3 42l81 26l359 623l138 39l19 -10l98 -652l74 -26c2 -13 1 -27 -4 -42h-326c-2 15 -1 29 4 42zM478 297l-37 256h-4l-149 -256h190zM663 789h-307c-2 29 1 56 10 82h307
c2 -29 -1 -57 -10 -82z" />
    <glyph glyph-name="amacron" unicode="&#x101;" horiz-adv-x="652" 
d="M418 427l6 34c-16 7 -32 10 -47 10c-34 0 -64 -18 -91 -53c-52 -71 -75 -167 -75 -244c0 -49 10 -73 29 -73c34 0 68 31 102 94c35 63 60 141 76 232zM552 540h53l-87 -469l79 8c5 -14 7 -30 6 -48l-167 -38c-11 -3 -21 -4 -30 -4c-42 0 -59 25 -51 76l13 76h-7
c-46 -101 -106 -151 -181 -151c-47 0 -82 17 -104 51c-21 34 -32 75 -32 124c0 61 13 119 39 176s63 105 112 142c49 38 102 57 161 57c43 0 78 -9 107 -28c5 9 13 15 24 19c21 9 33 9 65 9zM548 620h-303c0 25 4 51 13 78h302c0 -27 -4 -53 -12 -78z" />
    <glyph glyph-name="Abreve" unicode="&#x102;" horiz-adv-x="800" 
d="M430 42l82 25l-23 154h-245l-88 -154l84 -25c2 -15 1 -29 -4 -42h-252c-2 14 -1 28 3 42l81 26l359 623l138 39l19 -10l98 -652l74 -26c2 -13 1 -27 -4 -42h-326c-2 15 -1 29 4 42zM478 297l-37 256h-4l-149 -256h190zM361 938c10 2 20 3 31 3c9 0 20 -1 31 -3
c0 -44 26 -86 87 -86c55 0 93 42 101 86c10 2 21 3 32 3s22 -1 33 -3c-15 -93 -77 -162 -172 -162c-46 0 -83 15 -110 46s-38 70 -33 116z" />
    <glyph glyph-name="abreve" unicode="&#x103;" horiz-adv-x="652" 
d="M418 427l6 34c-16 7 -32 10 -47 10c-34 0 -64 -18 -91 -53c-52 -71 -75 -167 -75 -244c0 -49 10 -73 29 -73c34 0 68 31 102 94c35 63 60 141 76 232zM552 540h53l-87 -469l79 8c5 -14 7 -30 6 -48l-167 -38c-11 -3 -21 -4 -30 -4c-42 0 -59 25 -51 76l13 76h-7
c-46 -101 -106 -151 -181 -151c-47 0 -82 17 -104 51c-21 34 -32 75 -32 124c0 61 13 119 39 176s63 105 112 142c49 38 102 57 161 57c43 0 78 -9 107 -28c5 9 13 15 24 19c21 9 33 9 65 9zM265 751c9 2 19 3 29 3c12 0 23 -1 32 -3c0 -53 24 -79 73 -79s86 31 97 79
c9 2 19 3 30 3s21 -1 31 -3c-15 -100 -74 -156 -165 -156c-77 0 -130 40 -130 120c0 12 1 24 3 36z" />
    <glyph glyph-name="Aogonek" unicode="&#x104;" horiz-adv-x="800" 
d="M512 65l-23 156h-245l-88 -154l84 -25c2 -13 1 -27 -4 -42h-252c-2 14 -1 28 3 42l81 26l359 623l138 39l19 -10l98 -652l74 -26c1 -15 0 -29 -4 -42h-205c-16 -29 -24 -56 -24 -81c0 -35 16 -52 48 -52c19 0 37 4 55 11c11 -13 18 -30 21 -51c-35 -21 -70 -31 -106 -31
c-67 0 -98 41 -98 100c0 55 23 111 69 169zM478 297l-37 256h-4l-149 -256h190z" />
    <glyph glyph-name="aogonek" unicode="&#x105;" horiz-adv-x="652" 
d="M552 540h53l-87 -469l79 8c5 -14 7 -30 6 -48l-164 -37c-14 -27 -21 -51 -21 -74c0 -35 16 -53 49 -53c18 0 36 4 54 11c9 -13 16 -30 21 -51c-33 -21 -68 -31 -106 -31c-57 0 -98 29 -98 90c0 41 11 78 33 112c-17 12 -22 34 -16 67l13 76h-7
c-46 -101 -106 -151 -181 -151c-47 0 -82 17 -104 51c-21 34 -32 75 -32 124c0 61 13 119 39 176s63 105 112 142c49 38 102 57 161 57c43 0 78 -9 107 -28c5 9 13 15 24 19c21 9 33 9 65 9zM418 427l6 34c-16 7 -32 10 -47 10c-34 0 -64 -18 -91 -53
c-52 -71 -75 -167 -75 -244c0 -49 10 -73 29 -73c34 0 68 31 102 94c35 63 60 141 76 232z" />
    <glyph glyph-name="Cacute" unicode="&#x106;" horiz-adv-x="709" 
d="M550 102l59 118c10 2 20 3 31 3c10 0 20 -1 30 -3l-30 -153c-69 -51 -155 -77 -256 -77c-99 0 -176 28 -231 84s-83 130 -83 222c0 123 42 226 125 309s189 125 316 125c81 0 149 -19 202 -56l-23 -153c-20 -4 -40 -4 -60 0l-19 118c-29 12 -61 18 -96 18
c-189 0 -269 -196 -269 -360c0 -108 39 -225 171 -225c40 0 84 10 133 30zM404 826l212 126c21 -27 36 -57 43 -88l-228 -94c-12 17 -21 35 -27 56z" />
    <glyph glyph-name="cacute" unicode="&#x107;" horiz-adv-x="555" 
d="M503 98c-66 -72 -146 -108 -241 -108c-135 0 -218 74 -218 202c0 94 32 175 95 244s142 104 235 104c58 0 112 -15 163 -45l-19 -132c-10 -2 -20 -3 -30 -3c-11 0 -20 1 -29 3l-12 97c-18 6 -36 9 -53 9c-135 0 -182 -150 -182 -263c0 -83 32 -125 96 -125
c28 0 57 6 87 19c31 13 54 28 71 45c17 -13 29 -29 37 -47zM290 626l146 166c27 -19 49 -42 66 -68l-170 -141c-16 11 -30 25 -42 43z" />
    <glyph glyph-name="Ccaron" unicode="&#x10c;" horiz-adv-x="709" 
d="M550 102l59 118c10 2 20 3 31 3c10 0 20 -1 30 -3l-30 -153c-69 -51 -155 -77 -256 -77c-99 0 -176 28 -231 84s-83 130 -83 222c0 123 42 226 125 309s189 125 316 125c81 0 149 -19 202 -56l-23 -153c-20 -4 -40 -4 -60 0l-19 118c-29 12 -61 18 -96 18
c-189 0 -269 -196 -269 -360c0 -108 39 -225 171 -225c40 0 84 10 133 30zM661 903l-188 -133h-10l-147 134c9 19 21 35 36 48l125 -87l153 87c14 -14 24 -30 31 -49z" />
    <glyph glyph-name="ccaron" unicode="&#x10d;" horiz-adv-x="555" 
d="M503 98c-66 -72 -146 -108 -241 -108c-135 0 -218 74 -218 202c0 94 32 175 95 244s142 104 235 104c58 0 112 -15 163 -45l-19 -132c-10 -2 -20 -3 -30 -3c-11 0 -20 1 -29 3l-12 97c-18 6 -36 9 -53 9c-135 0 -182 -150 -182 -263c0 -83 32 -125 96 -125
c28 0 57 6 87 19c31 13 54 28 71 45c17 -13 29 -29 37 -47zM520 747l-164 -164h-13l-111 169c13 18 29 31 49 40l82 -99l116 99c17 -11 31 -26 41 -45z" />
    <glyph glyph-name="Dcaron" unicode="&#x10e;" horiz-adv-x="786" 
d="M394 647h-20l-102 -574h16c103 0 180 32 231 96s77 146 77 246c0 155 -67 232 -202 232zM18 42l83 25l104 586l-82 25c-2 14 -1 28 4 42h261c116 0 203 -19 274 -63s109 -123 109 -234c0 -141 -44 -246 -132 -317c-87 -71 -210 -106 -367 -106h-258c-2 15 -1 29 4 42z
M672 903l-188 -133h-10l-147 134c9 19 21 35 36 48l125 -87l153 87c14 -14 24 -30 31 -49z" />
    <glyph glyph-name="dcaron" unicode="&#x10f;" horiz-adv-x="662" 
d="M420 432l7 36c-13 3 -26 5 -37 5c-63 0 -113 -43 -138 -104s-38 -126 -38 -189c0 -53 10 -79 29 -79c29 0 62 33 98 99c37 66 63 143 79 232zM633 688l-113 -617l89 10c5 -15 7 -31 6 -48l-177 -40c-13 -3 -23 -4 -30 -4c-43 0 -61 25 -52 76l14 76h-7
c-51 -101 -112 -151 -184 -151c-92 0 -131 73 -131 173c0 103 30 191 90 265c60 75 139 112 236 112c21 0 43 -2 65 -6l28 148h-69c-5 15 -7 31 -6 48l156 28c12 2 23 3 32 3c45 0 62 -24 53 -73zM695 600c37 33 55 85 55 156c14 3 31 4 51 4c19 0 35 -1 48 -4
c1 -91 -39 -154 -120 -189c-15 6 -26 17 -34 33z" />
    <glyph glyph-name="Dcroat" unicode="&#x110;" horiz-adv-x="783" 
d="M452 344h-135l-48 -271h15c103 0 180 32 231 96s77 146 77 246c0 148 -58 232 -202 232h-20l-41 -234h133c1 -22 -3 -45 -10 -69zM73 413h86l43 240l-83 25c-2 14 -1 28 4 42h262c116 0 204 -19 273 -63c71 -44 109 -123 109 -234c0 -141 -44 -246 -132 -317
c-87 -71 -210 -106 -367 -106h-257c-2 13 -1 27 4 42l82 25l50 277h-84c0 21 3 44 10 69z" />
    <glyph glyph-name="dslash" unicode="&#x111;" horiz-adv-x="662" 
d="M411 382l11 53c-11 3 -24 4 -37 4c-122 0 -171 -152 -171 -265c0 -49 10 -73 29 -73c27 0 58 29 93 88s60 123 75 193zM633 688l-11 -64h84c0 -19 -3 -38 -10 -56h-84l-92 -497l89 10c5 -17 7 -33 6 -48l-177 -40c-11 -3 -21 -4 -30 -4c-44 0 -61 25 -52 76l14 76h-7
c-51 -101 -113 -151 -184 -151c-92 0 -131 73 -131 173c0 99 30 181 90 246s137 98 230 98c20 0 42 -2 65 -5l13 66h-117c0 20 3 39 10 56h117l11 58h-69c-5 16 -7 32 -6 48l156 28c12 2 22 3 31 3c44 0 62 -24 54 -73z" />
    <glyph glyph-name="Emacron" unicode="&#x112;" horiz-adv-x="693" 
d="M16 42l82 25l106 586l-82 25c-2 13 -1 27 4 42h575l-23 -170c-10 -2 -20 -3 -31 -3c-10 0 -20 1 -30 3l-14 94h-231l-41 -227h160l29 63c17 3 34 3 51 0l-30 -222c-17 -3 -34 -3 -51 0l-13 83h-160l-48 -265h272l45 99c10 2 20 3 30 3c9 0 20 -1 31 -3l-24 -175h-612
c-1 15 0 29 5 42zM596 789h-307c-2 29 1 56 10 82h307c2 -29 -1 -57 -10 -82z" />
    <glyph glyph-name="emacron" unicode="&#x113;" horiz-adv-x="576" 
d="M221 299l1 -4l119 42c37 13 52 33 52 72s-16 58 -48 58c-65 0 -106 -56 -124 -168zM532 312l-320 -85v-21c0 -73 30 -127 102 -127c29 0 58 7 89 20c31 14 55 29 70 46c17 -13 29 -29 37 -47c-64 -72 -147 -108 -248 -108c-133 0 -218 79 -218 210c0 92 30 172 91 239
s137 101 230 101c51 0 94 -13 128 -40c35 -27 52 -66 52 -118c0 -27 -4 -51 -13 -70zM506 620h-303c0 25 4 51 13 78h302c0 -27 -4 -53 -12 -78z" />
    <glyph glyph-name="Edotaccent" unicode="&#x116;" horiz-adv-x="693" 
d="M16 42l82 25l106 586l-82 25c-2 13 -1 27 4 42h575l-23 -170c-10 -2 -20 -3 -31 -3c-10 0 -20 1 -30 3l-14 94h-231l-41 -227h160l29 63c17 3 34 3 51 0l-30 -222c-17 -3 -34 -3 -51 0l-13 83h-160l-48 -265h272l45 99c10 2 20 3 30 3c9 0 20 -1 31 -3l-24 -175h-612
c-1 15 0 29 5 42zM407 929c24 5 50 7 78 7c19 0 38 -1 58 -3c-1 -54 -11 -101 -28 -142c-21 -5 -46 -7 -73 -7c-21 0 -40 1 -57 4c-1 52 6 99 22 141z" />
    <glyph glyph-name="edotaccent" unicode="&#x117;" horiz-adv-x="576" 
d="M221 299l1 -4l119 42c37 13 52 33 52 72s-16 58 -48 58c-65 0 -106 -56 -124 -168zM532 312l-320 -85v-21c0 -73 30 -127 102 -127c29 0 58 7 89 20c31 14 55 29 70 46c17 -13 29 -29 37 -47c-64 -72 -147 -108 -248 -108c-133 0 -218 79 -218 210c0 92 30 172 91 239
s137 101 230 101c51 0 94 -13 128 -40c35 -27 52 -66 52 -118c0 -27 -4 -51 -13 -70zM313 769c24 5 50 7 78 7c19 0 38 -1 58 -3c-1 -54 -11 -101 -28 -142c-21 -5 -46 -7 -73 -7c-21 0 -40 1 -57 4c-1 52 6 99 22 141z" />
    <glyph glyph-name="Eogonek" unicode="&#x118;" horiz-adv-x="693" 
d="M16 42l82 25l106 586l-82 25c-2 13 -1 27 4 42h575l-23 -170c-10 -2 -20 -3 -31 -3c-10 0 -20 1 -30 3l-14 94h-231l-41 -227h160l29 63c17 3 34 3 51 0l-30 -222c-17 -3 -34 -3 -51 0l-13 83h-160l-48 -265h272l45 99c10 2 20 3 30 3c9 0 20 -1 31 -3l-24 -175h-115
c-16 -29 -24 -56 -24 -80c0 -35 16 -53 49 -53c18 0 36 4 54 11c9 -13 16 -30 21 -51c-33 -21 -68 -31 -106 -31c-57 0 -98 29 -98 90c0 40 11 78 34 114h-427c-1 15 0 29 5 42z" />
    <glyph glyph-name="eogonek" unicode="&#x119;" horiz-adv-x="576" 
d="M532 312l-320 -85v-21c0 -73 30 -127 102 -127c29 0 58 7 89 20c31 14 55 29 70 46c17 -13 29 -29 37 -47c-46 -51 -101 -84 -164 -99c-16 -27 -24 -53 -24 -79c0 -35 16 -53 49 -53c18 0 36 4 54 11c9 -13 16 -30 21 -51c-33 -21 -68 -31 -106 -31c-57 0 -98 29 -98 90
c0 37 9 71 28 104h-8c-133 0 -218 79 -218 210c0 92 30 172 91 239s137 101 230 101c51 0 94 -13 128 -40c35 -27 52 -66 52 -118c0 -27 -4 -51 -13 -70zM221 299l1 -4l119 42c37 13 52 33 52 72s-16 58 -48 58c-65 0 -106 -56 -124 -168z" />
    <glyph glyph-name="Ecaron" unicode="&#x11a;" horiz-adv-x="693" 
d="M16 42l82 25l106 586l-82 25c-2 13 -1 27 4 42h575l-23 -170c-10 -2 -20 -3 -31 -3c-10 0 -20 1 -30 3l-14 94h-231l-41 -227h160l29 63c17 3 34 3 51 0l-30 -222c-17 -3 -34 -3 -51 0l-13 83h-160l-48 -265h272l45 99c10 2 20 3 30 3c9 0 20 -1 31 -3l-24 -175h-612
c-1 15 0 29 5 42zM640 903l-188 -133h-10l-147 134c9 19 21 35 36 48l125 -87l153 87c14 -14 24 -30 31 -49z" />
    <glyph glyph-name="ecaron" unicode="&#x11b;" horiz-adv-x="576" 
d="M221 299l1 -4l119 42c37 13 52 33 52 72s-16 58 -48 58c-65 0 -106 -56 -124 -168zM532 312l-320 -85v-21c0 -73 30 -127 102 -127c29 0 58 7 89 20c31 14 55 29 70 46c17 -13 29 -29 37 -47c-64 -72 -147 -108 -248 -108c-133 0 -218 79 -218 210c0 92 30 172 91 239
s137 101 230 101c51 0 94 -13 128 -40c35 -27 52 -66 52 -118c0 -27 -4 -51 -13 -70zM524 747l-164 -164h-13l-111 169c13 18 29 31 49 40l82 -99l116 99c17 -11 31 -26 41 -45z" />
    <glyph glyph-name="Gbreve" unicode="&#x11e;" horiz-adv-x="760" 
d="M489 94l39 196l-109 26c-2 14 -1 28 4 42h329c3 -15 2 -29 -3 -42l-53 -17l-59 -309h-47c-32 0 -56 12 -71 35c-47 -23 -97 -35 -152 -35c-85 0 -156 28 -213 85c-56 57 -84 130 -84 221c0 125 42 229 126 311c85 82 190 123 315 123c87 0 161 -19 221 -56l-22 -153
c-21 -4 -41 -4 -61 0l-19 118c-32 11 -66 17 -102 17c-196 0 -282 -183 -282 -359c0 -61 13 -114 39 -158c27 -44 67 -66 121 -66c29 0 57 7 83 21zM340 938c10 2 20 3 31 3c10 0 20 -1 31 -3c0 -44 26 -86 87 -86c55 0 93 42 101 86c10 2 21 3 32 3s22 -1 33 -3
c-15 -93 -77 -162 -172 -162c-46 0 -83 15 -110 46s-38 70 -33 116z" />
    <glyph glyph-name="gbreve" unicode="&#x11f;" horiz-adv-x="655" 
d="M427 434l5 27c-15 7 -30 10 -44 10c-37 0 -69 -16 -96 -48c-52 -64 -70 -149 -70 -230c0 -51 10 -76 29 -76c35 0 68 31 101 92s58 136 75 225zM363 73l13 74h-5c-45 -93 -106 -140 -183 -140c-91 0 -132 73 -132 173c0 62 12 120 37 174c51 109 151 186 271 186
c42 0 78 -9 108 -28c5 9 13 15 24 19c21 9 34 9 63 9h54l-83 -455c-33 -181 -153 -285 -324 -285c-71 0 -136 16 -194 47l16 122c18 3 36 3 55 0l16 -87c26 -9 54 -14 83 -14c63 0 107 21 132 64c27 43 38 80 49 141zM258 751c9 2 19 3 29 3c13 0 23 -1 32 -3
c0 -53 24 -79 73 -79s86 31 97 79c9 2 19 3 30 3s21 -1 31 -3c-15 -100 -74 -156 -165 -156c-77 0 -130 40 -130 120c0 12 1 24 3 36z" />
    <glyph glyph-name="Gcommaaccent" unicode="&#x122;" horiz-adv-x="760" 
d="M489 94l39 196l-109 26c-2 14 -1 28 4 42h329c3 -15 2 -29 -3 -42l-53 -17l-59 -309h-47c-32 0 -56 12 -71 35c-47 -23 -97 -35 -152 -35c-85 0 -156 28 -213 85c-56 57 -84 130 -84 221c0 125 42 229 126 311c85 82 190 123 315 123c87 0 161 -19 221 -56l-22 -153
c-21 -4 -41 -4 -61 0l-19 118c-32 11 -66 17 -102 17c-196 0 -282 -183 -282 -359c0 -61 13 -114 39 -158c27 -44 67 -66 121 -66c29 0 57 7 83 21zM287 -197c37 33 55 85 55 156c14 3 31 4 51 4c19 0 35 -1 48 -4c1 -91 -39 -154 -120 -189c-15 6 -26 17 -34 33z" />
    <glyph glyph-name="gcommaaccent" unicode="&#x123;" horiz-adv-x="655" 
d="M427 434l5 27c-15 7 -30 10 -44 10c-37 0 -69 -16 -96 -48c-52 -64 -70 -149 -70 -230c0 -51 10 -76 29 -76c35 0 68 31 101 92s58 136 75 225zM363 73l13 74h-5c-45 -93 -106 -140 -183 -140c-91 0 -132 73 -132 173c0 62 12 120 37 174c51 109 151 186 271 186
c42 0 78 -9 108 -28c5 9 13 15 24 19c21 9 34 9 63 9h54l-83 -455c-33 -181 -153 -285 -324 -285c-71 0 -136 16 -194 47l16 122c18 3 36 3 55 0l16 -87c26 -9 54 -14 83 -14c63 0 107 21 132 64c27 43 38 80 49 141zM482 753c-37 -33 -55 -85 -55 -156
c-14 -3 -31 -4 -51 -4c-19 0 -35 1 -48 4c-1 91 39 154 120 189c15 -6 26 -17 34 -33z" />
    <glyph glyph-name="Imacron" unicode="&#x12a;" horiz-adv-x="418" 
d="M100 67l106 586l-84 25c-2 14 -1 28 4 42h338c2 -13 1 -27 -4 -42l-84 -25l-106 -586l84 -25c2 -13 0 -27 -5 -42h-337c-2 14 -1 28 4 42zM458 789h-307c-2 29 1 56 10 82h307c2 -29 -1 -57 -10 -82z" />
    <glyph glyph-name="imacron" unicode="&#x12b;" horiz-adv-x="377" 
d="M320 468l-73 -397l78 10c5 -17 8 -33 7 -49l-168 -39c-13 -3 -23 -4 -29 -4c-41 0 -64 27 -55 76l74 397h-69c-5 15 -7 31 -6 48l156 28c11 2 20 3 29 3c46 0 65 -24 56 -73zM395 620h-303c0 25 4 51 13 78h302c0 -27 -4 -53 -12 -78z" />
    <glyph glyph-name="Iogonek" unicode="&#x12e;" horiz-adv-x="418" 
d="M100 67l106 586l-84 25c-2 14 -1 28 4 42h338c2 -13 1 -27 -4 -42l-84 -25l-106 -586l84 -25c2 -13 0 -27 -5 -42h-128c-16 -29 -24 -56 -24 -80c0 -35 16 -53 49 -53c18 0 36 4 54 11c9 -13 16 -30 21 -51c-33 -21 -68 -31 -106 -31c-57 0 -98 29 -98 90
c0 40 11 78 34 114h-139c-2 14 -1 28 4 42z" />
    <glyph glyph-name="iogonek" unicode="&#x12f;" horiz-adv-x="377" 
d="M328 468l-73 -397l78 10c5 -17 8 -33 7 -49l-134 -31c-17 -28 -25 -55 -25 -81c0 -35 16 -53 49 -53c18 0 36 4 54 11c9 -13 16 -30 21 -51c-33 -21 -68 -31 -106 -31c-57 0 -98 29 -98 90c0 37 9 71 28 104c-36 7 -50 32 -41 75l74 397h-69c-5 15 -7 31 -6 48l156 28
c11 2 21 3 29 3c46 0 65 -24 56 -73zM326 629c-24 -4 -49 -6 -74 -6c-19 0 -37 1 -56 3c0 45 7 92 21 141c27 5 56 7 85 7c12 0 29 -1 52 -2c-2 -51 -11 -99 -28 -143z" />
    <glyph glyph-name="Idot" unicode="&#x130;" horiz-adv-x="418" 
d="M100 67l106 586l-84 25c-2 14 -1 28 4 42h338c2 -13 1 -27 -4 -42l-84 -25l-106 -586l84 -25c2 -13 0 -27 -5 -42h-337c-2 14 -1 28 4 42zM266 929c24 5 50 7 78 7c19 0 38 -1 58 -3c-1 -54 -11 -101 -28 -142c-21 -5 -46 -7 -73 -7c-21 0 -40 1 -57 4c-1 52 6 99 22 141
z" />
    <glyph glyph-name="dotlessi" unicode="&#x131;" horiz-adv-x="377" 
d="M320 468l-73 -397l78 10c5 -17 8 -33 7 -49l-168 -39c-13 -3 -23 -4 -29 -4c-41 0 -64 27 -55 76l74 397h-69c-5 15 -7 31 -6 48l156 28c11 2 20 3 29 3c46 0 65 -24 56 -73z" />
    <glyph glyph-name="Kcommaaccent" unicode="&#x136;" horiz-adv-x="818" 
d="M783 0h-234l-216 353l1 6l305 302l-62 17c-1 15 0 29 5 42h267c2 -14 1 -28 -4 -42l-105 -24l-247 -244l212 -343l82 -25c2 -13 1 -27 -4 -42zM100 67l106 586l-84 25c-2 14 -1 28 4 42h338c2 -13 1 -27 -4 -42l-84 -25l-106 -586l84 -25c2 -13 0 -27 -5 -42h-337
c-2 14 -1 28 4 42zM320 -197c37 33 55 85 55 156c14 3 31 4 51 4c19 0 35 -1 48 -4c1 -91 -39 -154 -120 -189c-15 6 -26 17 -34 33z" />
    <glyph glyph-name="kcommaaccent" unicode="&#x137;" horiz-adv-x="663" 
d="M399 33l-114 232l188 237c21 26 42 39 65 39c31 0 70 -22 118 -67c-8 -16 -17 -28 -28 -37c-25 12 -45 18 -59 18c-13 0 -25 -5 -35 -10c-4 -3 -17 -13 -21 -17l-25 -25l-65 -63l122 -245l62 23c10 -13 17 -27 22 -43l-100 -61c-27 -16 -50 -24 -69 -24
c-27 0 -47 14 -61 43zM357 688l-124 -676l-157 -22l-10 10l125 682h-68c-5 15 -7 31 -7 48l156 28c12 2 23 3 32 3c45 0 62 -24 53 -73zM207 -197c37 33 55 85 55 156c14 3 31 4 51 4c19 0 35 -1 48 -4c1 -91 -39 -154 -120 -189c-15 6 -26 17 -34 33z" />
    <glyph glyph-name="Lacute" unicode="&#x139;" horiz-adv-x="648" 
d="M23 42l77 23l107 588l-83 25c-2 14 -1 28 4 42h337c2 -13 1 -27 -4 -42l-84 -25l-105 -577h228l45 109c11 2 21 3 31 3c11 0 22 -1 32 -3l-25 -185h-564c-2 14 -1 28 4 42zM236 826l212 126c21 -27 36 -57 43 -88l-228 -94c-12 17 -21 35 -27 56z" />
    <glyph glyph-name="lacute" unicode="&#x13a;" horiz-adv-x="378" 
d="M362 688l-113 -617l89 10c5 -15 7 -31 6 -48l-177 -40c-13 -3 -23 -4 -30 -4c-40 0 -63 24 -54 76l113 617h-68c-5 15 -8 31 -7 48l156 28c12 2 23 3 32 3c45 0 62 -24 53 -73zM182 836l212 126c21 -27 36 -57 43 -88l-228 -94c-12 17 -21 35 -27 56z" />
    <glyph glyph-name="Lcommaaccent" unicode="&#x13b;" horiz-adv-x="648" 
d="M23 42l77 23l107 588l-83 25c-2 14 -1 28 4 42h337c2 -13 1 -27 -4 -42l-84 -25l-105 -577h228l45 109c11 2 21 3 31 3c11 0 22 -1 32 -3l-25 -185h-564c-2 14 -1 28 4 42zM230 -197c37 33 55 85 55 156c14 3 31 4 51 4c19 0 35 -1 48 -4c1 -91 -39 -154 -120 -189
c-15 6 -26 17 -34 33z" />
    <glyph glyph-name="lcommaaccent" unicode="&#x13c;" horiz-adv-x="378" 
d="M357 688l-113 -617l89 10c5 -15 7 -31 6 -48l-177 -40c-13 -3 -23 -4 -30 -4c-40 0 -63 24 -54 76l113 617h-68c-5 15 -8 31 -7 48l156 28c12 2 23 3 32 3c45 0 62 -24 53 -73zM51 -197c37 33 55 85 55 156c14 3 31 4 51 4c19 0 35 -1 48 -4c1 -91 -39 -154 -120 -189
c-15 6 -26 17 -34 33z" />
    <glyph glyph-name="Lcaron" unicode="&#x13d;" horiz-adv-x="648" 
d="M23 42l77 23l107 588l-83 25c-2 14 -1 28 4 42h337c2 -13 1 -27 -4 -42l-84 -25l-105 -577h228l45 109c11 2 21 3 31 3c11 0 22 -1 32 -3l-25 -185h-564c-2 14 -1 28 4 42zM512 560c37 33 55 85 55 156c14 3 31 4 51 4c19 0 35 -1 48 -4c1 -91 -39 -154 -120 -189
c-15 6 -26 17 -34 33z" />
    <glyph glyph-name="lcaron" unicode="&#x13e;" horiz-adv-x="386" 
d="M362 688l-113 -617l89 10c5 -15 7 -31 6 -48l-177 -40c-13 -3 -23 -4 -30 -4c-40 0 -63 24 -54 76l113 617h-68c-5 15 -8 31 -7 48l156 28c12 2 23 3 32 3c45 0 62 -24 53 -73zM424 600c37 33 55 85 55 156c14 3 31 4 51 4c19 0 35 -1 48 -4c1 -91 -39 -154 -120 -189
c-15 6 -26 17 -34 33z" />
    <glyph glyph-name="Lslash" unicode="&#x141;" horiz-adv-x="648" 
d="M23 42l77 23l35 190l-80 -52l-4 2l13 64l84 56l59 328l-83 25c-2 14 -1 28 4 42h337c2 -14 1 -28 -4 -42l-84 -25l-36 -201l157 104l4 -2l-13 -64l-160 -106l-57 -308h228l45 109c11 2 21 3 31 3c11 0 22 -1 32 -3l-25 -185h-564c-2 15 -1 29 4 42z" />
    <glyph glyph-name="lslash" unicode="&#x142;" horiz-adv-x="393" 
d="M410 491l-96 -64l-66 -356l89 10c5 -16 7 -32 6 -48l-177 -40c-11 -3 -21 -4 -30 -4c-43 0 -63 27 -54 76l43 237l-71 -46l-4 2l13 64l75 48l57 312h-68c-5 14 -8 30 -7 48l156 28c12 2 23 3 32 3c45 0 62 -24 53 -73l-35 -192l93 61l4 -2z" />
    <glyph glyph-name="Nacute" unicode="&#x143;" horiz-adv-x="771" 
d="M467 2l-207 560h-4l-91 -495l85 -25c2 -14 0 -28 -5 -42h-249c-1 15 0 29 5 42l86 26l109 587l-90 23c-2 14 -1 28 4 42h269l193 -523h4l86 456l-85 25c-2 14 -1 28 4 42h242c2 -15 1 -29 -4 -42l-80 -26l-116 -626l-137 -36zM402 826l212 126c21 -27 36 -57 43 -88
l-228 -94c-12 17 -21 35 -27 56z" />
    <glyph glyph-name="nacute" unicode="&#x144;" horiz-adv-x="697" 
d="M620 348l-52 -277l79 10c5 -16 7 -32 6 -49l-167 -39c-13 -3 -23 -4 -29 -4c-43 0 -65 27 -56 76l48 258c5 23 7 43 7 60c0 29 -8 44 -25 44c-29 0 -64 -42 -107 -125c-42 -83 -69 -159 -82 -230l-11 -60l-157 -22l-11 10l86 462h-68c-5 15 -8 31 -7 48l156 28
c12 2 22 3 31 3c44 0 61 -24 52 -73l-19 -105h6c48 107 107 177 200 177c87 0 125 -59 125 -139c0 -17 -2 -34 -5 -53zM347 626l146 166c27 -19 49 -42 66 -68l-170 -141c-16 11 -30 25 -42 43z" />
    <glyph glyph-name="Ncommaaccent" unicode="&#x145;" horiz-adv-x="771" 
d="M467 2l-207 560h-4l-91 -495l85 -25c2 -14 0 -28 -5 -42h-249c-1 15 0 29 5 42l86 26l109 587l-90 23c-2 14 -1 28 4 42h269l193 -523h4l86 456l-85 25c-2 14 -1 28 4 42h242c2 -15 1 -29 -4 -42l-80 -26l-116 -626l-137 -36zM247 -197c37 33 55 85 55 156
c14 3 31 4 51 4c19 0 35 -1 48 -4c1 -91 -39 -154 -120 -189c-15 6 -26 17 -34 33z" />
    <glyph glyph-name="ncommaaccent" unicode="&#x146;" horiz-adv-x="697" 
d="M620 348l-52 -277l79 10c5 -16 7 -32 6 -49l-167 -39c-13 -3 -23 -4 -29 -4c-43 0 -65 27 -56 76l48 258c5 23 7 43 7 60c0 29 -8 44 -25 44c-29 0 -64 -42 -107 -125c-42 -83 -69 -159 -82 -230l-11 -60l-157 -22l-11 10l86 462h-68c-5 15 -8 31 -7 48l156 28
c12 2 22 3 31 3c44 0 61 -24 52 -73l-19 -105h6c48 107 107 177 200 177c87 0 125 -59 125 -139c0 -17 -2 -34 -5 -53zM212 -197c37 33 55 85 55 156c14 3 31 4 51 4c19 0 35 -1 48 -4c1 -91 -39 -154 -120 -189c-15 6 -26 17 -34 33z" />
    <glyph glyph-name="Ncaron" unicode="&#x147;" horiz-adv-x="771" 
d="M467 2l-207 560h-4l-91 -495l85 -25c2 -14 0 -28 -5 -42h-249c-1 15 0 29 5 42l86 26l109 587l-90 23c-2 14 -1 28 4 42h269l193 -523h4l86 456l-85 25c-2 14 -1 28 4 42h242c2 -15 1 -29 -4 -42l-80 -26l-116 -626l-137 -36zM673 903l-188 -133h-10l-147 134
c9 19 21 35 36 48l125 -87l153 87c14 -14 24 -30 31 -49z" />
    <glyph glyph-name="ncaron" unicode="&#x148;" horiz-adv-x="697" 
d="M620 348l-52 -277l79 10c5 -16 7 -32 6 -49l-167 -39c-13 -3 -23 -4 -29 -4c-43 0 -65 27 -56 76l48 258c5 23 7 43 7 60c0 29 -8 44 -25 44c-29 0 -64 -42 -107 -125c-42 -83 -69 -159 -82 -230l-11 -60l-157 -22l-11 10l86 462h-68c-5 15 -8 31 -7 48l156 28
c12 2 22 3 31 3c44 0 61 -24 52 -73l-19 -105h6c48 107 107 177 200 177c87 0 125 -59 125 -139c0 -17 -2 -34 -5 -53zM552 747l-164 -164h-13l-111 169c13 18 29 31 49 40l82 -99l116 99c17 -11 31 -26 41 -45z" />
    <glyph glyph-name="Omacron" unicode="&#x14c;" horiz-adv-x="788" 
d="M468 657c-67 0 -123 -42 -155 -98c-15 -28 -28 -60 -39 -96c-21 -71 -28 -133 -28 -189c1 -93 27 -211 136 -211c77 0 138 59 169 140c32 81 47 165 47 238c0 48 -7 91 -24 138s-55 78 -106 78zM480 730c91 0 163 -26 215 -79c52 -52 78 -123 78 -212
c0 -81 -16 -155 -47 -222s-79 -122 -142 -164s-136 -63 -219 -63c-95 0 -168 27 -219 81c-51 55 -76 127 -76 218c0 78 16 150 49 217s82 121 145 162s135 62 216 62zM635 789h-307c-2 29 1 56 10 82h307c2 -29 -1 -57 -10 -82z" />
    <glyph glyph-name="omacron" unicode="&#x14d;" horiz-adv-x="623" 
d="M342 469c-51 0 -87 -39 -106 -95c-17 -56 -24 -106 -24 -153c0 -107 28 -160 84 -160c49 0 86 40 103 96s25 107 25 152c0 33 -3 64 -14 100s-35 60 -68 60zM279 -10c-72 0 -129 22 -172 67c-42 45 -63 103 -63 174c0 89 29 162 87 221c59 59 134 88 226 88
c73 0 131 -22 172 -67c42 -45 63 -102 63 -172c0 -91 -29 -165 -87 -224c-58 -58 -133 -87 -226 -87zM513 620h-303c0 25 4 51 13 78h302c0 -27 -4 -53 -12 -78z" />
    <glyph glyph-name="Ohungarumlaut" unicode="&#x150;" horiz-adv-x="788" 
d="M468 657c-67 0 -123 -42 -155 -98c-15 -28 -28 -60 -39 -96c-21 -71 -28 -133 -28 -189c1 -93 27 -211 136 -211c77 0 138 59 169 140c32 81 47 165 47 238c0 48 -7 91 -24 138s-55 78 -106 78zM480 730c91 0 163 -26 215 -79c52 -52 78 -123 78 -212
c0 -81 -16 -155 -47 -222s-79 -122 -142 -164s-136 -63 -219 -63c-95 0 -168 27 -219 81c-51 55 -76 127 -76 218c0 78 16 150 49 217s82 121 145 162s135 62 216 62zM315 816l115 136c30 -21 52 -45 66 -72l-139 -110c-17 11 -31 27 -42 46zM520 816l115 136
c30 -21 52 -45 66 -72l-139 -110c-17 11 -31 27 -42 46z" />
    <glyph glyph-name="ohungarumlaut" unicode="&#x151;" horiz-adv-x="629" 
d="M342 469c-51 0 -87 -39 -106 -95c-17 -56 -24 -106 -24 -153c0 -107 28 -160 84 -160c49 0 86 40 103 96s25 107 25 152c0 33 -3 64 -14 100s-35 60 -68 60zM279 -10c-72 0 -129 22 -172 67c-42 45 -63 103 -63 174c0 89 29 162 87 221c59 59 134 88 226 88
c73 0 131 -22 172 -67c42 -45 63 -102 63 -172c0 -91 -29 -165 -87 -224c-58 -58 -133 -87 -226 -87zM195 624l134 168c27 -17 49 -38 68 -64l-158 -145c-16 9 -31 22 -44 41zM396 624l134 168c27 -17 49 -38 68 -64l-158 -145c-16 9 -31 22 -44 41z" />
    <glyph glyph-name="OE" unicode="&#x152;" horiz-adv-x="1078" 
d="M1030 175l-24 -175h-414c-34 0 -75 -2 -123 -5c-47 -3 -83 -5 -108 -5c-94 0 -166 27 -216 82s-75 127 -75 217c0 79 16 152 48 218c33 67 80 120 143 161s135 62 216 62c31 0 63 -2 96 -5s79 -5 138 -5h373l-23 -170c-10 -2 -20 -3 -30 -3c-11 0 -21 1 -31 3l-13 94
h-232l-41 -227h161l29 63c17 3 34 3 51 0l-31 -222c-17 -3 -33 -3 -50 0l-14 83h-160l-47 -265h272l44 99c10 2 20 3 30 3c11 0 21 -1 31 -3zM484 83l101 556c-25 11 -55 17 -88 17c-77 0 -140 -36 -177 -88c-18 -25 -33 -55 -45 -90c-23 -69 -31 -134 -31 -203
c0 -140 52 -210 156 -210c31 0 59 6 84 18z" />
    <glyph glyph-name="oe" unicode="&#x153;" horiz-adv-x="945" 
d="M586 298l1 -4l123 43c39 13 53 33 53 72s-16 58 -48 58c-73 0 -114 -72 -129 -169zM424 324c0 31 -3 59 -14 91c-9 32 -30 54 -61 54c-51 0 -89 -40 -109 -96s-29 -113 -29 -168c0 -47 15 -144 78 -144c52 0 93 44 110 104c17 61 25 114 25 159zM359 540
c81 0 140 -24 179 -72h4c52 48 115 72 190 72c51 0 95 -13 130 -40c35 -26 53 -65 53 -118c0 -26 -5 -49 -14 -70l-325 -87v-19c0 -85 36 -127 109 -127c28 0 57 7 88 20c31 14 55 29 70 46c17 -15 30 -31 37 -47c-69 -72 -149 -108 -242 -108c-75 0 -130 21 -167 63h-4
c-51 -42 -115 -63 -191 -63c-143 0 -232 87 -232 227c0 93 29 170 88 231s135 92 227 92z" />
    <glyph glyph-name="Racute" unicode="&#x154;" horiz-adv-x="729" 
d="M483 0l-146 283h-28l-39 -216l84 -25c2 -13 0 -27 -5 -42h-337c-2 15 -1 29 4 42l84 25l106 586l-84 25c-2 14 -1 28 4 42h233c72 0 118 -2 181 -17c89 -20 144 -68 148 -169c0 -111 -71 -193 -183 -225l126 -242l73 -25c2 -14 1 -28 -4 -42h-217zM391 647h-16l-54 -293
c55 0 100 15 137 46s55 74 55 129c0 72 -46 118 -122 118zM361 826l212 126c21 -27 36 -57 43 -88l-228 -94c-12 17 -21 35 -27 56z" />
    <glyph glyph-name="racute" unicode="&#x155;" horiz-adv-x="544" 
d="M554 529l-24 -175c-18 -4 -38 -4 -59 0l-9 73c-44 0 -87 -32 -130 -97c-42 -65 -71 -146 -88 -243l-13 -75l-157 -22l-11 10l86 462h-68c-5 15 -8 31 -7 48l156 28c12 2 22 3 31 3c43 0 60 -24 52 -73l-15 -88h6c45 92 114 160 199 160c20 0 37 -4 51 -11zM294 626
l146 166c27 -19 49 -42 66 -68l-170 -141c-16 11 -30 25 -42 43z" />
    <glyph glyph-name="Rcommaaccent" unicode="&#x156;" horiz-adv-x="729" 
d="M483 0l-146 283h-28l-39 -216l84 -25c2 -13 0 -27 -5 -42h-337c-2 15 -1 29 4 42l84 25l106 586l-84 25c-2 14 -1 28 4 42h233c72 0 118 -2 181 -17c89 -20 144 -68 148 -169c0 -111 -71 -193 -183 -225l126 -242l73 -25c2 -14 1 -28 -4 -42h-217zM391 647h-16l-54 -293
c55 0 100 15 137 46s55 74 55 129c0 72 -46 118 -122 118zM289 -197c37 33 55 85 55 156c14 3 31 4 51 4c19 0 35 -1 48 -4c1 -91 -39 -154 -120 -189c-15 6 -26 17 -34 33z" />
    <glyph glyph-name="rcommaaccent" unicode="&#x157;" horiz-adv-x="544" 
d="M554 529l-24 -175c-18 -4 -38 -4 -59 0l-9 73c-44 0 -87 -32 -130 -97c-42 -65 -71 -146 -88 -243l-13 -75l-157 -22l-11 10l86 462h-68c-5 15 -8 31 -7 48l156 28c12 2 22 3 31 3c43 0 60 -24 52 -73l-15 -88h6c45 92 114 160 199 160c20 0 37 -4 51 -11zM36 -197
c37 33 55 85 55 156c14 3 31 4 51 4c19 0 35 -1 48 -4c1 -91 -39 -154 -120 -189c-15 6 -26 17 -34 33z" />
    <glyph glyph-name="Rcaron" unicode="&#x158;" horiz-adv-x="729" 
d="M483 0l-146 283h-28l-39 -216l84 -25c2 -13 0 -27 -5 -42h-337c-2 15 -1 29 4 42l84 25l106 586l-84 25c-2 14 -1 28 4 42h233c72 0 118 -2 181 -17c89 -20 144 -68 148 -169c0 -111 -71 -193 -183 -225l126 -242l73 -25c2 -14 1 -28 -4 -42h-217zM391 647h-16l-54 -293
c55 0 100 15 137 46s55 74 55 129c0 72 -46 118 -122 118zM626 903l-188 -133h-10l-147 134c9 19 21 35 36 48l125 -87l153 87c14 -14 24 -30 31 -49z" />
    <glyph glyph-name="rcaron" unicode="&#x159;" horiz-adv-x="544" 
d="M554 529l-24 -175c-18 -4 -38 -4 -59 0l-9 73c-44 0 -87 -32 -130 -97c-42 -65 -71 -146 -88 -243l-13 -75l-157 -22l-11 10l86 462h-68c-5 15 -8 31 -7 48l156 28c12 2 22 3 31 3c43 0 60 -24 52 -73l-15 -88h6c45 92 114 160 199 160c20 0 37 -4 51 -11zM507 747
l-164 -164h-13l-111 169c13 18 29 31 49 40l82 -99l116 99c17 -11 31 -26 41 -45z" />
    <glyph glyph-name="Sacute" unicode="&#x15a;" horiz-adv-x="651" 
d="M40 72l24 159c10 2 20 3 30 3c11 0 21 -1 31 -3l21 -139c39 -16 81 -24 126 -24c43 0 80 9 110 27c31 18 46 46 46 84c-1 69 -78 98 -157 134c-27 14 -53 28 -76 42c-45 29 -81 83 -81 152c0 71 28 126 84 165s127 58 212 58c88 0 166 -21 235 -64l-23 -151
c-10 -2 -20 -3 -30 -3c-11 0 -21 1 -30 3l-20 118c-37 14 -76 21 -117 21c-37 0 -70 -9 -98 -26c-27 -17 -41 -42 -41 -75c0 -55 51 -93 112 -120c90 -37 208 -84 207 -214c1 -165 -169 -229 -311 -229c-108 0 -193 27 -254 82zM340 826l212 126c21 -27 36 -57 43 -88
l-228 -94c-12 17 -21 35 -27 56z" />
    <glyph glyph-name="sacute" unicode="&#x15b;" horiz-adv-x="557" 
d="M118 190l13 -105c26 -16 60 -24 102 -24c59 0 103 21 103 68c0 31 -37 53 -84 70c-65 25 -153 67 -152 176c0 126 120 165 222 165c76 0 143 -17 202 -51l-17 -126c-9 -2 -18 -3 -29 -3s-21 1 -30 3l-13 83c-27 15 -62 23 -105 23c-54 0 -81 -18 -81 -55
c0 -35 38 -60 85 -80c69 -27 157 -64 157 -166c0 -41 -13 -75 -40 -103c-53 -56 -126 -75 -205 -75c-83 0 -152 21 -209 62l19 138c10 2 20 3 31 3c10 0 20 -1 31 -3zM267 626l146 166c27 -19 49 -42 66 -68l-170 -141c-16 11 -30 25 -42 43z" />
    <glyph glyph-name="Scedilla" unicode="&#x15e;" horiz-adv-x="651" 
d="M40 72l24 159c10 2 20 3 30 3c11 0 21 -1 31 -3l21 -139c39 -16 81 -24 126 -24c43 0 80 9 110 27c31 18 46 46 46 84c-1 69 -78 98 -157 134c-27 14 -53 28 -76 42c-45 29 -81 83 -81 152c0 71 28 126 84 165s127 58 212 58c88 0 166 -21 235 -64l-23 -151
c-10 -2 -20 -3 -30 -3c-11 0 -21 1 -30 3l-20 118c-37 14 -76 21 -117 21c-37 0 -70 -9 -98 -26c-27 -17 -41 -42 -41 -75c0 -55 51 -93 112 -120c90 -37 208 -84 207 -214c0 -65 -23 -117 -70 -154c-46 -37 -103 -61 -172 -70c1 -13 2 -26 2 -38c0 -96 -43 -163 -144 -163
c-29 0 -55 8 -78 24c5 19 14 39 27 58c17 -7 33 -11 48 -11c51 0 75 49 75 112v13c-107 0 -192 27 -253 82z" />
    <glyph glyph-name="scedilla" unicode="&#x15f;" horiz-adv-x="557" 
d="M118 190l13 -105c26 -16 60 -24 102 -24c59 0 103 21 103 68c0 31 -37 53 -84 70c-65 25 -153 67 -152 176c0 126 120 165 222 165c76 0 143 -17 202 -51l-17 -126c-9 -2 -18 -3 -29 -3s-21 1 -30 3l-13 83c-27 15 -62 23 -105 23c-54 0 -81 -18 -81 -55
c0 -35 38 -60 85 -80c69 -27 157 -64 157 -166c0 -49 -18 -89 -54 -118c-35 -29 -79 -47 -132 -55c1 -13 2 -26 2 -38c0 -96 -43 -163 -144 -163c-29 0 -55 8 -78 24c5 19 14 39 27 58c17 -7 33 -11 48 -11c51 0 75 49 75 112v13c-79 2 -145 23 -198 62l19 138
c10 2 20 3 31 3c10 0 20 -1 31 -3z" />
    <glyph glyph-name="Scaron" unicode="&#x160;" horiz-adv-x="651" 
d="M40 72l24 159c10 2 20 3 30 3c11 0 21 -1 31 -3l21 -139c39 -16 81 -24 126 -24c43 0 80 9 110 27c31 18 46 46 46 84c-1 69 -78 98 -157 134c-27 14 -53 28 -76 42c-45 29 -81 83 -81 152c0 71 28 126 84 165s127 58 212 58c88 0 166 -21 235 -64l-23 -151
c-10 -2 -20 -3 -30 -3c-11 0 -21 1 -30 3l-20 118c-37 14 -76 21 -117 21c-37 0 -70 -9 -98 -26c-27 -17 -41 -42 -41 -75c0 -55 51 -93 112 -120c90 -37 208 -84 207 -214c1 -165 -169 -229 -311 -229c-108 0 -193 27 -254 82zM596 903l-188 -133h-10l-147 134
c9 19 21 35 36 48l125 -87l153 87c14 -14 24 -30 31 -49z" />
    <glyph glyph-name="scaron" unicode="&#x161;" horiz-adv-x="557" 
d="M118 190l13 -105c26 -16 60 -24 102 -24c59 0 103 21 103 68c0 31 -37 53 -84 70c-65 25 -153 67 -152 176c0 126 120 165 222 165c76 0 143 -17 202 -51l-17 -126c-9 -2 -18 -3 -29 -3s-21 1 -30 3l-13 83c-27 15 -62 23 -105 23c-54 0 -81 -18 -81 -55
c0 -35 38 -60 85 -80c69 -27 157 -64 157 -166c0 -41 -13 -75 -40 -103c-53 -56 -126 -75 -205 -75c-83 0 -152 21 -209 62l19 138c10 2 20 3 31 3c10 0 20 -1 31 -3zM497 747l-164 -164h-13l-111 169c13 18 29 31 49 40l82 -99l116 99c17 -11 31 -26 41 -45z" />
    <glyph glyph-name="Tcommaaccent" unicode="&#x162;" horiz-adv-x="685" 
d="M147 42l84 25l104 577h-143l-43 -103c-21 -4 -41 -4 -61 0l23 179h641l-29 -179c-10 -2 -20 -3 -31 -3c-10 0 -20 1 -30 3l-15 103h-142l-104 -577l84 -25c2 -14 1 -28 -4 -42h-338c-2 14 -1 28 4 42zM200 -197c37 33 55 85 55 156c14 3 31 4 51 4c19 0 35 -1 48 -4
c1 -91 -39 -154 -120 -189c-15 6 -26 17 -34 33z" />
    <glyph glyph-name="tcommaaccent" unicode="&#x163;" horiz-adv-x="426" 
d="M437 459h-127l-51 -288c-4 -24 -6 -41 -6 -51c0 -29 11 -44 32 -44c19 0 45 10 78 29c13 -15 22 -32 27 -51c-60 -43 -122 -64 -185 -64c-81 0 -119 44 -119 116c0 17 1 32 4 46l54 307h-61c0 14 2 27 7 38l66 25l26 140l160 30l9 -10l-29 -160h127c0 -23 -4 -44 -12 -63
zM64 -197c37 33 55 85 55 156c14 3 31 4 51 4c19 0 35 -1 48 -4c1 -91 -39 -154 -120 -189c-15 6 -26 17 -34 33z" />
    <glyph glyph-name="Tcaron" unicode="&#x164;" horiz-adv-x="685" 
d="M147 42l84 25l104 577h-143l-43 -103c-21 -4 -41 -4 -61 0l23 179h641l-29 -179c-10 -2 -20 -3 -31 -3c-10 0 -20 1 -30 3l-15 103h-142l-104 -577l84 -25c2 -14 1 -28 -4 -42h-338c-2 14 -1 28 4 42zM625 903l-188 -133h-10l-147 134c9 19 21 35 36 48l125 -87l153 87
c14 -14 24 -30 31 -49z" />
    <glyph glyph-name="tcaron" unicode="&#x165;" horiz-adv-x="426" 
d="M437 459h-127l-51 -288c-4 -24 -6 -41 -6 -51c0 -29 11 -44 32 -44c19 0 45 10 78 29c13 -15 22 -32 27 -51c-60 -43 -122 -64 -185 -64c-81 0 -119 44 -119 116c0 17 1 32 4 46l54 307h-61c0 14 2 27 7 38l66 25l26 140l160 30l9 -10l-29 -160h127c0 -23 -4 -44 -12 -63
zM416 632c37 33 55 85 55 156c14 3 31 4 51 4c19 0 35 -1 48 -4c1 -91 -39 -154 -120 -189c-15 6 -26 17 -34 33z" />
    <glyph glyph-name="Umacron" unicode="&#x16a;" horiz-adv-x="758" 
d="M136 346l55 307l-83 25c-2 14 -1 28 4 42h337c2 -14 1 -28 -4 -42l-84 -25l-58 -314c-7 -38 -10 -72 -10 -103c0 -99 39 -149 118 -149c57 0 100 17 127 52s47 87 60 154l68 360l-85 25c-2 14 0 28 5 42h241c2 -14 0 -28 -5 -42l-79 -26l-67 -355
c-20 -105 -53 -182 -98 -232c-45 -49 -116 -74 -211 -74c-162 0 -243 81 -243 243c0 33 4 70 12 112zM653 789h-307c-2 29 1 56 10 82h307c2 -29 -1 -57 -10 -82z" />
    <glyph glyph-name="umacron" unicode="&#x16b;" horiz-adv-x="697" 
d="M645 530l-85 -459l79 10c5 -15 7 -32 6 -49l-167 -39c-13 -3 -24 -4 -32 -4c-42 0 -59 22 -51 66l21 112h-7c-48 -109 -106 -178 -203 -178c-77 0 -123 56 -123 137c0 15 2 33 5 53l53 283h-68c-5 14 -7 30 -7 48l156 28c11 2 22 3 33 3c43 0 61 -22 54 -65l-51 -271
c-4 -20 -6 -38 -6 -53c0 -33 9 -49 27 -49c29 0 64 40 105 119c41 80 67 153 79 219l14 77l158 22zM545 620h-303c0 25 4 51 13 78h302c0 -27 -4 -53 -12 -78z" />
    <glyph glyph-name="Uring" unicode="&#x16e;" horiz-adv-x="758" 
d="M136 346l55 307l-83 25c-2 14 -1 28 4 42h337c2 -14 1 -28 -4 -42l-84 -25l-58 -314c-7 -38 -10 -72 -10 -103c0 -99 39 -149 118 -149c57 0 100 17 127 52s47 87 60 154l68 360l-85 25c-2 14 0 28 5 42h241c2 -14 0 -28 -5 -42l-79 -26l-67 -355
c-20 -105 -53 -182 -98 -232c-45 -49 -116 -74 -211 -74c-162 0 -243 81 -243 243c0 33 4 70 12 112zM521 962c57 0 101 -40 101 -95c0 -68 -54 -116 -123 -116c-59 0 -101 40 -101 96c0 65 54 115 123 115zM517 914c-35 0 -57 -29 -57 -64c0 -28 18 -52 46 -52
c32 0 53 32 53 65c0 27 -15 51 -42 51z" />
    <glyph glyph-name="uring" unicode="&#x16f;" horiz-adv-x="697" 
d="M645 530l-85 -459l79 10c5 -15 7 -32 6 -49l-167 -39c-13 -3 -24 -4 -32 -4c-42 0 -59 22 -51 66l21 112h-7c-48 -109 -106 -178 -203 -178c-77 0 -123 56 -123 137c0 15 2 33 5 53l53 283h-68c-5 14 -7 30 -7 48l156 28c11 2 22 3 33 3c43 0 61 -22 54 -65l-51 -271
c-4 -20 -6 -38 -6 -53c0 -33 9 -49 27 -49c29 0 64 40 105 119c41 80 67 153 79 219l14 77l158 22zM410 794c57 0 101 -40 101 -95c0 -68 -54 -116 -123 -116c-59 0 -101 40 -101 96c0 65 54 115 123 115zM406 746c-35 0 -57 -29 -57 -64c0 -28 18 -52 46 -52
c32 0 53 32 53 65c0 27 -15 51 -42 51z" />
    <glyph glyph-name="Uhungarumlaut" unicode="&#x170;" horiz-adv-x="758" 
d="M136 346l55 307l-83 25c-2 14 -1 28 4 42h337c2 -14 1 -28 -4 -42l-84 -25l-58 -314c-7 -38 -10 -72 -10 -103c0 -99 39 -149 118 -149c57 0 100 17 127 52s47 87 60 154l68 360l-85 25c-2 14 0 28 5 42h241c2 -14 0 -28 -5 -42l-79 -26l-67 -355
c-20 -105 -53 -182 -98 -232c-45 -49 -116 -74 -211 -74c-162 0 -243 81 -243 243c0 33 4 70 12 112zM335 816l115 136c30 -21 52 -45 66 -72l-139 -110c-17 11 -31 27 -42 46zM540 816l115 136c30 -21 52 -45 66 -72l-139 -110c-17 11 -31 27 -42 46z" />
    <glyph glyph-name="uhungarumlaut" unicode="&#x171;" horiz-adv-x="697" 
d="M645 530l-85 -459l79 10c5 -15 7 -32 6 -49l-167 -39c-13 -3 -24 -4 -32 -4c-42 0 -59 22 -51 66l21 112h-7c-48 -109 -106 -178 -203 -178c-77 0 -123 56 -123 137c0 15 2 33 5 53l53 283h-68c-5 14 -7 30 -7 48l156 28c11 2 22 3 33 3c43 0 61 -22 54 -65l-51 -271
c-4 -20 -6 -38 -6 -53c0 -33 9 -49 27 -49c29 0 64 40 105 119c41 80 67 153 79 219l14 77l158 22zM227 624l134 168c27 -17 49 -38 68 -64l-158 -145c-16 9 -31 22 -44 41zM428 624l134 168c27 -17 49 -38 68 -64l-158 -145c-16 9 -31 22 -44 41z" />
    <glyph glyph-name="Uogonek" unicode="&#x172;" horiz-adv-x="758" 
d="M136 346l55 307l-83 25c-2 14 -1 28 4 42h337c2 -14 1 -28 -4 -42l-84 -25l-58 -314c-7 -38 -10 -72 -10 -103c0 -99 39 -149 118 -149c57 0 100 17 127 52s47 87 60 154l68 360l-85 25c-2 14 0 28 5 42h241c2 -14 0 -28 -5 -42l-79 -26l-67 -355
c-35 -177 -94 -271 -226 -298c-16 -27 -24 -53 -24 -79c0 -35 16 -53 49 -53c18 0 36 4 54 11c9 -13 16 -30 21 -51c-33 -21 -68 -31 -106 -31c-57 0 -98 29 -98 90c0 37 9 72 28 105h-7c-162 0 -243 81 -243 243c0 33 4 70 12 112z" />
    <glyph glyph-name="uogonek" unicode="&#x173;" horiz-adv-x="697" 
d="M645 530l-85 -459l79 10c5 -15 7 -32 6 -49l-164 -38c-14 -27 -21 -51 -21 -74c0 -35 16 -53 49 -53c18 0 36 4 54 11c9 -13 16 -30 21 -51c-33 -21 -68 -31 -106 -31c-57 0 -98 29 -98 90c0 41 11 78 32 111c-17 10 -23 29 -17 58l21 112h-7
c-48 -109 -106 -178 -203 -178c-77 0 -123 56 -123 137c0 15 2 33 5 53l53 283h-68c-5 14 -7 30 -7 48l156 28c11 2 22 3 33 3c43 0 61 -22 54 -65l-51 -271c-4 -20 -6 -38 -6 -53c0 -33 9 -49 27 -49c29 0 64 40 105 119c41 80 67 153 79 219l14 77l158 22z" />
    <glyph glyph-name="Ydieresis" unicode="&#x178;" horiz-adv-x="692" 
d="M158 42l83 25l40 218l-139 367l-73 26c-2 15 -1 29 4 42h332c2 -13 1 -27 -4 -42l-81 -25l103 -272h4l188 272l-86 25c-2 15 -1 29 4 42h255c2 -14 0 -28 -5 -42l-75 -24l-258 -375l-39 -212l84 -25c2 -14 1 -28 -4 -42h-338c-2 15 0 29 5 42zM387 792
c-22 -4 -44 -6 -65 -6c-17 0 -34 1 -53 4c-2 42 4 84 19 127c27 5 52 8 76 8c16 0 32 -1 48 -3c1 -47 -7 -90 -25 -130zM641 792c-22 -4 -44 -6 -65 -6c-17 0 -34 1 -53 4c-2 42 4 84 19 127c27 5 52 8 76 8c16 0 32 -1 48 -3c1 -47 -7 -90 -25 -130z" />
    <glyph glyph-name="Zacute" unicode="&#x179;" horiz-adv-x="699" 
d="M657 185l-26 -185h-634l12 63l467 577l-1 4h-247l-44 -103c-10 -2 -20 -3 -31 -3c-10 0 -20 1 -30 3l23 179h573l-12 -63l-469 -577l1 -4h309l46 109c11 2 21 3 31 3c11 0 22 -1 32 -3zM363 826l212 126c21 -27 36 -57 43 -88l-228 -94c-12 17 -21 35 -27 56z" />
    <glyph glyph-name="zacute" unicode="&#x17a;" horiz-adv-x="574" 
d="M358 0h-351l13 78l345 302l-1 4h-193l-28 -63c-9 -2 -19 -3 -30 -3c-9 0 -19 1 -29 3l27 209h454l-12 -78l-348 -302l1 -4h148c45 0 76 5 93 14s32 28 46 57c17 -1 33 -5 50 -13l-8 -35c-1 -6 -4 -16 -8 -31c-3 -15 -6 -25 -9 -30c-4 -11 -15 -41 -24 -50
s-23 -30 -39 -37c-22 -10 -55 -24 -97 -21zM292 626l146 166c27 -19 49 -42 66 -68l-170 -141c-16 11 -30 25 -42 43z" />
    <glyph glyph-name="Zdotaccent" unicode="&#x17b;" horiz-adv-x="699" 
d="M657 185l-26 -185h-634l12 63l467 577l-1 4h-247l-44 -103c-10 -2 -20 -3 -31 -3c-10 0 -20 1 -30 3l23 179h573l-12 -63l-469 -577l1 -4h309l46 109c11 2 21 3 31 3c11 0 22 -1 32 -3zM399 929c24 5 50 7 78 7c19 0 38 -1 58 -3c-1 -54 -11 -101 -28 -142
c-21 -5 -46 -7 -73 -7c-21 0 -40 1 -57 4c-1 52 6 99 22 141z" />
    <glyph glyph-name="zdotaccent" unicode="&#x17c;" horiz-adv-x="574" 
d="M358 0h-351l13 78l345 302l-1 4h-193l-28 -63c-9 -2 -19 -3 -30 -3c-9 0 -19 1 -29 3l27 209h454l-12 -78l-348 -302l1 -4h148c45 0 76 5 93 14s32 28 46 57c17 -1 33 -5 50 -13l-8 -35c-1 -6 -4 -16 -8 -31c-3 -15 -6 -25 -9 -30c-4 -11 -15 -41 -24 -50
s-23 -30 -39 -37c-22 -10 -55 -24 -97 -21zM314 769c24 5 50 7 78 7c19 0 38 -1 58 -3c-1 -54 -11 -101 -28 -142c-21 -5 -46 -7 -73 -7c-21 0 -40 1 -57 4c-1 52 6 99 22 141z" />
    <glyph glyph-name="Zcaron" unicode="&#x17d;" horiz-adv-x="699" 
d="M657 185l-26 -185h-634l12 63l467 577l-1 4h-247l-44 -103c-10 -2 -20 -3 -31 -3c-10 0 -20 1 -30 3l23 179h573l-12 -63l-469 -577l1 -4h309l46 109c11 2 21 3 31 3c11 0 22 -1 32 -3zM617 903l-188 -133h-10l-147 134c9 19 21 35 36 48l125 -87l153 87
c14 -14 24 -30 31 -49z" />
    <glyph glyph-name="zcaron" unicode="&#x17e;" horiz-adv-x="574" 
d="M358 0h-351l13 78l345 302l-1 4h-193l-28 -63c-9 -2 -19 -3 -30 -3c-9 0 -19 1 -29 3l27 209h454l-12 -78l-348 -302l1 -4h148c45 0 76 5 93 14s32 28 46 57c17 -1 33 -5 50 -13l-8 -35c-1 -6 -4 -16 -8 -31c-3 -15 -6 -25 -9 -30c-4 -11 -15 -41 -24 -50
s-23 -30 -39 -37c-22 -10 -55 -24 -97 -21zM506 747l-164 -164h-13l-111 169c13 18 29 31 49 40l82 -99l116 99c17 -11 31 -26 41 -45z" />
    <glyph glyph-name="florin" unicode="&#x192;" horiz-adv-x="609" 
d="M217 171l34 192h-90c0 23 4 45 11 64h91l20 111c23 128 103 192 230 192c47 0 90 -9 129 -26l-18 -128c-10 -2 -20 -3 -29 -3c-10 0 -20 1 -29 3l-10 89c-39 7 -68 -11 -85 -48s-25 -69 -33 -118l-12 -72h127c0 -22 -4 -43 -12 -64h-125l-31 -170
c-12 -68 -30 -123 -55 -166c-24 -42 -58 -80 -102 -115c-39 -29 -97 -54 -145 -54c-55 0 -90 26 -106 78c15 23 39 44 72 64c33 -44 59 -66 78 -66c33 0 63 79 90 237z" />
    <glyph glyph-name="Scommaaccent" unicode="&#x218;" horiz-adv-x="651" 
d="M40 72l24 159c10 2 20 3 30 3c11 0 21 -1 31 -3l21 -139c39 -16 81 -24 126 -24c43 0 80 9 110 27c31 18 46 46 46 84c-1 69 -78 98 -157 134c-27 14 -53 28 -76 42c-45 29 -81 83 -81 152c0 71 28 126 84 165s127 58 212 58c88 0 166 -21 235 -64l-23 -151
c-10 -2 -20 -3 -30 -3c-11 0 -21 1 -30 3l-20 118c-37 14 -76 21 -117 21c-37 0 -70 -9 -98 -26c-27 -17 -41 -42 -41 -75c0 -55 51 -93 112 -120c90 -37 208 -84 207 -214c1 -165 -169 -229 -311 -229c-108 0 -193 27 -254 82zM215 -197c37 33 55 85 55 156c14 3 31 4 51 4
c19 0 35 -1 48 -4c1 -91 -39 -154 -120 -189c-15 6 -26 17 -34 33z" />
    <glyph glyph-name="scommaaccent" unicode="&#x219;" horiz-adv-x="557" 
d="M118 190l13 -105c26 -16 60 -24 102 -24c59 0 103 21 103 68c0 31 -37 53 -84 70c-65 25 -153 67 -152 176c0 126 120 165 222 165c76 0 143 -17 202 -51l-17 -126c-9 -2 -18 -3 -29 -3s-21 1 -30 3l-13 83c-27 15 -62 23 -105 23c-54 0 -81 -18 -81 -55
c0 -35 38 -60 85 -80c69 -27 157 -64 157 -166c0 -41 -13 -75 -40 -103c-53 -56 -126 -75 -205 -75c-83 0 -152 21 -209 62l19 138c10 2 20 3 31 3c10 0 20 -1 31 -3zM158 -197c37 33 55 85 55 156c14 3 31 4 51 4c19 0 35 -1 48 -4c1 -91 -39 -154 -120 -189
c-15 6 -26 17 -34 33z" />
    <glyph glyph-name="circumflex" unicode="&#x2c6;" horiz-adv-x="400" 
d="M111 629l164 163h13l111 -169c-12 -17 -28 -30 -49 -40l-82 99l-116 -99c-17 11 -30 26 -41 46z" />
    <glyph glyph-name="caron" unicode="&#x2c7;" horiz-adv-x="400" 
d="M422 747l-164 -164h-13l-111 169c13 18 29 31 49 40l82 -99l116 99c17 -11 31 -26 41 -45z" />
    <glyph glyph-name="breve" unicode="&#x2d8;" horiz-adv-x="400" 
d="M145 751c9 2 18 3 29 3c13 0 23 -1 32 -3c0 -53 24 -79 73 -79s86 31 97 79c9 2 19 3 30 3s21 -1 31 -3c-15 -100 -74 -156 -165 -156c-77 0 -130 40 -130 120c0 12 1 24 3 36z" />
    <glyph glyph-name="dotaccent" unicode="&#x2d9;" horiz-adv-x="400" 
d="M214 769c24 5 50 7 78 7c19 0 38 -1 58 -3c-1 -54 -11 -101 -28 -142c-21 -5 -46 -7 -73 -7c-21 0 -40 1 -57 4c-1 52 6 99 22 141z" />
    <glyph glyph-name="ring" unicode="&#x2da;" horiz-adv-x="400" 
d="M289 794c57 0 101 -40 101 -95c0 -68 -54 -116 -123 -116c-59 0 -101 40 -101 96c0 65 54 115 123 115zM285 746c-35 0 -57 -29 -57 -64c0 -28 18 -52 46 -52c32 0 53 32 53 65c0 27 -15 51 -42 51z" />
    <glyph glyph-name="ogonek" unicode="&#x2db;" horiz-adv-x="400" 
d="M121 4h70c-18 -30 -27 -58 -27 -84c0 -35 16 -53 49 -53c18 0 36 4 54 11c9 -13 16 -30 21 -51c-33 -21 -68 -31 -106 -31c-57 0 -98 29 -98 90c0 43 12 82 37 118z" />
    <glyph glyph-name="tilde" unicode="&#x2dc;" horiz-adv-x="400" 
d="M166 597c-23 -1 -42 2 -58 9c9 35 17 56 32 84c16 28 40 43 69 43c21 0 44 -9 71 -28c27 -18 46 -27 56 -27c25 0 40 29 44 58c21 1 40 -2 58 -9c-3 -33 -14 -62 -32 -87c-17 -25 -41 -38 -71 -38c-22 0 -47 9 -74 27c-27 19 -44 28 -51 28c-17 0 -31 -20 -44 -60z" />
    <glyph glyph-name="hungarumlaut" unicode="&#x2dd;" horiz-adv-x="400" 
d="M75 624l134 168c27 -17 49 -38 68 -64l-158 -145c-16 9 -31 22 -44 41zM276 624l134 168c27 -17 49 -38 68 -64l-158 -145c-16 9 -31 22 -44 41z" />
    <glyph glyph-name="afii10023" unicode="&#x401;" horiz-adv-x="693" 
d="M16 42l82 25l106 586l-82 25c-2 13 -1 27 4 42h575l-23 -170c-10 -2 -20 -3 -31 -3c-10 0 -20 1 -30 3l-14 94h-231l-41 -227h160l29 63c17 3 34 3 51 0l-30 -222c-17 -3 -34 -3 -51 0l-13 83h-160l-48 -265h272l45 99c10 2 20 3 30 3c9 0 20 -1 31 -3l-24 -175h-612
c-1 15 0 29 5 42zM367 792c-22 -4 -44 -6 -65 -6c-17 0 -34 1 -53 4c-2 42 4 84 19 127c27 5 52 8 76 8c16 0 32 -1 48 -3c1 -47 -7 -90 -25 -130zM621 792c-22 -4 -44 -6 -65 -6c-17 0 -34 1 -53 4c-2 42 4 84 19 127c27 5 52 8 76 8c16 0 32 -1 48 -3
c1 -47 -7 -90 -25 -130z" />
    <glyph glyph-name="afii10051" unicode="&#x402;" horiz-adv-x="813" 
d="M114 42l84 25l103 577h-109l-43 -103c-21 -4 -41 -4 -61 0l23 179h638l-29 -179c-10 -2 -20 -3 -30 -3c-11 0 -21 1 -31 3l-14 103h-174l-40 -227c39 10 76 15 111 15c145 0 227 -77 227 -209c0 -110 -36 -201 -107 -273s-167 -108 -287 -109c-5 15 -7 32 -5 49
c48 5 89 25 124 58c71 67 99 159 99 252c0 112 -47 152 -128 152c-19 0 -34 -1 -47 -2l-50 -283l70 -25c2 -14 1 -28 -4 -42h-324c-2 14 -1 28 4 42z" />
    <glyph glyph-name="afii10052" unicode="&#x403;" horiz-adv-x="625" 
d="M600 541l-14 103h-212l-104 -577l84 -25c2 -14 0 -28 -5 -42h-337c-2 15 -1 29 4 42l84 25l106 586l-82 25c-2 14 -1 28 4 42h562l-29 -179c-10 -2 -20 -3 -30 -3c-11 0 -21 1 -31 3zM351 826l212 126c21 -27 36 -57 43 -88l-228 -94c-12 17 -21 35 -27 56z" />
    <glyph glyph-name="afii10053" unicode="&#x404;" horiz-adv-x="709" 
d="M550 102l59 118c11 2 22 3 32 3c9 0 19 -1 29 -3l-30 -153c-69 -51 -155 -77 -256 -77c-99 0 -176 28 -231 84s-83 130 -83 222c0 125 41 229 124 311s189 123 317 123c81 0 149 -19 202 -56l-23 -153c-20 -4 -40 -4 -60 0l-19 118c-29 12 -61 18 -96 18
c-69 0 -125 -23 -168 -69s-72 -104 -88 -175l340 9c3 -29 -1 -57 -10 -83l-340 9c-2 -18 -3 -35 -3 -51c0 -108 39 -224 171 -224c41 0 86 10 133 29z" />
    <glyph glyph-name="afii10054" unicode="&#x405;" horiz-adv-x="651" 
d="M40 72l24 159c10 2 20 3 30 3c11 0 21 -1 31 -3l21 -139c39 -16 81 -24 126 -24c43 0 80 9 110 27c31 18 46 46 46 84c-1 69 -78 98 -157 134c-27 14 -53 28 -76 42c-45 29 -81 83 -81 152c0 71 28 126 84 165s127 58 212 58c88 0 166 -21 235 -64l-23 -151
c-10 -2 -20 -3 -30 -3c-11 0 -21 1 -30 3l-20 118c-37 14 -76 21 -117 21c-37 0 -70 -9 -98 -26c-27 -17 -41 -42 -41 -75c0 -55 51 -93 112 -120c90 -37 208 -84 207 -214c1 -165 -169 -229 -311 -229c-108 0 -193 27 -254 82z" />
    <glyph glyph-name="afii10055" unicode="&#x406;" horiz-adv-x="418" 
d="M100 67l106 586l-84 25c-2 14 -1 28 4 42h338c2 -13 1 -27 -4 -42l-84 -25l-106 -586l84 -25c2 -13 0 -27 -5 -42h-337c-2 14 -1 28 4 42z" />
    <glyph glyph-name="afii10056" unicode="&#x407;" horiz-adv-x="418" 
d="M100 67l106 586l-84 25c-2 14 -1 28 4 42h338c2 -13 1 -27 -4 -42l-84 -25l-106 -586l84 -25c2 -13 0 -27 -5 -42h-337c-2 14 -1 28 4 42zM243 792c-22 -4 -44 -6 -65 -6c-17 0 -34 1 -53 4c-2 42 4 84 19 127c27 5 52 8 76 8c16 0 32 -1 48 -3c1 -47 -7 -90 -25 -130z
M497 792c-22 -4 -44 -6 -65 -6c-17 0 -34 1 -53 4c-2 42 4 84 19 127c27 5 52 8 76 8c16 0 32 -1 48 -3c1 -47 -7 -90 -25 -130z" />
    <glyph glyph-name="afii10057" unicode="&#x408;" horiz-adv-x="420" 
d="M109 81l105 572l-84 25c-2 14 -1 28 4 42h337c2 -13 1 -27 -4 -42l-83 -25l-113 -613c-25 -133 -126 -200 -305 -200c-6 16 -8 32 -6 47c49 10 83 29 102 56s35 73 47 138z" />
    <glyph glyph-name="afii10058" unicode="&#x409;" horiz-adv-x="994" 
d="M3 -10l-6 5v193c10 2 20 3 31 3c10 0 20 -1 30 -3l25 -91c47 27 87 85 120 180c17 47 30 88 40 122s22 80 37 137l30 117l-96 25c-2 14 -1 28 4 42h582c2 -13 1 -27 -4 -42l-82 -25l-39 -225h4c65 0 113 -4 165 -20c74 -23 123 -70 123 -165c0 -80 -36 -141 -85 -176
c-25 -17 -56 -30 -93 -41c-73 -21 -139 -26 -224 -26h-210c-2 15 -1 29 4 42l82 25l101 577h-156l-34 -125c-44 -161 -79 -270 -104 -326c-39 -88 -90 -147 -153 -177c-27 -13 -57 -21 -92 -26zM661 354l-48 -281c111 0 179 65 179 170c0 73 -50 111 -131 111z" />
    <glyph glyph-name="afii10059" unicode="&#x40a;" horiz-adv-x="1081" 
d="M597 428l41 225l-84 25c-2 14 -1 28 4 42h336c2 -13 1 -27 -4 -42l-82 -25l-41 -225h4c81 0 139 -8 196 -33c57 -24 90 -75 90 -148c0 -83 -36 -145 -85 -181c-25 -17 -56 -31 -93 -42c-75 -20 -138 -24 -226 -24h-209c-2 15 -1 29 4 42l84 25l51 285h-262l-51 -285
l84 -25c2 -13 0 -27 -5 -42h-337c-2 15 -1 29 4 42l84 25l106 586l-84 25c-2 14 -1 28 4 42h338c2 -13 1 -27 -4 -42l-84 -25l-41 -225h262zM882 245c0 71 -43 108 -128 109l-51 -281c111 1 179 61 179 172z" />
    <glyph glyph-name="afii10060" unicode="&#x40b;" horiz-adv-x="848" 
d="M114 42l84 25l103 577h-109l-43 -103c-21 -4 -41 -4 -61 0l23 179h638l-29 -179c-10 -2 -20 -3 -30 -3c-11 0 -21 1 -31 3l-14 103h-174l-40 -226c35 7 68 10 99 10c151 0 226 -56 226 -167c0 -13 -1 -26 -3 -39l-26 -155l80 -25c2 -14 1 -28 -4 -42h-255l27 167
c6 42 9 70 9 84c0 68 -33 102 -100 102c-19 0 -42 -3 -67 -8l-49 -278l70 -25c2 -14 1 -28 -4 -42h-324c-2 15 -1 29 4 42z" />
    <glyph glyph-name="afii10061" unicode="&#x40c;" horiz-adv-x="818" 
d="M783 0h-234l-216 353l1 6l305 302l-62 17c-1 15 0 29 5 42h267c2 -14 1 -28 -4 -42l-105 -24l-247 -244l212 -343l82 -25c2 -13 1 -27 -4 -42zM100 67l106 586l-84 25c-2 14 -1 28 4 42h338c2 -13 1 -27 -4 -42l-84 -25l-106 -586l84 -25c2 -13 0 -27 -5 -42h-337
c-2 14 -1 28 4 42zM442 826l212 126c21 -27 36 -57 43 -88l-228 -94c-12 17 -21 35 -27 56z" />
    <glyph glyph-name="afii10062" unicode="&#x40e;" horiz-adv-x="704" 
d="M337 653l118 -300h4l177 299l-83 26c-2 15 -1 29 4 42h241c2 -14 1 -28 -4 -42l-69 -25l-230 -389c-48 -80 -87 -133 -148 -190c-61 -56 -139 -86 -230 -86c-12 0 -23 1 -34 2v171c11 2 22 3 32 3c9 0 19 -1 29 -3l25 -76c69 -2 128 26 177 83l-185 484l-74 26
c-2 15 -1 29 4 42h332c2 -13 1 -27 -4 -42zM326 936c15 2 30 3 44 3c15 0 30 -1 45 -3c-2 -61 18 -92 60 -92c45 0 72 31 81 92c32 4 64 4 96 0c-19 -100 -89 -159 -181 -159c-95 0 -150 55 -145 159z" />
    <glyph glyph-name="afii10145" unicode="&#x40f;" horiz-adv-x="850" 
d="M533 76l105 577l-84 25c-2 14 -1 28 4 42h338c2 -14 1 -28 -4 -42l-84 -25l-106 -586l83 -25c2 -14 1 -28 -4 -42h-323l-52 -150c-10 -2 -20 -3 -31 -3s-21 1 -30 3l-6 150h-327c-2 15 -1 29 4 42l84 25l106 586l-84 25c-2 14 -1 28 4 42h338c2 -13 1 -27 -4 -42l-84 -25
l-105 -577h262z" />
    <glyph glyph-name="afii10017" unicode="&#x410;" horiz-adv-x="800" 
d="M430 42l82 25l-23 154h-245l-88 -154l84 -25c2 -15 1 -29 -4 -42h-252c-2 14 -1 28 3 42l81 26l359 623l138 39l19 -10l98 -652l74 -26c2 -13 1 -27 -4 -42h-326c-2 15 -1 29 4 42zM478 297l-37 256h-4l-149 -256h190z" />
    <glyph glyph-name="afii10018" unicode="&#x411;" horiz-adv-x="714" 
d="M589 644h-217l-36 -207h26c28 0 53 -1 74 -3c44 -3 97 -11 132 -28c56 -27 95 -70 95 -151s-30 -144 -77 -181c-23 -18 -51 -33 -86 -45c-68 -23 -134 -29 -221 -29h-264c-2 15 -1 29 4 42l82 25l104 586l-82 25c-2 14 -1 28 4 42h567l-30 -179c-10 -2 -20 -3 -30 -3
c-11 0 -21 1 -31 3zM353 364h-30l-51 -291h20c131 0 196 59 196 177c0 80 -44 114 -135 114z" />
    <glyph glyph-name="afii10019" unicode="&#x412;" horiz-adv-x="711" 
d="M381 647h-8l-42 -231h39c80 0 126 49 126 130c0 67 -38 101 -115 101zM353 342h-36l-48 -269h6c64 0 114 11 150 32c37 21 55 62 55 121c0 77 -42 116 -127 116zM16 42l82 25l106 586l-82 25c-2 14 -1 28 4 42h237c63 0 104 -1 164 -14c87 -16 140 -57 145 -144
c0 -47 -17 -87 -50 -119s-75 -51 -126 -57v-4c95 -9 160 -72 160 -160c0 -76 -37 -133 -86 -164c-24 -15 -55 -28 -92 -37c-73 -17 -132 -21 -213 -21h-254c-1 15 0 29 5 42z" />
    <glyph glyph-name="afii10020" unicode="&#x413;" horiz-adv-x="625" 
d="M600 541l-14 103h-212l-104 -577l84 -25c2 -14 0 -28 -5 -42h-337c-2 15 -1 29 4 42l84 25l106 586l-82 25c-2 14 -1 28 4 42h562l-29 -179c-10 -2 -20 -3 -30 -3c-11 0 -21 1 -31 3z" />
    <glyph glyph-name="afii10021" unicode="&#x414;" horiz-adv-x="803" 
d="M-17 -150l35 226h84c96 106 173 298 230 577l-96 25c-2 14 -1 28 4 42h602c2 -14 1 -28 -4 -42l-87 -25l-105 -577h84l-36 -226c-10 -2 -20 -3 -31 -3c-10 0 -20 1 -30 3l-29 150h-484l-76 -150c-10 -2 -20 -3 -31 -3c-10 0 -20 1 -30 3zM476 76l103 568h-171
c-33 -146 -64 -261 -94 -346c-30 -84 -69 -158 -118 -222h280z" />
    <glyph glyph-name="afii10022" unicode="&#x415;" horiz-adv-x="693" 
d="M16 42l82 25l106 586l-82 25c-2 13 -1 27 4 42h575l-23 -170c-10 -2 -20 -3 -31 -3c-10 0 -20 1 -30 3l-14 94h-231l-41 -227h160l29 63c17 3 34 3 51 0l-30 -222c-17 -3 -34 -3 -51 0l-13 83h-160l-48 -265h272l45 99c10 2 20 3 30 3c9 0 20 -1 31 -3l-24 -175h-612
c-1 15 0 29 5 42z" />
    <glyph glyph-name="afii10024" unicode="&#x416;" horiz-adv-x="1225" 
d="M545 360l-326 -360h-240c-3 15 -1 29 4 42l82 25l339 375l-145 212l-106 24c-2 14 -1 28 4 42h252c2 -13 1 -27 -4 -42l-59 -17l201 -295zM505 67l106 586l-84 25c-2 15 -1 29 4 42h338c2 -15 1 -29 -4 -42l-84 -25l-106 -586l84 -25c2 -14 0 -28 -5 -42h-337
c-3 15 -1 29 4 42zM1190 0h-233l-217 356l1 6l305 299l-61 17c-2 13 -1 27 4 42h268c2 -13 1 -27 -4 -42l-105 -24l-247 -241l212 -346l82 -25c2 -14 0 -28 -5 -42z" />
    <glyph glyph-name="afii10025" unicode="&#x417;" horiz-adv-x="666" 
d="M145 522v159c80 33 162 49 246 49c106 0 245 -39 245 -162c0 -49 -18 -90 -54 -123c-35 -33 -78 -53 -128 -60v-4c88 -15 147 -78 147 -163c0 -80 -46 -143 -114 -178c-68 -33 -143 -50 -216 -50c-97 0 -177 24 -241 72l22 156c10 2 20 3 30 3c9 0 20 -1 31 -3l23 -124
c34 -17 72 -25 115 -25c103 0 175 58 175 161c0 75 -58 113 -138 113h-65c0 25 3 48 10 71h60c103 0 167 51 167 144c0 65 -39 98 -117 98c-35 0 -70 -7 -105 -20l-32 -114c-11 -2 -22 -3 -31 -3c-10 0 -20 1 -30 3z" />
    <glyph glyph-name="afii10026" unicode="&#x418;" horiz-adv-x="865" 
d="M637 564l16 89l-84 25c-2 14 -1 28 4 42h338c2 -14 1 -28 -4 -42l-84 -25l-106 -586l83 -25c2 -14 1 -28 -4 -42h-337c-2 15 -1 29 4 42l84 25l67 375h-4l-323 -279l-17 -96l84 -25c2 -14 0 -28 -5 -42h-337c-2 15 -1 29 4 42l84 25l106 586l-84 25c-2 14 -1 28 4 42h338
c2 -14 1 -28 -4 -42l-84 -25l-66 -367h4z" />
    <glyph glyph-name="afii10027" unicode="&#x419;" horiz-adv-x="865" 
d="M637 564l16 89l-84 25c-2 14 -1 28 4 42h338c2 -14 1 -28 -4 -42l-84 -25l-106 -586l83 -25c2 -14 1 -28 -4 -42h-337c-2 15 -1 29 4 42l84 25l67 375h-4l-323 -279l-17 -96l84 -25c2 -14 0 -28 -5 -42h-337c-2 15 -1 29 4 42l84 25l106 586l-84 25c-2 14 -1 28 4 42h338
c2 -14 1 -28 -4 -42l-84 -25l-66 -367h4zM380 936c15 2 29 3 44 3s30 -1 45 -3c-2 -61 18 -92 60 -92c45 0 72 31 81 92c32 4 64 4 96 0c-19 -100 -89 -159 -181 -159c-95 0 -150 55 -145 159z" />
    <glyph glyph-name="afii10028" unicode="&#x41a;" horiz-adv-x="818" 
d="M783 0h-234l-216 353l1 6l305 302l-62 17c-1 15 0 29 5 42h267c2 -14 1 -28 -4 -42l-105 -24l-247 -244l212 -343l82 -25c2 -13 1 -27 -4 -42zM100 67l106 586l-84 25c-2 14 -1 28 4 42h338c2 -13 1 -27 -4 -42l-84 -25l-106 -586l84 -25c2 -13 0 -27 -5 -42h-337
c-2 14 -1 28 4 42z" />
    <glyph glyph-name="afii10029" unicode="&#x41b;" horiz-adv-x="773" 
d="M452 67l104 577h-170l-30 -110c-45 -165 -80 -277 -105 -334c-40 -92 -91 -153 -154 -183c-28 -13 -59 -22 -94 -27l-6 5v193c10 2 20 3 31 3c10 0 20 -1 30 -3l25 -91c47 27 87 86 122 185c17 49 31 91 41 125s22 81 37 140l27 106l-96 25c-2 14 -1 28 4 42h598
c2 -14 1 -28 -4 -42l-83 -25l-107 -586l84 -25c2 -14 1 -28 -4 -42h-338c-2 15 -1 29 4 42z" />
    <glyph glyph-name="afii10030" unicode="&#x41c;" horiz-adv-x="1050" 
d="M517 217h4l252 503h265c2 -15 1 -29 -4 -42l-83 -25l-49 -586l83 -25c2 -14 0 -28 -5 -42h-332c-2 14 -1 28 4 42l83 25l40 482h-4l-267 -534l-102 -25l-21 10l-83 549h-4l-126 -482l85 -25c2 -14 1 -28 -4 -42h-249c-3 13 -2 27 3 42l86 26l155 585l-89 25
c-2 14 -1 28 4 42h284z" />
    <glyph glyph-name="afii10031" unicode="&#x41d;" horiz-adv-x="860" 
d="M605 418l43 235l-84 25c-2 14 -1 28 4 42h338c2 -14 1 -28 -4 -42l-84 -25l-106 -586l83 -25c2 -14 1 -28 -4 -42h-337c-2 14 -1 28 4 42l84 25l49 275h-272l-49 -275l84 -25c2 -14 0 -28 -5 -42h-337c-2 14 -1 28 4 42l84 25l106 586l-84 25c-2 14 -1 28 4 42h338
c2 -14 1 -28 -4 -42l-84 -25l-43 -235h272z" />
    <glyph glyph-name="afii10032" unicode="&#x41e;" horiz-adv-x="788" 
d="M468 657c-67 0 -123 -42 -155 -98c-15 -28 -28 -60 -39 -96c-21 -71 -28 -133 -28 -189c1 -93 27 -211 136 -211c77 0 138 59 169 140c32 81 47 165 47 238c0 48 -7 91 -24 138s-55 78 -106 78zM480 730c91 0 163 -26 215 -79c52 -52 78 -123 78 -212
c0 -81 -16 -155 -47 -222s-79 -122 -142 -164s-136 -63 -219 -63c-95 0 -168 27 -219 81c-51 55 -76 127 -76 218c0 78 16 150 49 217s82 121 145 162s135 62 216 62z" />
    <glyph glyph-name="afii10033" unicode="&#x41f;" horiz-adv-x="850" 
d="M100 67l106 586l-84 25c-2 14 -1 28 4 42h770c2 -14 1 -28 -4 -42l-84 -25l-106 -586l83 -25c2 -14 1 -28 -4 -42h-337c-2 15 -1 29 4 42l84 25l103 577h-261l-104 -577l84 -25c2 -15 0 -29 -5 -42h-337c-2 15 -1 29 4 42z" />
    <glyph glyph-name="afii10034" unicode="&#x420;" horiz-adv-x="673" 
d="M16 42l84 25l106 586l-84 25c-2 14 -1 28 4 42h210c79 0 134 -4 197 -21c92 -22 146 -76 150 -181c0 -96 -43 -167 -115 -207c-71 -39 -154 -56 -253 -56h-12l-33 -188l84 -25c2 -13 0 -27 -5 -42h-337c-2 14 -1 28 4 42zM379 647h-4l-58 -319h-4c119 0 194 68 194 189
c0 81 -53 130 -128 130z" />
    <glyph glyph-name="afii10035" unicode="&#x421;" horiz-adv-x="709" 
d="M550 102l59 118c10 2 20 3 31 3c10 0 20 -1 30 -3l-30 -153c-69 -51 -155 -77 -256 -77c-99 0 -176 28 -231 84s-83 130 -83 222c0 123 42 226 125 309s189 125 316 125c81 0 149 -19 202 -56l-23 -153c-20 -4 -40 -4 -60 0l-19 118c-29 12 -61 18 -96 18
c-189 0 -269 -196 -269 -360c0 -108 39 -225 171 -225c40 0 84 10 133 30z" />
    <glyph glyph-name="afii10036" unicode="&#x422;" horiz-adv-x="685" 
d="M147 42l84 25l104 577h-143l-43 -103c-21 -4 -41 -4 -61 0l23 179h641l-29 -179c-10 -2 -20 -3 -31 -3c-10 0 -20 1 -30 3l-15 103h-142l-104 -577l84 -25c2 -14 1 -28 -4 -42h-338c-2 14 -1 28 4 42z" />
    <glyph glyph-name="afii10037" unicode="&#x423;" horiz-adv-x="704" 
d="M337 653l118 -300h4l177 299l-83 26c-2 15 -1 29 4 42h241c2 -14 1 -28 -4 -42l-69 -25l-230 -389c-48 -80 -87 -133 -148 -190c-61 -56 -139 -86 -230 -86c-12 0 -23 1 -34 2v171c11 2 22 3 32 3c9 0 19 -1 29 -3l25 -76c69 -2 128 26 177 83l-185 484l-74 26
c-2 15 -1 29 4 42h332c2 -13 1 -27 -4 -42z" />
    <glyph glyph-name="afii10038" unicode="&#x424;" horiz-adv-x="875" 
d="M425 612l8 41l-84 25c-2 14 -1 28 4 42h338c2 -14 1 -28 -4 -42l-84 -25l-8 -42c177 -19 265 -95 265 -230c0 -95 -40 -165 -108 -206c-68 -40 -148 -61 -248 -66l-7 -42l84 -25c2 -14 0 -28 -5 -42h-337c-2 15 -1 29 4 42l84 25l7 43c-161 19 -264 90 -264 230
c0 163 118 254 355 272zM246 334c0 -83 31 -150 100 -158l68 374c-111 0 -168 -87 -168 -216zM684 392c0 80 -29 146 -100 153l-69 -373c112 5 169 93 169 220z" />
    <glyph glyph-name="afii10039" unicode="&#x425;" horiz-adv-x="728" 
d="M347 653l88 -192l159 192l-82 25c-2 15 -1 29 4 42h261c2 -14 1 -28 -4 -42l-82 -27l-222 -268l145 -315l81 -26c2 -14 0 -28 -5 -42h-338c-2 15 -1 29 4 42l75 25l-91 198l-163 -197l81 -26c2 -15 1 -29 -4 -42h-267c-2 14 -1 28 4 42l87 26l228 274l-141 310l-71 26
c-2 15 -1 29 4 42h332c2 -13 1 -27 -4 -42z" />
    <glyph glyph-name="afii10040" unicode="&#x426;" horiz-adv-x="850" 
d="M533 76l105 577l-84 25c-2 14 -1 28 4 42h338c2 -13 1 -27 -4 -42l-84 -25l-105 -577h80l-36 -226c-20 -4 -40 -4 -60 0l-29 150h-646c-2 15 -1 29 4 42l84 25l106 586l-84 25c-2 14 -1 28 4 42h338c2 -13 1 -27 -4 -42l-84 -25l-105 -577h262z" />
    <glyph glyph-name="afii10041" unicode="&#x427;" horiz-adv-x="767" 
d="M513 359l53 294l-70 25c-2 15 -1 29 4 42h324c2 -15 1 -29 -4 -42l-84 -25l-106 -586l84 -25c2 -13 0 -27 -5 -42h-337c-2 15 -1 29 4 42l84 25l39 217c-47 -11 -94 -17 -142 -17c-152 0 -228 55 -228 166c0 18 2 38 6 59l31 161l-85 25c-2 14 -1 28 4 42h328
c2 -15 1 -29 -4 -42l-73 -25l-25 -131c-6 -34 -9 -61 -9 -80c0 -73 36 -98 103 -98c31 0 67 5 108 15z" />
    <glyph glyph-name="afii10042" unicode="&#x428;" horiz-adv-x="1127" 
d="M811 76l105 577l-68 25c-2 14 -1 28 4 42h321c2 -13 1 -27 -4 -42l-83 -25l-107 -586l84 -25c2 -14 1 -28 -4 -42h-1047c-2 15 -1 29 4 42l84 25l106 586l-84 25c-2 14 -1 28 4 42h319c2 -13 1 -27 -4 -42l-65 -25l-105 -577h185l105 577l-64 25c-2 14 -1 28 4 42h295
c2 -13 1 -27 -4 -42l-61 -25l-105 -577h185z" />
    <glyph glyph-name="afii10043" unicode="&#x429;" horiz-adv-x="1127" 
d="M964 -150l-28 150h-924c-2 15 -1 29 4 42l84 25l106 586l-84 25c-2 14 -1 28 4 42h319c2 -13 1 -27 -4 -42l-65 -25l-105 -577h185l105 577l-64 25c-2 14 -1 28 4 42h295c2 -13 1 -27 -4 -42l-61 -25l-105 -577h185l105 577l-68 25c-2 14 -1 28 4 42h321
c2 -13 1 -27 -4 -42l-83 -25l-105 -577h80l-36 -226c-10 -2 -20 -3 -30 -3c-11 0 -21 1 -31 3z" />
    <glyph glyph-name="afii10044" unicode="&#x42a;" horiz-adv-x="766" 
d="M88 541l23 179h464c2 -15 1 -29 -4 -42l-82 -25l-41 -225h4c191 0 287 -60 287 -179c0 -84 -36 -147 -87 -183c-25 -17 -56 -31 -94 -42c-75 -20 -137 -24 -224 -24h-209c-2 15 -1 29 4 42l84 25l104 577h-125l-43 -103c-21 -4 -41 -4 -61 0zM563 245
c0 71 -42 108 -127 109l-52 -281c111 1 179 61 179 172z" />
    <glyph glyph-name="afii10045" unicode="&#x42b;" horiz-adv-x="1021" 
d="M100 67l106 586l-84 25c-2 14 -1 28 4 42h338c2 -13 1 -27 -4 -42l-84 -25l-41 -225h4c191 0 287 -60 287 -179c3 -111 -57 -174 -130 -208c-24 -11 -52 -20 -85 -26c-65 -12 -118 -15 -190 -15h-209c-2 15 -1 29 4 42zM450 245c0 71 -43 108 -128 109l-51 -281
c111 1 179 61 179 172zM703 67l106 586l-84 25c-2 14 -1 28 4 42h338c2 -13 1 -27 -4 -42l-84 -25l-106 -586l84 -25c2 -13 0 -27 -5 -42h-337c-2 14 -1 28 4 42z" />
    <glyph glyph-name="afii10046" unicode="&#x42c;" horiz-adv-x="650" 
d="M100 67l106 586l-84 25c-2 14 -1 28 4 42h338c2 -13 1 -27 -4 -42l-84 -25l-41 -225h4c191 0 287 -60 287 -179c3 -111 -57 -174 -130 -208c-24 -11 -52 -20 -85 -26c-65 -12 -118 -15 -190 -15h-209c-2 15 -1 29 4 42zM450 245c0 71 -43 108 -128 109l-51 -281
c111 1 179 61 179 172z" />
    <glyph glyph-name="afii10047" unicode="&#x42d;" horiz-adv-x="712" 
d="M131 225l19 -128c42 -19 84 -29 127 -29c152 0 223 140 241 280l-331 -9c-3 28 0 56 9 83l327 -11v11c0 140 -72 232 -191 232c-32 0 -66 -6 -101 -19l-32 -114c-21 -4 -41 -4 -61 0v152c71 38 147 57 228 57c106 0 188 -28 245 -85c58 -57 87 -134 87 -231
c0 -125 -36 -227 -108 -306c-71 -79 -172 -118 -303 -118c-96 0 -178 28 -245 84l28 151c10 2 20 3 31 3c10 0 20 -1 30 -3z" />
    <glyph glyph-name="afii10048" unicode="&#x42e;" horiz-adv-x="1111" 
d="M813 657c-71 0 -126 -60 -154 -144c-28 -83 -41 -166 -41 -239c0 -44 6 -85 21 -132c16 -47 49 -79 96 -79c69 0 125 63 150 148c27 85 39 165 39 233c0 44 -4 85 -19 133s-47 80 -92 80zM100 67l106 586l-84 25c-2 14 -1 28 4 42h338c2 -14 1 -28 -4 -42l-84 -25
l-43 -235h126c23 93 67 168 132 225c65 58 143 87 234 87c87 0 154 -27 202 -80s72 -122 72 -207c0 -116 -34 -225 -95 -312c-60 -85 -163 -141 -284 -141c-87 0 -156 26 -205 78c-49 53 -73 124 -73 215c0 14 1 34 2 59h-125l-49 -275l84 -25c2 -14 0 -28 -5 -42h-337
c-2 15 -1 29 4 42z" />
    <glyph glyph-name="afii10049" unicode="&#x42f;" horiz-adv-x="760" 
d="M463 360h32l52 287h-24c-121 0 -181 -55 -181 -164c0 -82 40 -123 121 -123zM802 678l-84 -25l-106 -586l84 -25c2 -15 0 -29 -5 -42h-331c-1 15 0 29 5 42l77 25l40 221h-8c-22 0 -49 -19 -80 -56l-190 -232h-233c-2 15 -1 29 4 42l80 25l159 194c23 28 58 46 107 53v4
c-96 13 -155 75 -155 166c0 77 33 137 78 170c23 17 52 30 86 40c69 21 131 26 215 26h261c2 -13 1 -27 -4 -42z" />
    <glyph glyph-name="afii10065" unicode="&#x430;" horiz-adv-x="652" 
d="M418 427l6 34c-16 7 -32 10 -47 10c-34 0 -64 -18 -91 -53c-52 -71 -75 -167 -75 -244c0 -49 10 -73 29 -73c34 0 68 31 102 94c35 63 60 141 76 232zM552 540h53l-87 -469l79 8c5 -14 7 -30 6 -48l-167 -38c-11 -3 -21 -4 -30 -4c-42 0 -59 25 -51 76l13 76h-7
c-46 -101 -106 -151 -181 -151c-47 0 -82 17 -104 51c-21 34 -32 75 -32 124c0 61 13 119 39 176s63 105 112 142c49 38 102 57 161 57c43 0 78 -9 107 -28c5 9 13 15 24 19c21 9 33 9 65 9z" />
    <glyph glyph-name="afii10066" unicode="&#x431;" horiz-adv-x="633" 
d="M355 426c-101 0 -135 -147 -135 -233c0 -33 7 -64 20 -91s35 -41 65 -41c52 0 90 37 106 92s22 99 22 144c0 33 -6 63 -18 89c-11 27 -31 40 -60 40zM139 392l4 -1c44 67 136 107 229 107c68 0 123 -20 165 -59c43 -39 64 -91 64 -157c0 -90 -29 -161 -87 -214
c-57 -52 -132 -78 -224 -78c-152 0 -237 102 -237 254c0 81 16 165 47 250c31 86 74 147 127 183c22 15 54 26 95 34c42 9 79 14 110 15c32 2 78 4 139 5l14 29c14 1 27 -2 40 -7l-18 -110c-5 -29 -26 -44 -64 -45l-116 -4l-51 -3c-40 -3 -59 -8 -91 -17
c-70 -22 -118 -71 -146 -182z" />
    <glyph glyph-name="afii10067" unicode="&#x432;" horiz-adv-x="609" 
d="M312 470l-30 -164c82 4 123 36 123 96c0 51 -42 77 -93 68zM286 58c28 0 52 11 72 32c21 22 31 48 31 77c0 52 -28 78 -83 78c-12 0 -24 -1 -36 -3l-19 -109c-2 -12 -3 -23 -3 -33c0 -28 13 -42 38 -42zM78 98l65 354h-70c-5 13 -7 27 -6 41c116 31 212 47 287 47
c146 0 219 -41 219 -124c0 -37 -14 -67 -43 -91c-28 -23 -61 -37 -100 -42v-4c76 -7 133 -42 133 -111c0 -65 -43 -116 -106 -141c-61 -25 -124 -37 -184 -37c-35 0 -75 6 -123 19c-48 15 -80 46 -72 89z" />
    <glyph glyph-name="afii10068" unicode="&#x433;" horiz-adv-x="529" 
d="M445 132c16 -17 27 -34 33 -53c-65 -59 -148 -89 -251 -89c-119 0 -200 42 -200 138c4 55 28 87 72 112c17 9 31 16 42 20c11 5 27 11 47 18l41 15c75 29 111 56 111 111c0 44 -28 66 -83 66c-22 0 -48 -4 -77 -11l-24 -91c-10 -2 -20 -3 -29 -3c-10 0 -20 1 -29 3v122
c68 33 139 50 213 50c132 0 198 -43 198 -128c0 -28 -8 -53 -23 -74c-31 -41 -79 -57 -134 -80c-78 -29 -157 -53 -156 -122c0 -43 24 -64 73 -64c29 0 62 7 97 20c36 13 62 27 79 40z" />
    <glyph glyph-name="afii10069" unicode="&#x434;" horiz-adv-x="637" 
d="M347 430c-52 0 -90 -38 -109 -93c-19 -53 -26 -103 -26 -148c0 -49 13 -128 76 -128c52 0 92 38 109 91c19 55 26 101 26 145c0 48 -11 133 -76 133zM280 -10c-70 0 -127 22 -171 65c-43 43 -65 100 -65 169c0 83 28 149 85 200s130 77 217 77c77 0 135 -26 176 -79l4 1
c-15 95 -51 138 -110 156c-21 7 -40 12 -55 13c-15 2 -35 4 -60 5l-54 5c-88 11 -95 37 -97 59l-11 99l12 7c31 -21 91 -33 150 -42c85 -12 193 -37 243 -129c33 -57 50 -132 50 -226c0 -239 -103 -380 -314 -380z" />
    <glyph glyph-name="afii10070" unicode="&#x435;" horiz-adv-x="576" 
d="M221 299l1 -4l119 42c37 13 52 33 52 72s-16 58 -48 58c-65 0 -106 -56 -124 -168zM532 312l-320 -85v-21c0 -73 30 -127 102 -127c29 0 58 7 89 20c31 14 55 29 70 46c17 -13 29 -29 37 -47c-64 -72 -147 -108 -248 -108c-133 0 -218 79 -218 210c0 92 30 172 91 239
s137 101 230 101c51 0 94 -13 128 -40c35 -27 52 -66 52 -118c0 -27 -4 -51 -13 -70z" />
    <glyph glyph-name="afii10072" unicode="&#x436;" horiz-adv-x="947" 
d="M603 540l10 -10l-95 -520l-157 -20l-10 10l95 520zM293 476l99 -224l-174 -202c-37 -43 -112 -65 -224 -65l-10 17l298 337l-25 52c-21 43 -43 64 -66 64c-17 0 -36 -9 -58 -26c-14 9 -23 22 -27 37c60 49 101 74 124 74c28 0 43 -20 63 -64zM678 37l-111 215l175 233
c32 43 45 55 76 55c35 0 75 -22 122 -67c-6 -15 -15 -28 -28 -37c-29 13 -51 20 -65 20c-18 0 -33 -7 -45 -20l-97 -109l123 -232l65 25c9 -11 17 -26 23 -43l-101 -61c-26 -17 -50 -26 -73 -26c-27 0 -48 16 -64 47z" />
    <glyph glyph-name="afii10073" unicode="&#x437;" horiz-adv-x="516" 
d="M31 114c33 -25 95 -46 148 -46c65 0 111 29 111 94c0 51 -24 77 -71 77h-69c-1 22 2 44 9 66h51c60 0 105 30 105 93c0 49 -29 73 -87 73c-22 0 -45 -4 -70 -11l-24 -91c-10 -2 -20 -3 -30 -3c-11 0 -20 1 -29 3v125c58 31 126 46 204 46c32 0 62 -4 91 -11
s55 -21 78 -42s35 -47 35 -79c0 -35 -14 -64 -41 -89c-27 -24 -58 -38 -95 -42v-4c67 -13 112 -53 112 -118c0 -53 -24 -94 -73 -123c-48 -28 -106 -42 -173 -42c-88 0 -172 27 -216 71c5 18 17 36 34 53z" />
    <glyph glyph-name="afii10074" unicode="&#x438;" horiz-adv-x="697" 
d="M645 530l-85 -459l79 10c5 -15 7 -32 6 -49l-167 -39c-13 -3 -24 -4 -32 -4c-42 0 -59 22 -51 66l21 112h-7c-48 -109 -106 -178 -203 -178c-77 0 -123 56 -123 137c0 15 2 33 5 53l53 283h-68c-5 14 -7 30 -7 48l156 28c11 2 22 3 33 3c43 0 61 -22 54 -65l-51 -271
c-4 -20 -6 -38 -6 -53c0 -33 9 -49 27 -49c29 0 64 40 105 119c41 80 67 153 79 219l14 77l158 22z" />
    <glyph glyph-name="afii10075" unicode="&#x439;" horiz-adv-x="697" 
d="M645 530l-85 -459l79 10c5 -15 7 -32 6 -49l-167 -39c-13 -3 -24 -4 -32 -4c-42 0 -59 22 -51 66l21 112h-7c-48 -109 -106 -178 -203 -178c-77 0 -123 56 -123 137c0 15 2 33 5 53l53 283h-68c-5 14 -7 30 -7 48l156 28c11 2 22 3 33 3c43 0 61 -22 54 -65l-51 -271
c-4 -20 -6 -38 -6 -53c0 -33 9 -49 27 -49c29 0 64 40 105 119c41 80 67 153 79 219l14 77l158 22zM256 751c14 2 28 3 41 3s27 -1 42 -3c-7 -44 6 -87 46 -87c44 0 70 38 79 87c28 4 56 4 84 0c-13 -88 -79 -155 -164 -155s-139 62 -128 155z" />
    <glyph glyph-name="afii10076" unicode="&#x43a;" horiz-adv-x="660" 
d="M396 33l-114 232l188 237c21 26 42 39 65 39c31 0 70 -22 118 -67c-8 -16 -17 -28 -28 -37c-25 12 -45 18 -59 18c-13 0 -25 -5 -35 -10c-4 -3 -17 -13 -21 -17l-25 -25l-65 -63l122 -245l62 23c10 -13 17 -27 22 -43l-100 -61c-27 -16 -50 -24 -69 -24
c-26 0 -46 14 -61 43zM314 468l-84 -456l-157 -22l-10 10l85 462h-68c-5 15 -7 31 -7 48l156 28c12 2 23 3 32 3c45 0 62 -24 53 -73z" />
    <glyph glyph-name="afii10077" unicode="&#x43b;" horiz-adv-x="681" 
d="M684 488l-73 -20l-74 -397l78 10c5 -17 8 -33 7 -49l-168 -39c-13 -3 -23 -4 -29 -4c-41 0 -64 27 -55 76l73 394h-130l-21 -90l-14 -60c-3 -14 -9 -33 -16 -58c-13 -49 -22 -71 -42 -112c-19 -41 -35 -62 -62 -90c-37 -39 -88 -59 -153 -59l-5 4v145c15 6 34 10 58 11
l21 -74c57 29 105 132 144 310l18 82l-83 20c-2 13 -1 27 4 42h526c2 -13 1 -27 -4 -42z" />
    <glyph glyph-name="afii10078" unicode="&#x43c;" horiz-adv-x="928" 
d="M932 491l-73 -23l-74 -397l78 10c5 -15 7 -32 6 -49l-167 -39c-10 -3 -20 -4 -31 -4c-43 0 -62 28 -53 76l69 365h-4l-272 -427l-79 -13l-12 8l-33 432h-4l-22 -107c-20 -99 -41 -164 -81 -231c-39 -65 -99 -100 -176 -97l-5 4v145c16 6 35 10 58 11l19 -72
c50 34 91 133 123 297l15 76h-73c-5 15 -6 31 -5 49l222 32c63 9 83 -13 87 -74l16 -237h4l190 292l282 22c2 -17 0 -33 -5 -49z" />
    <glyph glyph-name="afii10079" unicode="&#x43d;" horiz-adv-x="700" 
d="M640 540l11 -10l-86 -459l79 10c5 -17 7 -33 6 -49l-167 -39c-10 -3 -20 -4 -31 -4c-43 0 -62 28 -53 76l32 179h-157l-42 -232l-158 -22l-11 10l86 462h-68c-5 14 -7 30 -7 48l156 28c12 2 23 3 32 3c45 0 62 -24 53 -73l-27 -153h157l37 203z" />
    <glyph glyph-name="afii10080" unicode="&#x43e;" horiz-adv-x="623" 
d="M342 469c-51 0 -87 -39 -106 -95c-17 -56 -24 -106 -24 -153c0 -107 28 -160 84 -160c49 0 86 40 103 96s25 107 25 152c0 33 -3 64 -14 100s-35 60 -68 60zM279 -10c-72 0 -129 22 -172 67c-42 45 -63 103 -63 174c0 89 29 162 87 221c59 59 134 88 226 88
c73 0 131 -22 172 -67c42 -45 63 -102 63 -172c0 -91 -29 -165 -87 -224c-58 -58 -133 -87 -226 -87z" />
    <glyph glyph-name="afii10081" unicode="&#x43f;" horiz-adv-x="697" 
d="M620 348l-52 -277l79 10c5 -16 7 -32 6 -49l-167 -39c-13 -3 -23 -4 -29 -4c-43 0 -65 27 -56 76l48 258c5 23 7 43 7 60c0 29 -8 44 -25 44c-29 0 -64 -42 -107 -125c-42 -83 -69 -159 -82 -230l-11 -60l-157 -22l-11 10l86 462h-68c-5 15 -8 31 -7 48l156 28
c12 2 22 3 31 3c44 0 61 -24 52 -73l-19 -105h6c48 107 107 177 200 177c87 0 125 -59 125 -139c0 -17 -2 -34 -5 -53z" />
    <glyph glyph-name="afii10082" unicode="&#x440;" horiz-adv-x="651" 
d="M254 108l-7 -38c9 -3 19 -4 32 -4c67 0 119 47 144 111s36 126 36 182c0 47 -9 70 -26 70c-33 0 -67 -33 -103 -99s-61 -140 -76 -222zM235 3l-22 -122l78 10c5 -16 8 -32 7 -49l-168 -39c-9 -3 -19 -4 -30 -4c-43 0 -63 27 -54 76l109 587h-68c-5 16 -8 32 -7 48l156 28
c12 2 22 3 31 3c44 0 61 -24 52 -73l-14 -79h6c49 95 98 152 178 152c49 0 84 -18 105 -54s32 -82 32 -137c0 -99 -32 -183 -96 -250c-63 -67 -144 -101 -241 -101c-21 0 -39 1 -54 4z" />
    <glyph glyph-name="afii10083" unicode="&#x441;" horiz-adv-x="555" 
d="M503 98c-66 -72 -146 -108 -241 -108c-135 0 -218 74 -218 202c0 94 32 175 95 244s142 104 235 104c58 0 112 -15 163 -45l-19 -132c-10 -2 -20 -3 -30 -3c-11 0 -20 1 -29 3l-12 97c-18 6 -36 9 -53 9c-135 0 -182 -150 -182 -263c0 -83 32 -125 96 -125
c28 0 57 6 87 19c31 13 54 28 71 45c17 -13 29 -29 37 -47z" />
    <glyph glyph-name="afii10084" unicode="&#x442;" horiz-adv-x="1016" 
d="M939 348l-52 -277l79 10c5 -17 7 -33 6 -49l-167 -39c-13 -3 -23 -4 -30 -4c-45 0 -63 25 -54 76l46 250c5 22 7 43 7 63c0 33 -8 49 -24 49c-27 0 -62 -41 -105 -123c-42 -82 -69 -160 -82 -234l-10 -58l-157 -22l-10 10l60 323c3 19 5 37 5 54c0 33 -8 50 -24 50
c-27 0 -61 -41 -103 -123s-70 -159 -83 -232l-11 -60l-156 -22l-11 10l86 462h-68c-5 15 -8 31 -7 48l156 28c12 2 23 3 32 3c43 0 60 -24 51 -73l-19 -105h6c49 108 107 177 202 177c81 0 117 -58 117 -138c0 -14 -1 -27 -3 -39h6c24 51 45 85 77 121c33 36 76 56 125 56
c83 0 120 -59 120 -140c0 -16 -2 -33 -5 -52z" />
    <glyph glyph-name="afii10085" unicode="&#x443;" horiz-adv-x="579" 
d="M246 -25l-141 431l-61 -30c-12 11 -21 24 -28 41l111 91c25 21 47 32 66 32c31 0 46 -18 62 -69l105 -321h4c27 51 49 107 66 167s26 103 26 130c0 21 -7 45 -22 73c17 15 37 26 60 34c16 -11 31 -27 46 -48c15 -20 23 -37 23 -52c0 -24 -10 -62 -29 -113
s-45 -107 -79 -168s-71 -120 -112 -176s-86 -103 -136 -140c-49 -38 -96 -57 -140 -57c-60 0 -85 28 -104 80c15 19 36 37 62 54c19 -30 39 -45 61 -45c49 0 103 29 160 86z" />
    <glyph glyph-name="afii10086" unicode="&#x444;" horiz-adv-x="909" 
d="M401 391l14 78c-9 3 -19 4 -30 4c-64 0 -114 -43 -139 -104c-24 -60 -35 -123 -35 -183c0 -50 10 -75 29 -75c25 0 55 31 90 92c36 62 60 125 71 188zM521 144l-14 -77c60 -8 112 19 141 60c46 67 64 162 63 233c0 45 -10 68 -29 68c-23 0 -53 -31 -89 -93
c-36 -61 -60 -125 -72 -191zM495 1l-23 -120l79 10c5 -16 7 -32 6 -49l-167 -39c-10 -3 -20 -4 -31 -4c-43 0 -62 28 -53 76l52 267h-6c-50 -95 -108 -142 -175 -142c-47 0 -81 17 -102 50c-21 34 -31 77 -31 128c0 102 31 188 94 257c63 70 142 105 237 105
c21 0 39 -2 53 -5l27 147h-68c-5 15 -7 31 -7 48l156 28c12 2 23 3 32 3c45 0 63 -24 54 -73l-57 -294h6c49 97 107 146 172 146c106 0 135 -102 135 -190c0 -103 -32 -187 -95 -253c-63 -65 -144 -98 -241 -98c-21 0 -37 1 -47 2z" />
    <glyph glyph-name="afii10087" unicode="&#x445;" horiz-adv-x="614" 
d="M246 235l-93 185l-60 -33c-13 9 -23 23 -30 40l98 84c22 19 45 29 68 29c41 0 53 -17 80 -69l49 -98c83 111 136 167 160 167c13 0 31 -7 54 -20s42 -27 56 -40c-7 -15 -17 -27 -28 -37c-11 7 -22 11 -34 11c-25 0 -54 -15 -87 -44s-63 -62 -90 -99l106 -211l67 40
c13 -12 23 -26 28 -41l-107 -88c-17 -14 -38 -21 -64 -21c-33 0 -58 18 -76 53l-67 130c-87 -122 -148 -183 -184 -183c-28 0 -78 28 -107 65c5 14 14 27 26 39c15 -12 29 -18 43 -18c27 0 60 18 98 54c39 37 70 72 94 105z" />
    <glyph glyph-name="afii10088" unicode="&#x446;" horiz-adv-x="705" 
d="M637 540l10 -10l-85 -459l94 12c24 3 36 -6 36 -28c0 -18 -10 -49 -30 -93c-19 -44 -37 -80 -53 -107c-11 -2 -22 -3 -33 -3c-10 0 -20 1 -31 3l28 156l-3 3l-90 -21c-13 -3 -23 -4 -29 -4c-41 0 -62 25 -53 76l19 104h-6c-49 -112 -105 -180 -200 -180
c-89 0 -127 55 -127 134c0 18 2 37 6 56l53 283h-68c-5 14 -8 30 -7 48l156 28c12 2 23 3 33 3c45 0 62 -24 53 -73l-50 -263c-5 -23 -7 -43 -7 -59c0 -29 9 -43 27 -43c28 0 62 39 103 116c41 78 69 157 84 237l12 62z" />
    <glyph glyph-name="afii10089" unicode="&#x447;" horiz-adv-x="676" 
d="M628 530l-86 -459l79 10c5 -17 7 -33 6 -49l-167 -39c-13 -3 -23 -4 -29 -4c-41 0 -64 25 -55 76l35 186h-4c-50 -62 -112 -93 -185 -93c-84 0 -126 47 -126 140c0 18 2 41 7 69l17 95h-68c-6 14 -8 30 -7 48l156 28c11 2 22 3 31 3c46 0 64 -24 55 -73l-13 -70
c-7 -35 -10 -60 -10 -75c0 -38 15 -57 46 -57c60 0 112 51 128 138l21 114l158 22z" />
    <glyph glyph-name="afii10090" unicode="&#x448;" horiz-adv-x="1018" 
d="M968 530l-85 -459l78 10c5 -17 7 -33 6 -49l-167 -39c-13 -3 -23 -4 -29 -4c-40 0 -61 25 -52 76l19 103h-7c-51 -119 -118 -179 -201 -179c-81 0 -119 57 -119 138c0 13 1 27 3 41h-7c-52 -119 -119 -179 -202 -179s-118 58 -118 138c0 16 2 33 5 52l51 283h-68
c-5 13 -8 29 -7 48l156 28c12 2 23 3 32 3c45 0 63 -24 54 -73l-48 -263c-4 -20 -6 -39 -6 -58c0 -29 8 -44 24 -44c23 0 56 37 97 112c42 75 70 150 84 226l14 77l159 22l10 -10l-59 -318c-5 -25 -8 -48 -8 -67c0 -28 8 -42 23 -42c16 0 37 17 62 50s50 77 73 130
c24 54 41 107 50 158l14 77l159 22z" />
    <glyph glyph-name="afii10091" unicode="&#x449;" horiz-adv-x="1026" 
d="M958 540l10 -10l-85 -459l93 12c25 3 37 -6 37 -28c0 -18 -9 -48 -28 -91s-37 -79 -55 -110c-11 -2 -22 -3 -33 -3s-21 1 -32 3l29 157l-3 3l-91 -21c-57 -13 -93 11 -81 72l19 103h-7c-51 -119 -118 -179 -201 -179c-81 0 -119 57 -119 138c0 13 1 27 3 41h-7
c-52 -119 -119 -179 -202 -179s-118 58 -118 138c0 16 2 33 5 52l51 283h-68c-5 14 -8 30 -7 48l156 28c12 2 23 3 32 3c45 0 63 -24 54 -73l-48 -263c-5 -28 -7 -48 -7 -59c0 -29 8 -43 23 -43c25 0 59 37 100 111s69 150 83 227l14 77l159 22l10 -10l-59 -318
c-5 -34 -8 -56 -8 -66c0 -57 36 -59 85 6c25 33 50 77 73 130c24 54 41 107 50 159l14 77z" />
    <glyph glyph-name="afii10092" unicode="&#x44a;" horiz-adv-x="671" 
d="M351 60c37 0 66 14 89 42s35 61 35 99c0 41 -20 61 -60 61c-22 0 -42 -4 -59 -12l-28 -151c-5 -26 2 -39 23 -39zM158 80l70 379h-100l-33 -72c-20 -4 -40 -4 -59 0l22 143h416c1 -15 -1 -29 -6 -42l-72 -20l-26 -145c35 7 70 11 104 11c49 0 89 -9 121 -27
c32 -17 48 -47 48 -89s-11 -79 -34 -110c-70 -91 -205 -115 -316 -118c-27 0 -39 -1 -71 6c-42 8 -71 31 -64 84z" />
    <glyph glyph-name="afii10093" unicode="&#x44b;" horiz-adv-x="912" 
d="M614 65l83 453l158 22l11 -10l-86 -459l79 10c5 -17 7 -33 6 -49l-167 -39c-10 -3 -20 -4 -31 -4c-43 0 -62 28 -53 76zM275 60c37 0 66 14 89 42s35 61 35 99c0 41 -20 61 -60 61c-22 0 -42 -4 -59 -12l-28 -151c-5 -26 2 -39 23 -39zM320 467l-26 -144
c35 7 70 11 104 11c49 0 89 -9 121 -27c32 -17 48 -47 48 -89s-11 -79 -34 -110c-70 -91 -205 -115 -316 -118c-35 0 -53 2 -89 11c-35 11 -53 38 -45 79l70 382h-68c-5 14 -8 30 -7 48l156 28c12 2 23 3 32 3c45 0 63 -25 54 -74z" />
    <glyph glyph-name="afii10094" unicode="&#x44c;" horiz-adv-x="594" 
d="M275 60c37 0 66 14 89 42s35 61 35 99c0 41 -20 61 -60 61c-22 0 -42 -4 -59 -12l-28 -151c-5 -26 2 -39 23 -39zM320 467l-26 -144c35 7 70 11 104 11c49 0 89 -9 121 -27c32 -17 48 -47 48 -89s-11 -79 -34 -110c-70 -91 -205 -115 -316 -118c-35 0 -53 2 -89 11
c-35 11 -53 38 -45 79l70 382h-68c-5 14 -8 30 -7 48l156 28c12 2 23 3 32 3c45 0 63 -25 54 -74z" />
    <glyph glyph-name="afii10095" unicode="&#x44d;" horiz-adv-x="540" 
d="M9 48c3 18 12 36 26 53c41 -17 80 -25 115 -25c99 0 170 61 187 164l-205 -5c-3 25 0 50 9 76l201 -6c-1 45 -13 84 -34 116s-53 48 -95 48c-19 0 -38 -3 -57 -8l-24 -91c-10 -2 -20 -3 -29 -3c-10 0 -20 1 -29 3v124c63 31 127 46 191 46c73 0 131 -23 176 -70
c45 -46 68 -104 68 -174c0 -91 -30 -165 -91 -222c-60 -56 -135 -84 -224 -84c-73 0 -134 19 -185 58z" />
    <glyph glyph-name="afii10096" unicode="&#x44e;" horiz-adv-x="924" 
d="M653 469c-47 0 -82 -41 -98 -98c-15 -57 -21 -107 -21 -154c0 -31 3 -59 12 -96c9 -36 31 -60 63 -60c45 0 79 40 94 96c16 56 22 107 22 152c0 107 -24 160 -72 160zM368 246h-94l-42 -234l-158 -22l-11 10l86 462h-68c-5 14 -8 30 -7 48l156 28c12 2 23 3 32 3
c45 0 62 -24 53 -73l-27 -151h91c17 66 52 120 104 161s113 62 184 62s126 -22 166 -67s60 -103 60 -174c0 -89 -28 -163 -85 -222c-56 -58 -128 -87 -215 -87c-69 0 -124 22 -165 67s-61 103 -61 173c0 6 0 11 1 16z" />
    <glyph glyph-name="afii10097" unicode="&#x44f;" horiz-adv-x="662" 
d="M377 286h22l35 184h-24c-87 0 -131 -35 -131 -104c0 -53 33 -80 98 -80zM611 530l-85 -459l78 10c5 -17 7 -33 6 -49l-167 -39c-10 -3 -20 -4 -29 -4c-41 0 -64 27 -55 74l30 166c-14 0 -17 -10 -50 -48l-103 -117c-57 -65 -122 -79 -206 -79h-36l-9 14l159 182
c27 32 65 49 113 52v4c-83 5 -145 62 -145 139c0 61 37 108 90 131c55 23 111 33 168 33c43 0 84 -5 123 -14l108 14z" />
    <glyph glyph-name="afii10071" unicode="&#x451;" horiz-adv-x="579" 
d="M221 299l1 -4l119 42c37 13 52 33 52 72s-16 58 -48 58c-65 0 -106 -56 -124 -168zM532 312l-320 -85v-21c0 -73 30 -127 102 -127c29 0 58 7 89 20c31 14 55 29 70 46c17 -13 29 -29 37 -47c-64 -72 -147 -108 -248 -108c-133 0 -218 79 -218 210c0 92 30 172 91 239
s137 101 230 101c51 0 94 -13 128 -40c35 -27 52 -66 52 -118c0 -27 -4 -51 -13 -70zM286 625c-21 -4 -41 -6 -62 -6c-16 0 -35 1 -56 4c-1 41 5 83 18 127c24 5 50 7 78 7c11 0 26 -1 46 -2c-1 -49 -9 -93 -24 -130zM524 625c-21 -4 -41 -6 -62 -6c-16 0 -35 1 -56 4
c-1 41 5 83 18 127c24 5 50 7 78 7c11 0 26 -1 46 -2c-1 -49 -9 -93 -24 -130z" />
    <glyph glyph-name="afii10099" unicode="&#x452;" horiz-adv-x="658" 
d="M76 -10l-11 10l106 575h-65c-1 11 1 23 6 35l70 24l9 48h-68c-5 14 -8 30 -7 48l156 27c12 2 23 3 32 3c45 0 62 -24 53 -72l-10 -54h118c-1 -21 -5 -41 -12 -59h-116l-40 -213h4c51 101 113 151 184 151c83 0 125 -63 125 -190c0 -59 -7 -120 -21 -183
c-13 -62 -37 -122 -71 -180c-33 -58 -74 -97 -122 -118c-59 -26 -124 -39 -194 -39c-5 13 -8 25 -7 38c55 15 103 49 142 102c80 107 112 241 112 377c0 55 -9 82 -27 82c-20 0 -43 -19 -68 -56s-48 -80 -68 -131c-19 -51 -33 -98 -41 -141l-12 -62z" />
    <glyph glyph-name="afii10100" unicode="&#x453;" horiz-adv-x="529" 
d="M445 132c16 -17 27 -34 33 -53c-65 -59 -148 -89 -251 -89c-119 0 -200 42 -200 138c4 55 28 87 72 112c17 9 31 16 42 20c11 5 27 11 47 18l41 15c75 29 111 56 111 111c0 44 -28 66 -83 66c-22 0 -48 -4 -77 -11l-24 -91c-10 -2 -20 -3 -29 -3c-10 0 -20 1 -29 3v122
c68 33 139 50 213 50c132 0 198 -43 198 -128c0 -28 -8 -53 -23 -74c-31 -41 -79 -57 -134 -80c-78 -29 -157 -53 -156 -122c0 -43 24 -64 73 -64c29 0 62 7 97 20c36 13 62 27 79 40zM268 626l146 166c27 -19 49 -42 66 -68l-170 -141c-16 11 -30 25 -42 43z" />
    <glyph glyph-name="afii10101" unicode="&#x454;" horiz-adv-x="552" 
d="M503 98c-66 -72 -146 -108 -241 -108c-135 0 -218 74 -218 202c0 94 32 175 95 244s142 104 235 104c58 0 112 -15 163 -45l-19 -125c-10 -2 -20 -3 -30 -3c-11 0 -20 1 -29 3l-12 90c-18 6 -36 9 -53 9c-91 0 -147 -69 -171 -165l208 6c2 -26 -1 -51 -10 -75l-208 6
c-1 -8 -1 -20 -1 -35c0 -83 32 -125 96 -125c28 0 57 6 87 19c31 13 54 28 71 45c17 -13 29 -29 37 -47z" />
    <glyph glyph-name="afii10102" unicode="&#x455;" horiz-adv-x="557" 
d="M118 190l13 -105c26 -16 60 -24 102 -24c59 0 103 21 103 68c0 31 -37 53 -84 70c-65 25 -153 67 -152 176c0 126 120 165 222 165c76 0 143 -17 202 -51l-17 -126c-9 -2 -18 -3 -29 -3s-21 1 -30 3l-13 83c-27 15 -62 23 -105 23c-54 0 -81 -18 -81 -55
c0 -35 38 -60 85 -80c69 -27 157 -64 157 -166c0 -41 -13 -75 -40 -103c-53 -56 -126 -75 -205 -75c-83 0 -152 21 -209 62l19 138c10 2 20 3 31 3c10 0 20 -1 31 -3z" />
    <glyph glyph-name="afii10103" unicode="&#x456;" horiz-adv-x="377" 
d="M318 629c-24 -4 -49 -6 -74 -6c-19 0 -37 1 -56 3c0 45 7 92 21 141c27 5 56 7 85 7c12 0 29 -1 52 -2c-2 -51 -11 -99 -28 -143zM320 468l-73 -397l78 10c5 -17 8 -33 7 -49l-168 -39c-13 -3 -23 -4 -29 -4c-41 0 -64 27 -55 76l74 397h-69c-5 15 -7 31 -6 48l156 28
c11 2 20 3 29 3c46 0 65 -24 56 -73z" />
    <glyph glyph-name="afii10104" unicode="&#x457;" horiz-adv-x="377" 
d="M313 468l-73 -397l78 10c5 -17 8 -33 7 -49l-168 -39c-13 -3 -23 -4 -29 -4c-41 0 -64 27 -55 76l74 397h-69c-5 15 -7 31 -6 48l156 28c11 2 20 3 29 3c46 0 65 -24 56 -73zM174 625c-21 -4 -41 -6 -62 -6c-16 0 -35 1 -56 4c-1 41 5 83 18 127c24 5 50 7 78 7
c11 0 26 -1 46 -2c-1 -49 -9 -93 -24 -130zM412 625c-21 -4 -42 -6 -62 -6c-16 0 -35 1 -56 4c-1 41 5 83 18 127c24 5 50 7 78 7c11 0 26 -1 46 -2c-1 -49 -9 -93 -24 -130z" />
    <glyph glyph-name="afii10105" unicode="&#x458;" horiz-adv-x="366" 
d="M68 24l81 438h-68c-5 16 -8 32 -7 48l156 28c12 2 23 3 32 3c45 0 62 -24 53 -73l-91 -485c-21 -119 -115 -172 -268 -185c-7 14 -12 29 -13 44c77 24 106 78 125 182zM313 629c-24 -4 -49 -6 -74 -6c-18 0 -37 1 -56 3c0 45 7 92 21 141c27 5 56 7 85 7
c12 0 29 -1 52 -2c-2 -51 -11 -99 -28 -143z" />
    <glyph glyph-name="afii10106" unicode="&#x459;" horiz-adv-x="886" 
d="M374 81l69 378h-130l-13 -60c-7 -33 -14 -60 -19 -81s-12 -47 -22 -79c-9 -31 -19 -57 -29 -78c-19 -41 -51 -96 -86 -124c-33 -27 -83 -47 -139 -47l-5 4v145c16 6 35 10 58 11l21 -74c57 29 106 139 148 328l14 64l-83 20c-2 13 -1 27 4 42h526c2 -14 1 -28 -4 -42
l-72 -20l-27 -145c37 8 74 12 109 12c95 0 164 -33 164 -118c0 -81 -49 -145 -122 -178c-72 -33 -149 -49 -228 -49c-31 0 -48 0 -77 7c-38 9 -67 32 -57 84zM566 60c37 0 66 14 89 42s35 61 35 99c0 41 -20 61 -60 61c-22 0 -42 -4 -59 -12l-28 -151c-5 -26 2 -39 23 -39z
" />
    <glyph glyph-name="afii10107" unicode="&#x45a;" horiz-adv-x="901" 
d="M580 60c37 0 67 14 90 42s35 61 35 99c0 41 -20 61 -60 61c-22 0 -42 -4 -59 -12l-28 -151c-5 -26 2 -39 22 -39zM387 75l31 169h-144l-43 -232l-156 -22l-11 12l85 460h-68c-5 14 -8 30 -7 48l156 28c12 2 23 3 32 3c45 0 62 -24 53 -73l-29 -153h146l37 203l156 22
l12 -12l-37 -205c34 7 70 11 108 11c93 0 165 -34 165 -117c0 -176 -210 -227 -350 -227c-29 0 -44 0 -75 7c-40 7 -69 28 -61 78z" />
    <glyph glyph-name="afii10108" unicode="&#x45b;" horiz-adv-x="699" 
d="M616 319l-46 -248l79 10c5 -17 7 -33 6 -49l-167 -39c-10 -3 -20 -4 -31 -4c-43 0 -62 28 -53 76l42 227c4 22 6 41 6 58c0 33 -8 50 -25 50c-31 0 -65 -35 -103 -106c-38 -70 -64 -143 -79 -220l-12 -62l-157 -22l-11 10l106 575h-65c-1 13 1 24 6 35l70 24l9 48h-68
c-5 14 -8 30 -7 48l156 27c12 2 23 3 32 3c45 0 62 -24 53 -72l-10 -54h118c-1 -21 -5 -41 -12 -59h-116l-40 -213h4c55 100 107 151 195 151c85 0 124 -63 124 -146c0 -18 -1 -34 -4 -48z" />
    <glyph glyph-name="afii10109" unicode="&#x45c;" horiz-adv-x="660" 
d="M396 33l-114 232l188 237c21 26 42 39 65 39c31 0 70 -22 118 -67c-8 -16 -17 -28 -28 -37c-25 12 -45 18 -59 18c-13 0 -25 -5 -35 -10c-4 -3 -17 -13 -21 -17l-25 -25l-65 -63l122 -245l62 23c10 -13 17 -27 22 -43l-100 -61c-27 -16 -50 -24 -69 -24
c-26 0 -46 14 -61 43zM314 468l-84 -456l-157 -22l-10 10l85 462h-68c-5 15 -7 31 -7 48l156 28c12 2 23 3 32 3c45 0 62 -24 53 -73zM330 626l146 166c27 -19 49 -42 66 -68l-170 -141c-16 11 -30 25 -42 43z" />
    <glyph glyph-name="afii10110" unicode="&#x45e;" horiz-adv-x="579" 
d="M246 -25l-141 431l-61 -30c-12 11 -21 24 -28 41l111 91c25 21 47 32 66 32c31 0 46 -18 62 -69l105 -321h4c27 51 49 107 66 167s26 103 26 130c0 21 -7 45 -22 73c17 15 37 26 60 34c16 -11 31 -27 46 -48c15 -20 23 -37 23 -52c0 -24 -10 -62 -29 -113
s-45 -107 -79 -168s-71 -120 -112 -176s-86 -103 -136 -140c-49 -38 -96 -57 -140 -57c-60 0 -85 28 -104 80c15 19 36 37 62 54c19 -30 39 -45 61 -45c49 0 103 29 160 86zM195 751c14 2 28 3 41 3s27 -1 42 -3c-7 -44 6 -87 46 -87c44 0 70 38 79 87c28 4 56 4 84 0
c-13 -88 -79 -155 -164 -155s-139 62 -128 155z" />
    <glyph glyph-name="afii10193" unicode="&#x45f;" horiz-adv-x="697" 
d="M218 -231l34 176l107 9l7 -8c-5 -23 -16 -52 -33 -87c-17 -36 -32 -63 -45 -81c-19 -7 -43 -10 -70 -9zM645 530l-85 -459l79 10c5 -15 7 -32 6 -49l-167 -39c-13 -3 -24 -4 -32 -4c-42 0 -59 22 -51 66l21 112h-7c-48 -109 -106 -178 -203 -178c-77 0 -123 56 -123 137
c0 15 2 33 5 53l53 283h-68c-5 14 -7 30 -7 48l156 28c11 2 22 3 33 3c43 0 61 -22 54 -65l-51 -271c-4 -20 -6 -38 -6 -53c0 -33 9 -49 27 -49c29 0 64 40 105 119c41 80 67 153 79 219l14 77l158 22z" />
    <glyph glyph-name="afii10050" unicode="&#x490;" horiz-adv-x="629" 
d="M672 649l-6 -5h-292l-104 -577l84 -25c2 -13 0 -27 -5 -42h-337c-2 14 -1 28 4 42l84 25l106 586l-82 25c-2 14 -1 28 4 42h460l53 111c10 2 20 3 31 3c10 0 20 -1 30 -3z" />
    <glyph glyph-name="afii10098" unicode="&#x491;" horiz-adv-x="509" 
d="M84 530h370l37 83c10 2 20 3 30 3c9 0 19 -1 29 -3l-21 -149l-6 -5h-209l-83 -447l-157 -22l-11 10l86 468l-68 20c-3 13 -2 27 3 42z" />
    <glyph glyph-name="endash" unicode="&#x2013;" horiz-adv-x="555" 
d="M497 258h-434c0 29 4 55 11 77h434c1 -25 -3 -51 -11 -77z" />
    <glyph glyph-name="emdash" unicode="&#x2014;" horiz-adv-x="1000" 
d="M945 258h-879c-1 29 2 54 11 77h879c1 -27 -2 -53 -11 -77z" />
    <glyph glyph-name="quoteleft" unicode="&#x2018;" horiz-adv-x="301" 
d="M348 728c-66 -69 -101 -166 -105 -289c-22 -3 -44 -5 -65 -5c-23 0 -44 2 -64 5c8 161 70 261 195 324c15 -7 28 -19 39 -35z" />
    <glyph glyph-name="quoteright" unicode="&#x2019;" horiz-adv-x="301" 
d="M80 466c66 69 101 166 105 289c22 3 44 5 65 5c23 0 44 -2 64 -5c-8 -161 -70 -261 -195 -324c-15 7 -28 19 -39 35z" />
    <glyph glyph-name="quotesinglbase" unicode="&#x201a;" horiz-adv-x="301" 
d="M-20 -138c66 69 101 166 105 289c22 3 44 5 65 5c23 0 44 -2 64 -5c-8 -161 -70 -261 -195 -324c-15 7 -28 19 -39 35z" />
    <glyph glyph-name="quotedblleft" unicode="&#x201c;" horiz-adv-x="509" 
d="M324 728c-66 -69 -101 -166 -105 -289c-22 -3 -44 -5 -65 -5c-23 0 -44 2 -64 5c8 161 70 261 195 324c15 -7 28 -19 39 -35zM556 728c-66 -69 -101 -166 -105 -289c-22 -3 -44 -5 -65 -5c-23 0 -44 2 -64 5c8 161 70 261 195 324c15 -7 28 -19 39 -35z" />
    <glyph glyph-name="quotedblright" unicode="&#x201d;" horiz-adv-x="533" 
d="M80 466c66 69 101 166 105 289c22 3 44 5 65 5c23 0 44 -2 64 -5c-8 -161 -70 -261 -195 -324c-15 7 -28 19 -39 35zM311 466c66 69 101 166 105 289c22 3 44 5 65 5c23 0 44 -2 64 -5c-8 -161 -70 -261 -195 -324c-15 7 -28 19 -39 35z" />
    <glyph glyph-name="quotedblbase" unicode="&#x201e;" horiz-adv-x="533" 
d="M-20 -138c66 69 101 166 105 289c22 3 44 5 65 5c23 0 44 -2 64 -5c-8 -161 -70 -261 -195 -324c-15 7 -28 19 -39 35zM211 -138c66 69 101 166 105 289c22 3 44 5 65 5c23 0 44 -2 64 -5c-8 -161 -70 -261 -195 -324c-15 7 -28 19 -39 35z" />
    <glyph glyph-name="dagger" unicode="&#x2020;" horiz-adv-x="526" 
d="M148 -70l115 520l-188 -13c1 32 7 63 18 94l184 -13l24 202c15 2 31 3 48 3c16 0 32 -1 48 -3l-52 -202l188 13c-2 -37 -8 -68 -18 -94l-184 13l-86 -520c-16 -2 -32 -3 -48 -3c-18 0 -34 1 -49 3z" />
    <glyph glyph-name="daggerdbl" unicode="&#x2021;" horiz-adv-x="606" 
d="M256 201l48 248l-197 -13c1 31 7 62 18 94l197 -13l24 203c32 4 64 4 96 0l-53 -203l202 13c-2 -31 -8 -63 -18 -94l-193 13l-49 -248l198 13c-1 -32 -7 -63 -18 -94l-197 13l-24 -203c-32 -4 -66 -4 -97 0l53 203l-200 -13c2 32 8 63 17 94z" />
    <glyph glyph-name="bullet" unicode="&#x2022;" horiz-adv-x="403" 
d="M217 444c95 0 155 -59 155 -155s-60 -155 -155 -155c-96 0 -155 59 -155 155s59 155 155 155z" />
    <glyph glyph-name="ellipsis" unicode="&#x2026;" horiz-adv-x="1000" 
d="M187 3c-26 -4 -53 -6 -81 -6c-22 0 -42 1 -60 3c1 50 9 101 24 154c28 5 59 7 92 7c15 0 33 -1 56 -2c-3 -58 -14 -110 -31 -156zM547 3c-26 -4 -53 -6 -81 -6c-22 0 -42 1 -60 3c1 50 9 101 24 154c28 5 59 7 92 7c15 0 33 -1 56 -2c-3 -58 -14 -110 -31 -156zM907 3
c-26 -4 -53 -6 -81 -6c-22 0 -42 1 -60 3c1 50 9 101 24 154c28 5 59 7 92 7c15 0 33 -1 56 -2c-3 -58 -14 -110 -31 -156z" />
    <glyph glyph-name="perthousand" unicode="&#x2030;" horiz-adv-x="1311" 
d="M186 0l528 730c23 -12 41 -25 56 -40l-526 -731c-21 9 -40 22 -58 41zM293 710c95 0 144 -60 144 -151c3 -127 -74 -259 -217 -259c-88 0 -142 68 -142 159c0 67 18 126 55 176s91 75 160 75zM280 661c-28 0 -50 -37 -61 -88c-9 -51 -13 -95 -13 -131
c0 -61 10 -91 31 -91c28 0 50 38 59 89c11 52 15 99 15 136c0 57 -10 85 -31 85zM743 400c95 0 144 -60 144 -151c3 -127 -74 -259 -217 -259c-88 0 -142 68 -142 159c0 67 18 126 55 176s91 75 160 75zM730 351c-28 0 -50 -37 -61 -88c-9 -51 -13 -95 -13 -131
c0 -61 10 -91 31 -91c28 0 50 38 59 89c11 52 15 99 15 136c0 57 -10 85 -31 85zM1152 400c95 0 144 -60 144 -151c3 -127 -74 -259 -217 -259c-88 0 -142 68 -142 159c0 67 18 126 55 176s91 75 160 75zM1139 351c-28 0 -50 -37 -61 -88c-9 -51 -13 -95 -13 -131
c0 -61 10 -91 31 -91c28 0 50 38 59 89c11 52 15 99 15 136c0 57 -10 85 -31 85z" />
    <glyph glyph-name="guilsinglleft" unicode="&#x2039;" horiz-adv-x="386" 
d="M63 272v4l238 215c19 -12 35 -26 49 -42l-153 -176l115 -190c-15 -15 -32 -28 -51 -38z" />
    <glyph glyph-name="guilsinglright" unicode="&#x203a;" horiz-adv-x="386" 
d="M330 266v-4l-237 -215c-19 9 -36 23 -50 42l154 176l-116 190c15 16 32 29 52 38z" />
    <glyph glyph-name="fraction" unicode="&#x2044;" horiz-adv-x="188" 
d="M-190 0l541 730c22 -11 41 -25 56 -43l-541 -730c-23 9 -41 24 -56 43z" />
    <glyph glyph-name="zero.superior" unicode="&#x2070;" 
d="M265 824c-31 0 -53 -36 -64 -88c-9 -51 -13 -95 -13 -139c0 -55 11 -83 33 -83c29 0 52 37 61 89c11 52 15 100 15 141c0 53 -11 80 -32 80zM277 873c97 0 147 -59 147 -151c0 -67 -20 -127 -60 -180c-39 -53 -92 -79 -158 -79c-93 0 -146 65 -146 158
c0 67 19 125 58 176s92 76 159 76z" />
    <glyph glyph-name="four.superior" unicode="&#x2074;" 
d="M136 506l74 13l9 52h-176l3 24l257 278h97l-47 -253h55l-9 -49h-56l-9 -52l52 -13l-4 -36h-250zM139 623l1 -3h89l22 119h-5z" />
    <glyph glyph-name="five.superior" unicode="&#x2075;" 
d="M67 506l12 94h41l22 -76c17 -8 34 -12 49 -12c47 0 81 31 81 84c0 45 -28 67 -84 67c-13 0 -37 -3 -71 -8l-8 6l36 198l11 7h262l-14 -104h-225l-12 -58c25 3 50 5 75 5c88 0 157 -28 157 -101c0 -47 -19 -83 -57 -108c-37 -25 -82 -37 -133 -37c-57 0 -104 14 -142 43z
" />
    <glyph glyph-name="six.superior" unicode="&#x2076;" 
d="M250 683c-27 0 -42 -44 -42 -100c0 -47 9 -71 26 -71c29 0 43 46 43 102c0 46 -9 69 -27 69zM228 724l3 -2c16 7 34 11 53 11c72 0 120 -50 120 -118c0 -95 -72 -152 -171 -152c-95 0 -149 54 -149 146c0 74 25 136 76 187s114 77 189 77c27 0 52 -3 75 -8l-14 -49
c-15 3 -28 5 -41 5c-63 0 -121 -38 -141 -97z" />
    <glyph glyph-name="seven.superior" unicode="&#x2077;" 
d="M111 720l16 146h298l-5 -34l-253 -371l-63 46l213 252l-2 3h-142l-21 -42h-41z" />
    <glyph glyph-name="eight.superior" unicode="&#x2078;" 
d="M66 566c0 44 34 81 75 98v4c-27 25 -41 53 -41 84c0 39 17 69 50 90s73 31 119 31c76 0 140 -35 140 -98c0 -41 -25 -72 -74 -95v-4c40 -29 60 -61 60 -94c0 -37 -18 -66 -55 -87c-36 -21 -78 -32 -125 -32c-41 0 -77 9 -106 27s-43 43 -43 76zM267 553c0 7 -6 19 -16 27
c-4 5 -18 16 -25 20c-5 5 -24 19 -31 24c-14 -18 -21 -37 -21 -58c0 -31 17 -54 49 -54c25 0 44 16 44 41zM220 788c0 -29 19 -48 60 -76c13 16 19 37 19 64c0 33 -14 50 -42 50c-24 0 -37 -17 -37 -38z" />
    <glyph glyph-name="nine.superior" unicode="&#x2079;" 
d="M255 824c-26 0 -39 -32 -39 -97c0 -46 9 -69 26 -69c15 0 25 10 31 31s9 42 9 63c0 48 -9 72 -27 72zM71 472l12 50c16 -5 32 -7 49 -7c64 0 109 35 135 106l-3 2c-15 -7 -32 -10 -51 -10c-71 0 -120 45 -120 116c0 88 65 144 166 144c97 0 148 -55 148 -148
c0 -77 -26 -140 -77 -189s-114 -73 -191 -73c-23 0 -46 3 -68 9z" />
    <glyph glyph-name="n.superior" unicode="&#x207f;" horiz-adv-x="478" 
d="M448 541l-32 -177l50 3l4 -39l-114 -25c-44 -11 -69 6 -62 43l30 172c4 20 6 37 6 51c0 17 -4 26 -12 26c-15 0 -36 -27 -65 -80c-28 -53 -46 -105 -54 -156l-6 -39l-114 -19l-8 7l56 299h-47l-4 40l110 19c51 9 68 -13 63 -46l-9 -49h4c35 65 76 97 124 97
c57 0 83 -40 83 -95c0 -11 -1 -22 -3 -32z" />
    <glyph glyph-name="zero.inferior" unicode="&#x2080;" 
d="M209 217c-31 0 -53 -36 -64 -88c-9 -51 -13 -95 -13 -139c0 -55 11 -83 33 -83c29 0 52 37 61 89c11 52 15 100 15 141c0 53 -11 80 -32 80zM221 266c97 0 147 -59 147 -151c0 -67 -20 -127 -60 -180c-39 -53 -92 -79 -158 -79c-93 0 -146 65 -146 158
c0 67 19 125 58 176s92 76 159 76z" />
    <glyph glyph-name="one.inferior" unicode="&#x2081;" 
d="M282 215l-57 -303l74 -13l-4 -36h-271l4 36l73 13l52 280h-84l-3 35l154 37c45 11 70 -8 62 -49z" />
    <glyph glyph-name="two.inferior" unicode="&#x2082;" 
d="M151 -29v-4h173l-14 -104h-313l6 45l133 112c52 44 77 75 77 130c0 49 -34 76 -81 60l-32 -95h-41v108c41 29 86 43 135 43c80 0 144 -42 144 -115c0 -35 -9 -59 -37 -83c-13 -12 -25 -21 -35 -28l-47 -29z" />
    <glyph glyph-name="three.inferior" unicode="&#x2083;" 
d="M79 140h-41v91c39 23 86 35 139 35c37 0 70 -8 99 -23s43 -40 43 -73c0 -53 -43 -88 -104 -96v-4c51 -4 93 -36 93 -84c0 -43 -19 -76 -57 -97c-38 -22 -81 -33 -129 -33c-55 0 -102 15 -141 45l12 100h41l15 -80c19 -9 38 -14 58 -14c45 0 72 31 72 78
c0 39 -20 59 -61 59h-40l5 47h35c48 0 75 27 75 72c0 36 -23 53 -55 53c-13 0 -25 -3 -38 -8z" />
    <glyph glyph-name="four.inferior" unicode="&#x2084;" 
d="M64 -101l74 13l9 52h-176l3 24l257 278h97l-47 -253h55l-9 -49h-56l-9 -52l52 -13l-4 -36h-250zM67 16l1 -3h89l22 119h-5z" />
    <glyph glyph-name="five.inferior" unicode="&#x2085;" 
d="M-11 -101l12 94h41l22 -76c17 -8 34 -12 49 -12c47 0 81 31 81 84c0 45 -28 67 -84 67c-13 0 -37 -3 -71 -8l-8 6l36 198l11 7h262l-14 -104h-225l-12 -58c25 3 50 5 75 5c88 0 157 -28 157 -101c0 -47 -19 -82 -57 -107c-37 -25 -82 -38 -133 -38c-57 0 -104 14 -142 43
z" />
    <glyph glyph-name="six.inferior" unicode="&#x2086;" 
d="M184 76c-27 0 -42 -44 -42 -100c0 -47 9 -71 26 -71c29 0 43 46 43 102c0 46 -9 69 -27 69zM162 117l3 -2c16 7 34 11 53 11c72 0 120 -50 120 -118c0 -95 -72 -152 -171 -152c-95 0 -149 54 -149 146c0 74 25 136 76 187s114 77 189 77c27 0 52 -3 75 -8l-14 -49
c-15 3 -28 5 -41 5c-63 0 -121 -38 -141 -97z" />
    <glyph glyph-name="seven.inferior" unicode="&#x2087;" 
d="M38 113l16 146h298l-5 -34l-253 -371l-63 46l213 252l-2 3h-142l-21 -42h-41z" />
    <glyph glyph-name="eight.inferior" unicode="&#x2088;" 
d="M19 -41c0 44 34 81 75 98v4c-27 25 -41 53 -41 84c0 39 17 69 50 90s73 31 119 31c76 0 140 -35 140 -98c0 -41 -25 -72 -74 -95v-4c40 -29 60 -61 60 -94c0 -37 -18 -66 -55 -87c-36 -21 -78 -32 -125 -32c-41 0 -77 9 -106 27s-43 43 -43 76zM220 -54c0 8 -6 18 -16 28
c-4 4 -18 15 -25 20l-31 23c-14 -18 -21 -37 -21 -58c0 -31 17 -54 49 -54c25 0 44 16 44 41zM173 181c0 -29 19 -48 60 -76c13 16 19 37 19 64c0 33 -14 50 -42 50c-24 0 -37 -17 -37 -38z" />
    <glyph glyph-name="nine.inferior" unicode="&#x2089;" 
d="M206 217c-26 0 -39 -32 -39 -97c0 -46 9 -69 26 -69c15 0 25 10 31 31s9 42 9 63c0 48 -9 72 -27 72zM22 -135l12 50c16 -5 32 -7 49 -7c64 0 109 35 135 106l-3 2c-15 -7 -32 -10 -51 -10c-71 0 -120 45 -120 116c0 88 65 144 166 144c97 0 148 -55 148 -148
c0 -77 -26 -139 -77 -188s-114 -74 -191 -74c-23 0 -46 3 -68 9z" />
    <glyph glyph-name="Euro" unicode="&#x20ac;" horiz-adv-x="609" 
d="M80 261h-56c1 21 5 42 14 63h44c2 23 5 45 9 66h-55c2 23 7 44 14 63h60c28 77 72 139 131 186c60 47 131 71 212 71c68 0 129 -19 182 -58l-21 -151c-9 -2 -19 -3 -30 -3s-21 1 -30 3l-15 118c-24 10 -48 15 -72 15c-97 0 -163 -76 -191 -181h218c0 -23 -4 -44 -13 -63
h-219c-4 -24 -7 -46 -9 -66h228c0 -23 -4 -44 -13 -63h-216c1 -47 14 -91 37 -130c24 -39 57 -59 100 -59c30 0 62 9 95 26l50 117c10 2 20 3 31 3c10 0 20 -1 30 -3l-26 -149c-69 -51 -143 -76 -223 -76c-77 0 -139 24 -188 73s-75 115 -78 198z" />
    <glyph glyph-name="afii61352" unicode="&#x2116;" horiz-adv-x="1123" 
d="M948 571c-33 0 -57 -29 -68 -72c-11 -41 -15 -77 -15 -113c0 -62 14 -93 43 -93c35 0 61 28 73 68c12 41 16 77 16 110c0 67 -16 100 -49 100zM739 403c0 62 19 115 57 159c39 44 90 66 155 66c51 0 92 -16 123 -49c32 -32 48 -73 48 -123c0 -64 -21 -117 -62 -159
c-41 -41 -94 -62 -159 -62c-101 0 -162 68 -162 168zM432 2l-173 545h-4l-101 -547h-156c-2 14 0 28 5 42l86 26l109 587l-90 23c-2 14 -1 28 4 42h270l156 -505h4l95 505h149c2 -15 1 -29 -4 -42l-81 -26l-116 -626l-134 -36zM1060 122h-337c0 25 4 48 12 70h337
c0 -25 -4 -48 -12 -70z" />
    <glyph glyph-name="trademark" unicode="&#x2122;" horiz-adv-x="887" 
d="M679 509l79 211h143v-30l-41 -10l12 -234l41 -10v-25h-162v25l40 10l-11 209h-4l-94 -244h-60l-82 245h-4l-21 -210l42 -10v-25h-118v25l36 10l22 234l-41 10v30h147l72 -211h4zM380 637l-15 46h-61v-237l38 -10v-25h-156v25l38 10v237h-60l-15 -46h-29v83h288v-83h-28z
" />
    <glyph glyph-name="onethird" unicode="&#x2153;" horiz-adv-x="924" 
d="M627 274h-41v91c39 23 86 35 139 35c37 0 70 -8 99 -23s43 -40 43 -73c0 -53 -43 -88 -104 -96v-4c51 -4 93 -36 93 -84c0 -43 -19 -76 -57 -98c-38 -21 -81 -32 -129 -32c-55 0 -102 15 -141 45l12 100h41l15 -80c19 -9 38 -14 58 -14c45 0 72 31 72 78
c0 39 -20 59 -61 59h-40l5 47h35c48 0 75 27 75 72c0 36 -23 53 -55 53c-13 0 -25 -3 -38 -8zM320 658l-57 -303l74 -13l-4 -36h-271l4 36l73 13l52 280h-84l-3 35l154 37c45 11 70 -8 62 -49zM159 0l541 730c22 -11 41 -25 56 -43l-541 -730c-23 9 -41 24 -56 43z" />
    <glyph glyph-name="twothirds" unicode="&#x2154;" horiz-adv-x="924" 
d="M639 274h-41v91c39 23 86 35 139 35c37 0 70 -8 99 -23s43 -40 43 -73c0 -53 -43 -88 -104 -96v-4c51 -4 93 -36 93 -84c0 -43 -19 -76 -57 -98c-38 -21 -81 -32 -129 -32c-55 0 -102 15 -141 45l12 100h41l15 -80c19 -9 38 -14 58 -14c45 0 72 31 72 78
c0 39 -20 59 -61 59h-40l5 47h35c48 0 75 27 75 72c0 36 -23 53 -55 53c-13 0 -25 -3 -38 -8zM214 415v-4h173l-14 -104h-313l6 45l133 112c52 44 77 75 77 130c0 49 -34 76 -81 60l-32 -95h-41v108c41 29 86 43 135 43c80 0 144 -42 144 -115c0 -35 -9 -59 -37 -83
c-13 -12 -25 -21 -35 -28l-47 -29zM189 0l541 730c22 -11 41 -25 56 -43l-541 -730c-23 9 -41 24 -56 43z" />
    <glyph glyph-name="oneeighth" unicode="&#x215b;" horiz-adv-x="924" 
d="M527 93c0 44 34 81 75 98v4c-27 25 -41 53 -41 84c0 39 17 69 50 90s73 31 119 31c76 0 140 -35 140 -98c0 -41 -25 -72 -74 -95v-4c40 -29 60 -61 60 -94c0 -37 -18 -66 -55 -87c-36 -21 -78 -32 -125 -32c-41 0 -77 9 -106 27s-43 43 -43 76zM728 80c0 7 -6 19 -16 27
c-4 5 -18 16 -25 20c-5 5 -24 19 -31 24c-14 -18 -21 -37 -21 -58c0 -31 17 -54 49 -54c25 0 44 16 44 41zM681 315c0 -29 19 -48 60 -76c13 16 19 37 19 64c0 33 -14 50 -42 50c-24 0 -37 -17 -37 -38zM326 658l-57 -303l74 -13l-4 -36h-271l4 36l73 13l52 280h-84l-3 35
l154 37c45 11 70 -8 62 -49zM159 0l541 730c22 -11 41 -25 56 -43l-541 -730c-23 9 -41 24 -56 43z" />
    <glyph glyph-name="threeeighths" unicode="&#x215c;" horiz-adv-x="924" 
d="M159 584h-41v91c39 23 86 35 139 35c37 0 70 -8 99 -23s43 -40 43 -73c0 -53 -43 -88 -104 -96v-4c51 -4 93 -36 93 -84c0 -43 -19 -76 -57 -98c-38 -21 -81 -32 -129 -32c-55 0 -102 15 -141 45l12 100h41l15 -80c19 -9 38 -14 58 -14c45 0 72 31 72 78
c0 39 -20 59 -61 59h-40l5 47h35c48 0 75 27 75 72c0 36 -23 53 -55 53c-13 0 -25 -3 -38 -8zM517 93c0 44 34 81 75 98v4c-27 25 -41 53 -41 84c0 39 17 69 50 90s73 31 119 31c76 0 140 -35 140 -98c0 -41 -25 -72 -74 -95v-4c40 -29 60 -61 60 -94c0 -37 -18 -66 -55 -87
c-36 -21 -78 -32 -125 -32c-41 0 -77 9 -106 27s-43 43 -43 76zM718 80c0 7 -6 19 -16 27c-4 5 -18 16 -25 20c-5 5 -24 19 -31 24c-14 -18 -21 -37 -21 -58c0 -31 17 -54 49 -54c25 0 44 16 44 41zM671 315c0 -29 19 -48 60 -76c13 16 19 37 19 64c0 33 -14 50 -42 50
c-24 0 -37 -17 -37 -38zM163 0l541 730c22 -11 41 -25 56 -43l-541 -730c-23 9 -41 24 -56 43z" />
    <glyph glyph-name="fiveeighths" unicode="&#x215d;" horiz-adv-x="924" 
d="M544 93c0 44 34 81 75 98v4c-27 25 -41 53 -41 84c0 39 17 69 50 90s73 31 119 31c76 0 140 -35 140 -98c0 -41 -25 -72 -74 -95v-4c40 -29 60 -61 60 -94c0 -37 -18 -66 -55 -87c-36 -21 -78 -32 -125 -32c-41 0 -77 9 -106 27s-43 43 -43 76zM745 80c0 7 -6 19 -16 27
c-4 5 -18 16 -25 20c-5 5 -24 19 -31 24c-14 -18 -21 -37 -21 -58c0 -31 17 -54 49 -54c25 0 44 16 44 41zM698 315c0 -29 19 -48 60 -76c13 16 19 37 19 64c0 33 -14 50 -42 50c-24 0 -37 -17 -37 -38zM61 341l12 94h41l22 -76c17 -8 34 -12 49 -12c47 0 81 31 81 84
c0 45 -28 67 -84 67c-13 0 -37 -3 -71 -8l-8 6l36 198l11 7h262l-14 -104h-225l-12 -58c25 3 50 5 75 5c88 0 157 -28 157 -101c0 -47 -19 -83 -57 -108c-37 -25 -82 -37 -133 -37c-57 0 -104 14 -142 43zM175 0l541 730c22 -11 41 -25 56 -43l-541 -730
c-23 9 -41 24 -56 43z" />
    <glyph glyph-name="seveneighths" unicode="&#x215e;" horiz-adv-x="924" 
d="M524 93c0 44 34 81 75 98v4c-27 25 -41 53 -41 84c0 39 17 69 50 90s73 31 119 31c76 0 140 -35 140 -98c0 -41 -25 -72 -74 -95v-4c40 -29 60 -61 60 -94c0 -37 -18 -66 -55 -87c-36 -21 -78 -32 -125 -32c-41 0 -77 9 -106 27s-43 43 -43 76zM725 80c0 7 -6 19 -16 27
c-4 5 -18 16 -25 20c-5 5 -24 19 -31 24c-14 -18 -21 -37 -21 -58c0 -31 17 -54 49 -54c25 0 44 16 44 41zM678 315c0 -29 19 -48 60 -76c13 16 19 37 19 64c0 33 -14 50 -42 50c-24 0 -37 -17 -37 -38zM124 0l541 730c22 -11 41 -25 56 -43l-541 -730c-23 9 -41 24 -56 43z
M121 554l16 146h298l-5 -34l-253 -371l-63 46l213 252l-2 3h-142l-21 -42h-41z" />
    <glyph glyph-name="minus" unicode="&#x2212;" horiz-adv-x="646" 
d="M594 232h-543c-2 13 -3 27 -3 40c0 12 1 26 3 41h543c2 -15 3 -28 3 -41s-1 -27 -3 -40z" />
    <glyph glyph-name="caron.alt" unicode="&#xe088;" horiz-adv-x="400" 
d="M67 -197c37 33 55 85 55 156c14 3 31 4 51 4c19 0 35 -1 48 -4c1 -91 -39 -154 -120 -189c-15 6 -26 17 -34 33z" />
    <glyph glyph-name="onesuperior" unicode="&#xe105;" 
d="M346 822l-57 -303l74 -13l-4 -36h-271l4 36l73 13l52 280h-84l-3 35l154 37c45 11 70 -8 62 -49z" />
    <glyph glyph-name="twosuperior" unicode="&#xe107;" 
d="M206 578v-4h173l-14 -104h-313l6 45l133 112c52 44 77 75 77 130c0 49 -34 76 -81 60l-32 -95h-41v108c41 29 86 43 135 43c80 0 144 -42 144 -115c0 -35 -9 -59 -37 -83c-13 -12 -25 -21 -35 -28l-47 -29z" />
    <glyph glyph-name="threesuperior" unicode="&#xe108;" 
d="M164 747h-41v91c39 23 86 35 139 35c37 0 70 -8 99 -23s43 -40 43 -73c0 -53 -43 -88 -104 -96v-4c51 -4 93 -36 93 -84c0 -43 -19 -76 -57 -98c-38 -21 -81 -32 -129 -32c-55 0 -102 15 -141 45l12 100h41l15 -80c19 -9 38 -14 58 -14c45 0 72 31 72 78
c0 39 -20 59 -61 59h-40l5 47h35c48 0 75 27 75 72c0 36 -23 53 -55 53c-13 0 -25 -3 -38 -8z" />
    <glyph glyph-name="breve.cap" unicode="&#xe13f;" horiz-adv-x="400" 
d="M143 938c10 2 20 3 31 3c9 0 20 -1 31 -3c0 -44 26 -86 87 -86c55 0 93 42 101 86c10 2 21 3 32 3s22 -1 33 -3c-15 -93 -77 -162 -172 -162c-46 0 -83 15 -110 46s-38 70 -33 116z" />
    <glyph glyph-name="c.superior" unicode="&#xe14e;" horiz-adv-x="369" 
d="M349 405l25 -32c-44 -48 -99 -72 -166 -72c-95 0 -148 46 -148 134c0 65 21 120 63 165s95 68 160 68c42 0 80 -10 113 -30l-13 -90h-41l-8 65c-11 4 -22 6 -33 6c-41 0 -71 -18 -91 -54c-20 -35 -30 -75 -30 -120c0 -55 21 -83 64 -83c36 0 81 20 105 43z" />
    <glyph glyph-name="circumflex.cap" unicode="&#xe155;" horiz-adv-x="400" 
d="M107 819l188 133h10l147 -134c-9 -20 -21 -36 -37 -48l-125 86l-153 -86c-14 13 -24 29 -30 49z" />
    <glyph glyph-name="f.superior" unicode="&#xe181;" horiz-adv-x="295" 
d="M334 658l-10 -47h-74l-37 -233c-10 -63 -36 -114 -78 -151c-41 -37 -82 -55 -121 -55c-41 0 -67 17 -78 52l46 46c20 -32 37 -48 51 -48c31 0 46 60 62 165l35 224h-50l6 30l53 17l5 30c15 86 67 129 157 129c33 0 63 -6 91 -18l-12 -91h-41l-8 61c-23 5 -40 -3 -51 -23
c-9 -20 -13 -34 -18 -61l-5 -27h77z" />
    <glyph glyph-name="g.superior" unicode="&#xe191;" horiz-adv-x="446" 
d="M308 598l3 15c-10 4 -20 6 -29 6c-24 0 -44 -11 -61 -33c-33 -43 -45 -98 -45 -149c0 -37 6 -55 17 -55c14 0 34 23 60 68s44 95 55 148zM266 355l8 55h-6c-31 -67 -72 -100 -121 -100c-61 0 -89 49 -89 116c0 65 19 121 58 169c39 49 89 73 148 73c29 0 55 -7 76 -20
c8 13 28 20 59 20h42l-57 -306c-23 -121 -103 -190 -222 -190c-52 0 -96 11 -132 32l9 80h42l7 -52c16 -6 34 -9 55 -9c69 0 110 44 123 132z" />
    <glyph glyph-name="j.superior" unicode="&#xe19f;" horiz-adv-x="263" 
d="M270 823c-3 -37 -10 -69 -20 -96c-18 -3 -36 -5 -55 -5c-17 0 -32 1 -45 3c1 31 5 62 14 95c19 4 39 6 61 6c16 0 31 -1 45 -3zM73 322l55 285h-47l-4 40l110 19c51 8 70 -10 63 -46l-62 -326c-16 -80 -78 -116 -190 -123l-14 37c53 16 77 49 89 114z" />
    <glyph glyph-name="k.superior" unicode="&#xe1a0;" horiz-adv-x="451" 
d="M296 335l-74 150l125 158c13 17 28 25 44 25c27 0 58 -15 91 -45l-22 -29c-16 7 -29 11 -39 11c-15 0 -32 -9 -53 -27l-44 -39l82 -164l41 18l17 -35l-61 -38c-20 -13 -39 -19 -57 -19c-23 0 -39 11 -50 34zM268 769l-81 -449l-114 -19l-8 7l82 450h-47l-4 39l109 19
c56 9 70 -14 63 -47z" />
    <glyph glyph-name="f.alt" unicode="&#xe1b6;" horiz-adv-x="385" 
d="M425 459h-112l-56 -353c-14 -89 -51 -162 -111 -219c-60 -58 -122 -87 -185 -87c-55 0 -90 26 -106 78c18 25 42 47 72 65c25 -45 49 -68 72 -68c47 0 71 91 95 242l53 342h-76c0 15 2 28 7 38l80 25l8 46c23 128 103 192 230 192c47 0 90 -9 129 -26
c-3 -19 -9 -39 -19 -58c-27 7 -50 11 -69 11c-67 0 -92 -46 -107 -125l-7 -40h114c0 -22 -4 -43 -12 -63z" />
    <glyph glyph-name="p.superior" unicode="&#xe1ce;" horiz-adv-x="456" 
d="M213 378l-5 -21c8 -1 14 -2 19 -2c27 0 50 12 68 35c37 48 46 104 46 156c0 32 -6 48 -17 48c-13 0 -31 -24 -56 -72c-25 -47 -43 -95 -55 -144zM200 308l-14 -73l50 3l4 -39l-113 -25c-43 -9 -70 4 -62 47l72 386h-47l-4 40l110 19c51 8 67 -11 60 -46l-9 -49h6
c33 65 72 97 117 97c67 0 92 -57 92 -128c0 -65 -21 -120 -62 -166s-95 -69 -161 -69c-13 0 -26 1 -39 3z" />
    <glyph glyph-name="q.superior" unicode="&#xe1d5;" horiz-adv-x="446" 
d="M303 588l5 25c-9 5 -19 7 -29 7c-23 0 -43 -13 -60 -38c-33 -51 -45 -114 -45 -159c0 -33 5 -49 16 -49c16 0 36 21 60 64s42 93 53 150zM397 668h41l-81 -433l54 5l4 -39l-122 -28c-41 -9 -64 11 -57 50l32 176h-4c-31 -65 -71 -98 -120 -98c-61 0 -89 49 -89 114
s20 124 59 175c40 52 90 78 149 78c29 0 53 -7 74 -20c8 13 28 20 60 20z" />
    <glyph glyph-name="u.superior" unicode="&#xe1f6;" horiz-adv-x="498" 
d="M474 662l-56 -298l50 3l4 -39l-115 -25c-45 -9 -66 5 -59 44l9 52h-6c-33 -67 -66 -98 -125 -98c-58 0 -87 30 -87 91c0 12 1 24 3 36l32 179h-47l-4 40l118 20c36 7 62 -8 55 -45l-32 -177c-4 -20 -6 -35 -6 -46c0 -17 5 -25 16 -25c9 0 19 4 38 24c25 27 57 87 80 205
l10 51l115 15z" />
    <glyph glyph-name="zero.slashfitted" unicode="&#xe201;" horiz-adv-x="638" 
d="M231 216h4l214 357c-11 44 -31 66 -60 66s-54 -14 -76 -43c-63 -86 -84 -257 -82 -380zM301 61c48 0 89 48 110 108c11 31 21 66 28 105c15 80 19 143 19 203h-4l-211 -354c10 -41 29 -62 58 -62zM400 710c45 0 83 -9 114 -27l41 67c21 -9 36 -18 46 -28l-43 -72
c43 -51 65 -121 65 -210c0 -201 -100 -450 -335 -450c-42 0 -79 8 -110 25l-44 -73c-18 8 -33 17 -46 28l46 77c-47 51 -70 121 -70 210c0 101 30 210 83 299c53 91 145 154 253 154z" />
    <glyph glyph-name="v.superior" unicode="&#xe452;" horiz-adv-x="396" 
d="M150 300l-8 5l-48 300h-47l-5 39l103 21c44 9 58 -3 65 -42l34 -221h5c57 67 87 118 87 189c0 24 -5 44 -14 61l41 25c37 -29 55 -52 55 -70c0 -36 -21 -85 -63 -146s-83 -106 -122 -137z" />
    <glyph glyph-name="w.superior" unicode="&#xe454;" horiz-adv-x="614" 
d="M152 300l-9 5l-49 300h-47l-5 39l106 22c41 9 57 -5 64 -45l30 -196h5c41 75 72 149 95 221l85 14l6 -7l35 -252h5c55 65 82 113 82 180c0 25 -6 48 -17 71l41 25c31 -21 56 -53 56 -72c0 -36 -20 -84 -61 -145c-40 -61 -79 -106 -118 -136l-84 -24l-8 5l-26 190h-4
c-21 -46 -53 -103 -98 -171z" />
    <glyph glyph-name="x.superior" unicode="&#xe459;" horiz-adv-x="420" 
d="M187 462l-62 123l-43 -23l-20 34l98 63c11 7 22 10 32 10c14 0 24 -7 31 -20l50 -100c58 79 95 119 110 119c19 0 43 -11 72 -34l-18 -31c-6 3 -12 4 -19 4c-28 0 -69 -34 -124 -102l65 -130l56 24l15 -36l-85 -51c-14 -8 -28 -12 -43 -12c-23 0 -40 12 -53 37l-40 80
c-53 -77 -92 -116 -115 -116c-20 0 -57 19 -77 44l21 30c21 -13 38 -12 54 -5s51 36 95 92z" />
    <glyph glyph-name="y.superior" unicode="&#xe45b;" horiz-adv-x="393" 
d="M189 289l-94 289l-44 -21l-21 33l79 57c21 14 38 21 52 21c19 0 34 -15 44 -46l68 -217h4c18 34 32 71 43 112s17 71 17 88c0 13 -5 29 -14 48l42 23c23 -15 49 -46 49 -66c0 -29 -27 -102 -74 -185c-23 -41 -49 -81 -77 -119c-55 -76 -128 -134 -189 -134
c-39 0 -63 18 -74 53l40 42c13 -21 29 -31 46 -31c35 0 70 18 103 53z" />
    <glyph glyph-name="z.superior" unicode="&#xe45e;" horiz-adv-x="403" 
d="M292 306h-249l8 53l217 191l-3 4h-128l-15 -42h-41l18 151h318l-8 -54l-217 -190l3 -4h91c31 0 51 3 62 9s21 19 32 40l36 -11l-8 -28l-7 -28c-3 -9 -12 -38 -19 -47c-7 -8 -20 -26 -33 -33c-13 -5 -33 -11 -57 -11z" />
    <glyph glyph-name="h.superior" unicode="&#xf637;" horiz-adv-x="476" 
d="M443 541l-33 -177l50 3l4 -39l-114 -25c-44 -11 -69 6 -62 43l30 172c4 24 6 41 6 51c0 17 -4 26 -12 26c-15 0 -36 -26 -63 -79s-46 -105 -55 -157l-7 -39l-114 -19l-8 7l82 450h-47l-4 39l110 19c51 9 67 -11 62 -46l-34 -199h4c35 65 76 97 123 97c57 0 85 -41 85 -96
c0 -11 -1 -21 -3 -31z" />
    <glyph glyph-name="zero.slash" unicode="&#xf638;" horiz-adv-x="609" 
d="M219 216h4l214 357c-11 44 -31 66 -60 66s-54 -14 -76 -43c-63 -86 -84 -257 -82 -380zM289 61c48 0 89 48 110 108c11 31 21 66 28 105c15 80 19 143 19 203h-4l-211 -354c10 -41 29 -62 58 -62zM388 710c45 0 83 -9 114 -27l41 67c21 -9 36 -18 46 -28l-43 -72
c43 -51 65 -121 65 -210c0 -201 -100 -450 -335 -450c-42 0 -79 8 -110 25l-44 -73c-18 8 -33 17 -46 28l46 77c-47 51 -70 121 -70 210c0 101 30 210 83 299c53 91 145 154 253 154z" />
    <glyph glyph-name="zero.fitted" unicode="&#xf639;" horiz-adv-x="638" 
d="M389 639c-60 0 -106 -66 -127 -154s-30 -165 -30 -225c0 -133 23 -199 69 -199c48 0 89 49 110 112c11 32 20 68 27 109c15 81 18 146 18 203c0 27 -2 54 -10 91s-29 63 -57 63zM400 710c77 0 134 -24 169 -73c36 -49 54 -112 54 -190c0 -108 -24 -213 -75 -305
c-51 -91 -143 -152 -260 -152c-73 0 -128 25 -167 75c-38 50 -57 112 -57 187c0 105 27 211 79 303s145 155 257 155z" />
    <glyph glyph-name="two.fitted" unicode="&#xf63a;" horiz-adv-x="607" 
d="M217 149l1 -5h320c3 -51 -2 -99 -15 -144h-509l14 85l208 164c103 80 167 162 167 269c0 71 -48 112 -113 112c-26 0 -53 -7 -82 -20l-32 -116c-10 -2 -20 -3 -30 -3c-9 0 -19 1 -29 3v139c59 51 135 77 228 77c67 0 122 -15 167 -45c45 -29 67 -74 67 -135
c0 -117 -73 -194 -197 -274z" />
    <glyph glyph-name="three.fitted" unicode="&#xf63b;" horiz-adv-x="607" 
d="M122 518v139c63 35 136 53 220 53c42 0 80 -5 115 -14c69 -19 128 -72 128 -152c0 -89 -70 -154 -166 -173v-4c84 -13 140 -74 140 -149c0 -49 -16 -91 -47 -127c-63 -71 -157 -101 -254 -101c-78 0 -156 21 -235 64l22 146c9 2 18 3 29 3c9 0 19 -1 29 -3l18 -106
c38 -18 77 -27 116 -27c87 0 153 48 153 148c0 77 -58 114 -127 114h-72c0 22 4 46 13 72h57c43 0 80 11 110 32c31 22 46 56 46 103c0 68 -35 102 -106 102c-33 0 -66 -6 -99 -19l-31 -101c-10 -2 -20 -3 -30 -3c-9 0 -19 1 -29 3z" />
    <glyph glyph-name="four.fitted" unicode="&#xf63c;" horiz-adv-x="603" 
d="M360 522l-235 -252v-5h191l48 257h-4zM2 243l437 467h126l-83 -445h91c0 -22 -4 -45 -13 -69h-92l-23 -129l86 -25c1 -15 0 -29 -4 -42h-352c-1 14 0 28 4 42l101 25l24 129h-310z" />
    <glyph glyph-name="five.fitted" unicode="&#xf63d;" horiz-adv-x="614" 
d="M52 58l23 143c9 2 19 3 30 3c10 0 20 -1 29 -3l18 -114c31 -15 62 -22 92 -22c47 0 85 15 116 46s47 72 47 123c0 88 -53 132 -158 132c-30 0 -70 -4 -119 -13l-7 8l67 334l9 5h406c1 -8 1 -20 1 -35c0 -40 -5 -76 -15 -109h-356l-25 -123c27 4 54 6 83 6
c127 0 284 -49 284 -197c0 -77 -31 -139 -94 -184c-62 -45 -134 -68 -216 -68c-77 0 -148 23 -215 68z" />
    <glyph glyph-name="six.fitted" unicode="&#xf63e;" horiz-adv-x="611" 
d="M335 391c-31 0 -56 -19 -73 -58s-25 -83 -25 -134c0 -76 22 -138 67 -138c34 0 59 19 75 57c16 39 24 84 24 135c0 79 -23 138 -68 138zM368 463c61 0 110 -19 147 -56s56 -86 56 -147c0 -78 -24 -143 -72 -194s-114 -76 -197 -76c-151 0 -232 97 -232 245
c0 133 42 245 126 337c85 92 193 138 324 138c32 0 63 -3 92 -9c0 -22 -6 -44 -18 -65c-15 3 -33 5 -55 5c-123 0 -215 -77 -266 -197l4 -1c25 13 55 20 91 20z" />
    <glyph glyph-name="seven.fitted" unicode="&#xf63f;" horiz-adv-x="577" 
d="M100 489l34 211h478l-10 -67l-429 -643c-30 10 -58 28 -83 55l377 508l-1 3h-279l-29 -67c-19 -4 -39 -4 -58 0z" />
    <glyph glyph-name="eight.fitted" unicode="&#xf640;" horiz-adv-x="603" 
d="M47 176c0 75 55 140 131 180v4c-47 37 -70 86 -70 146c0 65 25 115 76 150c51 36 111 54 180 54c63 0 117 -16 162 -47s68 -73 68 -128c0 -70 -40 -125 -119 -165v-4c55 -36 87 -94 87 -155c0 -47 -14 -87 -43 -122c-56 -69 -142 -99 -234 -99c-64 0 -120 16 -167 49
s-71 79 -71 137zM288 289l-35 20c-28 -28 -46 -80 -46 -129c0 -67 31 -119 90 -119c28 0 51 11 70 33s29 47 29 76c-4 35 -14 57 -45 79c-11 9 -21 15 -28 19c-7 5 -19 12 -35 21zM274 548c0 -63 36 -93 116 -134c31 30 47 70 47 121c0 60 -29 104 -85 104
c-43 0 -78 -42 -78 -91z" />
    <glyph glyph-name="nine.fitted" unicode="&#xf641;" horiz-adv-x="614" 
d="M264 447c0 -72 22 -133 65 -133c33 0 58 18 75 55s26 79 26 126c0 77 -22 139 -67 139c-23 0 -42 -10 -58 -31c-31 -40 -41 -96 -41 -156zM400 265l-4 1c-27 -16 -59 -24 -97 -24c-59 0 -108 18 -146 54c-38 37 -57 85 -57 144c0 76 24 139 72 189c49 51 114 76 197 76
c77 0 135 -23 175 -70s60 -108 60 -183c0 -83 -18 -159 -55 -229s-89 -126 -158 -169s-146 -64 -232 -64c-31 0 -61 3 -90 9c3 27 9 49 19 66c18 -4 36 -6 53 -6c60 0 114 20 161 59c48 39 82 88 102 147z" />
    <glyph glyph-name="zero.taboldstyle" unicode="&#xf643;" horiz-adv-x="609" 
d="M267 -10c-144 0 -220 81 -220 220c0 93 28 171 83 234c55 64 132 96 230 96c140 0 216 -91 216 -223c0 -94 -27 -172 -81 -234c-53 -62 -129 -93 -228 -93zM341 468c-91 0 -126 -142 -126 -265c0 -95 23 -142 68 -142c41 0 72 26 93 78c21 53 32 116 32 190
c0 79 -20 139 -67 139z" />
    <glyph glyph-name="one.taboldstyle" unicode="&#xf644;" horiz-adv-x="609" 
d="M437 463l-75 -401l122 -20c2 -13 1 -27 -4 -42h-407c-1 14 0 28 4 42l120 20l73 391h-110c-6 15 -8 31 -6 48l203 37c71 13 91 -19 80 -75z" />
    <glyph glyph-name="two.taboldstyle" unicode="&#xf645;" horiz-adv-x="609" 
d="M277 150l1 -4h228c1 -16 2 -28 2 -36c0 -37 -6 -74 -17 -110h-457l6 50l193 147c39 29 56 44 85 76c29 33 44 71 44 114c0 56 -35 81 -83 81c-31 0 -60 -7 -87 -22l-22 -98c-10 -2 -20 -3 -30 -3c-11 0 -20 1 -29 3v128c59 43 128 64 208 64c99 0 213 -36 213 -151
c0 -39 -17 -74 -33 -95c-7 -11 -20 -23 -39 -36c-18 -13 -32 -23 -42 -29l-50 -28z" />
    <glyph glyph-name="three.taboldstyle" unicode="&#xf646;" horiz-adv-x="609" 
d="M48 -6c37 -22 79 -33 127 -33c87 0 150 45 150 137c0 56 -34 86 -82 83l-101 -7c-3 23 -1 46 4 70l89 12c65 8 120 46 120 125c0 57 -30 85 -90 85c-23 0 -51 -5 -84 -14l-23 -93c-10 -2 -20 -3 -29 -3c-10 0 -20 1 -29 3v130c57 34 123 51 198 51
c105 0 225 -35 225 -152c0 -39 -14 -73 -42 -103c-27 -30 -62 -49 -103 -56v-4c75 -19 117 -65 117 -133c0 -69 -42 -129 -103 -161c-60 -32 -128 -50 -192 -50c-71 0 -134 15 -191 44c8 24 21 47 39 69z" />
    <glyph glyph-name="four.taboldstyle" unicode="&#xf647;" horiz-adv-x="609" 
d="M-1 100l421 440h127l-78 -424h95c0 -25 -4 -49 -12 -71h-96l-30 -165c-24 -5 -51 -7 -80 -7c-28 0 -57 2 -86 7l30 165h-300zM345 354h-4l-225 -235l1 -3h185z" />
    <glyph glyph-name="five.taboldstyle" unicode="&#xf648;" horiz-adv-x="609" 
d="M130 524l9 6h410c1 -16 2 -29 2 -38c0 -36 -5 -72 -16 -108h-357l-22 -104c41 7 79 11 113 11c44 0 84 -5 119 -15c71 -19 130 -72 130 -152c0 -51 -16 -95 -49 -133c-65 -76 -167 -110 -276 -110c-67 0 -125 13 -174 40c9 27 21 49 37 68c36 -19 77 -29 124 -29
c97 0 167 55 167 151c0 71 -46 107 -138 107c-31 0 -74 -5 -129 -15l-8 9z" />
    <glyph glyph-name="six.taboldstyle" unicode="&#xf649;" horiz-adv-x="609" 
d="M322 364c-31 0 -55 -18 -72 -53c-16 -35 -24 -75 -24 -122c0 -73 22 -128 66 -128c69 2 96 94 94 178c0 72 -20 125 -64 125zM359 436c57 0 103 -18 140 -53s55 -81 55 -138c0 -73 -24 -134 -71 -183c-47 -48 -112 -72 -193 -72c-147 0 -230 89 -230 232
c0 81 18 156 55 224c37 69 90 123 158 164s144 61 228 61c35 0 70 -4 106 -12c-3 -25 -9 -47 -20 -67c-21 4 -42 6 -63 6c-59 0 -112 -16 -159 -49c-47 -32 -82 -76 -104 -131l4 -2c30 13 61 20 94 20z" />
    <glyph glyph-name="seven.taboldstyle" unicode="&#xf64a;" horiz-adv-x="609" 
d="M140 530h458l-9 -60l-446 -591c-29 13 -54 33 -75 60l369 441l-1 4h-316c-2 51 5 99 20 146z" />
    </font>
</defs>
</svg>
