<?xml version="1.0" standalone="no"?>
<!DOCTYPE svg PUBLIC "-//W3C//DTD SVG 1.1//EN" "http://www.w3.org/Graphics/SVG/1.1/DTD/svg11.dtd" >
<svg xmlns="http://www.w3.org/2000/svg" xmlns:xlink="http://www.w3.org/1999/xlink" version="1.1">
<metadata>
Created by FontForge 20160407 at Sat May 14 18:41:28 2016
 By Jimmy Wärting
Copyright \(c\) 2009 by Vedran Erakovic. All rights reserved. Published by Parachute? Worldwide for the Parachute? Font Library.
</metadata>
<defs>
<font id="PFAdamantPro-SemiBold" horiz-adv-x="403" >
  <font-face 
    font-family="PF Adamant Pro"
    font-weight="600"
    font-stretch="normal"
    units-per-em="1000"
    panose-1="2 0 7 5 0 0 0 2 0 4"
    ascent="800"
    descent="-200"
    x-height="530"
    cap-height="720"
    bbox="-145 -230 1250 955"
    underline-thickness="50"
    underline-position="-100"
    unicode-range="U+0020-FB04"
  />
<missing-glyph horiz-adv-x="500" 
d="M500 750v-750h-500v750h500zM409 690h-321l161 -262zM440 626l-156 -255l156 -255v510zM404 60l-155 254l-156 -254h311zM60 119l154 252l-154 252v-504z" />
    <glyph glyph-name="f_b" unicode="fb" horiz-adv-x="979" 
d="M652 56c118 0 158 116 158 219c0 43 -5 80 -20 119c-15 40 -45 65 -88 65c-38 0 -73 -21 -106 -62v-332c19 -6 38 -9 56 -9zM375 470h-122v-412l73 -20c3 -12 3 -25 0 -38h-277c-3 13 -3 26 0 38l72 20v412h-72c-3 12 -3 24 0 35l72 21v41c0 65 24 114 73 145
c49 32 109 48 180 48c87 0 161 -19 222 -57v-237h4c39 49 88 74 147 74c64 0 113 -25 146 -74c34 -49 51 -108 51 -177c0 -87 -23 -158 -70 -215c-46 -56 -110 -84 -192 -84c-37 0 -72 8 -105 23c-12 -15 -37 -23 -74 -23h-39v696c-22 7 -45 11 -69 11
c-79 0 -142 -39 -142 -116v-55h122c3 -19 3 -37 0 -56z" />
    <glyph glyph-name="f_h" unicode="fh" horiz-adv-x="1029" 
d="M375 470h-122v-412l67 -20c3 -12 3 -25 0 -38h-271c-3 13 -3 26 0 38l72 20v412h-72c-3 12 -3 24 0 35l72 21v41c0 65 24 114 73 145c49 32 109 48 180 48c87 0 161 -19 222 -57v-237l4 -1c50 50 107 75 171 75c113 0 164 -64 164 -204v-278l72 -20c3 -13 3 -25 0 -38
h-270c-3 13 -3 26 0 38l66 20v241c0 22 -1 40 -3 55c-3 29 -12 70 -37 87c-35 29 -123 7 -167 -39v-344l65 -20c3 -12 3 -25 0 -38h-264c-3 13 -3 26 0 38l67 20v628c-22 7 -45 11 -69 11c-79 0 -142 -39 -142 -116v-55h122c3 -19 3 -37 0 -56z" />
    <glyph glyph-name="f_j" unicode="fj" horiz-adv-x="690" 
d="M253 571v-47h280c47 0 63 -14 63 -62v-469c0 -115 -79 -183 -208 -198c-10 12 -16 26 -18 43c39 17 65 38 76 65c12 27 18 66 18 117v447h-211v-409l73 -20c3 -12 3 -25 0 -38h-277c-3 13 -3 26 0 38l72 20v409h-72c-3 12 -3 24 0 35l72 22v34c0 153 125 202 253 202
c63 0 122 -11 177 -32v-118c-13 -2 -27 -3 -41 -3c-15 0 -28 1 -40 3l-27 80c-18 5 -37 7 -57 7c-77 0 -133 -41 -133 -126z" />
    <glyph glyph-name="f_k" unicode="fk" horiz-adv-x="1000" 
d="M375 470h-122v-412l67 -20c3 -12 3 -25 0 -38h-271c-3 13 -3 26 0 38l72 20v412h-72c-3 12 -3 24 0 35l72 21v41c0 65 24 114 73 145c49 32 109 48 180 48c87 0 161 -19 222 -57v-645l72 -20c3 -12 3 -25 0 -38h-271c-3 13 -3 26 0 38l67 20v628c-22 7 -45 11 -69 11
c-79 0 -142 -39 -142 -116v-55h122c3 -19 3 -37 0 -56zM1003 0h-186l-209 269v5l197 201l-64 17c-3 12 -3 25 0 38h241c3 -13 3 -26 0 -38l-90 -22l-153 -156l201 -259l63 -17c3 -12 3 -25 0 -38z" />
    <glyph glyph-name="f_t" unicode="ft" horiz-adv-x="732" 
d="M253 579v-53h211v163c-20 6 -42 9 -66 9c-81 0 -145 -38 -145 -119zM464 182v288h-211v-412l73 -20c3 -12 3 -25 0 -38h-277c-3 13 -3 26 0 38l72 20v412h-72c-3 12 -3 24 0 35l72 21v39c0 65 24 114 73 146c49 33 110 49 181 49c88 0 162 -19 221 -58v-176h132
c3 -19 3 -37 0 -56h-132v-253c0 -59 4 -90 21 -123s53 -45 112 -40c2 -10 3 -19 3 -28s-1 -19 -3 -28c-25 -5 -51 -8 -78 -8c-123 0 -187 56 -187 192z" />
    <glyph glyph-name="f_f.alt" unicode="&#xe1b6;&#xe1b6;" horiz-adv-x="720" 
d="M253 579v-53h211v46c0 40 8 75 23 104c-29 14 -61 21 -95 21c-79 0 -139 -39 -139 -118zM717 470h-121v-412l72 -20c3 -12 3 -25 0 -38h-271c-3 13 -3 26 0 38l67 20v412h-211v-412l67 -20c3 -13 3 -26 0 -38h-271c-3 13 -3 26 0 38l72 20v412h-72c-3 12 -3 24 0 35
l72 21v39c0 44 12 81 37 111c49 61 124 84 213 84c60 0 114 -11 162 -33c32 22 72 33 121 33c35 0 73 -6 114 -17c-2 -19 -7 -38 -16 -57c-21 5 -42 7 -63 7c-63 0 -93 -31 -93 -104v-63h121c3 -19 3 -38 0 -56z" />
    <glyph glyph-name="f_f" unicode="ff" horiz-adv-x="720" 
d="M253 579v-53h211v46c0 40 8 75 23 104c-29 14 -61 21 -95 21c-79 0 -139 -39 -139 -118zM717 470h-121v-412l72 -20c3 -12 3 -25 0 -38h-271c-3 13 -3 26 0 38l67 20v412h-211v-412l67 -20c3 -13 3 -26 0 -38h-271c-3 13 -3 26 0 38l72 20v412h-72c-3 12 -3 24 0 35
l72 21v39c0 44 12 81 37 111c49 61 124 84 213 84c60 0 114 -11 162 -33c32 22 72 33 121 33c35 0 73 -6 114 -17v-116c-19 -3 -36 -3 -53 0l-24 77c-72 1 -95 -34 -95 -118v-60h121c3 -19 3 -38 0 -56z" />
    <glyph glyph-name="f_i" unicode="fi" horiz-adv-x="696" 
d="M253 571v-47h280c47 0 63 -14 63 -62v-404l72 -20c3 -12 3 -25 0 -38h-271c-3 13 -3 26 0 38l67 20v409h-211v-409l67 -20c3 -12 3 -25 0 -38h-271c-3 13 -3 26 0 38l72 20v409h-72c-3 11 -3 23 0 35l72 22v34c0 153 125 202 253 202c63 0 122 -11 177 -32v-118
c-13 -2 -27 -3 -41 -3c-15 0 -28 1 -40 3l-27 80c-18 5 -37 7 -57 7c-77 0 -133 -41 -133 -126z" />
    <glyph glyph-name="f_l" unicode="fl" horiz-adv-x="696" 
d="M375 470h-122v-412l67 -20c3 -12 3 -25 0 -38h-271c-3 13 -3 26 0 38l72 20v412h-72c-3 12 -3 24 0 35l72 21v41c0 65 24 114 73 145c49 32 109 48 180 48c87 0 161 -19 222 -57v-645l72 -20c3 -12 3 -25 0 -38h-271c-3 13 -3 26 0 38l67 20v628c-22 7 -45 11 -69 11
c-79 0 -142 -39 -142 -116v-55h122c3 -19 3 -37 0 -56z" />
    <glyph glyph-name="f_f_i" unicode="ffi" horiz-adv-x="1038" 
d="M253 579v-55h211v34c0 45 11 82 32 113c-29 17 -64 26 -104 26c-79 0 -139 -39 -139 -118zM740 38l67 20v409h-211v-409l67 -20c3 -12 3 -25 0 -38h-266c-3 13 -3 26 0 38l67 20v409h-211v-409l67 -20c3 -12 3 -25 0 -38h-271c-3 13 -3 26 0 38l72 20v409h-72
c-3 11 -3 23 0 35l72 22v41c0 44 12 81 37 111c49 61 124 84 213 84c65 0 125 -13 178 -40c42 27 98 40 168 40c63 0 122 -11 176 -32v-118c-14 -2 -28 -3 -41 -3c-14 0 -27 1 -39 3l-27 80c-18 5 -37 7 -57 7c-77 0 -133 -41 -133 -126v-47h280c45 0 63 -14 63 -62v-404
l72 -20c3 -12 3 -25 0 -38h-271c-3 13 -3 26 0 38z" />
    <glyph glyph-name="f_f_l" unicode="ffl" horiz-adv-x="1038" 
d="M253 579v-53h211v41c0 40 10 75 31 104c-31 17 -66 26 -103 26c-79 0 -139 -39 -139 -118zM939 703v-645l72 -20c3 -12 3 -25 0 -38h-271c-3 13 -3 26 0 38l67 20v628c-22 7 -45 11 -70 11c-79 0 -141 -39 -141 -116v-55h121c3 -19 3 -38 0 -56h-121v-412l67 -20
c3 -12 3 -25 0 -38h-268c-3 13 -3 26 0 38l69 20v412h-211v-412l67 -20c3 -12 3 -25 0 -38h-271c-3 13 -3 26 0 38l72 20v412h-72c-3 12 -3 24 0 35l72 21v39c0 44 12 81 37 111c49 61 124 84 213 84c67 0 126 -13 178 -40c45 27 101 40 168 40c87 0 161 -19 222 -57z" />
    <glyph glyph-name=".notdef" horiz-adv-x="500" 
d="M500 750v-750h-500v750h500zM409 690h-321l161 -262zM440 626l-156 -255l156 -255v510zM404 60l-155 254l-156 -254h311zM60 119l154 252l-154 252v-504z" />
    <glyph glyph-name="NULL" horiz-adv-x="0" 
 />
    <glyph glyph-name="CR" horiz-adv-x="333" 
 />
    <glyph glyph-name="space" unicode=" " horiz-adv-x="269" 
 />
    <glyph glyph-name="exclam" unicode="!" horiz-adv-x="338" 
d="M109 0c-8 40 -8 80 0 120c44 7 84 7 121 0c8 -40 8 -80 0 -120c-20 -4 -40 -6 -61 -6c-20 0 -40 2 -60 6zM246 700l-43 -482c-12 -2 -24 -3 -35 -3c-12 0 -23 1 -34 3l-42 482c28 3 54 5 77 5c26 0 52 -2 77 -5z" />
    <glyph glyph-name="quotedbl" unicode="&#x22;" horiz-adv-x="391" 
d="M163 756l-23 -264c-11 -2 -22 -3 -33 -3s-23 1 -34 3l-23 264c23 3 42 4 57 4s33 -1 56 -4zM341 756l-23 -264c-11 -2 -22 -3 -33 -3s-23 1 -34 3l-23 264c23 3 42 4 57 4s33 -1 56 -4z" />
    <glyph glyph-name="numbersign" unicode="#" horiz-adv-x="609" 
d="M97 0l46 197h-122c-2 11 -3 23 -3 35c0 11 1 23 3 35h139l41 172h-126c-4 21 -4 46 0 70h142l46 191c23 4 43 4 66 0l-46 -191h120l46 191c10 2 21 3 32 3s22 -1 33 -3l-46 -191h119c2 -12 3 -24 3 -35c0 -12 -1 -24 -3 -35h-135l-41 -172h122c2 -12 3 -24 3 -35
c0 -12 -1 -24 -3 -35h-139l-46 -197c-11 -2 -22 -3 -33 -3s-22 1 -32 3l46 197h-120l-46 -197c-23 -4 -43 -4 -66 0zM387 439h-120l-41 -172h120z" />
    <glyph glyph-name="dollar" unicode="$" horiz-adv-x="609" 
d="M59 69v143c19 3 36 3 53 0l43 -119c31 -8 64 -12 99 -12c49 0 91 9 126 26s52 45 52 83c0 30 -14 53 -40 66c-16 8 -21 11 -44 18c-11 3 -19 6 -25 7c-11 4 -45 13 -57 16c-25 7 -45 12 -60 17s-33 13 -54 23c-21 11 -37 22 -48 34c-23 24 -42 66 -42 117
c0 115 88 178 213 191v88c20 4 46 4 67 0v-86c73 -3 136 -18 187 -45v-138c-18 -3 -36 -3 -53 0l-41 104c-27 9 -59 14 -96 14c-41 0 -78 -9 -109 -26s-46 -44 -46 -79c0 -27 14 -48 29 -61c7 -7 19 -13 34 -19c32 -12 46 -16 87 -25l64 -16c14 -4 33 -11 57 -22
c24 -10 42 -21 54 -33c24 -23 47 -64 47 -116c0 -56 -20 -101 -61 -135c-40 -34 -91 -56 -153 -66v-89c-21 -4 -47 -4 -67 0v84c-85 0 -157 19 -216 56z" />
    <glyph glyph-name="percent" unicode="%" horiz-adv-x="887" 
d="M202 -2l426 730c23 -9 42 -20 56 -33l-425 -731c-21 7 -40 18 -57 34zM206 350c42 0 63 52 63 155s-21 155 -63 155s-63 -52 -63 -155s21 -155 63 -155zM206 300c-109 0 -169 74 -169 205s61 205 169 205s169 -74 169 -205s-61 -205 -169 -205zM681 40c42 0 63 52 63 155
s-21 155 -63 155s-63 -52 -63 -155s21 -155 63 -155zM681 -10c-109 0 -169 74 -169 205s61 205 169 205s169 -74 169 -205s-61 -205 -169 -205z" />
    <glyph glyph-name="ampersand" unicode="&#x26;" horiz-adv-x="760" 
d="M398 565c0 52 -29 102 -78 102c-51 0 -79 -43 -79 -98c0 -45 26 -86 77 -143c53 31 80 78 80 139zM171 211c0 -89 62 -145 150 -145c45 0 83 12 113 37l-203 231c-40 -35 -60 -76 -60 -123zM727 0h-202l-49 56c-57 -44 -125 -66 -206 -66c-62 0 -115 16 -158 49
s-65 81 -65 144c0 78 47 144 141 198c-48 55 -72 111 -72 166s21 99 62 132c42 34 91 51 147 51c51 0 95 -14 133 -42c39 -27 58 -65 58 -114c0 -88 -67 -154 -158 -193l158 -180c21 42 33 90 35 144l-54 19c-3 13 -3 26 0 39h230c3 -13 3 -26 0 -39l-84 -22
c-10 -75 -36 -141 -77 -198l76 -85l85 -22c3 -11 3 -24 0 -37z" />
    <glyph glyph-name="quotesingle" unicode="'" horiz-adv-x="213" 
d="M163 756l-23 -264c-11 -2 -22 -3 -33 -3s-23 1 -34 3l-23 264c23 3 42 4 57 4s33 -1 56 -4z" />
    <glyph glyph-name="parenleft" unicode="(" horiz-adv-x="376" 
d="M339 716c-69 -43 -116 -108 -139 -189c-21 -80 -28 -147 -28 -246c0 -104 11 -192 33 -263c23 -71 67 -130 134 -175c-6 -19 -16 -33 -30 -44c-89 41 -151 101 -185 180c-33 79 -50 179 -50 301c0 117 12 204 45 289c35 85 97 151 190 192c13 -11 23 -26 30 -45z" />
    <glyph glyph-name="parenright" unicode=")" horiz-adv-x="376" 
d="M37 -156c69 43 117 108 138 188c23 81 29 148 29 247c0 104 -11 192 -34 263c-22 71 -66 130 -133 175c6 19 16 33 30 44c89 -41 151 -101 184 -180c34 -79 51 -179 51 -301c0 -117 -11 -204 -46 -289c-33 -85 -96 -151 -189 -192c-13 11 -23 26 -30 45z" />
    <glyph glyph-name="asterisk" unicode="*" horiz-adv-x="523" 
d="M78 672l152 -96c-5 -17 -13 -32 -26 -45l-159 84c9 22 20 41 33 57zM45 444l160 83c11 -12 20 -27 26 -45l-153 -95c-14 15 -25 34 -33 57zM228 302l7 177c18 4 35 4 52 0l8 -177c-11 -2 -23 -3 -34 -3s-22 1 -33 3zM445 386l-153 95c6 18 15 33 27 45l159 -83
c-9 -23 -20 -42 -33 -57zM478 615l-159 -84c-13 13 -22 28 -27 46l154 96c12 -15 23 -35 32 -58zM295 756l-8 -177c-17 -4 -35 -4 -52 0l-7 177c11 2 23 3 34 3s22 -1 33 -3z" />
    <glyph glyph-name="plus" unicode="+" horiz-adv-x="650" 
d="M595 236h-232v-236c-13 -2 -25 -3 -38 -3s-26 1 -38 3v236h-232c-4 24 -4 48 0 73h232v230c11 2 24 3 38 3c13 0 26 -1 38 -3v-230h232c2 -11 3 -24 3 -37s-1 -25 -3 -36z" />
    <glyph glyph-name="comma" unicode="," horiz-adv-x="268" 
d="M50 -122c38 57 57 126 57 205c0 9 -1 24 -2 44c19 3 38 5 58 5c18 0 36 -2 54 -5c1 -7 1 -18 1 -33c-1 -109 -44 -192 -130 -248c-16 7 -29 18 -38 32z" />
    <glyph glyph-name="hyphen" unicode="-" horiz-adv-x="406" 
d="M348 258h-290c-2 12 -3 25 -3 38c0 12 1 25 3 38h290c2 -13 3 -26 3 -38c0 -13 -1 -26 -3 -38z" />
    <glyph glyph-name="period" unicode="." horiz-adv-x="268" 
d="M79 125c27 3 48 4 63 4c17 0 38 -1 63 -4c3 -23 5 -44 5 -63c0 -18 -2 -39 -5 -62c-44 -7 -82 -7 -126 0c-3 23 -5 44 -5 62c0 19 2 40 5 63z" />
    <glyph glyph-name="slash" unicode="/" horiz-adv-x="410" 
d="M307 750h80l2 -3l-285 -802h-80l-2 3z" />
    <glyph glyph-name="zero" unicode="0" horiz-adv-x="609" 
d="M49 350c0 236 93 360 256 360s255 -124 255 -360c0 -239 -91 -360 -255 -360s-256 121 -256 360zM305 644c-89 0 -121 -103 -121 -294s32 -294 121 -294c93 1 121 118 121 294s-28 293 -121 294z" />
    <glyph glyph-name="one" unicode="1" horiz-adv-x="609" 
d="M130 40l119 25v556h-121c-3 17 -3 33 0 48l159 36c19 4 32 6 40 6c36 0 54 -22 54 -66v-580l119 -25c3 -12 3 -25 0 -40h-370c-3 13 -3 27 0 40z" />
    <glyph glyph-name="two" unicode="2" horiz-adv-x="609" 
d="M205 127v-4h320c3 -16 4 -37 4 -62s-1 -45 -4 -61h-489v55l192 185c29 29 53 53 71 74s35 48 51 81s24 66 24 99c0 97 -60 145 -143 145c-25 0 -50 -4 -74 -12l-44 -130c-18 -4 -36 -4 -53 0v139c52 47 133 74 213 74c67 0 124 -17 171 -52c47 -34 71 -84 71 -150
c0 -49 -18 -98 -37 -130c-9 -16 -24 -35 -45 -56s-37 -36 -50 -47c-12 -11 -32 -27 -59 -50z" />
    <glyph glyph-name="three" unicode="3" horiz-adv-x="609" 
d="M73 525v139c63 31 133 46 211 46c41 0 79 -5 113 -16c68 -20 124 -76 124 -157c0 -83 -53 -146 -136 -161v-5c93 -8 158 -72 158 -167c0 -154 -144 -214 -282 -214c-78 0 -146 16 -204 49v146c18 3 36 3 53 0l40 -107c31 -11 63 -17 96 -17c93 0 163 50 163 147
c0 95 -62 123 -174 123h-66c-2 12 -3 23 -3 32c0 10 1 22 3 35h57c101 0 161 44 161 131c0 77 -58 115 -135 115c-31 0 -62 -6 -91 -18l-35 -101c-18 -4 -36 -4 -53 0z" />
    <glyph glyph-name="four" unicode="4" horiz-adv-x="609" 
d="M335 65v128h-326v59l358 458h100v-450h99c2 -11 3 -23 3 -34s-1 -22 -3 -33h-99v-128l96 -25c3 -12 3 -25 0 -40h-323c-3 13 -3 27 0 40zM105 264v-4h230v292h-4z" />
    <glyph glyph-name="five" unicode="5" horiz-adv-x="609" 
d="M86 37v144c19 3 36 3 52 0l42 -110c27 -7 52 -10 76 -10c100 0 171 61 171 166c0 95 -58 142 -174 142c-39 0 -85 -5 -138 -16l-7 7v333l6 7h405c3 -23 4 -43 4 -62s-1 -40 -4 -61h-343v-148c40 7 78 10 115 10c135 0 269 -47 269 -213c0 -164 -141 -236 -290 -236
c-69 0 -130 16 -184 47z" />
    <glyph glyph-name="six" unicode="6" horiz-adv-x="609" 
d="M317 56c73 0 109 56 109 169s-36 170 -109 170c-79 0 -113 -71 -113 -168s34 -171 113 -171zM208 417l3 -1c35 30 79 45 132 45c68 0 121 -22 159 -65c39 -43 58 -97 58 -164c0 -73 -22 -132 -65 -176s-103 -66 -178 -66c-187 0 -249 136 -249 289c0 229 120 431 356 431
c32 0 62 -4 91 -13c1 -21 -3 -43 -12 -64c-23 5 -43 8 -60 8c-60 0 -111 -21 -154 -63c-42 -42 -69 -96 -81 -161z" />
    <glyph glyph-name="seven" unicode="7" horiz-adv-x="609" 
d="M72 517v183h477v-60l-311 -651c-37 11 -67 26 -90 45l297 543h-299l-21 -60c-17 -4 -35 -4 -53 0z" />
    <glyph glyph-name="eight" unicode="8" horiz-adv-x="609" 
d="M51 182c0 71 45 131 118 167v4c-67 44 -101 101 -101 170c0 57 24 103 71 136c47 34 103 51 167 51c65 0 120 -16 166 -47s69 -75 69 -132c0 -67 -46 -128 -114 -156v-4c83 -40 130 -88 130 -175c0 -63 -25 -113 -75 -150c-49 -37 -109 -56 -179 -56
c-73 0 -133 17 -181 52c-47 35 -71 81 -71 140zM304 57c69 0 119 46 119 114c0 33 -13 58 -46 79c-16 11 -29 18 -40 23c-10 5 -27 12 -51 22c-20 8 -35 14 -45 19c-39 -25 -59 -67 -59 -124c0 -75 46 -133 122 -133zM199 541c0 -35 13 -60 46 -83c17 -11 33 -20 46 -27
l63 -27c37 29 56 71 56 126c0 64 -36 115 -105 115c-59 0 -106 -44 -106 -104z" />
    <glyph glyph-name="nine" unicode="9" horiz-adv-x="609" 
d="M298 644c-73 0 -108 -64 -108 -165c0 -111 36 -166 108 -166c79 0 113 69 113 164c0 97 -34 167 -113 167zM298 710c187 0 249 -136 249 -289c0 -124 -32 -227 -96 -309c-63 -81 -151 -122 -263 -122c-33 0 -65 4 -95 13c-1 21 3 43 12 64c22 -6 43 -9 63 -9
c60 0 112 22 156 66c44 45 71 100 80 165l-3 1c-32 -29 -75 -44 -128 -44c-67 0 -120 20 -159 61s-59 95 -59 161c0 71 22 129 66 174s103 68 177 68z" />
    <glyph glyph-name="colon" unicode=":" horiz-adv-x="268" 
d="M79 125c27 3 48 4 63 4c17 0 38 -1 63 -4c3 -23 5 -44 5 -63c0 -18 -2 -39 -5 -62c-44 -7 -82 -7 -126 0c-3 23 -5 44 -5 62c0 19 2 40 5 63zM79 530c27 3 48 4 63 4c17 0 38 -1 63 -4c3 -23 5 -44 5 -63c0 -18 -2 -39 -5 -62c-44 -7 -82 -7 -126 0c-3 23 -5 44 -5 62
c0 19 2 40 5 63z" />
    <glyph glyph-name="semicolon" unicode=";" horiz-adv-x="268" 
d="M87 530c27 3 48 4 63 4c17 0 38 -1 63 -4c3 -23 5 -44 5 -63c0 -18 -2 -39 -5 -62c-44 -7 -82 -7 -126 0c-3 23 -5 44 -5 62c0 19 2 40 5 63zM48 -122c38 57 57 126 57 205c0 9 -1 24 -2 44c19 3 38 5 58 5c18 0 36 -2 54 -5c1 -7 1 -18 1 -33
c-1 -109 -44 -192 -130 -248c-16 7 -29 18 -38 32z" />
    <glyph glyph-name="less" unicode="&#x3c;" horiz-adv-x="650" 
d="M566 -10l-511 237c-2 12 -3 25 -3 38c0 12 1 25 3 39l511 236c16 -21 27 -45 33 -72l-444 -201v-4l444 -201c-5 -26 -16 -50 -33 -72z" />
    <glyph glyph-name="equal" unicode="=" horiz-adv-x="650" 
d="M596 321h-541c-2 12 -3 24 -3 36c0 13 1 25 3 37h541c2 -12 3 -24 3 -37c0 -12 -1 -24 -3 -36zM596 151h-541c-2 12 -3 24 -3 36c0 13 1 25 3 37h541c2 -13 3 -26 3 -37c0 -13 -1 -25 -3 -36z" />
    <glyph glyph-name="greater" unicode="&#x3e;" horiz-adv-x="650" 
d="M596 227l-511 -237c-17 22 -28 46 -33 72l444 201v4l-444 201c6 27 17 51 33 72l511 -236c2 -14 3 -27 3 -39c0 -13 -1 -26 -3 -38z" />
    <glyph glyph-name="question" unicode="?" horiz-adv-x="482" 
d="M33 502v138c61 47 133 70 214 70c125 0 211 -61 211 -169c0 -68 -35 -117 -80 -146c-65 -40 -154 -78 -173 -177c-11 -2 -22 -3 -33 -3s-22 1 -32 3c-15 206 178 171 178 314c0 72 -48 108 -112 108c-27 0 -53 -6 -80 -19l-39 -119c-17 -4 -35 -4 -54 0zM118 0
c-8 40 -8 80 0 120c44 7 84 7 121 0c8 -40 8 -80 0 -120c-20 -4 -40 -6 -61 -6c-20 0 -40 2 -60 6z" />
    <glyph glyph-name="at" unicode="@" horiz-adv-x="863" 
d="M519 384l5 27c-11 4 -25 6 -42 6c-35 0 -65 -13 -90 -40c-49 -53 -67 -122 -67 -185c0 -42 11 -63 32 -63c32 0 64 29 97 87c33 59 55 115 65 168zM486 193h-4c-33 -72 -91 -130 -162 -130c-65 0 -94 56 -94 125c0 70 22 134 66 191s100 86 169 86c32 0 60 -6 83 -19
c8 13 25 19 52 19h33l-41 -220c-6 -31 -9 -56 -9 -73c0 -37 13 -56 38 -56c29 0 54 13 74 38c41 52 54 115 54 170c0 83 -25 149 -75 197c-49 49 -117 73 -203 73c-98 0 -179 -33 -243 -100c-63 -67 -95 -156 -95 -267c0 -90 26 -162 79 -215s123 -80 210 -80
c58 0 109 12 154 35c9 -14 14 -29 15 -46c-53 -29 -114 -44 -184 -44c-103 0 -188 31 -256 94c-67 62 -101 145 -101 249c0 124 40 226 121 306s184 120 309 120c97 0 178 -29 244 -86s99 -131 99 -224c0 -73 -22 -136 -67 -191c-45 -54 -105 -81 -180 -81
c-59 0 -89 31 -89 94c0 11 1 23 3 35z" />
    <glyph glyph-name="A" unicode="A" horiz-adv-x="805" 
d="M478 40l91 25l-59 157h-273l-60 -157l91 -25c3 -13 3 -27 0 -40h-248c-3 13 -3 27 0 40l79 24l249 656h119l248 -656l80 -24c3 -13 3 -26 0 -40h-317c-3 13 -3 27 0 40zM376 577h-5l-107 -283h218z" />
    <glyph glyph-name="B" unicode="B" horiz-adv-x="689" 
d="M470 534c0 79 -46 114 -149 114h-49v-234h53c97 0 145 40 145 120zM336 342h-64v-270h59c116 0 182 31 182 134s-62 136 -177 136zM45 40l91 25v590l-91 25c-3 13 -3 27 0 40h281c76 0 132 -7 191 -31c60 -23 95 -71 95 -143c0 -80 -51 -140 -131 -156v-4
c101 -7 174 -73 174 -170c0 -164 -151 -216 -310 -216h-300c-3 13 -3 27 0 40z" />
    <glyph glyph-name="C" unicode="C" horiz-adv-x="685" 
d="M537 82l49 129c19 4 37 4 55 0v-157c-71 -43 -153 -64 -248 -64c-107 0 -192 32 -254 97c-61 65 -92 157 -92 274c0 114 34 204 101 270c68 66 158 99 271 99c85 0 157 -17 217 -52v-153c-18 -4 -36 -4 -55 0l-46 115c-29 12 -62 18 -99 18c-85 0 -148 -27 -189 -82
s-61 -127 -61 -216c0 -184 80 -295 249 -295c37 0 71 6 102 17z" />
    <glyph glyph-name="D" unicode="D" horiz-adv-x="763" 
d="M353 648h-81v-576h81c165 0 229 101 229 288s-65 288 -229 288zM45 40l91 25v590l-91 25c-3 13 -3 27 0 40h309c253 0 367 -117 367 -360c0 -245 -112 -360 -367 -360h-309c-3 13 -3 27 0 40z" />
    <glyph glyph-name="E" unicode="E" horiz-adv-x="674" 
d="M45 40l91 25v590l-91 25c-3 13 -3 27 0 40h573v-163c-19 -4 -38 -4 -56 0l-34 91h-256v-237h185l25 62c15 3 30 3 45 0v-214c-15 -3 -30 -3 -45 0l-25 80h-185v-267h275l35 96c18 4 36 4 55 0v-168h-592c-3 13 -3 27 0 40z" />
    <glyph glyph-name="F" unicode="F" horiz-adv-x="627" 
d="M45 720h554v-163c-18 -4 -36 -4 -55 0l-35 91h-237v-261h171l25 66c15 3 30 3 45 0v-214c-16 -3 -31 -3 -45 0l-25 77h-171v-251l90 -25c3 -13 3 -26 0 -40h-317c-3 13 -3 27 0 40l91 25v590l-91 25c-3 13 -3 27 0 40z" />
    <glyph glyph-name="G" unicode="G" horiz-adv-x="755" 
d="M705 314l-51 -18v-306h-37c-34 0 -57 12 -68 35c-48 -23 -102 -35 -163 -35c-106 0 -189 32 -249 97s-90 156 -90 272c0 117 35 208 104 273s161 98 276 98c90 0 166 -17 227 -51v-153c-18 -4 -36 -4 -55 0l-46 115c-28 11 -63 17 -106 17c-177 0 -261 -108 -261 -297
c0 -89 20 -161 59 -215c40 -53 99 -80 178 -80c37 0 70 7 99 22v201l-118 25c-3 13 -3 27 0 40h301c3 -13 3 -27 0 -40z" />
    <glyph glyph-name="H" unicode="H" horiz-adv-x="842" 
d="M581 342h-309v-277l87 -25c3 -13 3 -27 0 -40h-314c-3 13 -3 27 0 40l91 25v590l-91 25c-3 13 -3 27 0 40h314c3 -13 3 -27 0 -40l-87 -25v-241h309v241l-88 25c-3 13 -3 27 0 40h314c3 -13 3 -27 0 -40l-90 -25v-590l90 -25c3 -13 3 -26 0 -40h-314c-3 13 -3 27 0 40
l88 25v277z" />
    <glyph glyph-name="I" unicode="I" horiz-adv-x="397" 
d="M136 65v590l-91 25c-3 13 -3 27 0 40h317c3 -13 3 -27 0 -40l-90 -25v-590l90 -25c3 -13 3 -27 0 -40h-317c-3 13 -3 27 0 40z" />
    <glyph glyph-name="J" unicode="J" horiz-adv-x="398" 
d="M130 76v579l-91 25c-3 13 -3 27 0 40h317c3 -13 3 -27 0 -40l-90 -25v-617c0 -63 -22 -112 -67 -147s-104 -53 -177 -53c-6 13 -10 27 -11 44c95 20 119 78 119 194z" />
    <glyph glyph-name="K" unicode="K" horiz-adv-x="773" 
d="M771 0h-202l-285 361l258 302l-61 17c-3 12 -3 25 0 40h254c3 -13 3 -27 0 -40l-105 -28l-211 -244l268 -343l84 -25c3 -13 3 -27 0 -40zM362 680l-90 -25v-590l90 -25c3 -13 3 -27 0 -40h-317c-3 13 -3 27 0 40l91 25v590l-91 25c-3 13 -3 27 0 40h317
c3 -13 3 -27 0 -40z" />
    <glyph glyph-name="L" unicode="L" horiz-adv-x="612" 
d="M606 185v-185h-561c-3 13 -3 27 0 40l91 25v590l-91 25c-3 13 -3 27 0 40h317c3 -13 3 -27 0 -40l-90 -25v-583h235l44 113c19 4 37 4 55 0z" />
    <glyph glyph-name="M" unicode="M" horiz-adv-x="1047" 
d="M522 176h4l218 544h241c3 -13 3 -27 0 -40l-91 -25l28 -590l91 -25c3 -13 3 -26 0 -40h-318c-3 13 -3 27 0 40l90 25l-23 493h-4l-225 -558h-92l-205 558h-4l-43 -493l91 -25c3 -13 3 -26 0 -40h-245c-3 13 -3 27 0 40l80 24l53 591l-91 25c-3 13 -3 27 0 40h246z" />
    <glyph glyph-name="N" unicode="N" horiz-adv-x="772" 
d="M545 0l-343 572h-4v-507l90 -25c3 -13 3 -27 0 -40h-243c-3 13 -3 27 0 40l80 24v592l-80 24c-3 13 -3 27 0 40h227l309 -516h4v451l-91 25c-3 13 -3 27 0 40h244c3 -13 3 -27 0 -40l-80 -24v-656h-113z" />
    <glyph glyph-name="O" unicode="O" horiz-adv-x="765" 
d="M47 360c0 240 115 370 336 370c223 0 335 -129 335 -370c0 -247 -112 -370 -335 -370s-336 126 -336 370zM383 658c-131 0 -197 -99 -197 -298s66 -298 197 -298c130 0 195 99 195 298s-65 298 -195 298z" />
    <glyph glyph-name="P" unicode="P" horiz-adv-x="657" 
d="M486 491c0 105 -62 157 -185 157h-29v-319h24c124 0 190 59 190 162zM302 257h-30v-192l90 -25c3 -13 3 -26 0 -40h-317c-3 13 -3 27 0 40l91 25v590l-91 25c-3 13 -3 27 0 40h255c219 0 323 -70 323 -221c0 -71 -27 -129 -82 -174s-134 -68 -239 -68z" />
    <glyph glyph-name="Q" unicode="Q" horiz-adv-x="765" 
d="M383 658c-131 0 -197 -99 -197 -298s66 -298 197 -298c130 0 195 99 195 298s-65 298 -195 298zM47 360c0 240 115 370 336 370c223 0 335 -129 335 -370c0 -219 -88 -340 -264 -364c12 -63 44 -99 113 -114c0 -17 -4 -31 -11 -44c-128 0 -217 57 -237 156
c-181 22 -272 144 -272 366z" />
    <glyph glyph-name="R" unicode="R" horiz-adv-x="733" 
d="M486 505c0 100 -58 143 -185 143h-29v-290h24c127 0 190 49 190 147zM532 0l-211 287h-49v-222l84 -25c3 -13 3 -26 0 -40h-311c-3 13 -3 27 0 40l91 25v590l-91 25c-3 13 -3 27 0 40h255c221 0 323 -58 323 -206c0 -95 -52 -167 -153 -202l183 -247l77 -25
c3 -13 3 -27 0 -40h-198z" />
    <glyph glyph-name="S" unicode="S" horiz-adv-x="619" 
d="M48 51v158c19 4 37 4 56 0l48 -130c34 -9 69 -14 105 -14c53 0 97 10 133 29c37 20 55 51 55 94c0 164 -392 54 -392 327c0 49 13 90 40 123c53 67 135 92 235 92c82 0 155 -17 220 -51v-153c-19 -4 -37 -4 -55 0l-45 117c-30 10 -62 15 -96 15c-47 0 -86 -10 -119 -29
s-49 -49 -49 -89c0 -86 98 -101 197 -128c34 -10 66 -21 95 -33c59 -24 102 -80 102 -160c0 -75 -30 -132 -90 -171c-59 -39 -131 -58 -215 -58c-91 0 -166 20 -225 61z" />
    <glyph glyph-name="T" unicode="T" horiz-adv-x="649" 
d="M580 540l-42 108h-145v-583l90 -25c3 -13 3 -26 0 -40h-317c-3 13 -3 27 0 40l90 25v583h-145l-42 -108c-18 -4 -36 -4 -55 0v180h621v-180c-18 -4 -36 -4 -55 0z" />
    <glyph glyph-name="U" unicode="U" horiz-adv-x="788" 
d="M127 304v351l-80 25c-3 13 -3 27 0 40h310c3 -13 3 -27 0 -40l-94 -25v-361c0 -156 45 -223 169 -223c113 0 169 75 169 224v360l-91 25c-3 13 -3 27 0 40h244c3 -13 3 -27 0 -40l-80 -24v-352c0 -205 -80 -314 -273 -314c-101 0 -172 25 -213 76s-61 131 -61 238z" />
    <glyph glyph-name="V" unicode="V" horiz-adv-x="793" 
d="M17 720h318c3 -13 3 -27 0 -40l-92 -25l190 -512h4l192 512l-92 25c-3 13 -3 27 0 40h249c3 -13 3 -27 0 -40l-79 -24l-247 -656h-118l-245 656l-80 24c-3 14 -3 27 0 40z" />
    <glyph glyph-name="W" unicode="W" horiz-adv-x="1072" 
d="M21 720h314c3 -13 3 -27 0 -40l-92 -25l127 -472h5l153 527h93l147 -527h5l130 472l-90 25c-3 13 -3 27 0 40h248c3 -13 3 -27 0 -40l-82 -25l-182 -655h-118l-136 486h-4l-141 -486h-118l-178 655l-81 25c-3 14 -3 27 0 40z" />
    <glyph glyph-name="X" unicode="X" horiz-adv-x="746" 
d="M496 65l-150 233l-159 -234l88 -24c3 -13 3 -27 0 -40h-255c-3 13 -3 27 0 40l77 23l207 302l-186 291l-78 24c-3 14 -3 27 0 40h320c3 -13 3 -27 0 -40l-81 -25l131 -204l140 204l-80 25c-3 13 -3 27 0 40h247c3 -13 3 -27 0 -40l-77 -23l-187 -273l205 -321l78 -23
c3 -13 3 -27 0 -40h-329c-3 13 -3 27 0 40z" />
    <glyph glyph-name="Y" unicode="Y" horiz-adv-x="728" 
d="M647 657l-207 -378v-214l90 -25c3 -13 3 -26 0 -40h-317c-3 13 -3 27 0 40l91 25v212l-212 379l-78 24c-3 14 -3 27 0 40h322c3 -13 3 -27 0 -40l-89 -25l158 -283h4l152 283l-86 25c-3 13 -3 27 0 40h247c3 -13 3 -27 0 -40z" />
    <glyph glyph-name="Z" unicode="Z" horiz-adv-x="651" 
d="M57 540v180h550v-66l-407 -582h323l44 113c18 4 36 4 55 0v-185h-593v66l404 582h-279l-41 -108c-19 -4 -37 -4 -56 0z" />
    <glyph glyph-name="bracketleft" unicode="[" horiz-adv-x="376" 
d="M335 684h-129v-808h129c2 -11 3 -22 3 -33c0 -12 -1 -23 -3 -33h-218l-5 5v930l5 5h218c2 -11 3 -22 3 -33c0 -12 -1 -23 -3 -33z" />
    <glyph glyph-name="backslash" unicode="\" horiz-adv-x="410" 
d="M387 -55h-80l-285 802l2 3h80l285 -802z" />
    <glyph glyph-name="bracketright" unicode="]" horiz-adv-x="376" 
d="M40 -124h129v808h-129c-2 10 -3 21 -3 33c0 11 1 22 3 33h218l5 -5v-930l-5 -5h-218c-2 10 -3 21 -3 33c0 11 1 22 3 33z" />
    <glyph glyph-name="asciicircum" unicode="^" horiz-adv-x="650" 
d="M68 270l225 430c21 3 43 3 64 0l224 -430c-19 -17 -43 -29 -70 -34l-184 355h-4l-185 -355c-26 5 -49 16 -70 34z" />
    <glyph glyph-name="underscore" unicode="_" horiz-adv-x="500" 
d="M0 -75h500v-50h-500v50z" />
    <glyph glyph-name="grave" unicode="`" horiz-adv-x="400" 
d="M177 781l114 -161c-13 -17 -28 -29 -44 -37l-139 140c19 22 42 41 69 58z" />
    <glyph glyph-name="a" unicode="a" horiz-adv-x="611" 
d="M511 361v-302h73c3 -17 3 -33 0 -48l-132 -21c-43 -7 -73 13 -73 68v9h-4c-41 -51 -96 -77 -167 -77c-96 0 -161 57 -161 154c-4 83 52 129 112 151c20 8 44 14 72 17c57 8 91 10 148 10v51c0 66 -42 99 -126 99c-28 0 -58 -3 -89 -9l-28 -89c-17 -4 -35 -4 -53 0v125
c79 27 150 41 213 41c143 0 215 -60 215 -179zM379 135v132h-19c-41 0 -77 -5 -116 -21c-39 -15 -63 -49 -63 -96c0 -53 30 -81 74 -81c45 0 97 29 124 66z" />
    <glyph glyph-name="b" unicode="b" horiz-adv-x="621" 
d="M237 397v-332c19 -6 38 -9 56 -9c118 0 158 116 158 219c0 43 -5 80 -20 119c-15 40 -45 65 -88 65c-38 0 -73 -21 -106 -62zM144 -10h-39v696h-73c-3 16 -3 32 0 48l141 23c48 8 64 -11 64 -59v-232h4c39 49 87 74 146 74c65 0 114 -25 147 -74c34 -49 51 -108 51 -177
c0 -87 -23 -158 -70 -215c-46 -56 -110 -84 -193 -84c-37 0 -71 8 -104 23c-12 -15 -37 -23 -74 -23z" />
    <glyph glyph-name="c" unicode="c" horiz-adv-x="528" 
d="M491 167v-128c-51 -33 -113 -49 -184 -49c-169 0 -267 94 -267 274c0 177 107 276 271 276c65 0 124 -14 175 -41v-123c-17 -4 -35 -4 -53 0l-28 89c-19 5 -39 8 -60 8c-113 0 -170 -70 -170 -209c0 -135 49 -204 173 -204c23 0 43 3 61 8l29 99c17 4 35 4 53 0z" />
    <glyph glyph-name="d" unicode="d" horiz-adv-x="624" 
d="M389 528v158h-73c-3 16 -3 32 0 48l141 23c48 8 64 -11 64 -59v-639h72c3 -17 3 -33 0 -48l-132 -21c-41 -7 -72 13 -72 68v7h-5c-37 -50 -86 -75 -149 -75c-65 0 -114 25 -147 74c-32 49 -48 110 -48 182c0 87 24 158 73 212c49 55 114 82 197 82c27 0 53 -4 79 -12z
M389 134v337c-16 4 -32 6 -49 6c-58 0 -100 -21 -126 -63c-26 -41 -39 -96 -39 -163c0 -120 35 -180 106 -180c41 0 83 24 108 63z" />
    <glyph glyph-name="e" unicode="e" horiz-adv-x="573" 
d="M523 266h-348c0 -143 54 -209 178 -209c29 0 55 4 79 11l29 94c17 4 35 4 53 0v-123c-60 -33 -127 -49 -202 -49c-171 0 -272 95 -272 275c0 172 97 275 261 275c72 0 127 -21 166 -63s59 -96 59 -162c0 -14 -1 -30 -3 -49zM299 475c-72 0 -112 -62 -121 -153l216 14
c0 88 -39 139 -95 139z" />
    <glyph glyph-name="f" unicode="f" horiz-adv-x="377" 
d="M375 470h-122v-412l73 -20c3 -12 3 -25 0 -38h-277c-3 13 -3 26 0 38l72 20v412h-72c-2 11 -2 23 0 35l72 21v46c0 127 77 188 190 188c37 0 75 -6 114 -17v-116c-17 -4 -35 -4 -52 0l-25 77c-72 4 -95 -34 -95 -118v-60h122c3 -19 3 -37 0 -56z" />
    <glyph glyph-name="g" unicode="g" horiz-adv-x="570" 
d="M497 354c0 -125 -73 -187 -218 -187c-41 0 -75 5 -104 15c-17 -15 -25 -30 -25 -45c0 -21 12 -34 39 -39c27 -4 39 -5 74 -5h111c115 0 173 -41 173 -124c0 -68 -37 -119 -96 -144c-57 -25 -119 -36 -188 -36c-81 0 -151 12 -209 37v123c17 3 34 3 49 0l28 -74
c27 -13 72 -20 136 -20c39 0 72 3 112 14c40 9 67 32 67 64c0 25 -24 37 -72 37h-122c-128 0 -192 41 -192 122c0 45 23 81 68 110v4c-45 31 -68 80 -68 148c0 120 76 186 219 186c45 0 84 -7 116 -20h158c4 -19 4 -37 0 -56h-86v-4c20 -29 30 -64 30 -106zM364 354
c0 46 -7 78 -20 95s-35 26 -65 26s-52 -9 -66 -27c-13 -17 -20 -49 -20 -94c0 -91 25 -121 86 -121c60 0 85 30 85 121z" />
    <glyph glyph-name="h" unicode="h" horiz-adv-x="678" 
d="M40 38l72 20v628h-72c-3 16 -3 32 0 48l140 23c47 8 64 -8 64 -59v-233h4c51 50 111 75 180 75c103 0 155 -68 155 -204v-278l73 -20c3 -12 3 -25 0 -38h-270c-3 13 -3 26 0 38l65 20v241c0 48 -1 70 -12 105s-36 50 -76 50c-43 0 -83 -17 -119 -52v-344l66 -20
c3 -12 3 -25 0 -38h-270c-3 13 -3 26 0 38z" />
    <glyph glyph-name="i" unicode="i" horiz-adv-x="354" 
d="M119 746c21 3 42 5 61 5s39 -2 60 -5c4 -19 6 -39 6 -62c0 -21 -2 -40 -6 -58c-20 -3 -39 -5 -58 -5c-20 0 -41 2 -63 5c-3 21 -5 41 -5 58c0 18 2 39 5 62zM49 38l73 20v408h-73c-3 16 -3 32 0 48l140 23c49 8 65 -11 65 -59v-420l72 -20c3 -12 3 -25 0 -38h-277
c-3 13 -3 26 0 38z" />
    <glyph glyph-name="j" unicode="j" horiz-adv-x="342" 
d="M111 20v446h-73c-3 16 -3 32 0 48l141 23c48 8 64 -11 64 -59v-485c0 -115 -79 -183 -208 -198c-10 12 -16 26 -18 43c39 17 65 38 76 65c12 27 18 66 18 117zM106 746c21 3 42 5 61 5s39 -2 60 -5c4 -19 6 -39 6 -62c0 -21 -2 -40 -6 -58c-20 -3 -39 -5 -58 -5
c-20 0 -41 2 -63 5c-3 21 -5 41 -5 58c0 18 2 39 5 62z" />
    <glyph glyph-name="k" unicode="k" horiz-adv-x="646" 
d="M649 0h-186l-209 269v5l197 201l-64 17c-3 12 -3 25 0 38h241c3 -13 3 -26 0 -38l-90 -22l-153 -156l201 -259l63 -17c3 -11 3 -24 0 -38zM37 38l73 20v628h-73c-3 17 -3 33 0 48l140 23c48 8 65 -12 65 -59v-640l65 -20c3 -11 3 -24 0 -38h-270c-3 13 -3 26 0 38z" />
    <glyph glyph-name="l" unicode="l" horiz-adv-x="342" 
d="M37 38l73 20v628h-73c-3 17 -3 33 0 48l140 23c48 8 65 -12 65 -59v-640l72 -20c3 -11 3 -24 0 -38h-277c-3 13 -3 26 0 38z" />
    <glyph glyph-name="m" unicode="m" horiz-adv-x="1013" 
d="M49 38l73 20v408h-73c-3 16 -3 32 0 48l140 23c49 8 65 -10 65 -59v-13h4c53 50 108 75 167 75c67 0 113 -26 139 -79h4c55 53 115 79 182 79c123 0 168 -72 168 -204v-278l72 -20c3 -12 3 -25 0 -38h-270c-3 13 -3 26 0 38l66 20v241c0 36 0 53 -8 84
c-9 42 -33 71 -87 71c-39 0 -76 -15 -111 -45c4 -23 6 -47 6 -73v-278l63 -20c3 -12 3 -25 0 -38h-259c-3 13 -3 26 0 38l64 20v241c0 35 0 54 -7 85c-9 40 -32 70 -81 70c-37 0 -75 -17 -112 -52v-344l65 -20c3 -12 3 -25 0 -38h-270c-3 13 -3 26 0 38z" />
    <glyph glyph-name="n" unicode="n" horiz-adv-x="688" 
d="M49 38l73 20v408h-73c-3 16 -3 32 0 48l140 23c51 8 65 -11 65 -59v-13h4c51 50 109 75 174 75c116 0 161 -73 161 -204v-278l72 -20c3 -12 3 -25 0 -38h-270c-3 13 -3 26 0 38l66 20v241c0 22 -1 40 -3 55c-3 29 -12 70 -37 87c-35 29 -123 7 -167 -39v-344l65 -20
c3 -12 3 -25 0 -38h-270c-3 13 -3 26 0 38z" />
    <glyph glyph-name="o" unicode="o" horiz-adv-x="601" 
d="M301 474c-84 0 -126 -70 -126 -209s42 -209 126 -209c79 0 126 66 126 209s-47 209 -126 209zM561 265c0 -177 -92 -275 -260 -275c-169 0 -261 98 -261 275c0 175 93 275 261 275s260 -100 260 -275z" />
    <glyph glyph-name="p" unicode="p" horiz-adv-x="631" 
d="M248 397v-339c18 -4 35 -6 50 -6c53 0 93 21 121 62c29 42 43 95 43 159c0 44 -6 82 -21 121c-15 40 -46 65 -87 65s-76 -21 -106 -62zM43 -162l73 20v608h-73c-3 16 -3 32 0 48l140 23c51 8 65 -11 65 -59v-12h4c39 49 88 74 147 74c64 0 113 -24 146 -73
c34 -48 51 -107 51 -177c0 -85 -25 -157 -74 -214s-114 -86 -195 -86c-28 0 -54 3 -79 10v-142l72 -20c3 -11 3 -24 0 -38h-277c-3 13 -3 25 0 38z" />
    <glyph glyph-name="q" unicode="q" horiz-adv-x="620" 
d="M387 134v331c-15 5 -31 8 -49 8c-115 0 -163 -89 -163 -222c0 -120 35 -180 104 -180c45 0 81 21 108 63zM315 -162l72 20v207h-4c-34 -50 -83 -75 -148 -75c-142 0 -195 129 -195 256c0 83 23 153 70 209c47 57 110 85 191 85c39 0 73 -8 104 -23c16 20 33 23 76 23h38
v-682l73 -20c3 -11 3 -24 0 -38h-277c-3 13 -3 26 0 38z" />
    <glyph glyph-name="r" unicode="r" horiz-adv-x="481" 
d="M122 58v408h-73c-3 16 -3 32 0 48l140 23c51 8 65 -11 65 -59v-13h4c44 50 100 75 167 75c21 0 39 -2 55 -5v-148c-19 -4 -36 -4 -53 0l-20 64c-27 5 -56 2 -85 -8c-29 -9 -52 -23 -68 -41v-344l72 -20c3 -11 3 -24 0 -38h-277c-3 13 -3 26 0 38z" />
    <glyph glyph-name="s" unicode="s" horiz-adv-x="504" 
d="M101 162l28 -93c25 -9 54 -13 87 -13c75 0 134 26 134 83c0 104 -299 33 -299 238c0 39 12 71 35 96c47 52 111 67 187 67c60 0 117 -12 170 -36v-120c-17 -4 -35 -4 -52 0l-27 83c-22 5 -46 7 -73 7c-80 0 -120 -25 -120 -74c0 -113 300 -38 300 -235
c0 -58 -23 -102 -70 -131s-103 -44 -170 -44c-74 0 -135 15 -183 44v128c18 4 36 4 53 0z" />
    <glyph glyph-name="t" unicode="t" horiz-adv-x="380" 
d="M102 182v288h-73c-2 12 -2 24 0 35l73 21v145l124 23l8 -7v-161h131c4 -19 4 -37 0 -56h-131v-253c0 -59 4 -90 21 -123s53 -45 112 -40c4 -19 4 -38 0 -56c-25 -5 -51 -8 -78 -8c-123 0 -187 56 -187 192z" />
    <glyph glyph-name="u" unicode="u" horiz-adv-x="675" 
d="M443 133v333h-73c-3 16 -3 32 0 48l141 23c49 8 64 -11 64 -59v-419h72c3 -17 3 -33 0 -48l-132 -21c-41 -7 -72 13 -72 68v9h-4c-47 -51 -105 -77 -174 -77c-55 0 -93 17 -117 44c-35 46 -44 109 -43 191v241h-73c-3 16 -3 32 0 48l140 23c49 8 65 -11 65 -59v-249
c0 -47 1 -70 12 -103s35 -50 74 -50c45 0 85 19 120 57z" />
    <glyph glyph-name="v" unicode="v" horiz-adv-x="613" 
d="M368 0h-114l-187 473l-59 19c-3 12 -3 25 0 38h272c3 -13 3 -25 0 -38l-72 -20l135 -344h4l135 344l-76 20c-3 12 -3 25 0 38h212c3 -13 3 -26 0 -38l-62 -18z" />
    <glyph glyph-name="w" unicode="w" horiz-adv-x="863" 
d="M295 150h4l131 370h84l102 -370h4l114 322l-76 20c-3 12 -3 25 0 38h208c3 -13 3 -26 0 -38l-60 -18l-169 -474h-114l-88 319h-4l-115 -319h-114l-132 473l-59 19c-3 12 -3 25 0 38h267c3 -13 3 -26 0 -38l-71 -20z" />
    <glyph glyph-name="x" unicode="x" horiz-adv-x="591" 
d="M79 56l152 202l-152 218l-52 16c-3 12 -3 25 0 38h267c3 -13 3 -26 0 -38l-56 -16l93 -132l99 131l-57 17c-3 12 -3 25 0 38h201c3 -13 3 -25 0 -38l-62 -17l-142 -188l162 -231l60 -18c3 -12 3 -25 0 -38h-283c-3 12 -3 25 0 38l63 18l-101 145l-109 -144l60 -19
c3 -12 3 -25 0 -38h-213c-3 13 -3 26 0 38z" />
    <glyph glyph-name="y" unicode="y" horiz-adv-x="609" 
d="M56 -192v140c18 4 36 4 53 0l20 -64c63 -4 115 32 158 109l-217 479l-62 20c-3 12 -3 25 0 38h267c3 -13 3 -26 0 -38l-61 -20l140 -311h4l120 311l-75 20c-3 12 -3 25 0 38h211c3 -13 3 -26 0 -38l-62 -18l-147 -375c-41 -104 -82 -180 -124 -228
c-41 -48 -97 -72 -167 -72c-22 0 -41 3 -58 9z" />
    <glyph glyph-name="z" unicode="z" horiz-adv-x="534" 
d="M31 60l290 398v4h-197l-24 -75c-17 -4 -35 -4 -53 0v143h444v-60l-291 -398v-4h227l24 80c16 4 33 4 52 0v-148h-472v60z" />
    <glyph glyph-name="braceleft" unicode="{" horiz-adv-x="376" 
d="M339 -190h-34c-115 0 -173 60 -173 179v77c0 119 -25 181 -105 181c-4 20 -4 42 0 63c80 0 105 62 105 181v80c0 119 58 179 173 179h34c4 -21 4 -43 0 -63h-28c-60 0 -84 -34 -84 -123v-93c0 -101 -23 -162 -110 -190v-4c85 -29 110 -90 110 -190v-90
c0 -89 24 -124 84 -124h28c4 -21 4 -43 0 -63z" />
    <glyph glyph-name="bar" unicode="|" horiz-adv-x="288" 
d="M180 770l5 -5v-990l-5 -5h-71l-5 5v990l5 5h71z" />
    <glyph glyph-name="braceright" unicode="}" horiz-adv-x="376" 
d="M69 -190h-34c-2 10 -3 20 -3 31c0 10 1 21 3 32h28c60 0 84 35 84 124v90c0 100 25 161 110 190v4c-87 28 -110 89 -110 190v93c0 89 -24 123 -84 123h-28c-4 20 -4 42 0 63h34c115 0 173 -60 173 -179v-80c0 -119 25 -181 105 -181c4 -21 4 -43 0 -63
c-80 0 -105 -62 -105 -181v-77c0 -119 -58 -179 -173 -179z" />
    <glyph glyph-name="asciitilde" unicode="~" horiz-adv-x="650" 
d="M117 207c-11 -2 -22 -3 -33 -3s-22 1 -32 3c0 116 50 195 145 195c49 0 106 -29 141 -58c36 -28 86 -57 123 -57c48 0 72 51 73 110c10 2 21 3 32 3s22 -1 33 -3c0 -121 -46 -195 -141 -195c-51 0 -108 29 -147 57c-37 29 -86 58 -119 58c-49 0 -72 -47 -75 -110z" />
    <glyph glyph-name="uni00A0" unicode="&#xa0;" horiz-adv-x="269" 
 />
    <glyph glyph-name="exclamdown" unicode="&#xa1;" horiz-adv-x="338" 
d="M229 530c8 -40 8 -80 0 -120c-44 -7 -84 -7 -121 0c-8 40 -8 80 0 120c20 4 40 6 61 6c20 0 40 -2 60 -6zM92 -170l43 482c12 2 24 3 35 3c12 0 23 -1 34 -3l42 -482c-28 -3 -54 -5 -77 -5c-26 0 -52 2 -77 5z" />
    <glyph glyph-name="cent" unicode="&#xa2;" horiz-adv-x="609" 
d="M525 248v-129c-44 -28 -95 -44 -154 -48v-92c-11 -2 -23 -3 -34 -3s-22 1 -33 3v93c-147 13 -229 106 -229 271c0 161 88 259 229 275v102c11 2 22 3 34 3c11 0 22 -1 33 -3v-101c54 -3 104 -17 149 -40v-123c-18 -4 -35 -4 -52 0l-29 90c-21 5 -41 7 -59 7
c-114 0 -171 -70 -171 -209c0 -136 50 -204 174 -204c21 0 42 3 61 8l29 100c16 4 33 4 52 0z" />
    <glyph glyph-name="sterling" unicode="&#xa3;" horiz-adv-x="609" 
d="M533 676v-141c-18 -4 -36 -4 -53 0l-37 105c-13 3 -26 5 -41 5c-77 0 -114 -51 -114 -134c0 -35 3 -76 10 -124h149c2 -11 3 -21 3 -32s-1 -22 -3 -32h-142c2 -18 3 -36 3 -53c0 -71 -27 -117 -99 -158v-4h263l31 88c19 4 37 4 56 0v-196h-499v55c87 35 115 102 115 203
c0 15 -1 37 -4 65h-96c-2 10 -3 21 -3 32c0 10 1 21 3 32h89c-6 45 -9 82 -9 111c0 135 93 212 240 212c56 0 102 -11 138 -34z" />
    <glyph glyph-name="currency" unicode="&#xa4;" horiz-adv-x="609" 
d="M109 361c0 41 12 78 35 112l-113 104c14 25 33 43 57 56l104 -112c35 24 72 36 113 36c42 0 80 -12 114 -37l100 113c27 -16 46 -35 58 -57l-111 -104c23 -35 34 -72 34 -111c0 -42 -12 -80 -36 -113l113 -104c-14 -23 -33 -41 -57 -56l-102 113c-67 -48 -159 -48 -226 0
l-103 -113c-22 14 -41 33 -58 57l113 103c-23 34 -35 72 -35 113zM225 445c-21 -23 -32 -51 -32 -84s11 -61 32 -84s48 -35 80 -35s58 12 79 35s32 51 32 84s-11 61 -32 84s-47 35 -79 35s-59 -12 -80 -35z" />
    <glyph glyph-name="yen" unicode="&#xa5;" horiz-adv-x="609" 
d="M541 637l-133 -259h139c3 -17 3 -34 0 -51h-168v-76h168c3 -17 3 -35 0 -52h-168v-134l91 -25c3 -13 3 -26 0 -40h-313c-3 13 -3 27 0 40l90 25v134h-167c-3 18 -3 35 0 52h167v76h-167c-3 17 -3 34 0 51h138l-138 258l-60 24c-3 14 -3 27 0 40h272c3 -13 3 -27 0 -40
l-62 -25l116 -216h4l110 216l-59 25c-3 13 -3 27 0 40h199c3 -13 3 -27 0 -40z" />
    <glyph glyph-name="brokenbar" unicode="&#xa6;" horiz-adv-x="288" 
d="M185 330l-5 -5h-71l-5 5v385l5 5h71l5 -5v-385zM104 210l5 5h71l5 -5v-385l-5 -5h-71l-5 5v385z" />
    <glyph glyph-name="section" unicode="&#xa7;" horiz-adv-x="542" 
d="M448 693v-123c-17 -4 -34 -4 -51 0l-26 85c-21 7 -45 10 -72 10c-65 0 -117 -24 -117 -76c0 -110 313 -63 313 -270c0 -59 -23 -105 -70 -138c20 -17 41 -55 41 -96c0 -51 -21 -91 -64 -119c-43 -29 -92 -43 -148 -43c-73 0 -131 16 -176 47v123c19 4 36 4 52 0l26 -88
c25 -9 53 -14 86 -14c71 0 128 25 128 80c0 23 -14 41 -26 53c-6 6 -17 12 -32 19s-27 11 -35 14l-42 15c-56 19 -85 31 -126 59s-62 69 -62 122c0 54 27 98 80 132c-21 17 -39 55 -39 90c0 47 20 84 59 112c40 29 89 43 147 43c61 0 113 -12 154 -37zM177 450
c-29 -21 -43 -46 -43 -75s14 -54 43 -73s65 -35 110 -50c45 -14 73 -24 84 -31c23 17 35 42 35 75c0 51 -42 87 -87 100l-77 25c-29 10 -51 20 -65 29z" />
    <glyph glyph-name="dieresis" unicode="&#xa8;" horiz-adv-x="400" 
d="M143 623c-17 -3 -35 -4 -55 -4c-21 0 -39 1 -54 4c-3 16 -4 34 -4 54c0 21 1 39 4 55c21 3 39 4 54 4s34 -1 55 -4c3 -19 4 -37 4 -55c0 -17 -1 -35 -4 -54zM361 623c-17 -3 -35 -4 -55 -4c-21 0 -39 1 -54 4c-3 16 -4 34 -4 54c0 21 1 39 4 55c21 3 39 4 54 4
s34 -1 55 -4c3 -19 4 -37 4 -55c0 -17 -1 -35 -4 -54z" />
    <glyph glyph-name="copyright" unicode="&#xa9;" horiz-adv-x="737" 
d="M45 360c0 99 29 178 87 236c59 59 137 88 235 88c100 0 179 -29 238 -87s88 -137 88 -237s-29 -179 -88 -237s-138 -87 -238 -87c-99 0 -177 29 -235 88s-87 137 -87 236zM367 96c163 0 257 99 257 264c0 167 -94 264 -257 264c-160 0 -254 -99 -254 -264
s94 -264 254 -264zM473 438l-19 57c-15 4 -30 6 -43 6c-77 0 -110 -49 -110 -146c0 -84 33 -137 105 -137c15 0 31 3 49 9l22 63c10 2 20 2 31 0v-91c-34 -20 -78 -30 -131 -30c-108 0 -180 66 -180 186c0 131 80 194 197 194c47 0 84 -7 113 -22v-89c-11 -2 -23 -2 -34 0z
" />
    <glyph glyph-name="ordfeminine" unicode="&#xaa;" horiz-adv-x="427" 
d="M355 549v-198h49v-37l-89 -13c-35 -5 -53 8 -53 41v6h-4c-27 -31 -63 -47 -108 -47c-69 0 -113 35 -113 104c0 49 28 82 76 97c49 16 88 20 145 21v29c0 45 -28 68 -83 68c-21 0 -40 -2 -56 -6l-17 -57h-41v84c49 18 97 27 142 27c89 0 152 -35 152 -119zM258 400v82h-7
c-29 0 -46 -2 -73 -10s-41 -29 -41 -60c0 -37 15 -56 44 -56c28 0 61 19 77 44z" />
    <glyph glyph-name="guillemotleft" unicode="&#xab;" horiz-adv-x="600" 
d="M52 268v4l229 224c19 -11 35 -26 48 -44l-156 -182l156 -183c-13 -19 -29 -33 -48 -44zM272 268v4l229 224c19 -12 35 -27 47 -44l-156 -182l156 -183c-13 -19 -28 -34 -47 -44z" />
    <glyph glyph-name="logicalnot" unicode="&#xac;" horiz-adv-x="650" 
d="M525 140v209h-470c-2 12 -3 24 -3 36c0 13 1 25 3 37h539l5 -5v-277c-25 -4 -49 -4 -74 0z" />
    <glyph glyph-name="uni00AD" unicode="&#xad;" horiz-adv-x="406" 
d="M348 258h-290c-2 12 -3 25 -3 38c0 12 1 25 3 38h290c2 -13 3 -26 3 -38c0 -13 -1 -26 -3 -38z" />
    <glyph glyph-name="registered" unicode="&#xae;" horiz-adv-x="481" 
d="M32 530c0 128 81 209 208 209c128 0 209 -81 209 -209c0 -127 -81 -208 -209 -208c-127 0 -208 81 -208 208zM126 651c-26 -29 -39 -69 -39 -121s13 -92 39 -121s64 -43 114 -43s88 14 114 43c27 29 40 69 40 121s-13 92 -40 121c-26 29 -64 44 -114 44s-88 -15 -114 -44
zM226 512h-16v-62l17 -5v-16h-82v16l17 5v165l-17 6v19h85c67 0 96 -15 96 -62c0 -28 -16 -55 -47 -60l55 -68l16 -5v-16h-62zM275 578c0 28 -16 35 -51 35h-14v-77h16c35 0 49 11 49 42z" />
    <glyph glyph-name="overscore" unicode="&#xaf;" horiz-adv-x="400" 
d="M346 620h-293c-2 12 -3 25 -3 38c0 12 1 25 3 38h293c2 -13 3 -25 3 -38s-1 -26 -3 -38z" />
    <glyph glyph-name="degree" unicode="&#xb0;" horiz-adv-x="423" 
d="M32 550c0 53 17 96 50 129c34 34 77 51 129 51c53 0 96 -17 129 -51c34 -33 51 -76 51 -129c0 -52 -17 -95 -51 -129c-33 -33 -76 -50 -129 -50c-52 0 -95 17 -129 50c-33 34 -50 77 -50 129zM211 438c61 0 101 43 101 112s-40 112 -101 112c-63 0 -101 -43 -101 -112
s38 -112 101 -112z" />
    <glyph glyph-name="plusminus" unicode="&#xb1;" horiz-adv-x="650" 
d="M595 353h-232v-215c-11 -2 -24 -3 -37 -3c-14 0 -27 1 -39 3v215h-232c-2 12 -3 24 -3 36c0 14 1 26 3 37h232v212c11 2 23 3 38 3c14 0 27 -1 38 -3v-212h232c4 -21 4 -53 0 -73zM595 0h-540c-2 11 -3 23 -3 36s1 26 3 37h540c2 -12 3 -24 3 -37c0 -14 -1 -26 -3 -36z
" />
    <glyph glyph-name="two.superior" unicode="&#xb2;" 
d="M163 564l2 -4h185v-90h-304v48l116 104c49 43 77 79 77 131c0 45 -30 71 -70 71c-14 0 -28 -3 -43 -9l-31 -80h-34v101c33 25 76 37 130 37c85 0 154 -40 154 -116c0 -32 -8 -57 -35 -82c-13 -13 -23 -22 -32 -29c-8 -7 -22 -17 -42 -31z" />
    <glyph glyph-name="three.superior" unicode="&#xb3;" 
d="M91 743h-34v98c36 21 80 32 133 32c84 0 149 -33 149 -98c0 -53 -41 -88 -96 -92v-4c73 -8 110 -40 110 -95c0 -41 -18 -71 -53 -91s-78 -30 -128 -30c-47 0 -87 10 -122 30v102h35l28 -77c17 -5 34 -7 51 -7c49 0 83 25 83 74c0 45 -30 67 -89 67h-31v45h28
c53 0 79 18 79 69c0 40 -22 60 -65 60c-17 0 -34 -3 -52 -10z" />
    <glyph glyph-name="acute" unicode="&#xb4;" horiz-adv-x="400" 
d="M108 620l114 161c25 -16 48 -35 69 -58l-138 -140c-17 8 -32 20 -45 37z" />
    <glyph glyph-name="mu" unicode="&#xb5;" horiz-adv-x="673" 
d="M97 518l126 22l6 -6v-318c0 -85 19 -140 88 -140c44 0 91 25 119 57v385l126 22l6 -6v-476h69c3 -15 3 -31 0 -46l-137 -22c-43 -7 -64 14 -64 63v14h-4c-43 -51 -91 -77 -146 -77c-29 0 -53 8 -74 24h-4v-37c0 -56 5 -106 14 -151c-17 -13 -40 -22 -71 -26
c-23 39 -37 85 -44 136s-10 119 -10 206v376z" />
    <glyph glyph-name="paragraph" unicode="&#xb6;" horiz-adv-x="601" 
d="M563 680l-93 -25v-770c-25 -4 -49 -4 -73 0v764h-76v-764c-12 -2 -24 -3 -37 -3c-12 0 -24 1 -36 3v414c-65 0 -116 19 -154 58s-57 91 -57 154c0 139 93 209 256 209h270c3 -13 3 -27 0 -40z" />
    <glyph glyph-name="middot" unicode="&#xb7;" horiz-adv-x="269" 
d="M70 360c27 3 48 4 63 4c17 0 38 -1 63 -4c3 -23 5 -44 5 -63c0 -18 -2 -39 -5 -62c-44 -7 -82 -7 -126 0c-3 23 -5 44 -5 62c0 19 2 40 5 63z" />
    <glyph glyph-name="cedilla" unicode="&#xb8;" horiz-adv-x="400" 
d="M217 7h63c13 -30 20 -61 20 -92c0 -73 -38 -121 -113 -121c-37 0 -66 9 -87 26c2 17 8 33 17 50c15 -7 29 -11 42 -11c45 0 66 37 66 86c0 21 -3 42 -8 62z" />
    <glyph glyph-name="one.superior" unicode="&#xb9;" 
d="M87 503l73 14v287h-93v37l132 28c47 9 63 -5 63 -57v-295l74 -14v-33h-249v33z" />
    <glyph glyph-name="ordmasculine" unicode="&#xba;" horiz-adv-x="429" 
d="M396 485c0 -123 -60 -184 -181 -184s-181 61 -181 184c0 117 64 183 181 183s181 -66 181 -183zM296 485c0 89 -27 133 -81 133s-81 -44 -81 -133s27 -134 81 -134s81 45 81 134z" />
    <glyph glyph-name="guillemotright" unicode="&#xbb;" horiz-adv-x="600" 
d="M319 496l229 -224v-4l-229 -225c-19 11 -35 26 -47 44l156 183l-156 182c13 19 28 33 47 44zM99 496l230 -224v-4l-230 -225c-17 9 -32 24 -47 44l156 183l-156 182c13 19 28 33 47 44z" />
    <glyph glyph-name="onequarter" unicode="&#xbc;" horiz-adv-x="914" 
d="M669 42v64h-181v41l215 256h68v-251h54v-46h-54v-64l54 -10v-32h-210v32zM552 155l1 -3h116v132l-4 1zM92 340l73 14v287h-93v37l132 28c47 9 63 -5 63 -57v-295l74 -14v-33h-249v33zM216 0l429 730c23 -10 42 -21 57 -33l-429 -731c-21 7 -40 19 -57 34z" />
    <glyph glyph-name="onehalf" unicode="&#xbd;" horiz-adv-x="914" 
d="M667 94l2 -4h185v-90h-304v48l116 104c49 43 77 79 77 131c0 45 -30 71 -70 71c-14 0 -28 -3 -43 -9l-31 -80h-34v101c33 25 76 37 130 37c85 0 154 -40 154 -116c0 -32 -8 -57 -35 -82c-13 -13 -23 -22 -32 -29c-8 -7 -22 -17 -42 -31zM74 340l73 14v287h-93v37l132 28
c47 9 63 -5 63 -57v-295l74 -14v-33h-249v33zM198 0l429 730c23 -10 42 -21 57 -33l-429 -731c-21 7 -40 19 -57 34z" />
    <glyph glyph-name="threequarters" unicode="&#xbe;" horiz-adv-x="914" 
d="M113 580h-34v98c36 21 80 32 133 32c84 0 149 -33 149 -98c0 -53 -41 -88 -96 -92v-4c73 -8 110 -40 110 -95c0 -41 -18 -71 -53 -91s-78 -30 -128 -30c-47 0 -87 10 -122 30v102h35l28 -77c17 -5 34 -7 51 -7c49 0 83 25 83 74c0 45 -30 67 -89 67h-31v45h28
c53 0 79 18 79 69c0 40 -22 60 -65 60c-17 0 -34 -3 -52 -10zM687 42v64h-181v41l215 256h68v-251h54v-46h-54v-64l54 -10v-32h-210v32zM570 155l1 -3h116v132l-4 1zM236 0l429 730c23 -10 42 -21 57 -33l-429 -731c-21 7 -40 19 -57 34z" />
    <glyph glyph-name="questiondown" unicode="&#xbf;" horiz-adv-x="482" 
d="M449 28v-138c-61 -47 -133 -70 -214 -70c-125 0 -211 61 -211 169c0 68 35 117 80 145c65 42 154 78 173 178c11 2 22 3 33 3s22 -1 32 -3c15 -206 -178 -171 -178 -314c0 -72 48 -108 112 -108c27 0 53 6 80 19l39 119c17 4 35 4 54 0zM364 530c8 -40 8 -80 0 -120
c-44 -7 -84 -7 -121 0c-8 40 -8 80 0 120c20 4 40 6 61 6c20 0 40 -2 60 -6z" />
    <glyph glyph-name="Agrave" unicode="&#xc0;" horiz-adv-x="805" 
d="M478 40l91 25l-59 157h-273l-60 -157l91 -25c3 -13 3 -27 0 -40h-248c-3 13 -3 27 0 40l79 24l249 656h119l248 -656l80 -24c3 -13 3 -26 0 -40h-317c-3 13 -3 27 0 40zM376 577h-5l-107 -283h218zM329 935l181 -113c-5 -20 -14 -37 -27 -52l-196 84c10 31 24 58 42 81z
" />
    <glyph glyph-name="Aacute" unicode="&#xc1;" horiz-adv-x="805" 
d="M478 40l91 25l-59 157h-273l-60 -157l91 -25c3 -13 3 -27 0 -40h-248c-3 13 -3 27 0 40l79 24l249 656h119l248 -656l80 -24c3 -13 3 -26 0 -40h-317c-3 13 -3 27 0 40zM376 577h-5l-107 -283h218zM317 822l181 113c18 -23 32 -50 42 -81l-196 -84c-13 15 -22 32 -27 52z
" />
    <glyph glyph-name="Acircumflex" unicode="&#xc2;" horiz-adv-x="805" 
d="M478 40l91 25l-59 157h-273l-60 -157l91 -25c3 -13 3 -27 0 -40h-248c-3 13 -3 27 0 40l79 24l249 656h119l248 -656l80 -24c3 -13 3 -26 0 -40h-317c-3 13 -3 27 0 40zM376 577h-5l-107 -283h218zM251 816l152 119h10l151 -119c-7 -17 -18 -33 -32 -46l-124 79l-125 -79
c-12 11 -23 27 -32 46z" />
    <glyph glyph-name="Atilde" unicode="&#xc3;" horiz-adv-x="805" 
d="M478 40l91 25l-59 157h-273l-60 -157l91 -25c3 -13 3 -27 0 -40h-248c-3 13 -3 27 0 40l79 24l249 656h119l248 -656l80 -24c3 -13 3 -26 0 -40h-317c-3 13 -3 27 0 40zM376 577h-5l-107 -283h218zM305 779c-18 -4 -36 -4 -54 0c0 75 36 130 93 130c19 0 43 -9 70 -28
c28 -19 48 -28 60 -28c23 0 35 26 36 57c18 4 36 4 54 0c0 -73 -31 -129 -88 -129c-24 0 -50 9 -78 28c-27 19 -46 28 -56 28c-19 0 -33 -30 -37 -58z" />
    <glyph glyph-name="Adieresis" unicode="&#xc4;" horiz-adv-x="805" 
d="M478 40l91 25l-59 157h-273l-60 -157l91 -25c3 -13 3 -27 0 -40h-248c-3 13 -3 27 0 40l79 24l249 656h119l248 -656l80 -24c3 -13 3 -26 0 -40h-317c-3 13 -3 27 0 40zM376 577h-5l-107 -283h218zM351 789c-19 -2 -37 -3 -55 -3c-19 0 -37 1 -55 3c-2 18 -3 36 -3 54
c0 19 1 37 3 55c18 2 36 3 55 3c18 0 36 -1 55 -3c2 -18 3 -36 3 -55c0 -18 -1 -36 -3 -54zM573 789c-19 -2 -37 -3 -55 -3c-19 0 -37 1 -55 3c-2 18 -3 36 -3 54c0 19 1 37 3 55c18 2 36 3 55 3c18 0 36 -1 55 -3c2 -18 3 -36 3 -55c0 -18 -1 -36 -3 -54z" />
    <glyph glyph-name="Aring" unicode="&#xc5;" horiz-adv-x="805" 
d="M478 40l91 25l-59 157h-273l-60 -157l91 -25c3 -13 3 -27 0 -40h-248c-3 13 -3 27 0 40l79 24l249 656h119l248 -656l80 -24c3 -13 3 -26 0 -40h-317c-3 13 -3 27 0 40zM376 577h-5l-107 -283h218zM331 782c-19 18 -29 42 -29 72s10 54 29 72c19 19 44 28 75 28
s56 -9 75 -28c20 -18 30 -42 30 -72s-10 -54 -30 -72c-19 -18 -44 -27 -75 -27s-56 9 -75 27zM372 894c-17 -21 -17 -59 0 -80c17 -20 51 -20 68 0c19 21 19 59 0 80c-17 21 -51 21 -68 0z" />
    <glyph glyph-name="AE" unicode="&#xc6;" horiz-adv-x="1063" 
d="M245 720h761v-163c-19 -4 -37 -4 -56 0l-34 91h-255v-248h185l25 62c15 3 29 3 44 0v-215c-15 -3 -30 -3 -44 0l-25 81h-185v-256h274l35 96c18 4 36 4 55 0v-168h-591c-3 13 -3 27 0 40l91 25v263h-228l-128 -263l92 -25c3 -13 3 -27 0 -40h-251c-3 13 -3 27 0 40l79 24
l283 585l-127 31c-3 13 -3 27 0 40zM332 400h193v248h-73z" />
    <glyph glyph-name="Ccedilla" unicode="&#xc7;" horiz-adv-x="685" 
d="M537 82l49 129c19 4 37 4 55 0v-157c-53 -33 -115 -53 -186 -60c10 -28 15 -54 15 -79c0 -73 -38 -121 -113 -121c-37 0 -66 9 -87 26c2 17 8 33 17 50c15 -7 29 -11 42 -11c44 0 66 30 66 89c0 11 -1 25 -4 42c-107 1 -191 33 -252 98s-92 156 -92 273
c0 114 34 204 101 270c68 66 158 99 271 99c85 0 157 -17 217 -52v-153c-18 -4 -36 -4 -55 0l-46 115c-29 12 -62 18 -99 18c-85 0 -148 -27 -189 -82s-61 -127 -61 -216c0 -184 80 -295 249 -295c37 0 71 6 102 17z" />
    <glyph glyph-name="Egrave" unicode="&#xc8;" horiz-adv-x="674" 
d="M45 40l91 25v590l-91 25c-3 13 -3 27 0 40h573v-163c-19 -4 -38 -4 -56 0l-34 91h-256v-237h185l25 62c15 3 30 3 45 0v-214c-15 -3 -30 -3 -45 0l-25 80h-185v-267h275l35 96c18 4 36 4 55 0v-168h-592c-3 13 -3 27 0 40zM246 935l181 -113c-5 -20 -14 -37 -27 -52
l-196 84c10 31 24 58 42 81z" />
    <glyph glyph-name="Eacute" unicode="&#xc9;" horiz-adv-x="674" 
d="M45 40l91 25v590l-91 25c-3 13 -3 27 0 40h573v-163c-19 -4 -38 -4 -56 0l-34 91h-256v-237h185l25 62c15 3 30 3 45 0v-214c-15 -3 -30 -3 -45 0l-25 80h-185v-267h275l35 96c18 4 36 4 55 0v-168h-592c-3 13 -3 27 0 40zM292 822l181 113c18 -23 32 -50 42 -81
l-196 -84c-13 15 -22 32 -27 52z" />
    <glyph glyph-name="Ecircumflex" unicode="&#xca;" horiz-adv-x="674" 
d="M45 40l91 25v590l-91 25c-3 13 -3 27 0 40h573v-163c-19 -4 -38 -4 -56 0l-34 91h-256v-237h185l25 62c15 3 30 3 45 0v-214c-15 -3 -30 -3 -45 0l-25 80h-185v-267h275l35 96c18 4 36 4 55 0v-168h-592c-3 13 -3 27 0 40zM206 816l152 119h10l151 -119
c-7 -17 -18 -33 -32 -46l-124 79l-125 -79c-12 11 -23 27 -32 46z" />
    <glyph glyph-name="Edieresis" unicode="&#xcb;" horiz-adv-x="674" 
d="M45 40l91 25v590l-91 25c-3 13 -3 27 0 40h573v-163c-19 -4 -38 -4 -56 0l-34 91h-256v-237h185l25 62c15 3 30 3 45 0v-214c-15 -3 -30 -3 -45 0l-25 80h-185v-267h275l35 96c18 4 36 4 55 0v-168h-592c-3 13 -3 27 0 40zM304 789c-19 -2 -37 -3 -55 -3
c-19 0 -37 1 -55 3c-2 18 -3 36 -3 54c0 19 1 37 3 55c18 2 36 3 55 3c17 0 36 -1 55 -3c2 -18 3 -36 3 -55c0 -18 -1 -36 -3 -54zM526 789c-19 -2 -37 -3 -55 -3c-19 0 -37 1 -55 3c-2 18 -3 36 -3 54c0 19 1 37 3 55c18 2 36 3 55 3c17 0 36 -1 55 -3c2 -18 3 -36 3 -55
c0 -18 -1 -36 -3 -54z" />
    <glyph glyph-name="Igrave" unicode="&#xcc;" horiz-adv-x="398" 
d="M136 65v590l-91 25c-3 13 -3 27 0 40h317c3 -13 3 -27 0 -40l-90 -25v-590l90 -25c3 -13 3 -27 0 -40h-317c-3 13 -3 27 0 40zM95 935l181 -113c-5 -20 -14 -37 -27 -52l-196 84c10 31 24 58 42 81z" />
    <glyph glyph-name="Iacute" unicode="&#xcd;" horiz-adv-x="398" 
d="M136 65v590l-91 25c-3 13 -3 27 0 40h317c3 -13 3 -27 0 -40l-90 -25v-590l90 -25c3 -13 3 -27 0 -40h-317c-3 13 -3 27 0 40zM133 822l181 113c18 -23 32 -50 42 -81l-196 -84c-13 15 -22 32 -27 52z" />
    <glyph glyph-name="Icircumflex" unicode="&#xce;" horiz-adv-x="398" 
d="M136 65v590l-91 25c-3 13 -3 27 0 40h317c3 -13 3 -27 0 -40l-90 -25v-590l90 -25c3 -13 3 -27 0 -40h-317c-3 13 -3 27 0 40zM48 816l152 119h10l151 -119c-7 -17 -18 -33 -32 -46l-124 79l-125 -79c-12 11 -23 27 -32 46z" />
    <glyph glyph-name="Idieresis" unicode="&#xcf;" horiz-adv-x="398" 
d="M128 65v590l-91 25c-3 13 -3 27 0 40h317c3 -13 3 -27 0 -40l-90 -25v-590l90 -25c3 -13 3 -27 0 -40h-317c-3 13 -3 27 0 40zM140 789c-19 -2 -38 -3 -55 -3c-19 0 -37 1 -55 3c-2 18 -3 36 -3 54c0 19 1 37 3 55c18 2 36 3 55 3c18 0 36 -1 55 -3c2 -18 3 -36 3 -55
c0 -18 -1 -36 -3 -54zM362 789c-19 -2 -38 -3 -55 -3c-19 0 -37 1 -55 3c-2 18 -3 36 -3 54c0 19 1 37 3 55c18 2 36 3 55 3c18 0 36 -1 55 -3c2 -18 3 -36 3 -55c0 -18 -1 -36 -3 -54z" />
    <glyph glyph-name="Eth" unicode="&#xd0;" horiz-adv-x="766" 
d="M422 348h-150v-276h80c165 0 230 101 230 288c0 185 -66 288 -230 288h-80v-239h150c2 -10 3 -20 3 -31c0 -10 -1 -20 -3 -30zM45 409h90v246l-90 25c-3 13 -3 27 0 40h309c253 0 367 -117 367 -360c0 -245 -112 -360 -367 -360h-309c-3 13 -3 27 0 40l90 25v283h-90
c-2 10 -3 20 -3 30c0 11 1 21 3 31z" />
    <glyph glyph-name="Ntilde" unicode="&#xd1;" horiz-adv-x="772" 
d="M545 0l-343 572h-4v-507l90 -25c3 -13 3 -27 0 -40h-243c-3 13 -3 27 0 40l80 24v592l-80 24c-3 13 -3 27 0 40h227l309 -516h4v451l-91 25c-3 13 -3 27 0 40h244c3 -13 3 -27 0 -40l-80 -24v-656h-113zM297 784c-18 -4 -36 -4 -54 0c0 75 36 130 93 130
c19 0 43 -9 70 -28c28 -19 48 -28 60 -28c23 0 35 26 36 57c18 4 36 4 54 0c0 -73 -31 -129 -88 -129c-24 0 -50 9 -78 28c-27 19 -46 28 -56 28c-19 0 -33 -30 -37 -58z" />
    <glyph glyph-name="Ograve" unicode="&#xd2;" horiz-adv-x="765" 
d="M47 360c0 240 115 370 336 370c223 0 335 -129 335 -370c0 -247 -112 -370 -335 -370s-336 126 -336 370zM383 658c-131 0 -197 -99 -197 -298s66 -298 197 -298c130 0 195 99 195 298s-65 298 -195 298zM296 935l181 -113c-5 -20 -14 -37 -27 -52l-196 84
c10 31 24 58 42 81z" />
    <glyph glyph-name="Oacute" unicode="&#xd3;" horiz-adv-x="765" 
d="M47 360c0 240 115 370 336 370c223 0 335 -129 335 -370c0 -247 -112 -370 -335 -370s-336 126 -336 370zM383 658c-131 0 -197 -99 -197 -298s66 -298 197 -298c130 0 195 99 195 298s-65 298 -195 298zM303 822l181 113c18 -23 32 -50 42 -81l-196 -84
c-13 15 -22 32 -27 52z" />
    <glyph glyph-name="Ocircumflex" unicode="&#xd4;" horiz-adv-x="765" 
d="M47 360c0 240 115 370 336 370c223 0 335 -129 335 -370c0 -247 -112 -370 -335 -370s-336 126 -336 370zM383 658c-131 0 -197 -99 -197 -298s66 -298 197 -298c130 0 195 99 195 298s-65 298 -195 298zM226 816l152 119h10l151 -119c-7 -17 -18 -33 -32 -46l-124 79
l-125 -79c-12 11 -23 27 -32 46z" />
    <glyph glyph-name="Otilde" unicode="&#xd5;" horiz-adv-x="765" 
d="M280 784c-18 -4 -36 -4 -54 0c0 75 36 130 93 130c19 0 43 -9 70 -28c28 -19 48 -28 60 -28c23 0 35 26 36 57c18 4 36 4 54 0c0 -73 -31 -129 -88 -129c-24 0 -50 9 -78 28c-27 19 -46 28 -56 28c-19 0 -33 -30 -37 -58zM47 360c0 240 115 370 336 370
c223 0 335 -129 335 -370c0 -247 -112 -370 -335 -370s-336 126 -336 370zM383 658c-131 0 -197 -99 -197 -298s66 -298 197 -298c130 0 195 99 195 298s-65 298 -195 298z" />
    <glyph glyph-name="Odieresis" unicode="&#xd6;" horiz-adv-x="765" 
d="M47 360c0 240 115 370 336 370c223 0 335 -129 335 -370c0 -247 -112 -370 -335 -370s-336 126 -336 370zM383 658c-131 0 -197 -99 -197 -298s66 -298 197 -298c130 0 195 99 195 298s-65 298 -195 298zM326 789c-19 -2 -38 -3 -55 -3c-19 0 -37 1 -55 3
c-2 18 -3 36 -3 54c0 19 1 37 3 55c18 2 36 3 55 3c17 0 36 -1 55 -3c2 -18 3 -36 3 -55c0 -18 -1 -36 -3 -54zM548 789c-19 -2 -37 -3 -55 -3c-19 0 -37 1 -55 3c-2 18 -3 36 -3 54c0 19 1 37 3 55c18 2 36 3 55 3c18 0 36 -1 55 -3c2 -18 3 -36 3 -55c0 -18 -1 -36 -3 -54
z" />
    <glyph glyph-name="multiply" unicode="&#xd7;" horiz-adv-x="650" 
d="M601 488l-223 -223l223 -222c-14 -20 -32 -38 -53 -54l-224 223l-222 -223c-21 16 -39 34 -53 54l223 222l-223 223c14 20 32 38 53 54l222 -223l224 223c21 -16 39 -34 53 -54z" />
    <glyph glyph-name="Oslash" unicode="&#xd8;" horiz-adv-x="765" 
d="M578 360c0 78 -9 139 -28 184h-4l-285 -438c31 -29 71 -44 122 -44c130 0 195 99 195 298zM383 658c-131 0 -197 -99 -197 -298c0 -79 11 -144 33 -194h4l287 442c-31 33 -74 50 -127 50zM47 360c0 240 115 370 336 370c71 0 131 -13 180 -40l54 82c22 -9 40 -21 54 -35
l-54 -85c67 -62 101 -159 101 -292c0 -247 -112 -370 -335 -370c-69 0 -127 12 -174 35l-60 -91c-22 9 -40 21 -54 35l59 92c-71 61 -107 161 -107 299z" />
    <glyph glyph-name="Ugrave" unicode="&#xd9;" horiz-adv-x="788" 
d="M127 304v351l-80 25c-3 13 -3 27 0 40h310c3 -13 3 -27 0 -40l-94 -25v-361c0 -156 45 -223 169 -223c113 0 169 75 169 224v360l-91 25c-3 13 -3 27 0 40h244c3 -13 3 -27 0 -40l-80 -24v-352c0 -205 -80 -314 -273 -314c-101 0 -172 25 -213 76s-61 131 -61 238z
M313 935l181 -113c-5 -20 -14 -37 -27 -52l-196 84c10 31 24 58 42 81z" />
    <glyph glyph-name="Uacute" unicode="&#xda;" horiz-adv-x="788" 
d="M127 304v351l-80 25c-3 13 -3 27 0 40h310c3 -13 3 -27 0 -40l-94 -25v-361c0 -156 45 -223 169 -223c113 0 169 75 169 224v360l-91 25c-3 13 -3 27 0 40h244c3 -13 3 -27 0 -40l-80 -24v-352c0 -205 -80 -314 -273 -314c-101 0 -172 25 -213 76s-61 131 -61 238z
M354 822l181 113c18 -23 32 -50 42 -81l-196 -84c-13 15 -22 32 -27 52z" />
    <glyph glyph-name="Ucircumflex" unicode="&#xdb;" horiz-adv-x="788" 
d="M127 304v351l-80 25c-3 13 -3 27 0 40h310c3 -13 3 -27 0 -40l-94 -25v-361c0 -156 45 -223 169 -223c113 0 169 75 169 224v360l-91 25c-3 13 -3 27 0 40h244c3 -13 3 -27 0 -40l-80 -24v-352c0 -205 -80 -314 -273 -314c-101 0 -172 25 -213 76s-61 131 -61 238z
M264 816l152 119h10l151 -119c-7 -17 -18 -33 -32 -46l-124 79l-125 -79c-12 11 -23 27 -32 46z" />
    <glyph glyph-name="Udieresis" unicode="&#xdc;" horiz-adv-x="788" 
d="M127 304v351l-80 25c-3 13 -3 27 0 40h310c3 -13 3 -27 0 -40l-94 -25v-361c0 -156 45 -223 169 -223c113 0 169 75 169 224v360l-91 25c-3 13 -3 27 0 40h244c3 -13 3 -27 0 -40l-80 -24v-352c0 -205 -80 -314 -273 -314c-101 0 -172 25 -213 76s-61 131 -61 238z
M365 789c-19 -2 -38 -3 -55 -3c-19 0 -37 1 -55 3c-2 18 -3 36 -3 54c0 19 1 37 3 55c18 2 36 3 55 3c18 0 36 -1 55 -3c2 -18 3 -36 3 -55c0 -18 -1 -36 -3 -54zM587 789c-19 -2 -37 -3 -55 -3c-19 0 -37 1 -55 3c-2 18 -3 36 -3 54c0 19 1 37 3 55c18 2 36 3 55 3
c18 0 36 -1 55 -3c2 -18 3 -36 3 -55c0 -18 -1 -36 -3 -54z" />
    <glyph glyph-name="Yacute" unicode="&#xdd;" horiz-adv-x="728" 
d="M647 657l-207 -378v-214l90 -25c3 -13 3 -26 0 -40h-317c-3 13 -3 27 0 40l91 25v212l-212 379l-78 24c-3 14 -3 27 0 40h322c3 -13 3 -27 0 -40l-89 -25l158 -283h4l152 283l-86 25c-3 13 -3 27 0 40h247c3 -13 3 -27 0 -40zM335 822l181 113c18 -23 32 -50 42 -81
l-196 -84c-13 15 -22 32 -27 52z" />
    <glyph glyph-name="Thorn" unicode="&#xde;" horiz-adv-x="626" 
d="M136 65v590l-91 25c-3 13 -3 27 0 40h317c3 -13 3 -27 0 -40l-90 -25v-82h14c216 0 309 -59 309 -207c0 -151 -96 -214 -323 -217v-84l90 -25c3 -13 3 -27 0 -40h-317c-3 13 -3 27 0 40zM272 502v-283c127 1 182 35 182 142s-54 138 -182 141z" />
    <glyph glyph-name="germandbls" unicode="&#xdf;" horiz-adv-x="655" 
d="M320 65c21 -5 41 -7 62 -7c64 0 114 25 114 85c0 32 -26 59 -58 80c-45 30 -105 70 -105 155c0 77 41 136 112 156v58c0 68 -31 102 -93 102c-64 0 -99 -37 -99 -109v-580l-5 -5h-199c-3 13 -3 26 0 38l72 20v410h-72c-3 12 -3 24 0 36l72 22v44c0 72 29 125 76 152
s96 38 155 38c100 0 223 -30 223 -177v-78c-88 -1 -122 -39 -122 -90c0 -31 20 -61 31 -73l38 -29c20 -14 32 -22 35 -25c47 -35 70 -76 70 -124c0 -56 -23 -99 -69 -129c-45 -30 -98 -45 -158 -45c-34 0 -67 4 -98 13c2 23 8 44 18 62z" />
    <glyph glyph-name="agrave" unicode="&#xe0;" horiz-adv-x="611" 
d="M511 361v-302h73c3 -17 3 -33 0 -48l-132 -21c-43 -7 -73 13 -73 68v9h-4c-41 -51 -96 -77 -167 -77c-96 0 -161 57 -161 154c-4 83 52 129 112 151c20 8 44 14 72 17c57 8 91 10 148 10v51c0 66 -42 99 -126 99c-28 0 -58 -3 -89 -9l-28 -89c-17 -4 -35 -4 -53 0v125
c79 27 150 41 213 41c143 0 215 -60 215 -179zM379 135v132h-19c-41 0 -77 -5 -116 -21c-39 -15 -63 -49 -63 -96c0 -53 30 -81 74 -81c45 0 97 29 124 66zM249 781l114 -161c-13 -17 -28 -29 -44 -37l-139 140c19 22 42 41 69 58z" />
    <glyph glyph-name="aacute" unicode="&#xe1;" horiz-adv-x="611" 
d="M511 361v-302h73c3 -17 3 -33 0 -48l-132 -21c-43 -7 -73 13 -73 68v9h-4c-41 -51 -96 -77 -167 -77c-96 0 -161 57 -161 154c-4 83 52 129 112 151c20 8 44 14 72 17c57 8 91 10 148 10v51c0 66 -42 99 -126 99c-28 0 -58 -3 -89 -9l-28 -89c-17 -4 -35 -4 -53 0v125
c79 27 150 41 213 41c143 0 215 -60 215 -179zM379 135v132h-19c-41 0 -77 -5 -116 -21c-39 -15 -63 -49 -63 -96c0 -53 30 -81 74 -81c45 0 97 29 124 66zM256 620l114 161c25 -16 48 -35 69 -58l-138 -140c-17 8 -32 20 -45 37z" />
    <glyph glyph-name="acircumflex" unicode="&#xe2;" horiz-adv-x="611" 
d="M511 361v-302h73c3 -17 3 -33 0 -48l-132 -21c-43 -7 -73 13 -73 68v9h-4c-41 -51 -96 -77 -167 -77c-96 0 -161 57 -161 154c-4 83 52 129 112 151c20 8 44 14 72 17c57 8 91 10 148 10v51c0 66 -42 99 -126 99c-28 0 -58 -3 -89 -9l-28 -89c-17 -4 -35 -4 -53 0v125
c79 27 150 41 213 41c143 0 215 -60 215 -179zM379 135v132h-19c-41 0 -77 -5 -116 -21c-39 -15 -63 -49 -63 -96c0 -53 30 -81 74 -81c45 0 97 29 124 66zM164 621l135 161h10l134 -161c-11 -17 -25 -29 -42 -38l-97 97l-98 -97c-17 8 -31 21 -42 38z" />
    <glyph glyph-name="atilde" unicode="&#xe3;" horiz-adv-x="611" 
d="M511 361v-302h73c3 -17 3 -33 0 -48l-132 -21c-43 -7 -73 13 -73 68v9h-4c-41 -51 -96 -77 -167 -77c-96 0 -161 57 -161 154c-4 83 52 129 112 151c20 8 44 14 72 17c57 8 91 10 148 10v51c0 66 -42 99 -126 99c-28 0 -58 -3 -89 -9l-28 -89c-17 -4 -35 -4 -53 0v125
c79 27 150 41 213 41c143 0 215 -60 215 -179zM379 135v132h-19c-41 0 -77 -5 -116 -21c-39 -15 -63 -49 -63 -96c0 -53 30 -81 74 -81c45 0 97 29 124 66zM203 601c-18 -4 -36 -4 -54 0c0 75 36 130 93 130c19 0 43 -9 70 -28c28 -19 48 -28 60 -28c23 0 35 26 36 57
c18 4 36 4 54 0c0 -73 -31 -129 -88 -129c-24 0 -50 9 -78 28c-27 19 -46 28 -56 28c-19 0 -33 -30 -37 -58z" />
    <glyph glyph-name="adieresis" unicode="&#xe4;" horiz-adv-x="611" 
d="M511 361v-302h73c3 -17 3 -33 0 -48l-132 -21c-43 -7 -73 13 -73 68v9h-4c-41 -51 -96 -77 -167 -77c-96 0 -161 57 -161 154c-4 83 52 129 112 151c20 8 44 14 72 17c57 8 91 10 148 10v51c0 66 -42 99 -126 99c-28 0 -58 -3 -89 -9l-28 -89c-17 -4 -35 -4 -53 0v125
c79 27 150 41 213 41c143 0 215 -60 215 -179zM379 135v132h-19c-41 0 -77 -5 -116 -21c-39 -15 -63 -49 -63 -96c0 -53 30 -81 74 -81c45 0 97 29 124 66zM243 623c-17 -3 -35 -4 -55 -4c-21 0 -39 1 -54 4c-3 16 -4 34 -4 54c0 21 1 39 4 55c21 3 39 4 54 4s34 -1 55 -4
c3 -19 4 -37 4 -55c0 -17 -1 -35 -4 -54zM461 623c-17 -3 -35 -4 -55 -4c-21 0 -39 1 -54 4c-3 16 -4 34 -4 54c0 21 1 39 4 55c21 3 39 4 54 4s34 -1 55 -4c3 -19 4 -37 4 -55c0 -17 -1 -35 -4 -54z" />
    <glyph glyph-name="aring" unicode="&#xe5;" horiz-adv-x="611" 
d="M511 361v-302h73c3 -17 3 -33 0 -48l-132 -21c-43 -7 -73 13 -73 68v9h-4c-41 -51 -96 -77 -167 -77c-96 0 -161 57 -161 154c-4 83 52 129 112 151c20 8 44 14 72 17c57 8 91 10 148 10v51c0 66 -42 99 -126 99c-28 0 -58 -3 -89 -9l-28 -89c-17 -4 -35 -4 -53 0v125
c79 27 150 41 213 41c143 0 215 -60 215 -179zM379 135v132h-19c-41 0 -77 -5 -116 -21c-39 -15 -63 -49 -63 -96c0 -53 30 -81 74 -81c45 0 97 29 124 66zM222 610c-19 18 -29 42 -29 72s10 54 29 72c19 19 44 28 75 28s56 -9 75 -28c20 -18 30 -42 30 -72s-10 -54 -30 -72
c-19 -18 -44 -27 -75 -27s-56 9 -75 27zM263 722c-17 -21 -17 -59 0 -80c17 -20 51 -20 68 0c19 21 19 59 0 80c-17 21 -51 21 -68 0z" />
    <glyph glyph-name="ae" unicode="&#xe6;" horiz-adv-x="908" 
d="M83 374v125c85 27 154 41 209 41c83 0 140 -22 172 -67h4c41 45 97 67 170 67c67 0 121 -21 162 -62s62 -95 62 -162c0 -15 -1 -32 -4 -50h-347c0 -143 52 -209 176 -209c26 0 53 3 81 10l29 96c17 4 35 4 52 0v-125c-60 -32 -126 -48 -199 -48c-103 0 -178 33 -223 98
c-59 -65 -131 -98 -216 -98c-96 0 -164 53 -164 156c0 70 35 114 87 138c39 17 70 26 119 31c49 7 79 7 128 7v51c0 66 -43 99 -128 99c-29 0 -59 -3 -89 -9l-28 -89c-17 -4 -35 -4 -53 0zM181 153c0 -55 25 -83 74 -83c52 0 100 23 145 69c-13 34 -20 77 -20 128
c-133 0 -199 -38 -199 -114zM515 322l214 13c0 87 -40 140 -95 140c-66 0 -106 -51 -119 -153z" />
    <glyph glyph-name="ccedilla" unicode="&#xe7;" horiz-adv-x="528" 
d="M491 167v-128c-37 -23 -82 -39 -135 -46c10 -27 15 -53 15 -78c0 -73 -38 -121 -113 -121c-37 0 -66 9 -87 26c2 17 8 33 17 50c15 -7 29 -11 42 -11c44 0 66 30 66 89c0 11 -1 25 -4 42c-161 7 -252 99 -252 274c0 177 107 276 271 276c65 0 124 -14 175 -41v-123
c-17 -4 -35 -4 -53 0l-28 89c-19 5 -39 8 -60 8c-113 0 -170 -70 -170 -209c0 -135 49 -204 173 -204c23 0 43 3 61 8l29 99c17 4 35 4 53 0z" />
    <glyph glyph-name="egrave" unicode="&#xe8;" horiz-adv-x="573" 
d="M523 266h-348c0 -143 54 -209 178 -209c29 0 55 4 79 11l29 94c17 4 35 4 53 0v-123c-60 -33 -127 -49 -202 -49c-171 0 -272 95 -272 275c0 172 97 275 261 275c72 0 127 -21 166 -63s59 -96 59 -162c0 -14 -1 -30 -3 -49zM299 475c-72 0 -112 -62 -121 -153l216 14
c0 88 -39 139 -95 139zM248 781l114 -161c-13 -17 -28 -29 -44 -37l-139 140c19 22 42 41 69 58z" />
    <glyph glyph-name="eacute" unicode="&#xe9;" horiz-adv-x="573" 
d="M523 266h-348c0 -143 54 -209 178 -209c29 0 55 4 79 11l29 94c17 4 35 4 53 0v-123c-60 -33 -127 -49 -202 -49c-171 0 -272 95 -272 275c0 172 97 275 261 275c72 0 127 -21 166 -63s59 -96 59 -162c0 -14 -1 -30 -3 -49zM299 475c-72 0 -112 -62 -121 -153l216 14
c0 88 -39 139 -95 139zM252 620l114 161c25 -16 48 -35 69 -58l-138 -140c-17 8 -32 20 -45 37z" />
    <glyph glyph-name="ecircumflex" unicode="&#xea;" horiz-adv-x="573" 
d="M523 266h-348c0 -143 54 -209 178 -209c29 0 55 4 79 11l29 94c17 4 35 4 53 0v-123c-60 -33 -127 -49 -202 -49c-171 0 -272 95 -272 275c0 172 97 275 261 275c72 0 127 -21 166 -63s59 -96 59 -162c0 -14 -1 -30 -3 -49zM299 475c-72 0 -112 -62 -121 -153l216 14
c0 88 -39 139 -95 139zM156 621l135 161h10l134 -161c-11 -17 -25 -29 -42 -38l-97 97l-98 -97c-17 8 -31 21 -42 38z" />
    <glyph glyph-name="edieresis" unicode="&#xeb;" horiz-adv-x="573" 
d="M523 266h-348c0 -143 54 -209 178 -209c29 0 55 4 79 11l29 94c17 4 35 4 53 0v-123c-60 -33 -127 -49 -202 -49c-171 0 -272 95 -272 275c0 172 97 275 261 275c72 0 127 -21 166 -63s59 -96 59 -162c0 -14 -1 -30 -3 -49zM299 475c-72 0 -112 -62 -121 -153l216 14
c0 88 -39 139 -95 139zM235 623c-17 -3 -35 -4 -55 -4c-21 0 -39 1 -54 4c-3 16 -4 34 -4 54c0 21 1 39 4 55c21 3 39 4 54 4s34 -1 55 -4c3 -19 4 -37 4 -55c0 -17 -1 -35 -4 -54zM453 623c-17 -3 -35 -4 -55 -4c-21 0 -39 1 -54 4c-3 16 -4 34 -4 54c0 21 1 39 4 55
c21 3 39 4 54 4s34 -1 55 -4c3 -19 4 -37 4 -55c0 -17 -1 -35 -4 -54z" />
    <glyph glyph-name="igrave" unicode="&#xec;" horiz-adv-x="354" 
d="M49 38l73 20v408h-73c-3 16 -3 32 0 48l140 23c49 8 65 -11 65 -59v-420l72 -20c3 -12 3 -25 0 -38h-277c-3 13 -3 26 0 38zM121 781l114 -161c-13 -17 -28 -29 -44 -37l-139 140c19 22 42 41 69 58z" />
    <glyph glyph-name="iacute" unicode="&#xed;" horiz-adv-x="354" 
d="M49 38l73 20v408h-73c-3 16 -3 32 0 48l140 23c49 8 65 -11 65 -59v-420l72 -20c3 -12 3 -25 0 -38h-277c-3 13 -3 26 0 38zM109 620l114 161c25 -16 48 -35 69 -58l-138 -140c-17 8 -32 20 -45 37z" />
    <glyph glyph-name="icircumflex" unicode="&#xee;" horiz-adv-x="354" 
d="M44 38l73 20v408h-73c-3 16 -3 32 0 48l140 23c49 8 65 -11 65 -59v-420l72 -20c3 -12 3 -25 0 -38h-277c-3 13 -3 26 0 38zM30 621l135 161h10l134 -161c-11 -17 -25 -29 -42 -38l-97 97l-98 -97c-17 8 -31 21 -42 38z" />
    <glyph glyph-name="idieresis" unicode="&#xef;" horiz-adv-x="354" 
d="M42 38l73 20v408h-73c-3 16 -3 32 0 48l140 23c49 8 65 -11 65 -59v-420l72 -20c3 -12 3 -25 0 -38h-277c-3 13 -3 26 0 38zM109 623c-17 -3 -35 -4 -55 -4c-21 0 -39 1 -54 4c-3 16 -4 34 -4 54c0 21 1 39 4 55c21 3 39 4 54 4s34 -1 55 -4c3 -19 4 -37 4 -55
c0 -17 -1 -35 -4 -54zM327 623c-17 -3 -35 -4 -55 -4c-21 0 -39 1 -54 4c-3 16 -4 34 -4 54c0 21 1 39 4 55c21 3 39 4 54 4s34 -1 55 -4c3 -19 4 -37 4 -55c0 -17 -1 -35 -4 -54z" />
    <glyph glyph-name="eth" unicode="&#xf0;" horiz-adv-x="607" 
d="M427 253c0 123 -34 191 -125 191c-85 0 -127 -64 -127 -191c0 -129 46 -197 126 -197s126 66 126 197zM191 604l96 48v4c-47 30 -105 43 -172 38c-3 19 -4 40 -2 65c8 1 20 1 36 1c97 0 173 -20 230 -61l110 56c11 -16 19 -32 24 -49l-86 -44c93 -88 140 -228 140 -376
c0 -87 -22 -158 -65 -213s-110 -83 -201 -83c-172 0 -261 92 -261 263c0 163 98 257 253 257c43 0 80 -8 109 -25l4 2c-13 53 -36 97 -69 130l-121 -62c-12 17 -20 34 -25 49z" />
    <glyph glyph-name="ntilde" unicode="&#xf1;" horiz-adv-x="688" 
d="M49 38l73 20v408h-73c-3 16 -3 32 0 48l140 23c51 8 65 -11 65 -59v-13h4c51 50 109 75 174 75c116 0 161 -73 161 -204v-278l72 -20c3 -12 3 -25 0 -38h-270c-3 13 -3 26 0 38l66 20v241c0 22 -1 40 -3 55c-3 29 -12 70 -37 87c-35 29 -123 7 -167 -39v-344l65 -20
c3 -12 3 -25 0 -38h-270c-3 13 -3 26 0 38zM255 601c-18 -4 -36 -4 -54 0c0 75 36 130 93 130c19 0 43 -9 70 -28c28 -19 48 -28 60 -28c23 0 35 26 36 57c18 4 36 4 54 0c0 -73 -31 -129 -88 -129c-24 0 -50 9 -78 28c-27 19 -46 28 -56 28c-19 0 -33 -30 -37 -58z" />
    <glyph glyph-name="ograve" unicode="&#xf2;" horiz-adv-x="601" 
d="M301 474c-84 0 -126 -70 -126 -209s42 -209 126 -209c79 0 126 66 126 209s-47 209 -126 209zM561 265c0 -177 -92 -275 -260 -275c-169 0 -261 98 -261 275c0 175 93 275 261 275s260 -100 260 -275zM248 781l114 -161c-13 -17 -28 -29 -44 -37l-139 140
c19 22 42 41 69 58z" />
    <glyph glyph-name="oacute" unicode="&#xf3;" horiz-adv-x="601" 
d="M301 474c-84 0 -126 -70 -126 -209s42 -209 126 -209c79 0 126 66 126 209s-47 209 -126 209zM561 265c0 -177 -92 -275 -260 -275c-169 0 -261 98 -261 275c0 175 93 275 261 275s260 -100 260 -275zM249 620l114 161c25 -16 48 -35 69 -58l-138 -140
c-17 8 -32 20 -45 37z" />
    <glyph glyph-name="ocircumflex" unicode="&#xf4;" horiz-adv-x="601" 
d="M301 474c-84 0 -126 -70 -126 -209s42 -209 126 -209c79 0 126 66 126 209s-47 209 -126 209zM561 265c0 -177 -92 -275 -260 -275c-169 0 -261 98 -261 275c0 175 93 275 261 275s260 -100 260 -275zM161 621l135 161h10l134 -161c-11 -17 -25 -29 -42 -38l-97 97
l-98 -97c-17 8 -31 21 -42 38z" />
    <glyph glyph-name="otilde" unicode="&#xf5;" horiz-adv-x="601" 
d="M301 474c-84 0 -126 -70 -126 -209s42 -209 126 -209c79 0 126 66 126 209s-47 209 -126 209zM561 265c0 -177 -92 -275 -260 -275c-169 0 -261 98 -261 275c0 175 93 275 261 275s260 -100 260 -275zM198 601c-18 -4 -36 -4 -54 0c0 75 36 130 93 130c19 0 43 -9 70 -28
c28 -19 48 -28 60 -28c23 0 35 26 36 57c18 4 36 4 54 0c0 -73 -31 -129 -88 -129c-24 0 -50 9 -78 28c-27 19 -46 28 -56 28c-19 0 -33 -30 -37 -58z" />
    <glyph glyph-name="odieresis" unicode="&#xf6;" horiz-adv-x="601" 
d="M246 623c-17 -3 -35 -4 -55 -4c-21 0 -39 1 -54 4c-3 16 -4 34 -4 54c0 21 1 39 4 55c21 3 39 4 54 4s34 -1 55 -4c3 -19 4 -37 4 -55c0 -17 -1 -35 -4 -54zM464 623c-17 -3 -35 -4 -55 -4c-21 0 -39 1 -54 4c-3 16 -4 34 -4 54c0 21 1 39 4 55c21 3 39 4 54 4
s34 -1 55 -4c3 -19 4 -37 4 -55c0 -17 -1 -35 -4 -54zM301 474c-84 0 -126 -70 -126 -209s42 -209 126 -209c79 0 126 66 126 209s-47 209 -126 209zM561 265c0 -177 -92 -275 -260 -275c-169 0 -261 98 -261 275c0 175 93 275 261 275s260 -100 260 -275z" />
    <glyph glyph-name="divide" unicode="&#xf7;" horiz-adv-x="650" 
d="M262 139c27 3 48 4 63 4c17 0 38 -1 63 -4c3 -23 5 -44 5 -63c0 -18 -2 -39 -5 -62c-44 -7 -82 -7 -126 0c-3 23 -5 44 -5 62c0 19 2 40 5 63zM262 530c27 3 48 4 63 4c17 0 38 -1 63 -4c3 -23 5 -44 5 -63c0 -18 -2 -39 -5 -62c-44 -7 -82 -7 -126 0c-3 23 -5 44 -5 62
c0 19 2 40 5 63zM596 236h-541c-2 11 -3 23 -3 36c0 12 1 24 3 37h541c2 -13 3 -25 3 -37c0 -13 -1 -25 -3 -36z" />
    <glyph glyph-name="oslash" unicode="&#xf8;" horiz-adv-x="601" 
d="M427 265c0 42 -5 80 -15 115h-4l-188 -289c21 -23 48 -35 81 -35c79 0 126 66 126 209zM301 474c-84 0 -126 -71 -126 -213c0 -45 5 -83 16 -114h4l188 290c-22 25 -49 37 -82 37zM561 265c0 -177 -92 -275 -260 -275c-49 0 -92 8 -129 25l-47 -71c-17 8 -32 18 -43 29
l45 70c-58 46 -87 120 -87 222c0 175 93 275 261 275c52 0 96 -9 131 -28l43 66c19 -8 33 -18 43 -29l-42 -65c57 -49 85 -122 85 -219z" />
    <glyph glyph-name="ugrave" unicode="&#xf9;" horiz-adv-x="675" 
d="M443 133v333h-73c-3 16 -3 32 0 48l141 23c49 8 64 -11 64 -59v-419h72c3 -17 3 -33 0 -48l-132 -21c-41 -7 -72 13 -72 68v9h-4c-47 -51 -105 -77 -174 -77c-55 0 -93 17 -117 44c-35 46 -44 109 -43 191v241h-73c-3 16 -3 32 0 48l140 23c49 8 65 -11 65 -59v-249
c0 -47 1 -70 12 -103s35 -50 74 -50c45 0 85 19 120 57zM269 781l114 -161c-13 -17 -28 -29 -44 -37l-139 140c19 22 42 41 69 58z" />
    <glyph glyph-name="uacute" unicode="&#xfa;" horiz-adv-x="675" 
d="M443 133v333h-73c-3 16 -3 32 0 48l141 23c49 8 64 -11 64 -59v-419h72c3 -17 3 -33 0 -48l-132 -21c-41 -7 -72 13 -72 68v9h-4c-47 -51 -105 -77 -174 -77c-55 0 -93 17 -117 44c-35 46 -44 109 -43 191v241h-73c-3 16 -3 32 0 48l140 23c49 8 65 -11 65 -59v-249
c0 -47 1 -70 12 -103s35 -50 74 -50c45 0 85 19 120 57zM287 620l114 161c25 -16 48 -35 69 -58l-138 -140c-17 8 -32 20 -45 37z" />
    <glyph glyph-name="ucircumflex" unicode="&#xfb;" horiz-adv-x="675" 
d="M443 133v333h-73c-3 16 -3 32 0 48l141 23c49 8 64 -11 64 -59v-419h72c3 -17 3 -33 0 -48l-132 -21c-41 -7 -72 13 -72 68v9h-4c-47 -51 -105 -77 -174 -77c-55 0 -93 17 -117 44c-35 46 -44 109 -43 191v241h-73c-3 16 -3 32 0 48l140 23c49 8 65 -11 65 -59v-249
c0 -47 1 -70 12 -103s35 -50 74 -50c45 0 85 19 120 57zM197 621l135 161h10l134 -161c-11 -17 -25 -29 -42 -38l-97 97l-98 -97c-17 8 -31 21 -42 38z" />
    <glyph glyph-name="udieresis" unicode="&#xfc;" horiz-adv-x="675" 
d="M443 133v333h-73c-3 16 -3 32 0 48l141 23c49 8 64 -11 64 -59v-419h72c3 -17 3 -33 0 -48l-132 -21c-41 -7 -72 13 -72 68v9h-4c-47 -51 -105 -77 -174 -77c-55 0 -93 17 -117 44c-35 46 -44 109 -43 191v241h-73c-3 16 -3 32 0 48l140 23c49 8 65 -11 65 -59v-249
c0 -47 1 -70 12 -103s35 -50 74 -50c45 0 85 19 120 57zM274 623c-17 -3 -35 -4 -55 -4c-21 0 -39 1 -54 4c-3 16 -4 34 -4 54c0 21 1 39 4 55c21 3 39 4 54 4s34 -1 55 -4c3 -19 4 -37 4 -55c0 -17 -1 -35 -4 -54zM492 623c-17 -3 -35 -4 -55 -4c-21 0 -39 1 -54 4
c-3 16 -4 34 -4 54c0 21 1 39 4 55c21 3 39 4 54 4s34 -1 55 -4c3 -19 4 -37 4 -55c0 -17 -1 -35 -4 -54z" />
    <glyph glyph-name="yacute" unicode="&#xfd;" horiz-adv-x="609" 
d="M56 -192v140c18 4 36 4 53 0l20 -64c63 -4 115 32 158 109l-217 479l-62 20c-3 12 -3 25 0 38h267c3 -13 3 -26 0 -38l-61 -20l140 -311h4l120 311l-75 20c-3 12 -3 25 0 38h211c3 -13 3 -26 0 -38l-62 -18l-147 -375c-41 -104 -82 -180 -124 -228
c-41 -48 -97 -72 -167 -72c-22 0 -41 3 -58 9zM285 620l114 161c25 -16 48 -35 69 -58l-138 -140c-17 8 -32 20 -45 37z" />
    <glyph glyph-name="thorn" unicode="&#xfe;" horiz-adv-x="621" 
d="M238 397v-339c18 -4 35 -6 50 -6c53 0 93 21 121 62c29 42 43 95 43 159c0 44 -6 82 -21 121c-15 40 -46 65 -87 65s-76 -21 -106 -62zM33 -162l73 20v828h-73c-3 16 -3 32 0 48l140 23c51 8 65 -11 65 -59v-232h4c39 49 88 74 147 74c64 0 113 -24 146 -73
c34 -48 51 -107 51 -177c0 -85 -25 -157 -74 -214s-114 -86 -195 -86c-28 0 -54 3 -79 10v-142l72 -20c3 -11 3 -24 0 -38h-277c-3 13 -3 25 0 38z" />
    <glyph glyph-name="ydieresis" unicode="&#xff;" horiz-adv-x="609" 
d="M56 -192v140c18 4 36 4 53 0l20 -64c63 -4 115 32 158 109l-217 479l-62 20c-3 12 -3 25 0 38h267c3 -13 3 -26 0 -38l-61 -20l140 -311h4l120 311l-75 20c-3 12 -3 25 0 38h211c3 -13 3 -26 0 -38l-62 -18l-147 -375c-41 -104 -82 -180 -124 -228
c-41 -48 -97 -72 -167 -72c-22 0 -41 3 -58 9zM269 623c-17 -3 -35 -4 -55 -4c-21 0 -39 1 -54 4c-3 16 -4 34 -4 54c0 21 1 39 4 55c21 3 39 4 54 4s34 -1 55 -4c3 -19 4 -37 4 -55c0 -17 -1 -35 -4 -54zM487 623c-17 -3 -35 -4 -55 -4c-21 0 -39 1 -54 4
c-3 16 -4 34 -4 54c0 21 1 39 4 55c21 3 39 4 54 4s34 -1 55 -4c3 -19 4 -37 4 -55c0 -17 -1 -35 -4 -54z" />
    <glyph glyph-name="Amacron" unicode="&#x100;" horiz-adv-x="805" 
d="M478 40l91 25l-59 157h-273l-60 -157l91 -25c3 -13 3 -27 0 -40h-248c-3 13 -3 27 0 40l79 24l249 656h119l248 -656l80 -24c3 -13 3 -26 0 -40h-317c-3 13 -3 27 0 40zM376 577h-5l-107 -283h218zM549 790h-293c-2 12 -3 25 -3 38c0 12 1 25 3 38h293c2 -13 3 -25 3 -38
s-1 -26 -3 -38z" />
    <glyph glyph-name="amacron" unicode="&#x101;" horiz-adv-x="611" 
d="M511 361v-302h73c3 -17 3 -33 0 -48l-132 -21c-43 -7 -73 13 -73 68v9h-4c-41 -51 -96 -77 -167 -77c-96 0 -161 57 -161 154c-4 83 52 129 112 151c20 8 44 14 72 17c57 8 91 10 148 10v51c0 66 -42 99 -126 99c-28 0 -58 -3 -89 -9l-28 -89c-17 -4 -35 -4 -53 0v125
c79 27 150 41 213 41c143 0 215 -60 215 -179zM379 135v132h-19c-41 0 -77 -5 -116 -21c-39 -15 -63 -49 -63 -96c0 -53 30 -81 74 -81c45 0 97 29 124 66zM443 620h-293c-2 12 -3 25 -3 38c0 12 1 25 3 38h293c2 -13 3 -25 3 -38s-1 -26 -3 -38z" />
    <glyph glyph-name="Abreve" unicode="&#x102;" horiz-adv-x="805" 
d="M478 40l91 25l-59 157h-273l-60 -157l91 -25c3 -13 3 -27 0 -40h-248c-3 13 -3 27 0 40l79 24l249 656h119l248 -656l80 -24c3 -13 3 -26 0 -40h-317c-3 13 -3 27 0 40zM376 577h-5l-107 -283h218zM252 922c10 2 21 3 32 3s21 -1 31 -3c5 -43 31 -77 86 -77
c49 0 78 26 89 77c10 2 20 3 31 3s22 -1 32 -3c-3 -84 -58 -146 -151 -146s-147 61 -150 146z" />
    <glyph glyph-name="abreve" unicode="&#x103;" horiz-adv-x="611" 
d="M511 361v-302h73c3 -17 3 -33 0 -48l-132 -21c-43 -7 -73 13 -73 68v9h-4c-41 -51 -96 -77 -167 -77c-96 0 -161 57 -161 154c-4 83 52 129 112 151c20 8 44 14 72 17c57 8 91 10 148 10v51c0 66 -42 99 -126 99c-28 0 -58 -3 -89 -9l-28 -89c-17 -4 -35 -4 -53 0v125
c79 27 150 41 213 41c143 0 215 -60 215 -179zM379 135v132h-19c-41 0 -77 -5 -116 -21c-39 -15 -63 -49 -63 -96c0 -53 30 -81 74 -81c45 0 97 29 124 66zM156 744c10 2 20 3 31 3c10 0 21 -1 32 -3c7 -49 29 -79 81 -79s74 30 81 79c11 2 21 3 31 3c11 0 22 -1 32 -3
c0 -89 -53 -149 -144 -149s-144 60 -144 149z" />
    <glyph glyph-name="Aogonek" unicode="&#x104;" horiz-adv-x="805" 
d="M467 720l248 -656l80 -24c3 -13 3 -27 0 -40h-185c-5 -17 -7 -35 -7 -53c0 -51 20 -88 67 -88c13 0 27 4 42 11c9 -15 15 -32 16 -50c-21 -17 -50 -26 -86 -26c-73 0 -113 46 -113 119c0 49 14 97 42 146l-61 163h-273l-60 -157l91 -25c3 -13 3 -26 0 -40h-248
c-3 13 -3 27 0 40l79 24l249 656h119zM376 577h-5l-107 -283h218z" />
    <glyph glyph-name="aogonek" unicode="&#x105;" horiz-adv-x="611" 
d="M511 361v-302h73c3 -17 3 -33 0 -48l-116 -18c-3 -14 -4 -30 -4 -48c0 -49 21 -86 66 -86c13 0 27 4 42 11c9 -15 15 -31 17 -50c-21 -17 -50 -26 -87 -26c-75 0 -113 48 -113 121c0 28 5 55 16 82c-17 11 -26 31 -26 61v9h-4c-41 -51 -96 -77 -167 -77
c-96 0 -161 57 -161 154c-4 83 52 129 112 151c20 8 44 14 72 17c57 8 91 10 148 10v51c0 66 -42 99 -126 99c-28 0 -58 -3 -89 -9l-28 -89c-17 -4 -35 -4 -53 0v125c79 27 150 41 213 41c143 0 215 -60 215 -179zM379 135v132h-19c-41 0 -77 -5 -116 -21
c-39 -15 -63 -49 -63 -96c0 -53 30 -81 74 -81c45 0 97 29 124 66z" />
    <glyph glyph-name="Cacute" unicode="&#x106;" horiz-adv-x="685" 
d="M537 82l49 129c19 4 37 4 55 0v-157c-71 -43 -153 -64 -248 -64c-107 0 -192 32 -254 97c-61 65 -92 157 -92 274c0 114 34 204 101 270c68 66 158 99 271 99c85 0 157 -17 217 -52v-153c-18 -4 -36 -4 -55 0l-46 115c-29 12 -62 18 -99 18c-85 0 -148 -27 -189 -82
s-61 -127 -61 -216c0 -184 80 -295 249 -295c37 0 71 6 102 17zM318 822l181 113c18 -23 32 -50 42 -81l-196 -84c-13 15 -22 32 -27 52z" />
    <glyph glyph-name="cacute" unicode="&#x107;" horiz-adv-x="528" 
d="M491 167v-128c-51 -33 -113 -49 -184 -49c-169 0 -267 94 -267 274c0 177 107 276 271 276c65 0 124 -14 175 -41v-123c-17 -4 -35 -4 -53 0l-28 89c-19 5 -39 8 -60 8c-113 0 -170 -70 -170 -209c0 -135 49 -204 173 -204c23 0 43 3 61 8l29 99c17 4 35 4 53 0zM240 620
l114 161c25 -16 48 -35 69 -58l-138 -140c-17 8 -32 20 -45 37z" />
    <glyph glyph-name="Ccaron" unicode="&#x10c;" horiz-adv-x="685" 
d="M537 82l49 129c19 4 37 4 55 0v-157c-71 -43 -153 -64 -248 -64c-107 0 -192 32 -254 97c-61 65 -92 157 -92 274c0 114 34 204 101 270c68 66 158 99 271 99c85 0 157 -17 217 -52v-153c-18 -4 -36 -4 -55 0l-46 115c-29 12 -62 18 -99 18c-85 0 -148 -27 -189 -82
s-61 -127 -61 -216c0 -184 80 -295 249 -295c37 0 71 6 102 17zM553 889l-151 -119h-10l-152 119c8 19 19 34 32 46l125 -79l124 79c14 -13 25 -29 32 -46z" />
    <glyph glyph-name="ccaron" unicode="&#x10d;" horiz-adv-x="528" 
d="M491 167v-128c-51 -33 -113 -49 -184 -49c-169 0 -267 94 -267 274c0 177 107 276 271 276c65 0 124 -14 175 -41v-123c-17 -4 -35 -4 -53 0l-28 89c-19 5 -39 8 -60 8c-113 0 -170 -70 -170 -209c0 -135 49 -204 173 -204c23 0 43 3 61 8l29 99c17 4 35 4 53 0zM440 744
l-134 -161h-10l-135 161c13 17 28 29 43 38l97 -98l96 98c17 -9 32 -22 43 -38z" />
    <glyph glyph-name="Dcaron" unicode="&#x10e;" horiz-adv-x="763" 
d="M353 648h-81v-576h81c165 0 229 101 229 288s-65 288 -229 288zM45 40l91 25v590l-91 25c-3 13 -3 27 0 40h309c253 0 367 -117 367 -360c0 -245 -112 -360 -367 -360h-309c-3 13 -3 27 0 40zM538 889l-151 -119h-10l-152 119c8 19 19 34 32 46l125 -79l124 79
c14 -13 25 -29 32 -46z" />
    <glyph glyph-name="dcaron" unicode="&#x10f;" horiz-adv-x="624" 
d="M389 528v158h-73c-3 16 -3 32 0 48l141 23c48 8 64 -11 64 -59v-639h72c3 -17 3 -33 0 -48l-132 -21c-41 -7 -72 13 -72 68v7h-5c-37 -50 -86 -75 -149 -75c-65 0 -114 25 -147 74c-32 49 -48 110 -48 182c0 87 24 158 73 212c49 55 114 82 197 82c27 0 53 -4 79 -12z
M389 134v337c-16 4 -32 6 -49 6c-58 0 -100 -21 -126 -63c-26 -41 -39 -96 -39 -163c0 -120 35 -180 106 -180c41 0 83 24 108 63zM578 597c25 28 38 70 38 125c0 8 -1 19 -2 34c15 2 30 3 45 3c16 0 31 -1 45 -3c5 -86 -24 -147 -89 -182c-15 3 -27 11 -37 23z" />
    <glyph glyph-name="Dcroat" unicode="&#x110;" horiz-adv-x="766" 
d="M422 348h-150v-276h80c165 0 230 101 230 288c0 185 -66 288 -230 288h-80v-239h150c2 -10 3 -20 3 -31c0 -10 -1 -20 -3 -30zM45 409h90v246l-90 25c-3 13 -3 27 0 40h309c253 0 367 -117 367 -360c0 -245 -112 -360 -367 -360h-309c-3 13 -3 27 0 40l90 25v283h-90
c-2 10 -3 20 -3 30c0 11 1 21 3 31z" />
    <glyph glyph-name="dslash" unicode="&#x111;" horiz-adv-x="624" 
d="M388 134v312c-16 4 -32 6 -48 6c-111 0 -166 -71 -166 -212c0 -113 35 -169 105 -169c43 0 85 24 109 63zM593 577h-72v-518h72c3 -16 3 -32 0 -48l-134 -20c-39 -5 -70 12 -70 67v8h-4c-39 -51 -89 -76 -149 -76c-66 0 -115 23 -148 68c-32 46 -48 105 -48 177
c0 87 24 155 72 204c49 50 113 75 194 75c29 0 57 -4 83 -12v75h-132c-3 16 -3 33 0 51h132v59h-73c-3 15 -3 31 0 47l146 23c44 7 59 -12 59 -59v-70h72c3 -17 3 -34 0 -51z" />
    <glyph glyph-name="Emacron" unicode="&#x112;" horiz-adv-x="674" 
d="M45 40l91 25v590l-91 25c-3 13 -3 27 0 40h573v-163c-19 -4 -38 -4 -56 0l-34 91h-256v-237h185l25 62c15 3 30 3 45 0v-214c-15 -3 -30 -3 -45 0l-25 80h-185v-267h275l35 96c18 4 36 4 55 0v-168h-592c-3 13 -3 27 0 40zM509 790h-293c-2 12 -3 25 -3 38
c0 12 1 25 3 38h293c2 -13 3 -25 3 -38s-1 -26 -3 -38z" />
    <glyph glyph-name="emacron" unicode="&#x113;" horiz-adv-x="573" 
d="M523 266h-348c0 -143 54 -209 178 -209c29 0 55 4 79 11l29 94c17 4 35 4 53 0v-123c-60 -33 -127 -49 -202 -49c-171 0 -272 95 -272 275c0 172 97 275 261 275c72 0 127 -21 166 -63s59 -96 59 -162c0 -14 -1 -30 -3 -49zM299 475c-72 0 -112 -62 -121 -153l216 14
c0 88 -39 139 -95 139zM444 620h-293c-2 12 -3 25 -3 38c0 12 1 25 3 38h293c2 -13 3 -25 3 -38s-1 -26 -3 -38z" />
    <glyph glyph-name="Edotaccent" unicode="&#x116;" horiz-adv-x="674" 
d="M45 40l91 25v590l-91 25c-3 13 -3 27 0 40h573v-163c-19 -4 -38 -4 -56 0l-34 91h-256v-237h185l25 62c15 3 30 3 45 0v-214c-15 -3 -30 -3 -45 0l-25 80h-185v-267h275l35 96c18 4 36 4 55 0v-168h-592c-3 13 -3 27 0 40zM307 904c20 2 40 3 60 3c21 0 41 -1 61 -3
c4 -40 4 -80 0 -120c-20 -2 -40 -3 -61 -3c-20 0 -40 1 -60 3c-4 40 -4 80 0 120z" />
    <glyph glyph-name="edotaccent" unicode="&#x117;" horiz-adv-x="573" 
d="M523 266h-348c0 -143 54 -209 178 -209c29 0 55 4 79 11l29 94c17 4 35 4 53 0v-123c-60 -33 -127 -49 -202 -49c-171 0 -272 95 -272 275c0 172 97 275 261 275c72 0 127 -21 166 -63s59 -96 59 -162c0 -14 -1 -30 -3 -49zM299 475c-72 0 -112 -62 -121 -153l216 14
c0 88 -39 139 -95 139zM235 744c20 2 40 3 60 3c21 0 41 -1 61 -3c4 -40 4 -80 0 -120c-20 -2 -40 -3 -61 -3c-20 0 -40 1 -60 3c-4 40 -4 80 0 120z" />
    <glyph glyph-name="Eogonek" unicode="&#x118;" horiz-adv-x="674" 
d="M45 40l91 25v590l-91 25c-3 13 -3 27 0 40h573v-163c-20 -4 -39 -4 -56 0l-34 91h-256v-237h185l25 62c15 3 30 3 45 0v-214c-15 -3 -30 -3 -45 0l-25 80h-185v-267h275l35 96c18 4 36 4 55 0v-168h-108c-5 -19 -7 -36 -7 -53c0 -51 19 -88 66 -88c15 0 29 4 42 11
c9 -15 15 -31 17 -50c-21 -17 -50 -26 -86 -26c-75 0 -113 48 -113 121c0 30 5 58 16 85h-419c-3 13 -3 27 0 40z" />
    <glyph glyph-name="eogonek" unicode="&#x119;" horiz-adv-x="573" 
d="M523 266h-348c0 -143 54 -209 178 -209c29 0 55 4 79 11l29 94c17 4 35 4 53 0v-123c-35 -19 -73 -33 -115 -40c-4 -15 -6 -32 -6 -52c0 -59 22 -88 66 -88c13 0 27 4 42 11c9 -15 15 -31 17 -50c-21 -17 -50 -26 -87 -26c-75 0 -113 48 -113 121c0 25 4 50 13 76
c-7 -1 -16 -1 -27 -1c-160 0 -264 95 -264 275c0 172 97 275 261 275c72 0 127 -21 166 -63s59 -96 59 -162c0 -14 -1 -30 -3 -49zM299 475c-72 0 -112 -62 -121 -153l216 14c0 88 -39 139 -95 139z" />
    <glyph glyph-name="Ecaron" unicode="&#x11a;" horiz-adv-x="674" 
d="M45 40l91 25v590l-91 25c-3 13 -3 27 0 40h573v-163c-19 -4 -38 -4 -56 0l-34 91h-256v-237h185l25 62c15 3 30 3 45 0v-214c-15 -3 -30 -3 -45 0l-25 80h-185v-267h275l35 96c18 4 36 4 55 0v-168h-592c-3 13 -3 27 0 40zM522 889l-151 -119h-10l-152 119
c8 19 19 34 32 46l125 -79l124 79c14 -13 25 -29 32 -46z" />
    <glyph glyph-name="ecaron" unicode="&#x11b;" horiz-adv-x="573" 
d="M523 266h-348c0 -143 54 -209 178 -209c29 0 55 4 79 11l29 94c17 4 35 4 53 0v-123c-60 -33 -127 -49 -202 -49c-171 0 -272 95 -272 275c0 172 97 275 261 275c72 0 127 -21 166 -63s59 -96 59 -162c0 -14 -1 -30 -3 -49zM299 475c-72 0 -112 -62 -121 -153l216 14
c0 88 -39 139 -95 139zM440 744l-134 -161h-10l-135 161c13 17 28 29 43 38l97 -98l96 98c17 -9 32 -22 43 -38z" />
    <glyph glyph-name="Gbreve" unicode="&#x11e;" horiz-adv-x="755" 
d="M705 314l-51 -18v-306h-37c-34 0 -57 12 -68 35c-48 -23 -102 -35 -163 -35c-106 0 -189 32 -249 97s-90 156 -90 272c0 117 35 208 104 273s161 98 276 98c90 0 166 -17 227 -51v-153c-18 -4 -36 -4 -55 0l-46 115c-28 11 -63 17 -106 17c-177 0 -261 -108 -261 -297
c0 -89 20 -161 59 -215c40 -53 99 -80 178 -80c37 0 70 7 99 22v201l-118 25c-3 13 -3 27 0 40h301c3 -13 3 -27 0 -40zM246 922c10 2 21 3 32 3s21 -1 31 -3c5 -43 31 -77 86 -77c49 0 78 26 89 77c10 2 20 3 31 3s22 -1 32 -3c-3 -84 -58 -146 -151 -146s-147 61 -150 146
z" />
    <glyph glyph-name="gbreve" unicode="&#x11f;" horiz-adv-x="570" 
d="M497 354c0 -125 -73 -187 -218 -187c-41 0 -75 5 -104 15c-17 -15 -25 -30 -25 -45c0 -21 12 -34 39 -39c27 -4 39 -5 74 -5h111c115 0 173 -41 173 -124c0 -68 -37 -119 -96 -144c-57 -25 -119 -36 -188 -36c-81 0 -151 12 -209 37v123c17 3 34 3 49 0l28 -74
c27 -13 72 -20 136 -20c39 0 72 3 112 14c40 9 67 32 67 64c0 25 -24 37 -72 37h-122c-128 0 -192 41 -192 122c0 45 23 81 68 110v4c-45 31 -68 80 -68 148c0 120 76 186 219 186c45 0 84 -7 116 -20h158c4 -19 4 -37 0 -56h-86v-4c20 -29 30 -64 30 -106zM364 354
c0 46 -7 78 -20 95s-35 26 -65 26s-52 -9 -66 -27c-13 -17 -20 -49 -20 -94c0 -91 25 -121 86 -121c60 0 85 30 85 121zM136 744c10 2 20 3 31 3c10 0 21 -1 32 -3c7 -49 29 -79 81 -79s74 30 81 79c11 2 21 3 31 3c11 0 22 -1 32 -3c0 -89 -53 -149 -144 -149
s-144 60 -144 149z" />
    <glyph glyph-name="Gcommaaccent" unicode="&#x122;" horiz-adv-x="755" 
d="M705 314l-51 -18v-306h-37c-34 0 -57 12 -68 35c-48 -23 -102 -35 -163 -35c-106 0 -189 32 -249 97s-90 156 -90 272c0 117 35 208 104 273s161 98 276 98c90 0 166 -17 227 -51v-153c-18 -4 -36 -4 -55 0l-46 115c-28 11 -63 17 -106 17c-177 0 -261 -108 -261 -297
c0 -89 20 -161 59 -215c40 -53 99 -80 178 -80c37 0 70 7 99 22v201l-118 25c-3 13 -3 27 0 40h301c3 -13 3 -27 0 -40zM325 -207c25 28 38 70 38 125c0 8 -1 19 -2 34c15 2 30 3 45 3c16 0 31 -1 45 -3c5 -86 -24 -147 -89 -182c-15 3 -27 11 -37 23z" />
    <glyph glyph-name="gcommaaccent" unicode="&#x123;" horiz-adv-x="570" 
d="M497 354c0 -125 -73 -187 -218 -187c-41 0 -75 5 -104 15c-17 -15 -25 -30 -25 -45c0 -21 12 -34 39 -39c27 -4 39 -5 74 -5h111c115 0 173 -41 173 -124c0 -68 -37 -119 -96 -144c-57 -25 -119 -36 -188 -36c-81 0 -151 12 -209 37v123c17 3 34 3 49 0l28 -74
c27 -13 72 -20 136 -20c39 0 72 3 112 14c40 9 67 32 67 64c0 25 -24 37 -72 37h-122c-128 0 -192 41 -192 122c0 45 23 81 68 110v4c-45 31 -68 80 -68 148c0 120 76 186 219 186c45 0 84 -7 116 -20h158c4 -19 4 -37 0 -56h-86v-4c20 -29 30 -64 30 -106zM364 354
c0 46 -7 78 -20 95s-35 26 -65 26s-52 -9 -66 -27c-13 -17 -20 -49 -20 -94c0 -91 25 -121 86 -121c60 0 85 30 85 121zM351 756c-25 -28 -38 -70 -38 -125c0 -8 1 -19 2 -34c-15 -2 -30 -3 -45 -3c-16 0 -31 1 -45 3c-5 86 24 147 89 182c15 -3 27 -11 37 -23z" />
    <glyph glyph-name="Imacron" unicode="&#x12a;" horiz-adv-x="397" 
d="M136 65v590l-91 25c-3 13 -3 27 0 40h317c3 -13 3 -27 0 -40l-90 -25v-590l90 -25c3 -13 3 -27 0 -40h-317c-3 13 -3 27 0 40zM351 790h-293c-2 12 -3 25 -3 38c0 12 1 25 3 38h293c2 -13 3 -26 3 -38c0 -13 -1 -26 -3 -38z" />
    <glyph glyph-name="imacron" unicode="&#x12b;" horiz-adv-x="354" 
d="M44 38l73 20v408h-73c-3 16 -3 32 0 48l140 23c49 8 65 -11 65 -59v-420l72 -20c3 -12 3 -25 0 -38h-277c-3 13 -3 26 0 38zM309 620h-293c-2 12 -3 25 -3 38c0 12 1 25 3 38h293c2 -13 3 -25 3 -38s-1 -26 -3 -38z" />
    <glyph glyph-name="Iogonek" unicode="&#x12e;" horiz-adv-x="398" 
d="M136 65v590l-91 25c-3 13 -3 27 0 40h317c3 -13 3 -27 0 -40l-90 -25v-590l90 -25c3 -13 3 -27 0 -40h-127c-4 -20 -6 -37 -6 -52c0 -59 22 -89 66 -89c13 0 27 4 42 11c9 -15 15 -31 17 -50c-21 -17 -50 -26 -87 -26c-75 0 -113 48 -113 121c0 31 6 59 17 85h-126
c-3 13 -3 27 0 40z" />
    <glyph glyph-name="iogonek" unicode="&#x12f;" horiz-adv-x="354" 
d="M49 38l73 20v408h-73c-3 16 -3 32 0 48l140 23c49 8 65 -11 65 -59v-420l72 -20c3 -12 3 -25 0 -38h-107c-4 -20 -6 -37 -6 -52c0 -59 22 -89 66 -89c13 0 27 4 42 11c9 -15 15 -31 17 -50c-21 -17 -50 -26 -87 -26c-75 0 -113 48 -113 121c0 31 6 59 17 85h-106
c-3 13 -3 26 0 38zM119 746c21 3 42 5 61 5s39 -2 60 -5c4 -19 6 -39 6 -62c0 -21 -2 -40 -6 -58c-20 -3 -39 -5 -58 -5c-20 0 -41 2 -63 5c-3 21 -5 41 -5 58c0 18 2 39 5 62z" />
    <glyph glyph-name="Idot" unicode="&#x130;" horiz-adv-x="397" 
d="M136 65v590l-91 25c-3 13 -3 27 0 40h317c3 -13 3 -27 0 -40l-90 -25v-590l90 -25c3 -13 3 -27 0 -40h-317c-3 13 -3 27 0 40zM144 904c20 2 40 3 60 3c21 0 41 -1 61 -3c4 -40 4 -80 0 -120c-20 -2 -40 -3 -61 -3c-20 0 -40 1 -60 3c-4 40 -4 80 0 120z" />
    <glyph glyph-name="dotlessi" unicode="&#x131;" horiz-adv-x="354" 
d="M49 38l73 20v408h-73c-3 16 -3 32 0 48l140 23c49 8 65 -11 65 -59v-420l72 -20c3 -12 3 -25 0 -38h-277c-3 13 -3 26 0 38z" />
    <glyph glyph-name="Kcommaaccent" unicode="&#x136;" horiz-adv-x="773" 
d="M771 0h-202l-285 361l258 302l-61 17c-3 12 -3 25 0 40h254c3 -13 3 -27 0 -40l-105 -28l-211 -244l268 -343l84 -25c3 -13 3 -27 0 -40zM362 680l-90 -25v-590l90 -25c3 -13 3 -27 0 -40h-317c-3 13 -3 27 0 40l91 25v590l-91 25c-3 13 -3 27 0 40h317
c3 -13 3 -27 0 -40zM347 -207c25 28 38 70 38 125c0 8 -1 19 -2 34c15 2 30 3 45 3c16 0 31 -1 45 -3c5 -86 -24 -147 -89 -182c-15 3 -27 11 -37 23z" />
    <glyph glyph-name="kcommaaccent" unicode="&#x137;" horiz-adv-x="646" 
d="M649 0h-186l-209 269v5l197 201l-64 17c-3 12 -3 25 0 38h241c3 -13 3 -26 0 -38l-90 -22l-153 -156l201 -259l63 -17c3 -11 3 -24 0 -38zM37 38l73 20v628h-73c-3 17 -3 33 0 48l140 23c48 8 65 -12 65 -59v-640l65 -20c3 -11 3 -24 0 -38h-270c-3 13 -3 26 0 38z
M281 -207c25 28 38 70 38 125c0 8 -1 19 -2 34c15 2 30 3 45 3c16 0 31 -1 45 -3c5 -86 -24 -147 -89 -182c-15 3 -27 11 -37 23z" />
    <glyph glyph-name="Lacute" unicode="&#x139;" horiz-adv-x="612" 
d="M606 185v-185h-561c-3 13 -3 27 0 40l91 25v590l-91 25c-3 13 -3 27 0 40h317c3 -13 3 -27 0 -40l-90 -25v-583h235l44 113c19 4 37 4 55 0zM145 822l181 113c18 -23 32 -50 42 -81l-196 -84c-13 15 -22 32 -27 52z" />
    <glyph glyph-name="lacute" unicode="&#x13a;" horiz-adv-x="342" 
d="M37 38l73 20v628h-73c-3 17 -3 33 0 48l140 23c48 8 65 -12 65 -59v-640l72 -20c3 -11 3 -24 0 -38h-277c-3 13 -3 26 0 38zM81 842l181 113c18 -23 32 -50 42 -81l-196 -84c-13 15 -22 32 -27 52z" />
    <glyph glyph-name="Lcommaaccent" unicode="&#x13b;" horiz-adv-x="612" 
d="M606 185v-185h-561c-3 13 -3 27 0 40l91 25v590l-91 25c-3 13 -3 27 0 40h317c3 -13 3 -27 0 -40l-90 -25v-583h235l44 113c19 4 37 4 55 0zM281 -207c25 28 38 70 38 125c0 8 -1 19 -2 34c15 2 30 3 45 3c16 0 31 -1 45 -3c5 -86 -24 -147 -89 -182c-15 3 -27 11 -37 23
z" />
    <glyph glyph-name="lcommaaccent" unicode="&#x13c;" horiz-adv-x="342" 
d="M37 38l73 20v628h-73c-3 17 -3 33 0 48l140 23c48 8 65 -12 65 -59v-640l72 -20c3 -11 3 -24 0 -38h-277c-3 13 -3 26 0 38zM96 -207c25 28 38 70 38 125c0 8 -1 19 -2 34c15 2 30 3 45 3c16 0 31 -1 45 -3c5 -86 -24 -147 -89 -182c-15 3 -27 11 -37 23z" />
    <glyph glyph-name="Lcaron" unicode="&#x13d;" horiz-adv-x="612" 
d="M606 185v-185h-561c-3 13 -3 27 0 40l91 25v590l-91 25c-3 13 -3 27 0 40h317c3 -13 3 -27 0 -40l-90 -25v-583h235l44 113c19 4 37 4 55 0zM407 558c25 28 38 70 38 125c0 8 -1 19 -2 34c15 2 30 3 45 3c16 0 31 -1 45 -3c5 -86 -24 -147 -89 -182c-15 3 -27 11 -37 23z
" />
    <glyph glyph-name="lcaron" unicode="&#x13e;" horiz-adv-x="342" 
d="M37 38l73 20v628h-73c-3 17 -3 33 0 48l140 23c48 8 65 -12 65 -59v-640l72 -20c3 -11 3 -24 0 -38h-277c-3 13 -3 26 0 38zM299 597c25 28 38 70 38 125c0 8 -1 19 -2 34c15 2 30 3 45 3c16 0 31 -1 45 -3c5 -86 -24 -147 -89 -182c-15 3 -27 11 -37 23z" />
    <glyph glyph-name="Lslash" unicode="&#x141;" horiz-adv-x="612" 
d="M606 185v-185h-561c-3 13 -3 27 0 40l91 25v207l-87 -65l-4 1v62l91 68v317l-91 25c-3 13 -3 27 0 40h317c3 -13 3 -27 0 -40l-90 -25v-214l127 96l4 -1v-61l-131 -99v-304h235l44 113c19 4 37 4 55 0z" />
    <glyph glyph-name="lslash" unicode="&#x142;" horiz-adv-x="372" 
d="M56 280v62l73 54v290h-73c-3 17 -3 33 0 48l140 23c48 8 65 -12 65 -59v-202l80 61l4 -1v-61l-84 -64v-373l72 -20c3 -12 3 -25 0 -38h-277c-3 13 -3 26 0 38l73 20v272l-69 -51z" />
    <glyph glyph-name="Nacute" unicode="&#x143;" horiz-adv-x="772" 
d="M545 0l-343 572h-4v-507l90 -25c3 -13 3 -27 0 -40h-243c-3 13 -3 27 0 40l80 24v592l-80 24c-3 13 -3 27 0 40h227l309 -516h4v451l-91 25c-3 13 -3 27 0 40h244c3 -13 3 -27 0 -40l-80 -24v-656h-113zM321 822l181 113c18 -23 32 -50 42 -81l-196 -84
c-13 15 -22 32 -27 52z" />
    <glyph glyph-name="nacute" unicode="&#x144;" horiz-adv-x="688" 
d="M49 38l73 20v408h-73c-3 16 -3 32 0 48l140 23c51 8 65 -11 65 -59v-13h4c51 50 109 75 174 75c116 0 161 -73 161 -204v-278l72 -20c3 -12 3 -25 0 -38h-270c-3 13 -3 26 0 38l66 20v241c0 22 -1 40 -3 55c-3 29 -12 70 -37 87c-35 29 -123 7 -167 -39v-344l65 -20
c3 -12 3 -25 0 -38h-270c-3 13 -3 26 0 38zM293 620l114 161c25 -16 48 -35 69 -58l-138 -140c-17 8 -32 20 -45 37z" />
    <glyph glyph-name="Ncommaaccent" unicode="&#x145;" horiz-adv-x="772" 
d="M545 0l-343 572h-4v-507l90 -25c3 -13 3 -27 0 -40h-243c-3 13 -3 27 0 40l80 24v592l-80 24c-3 13 -3 27 0 40h227l309 -516h4v451l-91 25c-3 13 -3 27 0 40h244c3 -13 3 -27 0 -40l-80 -24v-656h-113zM312 -207c25 28 38 70 38 125c0 8 -1 19 -2 34c15 2 30 3 45 3
c16 0 31 -1 45 -3c5 -86 -24 -147 -89 -182c-15 3 -27 11 -37 23z" />
    <glyph glyph-name="ncommaaccent" unicode="&#x146;" horiz-adv-x="688" 
d="M49 38l73 20v408h-73c-3 16 -3 32 0 48l140 23c51 8 65 -11 65 -59v-13h4c51 50 109 75 174 75c116 0 161 -73 161 -204v-278l72 -20c3 -12 3 -25 0 -38h-270c-3 13 -3 26 0 38l66 20v241c0 22 -1 40 -3 55c-3 29 -12 70 -37 87c-35 29 -123 7 -167 -39v-344l65 -20
c3 -12 3 -25 0 -38h-270c-3 13 -3 26 0 38zM279 -207c25 28 38 70 38 125c0 8 -1 19 -2 34c15 2 30 3 45 3c16 0 31 -1 45 -3c5 -86 -24 -147 -89 -182c-15 3 -27 11 -37 23z" />
    <glyph glyph-name="Ncaron" unicode="&#x147;" horiz-adv-x="772" 
d="M545 0l-343 572h-4v-507l90 -25c3 -13 3 -27 0 -40h-243c-3 13 -3 27 0 40l80 24v592l-80 24c-3 13 -3 27 0 40h227l309 -516h4v451l-91 25c-3 13 -3 27 0 40h244c3 -13 3 -27 0 -40l-80 -24v-656h-113zM555 889l-151 -119h-10l-152 119c8 19 19 34 32 46l125 -79l124 79
c14 -13 25 -29 32 -46z" />
    <glyph glyph-name="ncaron" unicode="&#x148;" horiz-adv-x="688" 
d="M49 38l73 20v408h-73c-3 16 -3 32 0 48l140 23c51 8 65 -11 65 -59v-13h4c51 50 109 75 174 75c116 0 161 -73 161 -204v-278l72 -20c3 -12 3 -25 0 -38h-270c-3 13 -3 26 0 38l66 20v241c0 22 -1 40 -3 55c-3 29 -12 70 -37 87c-35 29 -123 7 -167 -39v-344l65 -20
c3 -12 3 -25 0 -38h-270c-3 13 -3 26 0 38zM485 744l-134 -161h-10l-135 161c13 17 28 29 43 38l97 -98l96 98c17 -9 32 -22 43 -38z" />
    <glyph glyph-name="Omacron" unicode="&#x14c;" horiz-adv-x="765" 
d="M47 360c0 240 115 370 336 370c223 0 335 -129 335 -370c0 -247 -112 -370 -335 -370s-336 126 -336 370zM383 658c-131 0 -197 -99 -197 -298s66 -298 197 -298c130 0 195 99 195 298s-65 298 -195 298zM529 790h-293c-2 12 -3 25 -3 38c0 12 1 25 3 38h293
c2 -13 3 -25 3 -38s-1 -26 -3 -38z" />
    <glyph glyph-name="omacron" unicode="&#x14d;" horiz-adv-x="601" 
d="M301 474c-84 0 -126 -70 -126 -209s42 -209 126 -209c79 0 126 66 126 209s-47 209 -126 209zM561 265c0 -177 -92 -275 -260 -275c-169 0 -261 98 -261 275c0 175 93 275 261 275s260 -100 260 -275zM447 620h-293c-2 12 -3 25 -3 38c0 12 1 25 3 38h293
c2 -13 3 -25 3 -38s-1 -26 -3 -38z" />
    <glyph glyph-name="Ohungarumlaut" unicode="&#x150;" horiz-adv-x="765" 
d="M47 360c0 240 115 370 336 370c223 0 335 -129 335 -370c0 -247 -112 -370 -335 -370s-336 126 -336 370zM383 658c-131 0 -197 -99 -197 -298s66 -298 197 -298c130 0 195 99 195 298s-65 298 -195 298zM236 811l102 124c26 -19 47 -40 64 -65l-126 -100
c-16 10 -29 24 -40 41zM425 811l102 124c26 -19 47 -40 64 -65l-126 -100c-16 10 -29 24 -40 41z" />
    <glyph glyph-name="ohungarumlaut" unicode="&#x151;" horiz-adv-x="601" 
d="M301 474c-84 0 -126 -70 -126 -209s42 -209 126 -209c79 0 126 66 126 209s-47 209 -126 209zM561 265c0 -177 -92 -275 -260 -275c-169 0 -261 98 -261 275c0 175 93 275 261 275s260 -100 260 -275zM151 618l103 164c30 -17 54 -36 71 -55l-129 -144
c-18 8 -33 20 -45 35zM329 618l103 164c30 -17 54 -36 71 -55l-129 -144c-18 8 -33 20 -45 35z" />
    <glyph glyph-name="OE" unicode="&#x152;" horiz-adv-x="1059" 
d="M907 648h-257v-237h187l25 62c15 3 30 3 45 0v-214c-15 -3 -30 -3 -45 0l-25 80h-187v-267h276l35 96c18 4 36 4 55 0v-168h-533c-32 -7 -65 -10 -100 -10c-215 0 -336 127 -336 367c0 119 30 210 89 275s142 98 247 98c33 0 67 -3 100 -10h514v-163c-19 -4 -37 -4 -55 0
zM514 85v551c-33 16 -71 24 -112 24c-144 0 -216 -100 -216 -300c0 -166 54 -299 215 -299c40 0 78 8 113 24z" />
    <glyph glyph-name="oe" unicode="&#x153;" horiz-adv-x="960" 
d="M910 266h-352c0 -141 54 -209 181 -209c25 0 52 3 80 10l29 96c17 4 34 4 53 0v-125c-66 -32 -133 -48 -200 -48c-95 0 -164 30 -207 90h-4c-44 -60 -110 -90 -197 -90c-163 0 -253 101 -253 274c0 175 95 276 258 276c87 0 151 -31 192 -92h4c47 61 112 92 193 92
c68 0 123 -20 164 -61s62 -95 62 -163c0 -15 -1 -31 -3 -50zM301 474c-84 0 -126 -70 -126 -210c0 -141 47 -208 126 -208c80 0 123 75 123 208c0 135 -43 210 -123 210zM562 322l219 13c0 88 -40 140 -96 140c-72 0 -112 -62 -123 -153z" />
    <glyph glyph-name="Racute" unicode="&#x154;" horiz-adv-x="733" 
d="M486 505c0 100 -58 143 -185 143h-29v-290h24c127 0 190 49 190 147zM532 0l-211 287h-49v-222l84 -25c3 -13 3 -26 0 -40h-311c-3 13 -3 27 0 40l91 25v590l-91 25c-3 13 -3 27 0 40h255c221 0 323 -58 323 -206c0 -95 -52 -167 -153 -202l183 -247l77 -25
c3 -13 3 -27 0 -40h-198zM268 822l181 113c18 -23 32 -50 42 -81l-196 -84c-13 15 -22 32 -27 52z" />
    <glyph glyph-name="racute" unicode="&#x155;" horiz-adv-x="481" 
d="M122 58v408h-73c-3 16 -3 32 0 48l140 23c51 8 65 -11 65 -59v-13h4c44 50 100 75 167 75c21 0 39 -2 55 -5v-148c-19 -4 -36 -4 -53 0l-20 64c-27 5 -56 2 -85 -8c-29 -9 -52 -23 -68 -41v-344l72 -20c3 -11 3 -24 0 -38h-277c-3 13 -3 26 0 38zM234 620l114 161
c25 -16 48 -35 69 -58l-138 -140c-17 8 -32 20 -45 37z" />
    <glyph glyph-name="Rcommaaccent" unicode="&#x156;" horiz-adv-x="733" 
d="M486 505c0 100 -58 143 -185 143h-29v-290h24c127 0 190 49 190 147zM532 0l-211 287h-49v-222l84 -25c3 -13 3 -26 0 -40h-311c-3 13 -3 27 0 40l91 25v590l-91 25c-3 13 -3 27 0 40h255c221 0 323 -58 323 -206c0 -95 -52 -167 -153 -202l183 -247l77 -25
c3 -13 3 -27 0 -40h-198zM327 -207c25 28 38 70 38 125c0 8 -1 19 -2 34c15 2 30 3 45 3c16 0 31 -1 45 -3c5 -86 -24 -147 -89 -182c-15 3 -27 11 -37 23z" />
    <glyph glyph-name="rcommaaccent" unicode="&#x157;" horiz-adv-x="481" 
d="M122 58v408h-73c-3 16 -3 32 0 48l140 23c51 8 65 -11 65 -59v-13h4c44 50 100 75 167 75c21 0 39 -2 55 -5v-148c-19 -4 -36 -4 -53 0l-20 64c-27 5 -56 2 -85 -8c-29 -9 -52 -23 -68 -41v-344l72 -20c3 -11 3 -24 0 -38h-277c-3 13 -3 26 0 38zM105 -207
c25 28 38 70 38 125c0 8 -1 19 -2 34c15 2 30 3 45 3c16 0 31 -1 45 -3c5 -86 -24 -147 -89 -182c-15 3 -27 11 -37 23z" />
    <glyph glyph-name="Rcaron" unicode="&#x158;" horiz-adv-x="733" 
d="M486 505c0 100 -58 143 -185 143h-29v-290h24c127 0 190 49 190 147zM532 0l-211 287h-49v-222l84 -25c3 -13 3 -26 0 -40h-311c-3 13 -3 27 0 40l91 25v590l-91 25c-3 13 -3 27 0 40h255c221 0 323 -58 323 -206c0 -95 -52 -167 -153 -202l183 -247l77 -25
c3 -13 3 -27 0 -40h-198zM499 889l-151 -119h-10l-152 119c8 19 19 34 32 46l125 -79l124 79c14 -13 25 -29 32 -46z" />
    <glyph glyph-name="rcaron" unicode="&#x159;" horiz-adv-x="481" 
d="M122 58v408h-73c-3 16 -3 32 0 48l140 23c51 8 65 -11 65 -59v-13h4c44 50 100 75 167 75c21 0 39 -2 55 -5v-148c-19 -4 -36 -4 -53 0l-20 64c-27 5 -56 2 -85 -8c-29 -9 -52 -23 -68 -41v-344l72 -20c3 -11 3 -24 0 -38h-277c-3 13 -3 26 0 38zM424 744l-134 -161h-10
l-135 161c13 17 28 29 43 38l97 -98l96 98c17 -9 32 -22 43 -38z" />
    <glyph glyph-name="Sacute" unicode="&#x15a;" horiz-adv-x="619" 
d="M48 51v158c19 4 37 4 56 0l48 -130c34 -9 69 -14 105 -14c53 0 97 10 133 29c37 20 55 51 55 94c0 164 -392 54 -392 327c0 49 13 90 40 123c53 67 135 92 235 92c82 0 155 -17 220 -51v-153c-19 -4 -37 -4 -55 0l-45 117c-30 10 -62 15 -96 15c-47 0 -86 -10 -119 -29
s-49 -49 -49 -89c0 -86 98 -101 197 -128c34 -10 66 -21 95 -33c59 -24 102 -80 102 -160c0 -75 -30 -132 -90 -171c-59 -39 -131 -58 -215 -58c-91 0 -166 20 -225 61zM245 822l181 113c18 -23 32 -50 42 -81l-196 -84c-13 15 -22 32 -27 52z" />
    <glyph glyph-name="sacute" unicode="&#x15b;" horiz-adv-x="504" 
d="M101 162l28 -93c25 -9 54 -13 87 -13c75 0 134 26 134 83c0 104 -299 33 -299 238c0 39 12 71 35 96c47 52 111 67 187 67c60 0 117 -12 170 -36v-120c-17 -4 -35 -4 -52 0l-27 83c-22 5 -46 7 -73 7c-80 0 -120 -25 -120 -74c0 -113 300 -38 300 -235
c0 -58 -23 -102 -70 -131s-103 -44 -170 -44c-74 0 -135 15 -183 44v128c18 4 36 4 53 0zM206 620l114 161c25 -16 48 -35 69 -58l-138 -140c-17 8 -32 20 -45 37z" />
    <glyph glyph-name="Scedilla" unicode="&#x15e;" horiz-adv-x="619" 
d="M48 51v158c19 4 37 4 56 0l48 -130c34 -9 69 -14 105 -14c53 0 97 10 133 29c37 20 55 51 55 94c0 164 -392 54 -392 327c0 49 13 90 40 123c53 67 135 92 235 92c82 0 155 -17 220 -51v-153c-19 -4 -37 -4 -55 0l-45 117c-30 10 -62 15 -96 15c-47 0 -86 -10 -119 -29
s-49 -49 -49 -89c0 -86 98 -101 197 -128c34 -10 66 -21 95 -33c59 -24 102 -80 102 -160c0 -117 -83 -192 -204 -219c11 -28 17 -56 17 -85c0 -73 -38 -121 -113 -121c-37 0 -66 9 -87 26c2 17 8 33 17 50c15 -7 29 -11 42 -11c44 0 66 29 66 87c0 15 -2 31 -5 46
c-11 -1 -24 -2 -38 -2c-91 0 -166 20 -225 61z" />
    <glyph glyph-name="scedilla" unicode="&#x15f;" horiz-adv-x="504" 
d="M101 162l28 -93c25 -9 54 -13 87 -13c75 0 134 26 134 83c0 104 -299 33 -299 238c0 39 12 71 35 96c47 52 111 67 187 67c60 0 117 -12 170 -36v-120c-17 -4 -35 -4 -52 0l-27 83c-22 5 -46 7 -73 7c-80 0 -120 -25 -120 -74c0 -113 300 -38 300 -235
c0 -88 -59 -142 -150 -165c11 -28 17 -56 17 -85c0 -73 -38 -121 -113 -121c-37 0 -66 9 -87 26c2 17 8 33 17 50c15 -7 29 -11 42 -11c47 0 66 37 66 88c0 14 -2 29 -5 44c-8 -1 -17 -1 -27 -1c-74 0 -135 15 -183 44v128c18 4 36 4 53 0z" />
    <glyph glyph-name="Scaron" unicode="&#x160;" horiz-adv-x="619" 
d="M48 51v158c19 4 37 4 56 0l48 -130c34 -9 69 -14 105 -14c53 0 97 10 133 29c37 20 55 51 55 94c0 164 -392 54 -392 327c0 49 13 90 40 123c53 67 135 92 235 92c82 0 155 -17 220 -51v-153c-19 -4 -37 -4 -55 0l-45 117c-30 10 -62 15 -96 15c-47 0 -86 -10 -119 -29
s-49 -49 -49 -89c0 -86 98 -101 197 -128c34 -10 66 -21 95 -33c59 -24 102 -80 102 -160c0 -75 -30 -132 -90 -171c-59 -39 -131 -58 -215 -58c-91 0 -166 20 -225 61zM471 889l-151 -119h-10l-152 119c8 19 19 34 32 46l125 -79l124 79c14 -13 25 -29 32 -46z" />
    <glyph glyph-name="scaron" unicode="&#x161;" horiz-adv-x="504" 
d="M101 162l28 -93c25 -9 54 -13 87 -13c75 0 134 26 134 83c0 104 -299 33 -299 238c0 39 12 71 35 96c47 52 111 67 187 67c60 0 117 -12 170 -36v-120c-17 -4 -35 -4 -52 0l-27 83c-22 5 -46 7 -73 7c-80 0 -120 -25 -120 -74c0 -113 300 -38 300 -235
c0 -58 -23 -102 -70 -131s-103 -44 -170 -44c-74 0 -135 15 -183 44v128c18 4 36 4 53 0zM401 744l-134 -161h-10l-135 161c13 17 28 29 43 38l97 -98l96 98c17 -9 32 -22 43 -38z" />
    <glyph glyph-name="Tcommaaccent" unicode="&#x162;" horiz-adv-x="649" 
d="M580 540l-42 108h-145v-583l90 -25c3 -13 3 -26 0 -40h-317c-3 13 -3 27 0 40l90 25v583h-145l-42 -108c-18 -4 -36 -4 -55 0v180h621v-180c-18 -4 -36 -4 -55 0zM243 -207c25 28 38 70 38 125c0 8 -1 19 -2 34c15 2 30 3 45 3c16 0 31 -1 45 -3c5 -86 -24 -147 -89 -182
c-15 3 -27 11 -37 23z" />
    <glyph glyph-name="tcommaaccent" unicode="&#x163;" horiz-adv-x="380" 
d="M102 182v288h-73c-2 12 -2 24 0 35l73 21v145l124 23l8 -7v-161h131c4 -19 4 -37 0 -56h-131v-253c0 -59 4 -90 21 -123s53 -45 112 -40c4 -19 4 -38 0 -56c-25 -5 -51 -8 -78 -8c-123 0 -187 56 -187 192zM109 -207c25 28 38 70 38 125c0 8 -1 19 -2 34c15 2 30 3 45 3
c16 0 31 -1 45 -3c5 -86 -24 -147 -89 -182c-15 3 -27 11 -37 23z" />
    <glyph glyph-name="Tcaron" unicode="&#x164;" horiz-adv-x="649" 
d="M580 540l-42 108h-145v-583l90 -25c3 -13 3 -26 0 -40h-317c-3 13 -3 27 0 40l90 25v583h-145l-42 -108c-18 -4 -36 -4 -55 0v180h621v-180c-18 -4 -36 -4 -55 0zM481 889l-151 -119h-10l-152 119c8 19 19 34 32 46l125 -79l124 79c14 -13 25 -29 32 -46z" />
    <glyph glyph-name="tcaron" unicode="&#x165;" horiz-adv-x="373" 
d="M102 182v288h-73c-2 12 -2 24 0 35l73 21v145l124 23l8 -7v-161h131c4 -19 4 -37 0 -56h-131v-253c0 -59 4 -90 21 -123s53 -45 112 -40c4 -19 4 -38 0 -56c-25 -5 -51 -8 -78 -8c-123 0 -187 56 -187 192zM305 626c25 28 38 70 38 125c0 8 -1 19 -2 34c15 2 30 3 45 3
c16 0 31 -1 45 -3c5 -86 -24 -147 -89 -182c-15 3 -27 11 -37 23z" />
    <glyph glyph-name="Umacron" unicode="&#x16a;" horiz-adv-x="788" 
d="M127 304v351l-80 25c-3 13 -3 27 0 40h310c3 -13 3 -27 0 -40l-94 -25v-361c0 -156 45 -223 169 -223c113 0 169 75 169 224v360l-91 25c-3 13 -3 27 0 40h244c3 -13 3 -27 0 -40l-80 -24v-352c0 -205 -80 -314 -273 -314c-101 0 -172 25 -213 76s-61 131 -61 238z
M567 790h-293c-2 12 -3 25 -3 38c0 12 1 25 3 38h293c2 -13 3 -25 3 -38s-1 -26 -3 -38z" />
    <glyph glyph-name="umacron" unicode="&#x16b;" horiz-adv-x="675" 
d="M443 133v333h-73c-3 16 -3 32 0 48l141 23c49 8 64 -11 64 -59v-419h72c3 -17 3 -33 0 -48l-132 -21c-41 -7 -72 13 -72 68v9h-4c-47 -51 -105 -77 -174 -77c-55 0 -93 17 -117 44c-35 46 -44 109 -43 191v241h-73c-3 16 -3 32 0 48l140 23c49 8 65 -11 65 -59v-249
c0 -47 1 -70 12 -103s35 -50 74 -50c45 0 85 19 120 57zM482 620h-293c-2 12 -3 25 -3 38c0 12 1 25 3 38h293c2 -13 3 -25 3 -38s-1 -26 -3 -38z" />
    <glyph glyph-name="Uring" unicode="&#x16e;" horiz-adv-x="788" 
d="M127 304v351l-80 25c-3 13 -3 27 0 40h310c3 -13 3 -27 0 -40l-94 -25v-361c0 -156 45 -223 169 -223c113 0 169 75 169 224v360l-91 25c-3 13 -3 27 0 40h244c3 -13 3 -27 0 -40l-80 -24v-352c0 -205 -80 -314 -273 -314c-101 0 -172 25 -213 76s-61 131 -61 238z
M345 782c-19 18 -29 42 -29 72s10 54 29 72c19 19 44 28 75 28s56 -9 75 -28c20 -18 30 -42 30 -72s-10 -54 -30 -72c-19 -18 -44 -27 -75 -27s-56 9 -75 27zM386 894c-17 -21 -17 -59 0 -80c17 -20 51 -20 68 0c19 21 19 59 0 80c-17 21 -51 21 -68 0z" />
    <glyph glyph-name="uring" unicode="&#x16f;" horiz-adv-x="675" 
d="M443 133v333h-73c-3 16 -3 32 0 48l141 23c49 8 64 -11 64 -59v-419h72c3 -17 3 -33 0 -48l-132 -21c-41 -7 -72 13 -72 68v9h-4c-47 -51 -105 -77 -174 -77c-55 0 -93 17 -117 44c-35 46 -44 109 -43 191v241h-73c-3 16 -3 32 0 48l140 23c49 8 65 -11 65 -59v-249
c0 -47 1 -70 12 -103s35 -50 74 -50c45 0 85 19 120 57zM259 610c-19 18 -29 42 -29 72s10 54 29 72c19 19 44 28 75 28s56 -9 75 -28c20 -18 30 -42 30 -72s-10 -54 -30 -72c-19 -18 -44 -27 -75 -27s-56 9 -75 27zM300 722c-17 -21 -17 -59 0 -80c17 -20 51 -20 68 0
c19 21 19 59 0 80c-17 21 -51 21 -68 0z" />
    <glyph glyph-name="Uhungarumlaut" unicode="&#x170;" horiz-adv-x="788" 
d="M127 304v351l-80 25c-3 13 -3 27 0 40h310c3 -13 3 -27 0 -40l-94 -25v-361c0 -156 45 -223 169 -223c113 0 169 75 169 224v360l-91 25c-3 13 -3 27 0 40h244c3 -13 3 -27 0 -40l-80 -24v-352c0 -205 -80 -314 -273 -314c-101 0 -172 25 -213 76s-61 131 -61 238z
M269 811l102 124c26 -19 47 -40 64 -65l-126 -100c-16 10 -29 24 -40 41zM458 811l102 124c26 -19 47 -40 64 -65l-126 -100c-16 10 -29 24 -40 41z" />
    <glyph glyph-name="uhungarumlaut" unicode="&#x171;" horiz-adv-x="675" 
d="M443 133v333h-73c-3 16 -3 32 0 48l141 23c49 8 64 -11 64 -59v-419h72c3 -17 3 -33 0 -48l-132 -21c-41 -7 -72 13 -72 68v9h-4c-47 -51 -105 -77 -174 -77c-55 0 -93 17 -117 44c-35 46 -44 109 -43 191v241h-73c-3 16 -3 32 0 48l140 23c49 8 65 -11 65 -59v-249
c0 -47 1 -70 12 -103s35 -50 74 -50c45 0 85 19 120 57zM197 618l103 164c30 -17 54 -36 71 -55l-129 -144c-18 8 -33 20 -45 35zM375 618l103 164c30 -17 54 -36 71 -55l-129 -144c-18 8 -33 20 -45 35z" />
    <glyph glyph-name="Uogonek" unicode="&#x172;" horiz-adv-x="788" 
d="M127 304v351l-80 25c-3 13 -3 27 0 40h310c3 -13 3 -27 0 -40l-94 -25v-361c0 -156 45 -223 169 -223c113 0 169 75 169 224v360l-91 25c-3 13 -3 27 0 40h244c3 -13 3 -27 0 -40l-80 -24v-352c0 -167 -56 -267 -168 -301c-5 -17 -7 -36 -7 -58c0 -49 21 -86 66 -86
c13 0 27 4 42 11c9 -15 15 -31 17 -50c-21 -17 -50 -26 -87 -26c-75 0 -113 48 -113 121c0 25 4 51 13 77c-15 -1 -27 -2 -36 -2c-101 0 -172 25 -213 76s-61 131 -61 238z" />
    <glyph glyph-name="uogonek" unicode="&#x173;" horiz-adv-x="675" 
d="M443 133v333h-73c-3 16 -3 32 0 48l141 23c49 8 64 -11 64 -59v-419h72c3 -17 3 -33 0 -48l-115 -18c-3 -11 -4 -26 -4 -44c0 -60 22 -90 66 -90c13 0 27 4 42 11c9 -15 15 -31 17 -50c-21 -17 -50 -26 -87 -26c-75 0 -113 48 -113 121c0 27 5 54 15 82
c-17 11 -25 32 -25 61v9h-4c-47 -51 -105 -77 -174 -77c-55 0 -93 17 -117 44c-35 46 -44 109 -43 191v241h-73c-3 16 -3 32 0 48l140 23c49 8 65 -11 65 -59v-249c0 -47 1 -70 12 -103s35 -50 74 -50c45 0 85 19 120 57z" />
    <glyph glyph-name="Ydieresis" unicode="&#x178;" horiz-adv-x="728" 
d="M647 657l-207 -378v-214l90 -25c3 -13 3 -26 0 -40h-317c-3 13 -3 27 0 40l91 25v212l-212 379l-78 24c-3 14 -3 27 0 40h322c3 -13 3 -27 0 -40l-89 -25l158 -283h4l152 283l-86 25c-3 13 -3 27 0 40h247c3 -13 3 -27 0 -40zM335 789c-19 -2 -37 -3 -55 -3
c-19 0 -37 1 -55 3c-2 18 -3 36 -3 54c0 19 1 37 3 55c18 2 36 3 55 3c17 0 36 -1 55 -3c2 -18 3 -36 3 -55c0 -18 -1 -36 -3 -54zM557 789c-19 -2 -37 -3 -55 -3c-19 0 -37 1 -55 3c-2 18 -3 36 -3 54c0 19 1 37 3 55c18 2 36 3 55 3c17 0 36 -1 55 -3c2 -18 3 -36 3 -55
c0 -18 -1 -36 -3 -54z" />
    <glyph glyph-name="Zacute" unicode="&#x179;" horiz-adv-x="651" 
d="M57 540v180h550v-66l-407 -582h323l44 113c18 4 36 4 55 0v-185h-593v66l404 582h-279l-41 -108c-19 -4 -37 -4 -56 0zM279 822l181 113c18 -23 32 -50 42 -81l-196 -84c-13 15 -22 32 -27 52z" />
    <glyph glyph-name="zacute" unicode="&#x17a;" horiz-adv-x="534" 
d="M31 60l290 398v4h-197l-24 -75c-17 -4 -35 -4 -53 0v143h444v-60l-291 -398v-4h227l24 80c16 4 33 4 52 0v-148h-472v60zM225 620l114 161c25 -16 48 -35 69 -58l-138 -140c-17 8 -32 20 -45 37z" />
    <glyph glyph-name="Zdotaccent" unicode="&#x17b;" horiz-adv-x="651" 
d="M57 540v180h550v-66l-407 -582h323l44 113c18 4 36 4 55 0v-185h-593v66l404 582h-279l-41 -108c-19 -4 -37 -4 -56 0zM272 904c20 2 40 3 60 3c21 0 41 -1 61 -3c4 -40 4 -80 0 -120c-20 -2 -40 -3 -61 -3c-20 0 -40 1 -60 3c-4 40 -4 80 0 120z" />
    <glyph glyph-name="zdotaccent" unicode="&#x17c;" horiz-adv-x="534" 
d="M31 60l290 398v4h-197l-24 -75c-17 -4 -35 -4 -53 0v143h444v-60l-291 -398v-4h227l24 80c16 4 33 4 52 0v-148h-472v60zM212 744c20 2 40 3 60 3c21 0 41 -1 61 -3c4 -40 4 -80 0 -120c-20 -2 -40 -3 -61 -3c-20 0 -40 1 -60 3c-4 40 -4 80 0 120z" />
    <glyph glyph-name="Zcaron" unicode="&#x17d;" horiz-adv-x="651" 
d="M57 540v180h550v-66l-407 -582h323l44 113c18 4 36 4 55 0v-185h-593v66l404 582h-279l-41 -108c-19 -4 -37 -4 -56 0zM491 889l-151 -119h-10l-152 119c8 19 19 34 32 46l125 -79l124 79c14 -13 25 -29 32 -46z" />
    <glyph glyph-name="zcaron" unicode="&#x17e;" horiz-adv-x="534" 
d="M31 60l290 398v4h-197l-24 -75c-17 -4 -35 -4 -53 0v143h444v-60l-291 -398v-4h227l24 80c16 4 33 4 52 0v-148h-472v60zM416 744l-134 -161h-10l-135 161c13 17 28 29 43 38l97 -98l96 98c17 -9 32 -22 43 -38z" />
    <glyph glyph-name="florin" unicode="&#x192;" horiz-adv-x="609" 
d="M491 367h-128l-22 -155c-21 -144 -65 -240 -156 -308c-40 -31 -82 -46 -125 -46c-50 0 -83 22 -98 67c13 21 32 39 55 54c30 -37 58 -56 84 -56c48 0 85 87 112 262l27 182h-88c-3 19 -3 37 0 56h97l18 117c20 131 97 190 210 190c37 0 73 -7 110 -20l-16 -117
c-17 -3 -34 -3 -51 0l-12 81c-84 18 -113 -74 -125 -167l-12 -84h120c3 -19 3 -37 0 -56z" />
    <glyph glyph-name="Scommaaccent" unicode="&#x218;" horiz-adv-x="619" 
d="M48 51v158c19 4 37 4 56 0l48 -130c34 -9 69 -14 105 -14c53 0 97 10 133 29c37 20 55 51 55 94c0 164 -392 54 -392 327c0 49 13 90 40 123c53 67 135 92 235 92c82 0 155 -17 220 -51v-153c-19 -4 -37 -4 -55 0l-45 117c-30 10 -62 15 -96 15c-47 0 -86 -10 -119 -29
s-49 -49 -49 -89c0 -86 98 -101 197 -128c34 -10 66 -21 95 -33c59 -24 102 -80 102 -160c0 -75 -30 -132 -90 -171c-59 -39 -131 -58 -215 -58c-91 0 -166 20 -225 61zM246 -207c25 28 38 70 38 125c0 8 -1 19 -2 34c15 2 30 3 45 3c16 0 31 -1 45 -3
c5 -86 -24 -147 -89 -182c-15 3 -27 11 -37 23z" />
    <glyph glyph-name="scommaaccent" unicode="&#x219;" horiz-adv-x="504" 
d="M101 162l28 -93c25 -9 54 -13 87 -13c75 0 134 26 134 83c0 104 -299 33 -299 238c0 39 12 71 35 96c47 52 111 67 187 67c60 0 117 -12 170 -36v-120c-17 -4 -35 -4 -52 0l-27 83c-22 5 -46 7 -73 7c-80 0 -120 -25 -120 -74c0 -113 300 -38 300 -235
c0 -58 -23 -102 -70 -131s-103 -44 -170 -44c-74 0 -135 15 -183 44v128c18 4 36 4 53 0zM189 -207c25 28 38 70 38 125c0 8 -1 19 -2 34c15 2 30 3 45 3c16 0 31 -1 45 -3c5 -86 -24 -147 -89 -182c-15 3 -27 11 -37 23z" />
    <glyph glyph-name="circumflex" unicode="&#x2c6;" horiz-adv-x="400" 
d="M60 621l135 161h10l134 -161c-11 -17 -25 -29 -42 -38l-97 97l-98 -97c-17 8 -31 21 -42 38z" />
    <glyph glyph-name="caron" unicode="&#x2c7;" horiz-adv-x="400" 
d="M339 744l-134 -161h-10l-135 161c13 17 28 29 43 38l97 -98l96 98c17 -9 32 -22 43 -38z" />
    <glyph glyph-name="breve" unicode="&#x2d8;" horiz-adv-x="400" 
d="M56 744c10 2 20 3 31 3c10 0 21 -1 32 -3c7 -49 29 -79 81 -79s74 30 81 79c11 2 22 3 31 3c11 0 22 -1 32 -3c0 -89 -53 -149 -144 -149s-144 60 -144 149z" />
    <glyph glyph-name="dotaccent" unicode="&#x2d9;" horiz-adv-x="400" 
d="M136 744c20 2 40 3 60 3c21 0 41 -1 61 -3c4 -40 4 -80 0 -120c-20 -2 -40 -3 -61 -3c-20 0 -40 1 -60 3c-4 40 -4 80 0 120z" />
    <glyph glyph-name="ring" unicode="&#x2da;" horiz-adv-x="400" 
d="M124 610c-19 18 -29 42 -29 72s10 54 29 72c19 19 44 28 75 28s56 -9 75 -28c20 -18 30 -42 30 -72s-10 -54 -30 -72c-19 -18 -44 -27 -75 -27s-56 9 -75 27zM165 722c-17 -21 -17 -59 0 -80c17 -20 51 -20 68 0c19 21 19 59 0 80c-17 21 -51 21 -68 0z" />
    <glyph glyph-name="ogonek" unicode="&#x2db;" horiz-adv-x="400" 
d="M120 7h63c-5 -20 -8 -41 -8 -62c0 -49 21 -86 66 -86c13 0 27 4 42 11c9 -15 15 -31 17 -50c-21 -17 -50 -26 -87 -26c-75 0 -113 48 -113 121c0 31 7 62 20 92z" />
    <glyph glyph-name="tilde" unicode="&#x2dc;" horiz-adv-x="400" 
d="M97 601c-18 -4 -36 -4 -54 0c0 75 36 130 93 130c19 0 43 -9 70 -28c28 -19 48 -28 60 -28c23 0 35 26 36 57c18 4 36 4 54 0c0 -73 -31 -129 -88 -129c-24 0 -50 9 -78 28c-27 19 -46 28 -56 28c-19 0 -33 -30 -37 -58z" />
    <glyph glyph-name="hungarumlaut" unicode="&#x2dd;" horiz-adv-x="400" 
d="M24 618l103 164c30 -17 54 -36 71 -55l-129 -144c-18 8 -33 20 -45 35zM202 618l103 164c30 -17 54 -36 71 -55l-129 -144c-18 8 -33 20 -45 35z" />
    <glyph glyph-name="afii10023" unicode="&#x401;" horiz-adv-x="674" 
d="M45 40l91 25v590l-91 25c-3 13 -3 27 0 40h573v-163c-19 -4 -38 -4 -56 0l-34 91h-256v-237h185l25 62c15 3 30 3 45 0v-214c-15 -3 -30 -3 -45 0l-25 80h-185v-267h275l35 96c18 4 36 4 55 0v-168h-592c-3 13 -3 27 0 40zM304 789c-19 -2 -37 -3 -55 -3
c-19 0 -37 1 -55 3c-2 18 -3 36 -3 54c0 19 1 37 3 55c18 2 36 3 55 3c17 0 36 -1 55 -3c2 -18 3 -36 3 -55c0 -18 -1 -36 -3 -54zM526 789c-19 -2 -37 -3 -55 -3c-19 0 -37 1 -55 3c-2 18 -3 36 -3 54c0 19 1 37 3 55c18 2 36 3 55 3c17 0 36 -1 55 -3c2 -18 3 -36 3 -55
c0 -18 -1 -36 -3 -54z" />
    <glyph glyph-name="afii10051" unicode="&#x402;" horiz-adv-x="783" 
d="M128 40l90 25v583h-103l-41 -108c-18 -4 -37 -4 -56 0v180h610v-180c-19 -4 -37 -4 -55 0l-41 108h-178v-244c51 15 100 23 149 23c159 0 238 -90 238 -269c0 -53 -7 -105 -34 -164c-36 -87 -117 -154 -260 -156c-7 13 -10 28 -10 44c67 7 116 48 137 105
c21 56 28 104 28 157c0 145 -39 207 -150 207c-33 0 -65 -4 -98 -13v-273l84 -25c3 -13 3 -27 0 -40h-310c-3 13 -3 27 0 40z" />
    <glyph glyph-name="afii10052" unicode="&#x403;" horiz-adv-x="612" 
d="M551 540l-42 108h-237v-583l90 -25c3 -13 3 -27 0 -40h-317c-3 13 -3 27 0 40l91 25v590l-91 25c-3 13 -3 27 0 40h561v-180c-19 -4 -37 -4 -55 0zM273 822l181 113c18 -23 32 -50 42 -81l-196 -84c-13 15 -22 32 -27 52z" />
    <glyph glyph-name="afii10053" unicode="&#x404;" horiz-adv-x="682" 
d="M534 83l48 128c18 4 37 4 56 0v-157c-69 -43 -150 -64 -243 -64c-217 0 -348 133 -348 370c0 117 35 207 104 272s160 98 272 98c82 0 152 -17 210 -51v-153c-19 -4 -38 -4 -56 0l-45 115c-28 12 -59 18 -92 18c-153 0 -237 -95 -252 -250l360 9c2 -13 3 -27 3 -40
s-1 -26 -3 -39l-362 8c4 -177 85 -282 250 -282c36 0 69 6 98 18z" />
    <glyph glyph-name="afii10054" unicode="&#x405;" horiz-adv-x="619" 
d="M48 51v158c19 4 37 4 56 0l48 -130c34 -9 69 -14 105 -14c53 0 97 10 133 29c37 20 55 51 55 94c0 164 -392 54 -392 327c0 49 13 90 40 123c53 67 135 92 235 92c82 0 155 -17 220 -51v-153c-19 -4 -37 -4 -55 0l-45 117c-30 10 -62 15 -96 15c-47 0 -86 -10 -119 -29
s-49 -49 -49 -89c0 -86 98 -101 197 -128c34 -10 66 -21 95 -33c59 -24 102 -80 102 -160c0 -75 -30 -132 -90 -171c-59 -39 -131 -58 -215 -58c-91 0 -166 20 -225 61z" />
    <glyph glyph-name="afii10055" unicode="&#x406;" horiz-adv-x="397" 
d="M136 65v590l-91 25c-3 13 -3 27 0 40h317c3 -13 3 -27 0 -40l-90 -25v-590l90 -25c3 -13 3 -27 0 -40h-317c-3 13 -3 27 0 40z" />
    <glyph glyph-name="afii10056" unicode="&#x407;" horiz-adv-x="398" 
d="M128 65v590l-91 25c-3 13 -3 27 0 40h317c3 -13 3 -27 0 -40l-90 -25v-590l90 -25c3 -13 3 -27 0 -40h-317c-3 13 -3 27 0 40zM140 789c-19 -2 -38 -3 -55 -3c-19 0 -37 1 -55 3c-2 18 -3 36 -3 54c0 19 1 37 3 55c18 2 36 3 55 3c18 0 36 -1 55 -3c2 -18 3 -36 3 -55
c0 -18 -1 -36 -3 -54zM362 789c-19 -2 -38 -3 -55 -3c-19 0 -37 1 -55 3c-2 18 -3 36 -3 54c0 19 1 37 3 55c18 2 36 3 55 3c18 0 36 -1 55 -3c2 -18 3 -36 3 -55c0 -18 -1 -36 -3 -54z" />
    <glyph glyph-name="afii10057" unicode="&#x408;" horiz-adv-x="398" 
d="M130 76v579l-91 25c-3 13 -3 27 0 40h317c3 -13 3 -27 0 -40l-90 -25v-617c0 -63 -22 -112 -67 -147s-104 -53 -177 -53c-6 13 -10 27 -11 44c95 20 119 78 119 194z" />
    <glyph glyph-name="afii10058" unicode="&#x409;" horiz-adv-x="987" 
d="M19 -10l-5 5v182c18 4 36 4 55 0l26 -76c56 40 96 131 113 250c9 60 16 112 19 155s6 93 8 149l-90 25c-3 13 -3 27 0 40h570c3 -13 3 -27 0 -40l-91 -25v-231h23c216 0 309 -59 309 -207s-97 -217 -322 -217h-236c-3 13 -3 27 0 40l90 25v583h-179
c-7 -205 -28 -350 -73 -466c-44 -116 -116 -179 -217 -192zM815 212c0 108 -56 140 -191 140v-280c67 0 116 10 146 29s45 56 45 111z" />
    <glyph glyph-name="afii10059" unicode="&#x40a;" horiz-adv-x="1066" 
d="M571 352h-299v-287l80 -25c3 -13 3 -27 0 -40h-307c-3 13 -3 27 0 40l91 25v590l-91 25c-3 13 -3 27 0 40h307c3 -13 3 -27 0 -40l-80 -25v-231h299v231l-81 25c-3 13 -3 27 0 40h307c3 -13 3 -27 0 -40l-90 -25v-231h24c216 0 309 -59 309 -207s-98 -217 -325 -217h-225
c-3 13 -3 27 0 40l81 25v287zM707 352v-280c67 0 116 10 146 29c31 19 46 56 46 111s-15 92 -46 111c-30 19 -79 29 -146 29z" />
    <glyph glyph-name="afii10060" unicode="&#x40b;" horiz-adv-x="833" 
d="M128 40l90 25v583h-103l-41 -108c-19 -4 -37 -4 -56 0v180h610v-180c-19 -4 -37 -4 -55 0l-41 108h-178v-244c56 15 107 23 153 23c65 0 118 -16 159 -48s61 -85 61 -160v-154l91 -25c3 -13 3 -26 0 -40h-227v175c0 64 -9 109 -26 136s-51 40 -104 40
c-37 0 -72 -4 -107 -13v-273l84 -25c3 -13 3 -27 0 -40h-310c-3 13 -3 27 0 40z" />
    <glyph glyph-name="afii10061" unicode="&#x40c;" horiz-adv-x="773" 
d="M771 0h-202l-285 361l258 302l-61 17c-3 12 -3 25 0 40h254c3 -13 3 -27 0 -40l-105 -28l-211 -244l268 -343l84 -25c3 -13 3 -27 0 -40zM362 680l-90 -25v-590l90 -25c3 -13 3 -27 0 -40h-317c-3 13 -3 27 0 40l91 25v590l-91 25c-3 13 -3 27 0 40h317
c3 -13 3 -27 0 -40zM349 822l181 113c18 -23 32 -50 42 -81l-196 -84c-13 15 -22 32 -27 52z" />
    <glyph glyph-name="afii10062" unicode="&#x40e;" horiz-adv-x="714" 
d="M118 -9v161c18 4 36 4 55 0l31 -81c55 4 102 38 141 103l-248 482l-79 24c-3 14 -3 27 0 40h319c3 -13 3 -27 0 -40l-88 -25l165 -323h4l138 324l-86 24c-3 13 -3 27 0 40h244c3 -13 3 -27 0 -40l-79 -25l-168 -391c-41 -96 -74 -154 -123 -203
c-48 -49 -107 -72 -186 -72c-13 0 -27 1 -40 2zM240 922c13 3 27 4 41 4c13 0 26 -1 39 -4c7 -56 32 -84 74 -84c43 0 67 28 74 84c27 5 53 5 80 0c-5 -93 -66 -145 -154 -145c-93 0 -149 50 -154 145z" />
    <glyph glyph-name="afii10145" unicode="&#x40f;" horiz-adv-x="832" 
d="M390 -143l-31 143h-314c-3 13 -3 27 0 40l91 25v590l-91 25c-3 13 -3 27 0 40h314c3 -13 3 -27 0 -40l-87 -25v-583h299v583l-88 25c-3 13 -3 27 0 40h314c3 -13 3 -27 0 -40l-90 -25v-590l90 -25c3 -13 3 -27 0 -40h-315l-30 -143c-11 -2 -21 -3 -31 -3
c-11 0 -21 1 -31 3z" />
    <glyph glyph-name="afii10017" unicode="&#x410;" horiz-adv-x="805" 
d="M478 40l91 25l-59 157h-273l-60 -157l91 -25c3 -13 3 -27 0 -40h-248c-3 13 -3 27 0 40l79 24l249 656h119l248 -656l80 -24c3 -13 3 -26 0 -40h-317c-3 13 -3 27 0 40zM376 577h-5l-107 -283h218z" />
    <glyph glyph-name="afii10018" unicode="&#x411;" horiz-adv-x="692" 
d="M542 540l-41 108h-229v-215h39c85 0 146 -5 206 -24c86 -25 135 -80 135 -181c0 -72 -24 -127 -64 -160c-63 -51 -158 -69 -277 -68h-266c-3 15 -3 28 0 40l91 25v590l-91 25c-3 13 -3 27 0 40h553v-180c-19 -4 -38 -4 -56 0zM310 362h-38v-290h38c141 0 202 42 202 146
c0 105 -61 144 -202 144z" />
    <glyph glyph-name="afii10019" unicode="&#x412;" horiz-adv-x="689" 
d="M470 534c0 79 -46 114 -149 114h-49v-234h53c97 0 145 40 145 120zM336 342h-64v-270h59c116 0 182 31 182 134s-62 136 -177 136zM45 40l91 25v590l-91 25c-3 13 -3 27 0 40h281c76 0 132 -7 191 -31c60 -23 95 -71 95 -143c0 -80 -51 -140 -131 -156v-4
c101 -7 174 -73 174 -170c0 -164 -151 -216 -310 -216h-300c-3 13 -3 27 0 40z" />
    <glyph glyph-name="afii10020" unicode="&#x413;" horiz-adv-x="612" 
d="M551 540l-42 108h-237v-583l90 -25c3 -13 3 -27 0 -40h-317c-3 13 -3 27 0 40l91 25v590l-91 25c-3 13 -3 27 0 40h561v-180c-19 -4 -37 -4 -55 0z" />
    <glyph glyph-name="afii10021" unicode="&#x414;" horiz-adv-x="759" 
d="M14 -143v214h65c63 57 105 155 124 282c9 63 15 115 18 155s6 89 8 147l-90 25c-3 13 -3 27 0 40h578c3 -13 3 -27 0 -40l-89 -25v-584h89v-214c-11 -2 -22 -3 -31 -3c-11 0 -21 1 -31 3l-51 143h-478l-51 -143c-10 -2 -20 -3 -31 -3c-10 0 -20 1 -30 3zM492 71v577h-189
c-5 -148 -17 -267 -36 -356c-18 -89 -48 -161 -90 -217v-4h315z" />
    <glyph glyph-name="afii10022" unicode="&#x415;" horiz-adv-x="674" 
d="M45 40l91 25v590l-91 25c-3 13 -3 27 0 40h573v-163c-19 -4 -38 -4 -56 0l-34 91h-256v-237h185l25 62c15 3 30 3 45 0v-214c-15 -3 -30 -3 -45 0l-25 80h-185v-267h275l35 96c18 4 36 4 55 0v-168h-592c-3 13 -3 27 0 40z" />
    <glyph glyph-name="afii10024" unicode="&#x416;" horiz-adv-x="1127" 
d="M1126 0h-203l-274 361l248 302l-61 17c-3 12 -3 25 0 40h254c3 -13 3 -27 0 -40l-105 -28l-201 -244l258 -343l84 -25c3 -13 3 -26 0 -40zM721 680l-84 -25v-590l84 -25c3 -13 3 -27 0 -40h-304c-3 14 -3 27 0 40l84 25v590l-84 25c-3 13 -3 27 0 40h304
c3 -13 3 -27 0 -40zM489 361l-275 -361h-203c-3 13 -3 27 0 40l84 25l259 343l-201 244l-105 28c-3 13 -3 27 0 40h254c3 -15 3 -28 0 -40l-61 -17z" />
    <glyph glyph-name="afii10025" unicode="&#x417;" horiz-adv-x="621" 
d="M67 534v151c69 30 146 45 233 45c67 0 122 -11 173 -36s82 -74 82 -139c0 -88 -58 -154 -147 -167v-5c101 -12 166 -71 166 -172c0 -51 -15 -93 -45 -128c-59 -68 -146 -93 -253 -93c-89 0 -166 18 -230 53v159c19 4 37 4 55 0l46 -124c33 -9 66 -13 100 -13
c53 0 98 12 133 35c36 23 54 61 54 112c0 99 -65 129 -180 129h-70c-2 11 -3 23 -3 34c0 12 1 24 3 36h62c108 0 170 49 170 132c0 39 -15 67 -46 86c-30 19 -67 28 -110 28c-37 0 -69 -6 -97 -17l-40 -106c-19 -4 -37 -4 -56 0z" />
    <glyph glyph-name="afii10026" unicode="&#x418;" horiz-adv-x="847" 
d="M582 478l-310 -342v-71l87 -25c3 -13 3 -27 0 -40h-314c-3 14 -3 27 0 40l91 25v590l-91 25c-3 13 -3 27 0 40h314c3 -13 3 -27 0 -40l-87 -25v-408h4l310 341v67l-88 25c-3 13 -3 27 0 40h314c3 -13 3 -27 0 -40l-90 -25v-590l90 -25c3 -13 3 -26 0 -40h-314
c-3 13 -3 27 0 40l88 25v413h-4z" />
    <glyph glyph-name="afii10027" unicode="&#x419;" horiz-adv-x="847" 
d="M582 478l-310 -342v-71l87 -25c3 -13 3 -27 0 -40h-314c-3 14 -3 27 0 40l91 25v590l-91 25c-3 13 -3 27 0 40h314c3 -13 3 -27 0 -40l-87 -25v-408h4l310 341v67l-88 25c-3 13 -3 27 0 40h314c3 -13 3 -27 0 -40l-90 -25v-590l90 -25c3 -13 3 -26 0 -40h-314
c-3 13 -3 27 0 40l88 25v413h-4zM274 922c13 3 27 4 41 4c13 0 26 -1 39 -4c7 -56 32 -84 74 -84c43 0 67 28 74 84c27 5 53 5 80 0c-5 -93 -66 -145 -154 -145c-93 0 -149 50 -154 145z" />
    <glyph glyph-name="afii10028" unicode="&#x41a;" horiz-adv-x="773" 
d="M771 0h-202l-285 361l258 302l-61 17c-3 12 -3 25 0 40h254c3 -13 3 -27 0 -40l-105 -28l-211 -244l268 -343l84 -25c3 -13 3 -27 0 -40zM362 680l-90 -25v-590l90 -25c3 -13 3 -27 0 -40h-317c-3 13 -3 27 0 40l91 25v590l-91 25c-3 13 -3 27 0 40h317
c3 -13 3 -27 0 -40z" />
    <glyph glyph-name="afii10029" unicode="&#x41b;" horiz-adv-x="764" 
d="M19 -10l-5 5v182c18 4 36 4 55 0l26 -76c56 40 96 130 113 251c9 61 16 112 19 153c3 42 6 92 8 150l-90 25c-3 13 -3 27 0 40h579c3 -13 3 -27 0 -40l-91 -25v-590l91 -25c3 -13 3 -27 0 -40h-317c-3 13 -3 27 0 40l90 25v583h-188c-7 -205 -28 -350 -73 -466
c-44 -116 -116 -179 -217 -192z" />
    <glyph glyph-name="afii10030" unicode="&#x41c;" horiz-adv-x="1047" 
d="M522 176h4l218 544h241c3 -13 3 -27 0 -40l-91 -25l28 -590l91 -25c3 -13 3 -26 0 -40h-318c-3 13 -3 27 0 40l90 25l-23 493h-4l-225 -558h-92l-205 558h-4l-43 -493l91 -25c3 -13 3 -26 0 -40h-245c-3 13 -3 27 0 40l80 24l53 591l-91 25c-3 13 -3 27 0 40h246z" />
    <glyph glyph-name="afii10031" unicode="&#x41d;" horiz-adv-x="842" 
d="M581 342h-309v-277l87 -25c3 -13 3 -27 0 -40h-314c-3 13 -3 27 0 40l91 25v590l-91 25c-3 13 -3 27 0 40h314c3 -13 3 -27 0 -40l-87 -25v-241h309v241l-88 25c-3 13 -3 27 0 40h314c3 -13 3 -27 0 -40l-90 -25v-590l90 -25c3 -13 3 -26 0 -40h-314c-3 13 -3 27 0 40
l88 25v277z" />
    <glyph glyph-name="afii10032" unicode="&#x41e;" horiz-adv-x="765" 
d="M47 360c0 240 115 370 336 370c223 0 335 -129 335 -370c0 -247 -112 -370 -335 -370s-336 126 -336 370zM383 658c-131 0 -197 -99 -197 -298s66 -298 197 -298c130 0 195 99 195 298s-65 298 -195 298z" />
    <glyph glyph-name="afii10033" unicode="&#x41f;" horiz-adv-x="832" 
d="M136 65v590l-91 25c-3 13 -3 27 0 40h752c3 -13 3 -27 0 -40l-90 -25v-590l90 -25c3 -13 3 -27 0 -40h-314c-3 13 -3 27 0 40l88 25v583h-299v-583l87 -25c3 -13 3 -26 0 -40h-314c-3 13 -3 27 0 40z" />
    <glyph glyph-name="afii10034" unicode="&#x420;" horiz-adv-x="657" 
d="M486 491c0 105 -62 157 -185 157h-29v-319h24c124 0 190 59 190 162zM302 257h-30v-192l90 -25c3 -13 3 -26 0 -40h-317c-3 13 -3 27 0 40l91 25v590l-91 25c-3 13 -3 27 0 40h255c219 0 323 -70 323 -221c0 -71 -27 -129 -82 -174s-134 -68 -239 -68z" />
    <glyph glyph-name="afii10035" unicode="&#x421;" horiz-adv-x="685" 
d="M537 82l49 129c19 4 37 4 55 0v-157c-71 -43 -153 -64 -248 -64c-107 0 -192 32 -254 97c-61 65 -92 157 -92 274c0 114 34 204 101 270c68 66 158 99 271 99c85 0 157 -17 217 -52v-153c-18 -4 -36 -4 -55 0l-46 115c-29 12 -62 18 -99 18c-85 0 -148 -27 -189 -82
s-61 -127 -61 -216c0 -184 80 -295 249 -295c37 0 71 6 102 17z" />
    <glyph glyph-name="afii10036" unicode="&#x422;" horiz-adv-x="649" 
d="M580 540l-42 108h-145v-583l90 -25c3 -13 3 -26 0 -40h-317c-3 13 -3 27 0 40l90 25v583h-145l-42 -108c-18 -4 -36 -4 -55 0v180h621v-180c-18 -4 -36 -4 -55 0z" />
    <glyph glyph-name="afii10037" unicode="&#x423;" horiz-adv-x="714" 
d="M118 -9v161c18 4 36 4 55 0l31 -81c55 4 102 38 141 103l-248 482l-79 24c-3 14 -3 27 0 40h319c3 -13 3 -27 0 -40l-88 -25l165 -323h4l138 324l-86 24c-3 13 -3 27 0 40h244c3 -13 3 -27 0 -40l-79 -25l-168 -391c-41 -96 -74 -154 -123 -203
c-48 -49 -107 -72 -186 -72c-13 0 -27 1 -40 2z" />
    <glyph glyph-name="afii10038" unicode="&#x424;" horiz-adv-x="837" 
d="M179 361c0 -116 49 -182 172 -197v393c-115 -13 -172 -78 -172 -196zM658 361c0 115 -50 182 -171 197v-394c123 13 171 81 171 197zM351 614v41l-91 25c-3 13 -3 27 0 40h317c3 -13 3 -27 0 -40l-90 -25v-41c213 -13 311 -98 311 -253c0 -157 -96 -239 -311 -254v-42
l90 -25c3 -13 3 -27 0 -40h-317c-3 13 -3 27 0 40l91 25v43c-208 15 -312 99 -312 253s104 238 312 253z" />
    <glyph glyph-name="afii10039" unicode="&#x425;" horiz-adv-x="746" 
d="M496 65l-150 233l-159 -234l88 -24c3 -13 3 -27 0 -40h-255c-3 13 -3 27 0 40l77 23l207 302l-186 291l-78 24c-3 14 -3 27 0 40h320c3 -13 3 -27 0 -40l-81 -25l131 -204l140 204l-80 25c-3 13 -3 27 0 40h247c3 -13 3 -27 0 -40l-77 -23l-187 -273l205 -321l78 -23
c3 -13 3 -27 0 -40h-329c-3 13 -3 27 0 40z" />
    <glyph glyph-name="afii10040" unicode="&#x426;" horiz-adv-x="832" 
d="M736 -143l-51 143h-640c-3 13 -3 27 0 40l91 25v590l-91 25c-3 13 -3 27 0 40h314c3 -13 3 -27 0 -40l-87 -25v-583h299v583l-88 25c-3 13 -3 27 0 40h314c3 -13 3 -27 0 -40l-90 -25v-584h90v-214c-10 -2 -20 -3 -31 -3s-21 1 -30 3z" />
    <glyph glyph-name="afii10041" unicode="&#x427;" horiz-adv-x="778" 
d="M102 478v177l-90 25c-3 13 -3 27 0 40h306c3 -13 3 -27 0 -40l-80 -25v-135c0 -125 46 -179 159 -179c43 0 83 5 119 14v300l-80 25c-3 13 -3 27 0 40h307c3 -13 3 -27 0 -40l-91 -25v-590l91 -25c3 -13 3 -26 0 -40h-317c-3 13 -3 27 0 40l90 25v222
c-51 -15 -103 -23 -158 -23c-75 0 -137 17 -185 50c-47 33 -71 88 -71 164z" />
    <glyph glyph-name="afii10042" unicode="&#x428;" horiz-adv-x="1111" 
d="M1076 0h-1031c-3 13 -3 27 0 40l91 25v590l-91 25c-3 13 -3 27 0 40h301c3 -13 3 -27 0 -40l-74 -25v-583h221v583l-74 25c-3 13 -3 27 0 40h284c3 -13 3 -27 0 -40l-74 -25v-583h221v583l-74 25c-3 13 -3 27 0 40h300c3 -13 3 -27 0 -40l-90 -25v-590l90 -25
c3 -13 3 -27 0 -40z" />
    <glyph glyph-name="afii10043" unicode="&#x429;" horiz-adv-x="1111" 
d="M1014 -143l-51 143h-918c-3 13 -3 27 0 40l91 25v590l-91 25c-3 13 -3 27 0 40h301c3 -13 3 -27 0 -40l-74 -25v-583h221v583l-74 25c-3 13 -3 27 0 40h284c3 -13 3 -27 0 -40l-74 -25v-583h221v583l-74 25c-3 13 -3 27 0 40h300c3 -13 3 -27 0 -40l-90 -25v-584h90v-214
c-11 -2 -22 -3 -31 -3c-12 0 -22 1 -31 3z" />
    <glyph glyph-name="afii10044" unicode="&#x42a;" horiz-adv-x="729" 
d="M230 65v585h-115l-41 -110c-19 -4 -37 -4 -56 0v180h439c3 -13 3 -27 0 -40l-91 -25v-231h23c217 0 309 -58 309 -206c0 -149 -97 -218 -324 -218h-234c-3 13 -3 27 0 40zM557 212c0 108 -56 140 -191 140v-280c67 0 116 10 146 29s45 56 45 111z" />
    <glyph glyph-name="afii10045" unicode="&#x42b;" horiz-adv-x="955" 
d="M136 65v590l-91 25c-3 13 -3 27 0 40h317c3 -13 3 -27 0 -40l-90 -25v-231h23c217 0 309 -58 309 -206s-98 -218 -319 -218h-240c-3 14 -3 27 0 40zM463 212c0 108 -58 140 -191 140v-280c67 0 116 10 146 29s45 56 45 111zM694 65v590l-91 25c-3 13 -3 27 0 40h317
c3 -13 3 -27 0 -40l-90 -25v-590l90 -25c3 -13 3 -27 0 -40h-317c-3 13 -3 27 0 40z" />
    <glyph glyph-name="afii10046" unicode="&#x42c;" horiz-adv-x="630" 
d="M136 65v590l-91 25c-3 13 -3 27 0 40h317c3 -13 3 -27 0 -40l-90 -25v-231h23c217 0 309 -58 309 -206s-98 -218 -319 -218h-240c-3 14 -3 27 0 40zM463 212c0 108 -58 140 -191 140v-280c67 0 116 10 146 29s45 56 45 111z" />
    <glyph glyph-name="afii10047" unicode="&#x42d;" horiz-adv-x="681" 
d="M99 205l49 -128c25 -9 54 -14 87 -14c172 0 256 107 260 284l-361 -8c-2 13 -3 26 -3 40c0 13 1 26 3 39l359 -9c-12 156 -90 249 -239 249c-37 0 -71 -7 -103 -22l-46 -117c-19 -4 -37 -4 -55 0v153c65 39 139 58 222 58c115 0 204 -32 267 -97c64 -65 96 -153 96 -264
c0 -117 -32 -209 -96 -277c-63 -68 -152 -102 -266 -102c-89 0 -166 19 -229 58v157c19 4 37 4 55 0z" />
    <glyph glyph-name="afii10048" unicode="&#x42e;" horiz-adv-x="1077" 
d="M718 658c-124 0 -179 -113 -179 -298s55 -298 179 -298c119 0 178 99 178 298s-59 298 -178 298zM45 40l91 25v590l-91 25c-3 13 -3 27 0 40h317c3 -13 3 -27 0 -40l-90 -25v-241h129c15 205 122 316 317 316c211 0 318 -129 318 -370c0 -247 -106 -370 -318 -370
c-207 0 -313 118 -319 354h-127v-279l90 -25c3 -13 3 -27 0 -40h-317c-3 13 -3 27 0 40z" />
    <glyph glyph-name="afii10049" unicode="&#x42f;" horiz-adv-x="743" 
d="M397 40l84 25v226h-23c-34 -4 -43 -16 -73 -57l-170 -234h-202c-3 13 -3 27 0 40l81 25l136 185c25 34 55 54 91 61v4c-69 3 -119 22 -152 57c-32 35 -48 78 -48 129c0 146 110 219 331 219h255c3 -13 3 -27 0 -40l-90 -25v-590l90 -25c3 -13 3 -26 0 -40h-310
c-3 13 -3 27 0 40zM452 358h29v290h-34c-127 0 -186 -44 -186 -147s59 -143 191 -143z" />
    <glyph glyph-name="afii10065" unicode="&#x430;" horiz-adv-x="611" 
d="M511 361v-302h73c3 -17 3 -33 0 -48l-132 -21c-43 -7 -73 13 -73 68v9h-4c-41 -51 -96 -77 -167 -77c-96 0 -161 57 -161 154c-4 83 52 129 112 151c20 8 44 14 72 17c57 8 91 10 148 10v51c0 66 -42 99 -126 99c-28 0 -58 -3 -89 -9l-28 -89c-17 -4 -35 -4 -53 0v125
c79 27 150 41 213 41c143 0 215 -60 215 -179zM379 135v132h-19c-41 0 -77 -5 -116 -21c-39 -15 -63 -49 -63 -96c0 -53 30 -81 74 -81c45 0 97 29 124 66z" />
    <glyph glyph-name="afii10066" unicode="&#x431;" horiz-adv-x="605" 
d="M430 253c0 131 -40 196 -120 196c-79 0 -119 -65 -119 -196s40 -197 119 -197c80 0 120 66 120 197zM564 253c0 -171 -87 -263 -254 -263c-99 0 -169 35 -205 96s-50 130 -50 221c0 217 55 345 164 383c48 17 129 28 242 33l15 36c13 3 25 3 38 0v-137l-6 -7l-71 -2
c-29 -1 -51 -1 -66 -2l-56 -4c-44 -4 -58 -11 -90 -23c-31 -12 -43 -29 -62 -56c-19 -25 -29 -60 -37 -105l4 -1c47 62 111 93 192 93c153 0 242 -102 242 -262z" />
    <glyph glyph-name="afii10067" unicode="&#x432;" horiz-adv-x="603" 
d="M304 464h-50v-158h42c69 0 108 15 108 78c0 61 -37 80 -100 80zM432 157c0 59 -39 88 -116 88h-62v-179h52c84 0 126 30 126 91zM49 38l73 20v413l-73 21c-3 12 -3 25 0 38h278c141 0 212 -44 212 -132c0 -59 -39 -106 -104 -115v-4c84 -7 132 -56 132 -120
c0 -108 -96 -159 -245 -159h-273c-3 12 -3 25 0 38z" />
    <glyph glyph-name="afii10068" unicode="&#x433;" horiz-adv-x="504" 
d="M440 378l-28 84h-158v-404l72 -20c3 -12 3 -25 0 -38h-277c-3 13 -3 26 0 38l73 20v414l-73 20c-3 12 -3 25 0 38h443v-152c-19 -4 -36 -4 -52 0z" />
    <glyph glyph-name="afii10069" unicode="&#x434;" horiz-adv-x="632" 
d="M163 68h220v394h-139c-7 -185 -34 -316 -81 -394zM515 472v-404h73v-188c-10 -2 -20 -3 -29 -3c-10 0 -20 1 -29 3l-46 120h-367l-46 -120c-19 -4 -38 -4 -57 0v188h63c61 59 94 194 97 404l-72 20c-3 12 -3 25 0 38h484c3 -13 3 -26 0 -38z" />
    <glyph glyph-name="afii10070" unicode="&#x435;" horiz-adv-x="573" 
d="M523 266h-348c0 -143 54 -209 178 -209c29 0 55 4 79 11l29 94c17 4 35 4 53 0v-123c-60 -33 -127 -49 -202 -49c-171 0 -272 95 -272 275c0 172 97 275 261 275c72 0 127 -21 166 -63s59 -96 59 -162c0 -14 -1 -30 -3 -49zM299 475c-72 0 -112 -62 -121 -153l216 14
c0 88 -39 139 -95 139z" />
    <glyph glyph-name="afii10072" unicode="&#x436;" horiz-adv-x="945" 
d="M948 0h-185l-207 269v5l195 200l-65 18c-3 12 -3 25 0 38h241c3 -13 3 -26 0 -38l-90 -22l-151 -156l199 -259l63 -17c3 -12 3 -25 0 -38zM400 269l-207 -269h-186c-3 13 -3 26 0 38l64 17l198 259l-151 156l-90 22c-3 12 -3 25 0 38h241c3 -13 3 -26 0 -38l-65 -18
l196 -200v-5zM346 38l66 20v414l-62 20c-3 12 -3 25 0 38h256c3 -13 3 -26 0 -38l-62 -20v-414l66 -20c3 -13 3 -25 0 -38h-264c-3 13 -3 26 0 38z" />
    <glyph glyph-name="afii10073" unicode="&#x437;" horiz-adv-x="516" 
d="M93 161l27 -86c29 -12 62 -18 99 -18c71 0 122 29 122 101c0 57 -38 85 -115 85h-78c-2 11 -3 22 -3 32c0 11 1 22 3 34h57c81 0 122 30 122 90c0 50 -35 75 -105 75c-33 0 -65 -5 -94 -14l-27 -85c-17 -4 -35 -4 -53 0v122c74 29 143 43 207 43c95 0 206 -32 206 -138
c0 -61 -42 -108 -105 -120v-4c76 -12 119 -58 119 -125c0 -55 -23 -96 -69 -123c-45 -27 -100 -40 -165 -40c-69 0 -136 16 -201 47v124c19 4 37 4 53 0z" />
    <glyph glyph-name="afii10074" unicode="&#x438;" horiz-adv-x="715" 
d="M254 216l4 -1l213 201v56l-65 20c-3 12 -3 25 0 38h269c3 -13 3 -26 0 -38l-72 -20v-414l72 -20c3 -12 3 -25 0 -38h-269c-3 13 -3 26 0 38l65 20v260h-4l-213 -201v-59l65 -20c3 -12 3 -25 0 -38h-270c-3 12 -3 25 0 38l73 20v414l-73 20c-3 12 -3 25 0 38h270
c3 -13 3 -26 0 -38l-65 -20v-256z" />
    <glyph glyph-name="afii10075" unicode="&#x439;" horiz-adv-x="715" 
d="M254 216l4 -1l213 201v56l-65 20c-3 12 -3 25 0 38h269c3 -13 3 -26 0 -38l-72 -20v-414l72 -20c3 -12 3 -25 0 -38h-269c-3 13 -3 26 0 38l65 20v260h-4l-213 -201v-59l65 -20c3 -12 3 -25 0 -38h-270c-3 12 -3 25 0 38l73 20v414l-73 20c-3 12 -3 25 0 38h270
c3 -13 3 -26 0 -38l-65 -20v-256zM216 744c24 5 50 5 74 0c7 -55 24 -87 72 -87s65 32 72 87c12 3 24 4 36 4c13 0 26 -1 38 -4c-3 -88 -58 -149 -146 -149s-143 61 -146 149z" />
    <glyph glyph-name="afii10076" unicode="&#x43a;" horiz-adv-x="658" 
d="M49 38l73 20v414l-73 20c-3 12 -3 25 0 38h270c3 -13 3 -26 0 -38l-65 -20v-414l65 -20c3 -12 3 -25 0 -38h-270c-3 12 -3 25 0 38zM661 0h-186l-209 269v5l197 201l-64 17c-3 12 -3 25 0 38h241c3 -13 3 -26 0 -38l-90 -22l-153 -156l201 -259l63 -17c3 -11 3 -24 0 -38
z" />
    <glyph glyph-name="afii10077" unicode="&#x43b;" horiz-adv-x="647" 
d="M188 472l-72 20c-3 12 -3 25 0 38h485c3 -13 3 -26 0 -38l-71 -20v-414l72 -20c3 -12 3 -25 0 -38h-277c-3 13 -3 26 0 38l73 20v404h-140c-3 -63 -7 -116 -12 -160s-12 -87 -23 -128c-31 -118 -90 -176 -202 -184l-7 6v141c19 4 36 4 53 0l19 -62c63 25 97 158 102 397z
" />
    <glyph glyph-name="afii10078" unicode="&#x43c;" horiz-adv-x="857" 
d="M817 492l-72 -20v-414l72 -20c3 -12 3 -25 0 -38h-277c-3 13 -3 25 0 38l73 20v362h-4l-188 -420h-84l-130 419h-4l-36 -363l66 -18c3 -12 3 -25 0 -38h-200c-3 13 -3 26 0 38l68 19l40 415l-72 20c-3 12 -3 25 0 38h241l110 -358h5l157 358h235c3 -13 3 -26 0 -38z" />
    <glyph glyph-name="afii10079" unicode="&#x43d;" horiz-adv-x="710" 
d="M466 58v189h-212v-189l65 -20c3 -12 3 -25 0 -38h-270c-3 13 -3 25 0 38l73 20v414l-73 20c-3 12 -3 25 0 38h270c3 -13 3 -26 0 -38l-65 -20v-157h212v157l-65 20c-3 12 -3 25 0 38h269c3 -13 3 -26 0 -38l-72 -20v-414l72 -20c3 -12 3 -25 0 -38h-269c-3 13 -3 26 0 38
z" />
    <glyph glyph-name="afii10080" unicode="&#x43e;" horiz-adv-x="601" 
d="M301 474c-84 0 -126 -70 -126 -209s42 -209 126 -209c79 0 126 66 126 209s-47 209 -126 209zM561 265c0 -177 -92 -275 -260 -275c-169 0 -261 98 -261 275c0 175 93 275 261 275s260 -100 260 -275z" />
    <glyph glyph-name="afii10081" unicode="&#x43f;" horiz-adv-x="705" 
d="M461 58v404h-207v-404l65 -20c3 -12 3 -25 0 -38h-270c-3 12 -3 25 0 38l73 20v414l-73 20c-3 12 -3 25 0 38h616c3 -13 3 -26 0 -38l-72 -20v-414l72 -20c3 -12 3 -25 0 -38h-269c-3 13 -3 26 0 38z" />
    <glyph glyph-name="afii10082" unicode="&#x440;" horiz-adv-x="631" 
d="M248 397v-339c18 -4 35 -6 50 -6c53 0 93 21 121 62c29 42 43 95 43 159c0 44 -6 82 -21 121c-15 40 -46 65 -87 65s-76 -21 -106 -62zM43 -162l73 20v608h-73c-3 16 -3 32 0 48l140 23c51 8 65 -11 65 -59v-12h4c39 49 88 74 147 74c64 0 113 -24 146 -73
c34 -48 51 -107 51 -177c0 -85 -25 -157 -74 -214s-114 -86 -195 -86c-28 0 -54 3 -79 10v-142l72 -20c3 -11 3 -24 0 -38h-277c-3 13 -3 25 0 38z" />
    <glyph glyph-name="afii10083" unicode="&#x441;" horiz-adv-x="528" 
d="M491 167v-128c-51 -33 -113 -49 -184 -49c-169 0 -267 94 -267 274c0 177 107 276 271 276c65 0 124 -14 175 -41v-123c-17 -4 -35 -4 -53 0l-28 89c-19 5 -39 8 -60 8c-113 0 -170 -70 -170 -209c0 -135 49 -204 173 -204c23 0 43 3 61 8l29 99c17 4 35 4 53 0z" />
    <glyph glyph-name="afii10084" unicode="&#x442;" horiz-adv-x="529" 
d="M460 378l-28 84h-101v-404l72 -20c3 -12 3 -25 0 -38h-277c-3 13 -3 25 0 38l73 20v404h-102l-27 -84c-18 -4 -36 -4 -53 0v152h495v-152c-18 -4 -35 -4 -52 0z" />
    <glyph glyph-name="afii10085" unicode="&#x443;" horiz-adv-x="609" 
d="M56 -192v140c18 4 36 4 53 0l20 -64c63 -4 115 32 158 109l-217 479l-62 20c-3 12 -3 25 0 38h267c3 -13 3 -26 0 -38l-61 -20l140 -311h4l120 311l-75 20c-3 12 -3 25 0 38h211c3 -13 3 -26 0 -38l-62 -18l-147 -375c-41 -104 -82 -180 -124 -228
c-41 -48 -97 -72 -167 -72c-22 0 -41 3 -58 9z" />
    <glyph glyph-name="afii10086" unicode="&#x444;" horiz-adv-x="841" 
d="M354 132v341c-10 3 -21 4 -33 4c-98 0 -147 -73 -147 -219c0 -125 30 -187 91 -187c37 0 67 20 89 61zM486 398v-340c13 -4 27 -6 42 -6c35 0 64 12 85 35c44 48 54 109 54 186c0 124 -30 186 -91 186c-31 0 -61 -20 -90 -61zM486 1v-143l73 -20c3 -12 3 -25 0 -38h-277
c-3 13 -3 26 0 38l72 20v206l-4 1c-29 -50 -73 -75 -132 -75c-133 -1 -178 143 -178 256c0 83 21 152 63 209c43 57 104 85 185 85c21 0 43 -3 66 -10v156h-72c-3 16 -3 32 0 48l140 22c47 8 64 -11 64 -59v-231h4c36 49 80 74 133 74c136 0 178 -132 178 -250
c4 -157 -83 -300 -248 -301c-23 0 -46 4 -67 12z" />
    <glyph glyph-name="afii10087" unicode="&#x445;" horiz-adv-x="591" 
d="M79 56l152 202l-152 218l-52 16c-3 12 -3 25 0 38h267c3 -13 3 -26 0 -38l-56 -16l93 -132l99 131l-57 17c-3 12 -3 25 0 38h201c3 -13 3 -25 0 -38l-62 -17l-142 -188l162 -231l60 -18c3 -12 3 -25 0 -38h-283c-3 12 -3 25 0 38l63 18l-101 145l-109 -144l60 -19
c3 -12 3 -25 0 -38h-213c-3 13 -3 26 0 38z" />
    <glyph glyph-name="afii10088" unicode="&#x446;" horiz-adv-x="705" 
d="M254 472v-404h207v404l-65 20c-3 12 -3 25 0 38h269c3 -13 3 -26 0 -38l-72 -20v-404h72v-188c-20 -4 -39 -4 -57 0l-46 120h-513c-3 13 -3 25 0 38l73 20v414l-73 20c-3 12 -3 25 0 38h270c3 -13 3 -26 0 -38z" />
    <glyph glyph-name="afii10089" unicode="&#x447;" horiz-adv-x="661" 
d="M417 267v205l-60 20c-3 12 -3 25 0 38h265c3 -13 3 -26 0 -38l-73 -20v-414l73 -20c3 -12 3 -25 0 -38h-277c-3 13 -3 26 0 38l72 20v148l-4 1c-37 -25 -84 -37 -141 -37c-124 0 -185 61 -185 198v104l-72 20c-3 12 -3 25 0 38h268c3 -13 3 -26 0 -38l-64 -20v-62
c0 -57 2 -86 14 -119c13 -33 41 -48 85 -48c37 0 70 8 99 24z" />
    <glyph glyph-name="afii10090" unicode="&#x448;" horiz-adv-x="963" 
d="M254 472v-404h166v404l-54 20c-3 12 -3 25 0 38h240c3 -13 3 -26 0 -38l-54 -20v-404h167v404l-54 20c-3 12 -3 25 0 38h258c3 -13 3 -26 0 -38l-72 -20v-414l72 -20c3 -12 3 -25 0 -38h-874c-3 13 -3 25 0 38l73 20v414l-73 20c-3 12 -3 25 0 38h259c3 -13 3 -26 0 -38z
" />
    <glyph glyph-name="afii10091" unicode="&#x449;" horiz-adv-x="963" 
d="M254 472v-404h166v404l-54 20c-3 12 -3 25 0 38h240c3 -13 3 -26 0 -38l-54 -20v-404h167v404l-54 20c-3 12 -3 25 0 38h258c3 -13 3 -26 0 -38l-72 -20v-404h72v-188c-19 -5 -38 -5 -57 0l-46 120h-771c-3 13 -3 25 0 38l73 20v414l-73 20c-3 12 -3 25 0 38h259
c3 -13 3 -26 0 -38z" />
    <glyph glyph-name="afii10092" unicode="&#x44a;" horiz-adv-x="651" 
d="M492 162c0 77 -43 96 -160 96v-194c59 0 100 6 124 19s36 40 36 79zM127 38l73 20v404h-103l-27 -84c-18 -4 -36 -4 -53 0v152h387c3 -13 3 -26 0 -38l-72 -20v-150h34c67 0 120 -7 159 -20c79 -25 100 -66 100 -134c0 -91 -50 -168 -266 -168h-232c-3 13 -3 26 0 38z
" />
    <glyph glyph-name="afii10093" unicode="&#x44b;" horiz-adv-x="877" 
d="M561 38l72 20v414l-72 20c-3 12 -3 25 0 38h276c3 -13 3 -26 0 -38l-72 -20v-414l72 -20c3 -12 3 -25 0 -38h-276c-3 13 -3 26 0 38zM414 162c0 77 -43 96 -160 96v-194c59 0 100 6 124 19s36 40 36 79zM49 38l73 20v414l-73 20c-3 12 -3 25 0 38h277c3 -13 3 -26 0 -38
l-72 -20v-150h34c67 0 120 -7 159 -20c79 -25 100 -66 100 -134c0 -100 -56 -168 -299 -168h-199c-3 13 -3 26 0 38z" />
    <glyph glyph-name="afii10094" unicode="&#x44c;" horiz-adv-x="568" 
d="M414 162c0 77 -43 96 -160 96v-194c59 0 100 6 124 19s36 40 36 79zM49 38l73 20v414l-73 20c-3 12 -3 25 0 38h277c3 -13 3 -26 0 -38l-72 -20v-150h34c67 0 120 -7 159 -20c79 -25 100 -66 100 -134c0 -100 -56 -168 -299 -168h-199c-3 13 -3 26 0 38z" />
    <glyph glyph-name="afii10095" unicode="&#x44d;" horiz-adv-x="533" 
d="M37 30v125c19 4 36 4 53 0l28 -91c16 -4 33 -6 50 -6c120 0 183 61 189 184l-242 -6c-4 24 -4 47 0 74l241 -6c-8 111 -56 169 -172 169c-21 0 -41 -3 -61 -9l-28 -87c-17 -4 -35 -4 -53 0v120c55 29 116 43 181 43c175 0 270 -103 270 -268c0 -87 -25 -155 -75 -206
c-49 -51 -118 -76 -206 -76c-64 0 -122 13 -175 40z" />
    <glyph glyph-name="afii10096" unicode="&#x44e;" horiz-adv-x="898" 
d="M729 265c0 139 -39 209 -116 209s-116 -70 -116 -209s39 -209 116 -209c72 0 116 68 116 209zM363 241h-109v-183l72 -20c3 -12 3 -25 0 -38h-277c-3 13 -3 25 0 38l73 20v414l-73 20c-3 12 -3 25 0 38h277c3 -13 3 -26 0 -38l-72 -20v-165h111c13 149 99 233 248 233
c163 0 250 -100 250 -275c0 -177 -87 -275 -250 -275c-156 0 -242 88 -250 251z" />
    <glyph glyph-name="afii10097" unicode="&#x44f;" horiz-adv-x="645" 
d="M338 174l-144 -174h-172c-3 13 -3 26 0 38l58 18l106 127c16 19 39 33 68 41v4c-105 5 -163 61 -163 140s43 114 99 138c18 7 41 13 68 16c28 3 53 5 75 6s49 2 82 2h190c3 -13 3 -26 0 -38l-72 -20v-414l72 -20c3 -12 3 -25 0 -38h-269c-3 13 -3 26 0 38l65 20v152h-11
c-15 0 -32 -12 -52 -36zM401 273v191h-11c-109 0 -165 -19 -165 -96c0 -67 41 -95 134 -95h42z" />
    <glyph glyph-name="afii10071" unicode="&#x451;" horiz-adv-x="573" 
d="M523 266h-348c0 -143 54 -209 178 -209c29 0 55 4 79 11l29 94c17 4 35 4 53 0v-123c-60 -33 -127 -49 -202 -49c-171 0 -272 95 -272 275c0 172 97 275 261 275c72 0 127 -21 166 -63s59 -96 59 -162c0 -14 -1 -30 -3 -49zM299 475c-72 0 -112 -62 -121 -153l216 14
c0 88 -39 139 -95 139zM235 623c-17 -3 -35 -4 -55 -4c-21 0 -39 1 -54 4c-3 16 -4 34 -4 54c0 21 1 39 4 55c21 3 39 4 54 4s34 -1 55 -4c3 -19 4 -37 4 -55c0 -17 -1 -35 -4 -54zM453 623c-17 -3 -35 -4 -55 -4c-21 0 -39 1 -54 4c-3 16 -4 34 -4 54c0 21 1 39 4 55
c21 3 39 4 54 4s34 -1 55 -4c3 -19 4 -37 4 -55c0 -17 -1 -35 -4 -54z" />
    <glyph glyph-name="afii10099" unicode="&#x452;" horiz-adv-x="639" 
d="M244 378v-320l66 -20c3 -12 3 -25 0 -38h-270c-3 13 -3 26 0 38l72 20v523h-72c-2 10 -2 20 0 31l72 22v52h-72c-3 16 -3 32 0 48l144 23c43 7 60 -13 60 -60v-63h136c3 -18 3 -36 0 -53h-136v-139l4 -1c39 50 89 75 149 75c75 0 130 -39 157 -102
c28 -63 38 -126 38 -201c0 -101 -19 -191 -63 -272c-43 -83 -127 -137 -240 -144c-7 13 -11 28 -12 45c121 26 181 141 181 344c0 165 -36 248 -108 248c-35 0 -70 -19 -106 -56z" />
    <glyph glyph-name="afii10100" unicode="&#x453;" horiz-adv-x="504" 
d="M440 378l-28 84h-158v-404l72 -20c3 -12 3 -25 0 -38h-277c-3 13 -3 26 0 38l73 20v414l-73 20c-3 12 -3 25 0 38h443v-152c-19 -4 -36 -4 -52 0zM230 620l114 161c25 -16 48 -35 69 -58l-138 -140c-17 8 -32 20 -45 37z" />
    <glyph glyph-name="afii10101" unicode="&#x454;" horiz-adv-x="533" 
d="M496 164v-126c-58 -32 -120 -48 -186 -48c-173 0 -270 93 -270 274c0 177 106 276 274 276c61 0 120 -14 177 -41v-120c-17 -4 -35 -4 -52 0l-28 86c-21 5 -44 7 -69 7c-101 0 -157 -56 -166 -168l242 6c4 -24 4 -50 0 -74l-243 6c3 -121 61 -182 174 -182
c25 0 47 2 66 7l29 97c16 4 33 4 52 0z" />
    <glyph glyph-name="afii10102" unicode="&#x455;" horiz-adv-x="504" 
d="M101 162l28 -93c25 -9 54 -13 87 -13c75 0 134 26 134 83c0 104 -299 33 -299 238c0 39 12 71 35 96c47 52 111 67 187 67c60 0 117 -12 170 -36v-120c-17 -4 -35 -4 -52 0l-27 83c-22 5 -46 7 -73 7c-80 0 -120 -25 -120 -74c0 -113 300 -38 300 -235
c0 -58 -23 -102 -70 -131s-103 -44 -170 -44c-74 0 -135 15 -183 44v128c18 4 36 4 53 0z" />
    <glyph glyph-name="afii10103" unicode="&#x456;" horiz-adv-x="354" 
d="M119 746c21 3 42 5 61 5s39 -2 60 -5c4 -19 6 -39 6 -62c0 -21 -2 -40 -6 -58c-20 -3 -39 -5 -58 -5c-20 0 -41 2 -63 5c-3 21 -5 41 -5 58c0 18 2 39 5 62zM49 38l73 20v408h-73c-3 16 -3 32 0 48l140 23c49 8 65 -11 65 -59v-420l72 -20c3 -12 3 -25 0 -38h-277
c-3 13 -3 26 0 38z" />
    <glyph glyph-name="afii10104" unicode="&#x457;" horiz-adv-x="354" 
d="M42 38l73 20v408h-73c-3 16 -3 32 0 48l140 23c49 8 65 -11 65 -59v-420l72 -20c3 -12 3 -25 0 -38h-277c-3 13 -3 26 0 38zM109 623c-17 -3 -35 -4 -55 -4c-21 0 -39 1 -54 4c-3 16 -4 34 -4 54c0 21 1 39 4 55c21 3 39 4 54 4s34 -1 55 -4c3 -19 4 -37 4 -55
c0 -17 -1 -35 -4 -54zM327 623c-17 -3 -35 -4 -55 -4c-21 0 -39 1 -54 4c-3 16 -4 34 -4 54c0 21 1 39 4 55c21 3 39 4 54 4s34 -1 55 -4c3 -19 4 -37 4 -55c0 -17 -1 -35 -4 -54z" />
    <glyph glyph-name="afii10105" unicode="&#x458;" horiz-adv-x="342" 
d="M111 20v446h-73c-3 16 -3 32 0 48l141 23c48 8 64 -11 64 -59v-485c0 -115 -79 -183 -208 -198c-10 12 -16 26 -18 43c39 17 65 38 76 65c12 27 18 66 18 117zM106 746c21 3 42 5 61 5s39 -2 60 -5c4 -19 6 -39 6 -62c0 -21 -2 -40 -6 -58c-20 -3 -39 -5 -58 -5
c-20 0 -41 2 -63 5c-3 21 -5 41 -5 58c0 18 2 39 5 62z" />
    <glyph glyph-name="afii10106" unicode="&#x459;" horiz-adv-x="843" 
d="M684 162c0 77 -43 96 -160 96v-194c59 0 100 6 124 19s36 40 36 79zM595 492l-71 -20v-150h34c67 0 120 -7 159 -20c79 -25 100 -66 100 -134c0 -91 -50 -168 -266 -168h-232c-3 13 -3 26 0 38l73 20v404h-134c-3 -63 -7 -116 -12 -160s-12 -87 -23 -128
c-31 -118 -90 -176 -202 -184l-7 6v141c19 4 36 4 53 0l19 -62c63 25 97 158 102 397l-72 20c-3 12 -3 25 0 38h479c3 -13 3 -26 0 -38z" />
    <glyph glyph-name="afii10107" unicode="&#x45a;" horiz-adv-x="907" 
d="M753 162c0 77 -43 96 -160 96v-194c59 0 100 6 124 19s36 40 36 79zM398 38l63 20v199h-207v-199l63 -20c3 -12 3 -25 0 -38h-268c-3 13 -3 25 0 38l73 20v414l-73 20c-3 12 -3 25 0 38h268c3 -13 3 -26 0 -38l-63 -20v-150h207v150l-63 20c-3 12 -3 25 0 38h267
c3 -13 3 -26 0 -38l-72 -20v-150h34c67 0 120 -7 159 -20c79 -25 100 -66 100 -134c0 -91 -50 -168 -266 -168h-222c-3 13 -3 26 0 38z" />
    <glyph glyph-name="afii10108" unicode="&#x45b;" horiz-adv-x="678" 
d="M40 38l72 20v523h-72c-2 10 -2 20 0 31l72 22v52h-72c-3 16 -3 32 0 48l145 23c44 7 59 -12 59 -59v-64h136c3 -18 3 -36 0 -53h-136v-139h4c51 50 108 75 173 75c63 0 105 -19 128 -57c23 -37 34 -92 34 -163v-239l73 -20c3 -12 3 -25 0 -38h-270c-3 13 -3 26 0 38
l65 20v217c0 35 0 54 -7 85c-9 41 -32 71 -81 71c-43 0 -83 -17 -119 -52v-321l66 -20c3 -12 3 -25 0 -38h-270c-3 13 -3 26 0 38z" />
    <glyph glyph-name="afii10109" unicode="&#x45c;" horiz-adv-x="658" 
d="M49 38l73 20v414l-73 20c-3 12 -3 25 0 38h270c3 -13 3 -26 0 -38l-65 -20v-414l65 -20c3 -12 3 -25 0 -38h-270c-3 12 -3 25 0 38zM661 0h-186l-209 269v5l197 201l-64 17c-3 12 -3 25 0 38h241c3 -13 3 -26 0 -38l-90 -22l-153 -156l201 -259l63 -17c3 -11 3 -24 0 -38
zM313 620l114 161c25 -16 48 -35 69 -58l-138 -140c-17 8 -32 20 -45 37z" />
    <glyph glyph-name="afii10110" unicode="&#x45e;" horiz-adv-x="609" 
d="M56 -192v140c18 4 36 4 53 0l20 -64c63 -4 115 32 158 109l-217 479l-62 20c-3 12 -3 25 0 38h267c3 -13 3 -26 0 -38l-61 -20l140 -311h4l120 311l-75 20c-3 12 -3 25 0 38h211c3 -13 3 -26 0 -38l-62 -18l-147 -375c-41 -104 -82 -180 -124 -228
c-41 -48 -97 -72 -167 -72c-22 0 -41 3 -58 9zM183 744c24 5 50 5 74 0c7 -55 24 -87 72 -87s65 32 72 87c12 3 24 4 36 4c13 0 26 -1 38 -4c-3 -88 -58 -149 -146 -149s-143 61 -146 149z" />
    <glyph glyph-name="afii10193" unicode="&#x45f;" horiz-adv-x="705" 
d="M254 472v-404h207v404l-65 20c-3 12 -3 25 0 38h269c3 -13 3 -26 0 -38l-72 -20v-414l72 -20c3 -12 3 -25 0 -38h-253l-26 -120c-19 -4 -38 -4 -57 0l-26 120h-254c-3 13 -3 25 0 38l73 20v414l-73 20c-3 12 -3 25 0 38h270c3 -13 3 -26 0 -38z" />
    <glyph glyph-name="afii10050" unicode="&#x490;" horiz-adv-x="611" 
d="M605 655l-7 -7h-326v-583l91 -25c3 -13 3 -27 0 -40h-318c-3 13 -3 27 0 40l91 25v590l-91 25c-3 13 -3 27 0 40h463l41 108c18 4 37 4 56 0v-173z" />
    <glyph glyph-name="afii10098" unicode="&#x491;" horiz-adv-x="503" 
d="M49 530h360l29 86c18 4 36 4 53 0v-147l-7 -7h-230v-404l72 -20c3 -12 3 -25 0 -38h-277c-3 13 -3 25 0 38l73 20v414l-73 20c-3 12 -3 25 0 38z" />
    <glyph glyph-name="endash" unicode="&#x2013;" horiz-adv-x="555" 
d="M497 258h-439c-4 21 -4 46 0 70h439c2 -12 3 -24 3 -35c0 -13 -1 -24 -3 -35z" />
    <glyph glyph-name="emdash" unicode="&#x2014;" horiz-adv-x="1000" 
d="M942 258h-884c-2 11 -3 22 -3 35c0 11 1 23 3 35h884c2 -12 3 -24 3 -35c0 -13 -1 -24 -3 -35z" />
    <glyph glyph-name="quoteleft" unicode="&#x2018;" horiz-adv-x="268" 
d="M218 730c-38 -57 -57 -126 -57 -205c0 -9 1 -24 2 -44c-19 -3 -38 -5 -58 -5c-18 0 -36 2 -54 5c-1 7 -1 18 -1 33c1 109 44 192 130 248c16 -7 29 -18 38 -32z" />
    <glyph glyph-name="quoteright" unicode="&#x2019;" horiz-adv-x="268" 
d="M50 506c38 57 57 126 57 205c0 9 -1 24 -2 44c19 3 38 5 58 5c18 0 36 -2 54 -5c1 -7 1 -18 1 -33c-1 -109 -44 -192 -130 -248c-16 7 -29 18 -38 32z" />
    <glyph glyph-name="quotesinglbase" unicode="&#x201a;" horiz-adv-x="268" 
d="M50 -122c38 57 57 126 57 205c0 9 -1 24 -2 44c19 3 38 5 58 5c18 0 36 -2 54 -5c1 -7 1 -18 1 -33c-1 -109 -44 -192 -130 -248c-16 7 -29 18 -38 32z" />
    <glyph glyph-name="quotedblleft" unicode="&#x201c;" horiz-adv-x="460" 
d="M218 730c-38 -57 -57 -126 -57 -205c0 -9 1 -24 2 -44c-19 -3 -38 -5 -58 -5c-18 0 -36 2 -54 5c-1 7 -1 18 -1 33c1 109 44 192 130 248c16 -7 29 -18 38 -32zM410 730c-38 -57 -57 -126 -57 -205c0 -9 1 -24 2 -44c-19 -3 -38 -5 -58 -5c-18 0 -36 2 -54 5
c-1 7 -1 18 -1 33c1 109 44 192 130 248c16 -7 29 -18 38 -32z" />
    <glyph glyph-name="quotedblright" unicode="&#x201d;" horiz-adv-x="460" 
d="M50 506c38 57 57 126 57 205c0 9 -1 24 -2 44c19 3 38 5 58 5c18 0 36 -2 54 -5c1 -7 1 -18 1 -33c-1 -109 -44 -192 -130 -248c-16 7 -29 18 -38 32zM242 506c38 57 57 126 57 205c0 9 -1 24 -2 44c19 3 38 5 58 5c18 0 36 -2 54 -5c1 -7 1 -18 1 -33
c-1 -109 -44 -192 -130 -248c-16 7 -29 18 -38 32z" />
    <glyph glyph-name="quotedblbase" unicode="&#x201e;" horiz-adv-x="460" 
d="M50 -122c38 57 57 126 57 205c0 9 -1 24 -2 44c19 3 38 5 58 5c18 0 36 -2 54 -5c1 -7 1 -18 1 -33c-1 -109 -44 -192 -130 -248c-16 7 -29 18 -38 32zM242 -122c38 57 57 126 57 205c0 9 -1 24 -2 44c19 3 38 5 58 5c18 0 36 -2 54 -5c1 -7 1 -18 1 -33
c-1 -109 -44 -192 -130 -248c-16 7 -29 18 -38 32z" />
    <glyph glyph-name="dagger" unicode="&#x2020;" horiz-adv-x="547" 
d="M232 -70l10 522l-189 -9c-2 13 -3 26 -3 41c0 13 1 27 3 41l189 -9l-10 204c14 2 28 3 42 3c13 0 27 -1 41 -3l-10 -204l188 9c2 -14 3 -28 3 -41c0 -15 -1 -28 -3 -41l-188 9l10 -522c-13 -2 -27 -3 -42 -3c-14 0 -28 1 -41 3z" />
    <glyph glyph-name="daggerdbl" unicode="&#x2021;" horiz-adv-x="560" 
d="M246 199v252l-193 -9c-2 13 -3 27 -3 41c0 13 1 27 3 41l195 -9l-10 205c14 2 28 3 43 3c13 0 26 -1 40 -3l-9 -205l194 9c2 -14 3 -28 3 -41c0 -14 -1 -28 -3 -41l-192 9v-252l192 9c2 -14 3 -28 3 -42c0 -13 -1 -27 -3 -40l-194 9l9 -205c-14 -2 -28 -3 -41 -3
c-14 0 -28 1 -42 3l10 205l-195 -9c-2 13 -3 27 -3 41c0 13 1 27 3 41z" />
    <glyph glyph-name="bullet" unicode="&#x2022;" horiz-adv-x="429" 
d="M214 441c95 0 152 -57 152 -152s-57 -152 -152 -152c-93 0 -152 57 -152 152s59 152 152 152z" />
    <glyph glyph-name="ellipsis" unicode="&#x2026;" horiz-adv-x="1000" 
d="M91 125c27 3 48 4 63 4c17 0 38 -1 63 -4c3 -23 5 -44 5 -63c0 -18 -2 -39 -5 -62c-44 -7 -82 -7 -126 0c-3 23 -5 44 -5 62c0 19 2 40 5 63zM443 125c27 3 48 4 63 4c17 0 38 -1 63 -4c3 -23 5 -44 5 -63c0 -18 -2 -39 -5 -62c-44 -7 -82 -7 -126 0c-3 23 -5 44 -5 62
c0 19 2 40 5 63zM795 125c27 3 48 4 63 4c17 0 38 -1 63 -4c3 -23 5 -44 5 -63c0 -18 -2 -39 -5 -62c-44 -7 -82 -7 -126 0c-3 23 -5 44 -5 62c0 19 2 40 5 63z" />
    <glyph glyph-name="perthousand" unicode="&#x2030;" horiz-adv-x="1272" 
d="M202 -2l426 730c23 -9 42 -20 56 -33l-425 -731c-21 7 -40 18 -57 34zM206 350c42 0 63 52 63 155s-21 155 -63 155s-63 -52 -63 -155s21 -155 63 -155zM206 300c-109 0 -169 74 -169 205s61 205 169 205s169 -74 169 -205s-61 -205 -169 -205zM681 40c42 0 63 52 63 155
s-21 155 -63 155s-63 -52 -63 -155s21 -155 63 -155zM681 -10c-109 0 -169 74 -169 205s61 205 169 205s169 -74 169 -205s-61 -205 -169 -205zM1081 40c42 0 63 52 63 155s-21 155 -63 155s-63 -52 -63 -155s21 -155 63 -155zM1081 -10c-109 0 -169 74 -169 205
s61 205 169 205s169 -74 169 -205s-61 -205 -169 -205z" />
    <glyph glyph-name="guilsinglleft" unicode="&#x2039;" horiz-adv-x="380" 
d="M52 268v4l229 224c21 -13 37 -27 48 -44l-156 -182l156 -183c-12 -17 -28 -32 -48 -44z" />
    <glyph glyph-name="guilsinglright" unicode="&#x203a;" horiz-adv-x="380" 
d="M99 496l230 -224v-4l-230 -225c-19 11 -35 26 -47 44l156 183l-156 182c12 17 28 32 47 44z" />
    <glyph glyph-name="fraction" unicode="&#x2044;" horiz-adv-x="195" 
d="M-145 0l429 730c23 -10 42 -21 57 -33l-429 -731c-21 7 -40 19 -57 34z" />
    <glyph glyph-name="zero.superior" unicode="&#x2070;" 
d="M34 669c0 132 64 204 167 204c104 0 167 -72 167 -204c0 -133 -60 -206 -167 -206c-105 0 -166 73 -167 206zM263 669c0 103 -21 154 -62 154s-61 -51 -61 -154c0 -104 20 -156 61 -156s62 52 62 156z" />
    <glyph glyph-name="four.superior" unicode="&#x2074;" 
d="M206 512v64h-181v41l215 256h68v-251h54v-46h-54v-64l54 -10v-32h-210v32zM89 625l1 -3h116v132l-4 1z" />
    <glyph glyph-name="five.superior" unicode="&#x2075;" 
d="M59 492v95h36l24 -72c11 -2 22 -3 34 -3c61 0 92 27 92 82c0 47 -29 71 -87 71c-27 0 -54 -3 -82 -8l-6 5v204h263v-86h-217v-73c25 3 48 5 70 5c46 0 85 -9 116 -27c32 -17 48 -46 48 -87c0 -45 -18 -79 -53 -102c-35 -22 -77 -33 -127 -33c-43 0 -80 10 -111 29z" />
    <glyph glyph-name="six.superior" unicode="&#x2076;" 
d="M203 509c37 0 55 30 55 90c0 59 -18 89 -55 89c-36 0 -54 -29 -54 -87c0 -61 18 -92 54 -92zM145 709l3 -2c19 17 45 25 77 25c80 0 135 -54 135 -130c0 -88 -63 -139 -155 -139c-104 0 -158 66 -158 170c0 68 20 125 59 171c40 46 94 69 162 69c25 0 49 -4 72 -12
l-6 -33c-11 2 -22 3 -34 3c-83 0 -134 -41 -155 -122z" />
    <glyph glyph-name="seven.superior" unicode="&#x2077;" 
d="M56 736v130h300v-39l-194 -371l-63 34l180 283l-2 4h-175l-13 -41h-33z" />
    <glyph glyph-name="eight.superior" unicode="&#x2078;" 
d="M38 572c0 38 23 67 68 87v4c-38 23 -57 53 -57 90c0 38 16 67 47 88c32 21 68 32 108 32c37 0 71 -8 102 -25c31 -16 46 -40 46 -73c0 -40 -29 -74 -72 -91v-4c60 -27 84 -55 84 -99c0 -37 -18 -66 -53 -87s-74 -31 -115 -31c-25 0 -48 3 -71 10c-45 13 -87 50 -87 99z
M138 582c0 -43 29 -73 70 -73c29 0 54 22 54 51c0 15 -8 27 -25 36c-9 5 -17 10 -24 13c-15 7 -44 19 -56 24c-13 -16 -19 -33 -19 -51zM149 778c0 -37 28 -54 81 -74c17 15 25 36 25 61c0 35 -19 63 -54 63c-31 0 -52 -23 -52 -50z" />
    <glyph glyph-name="nine.superior" unicode="&#x2079;" 
d="M198 656c36 0 55 33 55 85c0 57 -18 85 -54 85c-33 0 -53 -33 -53 -84c0 -57 17 -86 52 -86zM43 736c0 80 66 137 158 137c104 0 156 -71 156 -166c0 -70 -22 -128 -67 -175c-44 -46 -100 -69 -169 -69c-22 0 -42 2 -60 6l5 37c87 -7 165 39 188 124l-2 3
c-20 -16 -45 -24 -76 -24c-79 0 -133 44 -133 127z" />
    <glyph glyph-name="n.superior" unicode="&#x207f;" horiz-adv-x="486" 
d="M32 339l50 9v265h-50v37l99 17c37 7 48 -8 48 -43v-10h4c33 36 71 54 115 54c79 0 116 -55 116 -136v-184l50 -9v-33h-187v33l40 9v152c0 31 -1 48 -9 68c-7 21 -23 31 -50 31c-29 0 -55 -11 -79 -34v-217l40 -9v-33h-187v33z" />
    <glyph glyph-name="zero.inferior" unicode="&#x2080;" 
d="M34 62c0 132 64 204 167 204c104 0 167 -72 167 -204c0 -133 -60 -206 -167 -206c-105 0 -166 73 -167 206zM263 62c0 103 -21 154 -62 154s-61 -51 -61 -154c0 -104 20 -156 61 -156s62 52 62 156z" />
    <glyph glyph-name="one.inferior" unicode="&#x2081;" 
d="M87 -105l73 14v287h-93v37l132 28c47 9 63 -5 63 -57v-295l74 -14v-33h-249v33z" />
    <glyph glyph-name="two.inferior" unicode="&#x2082;" 
d="M163 -44l2 -4h185v-90h-304v48l116 104c49 43 77 79 77 131c0 45 -30 71 -70 71c-14 0 -28 -3 -43 -9l-31 -80h-34v101c33 25 76 37 130 37c85 0 154 -40 154 -116c0 -32 -8 -57 -35 -82c-13 -13 -23 -22 -32 -29c-8 -7 -22 -17 -42 -31z" />
    <glyph glyph-name="three.inferior" unicode="&#x2083;" 
d="M91 136h-34v98c36 21 80 32 133 32c84 0 149 -33 149 -98c0 -53 -41 -88 -96 -92v-4c73 -8 110 -40 110 -95c0 -41 -18 -71 -53 -91s-78 -30 -128 -30c-47 0 -87 10 -122 30v102h35l28 -77c17 -5 34 -7 51 -7c49 0 83 25 83 74c0 45 -30 67 -89 67h-31v45h28
c53 0 79 18 79 69c0 40 -22 60 -65 60c-17 0 -34 -3 -52 -10z" />
    <glyph glyph-name="four.inferior" unicode="&#x2084;" 
d="M206 -96v64h-181v41l215 256h68v-251h54v-46h-54v-64l54 -10v-32h-210v32zM89 17l1 -3h116v132l-4 1z" />
    <glyph glyph-name="five.inferior" unicode="&#x2085;" 
d="M59 -115v95h36l24 -72c11 -2 23 -3 34 -3c61 0 92 27 92 82c0 47 -29 71 -87 71c-27 0 -54 -3 -82 -8l-6 5v204h263v-86h-217v-73c25 3 48 5 70 5c46 0 85 -9 116 -27c32 -17 48 -46 48 -87c0 -45 -18 -79 -53 -101c-35 -23 -77 -34 -127 -34c-43 0 -80 10 -111 29z" />
    <glyph glyph-name="six.inferior" unicode="&#x2086;" 
d="M203 -98c37 0 55 30 55 90c0 59 -18 89 -55 89c-36 0 -54 -29 -54 -87c0 -61 18 -92 54 -92zM145 102l3 -2c19 17 45 25 77 25c80 0 135 -54 135 -130c0 -88 -63 -139 -155 -139c-104 0 -158 66 -158 170c0 68 20 125 59 171c40 46 94 69 162 69c25 0 49 -4 72 -12
l-6 -33c-11 2 -22 3 -34 3c-83 0 -134 -41 -155 -122z" />
    <glyph glyph-name="seven.inferior" unicode="&#x2087;" 
d="M56 129v130h300v-39l-194 -371l-63 34l180 283l-2 4h-175l-13 -41h-33z" />
    <glyph glyph-name="eight.inferior" unicode="&#x2088;" 
d="M38 -35c0 38 23 67 68 87v4c-38 23 -57 53 -57 90c0 38 16 67 47 88c32 21 68 32 108 32c37 0 71 -8 102 -25c31 -16 46 -40 46 -73c0 -40 -29 -74 -72 -91v-4c60 -27 84 -55 84 -99c0 -37 -18 -65 -53 -86s-74 -32 -115 -32c-25 0 -48 3 -71 10c-45 13 -87 50 -87 99z
M138 -25c0 -43 29 -73 70 -73c29 0 54 22 54 51c0 15 -8 26 -25 37l-24 12c-15 7 -44 19 -56 24c-13 -16 -19 -33 -19 -51zM149 171c0 -37 28 -54 81 -74c17 15 25 36 25 61c0 35 -19 63 -54 63c-31 0 -52 -23 -52 -50z" />
    <glyph glyph-name="nine.inferior" unicode="&#x2089;" 
d="M198 49c36 0 55 33 55 85c0 57 -18 85 -54 85c-33 0 -53 -33 -53 -84c0 -57 17 -86 52 -86zM43 129c0 80 66 137 158 137c104 0 156 -71 156 -166c0 -70 -22 -128 -67 -174c-44 -47 -100 -70 -169 -70c-22 0 -42 2 -60 6l5 37c87 -7 165 39 188 124l-2 3
c-20 -16 -45 -24 -76 -24c-79 0 -133 44 -133 127z" />
    <glyph glyph-name="Euro" unicode="&#x20ac;" horiz-adv-x="609" 
d="M487 76l46 125c18 4 36 4 55 0v-147c-61 -43 -131 -64 -211 -64c-81 0 -151 23 -208 69s-90 114 -99 205h-63c-2 9 -3 19 -3 29c0 9 1 19 3 30h58v21c0 18 1 34 2 47h-60c-2 9 -3 18 -3 29c0 9 1 19 3 30h68c17 84 55 148 115 193s130 67 210 67c67 0 129 -17 184 -52
v-143c-19 -4 -37 -4 -56 0l-43 113c-24 9 -48 13 -73 13c-51 0 -96 -18 -133 -53s-60 -81 -69 -138h261c2 -11 3 -21 3 -30c0 -11 -1 -20 -3 -29h-269c-1 -20 -2 -35 -2 -45v-23h271c4 -20 4 -40 0 -59h-266c5 -61 27 -111 65 -148s84 -55 139 -55c25 0 51 5 78 15z" />
    <glyph glyph-name="afii61352" unicode="&#x2116;" horiz-adv-x="1096" 
d="M1025 118h-300c-2 10 -3 21 -3 33c0 13 1 24 3 34h300c2 -10 3 -21 3 -34c0 -12 -1 -23 -3 -33zM953 435c0 101 -23 142 -78 142s-78 -41 -78 -142c0 -97 22 -138 78 -138c55 0 78 42 78 138zM1059 435c0 -130 -61 -195 -184 -195s-184 65 -184 195c0 128 61 199 184 199
s184 -71 184 -199zM495 0l-294 572h-4v-567l-5 -5h-147c-3 13 -3 27 0 40l80 24v592l-80 24c-3 13 -3 27 0 40h226l260 -512h4v507l5 5h147c3 -13 3 -27 0 -40l-80 -24v-656h-112z" />
    <glyph glyph-name="trademark" unicode="&#x2122;" horiz-adv-x="850" 
d="M585 494l88 226h132v-30l-41 -10l14 -234l41 -10v-25h-153v25l40 10l-11 213h-4l-97 -248h-58l-86 247h-4l-21 -212l42 -10v-25h-117v25l36 10l23 234l-41 10v30h135l78 -226h4zM288 637l-15 46h-63v-237l38 -10v-25h-148v25l38 10v237h-64l-15 -46h-27v83h284v-83h-28z
" />
    <glyph glyph-name="onethird" unicode="&#x2153;" horiz-adv-x="914" 
d="M590 270h-34v98c36 21 80 32 133 32c84 0 149 -33 149 -98c0 -53 -41 -88 -96 -92v-4c73 -8 110 -40 110 -95c0 -41 -18 -71 -53 -91s-78 -30 -128 -30c-47 0 -87 10 -122 30v102h35l28 -77c17 -5 34 -7 51 -7c49 0 83 25 83 74c0 45 -30 67 -89 67h-31v45h28
c53 0 79 18 79 69c0 40 -22 60 -65 60c-17 0 -34 -3 -52 -10zM69 340l73 14v287h-93v37l132 28c47 9 63 -5 63 -57v-295l74 -14v-33h-249v33zM192 0l429 730c23 -10 42 -21 57 -33l-429 -731c-21 7 -40 19 -57 34z" />
    <glyph glyph-name="twothirds" unicode="&#x2154;" horiz-adv-x="914" 
d="M152 401l2 -4h185v-90h-304v48l116 104c49 43 77 79 77 131c0 45 -30 71 -70 71c-13 0 -28 -3 -43 -9l-31 -80h-34v101c33 25 76 37 130 37c85 0 154 -40 154 -116c0 -32 -8 -57 -35 -82c-13 -13 -23 -22 -32 -29c-8 -7 -22 -17 -42 -31zM206 0l429 730
c23 -10 42 -21 57 -33l-429 -731c-21 7 -40 19 -57 34zM605 270h-34v98c36 21 80 32 133 32c84 0 149 -33 149 -98c0 -53 -41 -88 -96 -92v-4c73 -8 110 -40 110 -95c0 -41 -18 -71 -53 -91s-78 -30 -128 -30c-47 0 -87 10 -122 30v102h35l28 -77c17 -5 34 -7 51 -7
c49 0 83 25 83 74c0 45 -30 67 -89 67h-31v45h28c53 0 79 18 79 69c0 40 -22 60 -65 60c-17 0 -34 -3 -52 -10z" />
    <glyph glyph-name="oneeighth" unicode="&#x215b;" horiz-adv-x="914" 
d="M523 99c0 38 23 67 68 87v4c-38 23 -57 53 -57 90c0 38 16 67 47 88c32 21 68 32 108 32c37 0 71 -8 102 -25c31 -16 46 -40 46 -73c0 -40 -29 -74 -72 -91v-4c60 -27 84 -55 84 -99c0 -37 -18 -66 -53 -87s-74 -31 -115 -31c-25 0 -48 3 -71 10c-45 13 -87 50 -87 99z
M623 109c0 -43 29 -73 70 -73c29 0 54 22 54 51c0 15 -8 27 -25 36c-9 5 -17 10 -24 13c-15 7 -44 19 -56 24c-13 -16 -19 -33 -19 -51zM634 305c0 -37 28 -54 81 -74c17 15 25 36 25 61c0 35 -19 63 -54 63c-31 0 -52 -23 -52 -50zM67 341l73 14v287h-93v37l132 28
c47 9 63 -5 63 -57v-295l74 -14v-33h-249v33zM188 0l429 730c23 -10 42 -21 57 -33l-429 -731c-21 7 -40 19 -57 34z" />
    <glyph glyph-name="threeeighths" unicode="&#x215c;" horiz-adv-x="914" 
d="M536 99c0 38 23 67 68 87v4c-38 23 -57 53 -57 90c0 38 16 67 47 88c32 21 68 32 108 32c37 0 71 -8 102 -25c31 -16 46 -40 46 -73c0 -40 -29 -74 -72 -91v-4c60 -27 84 -55 84 -99c0 -37 -18 -66 -53 -87s-74 -31 -115 -31c-25 0 -48 3 -71 10c-45 13 -87 50 -87 99z
M636 109c0 -43 29 -73 70 -73c29 0 54 22 54 51c0 15 -8 27 -25 36c-9 5 -17 10 -24 13c-15 7 -44 19 -56 24c-13 -16 -19 -33 -19 -51zM647 305c0 -37 28 -54 81 -74c17 15 25 36 25 61c0 35 -19 63 -54 63c-31 0 -52 -23 -52 -50zM88 580h-34v98c36 21 80 32 133 32
c84 0 149 -33 149 -98c0 -53 -41 -88 -96 -92v-4c73 -8 110 -40 110 -95c0 -41 -18 -71 -53 -91s-78 -30 -128 -30c-47 0 -87 10 -122 30v102h35l28 -77c17 -5 34 -7 51 -7c49 0 83 25 83 74c0 45 -30 67 -89 67h-31v45h28c53 0 79 18 79 69c0 40 -22 60 -65 60
c-17 0 -34 -3 -52 -10zM203 0l429 730c23 -10 42 -21 57 -33l-429 -731c-21 7 -40 19 -57 34z" />
    <glyph glyph-name="fiveeighths" unicode="&#x215d;" horiz-adv-x="914" 
d="M541 99c0 38 23 67 68 87v4c-38 23 -57 53 -57 90c0 38 16 67 47 88c32 21 68 32 108 32c37 0 71 -8 102 -25c31 -16 46 -40 46 -73c0 -40 -29 -74 -72 -91v-4c60 -27 84 -55 84 -99c0 -37 -18 -66 -53 -87s-74 -31 -115 -31c-25 0 -48 3 -71 10c-45 13 -87 50 -87 99z
M641 109c0 -43 29 -73 70 -73c29 0 54 22 54 51c0 15 -8 27 -25 36c-9 5 -17 10 -24 13c-15 7 -44 19 -56 24c-13 -16 -19 -33 -19 -51zM652 305c0 -37 28 -54 81 -74c17 15 25 36 25 61c0 35 -19 63 -54 63c-31 0 -52 -23 -52 -50zM62 326v95h36l24 -72c11 -2 23 -3 34 -3
c61 0 92 27 92 82c0 47 -29 71 -87 71c-27 0 -54 -3 -82 -8l-6 5v204h263v-86h-217v-73c25 3 48 5 70 5c46 0 85 -9 116 -27c32 -17 48 -46 48 -87c0 -45 -18 -79 -53 -102c-35 -22 -77 -33 -127 -33c-43 0 -80 10 -111 29zM207 0l429 730c23 -10 42 -21 57 -33l-429 -731
c-21 7 -40 19 -57 34z" />
    <glyph glyph-name="seveneighths" unicode="&#x215e;" horiz-adv-x="914" 
d="M502 99c0 38 23 67 68 87v4c-38 23 -57 53 -57 90c0 38 16 67 47 88c32 21 68 32 108 32c37 0 71 -8 102 -25c31 -16 46 -40 46 -73c0 -40 -29 -74 -72 -91v-4c60 -27 84 -55 84 -99c0 -37 -18 -66 -53 -87s-74 -31 -115 -31c-25 0 -48 3 -71 10c-45 13 -87 50 -87 99z
M602 109c0 -43 29 -73 70 -73c29 0 54 22 54 51c0 15 -8 27 -25 36c-9 5 -17 10 -24 13c-15 7 -44 19 -56 24c-13 -16 -19 -33 -19 -51zM613 305c0 -37 28 -54 81 -74c17 15 25 36 25 61c0 35 -19 63 -54 63c-31 0 -52 -23 -52 -50zM166 0l429 730c23 -10 42 -21 57 -33
l-429 -731c-21 7 -40 19 -57 34zM94 569v130h300v-39l-194 -371l-63 34l180 283l-2 4h-175l-13 -41h-33z" />
    <glyph glyph-name="minus" unicode="&#x2212;" horiz-adv-x="650" 
d="M596 236h-541c-2 11 -3 23 -3 36c0 12 1 24 3 37h541c2 -13 3 -25 3 -37c0 -13 -1 -25 -3 -36z" />
    <glyph glyph-name="Aogonek.sc" unicode="&#xa00c;" horiz-adv-x="680" 
d="M406 530l203 -471l67 -20c3 -13 3 -26 0 -39h-169c-5 -20 -7 -38 -7 -55c0 -49 21 -86 66 -86c14 0 28 4 43 11c9 -16 15 -33 16 -50c-21 -17 -50 -26 -86 -26c-73 0 -113 48 -113 121c0 46 13 92 39 139l-45 105h-218l-42 -98l82 -22c3 -13 3 -26 0 -39h-228
c-3 13 -3 26 0 39l69 20l205 471h118zM314 406h-4l-79 -181h160z" />
    <glyph glyph-name="A.sc" unicode="&#xe000;" horiz-adv-x="680" 
d="M383 39l79 22l-42 98h-218l-42 -98l82 -22c3 -13 3 -26 0 -39h-228c-3 13 -3 26 0 39l69 20l205 471h118l203 -471l67 -20c3 -13 3 -26 0 -39h-293c-3 13 -3 26 0 39zM314 406h-4l-79 -181h160z" />
    <glyph glyph-name="AE.sc" unicode="&#xe001;" horiz-adv-x="913" 
d="M363 39l79 22v174h-191l-90 -174l82 -22c3 -13 3 -26 0 -39h-231c-3 13 -3 26 0 39l69 20l213 408l-107 24c-3 13 -3 26 0 39h657v-157c-18 -4 -36 -4 -54 0l-34 87h-180v-158h112l19 45c13 3 26 3 39 0v-172c-13 -3 -26 -3 -39 0l-19 60h-112v-165h198l33 97
c19 4 38 4 56 0v-167h-500c-3 13 -3 26 0 39zM442 460h-73l-83 -158h156v158z" />
    <glyph glyph-name="Aacute.sc" unicode="&#xe003;" horiz-adv-x="680" 
d="M383 39l79 22l-42 98h-218l-42 -98l82 -22c3 -13 3 -26 0 -39h-228c-3 13 -3 26 0 39l69 20l205 471h118l203 -471l67 -20c3 -13 3 -26 0 -39h-293c-3 13 -3 26 0 39zM314 406h-4l-79 -181h160zM266 625l132 147c23 -18 44 -40 62 -66l-154 -123c-16 11 -29 25 -40 42z
" />
    <glyph glyph-name="Abreve.sc" unicode="&#xe004;" horiz-adv-x="680" 
d="M383 39l79 22l-42 98h-218l-42 -98l82 -22c3 -13 3 -26 0 -39h-228c-3 13 -3 26 0 39l69 20l205 471h118l203 -471l67 -20c3 -13 3 -26 0 -39h-293c-3 13 -3 26 0 39zM314 406h-4l-79 -181h160zM197 738c10 2 20 3 31 3c10 0 21 -1 32 -3c8 -49 35 -73 81 -73
s73 24 81 73c11 2 22 3 31 3c11 0 22 -1 32 -3c-1 -87 -55 -143 -144 -143s-143 56 -144 143z" />
    <glyph glyph-name="Acircumflex.sc" unicode="&#xe005;" horiz-adv-x="680" 
d="M383 39l79 22l-42 98h-218l-42 -98l82 -22c3 -13 3 -26 0 -39h-228c-3 13 -3 26 0 39l69 20l205 471h118l203 -471l67 -20c3 -13 3 -26 0 -39h-293c-3 13 -3 26 0 39zM314 406h-4l-79 -181h160zM200 625l138 147h11l138 -147c-10 -17 -23 -31 -39 -42l-105 89l-105 -89
c-15 10 -27 24 -38 42z" />
    <glyph glyph-name="Adieresis.sc" unicode="&#xe006;" horiz-adv-x="680" 
d="M383 39l79 22l-42 98h-218l-42 -98l82 -22c3 -13 3 -26 0 -39h-228c-3 13 -3 26 0 39l69 20l205 471h118l203 -471l67 -20c3 -13 3 -26 0 -39h-293c-3 13 -3 26 0 39zM314 406h-4l-79 -181h160zM288 623c-19 -2 -38 -3 -55 -3c-19 0 -37 1 -54 3c-2 18 -3 36 -3 54
c0 19 1 37 3 55c18 2 36 3 54 3c19 0 37 -1 55 -3c2 -18 3 -36 3 -55c0 -18 -1 -36 -3 -54zM506 623c-19 -2 -38 -3 -55 -3c-19 0 -37 1 -54 3c-2 18 -3 36 -3 54c0 19 1 37 3 55c18 2 36 3 54 3c19 0 37 -1 55 -3c2 -18 3 -36 3 -55c0 -18 -1 -36 -3 -54z" />
    <glyph glyph-name="Agrave.sc" unicode="&#xe007;" horiz-adv-x="680" 
d="M383 39l79 22l-42 98h-218l-42 -98l82 -22c3 -13 3 -26 0 -39h-228c-3 13 -3 26 0 39l69 20l205 471h118l203 -471l67 -20c3 -13 3 -26 0 -39h-293c-3 13 -3 26 0 39zM314 406h-4l-79 -181h160zM301 772l132 -147c-10 -17 -23 -31 -40 -42l-154 123c17 25 38 47 62 66z
" />
    <glyph glyph-name="Amacron.sc" unicode="&#xe00b;" horiz-adv-x="680" 
d="M383 39l79 22l-42 98h-218l-42 -98l82 -22c3 -13 3 -26 0 -39h-228c-3 13 -3 26 0 39l69 20l205 471h118l203 -471l67 -20c3 -13 3 -26 0 -39h-293c-3 13 -3 26 0 39zM314 406h-4l-79 -181h160zM489 620h-293c-2 12 -3 25 -3 38c0 12 1 25 3 38h293c2 -13 3 -25 3 -38
s-1 -26 -3 -38z" />
    <glyph glyph-name="Aring.sc" unicode="&#xe00d;" horiz-adv-x="680" 
d="M383 39l79 22l-42 98h-218l-42 -98l82 -22c3 -13 3 -26 0 -39h-228c-3 13 -3 26 0 39l69 20l205 471h118l203 -471l67 -20c3 -13 3 -26 0 -39h-293c-3 13 -3 26 0 39zM314 406h-4l-79 -181h160zM267 610c-19 18 -29 42 -29 72s10 54 29 72c19 19 44 28 75 28
s56 -9 75 -28c20 -18 30 -42 30 -72s-10 -54 -30 -72c-19 -18 -44 -27 -75 -27s-56 9 -75 27zM308 722c-17 -21 -17 -59 0 -80c17 -20 51 -20 68 0c19 21 19 59 0 80c-17 21 -51 21 -68 0z" />
    <glyph glyph-name="Atilde.sc" unicode="&#xe00e;" horiz-adv-x="680" 
d="M383 39l79 22l-42 98h-218l-42 -98l82 -22c3 -13 3 -26 0 -39h-228c-3 13 -3 26 0 39l69 20l205 471h118l203 -471l67 -20c3 -13 3 -26 0 -39h-293c-3 13 -3 26 0 39zM314 406h-4l-79 -181h160zM240 601c-18 -4 -36 -4 -54 0c0 75 36 130 93 130c19 0 43 -9 70 -28
c28 -19 48 -28 60 -28c23 0 35 26 36 57c18 4 36 4 54 0c0 -73 -31 -129 -88 -129c-24 0 -50 9 -78 28c-27 19 -46 28 -56 28c-19 0 -33 -30 -37 -58z" />
    <glyph glyph-name="B.sc" unicode="&#xe00f;" horiz-adv-x="625" 
d="M291 460h-29v-148h21c91 0 131 12 131 75s-38 73 -123 73zM303 244h-41v-174h27c40 0 58 1 89 6c41 9 67 31 67 80c0 73 -49 88 -142 88zM48 39l79 22v408l-79 22c-3 13 -3 26 0 39h304c93 0 198 -24 198 -125c0 -65 -49 -111 -116 -118v-4c87 -1 148 -48 148 -128
c0 -37 -11 -67 -34 -92c-44 -48 -107 -63 -183 -63h-317c-3 13 -3 26 0 39z" />
    <glyph glyph-name="C.sc" unicode="&#xe011;" horiz-adv-x="574" 
d="M433 74l38 103c17 4 35 4 53 0v-142c-57 -30 -121 -45 -192 -45c-84 0 -153 23 -207 69c-53 47 -80 115 -80 206c0 89 28 157 85 204s129 71 214 71c65 0 124 -12 176 -35v-139c-18 -4 -36 -4 -53 0l-37 95c-19 6 -41 9 -67 9c-111 0 -181 -77 -181 -205
c0 -127 69 -203 177 -203c29 0 54 4 74 12z" />
    <glyph glyph-name="Cacute.sc" unicode="&#xe012;" horiz-adv-x="574" 
d="M433 74l38 103c17 4 35 4 53 0v-142c-57 -30 -121 -45 -192 -45c-84 0 -153 23 -207 69c-53 47 -80 115 -80 206c0 89 28 157 85 204s129 71 214 71c65 0 124 -12 176 -35v-139c-18 -4 -36 -4 -53 0l-37 95c-19 6 -41 9 -67 9c-111 0 -181 -77 -181 -205
c0 -127 69 -203 177 -203c29 0 54 4 74 12zM264 625l132 147c23 -18 44 -40 62 -66l-154 -123c-16 11 -29 25 -40 42z" />
    <glyph glyph-name="Ccaron.sc" unicode="&#xe013;" horiz-adv-x="574" 
d="M433 74l38 103c17 4 35 4 53 0v-142c-57 -30 -121 -45 -192 -45c-84 0 -153 23 -207 69c-53 47 -80 115 -80 206c0 89 28 157 85 204s129 71 214 71c65 0 124 -12 176 -35v-139c-18 -4 -36 -4 -53 0l-37 95c-19 6 -41 9 -67 9c-111 0 -181 -77 -181 -205
c0 -127 69 -203 177 -203c29 0 54 4 74 12zM469 729l-138 -146h-11l-138 145c9 17 22 32 38 44l105 -89l105 89c17 -13 30 -27 39 -43z" />
    <glyph glyph-name="Ccedilla.sc" unicode="&#xe014;" horiz-adv-x="574" 
d="M433 74l38 103c17 4 35 4 53 0v-142c-40 -21 -86 -34 -138 -41c10 -28 15 -54 15 -79c0 -73 -38 -121 -113 -121c-37 0 -66 9 -87 26c2 17 8 33 17 50c15 -7 29 -11 42 -11c44 0 66 30 66 89c0 11 -1 25 -4 42c-82 2 -149 26 -200 72c-51 47 -77 114 -77 203
s28 157 85 204s129 71 214 71c65 0 124 -12 176 -35v-139c-18 -4 -36 -4 -53 0l-37 95c-19 6 -41 9 -67 9c-111 0 -181 -77 -181 -205c0 -127 69 -203 177 -203c29 0 54 4 74 12z" />
    <glyph glyph-name="D.sc" unicode="&#xe018;" horiz-adv-x="670" 
d="M303 460h-41v-390h41c139 0 189 62 189 195s-52 195 -189 195zM48 39l79 22v408l-79 22c-3 13 -3 26 0 39h300c187 0 281 -88 281 -265c0 -180 -92 -265 -281 -265h-300c-3 13 -3 26 0 39z" />
    <glyph glyph-name="Dcaron.sc" unicode="&#xe019;" horiz-adv-x="670" 
d="M303 460h-41v-390h41c139 0 189 62 189 195s-52 195 -189 195zM48 39l79 22v408l-79 22c-3 13 -3 26 0 39h300c187 0 281 -88 281 -265c0 -180 -92 -265 -281 -265h-300c-3 13 -3 26 0 39zM484 729l-138 -146h-11l-138 145c9 17 22 32 38 44l105 -89l105 89
c17 -13 30 -27 39 -43z" />
    <glyph glyph-name="Dcroat.sc" unicode="&#xe01a;" horiz-adv-x="679" 
d="M308 460h-41v-151h113c2 -10 3 -20 3 -29c0 -11 -1 -20 -3 -29h-113v-181h41c139 0 189 62 189 195s-52 195 -189 195zM53 309h80v160l-80 22c-3 13 -3 26 0 39h301c187 0 281 -92 281 -265c0 -179 -92 -265 -281 -265h-301c-3 13 -3 26 0 39l80 22v190h-80
c-2 9 -3 18 -3 29c0 9 1 19 3 29z" />
    <glyph glyph-name="E.sc" unicode="&#xe01b;" horiz-adv-x="599" 
d="M48 39l79 22v408l-79 22c-3 13 -3 26 0 39h481v-157c-19 -4 -37 -4 -54 0l-34 87h-179v-151h111l19 45c13 3 26 3 39 0v-172c-13 -3 -26 -3 -39 0l-19 60h-111v-172h197l33 97c19 4 37 4 56 0v-167h-500c-3 13 -3 26 0 39z" />
    <glyph glyph-name="Eacute.sc" unicode="&#xe01c;" horiz-adv-x="599" 
d="M48 39l79 22v408l-79 22c-3 13 -3 26 0 39h481v-157c-19 -4 -37 -4 -54 0l-34 87h-179v-151h111l19 45c13 3 26 3 39 0v-172c-13 -3 -26 -3 -39 0l-19 60h-111v-172h197l33 97c19 4 37 4 56 0v-167h-500c-3 13 -3 26 0 39zM256 625l132 147c23 -18 44 -40 62 -66
l-154 -123c-16 11 -29 25 -40 42z" />
    <glyph glyph-name="Ecaron.sc" unicode="&#xe01e;" horiz-adv-x="599" 
d="M48 39l79 22v408l-79 22c-3 13 -3 26 0 39h481v-157c-19 -4 -37 -4 -54 0l-34 87h-179v-151h111l19 45c13 3 26 3 39 0v-172c-13 -3 -26 -3 -39 0l-19 60h-111v-172h197l33 97c19 4 37 4 56 0v-167h-500c-3 13 -3 26 0 39zM467 729l-138 -146h-11l-138 145
c9 17 22 32 38 44l105 -89l105 89c17 -13 30 -27 39 -43z" />
    <glyph glyph-name="Ecircumflex.sc" unicode="&#xe01f;" horiz-adv-x="599" 
d="M48 39l79 22v408l-79 22c-3 13 -3 26 0 39h481v-157c-19 -4 -37 -4 -54 0l-34 87h-179v-151h111l19 45c13 3 26 3 39 0v-172c-13 -3 -26 -3 -39 0l-19 60h-111v-172h197l33 97c19 4 37 4 56 0v-167h-500c-3 13 -3 26 0 39zM176 625l138 147h11l138 -147
c-10 -17 -23 -31 -39 -42l-105 89l-105 -89c-15 10 -27 24 -38 42z" />
    <glyph glyph-name="Edieresis.sc" unicode="&#xe020;" horiz-adv-x="599" 
d="M48 39l79 22v408l-79 22c-3 13 -3 26 0 39h481v-157c-19 -4 -37 -4 -54 0l-34 87h-179v-151h111l19 45c13 3 26 3 39 0v-172c-13 -3 -26 -3 -39 0l-19 60h-111v-172h197l33 97c19 4 37 4 56 0v-167h-500c-3 13 -3 26 0 39zM258 623c-19 -2 -38 -3 -55 -3
c-19 0 -37 1 -54 3c-2 18 -3 36 -3 54c0 19 1 37 3 55c18 2 36 3 54 3c19 0 37 -1 55 -3c2 -18 3 -36 3 -55c0 -18 -1 -36 -3 -54zM476 623c-19 -2 -37 -3 -55 -3c-19 0 -37 1 -54 3c-2 18 -3 36 -3 54c0 19 1 37 3 55c18 2 36 3 54 3c19 0 37 -1 55 -3c2 -18 3 -36 3 -55
c0 -18 -1 -36 -3 -54z" />
    <glyph glyph-name="Edotaccent.sc" unicode="&#xe021;" horiz-adv-x="599" 
d="M48 39l79 22v408l-79 22c-3 13 -3 26 0 39h481v-157c-19 -4 -37 -4 -54 0l-34 87h-179v-151h111l19 45c13 3 26 3 39 0v-172c-13 -3 -26 -3 -39 0l-19 60h-111v-172h197l33 97c19 4 37 4 56 0v-167h-500c-3 13 -3 26 0 39zM264 744c20 2 40 3 60 3c21 0 41 -1 61 -3
c4 -40 4 -80 0 -120c-20 -2 -40 -3 -61 -3c-20 0 -40 1 -60 3c-4 40 -4 80 0 120z" />
    <glyph glyph-name="Egrave.sc" unicode="&#xe022;" horiz-adv-x="599" 
d="M48 39l79 22v408l-79 22c-3 13 -3 26 0 39h481v-157c-19 -4 -37 -4 -54 0l-34 87h-179v-151h111l19 45c13 3 26 3 39 0v-172c-13 -3 -26 -3 -39 0l-19 60h-111v-172h197l33 97c19 4 37 4 56 0v-167h-500c-3 13 -3 26 0 39zM251 772l132 -147c-10 -17 -23 -31 -40 -42
l-154 123c17 25 38 47 62 66z" />
    <glyph glyph-name="Emacron.sc" unicode="&#xe023;" horiz-adv-x="599" 
d="M48 39l79 22v408l-79 22c-3 13 -3 26 0 39h481v-157c-19 -4 -37 -4 -54 0l-34 87h-179v-151h111l19 45c13 3 26 3 39 0v-172c-13 -3 -26 -3 -39 0l-19 60h-111v-172h197l33 97c19 4 37 4 56 0v-167h-500c-3 13 -3 26 0 39zM457 620h-293c-2 12 -3 25 -3 38
c0 12 1 25 3 38h293c2 -13 3 -25 3 -38s-1 -26 -3 -38z" />
    <glyph glyph-name="Eogonek.sc" unicode="&#xe025;" horiz-adv-x="599" 
d="M48 39l79 22v408l-79 22c-3 13 -3 26 0 39h481v-157c-19 -4 -37 -4 -54 0l-34 87h-179v-151h111l19 45c13 3 26 3 39 0v-172c-13 -3 -26 -3 -39 0l-19 60h-111v-172h197l33 97c19 4 37 4 56 0v-167h-111c-4 -20 -6 -37 -6 -52c0 -59 22 -89 66 -89c13 0 27 4 42 11
c9 -15 15 -31 17 -50c-21 -17 -50 -26 -87 -26c-75 0 -113 48 -113 121c0 31 6 59 17 85h-325c-3 13 -3 26 0 39z" />
    <glyph glyph-name="Eth.sc" unicode="&#xe02c;" horiz-adv-x="679" 
d="M308 460h-41v-151h113c2 -10 3 -20 3 -29c0 -11 -1 -20 -3 -29h-113v-181h41c139 0 189 62 189 195s-52 195 -189 195zM53 309h80v160l-80 22c-3 13 -3 26 0 39h301c187 0 281 -92 281 -265c0 -179 -92 -265 -281 -265h-301c-3 13 -3 26 0 39l80 22v190h-80
c-2 9 -3 18 -3 29c0 9 1 19 3 29z" />
    <glyph glyph-name="F.sc" unicode="&#xe02e;" horiz-adv-x="566" 
d="M48 39l79 22v408l-79 22c-3 13 -3 26 0 39h477v-157c-18 -4 -36 -4 -53 0l-35 87h-175v-176h118l19 45c13 3 26 3 39 0v-172c-13 -3 -26 -3 -39 0l-19 60h-118v-156l79 -22c3 -13 3 -26 0 -39h-293c-3 13 -3 26 0 39z" />
    <glyph glyph-name="G.sc" unicode="&#xe02f;" horiz-adv-x="636" 
d="M578 218l-39 -16v-212h-53c-25 0 -43 7 -52 22c-37 -15 -78 -22 -121 -22c-81 0 -146 25 -195 75s-73 116 -73 197c0 89 29 158 87 206c59 48 134 72 226 72c65 0 125 -12 181 -35v-139c-19 -4 -37 -4 -54 0l-37 95c-21 7 -43 10 -68 10c-124 0 -198 -83 -198 -212
c0 -56 15 -103 44 -141c30 -37 72 -56 125 -56c21 0 41 3 61 9v125l-79 22c-3 13 -3 26 0 39h245c3 -13 3 -26 0 -39z" />
    <glyph glyph-name="Gbreve.sc" unicode="&#xe033;" horiz-adv-x="636" 
d="M578 218l-39 -16v-212h-53c-25 0 -43 7 -52 22c-37 -15 -78 -22 -121 -22c-81 0 -146 25 -195 75s-73 116 -73 197c0 89 29 158 87 206c59 48 134 72 226 72c65 0 125 -12 181 -35v-139c-19 -4 -37 -4 -54 0l-37 95c-21 7 -43 10 -68 10c-124 0 -198 -83 -198 -212
c0 -56 15 -103 44 -141c30 -37 72 -56 125 -56c21 0 41 3 61 9v125l-79 22c-3 13 -3 26 0 39h245c3 -13 3 -26 0 -39zM182 738c10 2 20 3 31 3c10 0 21 -1 32 -3c8 -49 35 -73 81 -73s73 24 81 73c11 2 22 3 31 3c11 0 22 -1 32 -3c-1 -87 -55 -143 -144 -143
s-143 56 -144 143z" />
    <glyph glyph-name="Gcommaaccent.sc" unicode="&#xe035;" horiz-adv-x="636" 
d="M578 218l-39 -16v-212h-53c-25 0 -43 7 -52 22c-37 -15 -78 -22 -121 -22c-81 0 -146 25 -195 75s-73 116 -73 197c0 89 29 158 87 206c59 48 134 72 226 72c65 0 125 -12 181 -35v-139c-19 -4 -37 -4 -54 0l-37 95c-21 7 -43 10 -68 10c-124 0 -198 -83 -198 -212
c0 -56 15 -103 44 -141c30 -37 72 -56 125 -56c21 0 41 3 61 9v125l-79 22c-3 13 -3 26 0 39h245c3 -13 3 -26 0 -39zM250 -207c25 28 38 70 38 125c0 8 -1 19 -2 34c15 2 30 3 45 3c16 0 31 -1 45 -3c5 -86 -24 -147 -89 -182c-15 3 -27 11 -37 23z" />
    <glyph glyph-name="H.sc" unicode="&#xe037;" horiz-adv-x="746" 
d="M493 61v184h-231v-184l75 -22c3 -13 3 -26 0 -39h-289c-3 13 -3 26 0 39l79 22v408l-79 22c-3 13 -3 26 0 39h289c3 -13 3 -26 0 -39l-75 -22v-154h231v154l-75 22c-3 13 -3 26 0 39h288c3 -13 3 -26 0 -39l-79 -22v-408l79 -22c3 -13 3 -26 0 -39h-288c-3 13 -3 26 0 39
z" />
    <glyph glyph-name="I.sc" unicode="&#xe03a;" horiz-adv-x="381" 
d="M341 491l-79 -22v-408l79 -22c3 -13 3 -26 0 -39h-293c-3 13 -3 26 0 39l79 22v408l-79 22c-3 13 -3 26 0 39h293c3 -13 3 -26 0 -39z" />
    <glyph glyph-name="Iacute.sc" unicode="&#xe03c;" horiz-adv-x="381" 
d="M341 491l-79 -22v-408l79 -22c3 -13 3 -26 0 -39h-293c-3 13 -3 26 0 39l79 22v408l-79 22c-3 13 -3 26 0 39h293c3 -13 3 -26 0 -39zM132 625l132 147c23 -18 44 -40 62 -66l-154 -123c-16 11 -29 25 -40 42z" />
    <glyph glyph-name="Icircumflex.sc" unicode="&#xe03e;" horiz-adv-x="381" 
d="M341 491l-79 -22v-408l79 -22c3 -13 3 -26 0 -39h-293c-3 13 -3 26 0 39l79 22v408l-79 22c-3 13 -3 26 0 39h293c3 -13 3 -26 0 -39zM51 625l138 147h11l138 -147c-10 -17 -23 -31 -39 -42l-105 89l-105 -89c-15 10 -27 24 -38 42z" />
    <glyph glyph-name="Idieresis.sc" unicode="&#xe03f;" horiz-adv-x="381" 
d="M335 491l-79 -22v-408l79 -22c3 -13 3 -26 0 -39h-293c-3 13 -3 26 0 39l79 22v408l-79 22c-3 13 -3 26 0 39h293c3 -13 3 -26 0 -39zM134 623c-19 -2 -38 -3 -55 -3c-19 0 -37 1 -54 3c-2 18 -3 36 -3 54c0 19 1 37 3 55c18 2 36 3 54 3c19 0 37 -1 55 -3
c2 -18 3 -36 3 -55c0 -18 -1 -36 -3 -54zM352 623c-19 -2 -37 -3 -55 -3c-19 0 -37 1 -54 3c-2 18 -3 36 -3 54c0 19 1 37 3 55c18 2 36 3 54 3c19 0 37 -1 55 -3c2 -18 3 -36 3 -55c0 -18 -1 -36 -3 -54z" />
    <glyph glyph-name="Idotaccent.sc" unicode="&#xe040;" horiz-adv-x="381" 
d="M341 491l-79 -22v-408l79 -22c3 -13 3 -26 0 -39h-293c-3 13 -3 26 0 39l79 22v408l-79 22c-3 13 -3 26 0 39h293c3 -13 3 -26 0 -39zM134 744c20 2 40 3 60 3c21 0 41 -1 61 -3c4 -40 4 -80 0 -120c-20 -2 -40 -3 -61 -3c-20 0 -40 1 -60 3c-4 40 -4 80 0 120z" />
    <glyph glyph-name="Igrave.sc" unicode="&#xe041;" horiz-adv-x="381" 
d="M341 491l-79 -22v-408l79 -22c3 -13 3 -26 0 -39h-293c-3 13 -3 26 0 39l79 22v408l-79 22c-3 13 -3 26 0 39h293c3 -13 3 -26 0 -39zM130 772l132 -147c-10 -17 -23 -31 -40 -42l-154 123c17 25 38 47 62 66z" />
    <glyph glyph-name="Imacron.sc" unicode="&#xe042;" horiz-adv-x="381" 
d="M338 491l-79 -22v-408l79 -22c3 -13 3 -26 0 -39h-293c-3 13 -3 26 0 39l79 22v408l-79 22c-3 13 -3 26 0 39h293c3 -13 3 -26 0 -39zM338 620h-293c-2 12 -3 25 -3 38c0 12 1 25 3 38h293c2 -13 3 -25 3 -38s-1 -26 -3 -38z" />
    <glyph glyph-name="Iogonek.sc" unicode="&#xe043;" horiz-adv-x="381" 
d="M341 491l-79 -22v-408l79 -22c3 -13 3 -26 0 -39h-117c-4 -20 -6 -37 -6 -52c0 -59 22 -89 66 -89c13 0 27 4 42 11c9 -15 15 -31 17 -50c-21 -17 -50 -26 -87 -26c-75 0 -113 48 -113 121c0 31 6 59 17 85h-112c-3 13 -3 26 0 39l79 22v408l-79 22c-3 13 -3 26 0 39h293
c3 -13 3 -26 0 -39z" />
    <glyph glyph-name="J.sc" unicode="&#xe049;" horiz-adv-x="370" 
d="M44 530h293c3 -13 3 -26 0 -39l-79 -22v-408c0 -121 -72 -181 -217 -181c-6 14 -9 29 -9 44c69 15 91 58 91 149v396l-79 22c-3 13 -3 26 0 39z" />
    <glyph glyph-name="K.sc" unicode="&#xe04b;" horiz-adv-x="693" 
d="M331 491l-69 -22v-408l73 -22c3 -13 3 -26 0 -39h-287c-3 13 -3 26 0 39l79 22v408l-79 22c-3 13 -3 26 0 39h283c3 -13 3 -26 0 -39zM680 0h-195l-208 264v4l198 209l-54 14c-3 12 -3 25 0 39h234c3 -13 3 -26 0 -39l-91 -22l-152 -160l197 -248l71 -22
c3 -13 3 -26 0 -39z" />
    <glyph glyph-name="Kcommaaccent.sc" unicode="&#xe04d;" horiz-adv-x="693" 
d="M331 491l-69 -22v-408l73 -22c3 -13 3 -26 0 -39h-287c-3 13 -3 26 0 39l79 22v408l-79 22c-3 13 -3 26 0 39h283c3 -13 3 -26 0 -39zM680 0h-195l-208 264v4l198 209l-54 14c-3 12 -3 25 0 39h234c3 -13 3 -26 0 -39l-91 -22l-152 -160l197 -248l71 -22
c3 -13 3 -26 0 -39zM300 -207c25 28 38 70 38 125c0 8 -1 19 -2 34c15 2 30 3 45 3c16 0 31 -1 45 -3c5 -86 -24 -147 -89 -182c-15 3 -27 11 -37 23z" />
    <glyph glyph-name="L.sc" unicode="&#xe04e;" horiz-adv-x="548" 
d="M341 491l-79 -22v-399h173l34 102c18 4 37 4 56 0v-172h-477c-3 13 -3 26 0 39l79 22v408l-79 22c-3 13 -3 26 0 39h293c3 -13 3 -26 0 -39z" />
    <glyph glyph-name="Lacute.sc" unicode="&#xe04f;" horiz-adv-x="548" 
d="M341 491l-79 -22v-399h173l34 102c18 4 37 4 56 0v-172h-477c-3 13 -3 26 0 39l79 22v408l-79 22c-3 13 -3 26 0 39h293c3 -13 3 -26 0 -39zM138 625l132 147c23 -18 44 -40 62 -66l-154 -123c-16 11 -29 25 -40 42z" />
    <glyph glyph-name="Lcaron.sc" unicode="&#xe051;" horiz-adv-x="548" 
d="M341 491l-79 -22v-399h173l34 102c18 4 37 4 56 0v-172h-477c-3 13 -3 26 0 39l79 22v408l-79 22c-3 13 -3 26 0 39h293c3 -13 3 -26 0 -39zM380 367c25 28 38 70 38 125c0 8 -1 19 -2 34c15 2 30 3 45 3c16 0 31 -1 45 -3c5 -86 -24 -147 -89 -182c-15 3 -27 11 -37 23z
" />
    <glyph glyph-name="Lcommaaccent.sc" unicode="&#xe052;" horiz-adv-x="548" 
d="M341 491l-79 -22v-399h173l34 102c18 4 37 4 56 0v-172h-477c-3 13 -3 26 0 39l79 22v408l-79 22c-3 13 -3 26 0 39h293c3 -13 3 -26 0 -39zM232 -207c25 28 38 70 38 125c0 8 -1 19 -2 34c15 2 30 3 45 3c16 0 31 -1 45 -3c5 -86 -24 -147 -89 -182c-15 3 -27 11 -37 23
z" />
    <glyph glyph-name="Lslash.sc" unicode="&#xe054;" horiz-adv-x="557" 
d="M351 491l-79 -22v-131l112 86l4 -1v-62l-116 -88v-203h173l34 102c18 4 37 4 56 0v-172h-477c-3 13 -3 26 0 39l79 22v110l-75 -57l-4 1v61l79 60v233l-79 22c-3 13 -3 26 0 39h293c3 -13 3 -26 0 -39z" />
    <glyph glyph-name="M.sc" unicode="&#xe055;" horiz-adv-x="932" 
d="M867 491l-79 -22l22 -408l79 -22c3 -13 3 -26 0 -39h-293c-3 13 -3 26 0 39l79 22l-18 337h-5l-178 -398h-92l-161 397h-5l-33 -336l77 -22c3 -13 3 -26 0 -39h-220c-3 13 -3 26 0 39l72 21l42 409l-79 22c-3 13 -3 26 0 39h237l151 -376h4l169 376h231
c3 -13 3 -26 0 -39z" />
    <glyph glyph-name="N.sc" unicode="&#xe059;" horiz-adv-x="697" 
d="M269 530l245 -350h4v289l-78 22c-3 13 -3 26 0 39h220c3 -13 3 -26 0 -39l-72 -21v-470h-111l-281 402h-4v-341l79 -22c3 -13 3 -26 0 -39h-221c-3 13 -3 26 0 39l72 21v409l-72 22c-3 13 -3 26 0 39h219z" />
    <glyph glyph-name="Nacute.sc" unicode="&#xe05c;" horiz-adv-x="697" 
d="M269 530l245 -350h4v289l-78 22c-3 13 -3 26 0 39h220c3 -13 3 -26 0 -39l-72 -21v-470h-111l-281 402h-4v-341l79 -22c3 -13 3 -26 0 -39h-221c-3 13 -3 26 0 39l72 21v409l-72 22c-3 13 -3 26 0 39h219zM303 625l132 147c23 -18 44 -40 62 -66l-154 -123
c-16 11 -29 25 -40 42z" />
    <glyph glyph-name="Ncaron.sc" unicode="&#xe05d;" horiz-adv-x="697" 
d="M269 530l245 -350h4v289l-78 22c-3 13 -3 26 0 39h220c3 -13 3 -26 0 -39l-72 -21v-470h-111l-281 402h-4v-341l79 -22c3 -13 3 -26 0 -39h-221c-3 13 -3 26 0 39l72 21v409l-72 22c-3 13 -3 26 0 39h219zM507 729l-138 -146h-11l-138 145c9 17 22 32 38 44l105 -89
l105 89c17 -13 30 -27 39 -43z" />
    <glyph glyph-name="Ncommaaccent.sc" unicode="&#xe05e;" horiz-adv-x="697" 
d="M269 530l245 -350h4v289l-78 22c-3 13 -3 26 0 39h220c3 -13 3 -26 0 -39l-72 -21v-470h-111l-281 402h-4v-341l79 -22c3 -13 3 -26 0 -39h-221c-3 13 -3 26 0 39l72 21v409l-72 22c-3 13 -3 26 0 39h219zM271 -207c25 28 38 70 38 125c0 8 -1 19 -2 34c15 2 30 3 45 3
c16 0 31 -1 45 -3c5 -86 -24 -147 -89 -182c-15 3 -27 11 -37 23z" />
    <glyph glyph-name="Ntilde.sc" unicode="&#xe05f;" horiz-adv-x="697" 
d="M269 530l245 -350h4v289l-78 22c-3 13 -3 26 0 39h220c3 -13 3 -26 0 -39l-72 -21v-470h-111l-281 402h-4v-341l79 -22c3 -13 3 -26 0 -39h-221c-3 13 -3 26 0 39l72 21v409l-72 22c-3 13 -3 26 0 39h219zM262 601c-18 -4 -36 -4 -54 0c0 75 36 130 93 130
c19 0 43 -9 70 -28c28 -19 48 -28 60 -28c23 0 35 26 36 57c18 4 36 4 54 0c0 -73 -31 -129 -88 -129c-24 0 -50 9 -78 28c-27 19 -46 28 -56 28c-19 0 -33 -30 -37 -58z" />
    <glyph glyph-name="O.sc" unicode="&#xe061;" horiz-adv-x="651" 
d="M45 265c0 179 108 275 280 275c173 0 281 -95 281 -275c0 -183 -106 -275 -281 -275c-172 0 -280 92 -280 275zM325 59c95 0 143 69 143 206s-48 206 -143 206s-143 -69 -143 -206s48 -206 143 -206z" />
    <glyph glyph-name="OE.sc" unicode="&#xe062;" horiz-adv-x="890" 
d="M415 69v391c-19 9 -42 13 -68 13c-110 0 -165 -69 -165 -208c0 -135 48 -208 165 -208c26 0 49 4 68 12zM660 242h-111v-172h197l34 97c19 4 37 4 55 0v-167h-412c-32 -7 -63 -10 -94 -10c-183 0 -284 98 -284 275c0 173 103 275 284 275c30 0 61 -3 92 -10h395v-157
c-19 -5 -37 -5 -54 0l-34 87h-179v-151h111l19 45c13 3 27 3 40 0v-172c-14 -3 -27 -3 -40 0z" />
    <glyph glyph-name="Oacute.sc" unicode="&#xe063;" horiz-adv-x="651" 
d="M45 265c0 179 108 275 280 275c173 0 281 -95 281 -275c0 -183 -106 -275 -281 -275c-172 0 -280 92 -280 275zM325 59c95 0 143 69 143 206s-48 206 -143 206s-143 -69 -143 -206s48 -206 143 -206zM270 625l132 147c23 -18 44 -40 62 -66l-154 -123
c-16 11 -29 25 -40 42z" />
    <glyph glyph-name="Ocircumflex.sc" unicode="&#xe065;" horiz-adv-x="651" 
d="M45 265c0 179 108 275 280 275c173 0 281 -95 281 -275c0 -183 -106 -275 -281 -275c-172 0 -280 92 -280 275zM325 59c95 0 143 69 143 206s-48 206 -143 206s-143 -69 -143 -206s48 -206 143 -206zM182 625l138 147h11l138 -147c-10 -17 -23 -31 -39 -42l-105 89
l-105 -89c-15 10 -27 24 -38 42z" />
    <glyph glyph-name="Odieresis.sc" unicode="&#xe066;" horiz-adv-x="651" 
d="M45 265c0 179 108 275 280 275c173 0 281 -95 281 -275c0 -183 -106 -275 -281 -275c-172 0 -280 92 -280 275zM325 59c95 0 143 69 143 206s-48 206 -143 206s-143 -69 -143 -206s48 -206 143 -206zM271 623c-19 -2 -38 -3 -55 -3c-19 0 -37 1 -54 3c-2 18 -3 36 -3 54
c0 19 1 37 3 55c18 2 36 3 54 3c19 0 37 -1 55 -3c2 -18 3 -36 3 -55c0 -18 -1 -36 -3 -54zM489 623c-19 -2 -37 -3 -55 -3c-19 0 -37 1 -54 3c-2 18 -3 36 -3 54c0 19 1 37 3 55c18 2 36 3 54 3c19 0 37 -1 55 -3c2 -18 3 -36 3 -55c0 -18 -1 -36 -3 -54z" />
    <glyph glyph-name="Ograve.sc" unicode="&#xe067;" horiz-adv-x="651" 
d="M45 265c0 179 108 275 280 275c173 0 281 -95 281 -275c0 -183 -106 -275 -281 -275c-172 0 -280 92 -280 275zM325 59c95 0 143 69 143 206s-48 206 -143 206s-143 -69 -143 -206s48 -206 143 -206zM263 772l132 -147c-10 -17 -23 -31 -40 -42l-154 123
c17 25 38 47 62 66z" />
    <glyph glyph-name="Ohungarumlaut.sc" unicode="&#xe068;" horiz-adv-x="651" 
d="M45 265c0 179 108 275 280 275c173 0 281 -95 281 -275c0 -183 -106 -275 -281 -275c-172 0 -280 92 -280 275zM325 59c95 0 143 69 143 206s-48 206 -143 206s-143 -69 -143 -206s48 -206 143 -206zM168 623l123 150c26 -19 48 -40 65 -63l-146 -127
c-16 9 -30 23 -42 40zM359 623l123 150c26 -19 48 -40 65 -63l-146 -127c-16 9 -30 23 -42 40z" />
    <glyph glyph-name="Omacron.sc" unicode="&#xe069;" horiz-adv-x="651" 
d="M45 265c0 179 108 275 280 275c173 0 281 -95 281 -275c0 -183 -106 -275 -281 -275c-172 0 -280 92 -280 275zM325 59c95 0 143 69 143 206s-48 206 -143 206s-143 -69 -143 -206s48 -206 143 -206zM472 620h-293c-2 12 -3 25 -3 38c0 12 1 25 3 38h293
c2 -13 3 -25 3 -38s-1 -26 -3 -38z" />
    <glyph glyph-name="Oslash.sc" unicode="&#xe06f;" horiz-adv-x="651" 
d="M45 265c0 179 108 275 280 275c51 0 95 -8 133 -24l41 62c19 -8 33 -18 43 -29l-37 -59c67 -47 101 -122 101 -225c0 -183 -106 -275 -281 -275c-49 0 -92 8 -131 23l-44 -69c-16 7 -31 16 -44 29l41 64c-68 46 -102 122 -102 228zM325 471c-95 0 -143 -69 -143 -206
c0 -59 8 -104 24 -133h4l201 311c-21 19 -49 28 -86 28zM468 265c0 53 -7 96 -22 129h-4l-201 -309c23 -17 51 -26 84 -26c95 0 143 69 143 206z" />
    <glyph glyph-name="Otilde.sc" unicode="&#xe071;" horiz-adv-x="651" 
d="M223 601c-18 -4 -36 -4 -54 0c0 75 36 130 93 130c19 0 43 -9 70 -28c28 -19 48 -28 60 -28c23 0 35 26 36 57c18 4 36 4 54 0c0 -73 -31 -129 -88 -129c-24 0 -50 9 -78 28c-27 19 -46 28 -56 28c-19 0 -33 -30 -37 -58zM45 265c0 179 108 275 280 275
c173 0 281 -95 281 -275c0 -183 -106 -275 -281 -275c-172 0 -280 92 -280 275zM325 59c95 0 143 69 143 206s-48 206 -143 206s-143 -69 -143 -206s48 -206 143 -206z" />
    <glyph glyph-name="P.sc" unicode="&#xe072;" horiz-adv-x="588" 
d="M283 460h-21v-213h21c88 0 132 30 132 107c0 79 -44 106 -132 106zM304 178h-42v-117l79 -22c3 -13 3 -26 0 -39h-293c-3 13 -3 26 0 39l79 22v408l-79 22c-3 13 -3 26 0 39h254c167 0 250 -57 250 -172c0 -61 -24 -107 -71 -136s-106 -44 -177 -44z" />
    <glyph glyph-name="Q.sc" unicode="&#xe077;" horiz-adv-x="651" 
d="M325 59c95 0 143 69 143 206s-48 206 -143 206s-143 -69 -143 -206s48 -206 143 -206zM45 265c0 173 101 275 280 275c181 0 281 -100 281 -275c0 -156 -75 -249 -216 -270c9 -39 37 -63 84 -71c0 -16 -3 -31 -10 -44c-109 0 -175 38 -198 114c-145 19 -221 112 -221 271
z" />
    <glyph glyph-name="R.sc" unicode="&#xe079;" horiz-adv-x="660" 
d="M283 460h-21v-193h21c91 0 132 21 132 97c0 77 -40 96 -132 96zM451 0l-141 200h-48v-139l66 -22c3 -13 3 -26 0 -39h-280c-3 13 -3 26 0 39l79 22v408l-79 22c-3 13 -3 26 0 39h254c72 0 125 -7 174 -30s76 -68 76 -133c0 -69 -32 -117 -97 -143l114 -163l72 -22
c3 -13 3 -26 0 -39h-190z" />
    <glyph glyph-name="Racute.sc" unicode="&#xe07b;" horiz-adv-x="660" 
d="M283 460h-21v-193h21c91 0 132 21 132 97c0 77 -40 96 -132 96zM451 0l-141 200h-48v-139l66 -22c3 -13 3 -26 0 -39h-280c-3 13 -3 26 0 39l79 22v408l-79 22c-3 13 -3 26 0 39h254c72 0 125 -7 174 -30s76 -68 76 -133c0 -69 -32 -117 -97 -143l114 -163l72 -22
c3 -13 3 -26 0 -39h-190zM261 625l132 147c23 -18 44 -40 62 -66l-154 -123c-16 11 -29 25 -40 42z" />
    <glyph glyph-name="Rcaron.sc" unicode="&#xe07c;" horiz-adv-x="660" 
d="M283 460h-21v-193h21c91 0 132 21 132 97c0 77 -40 96 -132 96zM451 0l-141 200h-48v-139l66 -22c3 -13 3 -26 0 -39h-280c-3 13 -3 26 0 39l79 22v408l-79 22c-3 13 -3 26 0 39h254c72 0 125 -7 174 -30s76 -68 76 -133c0 -69 -32 -117 -97 -143l114 -163l72 -22
c3 -13 3 -26 0 -39h-190zM455 729l-138 -146h-11l-138 145c9 17 22 32 38 44l105 -89l105 89c17 -13 30 -27 39 -43z" />
    <glyph glyph-name="Rcommaaccent.sc" unicode="&#xe07d;" horiz-adv-x="660" 
d="M283 460h-21v-193h21c91 0 132 21 132 97c0 77 -40 96 -132 96zM451 0l-141 200h-48v-139l66 -22c3 -13 3 -26 0 -39h-280c-3 13 -3 26 0 39l79 22v408l-79 22c-3 13 -3 26 0 39h254c72 0 125 -7 174 -30s76 -68 76 -133c0 -69 -32 -117 -97 -143l114 -163l72 -22
c3 -13 3 -26 0 -39h-190zM287 -207c25 28 38 70 38 125c0 8 -1 19 -2 34c15 2 30 3 45 3c16 0 31 -1 45 -3c5 -86 -24 -147 -89 -182c-15 3 -27 11 -37 23z" />
    <glyph glyph-name="S.sc" unicode="&#xe082;" horiz-adv-x="548" 
d="M72 31v140c18 3 36 3 54 0l37 -101c25 -7 54 -11 87 -11c71 0 126 20 126 68c0 56 -74 59 -149 82c-75 20 -149 55 -149 161c0 57 22 100 66 128c45 28 98 42 161 42c65 0 120 -11 167 -34v-135c-19 -4 -37 -4 -54 0l-37 92c-21 7 -47 10 -76 10c-64 0 -112 -21 -112 -70
c0 -43 47 -65 106 -78c86 -17 197 -44 196 -162c0 -41 -13 -75 -38 -102c-51 -55 -121 -71 -204 -71c-73 0 -134 14 -181 41z" />
    <glyph glyph-name="Sacute.sc" unicode="&#xe083;" horiz-adv-x="548" 
d="M72 31v140c18 3 36 3 54 0l37 -101c25 -7 54 -11 87 -11c71 0 126 20 126 68c0 56 -74 59 -149 82c-75 20 -149 55 -149 161c0 57 22 100 66 128c45 28 98 42 161 42c65 0 120 -11 167 -34v-135c-19 -4 -37 -4 -54 0l-37 92c-21 7 -47 10 -76 10c-64 0 -112 -21 -112 -70
c0 -43 47 -65 106 -78c86 -17 197 -44 196 -162c0 -41 -13 -75 -38 -102c-51 -55 -121 -71 -204 -71c-73 0 -134 14 -181 41zM230 625l132 147c23 -18 44 -40 62 -66l-154 -123c-16 11 -29 25 -40 42z" />
    <glyph glyph-name="Scaron.sc" unicode="&#xe084;" horiz-adv-x="548" 
d="M72 31v140c18 3 36 3 54 0l37 -101c25 -7 54 -11 87 -11c71 0 126 20 126 68c0 56 -74 59 -149 82c-75 20 -149 55 -149 161c0 57 22 100 66 128c45 28 98 42 161 42c65 0 120 -11 167 -34v-135c-19 -4 -37 -4 -54 0l-37 92c-21 7 -47 10 -76 10c-64 0 -112 -21 -112 -70
c0 -43 47 -65 106 -78c86 -17 197 -44 196 -162c0 -41 -13 -75 -38 -102c-51 -55 -121 -71 -204 -71c-73 0 -134 14 -181 41zM433 729l-138 -146h-11l-138 145c9 17 22 32 38 44l105 -89l105 89c17 -13 30 -27 39 -43z" />
    <glyph glyph-name="Scedilla.sc" unicode="&#xe085;" horiz-adv-x="548" 
d="M72 31v140c18 3 36 3 54 0l37 -101c25 -7 54 -11 87 -11c71 0 126 20 126 68c0 56 -74 59 -149 82c-75 20 -149 55 -149 161c0 57 22 100 66 128c45 28 98 42 161 42c65 0 120 -11 167 -34v-135c-19 -4 -37 -4 -54 0l-37 92c-21 7 -47 10 -76 10c-64 0 -112 -21 -112 -70
c0 -43 47 -65 106 -78c86 -17 197 -44 196 -162c0 -83 -49 -137 -146 -162c11 -29 17 -58 17 -86c0 -73 -38 -121 -113 -121c-37 0 -66 9 -87 26c2 17 8 33 17 50c15 -7 29 -11 42 -11c47 0 66 37 66 88c0 14 -2 29 -5 44c-8 -1 -19 -1 -33 -1c-73 0 -134 14 -181 41z" />
    <glyph glyph-name="Scommaaccent.sc" unicode="&#xe087;" horiz-adv-x="548" 
d="M72 31v140c18 3 36 3 54 0l37 -101c25 -7 54 -11 87 -11c71 0 126 20 126 68c0 56 -74 59 -149 82c-75 20 -149 55 -149 161c0 57 22 100 66 128c45 28 98 42 161 42c65 0 120 -11 167 -34v-135c-19 -4 -37 -4 -54 0l-37 92c-21 7 -47 10 -76 10c-64 0 -112 -21 -112 -70
c0 -43 47 -65 106 -78c86 -17 197 -44 196 -162c0 -41 -13 -75 -38 -102c-51 -55 -121 -71 -204 -71c-73 0 -134 14 -181 41zM211 -207c25 28 38 70 38 125c0 8 -1 19 -2 34c15 2 30 3 45 3c16 0 31 -1 45 -3c5 -86 -24 -147 -89 -182c-15 3 -27 11 -37 23z" />
    <glyph glyph-name="caron.alt" unicode="&#xe088;" horiz-adv-x="400" 
d="M136 -207c25 28 38 70 38 125c0 8 -1 19 -2 34c15 2 30 3 45 3c16 0 31 -1 45 -3c5 -86 -24 -147 -89 -182c-15 3 -27 11 -37 23z" />
    <glyph glyph-name="T.sc" unicode="&#xe089;" horiz-adv-x="591" 
d="M505 363l-36 97h-106v-399l79 -22c3 -13 3 -26 0 -39h-293c-3 13 -3 26 0 39l79 22v399h-106l-36 -97c-17 -4 -35 -4 -54 0v167h527v-167c-19 -4 -37 -4 -54 0z" />
    <glyph glyph-name="Tcaron.sc" unicode="&#xe08d;" horiz-adv-x="591" 
d="M505 363l-36 97h-106v-399l79 -22c3 -13 3 -26 0 -39h-293c-3 13 -3 26 0 39l79 22v399h-106l-36 -97c-17 -4 -35 -4 -54 0v167h527v-167c-19 -4 -37 -4 -54 0zM439 729l-138 -146h-11l-138 145c9 17 22 32 38 44l105 -89l105 89c17 -13 30 -27 39 -43z" />
    <glyph glyph-name="Tcommaaccent.sc" unicode="&#xe08f;" horiz-adv-x="591" 
d="M505 363l-36 97h-106v-399l79 -22c3 -13 3 -26 0 -39h-293c-3 13 -3 26 0 39l79 22v399h-106l-36 -97c-17 -4 -35 -4 -54 0v167h527v-167c-19 -4 -37 -4 -54 0zM216 -207c25 28 38 70 38 125c0 8 -1 19 -2 34c15 2 30 3 45 3c16 0 31 -1 45 -3c5 -86 -24 -147 -89 -182
c-15 3 -27 11 -37 23z" />
    <glyph glyph-name="Thorn.sc" unicode="&#xe092;" horiz-adv-x="582" 
d="M405 266c0 33 -11 55 -24 67c-7 6 -17 10 -31 13c-28 7 -45 7 -88 7v-175c53 0 75 1 103 12c29 12 40 35 40 76zM341 491l-79 -22v-46h47c85 0 145 -12 180 -35c36 -23 54 -63 54 -121c0 -106 -78 -159 -234 -159h-47v-47l79 -22c3 -13 3 -26 0 -39h-293
c-3 13 -3 26 0 39l79 22v408l-79 22c-3 13 -3 26 0 39h293c3 -13 3 -26 0 -39z" />
    <glyph glyph-name="U.sc" unicode="&#xe093;" horiz-adv-x="684" 
d="M512 244v225l-78 22c-3 13 -3 26 0 39h220c3 -13 3 -26 0 -39l-72 -21v-236c0 -161 -68 -244 -224 -244c-164 0 -240 71 -240 242v237l-68 22c-3 13 -3 26 0 39h282c3 -13 3 -26 0 -39l-79 -22v-225c0 -120 36 -169 129 -169c91 0 130 53 130 169z" />
    <glyph glyph-name="Uacute.sc" unicode="&#xe094;" horiz-adv-x="684" 
d="M512 244v225l-78 22c-3 13 -3 26 0 39h220c3 -13 3 -26 0 -39l-72 -21v-236c0 -161 -68 -244 -224 -244c-164 0 -240 71 -240 242v237l-68 22c-3 13 -3 26 0 39h282c3 -13 3 -26 0 -39l-79 -22v-225c0 -120 36 -169 129 -169c91 0 130 53 130 169zM312 625l132 147
c23 -18 44 -40 62 -66l-154 -123c-16 11 -29 25 -40 42z" />
    <glyph glyph-name="Ucircumflex.sc" unicode="&#xe096;" horiz-adv-x="684" 
d="M512 244v225l-78 22c-3 13 -3 26 0 39h220c3 -13 3 -26 0 -39l-72 -21v-236c0 -161 -68 -244 -224 -244c-164 0 -240 71 -240 242v237l-68 22c-3 13 -3 26 0 39h282c3 -13 3 -26 0 -39l-79 -22v-225c0 -120 36 -169 129 -169c91 0 130 53 130 169zM226 625l138 147h11
l138 -147c-10 -17 -23 -31 -39 -42l-105 89l-105 -89c-15 10 -27 24 -38 42z" />
    <glyph glyph-name="Udieresis.sc" unicode="&#xe097;" horiz-adv-x="684" 
d="M512 244v225l-78 22c-3 13 -3 26 0 39h220c3 -13 3 -26 0 -39l-72 -21v-236c0 -161 -68 -244 -224 -244c-164 0 -240 71 -240 242v237l-68 22c-3 13 -3 26 0 39h282c3 -13 3 -26 0 -39l-79 -22v-225c0 -120 36 -169 129 -169c91 0 130 53 130 169zM314 623
c-19 -2 -38 -3 -55 -3c-19 0 -37 1 -54 3c-2 18 -3 36 -3 54c0 19 1 37 3 55c18 2 36 3 54 3c19 0 37 -1 55 -3c2 -18 3 -36 3 -55c0 -18 -1 -36 -3 -54zM532 623c-19 -2 -37 -3 -55 -3c-19 0 -37 1 -54 3c-2 18 -3 36 -3 54c0 19 1 37 3 55c18 2 36 3 54 3
c19 0 37 -1 55 -3c2 -18 3 -36 3 -55c0 -18 -1 -36 -3 -54z" />
    <glyph glyph-name="Ugrave.sc" unicode="&#xe098;" horiz-adv-x="684" 
d="M512 244v225l-78 22c-3 13 -3 26 0 39h220c3 -13 3 -26 0 -39l-72 -21v-236c0 -161 -68 -244 -224 -244c-164 0 -240 71 -240 242v237l-68 22c-3 13 -3 26 0 39h282c3 -13 3 -26 0 -39l-79 -22v-225c0 -120 36 -169 129 -169c91 0 130 53 130 169zM293 772l132 -147
c-10 -17 -23 -31 -40 -42l-154 123c17 25 38 47 62 66z" />
    <glyph glyph-name="Uhungarumlaut.sc" unicode="&#xe099;" horiz-adv-x="684" 
d="M512 244v225l-78 22c-3 13 -3 26 0 39h220c3 -13 3 -26 0 -39l-72 -21v-236c0 -161 -68 -244 -224 -244c-164 0 -240 71 -240 242v237l-68 22c-3 13 -3 26 0 39h282c3 -13 3 -26 0 -39l-79 -22v-225c0 -120 36 -169 129 -169c91 0 130 53 130 169zM201 623l123 150
c26 -19 48 -40 65 -63l-146 -127c-16 9 -30 23 -42 40zM392 623l123 150c26 -19 48 -40 65 -63l-146 -127c-16 9 -30 23 -42 40z" />
    <glyph glyph-name="Umacron.sc" unicode="&#xe09a;" horiz-adv-x="684" 
d="M512 244v225l-78 22c-3 13 -3 26 0 39h220c3 -13 3 -26 0 -39l-72 -21v-236c0 -161 -68 -244 -224 -244c-164 0 -240 71 -240 242v237l-68 22c-3 13 -3 26 0 39h282c3 -13 3 -26 0 -39l-79 -22v-225c0 -120 36 -169 129 -169c91 0 130 53 130 169zM515 620h-293
c-2 12 -3 25 -3 38c0 12 1 25 3 38h293c2 -13 3 -25 3 -38s-1 -26 -3 -38z" />
    <glyph glyph-name="Uogonek.sc" unicode="&#xe09b;" horiz-adv-x="684" 
d="M512 244v225l-78 22c-3 13 -3 26 0 39h220c3 -13 3 -26 0 -39l-72 -21v-236c0 -138 -53 -217 -158 -238c-3 -15 -5 -31 -5 -48c0 -59 22 -89 66 -89c13 0 27 4 42 11c9 -15 15 -31 17 -50c-21 -17 -50 -26 -87 -26c-75 0 -113 48 -113 121c0 25 4 50 13 75
c-164 1 -239 71 -239 242v237l-68 22c-3 13 -3 26 0 39h282c3 -13 3 -26 0 -39l-79 -22v-225c0 -120 36 -169 129 -169c91 0 130 53 130 169z" />
    </font>
</defs>
</svg>
